<?xml version="1.0" encoding="UTF-8" standalone="no"?>
<svg xmlns:rdf="http://www.w3.org/1999/02/22-rdf-syntax-ns#" xmlns="http://www.w3.org/2000/svg" xmlns:osb="http://www.openswatchbook.org/uri/2009/osb" height="32" width="32" version="1.0" xmlns:cc="http://creativecommons.org/ns#" xmlns:xlink="http://www.w3.org/1999/xlink" xmlns:dc="http://purl.org/dc/elements/1.1/">
 <path style="color:#000000" d="m0 0v32h32v-32z"/>
 <g transform="matrix(.1356 0 0 .1356 -1.345 -1.335)">
  <path style="fill:#fff" d="m59.99 88.74c22.67-13.06 45.34-26.1 68.02-39.11 22.67 13.02 45.37 26 68.01 39.07-0.03 26.11-0.04 52.22 0.01 78.33-22.63 13.09-45.36 25.98-68.03 38.99-22.73-13.12-45.58-26.03-68.24-39.26 9.04-5.15 18.07-10.31 27.13-15.43 13.7 7.9 27.44 15.75 41.11 23.7 13.64-8.01 27.46-15.71 41.05-23.8-0.12-10.45-0.01-20.89-0.06-31.34-13.65 7.92-27.32 15.82-40.99 23.71-22.69-12.91-45.31-25.95-68-38.88 0-5.33 0.01-10.66-0.01-15.98m40.28 7.84c9.2 5.4 18.5 10.66 27.73 16.02 9.29-5.33 18.57-10.67 27.88-15.99-9.2-5.31-18.5-10.68-27.8-15.99-9.25 5.3-18.46 10.68-27.73 15.94z"/>
 </g>
</svg>
