<?xml version="1.0" encoding="UTF-8" standalone="no"?>
<svg xmlns="http://www.w3.org/2000/svg" xmlns:osb="http://www.openswatchbook.org/uri/2009/osb" height="32" width="32" version="1.0" xmlns:xlink="http://www.w3.org/1999/xlink">
 <g transform="matrix(.1138 0 0 .1138 -64.82 -29.38)">
  <path style="fill:#5f99cf" d="m569.4 258.1h281.1v281.1h-281.1z"/>
  <path style="opacity:.1;fill-rule:evenodd" d="m718.1 301.6c-5.728 0-8.478 18.02-9.47 26.53-0.2021 2.574-0.4129 4.911-0.4129 7.274v25.49c-0.0703 1.476-0.3426 1.854-1.204 2.609l-20.69 17.12c-1.406 0.9224-3.259 0.8961-3.119-2.302v-2.267c0-1.274-1.028-2.302-2.372-2.302h-2.952c-1.335 0-2.398 1.028-2.398 2.302v13.35c0 0.4129-0.0703 0.448-0.3778 0.7204l-19.63 16.58c-1.994 1.335-2.75 0.0351-2.846-2.302v-4.155c0-1.274-1.028-2.302-2.372-2.302h-2.952c-1.335 0-2.398 1.028-2.398 2.302v13.83c0 0.1757-0.0703 0.2021-0.1757 0.2723l-21.04 17.3c-1.335 1.616-2.126 2.372-2.056 5.113l-0.1054 7.792c-0.1757 1.028 0.8961 1.476 1.616 1.133 0 0 35.93-21.1 49.69-26.91 13.79-5.763 32.15-9.743 32.15-9.743 1.406-0.3075 2.679-0.3778 3.224 1.063v58.4c0.0351 6.967 2.776 11.18 0 13.7l-22.92 21.21c-1.37 1.406-2.196 2.609-2.337 4.876l0.0351 2.433c0.0703 1.098 0.5183 1.678 1.581 1.546l29.31-6.826c0.7555-0.2372 1.37-0.1757 1.924 0.5535l2.987 6.281 3.672-6.448c0.5183-0.6852 1.476-0.9927 2.196-0.7555 9.022 2.021 18.05 4.05 27.11 6.106 1.133 0.1406 2.091 0.1054 2.231-1.37v-3.707c-0.5798-2.539-2.126-3.707-3.742-5.253l-22.99-18.63c-2.161-2.056-0.0351-6.448 0.7204-13.49v-57.72h0.0351v-0.0703h0.0703c0-0.1054 0.0351-0.1757 0.0351-0.2372 0.0351-0.1054 0.0703-0.1757 0.1054-0.2372 0-0.0703 0.0351-0.1406 0.0703-0.1757 0.0351-0.0703 0.0351-0.1757 0.0703-0.202 0.0351-0.0703 0.202-0.1406 0.202-0.1757 0.0351-0.0703 0.0703-0.1757 0.1406-0.2021 0.0351-0.0703 0.2021-0.1054 0.2021-0.1757l0.1406-0.1406c0.0703-0.0351 0.2021-0.0703 0.2021-0.1054 0.0703-0.0703 0.1406-0.1054 0.1757-0.1406 0.0703-0.0351 0.202-0.0351 0.202-0.0703 0.1054-0.0351 0.1757-0.0351 0.2021-0.0703 0.1406 0 0.202 0 0.2372-0.0351h0.2723c0.1054 0 0.1757 0.0351 0.2372 0.0351 0.1757 0 0.2021 0 0.3075 0.0351 0 0 16.67 3.435 30.75 9.092 14.1 5.666 51.58 27.01 51.58 27.01 0.9224 0.1757 1.652 0.0703 1.678-0.7555v-7.204c0.0351-1.924-1.274-3.672-2.056-4.428l-20.5-17.2c-0.7204-0.8258-0.8961-0.9927-0.8961-1.476v-13.7c0-1.274-1.098-2.302-2.398-2.302h-2.987c-1.3 0-2.398 1.028-2.398 2.302v4.155c0.2372 2.469-0.448 3.4-1.994 2.231l-20.28-16.51c-0.448-0.3778-0.5534-0.3778-0.5534-0.7555v-13.32c0-1.274-1.063-2.302-2.398-2.302h-2.952c-1.274 0-2.372 1.028-2.372 2.302v2.267c0.3426 3.189-1.854 3.813-3.33 2.302l-20.69-17.19c-0.8961-0.8258-0.8961-1.3-1.133-2.469v-25.56c-0.0703-2.504-0.1757-5.35-0.5183-7.652-1.3-8.961-4.972-28.28-9.365-26.12"/>
  <path style="fill:#fff;fill-rule:evenodd" d="m709.9 293.4c-5.728 0-8.478 18.02-9.47 26.53-0.2021 2.574-0.4129 4.911-0.4129 7.274v25.49c-0.0703 1.476-0.3426 1.854-1.204 2.609l-20.69 17.12c-1.406 0.9224-3.259 0.8961-3.119-2.302v-2.267c0-1.274-1.028-2.302-2.372-2.302h-2.952c-1.335 0-2.398 1.028-2.398 2.302v13.35c0 0.4129-0.0703 0.448-0.3778 0.7204l-19.63 16.58c-1.994 1.335-2.75 0.0351-2.846-2.302v-4.155c0-1.274-1.028-2.302-2.372-2.302h-2.952c-1.335 0-2.398 1.028-2.398 2.302v13.83c0 0.1757-0.0703 0.2021-0.1757 0.2723l-21.04 17.3c-1.335 1.616-2.126 2.372-2.056 5.113l-0.1054 7.792c-0.1757 1.028 0.8961 1.476 1.616 1.133 0 0 35.93-21.1 49.69-26.91 13.79-5.763 32.15-9.743 32.15-9.743 1.406-0.3075 2.679-0.3778 3.224 1.063v58.4c0.0351 6.967 2.776 11.18 0 13.7l-22.92 21.21c-1.37 1.406-2.196 2.609-2.337 4.876l0.0351 2.433c0.0703 1.098 0.5183 1.678 1.581 1.546l29.31-6.826c0.7555-0.2372 1.37-0.1757 1.924 0.5535l2.987 6.281 3.672-6.448c0.5183-0.6852 1.476-0.9927 2.196-0.7555 9.022 2.021 18.05 4.05 27.11 6.106 1.133 0.1406 2.091 0.1054 2.231-1.37v-3.707c-0.5798-2.539-2.126-3.707-3.742-5.253l-22.99-18.63c-2.161-2.056-0.0351-6.448 0.7204-13.49v-57.72h0.0351v-0.0703h0.0703c0-0.1054 0.0351-0.1757 0.0351-0.2372 0.0351-0.1054 0.0703-0.1757 0.1054-0.2372 0-0.0703 0.0351-0.1406 0.0703-0.1757 0.0351-0.0703 0.0351-0.1757 0.0703-0.202 0.0351-0.0703 0.202-0.1406 0.202-0.1757 0.0351-0.0703 0.0703-0.1757 0.1406-0.2021 0.0351-0.0703 0.2021-0.1054 0.2021-0.1757l0.1406-0.1406c0.0703-0.0351 0.2021-0.0703 0.2021-0.1054 0.0703-0.0703 0.1406-0.1054 0.1757-0.1406 0.0703-0.0351 0.202-0.0351 0.202-0.0703 0.1054-0.0351 0.1757-0.0351 0.2021-0.0703 0.1406 0 0.202 0 0.2372-0.0351h0.2723c0.1054 0 0.1757 0.0351 0.2372 0.0351 0.1757 0 0.2021 0 0.3075 0.0351 0 0 16.67 3.435 30.75 9.092 14.1 5.666 51.58 27.01 51.58 27.01 0.9224 0.1757 1.652 0.0703 1.678-0.7555v-7.204c0.0351-1.924-1.274-3.672-2.056-4.428l-20.56-17.33c-0.7204-0.8258-0.8961-0.9927-0.8961-1.476v-13.7c0-1.274-1.098-2.302-2.398-2.302h-2.987c-1.3 0-2.398 1.028-2.398 2.302v4.155c0.2372 2.469-0.448 3.4-1.994 2.231l-20.28-16.51c-0.448-0.3778-0.5534-0.3778-0.5534-0.7555v-13.32c0-1.274-1.063-2.302-2.398-2.302h-2.952c-1.274 0-2.372 1.028-2.372 2.302v2.267c0.3426 3.189-1.854 3.813-3.33 2.302l-20.69-17.19c-0.8961-0.8258-0.8961-1.3-1.133-2.469v-25.56c-0.0703-2.504-0.1757-5.35-0.5183-7.652-1.3-8.961-4.972-28.28-9.365-26.12"/>
 </g>
</svg>
