<?xml version="1.0" encoding="UTF-8" standalone="no"?>
<svg xmlns="http://www.w3.org/2000/svg" xmlns:osb="http://www.openswatchbook.org/uri/2009/osb" height="32" width="32" version="1.0" xmlns:xlink="http://www.w3.org/1999/xlink">
 <g transform="matrix(.1138 0 0 .1138 -64.82 -29.38)">
  <path style="fill:#fff" d="m569.4 258.1h281.1v281.1h-281.1z"/>
  <g style="opacity:.1" transform="matrix(.5729 0 0 .5729 358.8 281.8)">
   <g transform="matrix(8.785 0 0 8.785 368.4 -43.85)">
    <g>
     <path d="m44 33.3c0 1.2-1 2.3-2.3 2.3h-26.6c-1.3 0-2.3-1-2.3-2.3v-17.4c0-1.2 1-2.3 2.3-2.3h26.6c1.3 0 2.3 1 2.3 2.3z"/>
    </g>
    <g>
     <path d="m50.7 35.1-3.3-2.4c-0.7-0.5-1.1-1.3-1.1-2.1v-12.1c0-0.8 0.4-1.6 1.1-2.1l3.3-2.4c0.4-0.3 1 0 1 0.5v20c0.1 0.6-0.5 0.9-1 0.6z"/>
    </g>
    <path d="m37.1 18.2h-26.6c-1.3 0-2.3 1-2.3 2.3v17.4c0 1.2 1 2.3 2.3 2.3h7.8l11.1 6.7v-6.9h7.8c1.3 0 2.3-1 2.3-2.3v-17.3c-0.1-1.2-1.1-2.2-2.4-2.2z"/>
   </g>
  </g>
  <g transform="matrix(.5729 0 0 .5729 348.1 271.5)">
   <g transform="matrix(8.785 0 0 8.785 368.4 -43.85)">
    <g id="camera_body_7_">
     <path style="fill:#41cc8d" d="m44 33.3c0 1.2-1 2.3-2.3 2.3h-26.6c-1.3 0-2.3-1-2.3-2.3v-17.4c0-1.2 1-2.3 2.3-2.3h26.6c1.3 0 2.3 1 2.3 2.3z"/>
    </g>
    <g id="lens_7_">
     <path style="fill:#41cc8d" d="m50.7 35.1-3.3-2.4c-0.7-0.5-1.1-1.3-1.1-2.1v-12.1c0-0.8 0.4-1.6 1.1-2.1l3.3-2.4c0.4-0.3 1 0 1 0.5v20c0.1 0.6-0.5 0.9-1 0.6z"/>
    </g>
    <path id="speech_bubble_5_" d="m37.1 18.2h-26.6c-1.3 0-2.3 1-2.3 2.3v17.4c0 1.2 1 2.3 2.3 2.3h7.8l11.1 6.7v-6.9h7.8c1.3 0 2.3-1 2.3-2.3v-17.3c-0.1-1.2-1.1-2.2-2.4-2.2z" style="fill:#ff2e63"/>
   </g>
   <path id="a_5_" d="m626.7 258.4h-18.45v-14.93c-7.028 10.54-18.45 17.57-32.5 17.57-28.99 0-45.68-23.72-45.68-50.95 0-25.48 17.57-49.2 44.8-49.2 14.06 0 25.48 7.028 33.38 18.45v-15.81h18.45zm-17.57-46.56c0-18.45-11.42-33.38-30.75-33.38s-29.87 15.81-29.87 33.38 10.54 34.26 29.87 34.26 30.75-15.81 30.75-34.26z" style="stroke-width:8.785;fill:#fff"/>
  </g>
 </g>
</svg>
