<?xml version="1.0" encoding="UTF-8" standalone="no"?>
<svg
   xmlns:dc="http://purl.org/dc/elements/1.1/"
   xmlns:cc="http://creativecommons.org/ns#"
   xmlns:rdf="http://www.w3.org/1999/02/22-rdf-syntax-ns#"
   xmlns:svg="http://www.w3.org/2000/svg"
   xmlns="http://www.w3.org/2000/svg"
   id="svg7649"
   version="1.0"
   width="32"
   height="32">
  <metadata
     id="metadata7661">
    <rdf:RDF>
      <cc:Work
         rdf:about="">
        <dc:format>image/svg+xml</dc:format>
        <dc:type
           rdf:resource="http://purl.org/dc/dcmitype/StillImage" />
        <dc:title></dc:title>
      </cc:Work>
    </rdf:RDF>
  </metadata>
  <defs
     id="defs7659">
    <linearGradient
       gradientTransform="matrix(0,-1,1,0,-1.5e-6,47.999998)"
       gradientUnits="userSpaceOnUse"
       x2="47"
       x1="1"
       id="linearGradient3764">
      <stop
         id="stop7"
         style="stop-color:#344e8e;stop-opacity:1" />
      <stop
         id="stop9"
         style="stop-color:#3a569c;stop-opacity:1"
         offset="1" />
    </linearGradient>
    <linearGradient
       gradientTransform="matrix(0,-1,1,0,44.444443,47.999998)"
       gradientUnits="userSpaceOnUse"
       x2="47"
       x1="1"
       id="linearGradient3764-1">
      <stop
         id="stop7-0"
         style="stop-color:#f7b747;stop-opacity:1" />
      <stop
         id="stop9-3"
         style="stop-color:#f8bd5a;stop-opacity:1"
         offset="1" />
    </linearGradient>
  </defs>
  <path
     id="path7651"
     style="color:#000000;fill:#f8bd59;fill-opacity:1"
     d="M 0,0 0,32 32,32 32,0 Z" />
  <g
     transform="matrix(0.84408493,0,0,0.84408493,-4.2497067,-3.9557375)"
     id="g8644">
    <g
       transform="matrix(0.9,0,0,0.9,2.4499,2.45)"
       id="g21" />
    <path
       id="path29"
       style="opacity:0.1;fill:#000000;fill-opacity:1;fill-rule:nonzero;stroke:none"
       d="m 24.9499,11.45 c -7.4556,0 -13.5,6.0444 -13.5,13.5 0.0018,4.5837 2.1843,9.1035 6.1893,11.3346 1.8297,1.0188 3.6981,0.1926 4.2993,-0.9666 0.1566,-0.3024 0.1611,-0.6372 0.2124,-0.9 l -3.609,-6.2298 c -0.7839,-0.531 -1.5948,0.3726 -2.3364,0.8649 -0.6147,0.4041 -0.8685,0.5805 -1.116,0.2826 C 14.4721,27.956 14.149,26.462 14.149,24.95 c -9e-4,-5.9643 4.8357,-10.8 10.8,-10.8 5.9643,0 10.8,4.8357 10.8,10.8 0,1.512 -0.3231,3.006 -0.9405,4.3857 -0.2475,0.2979 -0.5013,0.1215 -1.116,-0.2826 -0.7416,-0.4923 -1.5525,-1.3959 -2.3364,-0.8649 l -3.609,6.2298 c 0,0.3258 -0.0117,0.6948 0.2124,0.8982 1.4958,1.3563 2.9889,1.6866 4.2993,0.9684 4.0203,-2.2023 6.1875,-6.7509 6.1893,-11.3346 0.0027,-7.4556 -6.0444,-13.5 -13.5,-13.5 z m 0,6.3 -5.4,4.5 0,0.9 2.7,0 0,6.3 5.4,0 0,-6.3 2.7,0 0,-0.9 -5.4,-4.5 z" />
    <path
       id="path31"
       style="opacity:1;fill:#eaeaea;fill-opacity:1;stroke:none"
       d="m 24.0499,10.55 c -7.4556,0 -13.5,6.0444 -13.5,13.5 0.0018,4.5837 2.1843,9.1035 6.1893,11.3346 1.8297,1.0188 3.6981,0.1926 4.2993,-0.9666 0.1566,-0.3024 0.1611,-0.6372 0.2124,-0.9 l -3.609,-6.2298 c -0.7839,-0.531 -1.5948,0.3726 -2.3364,0.8649 -0.6147,0.4041 -0.8685,0.5805 -1.116,0.2826 C 13.5721,27.056 13.249,25.562 13.249,24.05 c -9e-4,-5.9643 4.8357,-10.8 10.8,-10.8 5.9643,0 10.8,4.8357 10.8,10.8 0,1.512 -0.3231,3.006 -0.9405,4.3857 -0.2475,0.2979 -0.5013,0.1215 -1.116,-0.2826 -0.7416,-0.4923 -1.5525,-1.3959 -2.3364,-0.8649 l -3.609,6.2298 c 0,0.3258 -0.0117,0.6948 0.2124,0.8982 1.4958,1.3563 2.9889,1.6866 4.2993,0.9684 4.0203,-2.2023 6.1875,-6.7509 6.1893,-11.3346 0.0027,-7.4556 -6.0444,-13.5 -13.5,-13.5 z" />
    <path
       id="path33"
       style="opacity:1;fill:#c48924;fill-opacity:1;stroke:none"
       d="m 24.0499,16.85 -5.4,4.5 0,0.9 2.7,0 0,6.3 5.4,0 0,-6.3 2.7,0 0,-0.9 z" />
  </g>
</svg>
