<?xml version="1.0" encoding="UTF-8" standalone="no"?>
<svg xmlns="http://www.w3.org/2000/svg" xmlns:osb="http://www.openswatchbook.org/uri/2009/osb" height="32" width="32" version="1.0" xmlns:xlink="http://www.w3.org/1999/xlink">
 <g transform="matrix(.1138 0 0 .1138 -64.82 -29.38)">
  <path style="fill:#20adb6" d="m569.4 258.1h281.1v281.1h-281.1z"/>
  <g style="opacity:.1" transform="matrix(8.785 0 0 8.785 320.3 113.3)">
   <g style="" transform="matrix(.5057 0 0 .5057 33.18 21.14)">
    <path style="" d="m40.4 27.44c-0.623-0.532-1.413-0.713-2.167-0.608 0 0 0.025-13.26 0.025-13.35 0-7.411-6.014-13.42-13.42-13.42-7.402 0-13.4 6.008-13.4 13.42 0 0.141-0.044 13.32-0.044 13.32-0.718-0.066-1.376 0.136-1.969 0.639-1.144 0.974-1.285 2.674-0.349 3.835l15.9 19.13 15.88-19.33c0.78-1.15 0.63-2.71-0.46-3.63zm-24.86-11.41c0-1.041 0.84-1.881 1.881-1.881h4.23c1.04 0 1.88 0.84 1.88 1.881 0 1.039-0.84 1.88-1.88 1.88h-4.23c-1.041 0-1.881-0.841-1.881-1.88zm9.323 13.23c-1.856 0-3.362-1.506-3.362-3.361 0-1.854 1.506-3.36 3.362-3.36s3.363 1.506 3.363 3.36c0 1.855-1.507 3.361-3.363 3.361zm7.29-11.35h-4.231c-1.04 0-1.879-0.841-1.879-1.88 0-1.041 0.839-1.881 1.879-1.881h4.231c1.041 0 1.881 0.84 1.881 1.881 0 1.039-0.84 1.88-1.881 1.88z"/>
   </g>
  </g>
  <g transform="matrix(8.785 0 0 8.785 307.8 100.8)">
   <g transform="matrix(.5057 0 0 .5057 33.18 21.14)">
    <path d="m40.4 27.44c-0.623-0.532-1.413-0.713-2.167-0.608 0 0 0.025-13.26 0.025-13.35 0-7.411-6.014-13.42-13.42-13.42-7.402 0-13.4 6.008-13.4 13.42 0 0.141-0.044 13.32-0.044 13.32-0.718-0.066-1.376 0.136-1.969 0.639-1.144 0.974-1.285 2.674-0.349 3.835l15.9 19.13 15.88-19.33c0.78-1.15 0.63-2.71-0.46-3.63zm-24.86-11.41c0-1.041 0.84-1.881 1.881-1.881h4.23c1.04 0 1.88 0.84 1.88 1.881 0 1.039-0.84 1.88-1.88 1.88h-4.23c-1.041 0-1.881-0.841-1.881-1.88zm9.323 13.23c-1.856 0-3.362-1.506-3.362-3.361 0-1.854 1.506-3.36 3.362-3.36s3.363 1.506 3.363 3.36c0 1.855-1.507 3.361-3.363 3.361zm7.29-11.35h-4.231c-1.04 0-1.879-0.841-1.879-1.88 0-1.041 0.839-1.881 1.879-1.881h4.231c1.041 0 1.881 0.84 1.881 1.881 0 1.039-0.84 1.88-1.881 1.88z"/>
   </g>
  </g>
 </g>
</svg>
