<?xml version="1.0" encoding="UTF-8" standalone="no"?>
<svg xmlns="http://www.w3.org/2000/svg" xmlns:osb="http://www.openswatchbook.org/uri/2009/osb" height="32" width="32" version="1.0" xmlns:xlink="http://www.w3.org/1999/xlink">
 <g transform="matrix(.1138 0 0 .1138 -64.82 -29.38)">
  <path style="fill:#3b6ea8" d="m569.4 258.1h281.1v281.1h-281.1z"/>
  <g style="opacity:.1" transform="matrix(1.61 0 0 1.61 667 296.9)">
   <path d="m15.8 17.5v68.7c0 9.7 7.9 17.5 17.6 17.5s17.6-7.9 17.6-17.5v-68.7c-0.1-9.6-8-17.5-17.7-17.5s-17.5 7.9-17.5 17.5z"/>
   <path d="m66.7 86.8c0 16.8-12.5 30.8-28.8 33v10.3h13.5c2.5 0 4.5 2 4.5 4.5s-2 4.5-4.5 4.5h-36c-2.5 0-4.5-2-4.5-4.5s2-4.5 4.5-4.5h13.5v-10.3c-16.3-2.2-28.9-16.2-28.9-33v-22.6c0-2.5 2-4.5 4.5-4.5s4.5 2 4.5 4.5v22.6c0 13.3 10.9 24.2 24.3 24.2s24.3-10.9 24.3-24.3v-22.5c0-2.5 2-4.5 4.5-4.5s4.5 2 4.5 4.5z"/>
  </g>
  <g transform="matrix(1.61 0 0 1.61 656.3 286.7)">
   <path style="fill:#fff" d="m15.8 17.5v68.7c0 9.7 7.9 17.5 17.6 17.5s17.6-7.9 17.6-17.5v-68.7c-0.1-9.6-8-17.5-17.7-17.5s-17.5 7.9-17.5 17.5z"/>
   <path style="fill:#fff" d="m66.7 86.8c0 16.8-12.5 30.8-28.8 33v10.3h13.5c2.5 0 4.5 2 4.5 4.5s-2 4.5-4.5 4.5h-36c-2.5 0-4.5-2-4.5-4.5s2-4.5 4.5-4.5h13.5v-10.3c-16.3-2.2-28.9-16.2-28.9-33v-22.6c0-2.5 2-4.5 4.5-4.5s4.5 2 4.5 4.5v22.6c0 13.3 10.9 24.2 24.3 24.2s24.3-10.9 24.3-24.3v-22.5c0-2.5 2-4.5 4.5-4.5s4.5 2 4.5 4.5z"/>
  </g>
 </g>
</svg>
