<?xml version="1.0" encoding="UTF-8" standalone="no"?>
<svg
   xmlns:dc="http://purl.org/dc/elements/1.1/"
   xmlns:cc="http://creativecommons.org/ns#"
   xmlns:rdf="http://www.w3.org/1999/02/22-rdf-syntax-ns#"
   xmlns:svg="http://www.w3.org/2000/svg"
   xmlns="http://www.w3.org/2000/svg"
   version="1.0"
   width="32"
   height="32"
   id="svg2817">
  <metadata
     id="metadata11">
    <rdf:RDF>
      <cc:Work
         rdf:about="">
        <dc:format>image/svg+xml</dc:format>
        <dc:type
           rdf:resource="http://purl.org/dc/dcmitype/StillImage" />
        <dc:title></dc:title>
      </cc:Work>
    </rdf:RDF>
  </metadata>
  <defs
     id="defs9" />
  <path
     id="path3"
     d="m0 0v32h32v-32z"
     style="fill:#eace54;fill-opacity:1" />
  <path
     style="color:#000000;isolation:auto;mix-blend-mode:normal;solid-color:#000000;fill:#000000;fill-opacity:1;color-rendering:auto;image-rendering:auto;shape-rendering:auto;opacity:0.1"
     d="m 16.862902,7.0360698 -6.722794,0.49141 -1.9111988,2.5660992 -0.16354,4.696894 3.6587928,2.4571 -1.310696,2.9493 1.256196,5.4056 5.1932,1.8566 5.1932,-1.8566 1.2554,-5.4056 -1.3099,-2.9493 3.6588,-2.4571 -0.16435,-4.696894 -1.9112,-2.5660992 z m -0.78675,1.5288 c 0,0 1.4284,10.6329932 1.5507,12.0029932 -0.16826,-0.01312 -0.33916,-0.02091 -0.51339,-0.01629 -2.0478,0.05461 -3.85,1.5288 -3.85,1.5288 l 1.3384,1.4474 c 0,0 0.9832,-0.81894 2.3757,-0.79164 0.1541,0.0029 0.31232,0.0125 0.47108,0.02441 -0.35307,1.4862 -1.0178,3.3887 -1.0178,3.3887 l -4.2047,-1.8298 -0.845,-3.986 2.185,-3.249 -3.9324928,-2.785 -0.109,-2.976 1.4194928,-2.3757932 5.133,-0.3824 z m -1.1081,1.6108992 -3.7133,0.08217 c 0,0 -1.4742928,1.637795 -1.4196928,2.320395 0.054608,0.68261 3.4130928,3.1405 4.0956928,2.8948 0.68261,-0.24574 2.2114,-3.5229 2.2114,-3.5229 0,0 0.1994,-0.21541 -0.08136,-0.84615 -0.41217,-0.925985 -1.0927,-0.928315 -1.0927,-0.928315 z m 4.112,0 3.7133,0.08217 c 0,0 1.4743,1.637795 1.4197,2.320395 -0.05461,0.68261 -3.4131,3.1405 -4.0957,2.8948 -0.68261,-0.24574 -2.2114,-3.5229 -2.2114,-3.5229 0,0 -0.1994,-0.21541 0.08136,-0.84615 0.41217,-0.925985 1.0927,-0.928315 1.0927,-0.928315 z m -3.5074,1.461194 -0.49223,1.8827 -4.769295,-0.53128 0.270107,-1.3034 z m 2.9029,0 0.49223,1.8827 4.7693,-0.53128 -0.27011,-1.3034 z"
     id="path4139" />
  <path
     id="path5"
     fill="#fff"
     d="m16 6.2211-6.7228 0.49141-1.9112 2.5661-0.16354 4.6969 3.6588 2.4571-1.3107 2.9493 1.2562 5.4056 5.1932 1.8566 5.1932-1.8566 1.2554-5.4056-1.3099-2.9493 3.6588-2.4571-0.16435-4.6969-1.9112-2.5661zm-0.78675 1.5288s1.4284 10.633 1.5507 12.003c-0.16826-0.01312-0.33916-0.02091-0.51339-0.01629-2.0478 0.05461-3.85 1.5288-3.85 1.5288l1.3384 1.4474s0.9832-0.81894 2.3757-0.79164c0.1541 0.0029 0.31232 0.0125 0.47108 0.02441-0.35307 1.4862-1.0178 3.3887-1.0178 3.3887l-4.2047-1.8298-0.845-3.986 2.185-3.249-3.9325-2.785-0.109-2.976 1.4195-2.3758 5.133-0.3824zm-1.1081 1.6109-3.7133 0.082171s-1.4743 1.6378-1.4197 2.3204c0.054608 0.68261 3.4131 3.1405 4.0957 2.8948 0.68261-0.24574 2.2114-3.5229 2.2114-3.5229s0.1994-0.21541-0.08136-0.84615c-0.41217-0.92599-1.0927-0.92832-1.0927-0.92832zm4.112 0 3.7133 0.082171s1.4743 1.6378 1.4197 2.3204c-0.05461 0.68261-3.4131 3.1405-4.0957 2.8948-0.68261-0.24574-2.2114-3.5229-2.2114-3.5229s-0.1994-0.21541 0.08136-0.84615c0.41217-0.92599 1.0927-0.92832 1.0927-0.92832zm-3.5074 1.4612-0.49223 1.8827-4.7693-0.53128 0.27011-1.3034zm2.9029 0 0.49223 1.8827 4.7693-0.53128-0.27011-1.3034z"
     style="color-rendering:auto;color:#000000;isolation:auto;mix-blend-mode:normal;shape-rendering:auto;solid-color:#000000;image-rendering:auto;fill:#b70000;fill-opacity:1" />
</svg>
