<?xml version="1.0" encoding="UTF-8" standalone="no"?>
<svg xmlns:rdf="http://www.w3.org/1999/02/22-rdf-syntax-ns#" xmlns="http://www.w3.org/2000/svg" xmlns:osb="http://www.openswatchbook.org/uri/2009/osb" height="32" width="32" version="1.0" xmlns:cc="http://creativecommons.org/ns#" xmlns:xlink="http://www.w3.org/1999/xlink" xmlns:dc="http://purl.org/dc/elements/1.1/">
 <path style="color:#000000;fill:#c4c4c4" d="m0 0v32h32v-32z"/>
 <path style="color:#000000;opacity:.1" d="m-0.01771 1.137v0.01758l4.456-1.164c0.000131-0.0002234 0.0059-0.01367 0.0059-0.01367l-4.462 1.16zm4.456-1.147c-0.0117 0.02002-0.5358 2.086-0.5977 3.291 0 1.313 1.066 2.377 1.066 2.377 0.1565 0.3483 0.6988 0.7502 0.9863 1.035 0.4323 0.4284 0.5665 0.597 0.7734 0.9805 0.3061 0.5673 0.799 1.317 1.059 1.609 0.1639 0.1845 0.3882 0.3125 1.482 0.8535 1.098 0.5427 1.302 0.6614 1.379 0.7969l0.08984 0.1582-0.1504 0.1406-0.1523 0.1426v0.8594 0.8574h-0.1445-0.1465v-0.5273c0-0.6665-0.0242-0.7038-0.418-0.6836l-0.291 0.01563-0.01367 0.5879-0.01367 0.5879-0.2188 0.05859c-0.1613 0.04315-0.2451 0.1019-0.3164 0.2188-0.08876 0.1456-0.09554 0.2479-0.0957 1.246-0.000195 1.247 0.02717 1.382 0.3145 1.502l0.1738 0.07227v3.855 3.855h-0.1465-0.1465v-0.6152c0-0.6134 0.000005-0.6133-0.1426-0.7559-0.1969-0.1969-0.4457-0.1969-0.6426 0l-0.1426 0.1426v3.494 3.494l-0.3535-0.0098c-0.1946-0.0054-0.5244-0.01818-0.7324-0.02734l-0.3789-0.01563v-0.416c0-0.6102-0.1595-0.8984-0.498-0.8984h-0.1367v-1.928c0-1.896 0.0017-1.93 0.09766-1.93 0.05369 0 0.1416-0.04398 0.1953-0.09766 0.09183-0.09183 0.09766-0.1621 0.09766-1.195s-0.0057-1.103-0.09766-1.195c-0.0687-0.06869-0.1618-0.09766-0.3164-0.09766h-0.2207v-0.4609c0-0.4719-0.05106-0.6133-0.2227-0.6133-0.03943 0-0.06964-0.04728-0.07031-0.1094-0.0028-0.2621-0.05639-1.022-0.09961-1.412-0.07936-0.7171-0.5526-1.917-1.104-2.799-0.563-0.9015-1.083-2.169-1.209-2.947-0.085-0.48-0.184-0.76-0.523-1.42-0.31-0.61-0.377-0.89-0.414-1.78-0.033-0.811-0.04-0.88-0.174-1.517-0.107-0.515-1.957-3.977-1.931-3.166l0.08326 1.436v8.527c0-0.4315 0.0082-0.4856 0.06445-0.4023 0.09652 0.1427 1.688 0.8356 1.688 0.8711 0 0.01682-0.1219 0.03125-0.2695 0.03125h-1.483v4.637h1.532c0.288 0 0.3188-0.0093 0.3418-0.1094 0.0139-0.06041 0.02292-0.495 0.01953-0.9648-0.0034-0.4698-0.0033-0.9238 0-1.01l0.0059-0.1562 0.3047-0.01563 0.3047-0.01367 0.01367-0.5762c0.01018-0.4264 0.03032-0.5726 0.07422-0.5586 0.0661 0.02105 1.367 1.488 1.893 2.135 0.3979 0.4894 0.527 0.732 0.5664 1.064 0.02554 0.2156 0.0173 0.2498-0.07422 0.2988-0.09523 0.05096-0.1055 0.09684-0.1055 0.543v0.4863h-0.1699-0.1719v-0.9219c0-1.038 0.02418-0.9824-0.3887-0.9824s-0.3906-0.05524-0.3906 0.9824v0.9219h-0.2148c-0.1316 0-0.254 0.03348-0.3184 0.08594-0.1016 0.08289-0.106 0.1177-0.1055 1.207 0.000551 1.087 0.0046 1.126 0.1055 1.209 0.0573 0.04698 0.1346 0.08398 0.1719 0.08398 0.05311 0 0.06836 0.1016 0.06836 0.4648v0.4629h-1.123-2.338v0.9277h2.338 1.123v0.9941 0.9941l-0.1934 0.03125c-0.1248 0.01994-0.2252 0.07647-0.291 0.1602-0.09812 0.1247-0.1016 0.1805-0.1016 1.902v1.775h-0.3418-0.3418v-0.9199c0-0.5475-0.0225-0.9838-0.05469-1.076-0.07-0.2-0.264-0.29-0.625-0.29h-1.51v3.318h2.538c-0.3153 0-0.3457-0.0085-0.3457-0.09961 0-0.09215 0.02454-0.09926 0.3281-0.08594 0.2676 0.01174 0.3325 0.03012 0.3457 0.09961 0.01427 0.07485-0.02564 0.08595-0.3281 0.08595h5.023v-0.4766c-0.0011-0.7085-0.1441-0.8937-0.709-0.9297l-0.3164-0.02148v-0.7754-0.7754h0.7324 0.7324v1.49 1.488h7.811v-0.5117-0.5137h0.4375v0.5137 0.5117h6.834v-3.221h1.904v0.5488 0.5488l-0.1465 0.08203c-0.3019 0.1718-0.3416 0.3147-0.3418 1.223v0.8184h5.414l0.01367-0.3535 0.01562-0.3535 0.2559-0.01563 0.2559-0.01367v0.3672 0.3691h2.762v-15.87c-0.0073 0.1097-0.0092 0.4682-0.01953 0.4785-0.03575 0.03575-0.06749 0.06115-0.07227 0.05664-0.0048-0.0045-0.09104-0.01682-0.1914-0.02734l-0.1836-0.01758-0.01172-1.938-0.01367-1.938-0.2754-0.01563-0.2773-0.01367-0.1074-0.3516c-0.14-0.43-0.19-0.51-0.84-1.18-0.67-0.69-0.67-0.69-0.73-2.17-0.02-0.6-0.05-1.16-0.07-1.24-0.07-0.331-0.4-0.936-0.66-1.221-0.38-0.406-0.46-0.546-0.56-0.871-0.08-0.278 0.04-0.281 0.06-0.986 0.04-2.433-0.24-4.083 2.11-5.827l-5.1 0.1769c-0.6569 1.774-0.2236 3.923 0.1621 5.136 0.1616 0.5083 0.4342 0.6398 0.6504 1.607 0.08166 0.3656 0.1999 0.7805 0.2637 0.9199 0.1595 0.3488 0.5656 0.8754 1.123 1.455 0.2581 0.2685 0.5234 0.5743 0.5879 0.6816 0.06445 0.1074 0.2132 0.4832 0.332 0.834s0.277 0.7335 0.3516 0.8516c0.162 0.2567 0.9706 1.098 1.385 1.439 0.1657 0.1367 0.3511 0.3465 0.4219 0.4766 0.1313 0.2413 0.1271 0.2526-0.09961 0.2891-0.09596 0.01545-0.09694 0.05934-0.1094 2.518l-0.01367 2.5h-0.125c-0.1952 0-0.4507 0.1441-0.5957 0.334-0.1267 0.1659-0.1327 0.1988-0.1562 0.9316l-0.02344 0.7617h-1.025-1.025v-1.635c0-1.597 0.0023-1.635 0.09766-1.65 0.4567-0.07301 0.5117-0.1997 0.5117-1.152 0-0.7349-0.002-0.7589-0.1211-0.9004-0.07013-0.08335-0.2019-0.1642-0.3066-0.1895l-0.1816-0.04297 0.01563-0.2559c0.02009-0.3227-0.03865-0.3984-0.3145-0.3984h-0.2129v-0.4785c0-0.307-0.021-0.4995-0.05859-0.5371-0.08298-0.08298-2.144-0.08298-2.227 0-0.03758 0.03758-0.05859 0.2301-0.05859 0.5371v0.4785h-0.2109c-0.1154 0-0.2354 0.02636-0.2676 0.05859-0.03221 0.03221-0.05859 0.1832-0.05859 0.3359 0 0.2762 0.000015 0.2782-0.1621 0.3086-0.08967 0.01682-0.2166 0.08746-0.2812 0.1562-0.1122 0.1193-0.1178 0.159-0.1328 0.8828-0.01071 0.5168 0.0026 0.805 0.04297 0.9023 0.06256 0.151 0.2662 0.2852 0.4336 0.2852h0.09961v5.734 5.736h-1.904v-0.4414c0-0.2924-0.02301-0.4886-0.07031-0.5801-0.09563-0.1849-0.3495-0.3933-0.5215-0.4277l-0.1406-0.02734v-7.111-7.111l0.1699-0.08203c0.3204-0.1528 0.3265-0.1967 0.3281-2.033 0.0017-1.874 0.000546-1.889-0.3652-2.055-0.1551-0.07044-0.3201-0.09294-0.6816-0.09375l-0.4746-0.00195v-0.9453-0.9473l-0.2207-0.0332-0.2188-0.0332v-0.6758c0-0.4958-0.01722-0.6949-0.06445-0.7422-0.04625-0.04627-0.1597-0.05657-0.4023-0.03906l-0.3398 0.02344-0.02344 0.707-0.02539 0.709-0.2305 0.04492-0.2324 0.04492v0.9434 0.9434h-0.2207-0.2188v-0.6543c0-0.5511-0.01304-0.6586-0.07812-0.6836-0.1507-0.05784-0.9399-0.03076-0.9805 0.0332-0.02128 0.03356-0.03862 0.3463-0.03906 0.6953v0.6348l-0.5254 0.00781c-0.4497 0.00769-0.5459 0.02356-0.6719 0.1133-0.2885 0.2055-0.2912 0.2308-0.291 2.012 0.000196 1.536 0.0039 1.633 0.0957 1.783 0.05341 0.08759 0.1753 0.1972 0.2695 0.2422l0.1719 0.08203-0.01367 7.098-0.01172 7.098-0.1875 0.06445c-0.216 0.07426-0.3979 0.2276-0.5137 0.4375-0.06864 0.1244-0.08245 0.3538-0.0957 1.525l-0.01563 1.379h-0.4316l-0.002-1.842c-0.000926-1.687-0.0093-1.858-0.0918-2.037-0.04956-0.1074-0.1481-0.2494-0.2188-0.3145l-0.127-0.1191v-2.307c0-2.198 0.0042-2.307 0.08984-2.334 0.04945-0.0157 0.1424-0.08554 0.207-0.1543 0.1138-0.1211 0.117-0.1528 0.1328-1.012 0.01036-0.5626-0.0023-0.9543-0.03711-1.07-0.05892-0.1967-0.2442-0.3301-0.459-0.3301h-0.1211l-0.01563-0.7598c-0.01658-0.7608-0.01813-0.7616-0.1523-0.877-0.1302-0.1119-0.134-0.1298-0.1348-0.6172-0.000391-0.2765-0.01885-0.5315-0.04102-0.5664-0.02799-0.04413-0.1343-0.05907-0.3516-0.04883l-0.3145 0.01367-0.01367 0.5332c-0.01339 0.5116-0.01917 0.5389-0.1582 0.6973l-0.1445 0.1641v0.7305 0.7305h-0.123-0.1211v-0.582c0-0.32-0.013-0.6157-0.0293-0.6582-0.04252-0.1108-0.5825-0.1108-0.625 0-0.0163 0.04246-0.0293 0.3382-0.0293 0.6582v0.582h-0.125c-0.1455 0-0.3135 0.08083-0.3984 0.1914-0.04217 0.05493-0.05945 0.3695-0.06055 1.08-0.0017 1.084 0.01694 1.173 0.2715 1.27 0.1057 0.04019 0.1172 0.07242 0.1172 0.3379v0.2949h-0.5117-0.5137v-3.246-3.244l0.123-0.03125c0.0672-0.01687 0.1771-0.09611 0.2441-0.1758l0.1211-0.1445v-1.207-1.207l-0.1348-0.1309c-0.0748-0.07167-0.2067-0.1449-0.293-0.1621l-0.1582-0.03125v-0.8691c0-0.9141-0.01309-0.9727-0.2344-1.043-0.06703-0.02128-0.1002-0.1144-0.1406-0.3945-0.06-0.43-0.17-0.59-0.97-1.411-0.281-0.295-0.566-0.637-0.629-0.758-0.062-0.12-0.174-0.46-0.246-0.755-0.087-0.36-0.234-0.757-0.441-1.198-0.304-0.645-0.31-1.022-0.414-1.343-0.424-1.304-1.228-3.699-0.012-5.315zm4.07 0 17.75 0.202c0.002-0.00533-17.74-0.2196-17.74-0.2196-0.0047 0.00613-0.0071 0.01146-0.01172 0.01758zm22.85 0.02482h0.9473c-0.4597-0.00665 1.08-0.01758 1.08-0.01758-0.0098 0.00498-2.018 0.01251-2.027 0.01758zm0.9473 0c0.4471 0.00646 0.8712 0.00782 0.8945 0.01758v-0.01758zm0.8945 0.01758v17.25c0.03045-0.4607 0.04341-1.675 0.03711-5.83-0.0052-3.434-0.01187-11.4-0.01367-11.42-0.000023-0.0002567-0.02283 0.0002555-0.02344 0zm-2.762 21.89v4.639 4.637h-0.2363c-0.1298 0-0.2497-0.01336-0.2676-0.03125-0.0179-0.0179-0.0332-1.213-0.0332-2.654v-2.621l-0.125-0.125c-0.2429-0.2429-0.7101-0.2325-0.9238 0.02148-0.1217 0.1447-0.123 0.1554-0.123 1.062 0 0.5036-0.0089 0.9249-0.02149 0.9375-0.0126 0.0126-0.09654 0.01422-0.1855 0.0039l-0.1621-0.01758 0.002-2.912 0.002-2.914 1.037-0.01172 1.037-0.01367z"/>
 <path style="color:#000000" d="m-0.01933-0.008791v0.01758h3.24c0.000131-0.0002234 0.0059-0.01367 0.0059-0.01367l-3.246-0.003906zm3.24 0.01758c-0.0117 0.02002-0.5358 0.9217-0.5977 2.127 0 1.313 1.066 2.377 1.066 2.377 0.1565 0.3483 0.6988 0.7502 0.9863 1.035 0.4323 0.4284 0.5665 0.597 0.7734 0.9805 0.3061 0.5673 0.799 1.317 1.059 1.609 0.1639 0.1845 0.3882 0.3125 1.482 0.8535 1.098 0.5427 1.302 0.6614 1.379 0.7969l0.08984 0.1582-0.1504 0.1406-0.1523 0.1426v0.8594 0.8574h-0.1445-0.1465v-0.5273c0-0.6665-0.0242-0.7038-0.418-0.6836l-0.291 0.01563-0.01367 0.5879-0.01367 0.5879-0.2188 0.05859c-0.1613 0.04315-0.2451 0.1019-0.3164 0.2188-0.08876 0.1456-0.09554 0.2479-0.0957 1.246-0.000195 1.247 0.02717 1.382 0.3145 1.502l0.1738 0.07227v3.855 3.855h-0.1465-0.1465v-0.6152c0-0.6134 0.000005-0.6133-0.1426-0.7559-0.1969-0.1969-0.4457-0.1969-0.6426 0l-0.1426 0.1426v3.494 3.494l-0.3535-0.0098c-0.194-0.01-0.524-0.02-0.732-0.03l-0.3789-0.01563v-0.416c0-0.6102-0.1595-0.8984-0.498-0.8984h-0.1367v-1.928c0-1.896 0.0017-1.93 0.09766-1.93 0.05369 0 0.1416-0.04398 0.1953-0.09766 0.09183-0.09183 0.09766-0.1621 0.09766-1.195s-0.0057-1.103-0.09766-1.195c-0.0687-0.06869-0.1618-0.09766-0.3164-0.09766h-0.2207v-0.4609c0-0.4719-0.05106-0.6133-0.2227-0.6133-0.03943 0-0.06964-0.04728-0.07031-0.1094-0.0028-0.2621-0.05639-1.022-0.09961-1.412-0.079-0.71-0.552-1.91-1.103-2.79-0.563-0.9-1.083-2.17-1.209-2.95-0.078-0.48-0.177-0.75-0.516-1.41-0.3099-0.61-0.377-0.9-0.4137-1.79-0.0331-0.807-0.0408-0.876-0.1738-1.512-0.1077-0.515-0.2868-1.046-0.4883-1.445l-0.1445-0.2852v8.527c0-0.4315 0.0082-0.4856 0.06445-0.4023 0.09652 0.1427 0.4727 0.8356 0.4727 0.8711 0 0.01682-0.1219 0.03125-0.2695 0.03125h-0.2676v4.637h0.3164c0.288 0 0.3188-0.0093 0.3418-0.1094 0.0139-0.06041 0.02292-0.495 0.01953-0.9648-0.0034-0.4698-0.0033-0.9238 0-1.01l0.0059-0.1562 0.3047-0.01563 0.3047-0.01367 0.01367-0.5762c0.01018-0.4264 0.03032-0.5726 0.07422-0.5586 0.0661 0.02105 1.367 1.488 1.893 2.135 0.3979 0.4894 0.527 0.732 0.5664 1.064 0.02554 0.2156 0.0173 0.2498-0.07422 0.2988-0.09523 0.05096-0.1055 0.09684-0.1055 0.543v0.4863h-0.1699-0.1719v-0.9219c0-1.038 0.02418-0.9824-0.3887-0.9824s-0.3906-0.05524-0.3906 0.9824v0.9219h-0.2148c-0.1316 0-0.254 0.03348-0.3184 0.08594-0.1016 0.08289-0.106 0.1177-0.1055 1.207 0.000551 1.087 0.0046 1.126 0.1055 1.209 0.0573 0.04698 0.1346 0.08398 0.1719 0.08398 0.05311 0 0.06836 0.1016 0.06836 0.4648v0.4629h-1.123-1.123v0.9277h1.123 1.123v0.9941 0.9941l-0.1934 0.03125c-0.126 0.03-0.227 0.08-0.293 0.17-0.098 0.12-0.101 0.18-0.101 1.9v1.775h-0.3418-0.3418v-0.9199c0-0.5475-0.0225-0.9838-0.05469-1.076-0.07189-0.2062-0.266-0.2969-0.627-0.2969h-0.2949v3.318h1.322c-0.3153 0-0.3457-0.0085-0.3457-0.09961 0-0.09215 0.02454-0.09926 0.3281-0.08594 0.2676 0.01174 0.3325 0.03012 0.3457 0.09961 0.01427 0.07485-0.02564 0.08595-0.3281 0.08595h5.023v-0.4766c-0.001-0.72-0.144-0.9-0.709-0.94l-0.3164-0.02148v-0.7754-0.7754h0.7324 0.7324v1.49 1.488h7.811v-0.5117-0.5137h0.4375v0.5137 0.5117h6.834v-3.221h1.904v0.5488 0.5488l-0.1465 0.08203c-0.3019 0.1718-0.3416 0.3147-0.3418 1.223v0.8184h5.414l0.01367-0.3535 0.01562-0.3535 0.2559-0.01563 0.2559-0.01367v0.3672 0.3691h2.762v-15.87c-0.0073 0.1097-0.0092 0.4682-0.01953 0.4785-0.03575 0.03575-0.06749 0.06115-0.07227 0.05664-0.0048-0.0045-0.09104-0.01682-0.1914-0.02734l-0.1836-0.01758-0.01172-1.938-0.01367-1.938-0.2754-0.01563-0.2773-0.01367-0.1074-0.3516c-0.14-0.43-0.19-0.51-0.83-1.17-0.67-0.69-0.67-0.69-0.73-2.171-0.03-0.604-0.06-1.164-0.08-1.245-0.07-0.33-0.4-0.936-0.66-1.22-0.37-0.406-0.46-0.546-0.56-0.871-0.0807-0.2776 0.04296-0.2811 0.05469-0.9863 0.04045-2.432 0.7543-3.981 2.109-4.688h-5.098c-0.65 1.774-0.21 2.961 0.17 4.174 0.1616 0.5083 0.4342 0.6398 0.6504 1.607 0.08166 0.3656 0.1999 0.7805 0.2637 0.9199 0.1595 0.3488 0.5656 0.8754 1.123 1.455 0.2581 0.2685 0.5234 0.5743 0.5879 0.6816 0.06445 0.1074 0.2132 0.4832 0.332 0.834s0.277 0.7335 0.3516 0.8516c0.162 0.2567 0.9706 1.098 1.385 1.439 0.1657 0.1367 0.3511 0.3465 0.4219 0.4766 0.1313 0.2413 0.1271 0.2526-0.09961 0.2891-0.09596 0.01545-0.09694 0.05934-0.1094 2.518l-0.01367 2.5h-0.125c-0.1952 0-0.4507 0.1441-0.5957 0.334-0.1267 0.1659-0.1327 0.1988-0.1562 0.9316l-0.02344 0.7617h-1.025-1.025v-1.635c0-1.597 0.0023-1.635 0.09766-1.65 0.4567-0.07301 0.5117-0.1997 0.5117-1.152 0-0.7349-0.002-0.7589-0.1211-0.9004-0.07013-0.08335-0.2019-0.1642-0.3066-0.1895l-0.1816-0.04297 0.01563-0.2559c0.02009-0.3227-0.03865-0.3984-0.3145-0.3984h-0.2129v-0.4785c0-0.307-0.021-0.4995-0.05859-0.5371-0.08298-0.08298-2.144-0.08298-2.227 0-0.03758 0.03758-0.05859 0.2301-0.05859 0.5371v0.4785h-0.2109c-0.1154 0-0.2354 0.02636-0.2676 0.05859-0.03221 0.03221-0.05859 0.1832-0.05859 0.3359 0 0.2762 0.000015 0.2782-0.1621 0.3086-0.08967 0.01682-0.2166 0.08746-0.2812 0.1562-0.1122 0.1193-0.1178 0.159-0.1328 0.8828-0.01071 0.5168 0.0026 0.805 0.04297 0.9023 0.06256 0.151 0.2662 0.2852 0.4336 0.2852h0.09961v5.734 5.736h-1.904v-0.4414c0-0.2924-0.02301-0.4886-0.07031-0.5801-0.09563-0.1849-0.3495-0.3933-0.5215-0.4277l-0.1406-0.02734v-7.111-7.111l0.1699-0.08203c0.3204-0.1528 0.3265-0.1967 0.3281-2.033 0.0017-1.874 0.000546-1.889-0.3652-2.055-0.1551-0.07044-0.3201-0.09294-0.6816-0.09375l-0.4746-0.00195v-0.9453-0.9473l-0.2207-0.0332-0.2188-0.0332v-0.6758c0-0.4958-0.01722-0.6949-0.06445-0.7422-0.04625-0.04627-0.1597-0.05657-0.4023-0.03906l-0.3398 0.02344-0.02344 0.707-0.02539 0.709-0.2305 0.04492-0.2324 0.04492v0.9434 0.9434h-0.2207-0.2188v-0.6543c0-0.5511-0.01304-0.6586-0.07812-0.6836-0.1507-0.05784-0.9399-0.03076-0.9805 0.0332-0.02128 0.03356-0.03862 0.3463-0.03906 0.6953v0.6348l-0.5254 0.00781c-0.4497 0.00769-0.5459 0.02356-0.6719 0.1133-0.2885 0.2055-0.2912 0.2308-0.291 2.012 0.000196 1.536 0.0039 1.633 0.0957 1.783 0.05341 0.08759 0.1753 0.1972 0.2695 0.2422l0.1719 0.08203-0.01367 7.098-0.01172 7.098-0.1875 0.06445c-0.216 0.07426-0.3979 0.2276-0.5137 0.4375-0.06864 0.1244-0.08245 0.3538-0.0957 1.525l-0.01563 1.379h-0.4316l-0.002-1.842c-0.000926-1.687-0.0093-1.858-0.0918-2.037-0.04956-0.1074-0.1481-0.2494-0.2188-0.3145l-0.127-0.1191v-2.307c0-2.198 0.0042-2.307 0.08984-2.334 0.04945-0.0157 0.1424-0.08554 0.207-0.1543 0.1138-0.1211 0.117-0.1528 0.1328-1.012 0.01036-0.5626-0.0023-0.9543-0.03711-1.07-0.05892-0.1967-0.2442-0.3301-0.459-0.3301h-0.1211l-0.01563-0.7598c-0.01658-0.7608-0.01813-0.7616-0.1523-0.877-0.1302-0.1119-0.134-0.1298-0.1348-0.6172-0.000391-0.2765-0.01885-0.5315-0.04102-0.5664-0.02799-0.04413-0.1343-0.05907-0.3516-0.04883l-0.3145 0.01367-0.01367 0.5332c-0.01339 0.5116-0.01917 0.5389-0.1582 0.6973l-0.1445 0.1641v0.7305 0.7305h-0.123-0.1211v-0.582c0-0.32-0.013-0.6157-0.0293-0.6582-0.04252-0.1108-0.5825-0.1108-0.625 0-0.0163 0.04246-0.0293 0.3382-0.0293 0.6582v0.582h-0.125c-0.1455 0-0.3135 0.08083-0.3984 0.1914-0.04217 0.05493-0.05945 0.3695-0.06055 1.08-0.0017 1.084 0.01694 1.173 0.2715 1.27 0.1057 0.04019 0.1172 0.07242 0.1172 0.3379v0.2949h-0.5117-0.5137v-3.246-3.244l0.123-0.03125c0.0672-0.01687 0.1771-0.09611 0.2441-0.1758l0.1211-0.1445v-1.207-1.207l-0.1348-0.1309c-0.0748-0.07167-0.2067-0.1449-0.293-0.1621l-0.1582-0.03125v-0.8691c0-0.9141-0.01309-0.9727-0.2344-1.043-0.06703-0.02128-0.1002-0.1144-0.1406-0.3945-0.056-0.431-0.161-0.585-0.958-1.408-0.285-0.295-0.57-0.637-0.633-0.758-0.062-0.121-0.174-0.46-0.246-0.756-0.087-0.359-0.234-0.756-0.441-1.197-0.304-0.645-0.31-1.023-0.414-1.344-0.424-1.303-1.228-2.534-0.012-4.15h-4.07zm4.07 0h17.75c0.002-0.005332 0.0019-0.01028 0.0039-0.01562l-17.74-0.00196c-0.0047 0.006132-0.0071 0.01146-0.01172 0.01758zm22.85 0h0.9473c-0.4597-0.006648-0.9199-0.01758-0.9199-0.01758-0.0098 0.004978-0.01764 0.01251-0.02734 0.01758zm0.9473 0c0.4471 0.006465 0.8712 0.007823 0.8945 0.01758v-0.01758h-0.8945zm0.8945 0.01758v16.11c0.03045-0.4607 0.04341-1.675 0.03711-5.83-0.0052-3.434-0.01187-10.26-0.01367-10.28-0.000023-0.0002567-0.02283 0.0002555-0.02344 0zm-2.762 20.75v4.639 4.637h-0.2363c-0.1298 0-0.2497-0.01336-0.2676-0.03125-0.0179-0.0179-0.0332-1.213-0.0332-2.654v-2.621l-0.125-0.125c-0.2429-0.2429-0.7101-0.2325-0.9238 0.02148-0.1217 0.1447-0.123 0.1554-0.123 1.062 0 0.5036-0.0089 0.9249-0.02149 0.9375-0.0126 0.0126-0.09654 0.01422-0.1855 0.0039l-0.1621-0.01758 0.002-2.912 0.002-2.914 1.037-0.01172 1.037-0.01367z"/>
</svg>
