<?xml version="1.0" encoding="UTF-8" standalone="no"?>
<svg xmlns="http://www.w3.org/2000/svg" xmlns:osb="http://www.openswatchbook.org/uri/2009/osb" height="32" width="32" version="1.0" xmlns:xlink="http://www.w3.org/1999/xlink">
 <g transform="matrix(.1138 0 0 .1138 -64.82 -29.38)">
  <path style="fill:#f49c59" d="m569.4 258.1h281.1v281.1h-281.1z"/>
  <g style="opacity:.1" transform="translate(6.247 6.247)">
   <path style="stroke-width:2.231" d="m745.7 501.3h-71.4c-2.463 0-4.462-2.008-4.462-4.462v-35.7c0-2.454 1.999-4.462 4.462-4.462h71.4c2.463 0 4.462 2.008 4.462 4.462v35.7c0 2.454-1.999 4.462-4.462 4.462z"/>
   <path style="stroke-width:2.231" d="m727.8 465.6h-35.7c-2.463 0-4.462-2.008-4.462-4.462v-17.85c0-2.454 1.999-4.462 4.462-4.462h35.7c2.463 0 4.462 2.008 4.462 4.462v17.85c0 2.454-1.999 4.462-4.462 4.462zm-31.24-8.925h26.77v-8.925h-26.77z"/>
   <path style="stroke-width:2.231" d="m710.3 447.7c-20.02 0-40.49-4.623-40.49-38.86v-38.67c0-29.4 15.01-46.95 40.16-46.95 24.78 0 40.16 18.63 40.16 48.62v37c-0.009 34.24-20.14 38.86-39.83 38.86zm-0.3391-115.6c-20.14 0-31.24 13.5-31.24 38.03v38.67c0 25.04 11.58 29.93 31.57 29.93 20.04 0 30.9-4.775 30.9-29.93v-37c0.009-25.23-11.37-39.7-31.23-39.7z"/>
   <path style="stroke-width:2.231" d="m710 443.3c-2.463 0-4.462-2.008-4.462-4.462v-8.925c0-2.454 1.999-4.462 4.462-4.462s4.462 2.008 4.462 4.462v8.9c0 2.454-1.999 4.462-4.462 4.462z"/>
   <path style="stroke-width:2.231" d="m709.6 428.4c-9.532 0-17.3-7.756-17.3-17.3 0-9.014 7.515-18.02 14.07-24.86 1.678-1.749 4.757-1.749 6.444 0 6.551 6.836 14.07 15.84 14.07 24.86 0 9.541-7.756 17.3-17.3 17.3z"/>
   <path style="stroke-width:2.231" d="m727.8 336.2c-2.454 0-4.462-1.999-4.462-4.462v-17.85c0-4.918-4.007-8.925-8.925-8.925h-8.925c-4.918 0-8.925 4.007-8.925 8.925v17.85c0 2.463-1.999 4.462-4.462 4.462s-4.462-1.999-4.462-4.462v-17.85c0-9.844 8.006-17.85 17.85-17.85h8.925c9.853 0 17.85 8.006 17.85 17.85v17.85c0 2.463-1.999 4.462-4.462 4.462z"/>
   <path style="stroke-width:2.231" d="m674.3 474.1c-0.2945 0-0.589-0.0268-0.8925-0.0982-12.41-2.508-21.42-13.56-21.42-26.23v-89.25c0-22.78 17.06-41.85 39.67-44.36 2.57-0.2231 4.659 1.499 4.926 3.945 0.2677 2.445-1.49 4.659-3.945 4.926-18.09 1.999-31.73 17.26-31.73 35.48v89.25c0 8.461 6.006 15.81 14.28 17.49 2.419 0.4998 3.972 2.847 3.49 5.266-0.4373 2.115-2.303 3.57-4.382 3.57z"/>
   <path style="stroke-width:2.231" d="m745.7 474.5c-2.374 0-4.328-1.856-4.462-4.248-0.125-2.445 1.776-4.552 4.248-4.668 10.04-0.5087 13.6-9.541 13.6-17.83v-89.25c0-19.92-13.2-34.92-31.42-35.67-2.463-0.0982-4.364-2.178-4.275-4.641 0.1071-2.463 2.16-4.453 4.65-4.275 23.17 0.946 39.97 19.71 39.97 44.59v89.25c0 15.33-8.889 26.08-22.11 26.75h-0.2053z"/>
  </g>
  <g style="fill:#532a2a">
   <path style="stroke-width:2.231;fill:#532a2a" d="m745.7 501.3h-71.4c-2.463 0-4.462-2.008-4.462-4.462v-35.7c0-2.454 1.999-4.462 4.462-4.462h71.4c2.463 0 4.462 2.008 4.462 4.462v35.7c0 2.454-1.999 4.462-4.462 4.462z"/>
   <path style="stroke-width:2.231;fill:#532a2a" d="m727.8 465.6h-35.7c-2.463 0-4.462-2.008-4.462-4.462v-17.85c0-2.454 1.999-4.462 4.462-4.462h35.7c2.463 0 4.462 2.008 4.462 4.462v17.85c0 2.454-1.999 4.462-4.462 4.462zm-31.24-8.925h26.77v-8.925h-26.77z"/>
   <path style="stroke-width:2.231;fill:#532a2a" d="m710.3 447.7c-20.02 0-40.49-4.623-40.49-38.86v-38.67c0-29.4 15.01-46.95 40.16-46.95 24.78 0 40.16 18.63 40.16 48.62v37c-0.009 34.24-20.14 38.86-39.83 38.86zm-0.3391-115.6c-20.14 0-31.24 13.5-31.24 38.03v38.67c0 25.04 11.58 29.93 31.57 29.93 20.04 0 30.9-4.775 30.9-29.93v-37c0.009-25.23-11.37-39.7-31.23-39.7z"/>
   <path style="stroke-width:2.231;fill:#532a2a" d="m710 443.3c-2.463 0-4.462-2.008-4.462-4.462v-8.925c0-2.454 1.999-4.462 4.462-4.462s4.462 2.008 4.462 4.462v8.9c0 2.454-1.999 4.462-4.462 4.462z"/>
   <path style="stroke-width:2.231;fill:#532a2a" d="m709.6 428.4c-9.532 0-17.3-7.756-17.3-17.3 0-9.014 7.515-18.02 14.07-24.86 1.678-1.749 4.757-1.749 6.444 0 6.551 6.836 14.07 15.84 14.07 24.86 0 9.541-7.756 17.3-17.3 17.3z"/>
   <path style="stroke-width:2.231;fill:#532a2a" d="m727.8 336.2c-2.454 0-4.462-1.999-4.462-4.462v-17.85c0-4.918-4.007-8.925-8.925-8.925h-8.925c-4.918 0-8.925 4.007-8.925 8.925v17.85c0 2.463-1.999 4.462-4.462 4.462s-4.462-1.999-4.462-4.462v-17.85c0-9.844 8.006-17.85 17.85-17.85h8.925c9.853 0 17.85 8.006 17.85 17.85v17.85c0 2.463-1.999 4.462-4.462 4.462z"/>
   <path style="stroke-width:2.231;fill:#532a2a" d="m674.3 474.1c-0.2945 0-0.589-0.0268-0.8925-0.0982-12.41-2.508-21.42-13.56-21.42-26.23v-89.25c0-22.78 17.06-41.85 39.67-44.36 2.57-0.2231 4.659 1.499 4.926 3.945 0.2677 2.445-1.49 4.659-3.945 4.926-18.09 1.999-31.73 17.26-31.73 35.48v89.25c0 8.461 6.006 15.81 14.28 17.49 2.419 0.4998 3.972 2.847 3.49 5.266-0.4373 2.115-2.303 3.57-4.382 3.57z"/>
   <path style="stroke-width:2.231;fill:#532a2a" d="m745.7 474.5c-2.374 0-4.328-1.856-4.462-4.248-0.125-2.445 1.776-4.552 4.248-4.668 10.04-0.5087 13.6-9.541 13.6-17.83v-89.25c0-19.92-13.2-34.92-31.42-35.67-2.463-0.0982-4.364-2.178-4.275-4.641 0.1071-2.463 2.16-4.453 4.65-4.275 23.17 0.946 39.97 19.71 39.97 44.59v89.25c0 15.33-8.889 26.08-22.11 26.75h-0.2053z"/>
  </g>
 </g>
</svg>
