<?xml version="1.0" encoding="UTF-8" standalone="no"?>
<svg xmlns:rdf="http://www.w3.org/1999/02/22-rdf-syntax-ns#" xmlns="http://www.w3.org/2000/svg" xmlns:osb="http://www.openswatchbook.org/uri/2009/osb" height="32" width="32" version="1.0" xmlns:cc="http://creativecommons.org/ns#" xmlns:xlink="http://www.w3.org/1999/xlink" xmlns:dc="http://purl.org/dc/elements/1.1/">
 <path style="color:#000000;fill:#4d7086" d="m0 0v32h32v-32z"/>
 <g transform="matrix(.9322 0 0 .9322 -6.051 -6.623)">
  <g transform="translate(1,1)">
   <g style="opacity:.1">
    <path d="m26 16c-2.394 0-4.604 0.563-6.41 1.508-0.9-0.97-1.99-1.37-4.59-0.51 0 0.899 0.812 1.976 1.699 2.738-1.07 1.23-1.7 2.69-1.7 4.26-1 0-2 0.457-2 1 0 1.25 0 3 1.5 3 0.589 0 1.268-0.085 1.771-0.273 0.877 1.207 2.164 2.23 3.729 2.973v1.184c0 2.816 3 2.816 3 0.027v-0.219c0.955 0.197 1.959 0.309 3 0.309 0.684 0 1.351-0.052 2-0.139v0.021c0 2.816 3 2.816 3 0.027v-0.791c3.558-1.325 6-4.01 6-7.119 0-4.418-4.926-8-11-8z" transform="translate(-1,-1)"/>
   </g>
  </g>
  <path style="fill:#ff9b76" d="m36 23c0 4.418-4.926 8-11 8s-11-3.582-11-8 4.926-8 11-8 11 3.582 11 8"/>
  <path style="fill:#d06237" d="m19 22c0 0.551-0.449 1-1 1s-1-0.449-1-1 0.449-1 1-1 1 0.449 1 1"/>
  <path style="fill:#ff9b76" d="m19 27v3.883c0 2.816 3 2.816 3 0.027v-3.715m-3-0.2"/>
  <path style="fill:#ff9b76" d="m27 27v3.883c0 2.816 3 2.816 3 0.027v-3.715m-3-0.2"/>
  <path style="fill:#d06237" d="m21.71 17.82c2.84-1.09 4.734-1.09 7.578 0 0.945 0.363 0.945 1.523 0 1.086-2.844-1.086-4.738-1.086-7.578 0-0.945 0.391-0.945-0.699 0-1.086"/>
  <path style="fill:#ff9b76" d="m16 19c-0.996-0.758-1.996-2-1.996-3 3-0.996 4-0.301 5 1m-3 2"/>
  <path style="fill:#ff9b76" d="m14 23c-1 0-2 0.457-2 1 0 1.25 0 3 1.5 3 1.086 0 2.5-0.27 2.5-1m-2-3"/>
 </g>
</svg>
