<?xml version="1.0" encoding="UTF-8" standalone="no"?>
<svg xmlns:rdf="http://www.w3.org/1999/02/22-rdf-syntax-ns#" xmlns="http://www.w3.org/2000/svg" xmlns:osb="http://www.openswatchbook.org/uri/2009/osb" height="32" width="32" version="1.0" xmlns:cc="http://creativecommons.org/ns#" xmlns:xlink="http://www.w3.org/1999/xlink" xmlns:dc="http://purl.org/dc/elements/1.1/">
 <path style="color:#000000;fill:#eaeaea" d="m0 0v32h32v-32z"/>
 <g transform="matrix(.6536 0 0 .6536 .4878 .05827)">
  <g transform="translate(1,1)">
   <g style="opacity:.1">
    <path style="fill-opacity:.8860" d="m39 24c0 8.28-6.72 15-15 15s-15-6.72-15-15 6.72-15 15-15c8.285 0 15 6.715 15 15"/>
   </g>
  </g>
  <path style="fill:#d0a15b" d="m39 24c0 8.28-6.72 15-15 15s-15-6.72-15-15 6.72-15 15-15c8.285 0 15 6.715 15 15"/>
  <path style="fill:#865b21" d="m15.92 17.09v2l4-1m-4-1"/>
  <path style="fill:#865b21" d="m25.91 12.09v2l3-1m-3-1"/>
  <path style="fill:#865b21" d="m23.91 18.09 1 3 1.996-2m-2.996-1"/>
  <path style="fill:#865b21" d="m32.91 17.09-1 4 3-1m-2-3"/>
  <path style="fill:#865b21" d="m16.91 22.09v4l2-3m-2-1"/>
  <path style="fill:#865b21" d="m21.91 28.09v1.996l3-1-2-3m-1 2"/>
  <path style="fill:#865b21" d="m19.92 13.09v1l1 0.996m-1-1.996"/>
  <path style="fill:#865b21" d="m29.92 24.08-3 1 2 2 1-2v-1m0.004 0"/>
  <path style="fill:#865b21" d="m33.92 24.08-2 5 1-1.988 3-1m-2-2"/>
  <path style="fill:#865b21" d="m28.92 31.09-2 1.996 3 2 2-2m-3-1.996"/>
  <path style="fill:#865b21" d="m20.92 33.08h-2l3 2 1-1m-2-1"/>
  <path style="fill:#865b21" d="m14.91 29.08 4-0.988v1.988h-3m-1-1"/>
  <path style="fill:#865b21" d="m11.92 22.09 0.996 4v-4m-0.996 0"/>
 </g>
</svg>
