<?xml version="1.0" encoding="UTF-8" standalone="no"?>
<svg
   xmlns:osb="http://www.openswatchbook.org/uri/2009/osb"
   xmlns:dc="http://purl.org/dc/elements/1.1/"
   xmlns:cc="http://creativecommons.org/ns#"
   xmlns:rdf="http://www.w3.org/1999/02/22-rdf-syntax-ns#"
   xmlns:svg="http://www.w3.org/2000/svg"
   xmlns="http://www.w3.org/2000/svg"
   xmlns:xlink="http://www.w3.org/1999/xlink"
   id="svg7649"
   version="1.0"
   width="32"
   height="32">
  <metadata
     id="metadata7661">
    <rdf:RDF>
      <cc:Work
         rdf:about="">
        <dc:format>image/svg+xml</dc:format>
        <dc:type
           rdf:resource="http://purl.org/dc/dcmitype/StillImage" />
        <dc:title></dc:title>
      </cc:Work>
    </rdf:RDF>
  </metadata>
  <defs
     id="defs7659">
    <linearGradient
       gradientTransform="matrix(0,-1,1,0,-1.5e-6,47.999998)"
       gradientUnits="userSpaceOnUse"
       x2="47"
       x1="1"
       id="linearGradient3764">
      <stop
         id="stop7"
         style="stop-color:#344e8e;stop-opacity:1" />
      <stop
         id="stop9"
         style="stop-color:#3a569c;stop-opacity:1"
         offset="1" />
    </linearGradient>
    <linearGradient
       gradientTransform="matrix(0,-1,1,0,44.444443,47.999998)"
       gradientUnits="userSpaceOnUse"
       x2="47"
       x1="1"
       id="linearGradient3764-1">
      <stop
         id="stop7-0"
         style="stop-color:#f7b747;stop-opacity:1" />
      <stop
         id="stop9-3"
         style="stop-color:#f8bd5a;stop-opacity:1"
         offset="1" />
    </linearGradient>
    <linearGradient
       gradientTransform="matrix(0,-1,1,0,-1.5e-6,47.999998)"
       gradientUnits="userSpaceOnUse"
       x2="47"
       x1="1"
       id="linearGradient3764-6">
      <stop
         id="stop7-7"
         style="stop-color:#f6b042;stop-opacity:1" />
      <stop
         id="stop9-32"
         style="stop-color:#f7b754;stop-opacity:1"
         offset="1" />
    </linearGradient>
    <linearGradient
       gradientTransform="matrix(0,-1,1,0,-1.5e-6,47.999998)"
       gradientUnits="userSpaceOnUse"
       x2="47"
       x1="1"
       id="linearGradient3764-2">
      <stop
         id="stop7-1"
         style="stop-color:#ad897f;stop-opacity:1" />
      <stop
         id="stop9-5"
         style="stop-color:#b5948b;stop-opacity:1"
         offset="1" />
    </linearGradient>
    <linearGradient
       id="linearGradient3874">
      <stop
         id="stop3876"
         offset="0"
         style="stop-color:#ffffff;stop-opacity:1;" />
      <stop
         id="stop3878"
         offset="1"
         style="stop-color:#ffffff;stop-opacity:0;" />
    </linearGradient>
    <linearGradient
       id="linearGradient3858">
      <stop
         style="stop-color:#000000;stop-opacity:1;"
         offset="0"
         id="stop3860" />
      <stop
         style="stop-color:#000000;stop-opacity:0;"
         offset="1"
         id="stop3862" />
    </linearGradient>
    <linearGradient
       id="linearGradient3045">
      <stop
         style="stop-color:#91bedd;stop-opacity:1;"
         offset="0"
         id="stop3047" />
      <stop
         style="stop-color:#4986b1;stop-opacity:1;"
         offset="1"
         id="stop3049" />
    </linearGradient>
    <linearGradient
       id="linearGradient4213">
      <stop
         id="stop4215"
         offset="0"
         style="stop-color:#b1d7f3;stop-opacity:1" />
      <stop
         id="stop4217"
         offset="1"
         style="stop-color:#8fafda;stop-opacity:1" />
    </linearGradient>
    <linearGradient
       id="linearGradient5460"
       osb:paint="gradient">
      <stop
         style="stop-color:#e6e6e6;stop-opacity:1"
         offset="0"
         id="stop5462" />
      <stop
         style="stop-color:#ffffff;stop-opacity:1"
         offset="1"
         id="stop5464" />
    </linearGradient>
    <linearGradient
       id="linearGradient5476"
       osb:paint="solid">
      <stop
         style="stop-color:#772953;stop-opacity:1;"
         offset="0"
         id="stop5478" />
    </linearGradient>
    <linearGradient
       xlink:href="#linearGradient4213"
       id="linearGradient3037"
       gradientUnits="userSpaceOnUse"
       x1="144"
       y1="918.36218"
       x2="144"
       y2="1052.3622"
       gradientTransform="matrix(1.7777778,0,0,1.7761194,16,-1563.3597)" />
    <filter
       id="filter4223"
       style="color-interpolation-filters:sRGB">
      <feBlend
         id="feBlend4225"
         in2="BackgroundImage"
         mode="multiply" />
    </filter>
    <filter
       id="filter4154"
       style="color-interpolation-filters:sRGB">
      <feComposite
         id="feComposite4156"
         in2="SourceGraphic"
         k3="0"
         k2="1"
         k1="0"
         result="composite1"
         k4="0"
         operator="arithmetic" />
      <feColorMatrix
         id="feColorMatrix4158"
         type="saturate"
         values="0"
         result="colormatrix1"
         in="composite1" />
      <feFlood
         id="feFlood4160"
         result="flood1"
         flood-color="rgb(72,59,72)" />
      <feBlend
         id="feBlend4162"
         result="blend1"
         mode="multiply"
         in2="colormatrix1"
         in="flood1" />
      <feBlend
         id="feBlend4164"
         mode="screen"
         in2="blend1"
         result="blend2" />
      <feColorMatrix
         id="feColorMatrix4166"
         type="saturate"
         values="1"
         result="colormatrix2"
         in="blend2" />
      <feComposite
         id="feComposite4168"
         operator="in"
         result="composite2"
         in2="SourceGraphic"
         in="colormatrix2" />
    </filter>
    <linearGradient
       xlink:href="#linearGradient3858"
       id="linearGradient3864"
       x1="272"
       y1="256"
       x2="368"
       y2="352"
       gradientUnits="userSpaceOnUse" />
    <linearGradient
       xlink:href="#linearGradient3874"
       id="linearGradient3872"
       gradientUnits="userSpaceOnUse"
       x1="272"
       y1="256"
       x2="368"
       y2="352"
       gradientTransform="rotate(180,272,272)" />
    <linearGradient
       xlink:href="#linearGradient3874"
       id="linearGradient3906"
       gradientUnits="userSpaceOnUse"
       gradientTransform="rotate(180,272,272)"
       x1="288"
       y1="264"
       x2="360"
       y2="328" />
    <linearGradient
       xlink:href="#linearGradient3858"
       id="linearGradient3908"
       gradientUnits="userSpaceOnUse"
       x1="288"
       y1="272"
       x2="368"
       y2="352" />
    <clipPath
       clipPathUnits="userSpaceOnUse"
       id="clipPath9430">
      <path
         id="path9432"
         d="m 166.0625,-196 179.875,0 C 491.2348,-196 512,-175.28677 512,-30.125 l 0,148.25 C 512,263.28618 491.2348,284 345.9375,284 l -179.875,0 C 20.7652,284 0,263.28618 0,118.125 L 0,-30.125 C 0,-175.28677 20.7652,-196 166.0625,-196 Z"
         style="color:#000000;display:inline;overflow:visible;visibility:visible;fill:#ffffff;fill-opacity:1;fill-rule:nonzero;stroke:none;stroke-width:1;marker:none;enable-background:new" />
    </clipPath>
    <linearGradient
       gradientTransform="matrix(0,-1,1,0,-1.5e-6,47.999998)"
       gradientUnits="userSpaceOnUse"
       x2="47"
       x1="1"
       id="linearGradient3764-3">
      <stop
         id="stop7-3"
         style="stop-color:#4eb470;stop-opacity:1" />
      <stop
         id="stop9-8"
         style="stop-color:#5dba7c;stop-opacity:1"
         offset="1" />
    </linearGradient>
    <linearGradient
       gradientTransform="matrix(3.543307,0,0,3.543307,-1,0)"
       x2="10.442"
       x1="3.669"
       gradientUnits="userSpaceOnUse"
       id="linear0">
      <stop
         id="stop12"
         style="stop-color:#e2f4fb;stop-opacity:1" />
      <stop
         id="stop14"
         style="stop-color:#f9f9f9;stop-opacity:1"
         offset="1" />
    </linearGradient>
    <linearGradient
       gradientTransform="matrix(0,-1,1,0,-1.5e-6,47.999998)"
       gradientUnits="userSpaceOnUse"
       x2="47"
       x1="1"
       id="linearGradient3764-28">
      <stop
         id="stop7-5"
         style="stop-color:#18aa86;stop-opacity:1" />
      <stop
         id="stop9-80"
         style="stop-color:#1abc95;stop-opacity:1"
         offset="1" />
    </linearGradient>
    <linearGradient
       gradientTransform="matrix(0,-1,1,0,-1.5e-6,47.999998)"
       gradientUnits="userSpaceOnUse"
       x2="47"
       x1="1"
       id="linearGradient3764-8">
      <stop
         id="stop7-6"
         style="stop-color:#5dbacb;stop-opacity:1" />
      <stop
         id="stop9-9"
         style="stop-color:#6cc0d0;stop-opacity:1"
         offset="1" />
    </linearGradient>
    <linearGradient
       gradientUnits="userSpaceOnUse"
       x2="24"
       x1="21"
       id="linearGradient4251"
       xlink:href="#linearGradient4309" />
    <linearGradient
       id="linearGradient4309">
      <stop
         id="stop13"
         style="stop-color:#eff5eb;stop-opacity:1" />
      <stop
         id="stop15"
         style="stop-color:#d1e2c4;stop-opacity:1"
         offset="1" />
    </linearGradient>
    <linearGradient
       gradientTransform="matrix(-1,0,0,1,48,0)"
       x2="24"
       x1="21"
       gradientUnits="userSpaceOnUse"
       id="linearGradient4265"
       xlink:href="#linearGradient4309" />
    <linearGradient
       gradientUnits="userSpaceOnUse"
       y2="1"
       x2="0"
       y1="47"
       id="linearGradient3845">
      <stop
         id="stop7-33"
         style="stop-color:#24bbd2;stop-opacity:1" />
      <stop
         id="stop9-7"
         style="stop-color:#2fc4db;stop-opacity:1"
         offset="1" />
    </linearGradient>
  </defs>
  <path
     id="path7651"
     style="color:#000000;fill:#25bcd3;fill-opacity:1"
     d="M 0,0 0,32 32,32 32,0 Z" />
  <g
     transform="matrix(0.94792117,0,0,0.94792117,-6.7460623,-6.8405299)"
     id="g11197">
    <g
       transform="matrix(0.9,0,0,0.9,2.4499,2.45)"
       id="g27">
      <g
         id="g29">
        <g
           id="g31">
          <g
             id="g33">
            <path
               id="path35"
               style="opacity:0.1;fill:#000000;fill-opacity:1;fill-rule:evenodd;stroke:none"
               d="m 38,12 -26,0 0,26 26,0" />
            <path
               id="path37"
               style="fill:#f5efef;fill-opacity:1;fill-rule:evenodd;stroke:none"
               d="m 37,11 -26,0 0,26 26,0" />
          </g>
          <g
             id="g39">
            <g
               id="g41">
              <g
                 id="g43"
                 transform="translate(0,-0.004)">
                <g
                   id="g45">
                  <g
                     id="g47"
                     transform="translate(1,1)">
                    <g
                       id="g49"
                       style="opacity:0.1">
                      <!-- color: #cccdb6 -->
                    </g>
                  </g>
                </g>
              </g>
            </g>
          </g>
        </g>
      </g>
      <path
         id="path51"
         style="fill:#bfbfbf;fill-opacity:0.853;fill-rule:nonzero;stroke:none"
         d="m 12,13 24,0 0,1 -24,0 z" />
      <path
         id="path53"
         style="fill:#bfbfbf;fill-opacity:0.853;fill-rule:nonzero;stroke:none"
         d="m 12,15 24,0 0,1 -24,0 z" />
      <path
         id="path55"
         style="fill:#bfbfbf;fill-opacity:0.853;fill-rule:nonzero;stroke:none"
         d="m 12,17 24,0 0,1 -24,0 z" />
      <path
         id="path57"
         style="fill:#bfbfbf;fill-opacity:0.853;fill-rule:nonzero;stroke:none"
         d="m 12,19 24,0 0,1 -24,0 z" />
      <path
         id="path59"
         style="fill:#bfbfbf;fill-opacity:0.853;fill-rule:nonzero;stroke:none"
         d="m 12,21 24,0 0,1 -24,0 z" />
      <path
         id="path61"
         style="fill:#bfbfbf;fill-opacity:0.853;fill-rule:nonzero;stroke:none"
         d="m 12,23 24,0 0,1 -24,0 z" />
      <path
         id="path63"
         style="fill:#bfbfbf;fill-opacity:0.853;fill-rule:nonzero;stroke:none"
         d="m 12,25 24,0 0,1 -24,0 z" />
      <path
         id="path65"
         style="fill:#bfbfbf;fill-opacity:0.853;fill-rule:nonzero;stroke:none"
         d="m 12,27 24,0 0,1 -24,0 z" />
      <path
         id="path67"
         style="fill:#bfbfbf;fill-opacity:0.853;fill-rule:nonzero;stroke:none"
         d="m 12,29 24,0 0,1 -24,0 z" />
      <path
         id="path69"
         style="fill:#bfbfbf;fill-opacity:0.853;fill-rule:nonzero;stroke:none"
         d="m 12,31 24,0 0,1 -24,0 z" />
      <path
         id="path71"
         style="fill:#bfbfbf;fill-opacity:0.853;fill-rule:nonzero;stroke:none"
         d="m 12,33 24,0 0,1 -24,0 z" />
    </g>
    <g
       transform="matrix(0.9,0,0,0.9,2.4499,2.45)"
       id="g73">
      <path
         id="path75"
         style="opacity:0.1;fill:#000000;fill-opacity:1;fill-rule:evenodd;stroke:none"
         d="m 29,12 a 9,9 0 0 0 -9,9 9,9 0 0 0 1.928,5.551 L 17.246,31.23 16.933,30.922 12,35.855 13.145,37 l 2,0 3.934,-3.934 -0.329,-0.328 4.674,-4.678 A 9,9 0 0 0 29,30 9,9 0 0 0 37,25.12 l 0,-8.223 A 9,9 0 0 0 29,12 m 0,2 a 7,7 0 0 1 7,7 7,7 0 0 1 -7,7 7,7 0 0 1 -7,-7 7,7 0 0 1 7,-7 z" />
      <path
         id="path77"
         style="fill:#f5efef;fill-opacity:1;fill-rule:nonzero;stroke:none"
         d="m 36.602,19.898 c 0,4.697 -3.805,8.5 -8.5,8.5 -4.699,0 -8.504,-3.803 -8.5,-8.5 -0.004,-4.693 3.801,-8.5 8.5,-8.5 4.695,0 8.5,3.807 8.5,8.5 m 0,0" />
      <path
         id="path79"
         style="fill:#d24c37;fill-opacity:1;fill-rule:nonzero;stroke:none"
         d="m 22.622,26.866 -1.504,-1.504 -4.934,4.934 1.504,1.504" />
      <path
         id="path81"
         style="fill:#222b30;fill-opacity:1;fill-rule:nonzero;stroke:none"
         d="M 18.079,32.066 15.934,29.921 11,34.855 13.145,37" />
      <path
         id="path83"
         style="fill:#606060;fill-opacity:1;stroke:none"
         d="M 30.801,24 30,22 26,22 25.199,24 23,24 l 4,-10 2,0 4,10 -2.199,0 M 28,17 l -1.2,3 2.4,0" />
      <path
         id="path85"
         style="opacity:0.1;fill:#000000;fill-opacity:1;stroke:none"
         d="m 28.5,11.5 a 9,9 0 0 0 -8.799,7.154 c -0.06,0.407 -0.1,0.821 -0.1,1.244 -0.004,4.697 3.801,8.5 8.5,8.5 4.695,0 8.5,-3.803 8.5,-8.5 0,-3.969 -2.725,-7.295 -6.404,-8.23 A 9,9 0 0 0 28.5,11.5 m 0,2 a 7,7 0 0 1 7,7 7,7 0 0 1 -7,7 7,7 0 0 1 -7,-7 7,7 0 0 1 7,-7 z" />
      <path
         id="path87"
         style="opacity:1;fill:#b19b9b;fill-opacity:1;stroke:none"
         d="m 28,11 a 9,9 0 0 0 -9,9 9,9 0 0 0 9,9 9,9 0 0 0 9,-9 9,9 0 0 0 -9,-9 z m 0,2 a 7,7 0 0 1 7,7 7,7 0 0 1 -7,7 7,7 0 0 1 -7,-7 7,7 0 0 1 7,-7 z" />
    </g>
  </g>
</svg>
