<?xml version="1.0" encoding="UTF-8" standalone="no"?>
<svg xmlns="http://www.w3.org/2000/svg" xmlns:osb="http://www.openswatchbook.org/uri/2009/osb" height="32" width="32" version="1.0" xmlns:xlink="http://www.w3.org/1999/xlink">
 <path style="color:#000000;fill:#fff" d="m0 0v32h32v-32z"/>
 <path d="m15.48 7.703c0.4612 1.539-1.169 2.867-2.583 2.104-1.414-0.7628-1.2-2.855 0.3399-3.315 0.9536-0.2849 1.958 0.2568 2.243 1.21zm11.47 15.09-16.22 4.86c-0.6 0.17-1.226-0.17-1.406-0.77l-2.927-9.78c-0.1789-0.5993 0.1618-1.23 0.7611-1.409l3.982-1.19 0.9027-3.81c0.4465 0.3083 0.9676 0.4909 1.509 0.5288l-0.6637 2.754 4.746-1.42-2.06-1.942c0.431-0.3288 0.7657-0.7674 0.969-1.27l2.854 2.688 3.982-1.19c0.5993-0.1789 1.23 0.1618 1.409 0.7611l2.923 9.779c0.1789 0.5993-0.1618 1.23-0.7611 1.409z" style="opacity:.1;stroke-width:.2212;fill:#000a0e"/>
 <path style="stroke-width:.2212;fill:#1a7fab" d="m14.43 6.648c0.4612 1.539-1.169 2.867-2.583 2.104-1.414-0.7628-1.2-2.855 0.3399-3.315 0.9536-0.2849 1.958 0.2568 2.243 1.21zm11.47 15.09-16.22 4.85c-0.6 0.18-1.231-0.16-1.41-0.76l-2.927-9.78c-0.179-0.6 0.162-1.23 0.761-1.41l3.986-1.19 0.9-3.811c0.4465 0.3083 0.9676 0.4909 1.509 0.5288l-0.67 2.75 4.75-1.42-2.06-1.941c0.43-0.328 0.77-0.767 0.97-1.27l2.85 2.691 3.99-1.193c0.5993-0.1789 1.23 0.1618 1.409 0.7611l2.923 9.779c0.1789 0.5993-0.1618 1.23-0.7611 1.409z"/>
</svg>
