<?xml version="1.0" encoding="UTF-8" standalone="no"?>
<svg
   xmlns:osb="http://www.openswatchbook.org/uri/2009/osb"
   xmlns:dc="http://purl.org/dc/elements/1.1/"
   xmlns:cc="http://creativecommons.org/ns#"
   xmlns:rdf="http://www.w3.org/1999/02/22-rdf-syntax-ns#"
   xmlns:svg="http://www.w3.org/2000/svg"
   xmlns="http://www.w3.org/2000/svg"
   xmlns:xlink="http://www.w3.org/1999/xlink"
   id="svg7649"
   version="1.0"
   width="32"
   height="32">
  <metadata
     id="metadata7661">
    <rdf:RDF>
      <cc:Work
         rdf:about="">
        <dc:format>image/svg+xml</dc:format>
        <dc:type
           rdf:resource="http://purl.org/dc/dcmitype/StillImage" />
        <dc:title></dc:title>
      </cc:Work>
    </rdf:RDF>
  </metadata>
  <defs
     id="defs7659">
    <linearGradient
       gradientTransform="matrix(0,-1,1,0,-1.5e-6,47.999998)"
       gradientUnits="userSpaceOnUse"
       x2="47"
       x1="1"
       id="linearGradient3764">
      <stop
         id="stop7"
         style="stop-color:#344e8e;stop-opacity:1" />
      <stop
         id="stop9"
         style="stop-color:#3a569c;stop-opacity:1"
         offset="1" />
    </linearGradient>
    <linearGradient
       gradientTransform="matrix(0,-1,1,0,44.444443,47.999998)"
       gradientUnits="userSpaceOnUse"
       x2="47"
       x1="1"
       id="linearGradient3764-1">
      <stop
         id="stop7-0"
         style="stop-color:#f7b747;stop-opacity:1" />
      <stop
         id="stop9-3"
         style="stop-color:#f8bd5a;stop-opacity:1"
         offset="1" />
    </linearGradient>
    <linearGradient
       gradientTransform="matrix(0,-1,1,0,-1.5e-6,47.999998)"
       gradientUnits="userSpaceOnUse"
       x2="47"
       x1="1"
       id="linearGradient3764-6">
      <stop
         id="stop7-7"
         style="stop-color:#f6b042;stop-opacity:1" />
      <stop
         id="stop9-32"
         style="stop-color:#f7b754;stop-opacity:1"
         offset="1" />
    </linearGradient>
    <linearGradient
       gradientTransform="matrix(0,-1,1,0,-1.5e-6,47.999998)"
       gradientUnits="userSpaceOnUse"
       x2="47"
       x1="1"
       id="linearGradient3764-2">
      <stop
         id="stop7-1"
         style="stop-color:#ad897f;stop-opacity:1" />
      <stop
         id="stop9-5"
         style="stop-color:#b5948b;stop-opacity:1"
         offset="1" />
    </linearGradient>
    <linearGradient
       id="linearGradient3874">
      <stop
         id="stop3876"
         offset="0"
         style="stop-color:#ffffff;stop-opacity:1;" />
      <stop
         id="stop3878"
         offset="1"
         style="stop-color:#ffffff;stop-opacity:0;" />
    </linearGradient>
    <linearGradient
       id="linearGradient3858">
      <stop
         style="stop-color:#000000;stop-opacity:1;"
         offset="0"
         id="stop3860" />
      <stop
         style="stop-color:#000000;stop-opacity:0;"
         offset="1"
         id="stop3862" />
    </linearGradient>
    <linearGradient
       id="linearGradient3045">
      <stop
         style="stop-color:#91bedd;stop-opacity:1;"
         offset="0"
         id="stop3047" />
      <stop
         style="stop-color:#4986b1;stop-opacity:1;"
         offset="1"
         id="stop3049" />
    </linearGradient>
    <linearGradient
       id="linearGradient4213">
      <stop
         id="stop4215"
         offset="0"
         style="stop-color:#b1d7f3;stop-opacity:1" />
      <stop
         id="stop4217"
         offset="1"
         style="stop-color:#8fafda;stop-opacity:1" />
    </linearGradient>
    <linearGradient
       id="linearGradient5460"
       osb:paint="gradient">
      <stop
         style="stop-color:#e6e6e6;stop-opacity:1"
         offset="0"
         id="stop5462" />
      <stop
         style="stop-color:#ffffff;stop-opacity:1"
         offset="1"
         id="stop5464" />
    </linearGradient>
    <linearGradient
       id="linearGradient5476"
       osb:paint="solid">
      <stop
         style="stop-color:#772953;stop-opacity:1;"
         offset="0"
         id="stop5478" />
    </linearGradient>
    <linearGradient
       xlink:href="#linearGradient4213"
       id="linearGradient3037"
       gradientUnits="userSpaceOnUse"
       x1="144"
       y1="918.36218"
       x2="144"
       y2="1052.3622"
       gradientTransform="matrix(1.7777778,0,0,1.7761194,16,-1563.3597)" />
    <filter
       id="filter4223"
       style="color-interpolation-filters:sRGB">
      <feBlend
         id="feBlend4225"
         in2="BackgroundImage"
         mode="multiply" />
    </filter>
    <filter
       id="filter4154"
       style="color-interpolation-filters:sRGB">
      <feComposite
         id="feComposite4156"
         in2="SourceGraphic"
         k3="0"
         k2="1"
         k1="0"
         result="composite1"
         k4="0"
         operator="arithmetic" />
      <feColorMatrix
         id="feColorMatrix4158"
         type="saturate"
         values="0"
         result="colormatrix1"
         in="composite1" />
      <feFlood
         id="feFlood4160"
         result="flood1"
         flood-color="rgb(72,59,72)" />
      <feBlend
         id="feBlend4162"
         result="blend1"
         mode="multiply"
         in2="colormatrix1"
         in="flood1" />
      <feBlend
         id="feBlend4164"
         mode="screen"
         in2="blend1"
         result="blend2" />
      <feColorMatrix
         id="feColorMatrix4166"
         type="saturate"
         values="1"
         result="colormatrix2"
         in="blend2" />
      <feComposite
         id="feComposite4168"
         operator="in"
         result="composite2"
         in2="SourceGraphic"
         in="colormatrix2" />
    </filter>
    <linearGradient
       xlink:href="#linearGradient3858"
       id="linearGradient3864"
       x1="272"
       y1="256"
       x2="368"
       y2="352"
       gradientUnits="userSpaceOnUse" />
    <linearGradient
       xlink:href="#linearGradient3874"
       id="linearGradient3872"
       gradientUnits="userSpaceOnUse"
       x1="272"
       y1="256"
       x2="368"
       y2="352"
       gradientTransform="rotate(180,272,272)" />
    <linearGradient
       xlink:href="#linearGradient3874"
       id="linearGradient3906"
       gradientUnits="userSpaceOnUse"
       gradientTransform="rotate(180,272,272)"
       x1="288"
       y1="264"
       x2="360"
       y2="328" />
    <linearGradient
       xlink:href="#linearGradient3858"
       id="linearGradient3908"
       gradientUnits="userSpaceOnUse"
       x1="288"
       y1="272"
       x2="368"
       y2="352" />
    <clipPath
       clipPathUnits="userSpaceOnUse"
       id="clipPath9430">
      <path
         id="path9432"
         d="m 166.0625,-196 179.875,0 C 491.2348,-196 512,-175.28677 512,-30.125 l 0,148.25 C 512,263.28618 491.2348,284 345.9375,284 l -179.875,0 C 20.7652,284 0,263.28618 0,118.125 L 0,-30.125 C 0,-175.28677 20.7652,-196 166.0625,-196 Z"
         style="color:#000000;display:inline;overflow:visible;visibility:visible;fill:#ffffff;fill-opacity:1;fill-rule:nonzero;stroke:none;stroke-width:1;marker:none;enable-background:new" />
    </clipPath>
    <linearGradient
       gradientTransform="matrix(0,-1,1,0,-1.5e-6,47.999998)"
       gradientUnits="userSpaceOnUse"
       x2="47"
       x1="1"
       id="linearGradient3764-3">
      <stop
         id="stop7-3"
         style="stop-color:#4eb470;stop-opacity:1" />
      <stop
         id="stop9-8"
         style="stop-color:#5dba7c;stop-opacity:1"
         offset="1" />
    </linearGradient>
    <linearGradient
       gradientTransform="matrix(3.543307,0,0,3.543307,-1,0)"
       x2="10.442"
       x1="3.669"
       gradientUnits="userSpaceOnUse"
       id="linear0">
      <stop
         id="stop12"
         style="stop-color:#e2f4fb;stop-opacity:1" />
      <stop
         id="stop14"
         style="stop-color:#f9f9f9;stop-opacity:1"
         offset="1" />
    </linearGradient>
    <linearGradient
       gradientTransform="matrix(0,-1,1,0,-1.5e-6,47.999998)"
       gradientUnits="userSpaceOnUse"
       x2="47"
       x1="1"
       id="linearGradient3764-28">
      <stop
         id="stop7-5"
         style="stop-color:#18aa86;stop-opacity:1" />
      <stop
         id="stop9-80"
         style="stop-color:#1abc95;stop-opacity:1"
         offset="1" />
    </linearGradient>
    <linearGradient
       gradientTransform="matrix(0,-1,1,0,-1.5e-6,47.999998)"
       gradientUnits="userSpaceOnUse"
       x2="47"
       x1="1"
       id="linearGradient3764-8">
      <stop
         id="stop7-6"
         style="stop-color:#5dbacb;stop-opacity:1" />
      <stop
         id="stop9-9"
         style="stop-color:#6cc0d0;stop-opacity:1"
         offset="1" />
    </linearGradient>
    <linearGradient
       gradientUnits="userSpaceOnUse"
       x2="24"
       x1="21"
       id="linearGradient4251"
       xlink:href="#linearGradient4309" />
    <linearGradient
       id="linearGradient4309">
      <stop
         id="stop13"
         style="stop-color:#eff5eb;stop-opacity:1" />
      <stop
         id="stop15"
         style="stop-color:#d1e2c4;stop-opacity:1"
         offset="1" />
    </linearGradient>
    <linearGradient
       gradientTransform="matrix(-1,0,0,1,48,0)"
       x2="24"
       x1="21"
       gradientUnits="userSpaceOnUse"
       id="linearGradient4265"
       xlink:href="#linearGradient4309" />
    <linearGradient
       gradientUnits="userSpaceOnUse"
       y2="1"
       x2="0"
       y1="47"
       id="linearGradient3845">
      <stop
         id="stop7-33"
         style="stop-color:#24bbd2;stop-opacity:1" />
      <stop
         id="stop9-7"
         style="stop-color:#2fc4db;stop-opacity:1"
         offset="1" />
    </linearGradient>
    <linearGradient
       gradientTransform="matrix(0,-1,1,0,-1.5e-6,47.999998)"
       gradientUnits="userSpaceOnUse"
       x2="47"
       x1="1"
       id="linearGradient3764-4">
      <stop
         id="stop7-37"
         style="stop-color:#de4f48;stop-opacity:1" />
      <stop
         id="stop9-1"
         style="stop-color:#e16059;stop-opacity:1"
         offset="1" />
    </linearGradient>
    <linearGradient
       gradientTransform="matrix(0,-1,1,0,-1.5e-6,47.999998)"
       gradientUnits="userSpaceOnUse"
       x2="47"
       x1="1"
       id="linearGradient3764-39">
      <stop
         id="stop7-64"
         style="stop-color:#ee810c;stop-opacity:1" />
      <stop
         id="stop9-2"
         style="stop-color:#f38b1b;stop-opacity:1"
         offset="1" />
    </linearGradient>
    <linearGradient
       gradientTransform="matrix(0,-1,1,0,-1.5e-6,47.999998)"
       gradientUnits="userSpaceOnUse"
       x2="47"
       x1="1"
       id="linearGradient3764-0">
      <stop
         id="stop7-2"
         style="stop-color:#3db0e3;stop-opacity:1" />
      <stop
         id="stop9-95"
         style="stop-color:#50b8e6;stop-opacity:1"
         offset="1" />
    </linearGradient>
    <linearGradient
       id="linearGradient3102-2"
       gradientUnits="userSpaceOnUse"
       gradientTransform="matrix(0.05622958,0,0,0.05622958,0.07160145,-0.0527796)"
       x1="135"
       y1="120"
       x2="160"
       y2="160">
      <stop
         id="stop12-7"
         style="stop-color:#eff7fc" />
      <stop
         id="stop14-4"
         style="stop-color:#fff"
         offset="1" />
    </linearGradient>
    <linearGradient
       gradientTransform="matrix(0,-1,1,0,-1.5e-6,47.999998)"
       gradientUnits="userSpaceOnUse"
       x2="47"
       x1="1"
       id="linearGradient3764-64">
      <stop
         id="stop7-9"
         style="stop-color:#575757;stop-opacity:1" />
      <stop
         id="stop9-12"
         style="stop-color:#616161;stop-opacity:1"
         offset="1" />
    </linearGradient>
    <linearGradient
       gradientTransform="matrix(0,-1,1,0,-1.5e-6,47.999998)"
       gradientUnits="userSpaceOnUse"
       x2="47"
       x1="1"
       id="linearGradient3764-31">
      <stop
         id="stop7-8"
         style="stop-color:#315bd1;stop-opacity:1" />
      <stop
         id="stop9-13"
         style="stop-color:#4166d4;stop-opacity:1"
         offset="1" />
    </linearGradient>
    <linearGradient
       gradientUnits="userSpaceOnUse"
       y2="1"
       x2="0"
       y1="47"
       id="linearGradient3764-89">
      <stop
         id="stop7-24"
         style="stop-color:#23bd88;stop-opacity:1" />
      <stop
         id="stop9-51"
         style="stop-color:#26cd93;stop-opacity:1"
         offset="1" />
    </linearGradient>
    <linearGradient
       gradientTransform="matrix(0,-1,1,0,-1.5e-6,47.999998)"
       gradientUnits="userSpaceOnUse"
       x2="47"
       x1="1"
       id="linearGradient3764-00">
      <stop
         id="stop7-13"
         style="stop-color:#075f93;stop-opacity:1" />
      <stop
         id="stop9-30"
         style="stop-color:#086ba6;stop-opacity:1"
         offset="1" />
    </linearGradient>
    <linearGradient
       gradientTransform="matrix(0.9,0,0,0.9,2.4499,2.45)"
       gradientUnits="userSpaceOnUse"
       y2="1"
       x2="0"
       y1="47"
       id="linearGradient3764-002">
      <stop
         id="stop7-22"
         style="stop-color:#67ac5e;stop-opacity:1" />
      <stop
         id="stop9-4"
         style="stop-color:#74b36b;stop-opacity:1"
         offset="1" />
    </linearGradient>
    <linearGradient
       gradientTransform="matrix(0,-1,1,0,-1.5e-6,47.999998)"
       gradientUnits="userSpaceOnUse"
       x2="47"
       x1="1"
       id="linearGradient3764-7">
      <stop
         id="stop7-86"
         style="stop-color:#f6b042;stop-opacity:1" />
      <stop
         id="stop9-0"
         style="stop-color:#f7b754;stop-opacity:1"
         offset="1" />
    </linearGradient>
    <linearGradient
       x2="-24"
       x1="-27"
       gradientUnits="userSpaceOnUse"
       id="linearGradient3357">
      <stop
         style="stop-color:#e25543;stop-opacity:1"
         id="stop14433" />
      <stop
         offset="1"
         style="stop-color:#e96b5a;stop-opacity:1"
         id="stop14435" />
    </linearGradient>
    <linearGradient
       id="linearGradient3764-06"
       x1="1"
       x2="47"
       gradientUnits="userSpaceOnUse"
       gradientTransform="matrix(0,-1,1,0,-1.5e-6,47.999998)">
      <stop
         style="stop-color:#324162;stop-opacity:1"
         id="stop14589" />
      <stop
         offset="1"
         style="stop-color:#394a6f;stop-opacity:1"
         id="stop14591" />
    </linearGradient>
    <linearGradient
       id="linear0-4"
       gradientUnits="userSpaceOnUse"
       x1="13"
       y1="28"
       x2="15"
       y2="29">
      <stop
         style="stop-color:#35587c;stop-opacity:1"
         id="stop14594" />
      <stop
         offset="1"
         style="stop-color:#335276;stop-opacity:1"
         id="stop14596" />
    </linearGradient>
    <linearGradient
       id="linear1"
       gradientUnits="userSpaceOnUse"
       x1="12.906"
       y1="27.547"
       x2="24"
       y2="28">
      <stop
         style="stop-color:#3d6084;stop-opacity:1"
         id="stop14599" />
      <stop
         offset="1"
         style="stop-color:#2f5175;stop-opacity:1"
         id="stop14601" />
    </linearGradient>
    <linearGradient
       id="linear2"
       gradientUnits="userSpaceOnUse"
       x1="27"
       y1="35"
       x2="35"
       y2="24">
      <stop
         style="stop-color:#375b80;stop-opacity:1"
         id="stop14604" />
      <stop
         offset="1"
         style="stop-color:#3d6185;stop-opacity:1"
         id="stop14606" />
    </linearGradient>
    <linearGradient
       id="linearGradient4193"
       x1="1"
       x2="47"
       gradientUnits="userSpaceOnUse">
      <stop
         style="stop-color:#2ebd59;stop-opacity:1"
         id="stop14736" />
      <stop
         offset="1"
         style="stop-color:#33cd61;stop-opacity:1"
         id="stop14738" />
    </linearGradient>
    <linearGradient
       id="linearGradient3764-37"
       x1="1"
       x2="47"
       gradientUnits="userSpaceOnUse"
       gradientTransform="matrix(0,-1,1,0,-1.5e-6,47.999998)">
      <stop
         style="stop-color:#b471e3;stop-opacity:1"
         id="stop15099" />
      <stop
         offset="1"
         style="stop-color:#bd82e6;stop-opacity:1"
         id="stop15101" />
    </linearGradient>
    <linearGradient
       id="linearGradient3764-5"
       x1="1"
       x2="47"
       gradientUnits="userSpaceOnUse"
       gradientTransform="matrix(0,-1,1,0,-1.5e-6,47.999998)">
      <stop
         style="stop-color:#ff7061;stop-opacity:1"
         id="stop16473" />
      <stop
         offset="1"
         style="stop-color:#ff8275;stop-opacity:1"
         id="stop16475" />
    </linearGradient>
    <radialGradient
       id="radial0"
       gradientUnits="userSpaceOnUse"
       cx="6.773"
       cy="5.927"
       r="0.564"
       gradientTransform="matrix(3.543307,0,0,3.543307,0.000000147638,0.000377575)">
      <stop
         style="stop-color:#8eb0c7;stop-opacity:1"
         id="stop16478" />
      <stop
         offset="1"
         style="stop-color:#8eb0c7;stop-opacity:0"
         id="stop16480" />
    </radialGradient>
    <radialGradient
       id="radial1"
       gradientUnits="userSpaceOnUse"
       cx="6"
       cy="17.292"
       r="1"
       gradientTransform="translate(18,8.707971)"
       xlink:href="#radial0" />
    <radialGradient
       xlink:href="#radial0"
       id="radialGradient3427"
       gradientUnits="userSpaceOnUse"
       gradientTransform="matrix(3.543307,0,0,3.543307,1.47638e-7,3.77575e-4)"
       cx="6.773"
       cy="5.927"
       r="0.564" />
    <linearGradient
       id="linearGradient3764-81"
       x1="1"
       x2="47"
       gradientUnits="userSpaceOnUse"
       gradientTransform="matrix(0,-1,1,0,-1.5e-6,47.999998)">
      <stop
         style="stop-color:#e4e4e4;stop-opacity:1"
         id="stop16695" />
      <stop
         offset="1"
         style="stop-color:#eee;stop-opacity:1"
         id="stop16697" />
    </linearGradient>
  </defs>
  <path
     id="path7651"
     style="color:#000000;fill:#e5e5e5;fill-opacity:1"
     d="M 0,0 0,32 32,32 32,0 Z" />
  <g
     transform="matrix(0.81387087,0,0,0.81387087,-3.6534555,-3.9399809)"
     id="g16726">
    <path
       d="M 24.33,37.801 C 23.906,37.328 24,36 24,31.691 l 0,-4.69 c -2,0.252 -3,0.525 -4.253,0.98 -0.518,0.64 -0.747,0.738 -1.211,0.283 -0.379,-0.399 -0.61,-1.232 -1.61,-4.609 -0.281,-0.947 -0.736,-2.219 -1.012,-2.826 -0.603,-1.326 -0.56,-1.627 0.212,-1.484 0.292,0.054 0.812,0.213 1.155,0.414 C 17.712,20 18,20 18.599,19.95 20.347,19.577 22,19.249 24,18.8 l 0,-2.215 C 24,14 23.738,14.148 23.362,13.418 22.631,12 23.084,11.613 24.551,12.403 c 1.171,0.63 1.76,1.315 1.639,1.909 C 26.14,14.557 26,15.503 26,16.586 l 0,1.865 c 2,-0.5 4,-0.843 5.789,-1.05 0.735,0 2.711,1.514 2.711,2.072 0,0.155 -0.164,0.498 -0.364,0.763 -0.337,0.446 -1.073,2.065 -1.792,3.663 -0.167,0.371 -0.303,0.936 -0.303,1.256 0,0.455 -0.053,0.847 -0.245,0.847 -1.326,0 -5.379,0.679 -5.796,0.76 0,7.221 0,10.24 -0.873,11.09 -0.228,0.208 -0.569,0.204 -0.797,-0.051 z M 24,25 24,20.4 c 0,0 -3.676,0.651 -5.03,1 -0.746,0.192 -0.624,0.6 0.266,3.873 0.148,0.542 0.353,0.712 0.683,0.627 1.082,-0.278 2.082,-0.543 4.082,-0.9 m 6.3,-1 c 0.324,-0.154 0.285,-0.142 0.75,-2.266 0.375,-1.712 0.534,-2.319 0.35,-2.434 -0.113,-0.224 -3.4,0.232 -5.4,0.7 l 0,4.7 c 2,-0.357 3.338,-0.518 4.3,-0.7 z"
       style="fill:#000000;fill-opacity:0.09800002"
       id="path16715" />
    <path
       d="M 23.33,36.801 C 22.906,36.328 23,35 23,30.691 l 0,-4.69 c -2,0.252 -3,0.525 -4.253,0.98 -0.518,0.64 -0.747,0.738 -1.211,0.283 -0.379,-0.399 -0.61,-1.232 -1.61,-4.609 -0.281,-0.947 -0.736,-2.219 -1.012,-2.826 -0.603,-1.326 -0.56,-1.627 0.212,-1.484 0.292,0.054 0.812,0.213 1.155,0.414 C 16.712,19 17,19 17.599,18.95 19.347,18.577 21,18.249 23,17.8 l 0,-2.215 C 23,13 22.738,13.148 22.362,12.418 21.631,11 22.084,10.613 23.551,11.403 c 1.171,0.63 1.76,1.315 1.639,1.909 C 25.14,13.557 25,14.503 25,15.586 l 0,1.865 c 2,-0.5 4,-0.843 5.789,-1.05 0.735,0 2.711,1.514 2.711,2.072 0,0.155 -0.164,0.498 -0.364,0.763 -0.337,0.446 -1.073,2.065 -1.792,3.663 -0.167,0.371 -0.303,0.936 -0.303,1.256 0,0.455 -0.053,0.847 -0.245,0.847 -1.326,0 -5.379,0.679 -5.796,0.76 0,7.221 0,10.24 -0.873,11.09 -0.228,0.208 -0.569,0.204 -0.797,-0.051 M 23,24 23,19.4 c 0,0 -3.676,0.651 -5.03,1 -0.746,0.192 -0.624,0.6 0.266,3.873 0.148,0.542 0.353,0.712 0.683,0.627 1.082,-0.278 2.082,-0.543 4.082,-0.9 m 6.3,-1 c 0.324,-0.154 0.285,-0.142 0.75,-2.266 0.375,-1.713 0.534,-2.319 0.35,-2.434 -0.113,-0.224 -3.4,0.232 -5.4,0.7 l 0,4.7 c 2,-0.357 3.338,-0.518 4.3,-0.7 z"
       style="fill:#b33c29;fill-opacity:1"
       id="path16717" />
  </g>
</svg>
