<?xml version="1.0" encoding="UTF-8" standalone="no"?>
<svg xmlns="http://www.w3.org/2000/svg" xmlns:osb="http://www.openswatchbook.org/uri/2009/osb" height="32" width="32" version="1.0" xmlns:xlink="http://www.w3.org/1999/xlink">
 <g transform="matrix(.1138 0 0 .1138 -64.82 -29.38)">
  <path style="fill:#e3d0ee" d="m569.4 258.1h281.1v281.1h-281.1z"/>
  <path style="opacity:.1;stroke-width:8.785" d="m664.7 355.3-2.732 1.37c-7.318 3.655-15.39 5.561-23.57 5.561h-6.158c-4.428 0-8.17 3.303-8.715 7.696l-5.64 57.7c-1.23 12.64 7.538 24.08 20.07 26.17l54.45 9.057c19.12 3.18 38.65 3.171 57.77-0.0176l54.09-9.031c12.54-2.091 21.3-13.54 20.07-26.19l-5.631-57.67c-0.5447-4.41-4.287-7.713-8.715-7.713h-6.15c-8.179 0-16.25-1.906-23.57-5.561l-2.732-1.362c-2.442-1.23-5.139-1.862-7.863-1.862h-97.13c-2.723 0-5.42 0.6325-7.854 1.854z"/>
  <path id="body" d="m653.6 344.6-2.732 1.37c-7.318 3.655-15.39 5.561-23.57 5.561h-6.158c-4.428 0-8.17 3.303-8.715 7.696l-5.64 57.7c-1.23 12.64 7.538 24.08 20.07 26.17l54.45 9.057c19.12 3.18 38.65 3.171 57.77-0.0176l54.09-9.031c12.54-2.091 21.3-13.54 20.07-26.19l-5.631-57.67c-0.5447-4.41-4.287-7.713-8.715-7.713h-6.15c-8.179 0-16.25-1.906-23.57-5.561l-2.732-1.362c-2.442-1.23-5.139-1.862-7.863-1.862h-97.13c-2.723 0-5.42 0.6325-7.854 1.854z" style="stroke-width:8.785;fill:#7715af"/>
  <path id="screen-container" d="m657.3 429v-66.61c0-2.574 1.862-4.779 4.401-5.201l19.42-3.233c19.12-3.189 38.65-3.189 57.77 0l19.42 3.233c2.539 0.4305 4.401 2.627 4.401 5.201v66.61c0 6.009-4.349 11.14-10.28 12.13l-13.55 2.258c-19.12 3.189-38.65 3.189-57.77 0l-13.55-2.258c-5.93-0.9927-10.28-6.123-10.28-12.13z" style="stroke-width:8.785;fill:#47205d"/>
  <path id="screen" d="m752.1 421.8h-84.34c-0.9664 0-1.757-0.7907-1.757-1.757v-57.98c0-0.9664 0.7907-1.757 1.757-1.757h84.34c0.9664 0 1.757 0.7907 1.757 1.757v57.98c0 0.9664-0.7906 1.757-1.757 1.757z" style="stroke-width:8.785;fill:#999"/>
  <ellipse id="a" style="stroke-width:8.785;fill:#060208" rx="7.028" ry="7.028" cy="386.7" cx="797.8"/>
  <ellipse id="b" style="stroke-width:8.785;fill:#060208" rx="7.028" ry="7.028" cy="395.5" cx="780.3"/>
  <g id="speaker" transform="matrix(8.785 0 0 8.785 604.5 294.4)">
   <path d="m18.87 14.1 2.71-0.73c0.047-0.012 0.074-0.061 0.062-0.107-0.01-0.04-0.06-0.07-0.1-0.06l-2.708 0.726c-0.047 0.012-0.074 0.061-0.062 0.107s0.06 0.074 0.107 0.062z" style="fill:#999"/>
   <path d="m18.96 14.43 2.708-0.726c0.047-0.012 0.074-0.061 0.062-0.107-0.01-0.04-0.06-0.06-0.11-0.05l-2.708 0.726c-0.047 0.012-0.074 0.061-0.062 0.107 0.012 0.047 0.061 0.075 0.107 0.062z" style="fill:#999"/>
   <path d="m19.05 14.77 2.708-0.726c0.047-0.012 0.074-0.061 0.062-0.107-0.012-0.047-0.061-0.074-0.107-0.062l-2.708 0.726c-0.047 0.012-0.074 0.061-0.062 0.107 0.012 0.047 0.06 0.074 0.107 0.062z" style="fill:#999"/>
   <path d="m19.14 15.11 2.708-0.726c0.047-0.012 0.074-0.061 0.062-0.107-0.012-0.047-0.061-0.074-0.107-0.062l-2.708 0.726c-0.047 0.012-0.074 0.061-0.062 0.107 0.012 0.047 0.06 0.075 0.107 0.062z" style="fill:#999"/>
   <path d="m19.23 15.45 2.708-0.726c0.047-0.012 0.074-0.061 0.062-0.107-0.01-0.04-0.06-0.07-0.1-0.05l-2.708 0.726c-0.047 0.012-0.074 0.061-0.062 0.107 0.012 0.047 0.061 0.074 0.107 0.062z" style="fill:#999"/>
  </g>
  <ellipse id="select" style="stroke-width:8.785;fill:#b2b2b2" rx="3.514" ry="3.514" cy="430.6" cx="648.5"/>
  <ellipse id="start" style="stroke-width:8.785;fill:#b2b2b2" rx="3.514" ry="3.514" cy="417.4" cx="648.5"/>
  <polygon id="dpad" style="fill:#000001" points="2 11.5 3 11.5 3 12.5 4 12.5 4 11.5 5 11.5 5 10.5 4 10.5 4 9.5 3 9.5 3 10.5 2 10.5" transform="matrix(8.785 0 0 8.785 604.5 294.4)"/>
  <ellipse id="led" style="stroke-width:8.785;fill:#a6bf84" rx=".8785" ry=".8785" cy="360.3" cx="780.3"/>
 </g>
</svg>
