<?xml version="1.0" encoding="UTF-8" standalone="no"?>
<svg xmlns="http://www.w3.org/2000/svg" xmlns:osb="http://www.openswatchbook.org/uri/2009/osb" height="32" width="32" version="1.0" xmlns:xlink="http://www.w3.org/1999/xlink">
 <g transform="matrix(.1138 0 0 .1138 -64.82 -29.38)">
  <path style="fill:#c62424" d="m569.4 258.1h281.1v281.1h-281.1z"/>
  <g style="opacity:.1" transform="matrix(15.91 0 0 -15.91 -4348 6245)" clip-path="url(#id665)">
   <g transform="translate(318.2 371.9)">
    <path d="m0 0c-1.891 0-3.424-1.533-3.424-3.425 0-1.891 1.533-3.424 3.424-3.424s3.424 1.533 3.424 3.424c0 1.892-1.533 3.425-3.424 3.425"/>
   </g>
   <g transform="translate(315.2 363.7)">
    <path d="m0 0h-0.005v-0.757c0-0.093-0.033-0.178-0.093-0.239-0.057-0.06-0.134-0.093-0.216-0.093s-0.159 0.033-0.216 0.093c-0.06 0.061-0.092 0.146-0.092 0.239v0.757h-0.247v-0.757c0-0.165 0.054-0.308 0.158-0.412 0.101-0.101 0.242-0.156 0.397-0.156s0.296 0.055 0.397 0.156c0.104 0.104 0.159 0.247 0.159 0.412v0.757h-0.005"/>
   </g>
   <g transform="translate(317.3 362.7)">
    <path d="m0 0c-0.075-0.079-0.181-0.122-0.298-0.122-0.118 0-0.224 0.043-0.299 0.122-0.076 0.079-0.117 0.192-0.117 0.317s0.041 0.239 0.117 0.318c0.075 0.079 0.181 0.122 0.299 0.122 0.117 0 0.223-0.043 0.298-0.122 0.076-0.079 0.117-0.193 0.117-0.318s-0.041-0.238-0.117-0.317m0.173 0.806c-0.125 0.121-0.294 0.188-0.471 0.188-0.179 0-0.347-0.067-0.472-0.188-0.131-0.126-0.202-0.299-0.202-0.489 0-0.189 0.071-0.362 0.202-0.488 0.125-0.121 0.293-0.187 0.472-0.187 0.177 0 0.346 0.066 0.471 0.187 0.131 0.126 0.202 0.299 0.202 0.488 0 0.19-0.071 0.363-0.202 0.489"/>
   </g>
   <g transform="translate(318.4 363.7)">
    <path d="m0 0c-0.155 0-0.296-0.055-0.397-0.157-0.103-0.104-0.159-0.247-0.159-0.412v-0.757h0.247v0.757c0 0.093 0.033 0.178 0.092 0.24 0.058 0.06 0.135 0.092 0.217 0.092s0.159-0.032 0.216-0.092c0.06-0.062 0.093-0.147 0.093-0.24v-0.757h0.247v0.757c0 0.165-0.055 0.308-0.159 0.412-0.101 0.102-0.242 0.157-0.397 0.157"/>
   </g>
   <g transform="translate(322.1 363.7)">
    <path d="m0 0h-0.005v-0.827c0-0.159-0.089-0.262-0.226-0.262-0.164 0-0.247 0.101-0.247 0.3v0.789h-0.247v-0.789c0-0.199-0.083-0.3-0.247-0.3-0.137 0-0.225 0.103-0.225 0.262v0.827h-0.247v-0.88c0-0.25 0.205-0.445 0.467-0.445 0.158 0 0.294 0.065 0.376 0.178 0.082-0.113 0.218-0.178 0.376-0.178 0.261 0 0.467 0.195 0.467 0.445v0.88h-0.005"/>
   </g>
   <g transform="translate(323.1 363.2)">
    <path d="m0 0c-0.158 0.044-0.294 0.082-0.294 0.169 0.005 0.073 0.029 0.108 0.148 0.108h0.601v0.236h-0.561c-0.287 0-0.446-0.126-0.446-0.355 0-0.116 0.055-0.207 0.168-0.277 0.097-0.06 0.225-0.097 0.338-0.13 0.165-0.047 0.308-0.088 0.308-0.183 0-0.082-0.046-0.118-0.148-0.118h-0.666v-0.237h0.666c0.118 0 0.218 0.031 0.289 0.09 0.076 0.063 0.117 0.159 0.117 0.275 0 0.277-0.288 0.357-0.52 0.422"/>
   </g>
   <g transform="translate(315.6 363.2)">
    <path d="m0 0v-0.796h0.23v0.796c0 0.147 0.045 0.315 0.397 0.315h0.006v0.23h-0.006c-0.545 0-0.627-0.342-0.627-0.545"/>
   </g>
   <g transform="translate(313.9 362.9)">
    <path d="m0 0-0.005 0.002-0.002-0.005c-0.036-0.067-0.089-0.126-0.156-0.168-0.208-0.132-0.485-0.069-0.616 0.139-0.064 0.1-0.085 0.22-0.058 0.336 0.026 0.117 0.096 0.216 0.196 0.28 0.149 0.093 0.338 0.091 0.484-0.005l-0.394-0.324-0.005-0.003 0.004-0.004 0.135-0.168 0.003-0.005 0.004 0.004 0.579 0.475 0.003 0.003-0.002 0.004-0.004 0.005c-0.096 0.151-0.245 0.256-0.421 0.295-0.175 0.04-0.355 0.009-0.506-0.087-0.151-0.095-0.257-0.244-0.296-0.419-0.04-0.176-0.009-0.356 0.087-0.508 0.198-0.313 0.614-0.407 0.927-0.209 0.099 0.063 0.18 0.15 0.235 0.254l0.003 0.005-0.005 0.003"/>
   </g>
   <g transform="translate(320.2 362.9)">
    <path d="m0 0-0.005 0.002-0.003-0.005c-0.035-0.067-0.089-0.126-0.155-0.168-0.208-0.132-0.485-0.069-0.617 0.139-0.063 0.1-0.084 0.22-0.058 0.337 0.027 0.116 0.097 0.215 0.197 0.279 0.148 0.093 0.337 0.091 0.484-0.005l-0.395-0.324-0.004-0.003 0.004-0.004 0.135-0.168 0.003-0.005 0.005 0.004 0.577 0.475 0.005 0.003-0.004 0.004-0.003 0.005c-0.198 0.313-0.614 0.406-0.927 0.208-0.152-0.095-0.257-0.244-0.296-0.419-0.04-0.176-0.009-0.356 0.086-0.508 0.199-0.313 0.615-0.407 0.928-0.209 0.099 0.063 0.18 0.15 0.235 0.254l0.003 0.005-0.005 0.003"/>
   </g>
  </g>
  <g transform="matrix(.9371 0 0 -.9371 -128.3 654.9)" clip-path="url(#id273)">
   <g transform="matrix(7.645 0 0 7.937 266.3 448.9)">
    <use xlink:href="#id274" height="1052.3622" width="744.09448" y="0" x="0"/>
   </g>
  </g>
  <g transform="matrix(.9371 0 0 -.9371 -128.3 654.9)" clip-path="url(#id401)">
   <g transform="matrix(9.31 0 0 9.31 373.3 306.2)">
    <use xlink:href="#id402" height="1052.3622" width="744.09448" y="0" x="0"/>
   </g>
  </g>
  <g style="fill:#fff" transform="matrix(15.91 0 0 -15.91 -4352 6240)" clip-path="url(#id665)">
   <g style="fill:#fff" transform="translate(318.2 371.9)">
    <path d="m0 0c-1.891 0-3.424-1.533-3.424-3.425 0-1.891 1.533-3.424 3.424-3.424s3.424 1.533 3.424 3.424c0 1.892-1.533 3.425-3.424 3.425" style="fill:#fff"/>
   </g>
   <g style="fill:#fff" transform="translate(315.2 363.7)">
    <path d="m0 0h-0.005v-0.757c0-0.093-0.033-0.178-0.093-0.239-0.057-0.06-0.134-0.093-0.216-0.093s-0.159 0.033-0.216 0.093c-0.06 0.061-0.092 0.146-0.092 0.239v0.757h-0.247v-0.757c0-0.165 0.054-0.308 0.158-0.412 0.101-0.101 0.242-0.156 0.397-0.156s0.296 0.055 0.397 0.156c0.104 0.104 0.159 0.247 0.159 0.412v0.757h-0.005" style="fill:#fff"/>
   </g>
   <g style="fill:#fff" transform="translate(317.3 362.7)">
    <path d="m0 0c-0.075-0.079-0.181-0.122-0.298-0.122-0.118 0-0.224 0.043-0.299 0.122-0.076 0.079-0.117 0.192-0.117 0.317s0.041 0.239 0.117 0.318c0.075 0.079 0.181 0.122 0.299 0.122 0.117 0 0.223-0.043 0.298-0.122 0.076-0.079 0.117-0.193 0.117-0.318s-0.041-0.238-0.117-0.317m0.173 0.806c-0.125 0.121-0.294 0.188-0.471 0.188-0.179 0-0.347-0.067-0.472-0.188-0.131-0.126-0.202-0.299-0.202-0.489 0-0.189 0.071-0.362 0.202-0.488 0.125-0.121 0.293-0.187 0.472-0.187 0.177 0 0.346 0.066 0.471 0.187 0.131 0.126 0.202 0.299 0.202 0.488 0 0.19-0.071 0.363-0.202 0.489" style="fill:#fff"/>
   </g>
   <g style="fill:#fff" transform="translate(318.4 363.7)">
    <path d="m0 0c-0.155 0-0.296-0.055-0.397-0.157-0.103-0.104-0.159-0.247-0.159-0.412v-0.757h0.247v0.757c0 0.093 0.033 0.178 0.092 0.24 0.058 0.06 0.135 0.092 0.217 0.092s0.159-0.032 0.216-0.092c0.06-0.062 0.093-0.147 0.093-0.24v-0.757h0.247v0.757c0 0.165-0.055 0.308-0.159 0.412-0.101 0.102-0.242 0.157-0.397 0.157" style="fill:#fff"/>
   </g>
   <g style="fill:#fff" transform="translate(322.1 363.7)">
    <path d="m0 0h-0.005v-0.827c0-0.159-0.089-0.262-0.226-0.262-0.164 0-0.247 0.101-0.247 0.3v0.789h-0.247v-0.789c0-0.199-0.083-0.3-0.247-0.3-0.137 0-0.225 0.103-0.225 0.262v0.827h-0.247v-0.88c0-0.25 0.205-0.445 0.467-0.445 0.158 0 0.294 0.065 0.376 0.178 0.082-0.113 0.218-0.178 0.376-0.178 0.261 0 0.467 0.195 0.467 0.445v0.88h-0.005" style="fill:#fff"/>
   </g>
   <g style="fill:#fff" transform="translate(323.1 363.2)">
    <path d="m0 0c-0.158 0.044-0.294 0.082-0.294 0.169 0.005 0.073 0.029 0.108 0.148 0.108h0.601v0.236h-0.561c-0.287 0-0.446-0.126-0.446-0.355 0-0.116 0.055-0.207 0.168-0.277 0.097-0.06 0.225-0.097 0.338-0.13 0.165-0.047 0.308-0.088 0.308-0.183 0-0.082-0.046-0.118-0.148-0.118h-0.666v-0.237h0.666c0.118 0 0.218 0.031 0.289 0.09 0.076 0.063 0.117 0.159 0.117 0.275 0 0.277-0.288 0.357-0.52 0.422" style="fill:#fff"/>
   </g>
   <g style="fill:#fff" transform="translate(315.6 363.2)">
    <path d="m0 0v-0.796h0.23v0.796c0 0.147 0.045 0.315 0.397 0.315h0.006v0.23h-0.006c-0.545 0-0.627-0.342-0.627-0.545" style="fill:#fff"/>
   </g>
   <g style="fill:#fff" transform="translate(313.9 362.9)">
    <path d="m0 0-0.005 0.002-0.002-0.005c-0.036-0.067-0.089-0.126-0.156-0.168-0.208-0.132-0.485-0.069-0.616 0.139-0.064 0.1-0.085 0.22-0.058 0.336 0.026 0.117 0.096 0.216 0.196 0.28 0.149 0.093 0.338 0.091 0.484-0.005l-0.394-0.324-0.005-0.003 0.004-0.004 0.135-0.168 0.003-0.005 0.004 0.004 0.579 0.475 0.003 0.003-0.002 0.004-0.004 0.005c-0.096 0.151-0.245 0.256-0.421 0.295-0.175 0.04-0.355 0.009-0.506-0.087-0.151-0.095-0.257-0.244-0.296-0.419-0.04-0.176-0.009-0.356 0.087-0.508 0.198-0.313 0.614-0.407 0.927-0.209 0.099 0.063 0.18 0.15 0.235 0.254l0.003 0.005-0.005 0.003" style="fill:#fff"/>
   </g>
   <g style="fill:#fff" transform="translate(320.2 362.9)">
    <path d="m0 0-0.005 0.002-0.003-0.005c-0.035-0.067-0.089-0.126-0.155-0.168-0.208-0.132-0.485-0.069-0.617 0.139-0.063 0.1-0.084 0.22-0.058 0.337 0.027 0.116 0.097 0.215 0.197 0.279 0.148 0.093 0.337 0.091 0.484-0.005l-0.395-0.324-0.004-0.003 0.004-0.004 0.135-0.168 0.003-0.005 0.005 0.004 0.577 0.475 0.005 0.003-0.004 0.004-0.003 0.005c-0.198 0.313-0.614 0.406-0.927 0.208-0.152-0.095-0.257-0.244-0.296-0.419-0.04-0.176-0.009-0.356 0.086-0.508 0.199-0.313 0.615-0.407 0.928-0.209 0.099 0.063 0.18 0.15 0.235 0.254l0.003 0.005-0.005 0.003" style="fill:#fff"/>
   </g>
  </g>
 </g>
</svg>
