<?xml version="1.0" encoding="UTF-8" standalone="no"?>
<svg xmlns="http://www.w3.org/2000/svg" xmlns:osb="http://www.openswatchbook.org/uri/2009/osb" height="32" width="32" version="1.0" xmlns:xlink="http://www.w3.org/1999/xlink">
 <defs>
  <clipPath id="b">
   <g transform="translate(0 -1004)">
    <rect rx="4" height="46" width="46" y="1005" x="1" fill="#1890d0"/>
   </g>
  </clipPath>
  <clipPath id="a">
   <g transform="translate(0 -1004)">
    <rect rx="4" height="46" width="46" y="1005" x="1" fill="#1890d0"/>
   </g>
  </clipPath>
 </defs>
 <g transform="matrix(.1138 0 0 .1138 -64.82 -29.38)">
  <path style="fill:#e42d31" d="m569.4 258.1h281.1v281.1h-281.1z"/>
  <g transform="matrix(7.17 0 0 7.17 548.6 232.4)">
   <g clip-path="url(#b)">
    <g style="opacity:.1">
     <path d="m13.45 13c-0.81 0-1.45 0.64-1.45 1.45v15.84c0 0.809 0.645 1.746 1.453 1.703h4.55v5l6-5h10.55c0.81 0.01 1.45-0.89 1.45-1.69v-15.85c0-0.81-0.64-1.45-1.45-1.45m-11.55 4h2v4l3-2 1 1.5-3 2 3 2-1 1.5-3-2v4h-2l-0.01-4.03-2.99 2.03-1-1.5 3-2-3-2 1-1.5 3 2m0-4"/>
    </g>
   </g>
  </g>
  <g transform="matrix(7.17 0 0 7.17 537.9 228)">
   <g clip-path="url(#a)">
    <g transform="translate(0,-1)">
     <path style="fill:#f9f9f9" d="m13.45 13c-0.81 0-1.45 0.64-1.45 1.45v15.84c0 0.809 0.645 1.746 1.453 1.703h4.55v5l6-5h10.55c0.81 0.01 1.45-0.89 1.45-1.69v-15.85c0-0.81-0.64-1.45-1.45-1.45m-11.55 4h2v4l3-2 1 1.5-3 2 3 2-1 1.5-3-2v4h-2l-0.01-4.03-2.99 2.03-1-1.5 3-2-3-2 1-1.5 3 2m0-4"/>
    </g>
   </g>
  </g>
 </g>
</svg>
