<?xml version="1.0" encoding="UTF-8" standalone="no"?>
<svg xmlns:rdf="http://www.w3.org/1999/02/22-rdf-syntax-ns#" xmlns="http://www.w3.org/2000/svg" xmlns:osb="http://www.openswatchbook.org/uri/2009/osb" height="32" width="32" version="1.0" xmlns:cc="http://creativecommons.org/ns#" xmlns:xlink="http://www.w3.org/1999/xlink" xmlns:dc="http://purl.org/dc/elements/1.1/">
 <path style="color:#000000;fill:#e9e9e9" d="m0 0v32h32v-32z"/>
 <g transform="translate(11.5 -8.5)">
  <path style="opacity:.1" d="m9.18 16v0.002c-2.66 0-4.82 2.158-4.82 4.818 0 0.832 0.2111 1.618 0.5781 2.301v0.0098l-8.938 8.939v1.932h1.926l0.6406-0.6406v-1.291h1.287l0.6426-0.6387h1.285l0.6426-0.6406v-1.285l0.6348-0.6465h1.295v-1.283l2.512-2.516h0.01953c0.684 0.374 1.465 0.5859 2.295 0.5859 2.662 0 4.818-2.162 4.818-4.826v-0.01758c-0.012-2.661-2.156-4.803-4.818-4.803zm0.9707 2.568c0.711 0 1.285 0.5821 1.289 1.289 0 0.707-0.5741 1.283-1.289 1.283-0.707 0-1.281-0.5722-1.281-1.283 0-0.707 0.5702-1.289 1.281-1.289z"/>
  <g transform="translate(-20)">
   <path style="fill:#2d2d2d" d="m28.18 15c-2.66 0-4.82 2.156-4.82 4.82 0 0.832 0.211 1.617 0.578 2.301v0.012l-8.94 8.94v1.93h1.926l0.641-0.641v-1.289h1.289l0.641-0.641h1.285l0.641-0.641v-1.285l0.641-0.645h1.289v-1.285l2.512-2.512h0.02c0.684 0.371 1.465 0.582 2.297 0.582 2.66 0 4.816-2.16 4.816-4.824v-0.02c-0.012-2.66-2.156-4.801-4.816-4.801m0.973 2.57c0.707 0 1.281 0.578 1.285 1.289 0 0.707-0.574 1.285-1.285 1.285s-1.285-0.574-1.285-1.285 0.57-1.289 1.285-1.289"/>
  </g>
 </g>
</svg>
