<?xml version="1.0" encoding="UTF-8" standalone="no"?>
<svg
   xmlns:dc="http://purl.org/dc/elements/1.1/"
   xmlns:cc="http://creativecommons.org/ns#"
   xmlns:rdf="http://www.w3.org/1999/02/22-rdf-syntax-ns#"
   xmlns:svg="http://www.w3.org/2000/svg"
   xmlns="http://www.w3.org/2000/svg"
   id="svg2"
   viewBox="0 0 32 32"
   version="1.1"
   width="32"
   height="32">
  <metadata
     id="metadata16">
    <rdf:RDF>
      <cc:Work
         rdf:about="">
        <dc:format>image/svg+xml</dc:format>
        <dc:type
           rdf:resource="http://purl.org/dc/dcmitype/StillImage" />
        <dc:title></dc:title>
      </cc:Work>
    </rdf:RDF>
  </metadata>
  <defs
     id="defs14" />
  <path
     style="fill:#1b9f86;fill-opacity:1"
     id="path4"
     fill="#333"
     d="m0 0v32h32v-32z" />
  <g
     style="fill:#000000;enable-background:new;fill-opacity:1;opacity:0.1"
     transform="matrix(0.06747,0,0,0.06747,15.376996,15.636996)"
     id="g4144">
    <path
       d="m -60.02,-120.4 122.9,0 c 0,0 4.803,-0.2056 7.766,2.685 2.361,2.303 4.89,8.054 4.89,8.054 l 38.93,84.37 -173.3,0 z"
       style="fill:#000000;fill-rule:evenodd;fill-opacity:1"
       id="path4146" />
    <path
       d="m 26.58,167.3 87.59,-189.6 -87.86,0 -42.03,92.75 z"
       style="fill:#000000;fill-rule:evenodd;fill-opacity:1"
       id="path4148" />
  </g>
  <g
     id="g6"
     transform="matrix(.06747 0 0 .06747 14.16 14.42)"
     style="enable-background:new;fill:#fff">
    <path
       id="path8"
       style="fill:#fff;fill-rule:evenodd"
       d="m-60.02-120.4h122.9s4.803-0.2056 7.766 2.685c2.361 2.303 4.89 8.054 4.89 8.054l38.93 84.37h-173.3z" />
    <path
       id="path10"
       style="fill:#fff;fill-rule:evenodd"
       d="m26.58 167.3 87.59-189.6h-87.86l-42.03 92.75z" />
  </g>
</svg>
