<?xml version="1.0" encoding="UTF-8" standalone="no"?>
<svg xmlns:rdf="http://www.w3.org/1999/02/22-rdf-syntax-ns#" xmlns="http://www.w3.org/2000/svg" height="32" width="32" version="1.0" xmlns:cc="http://creativecommons.org/ns#" xmlns:dc="http://purl.org/dc/elements/1.1/">
 <path style="fill:#ddd" d="m0 0v32h32v-32z"/>
 <path style="opacity:.1;fill:#0a0a0a" d="m6.588 21.14c-0.164-0.02354-0.3114-0.08804-0.4263-0.1866-0.08683-0.07449-0.1833-0.2245-0.2295-0.3572l-0.03915-0.1122-0.00785-2.853c-0.0058-2.11-0.01191-2.873-0.02347-2.932-0.00859-0.04368-0.03356-0.1163-0.0555-0.1614-0.058-0.13-0.132-0.18-0.369-0.28-0.372-0.14-0.582-0.29-0.686-0.5l-0.05004-0.1012-0.00423-0.4595c-0.00482-0.5262 0.00528-0.6251 0.07902-0.7753 0.05657-0.1152 0.1663-0.2261 0.2777-0.2808 0.1674-0.08222 0.1319-0.08049 1.661-0.08074 1.343-0.000223 1.395 0.000677 1.494 0.02596 0.2385 0.06099 0.3937 0.2034 0.4736 0.4346 0.03002 0.08687 0.0306 0.09883 0.0306 0.6247 0 0.5302-0.0003197 0.5368-0.0302 0.6016-0.09599 0.2082-0.2981 0.3599-0.6714 0.504-0.3188 0.123-0.3809 0.1757-0.4399 0.3726-0.0216 0.07211-0.02358 0.2656-0.02999 2.937l-0.00688 2.859-0.02932 0.1033c-0.08513 0.2998-0.2902 0.5126-0.5623 0.5835-0.0963 0.02508-0.2622 0.03544-0.3547 0.02216zm0.3423-0.365c0.1203-0.05397 0.1911-0.1369 0.2486-0.291 0.02372-0.06361 0.02496-0.1771 0.0318-2.912l0.00712-2.846 0.02892-0.1258c0.0768-0.334 0.221-0.4782 0.6395-0.6397 0.2616-0.1009 0.3942-0.1833 0.465-0.2888l0.03704-0.05515v-0.4656c0-0.5312-0.00346-0.5539-0.09893-0.6494-0.1049-0.1049-0.01028-0.09894-1.575-0.09886-0.8694 0.000039-1.408 0.0049-1.438 0.01307-0.08624 0.02396-0.1625 0.08353-0.2047 0.1599l-0.03972 0.07184-0.00417 0.4567c-0.0028 0.3087 0.0005809 0.4729 0.01056 0.5067 0.03384 0.1147 0.2284 0.2504 0.5168 0.3605 0.4253 0.1623 0.5682 0.3278 0.6283 0.728 0.01719 0.1144 0.01991 0.5025 0.02006 2.866 0.0001322 1.822 0.00475 2.762 0.0139 2.82 0.01556 0.09756 0.07016 0.2241 0.1244 0.2882 0.1199 0.1418 0.3935 0.1893 0.5879 0.1021zm1.537 0.3696c-0.0182-0.0031-0.06884-0.01198-0.1125-0.01969-0.04368-0.0077-0.1283-0.03744-0.1879-0.06608-0.1939-0.09301-0.3274-0.2593-0.4032-0.5021l-0.031-0.09928v-2.621-2.621l0.03606-0.1059c0.1224-0.3595 0.4056-0.5626 0.7847-0.5626 0.3918 0 0.6792 0.2192 0.7902 0.6029l0.03049 0.1053v2.588c0 2.474-0.00107 2.592-0.02443 2.681-0.07984 0.3028-0.2908 0.524-0.5669 0.5944-0.08072 0.02059-0.2615 0.03578-0.3155 0.02651zm0.282-0.36c0.1295-0.0456 0.2378-0.1789 0.2815-0.3466 0.02969-0.114 0.02945-5.064-0.0002514-5.19-0.03789-0.1607-0.1172-0.2686-0.2426-0.33-0.06438-0.03152-0.0945-0.03734-0.2139-0.04132-0.1173-0.0039-0.1508-0.000208-0.2145 0.02377-0.1395 0.05249-0.251 0.1866-0.2878 0.3462-0.00877 0.03802-0.0135 0.9357-0.01371 2.602-0.0003197 2.496 0.000159 2.545 0.02584 2.628 0.07264 0.2352 0.2416 0.3495 0.4967 0.3361 0.05825-0.0031 0.1342-0.01551 0.1687-0.02767zm1.513 0.3502c-0.1921-0.0297-0.3445-0.1093-0.4703-0.2457-0.08871-0.09613-0.1475-0.2034-0.1879-0.3431l-0.03052-0.1054v-2.595c0-2.801-0.00399-2.638 0.06908-2.818 0.122-0.3001 0.4034-0.4852 0.7377-0.4852 0.2381 0 0.4283 0.09296 0.5739 0.2805 0.03287 0.04233 0.06571 0.07696 0.07298 0.07696 0.0073 0 0.06927-0.03632 0.1378-0.0807 0.1602-0.1038 0.3443-0.1907 0.4743-0.224 0.3438-0.08793 0.6811 0.04433 0.9018 0.3537 0.03272 0.04585 0.06248 0.08336 0.06614 0.08336 0.0037 0 0.05228-0.04219 0.108-0.09376 0.3895-0.3602 0.839-0.477 1.215-0.3159 0.2389 0.1024 0.4751 0.3472 0.6284 0.6511 0.131 0.2598 0.1824 0.4676 0.1933 0.7815 0.0042 0.1221 0.01232 0.2249 0.01798 0.2284 0.0057 0.0035 0.02644-0.04284 0.04619-0.1029 0.1922-0.5851 0.4053-0.9738 0.693-1.264 0.2849-0.2877 0.5894-0.4271 0.9322-0.4266 0.2323 0.000299 0.4388 0.05685 0.6376 0.1746 0.1233 0.07304 0.3509 0.3009 0.4479 0.4485 0.3321 0.5051 0.5439 1.318 0.5445 2.09 0.000252 0.3161-0.01314 0.4101-0.08673 0.6089-0.07631 0.2061-0.2456 0.4079-0.4097 0.4881-0.1547 0.07564-0.1981 0.08224-0.6216 0.09447-0.4099 0.01183-0.493 0.0216-0.5237 0.06157-0.03555 0.04626-0.07336 0.1969-0.08114 0.3232-0.01905 0.3096 0.07248 0.5623 0.2133 0.5887 0.05911 0.01109 0.1406-0.03233 0.2814-0.1499 0.05695-0.04754 0.1423-0.1049 0.1896-0.1275 0.08077-0.03852 0.09537-0.04104 0.2383-0.04104 0.148 0 0.155 0.0014 0.254 0.04862 0.1876 0.0896 0.3218 0.2587 0.3761 0.474 0.0322 0.1277 0.02009 0.3426-0.02763 0.49-0.07465 0.2307-0.2022 0.4443-0.3706 0.621-0.2954 0.3098-0.636 0.4573-1.053 0.4558-0.5165-0.0018-0.9695-0.3225-1.34-0.9482-0.1104-0.1865-0.2127-0.4072-0.2824-0.6091-0.02718-0.07869-0.05416-0.1383-0.05997-0.1324-0.0058 0.0059-0.0125 0.24-0.01486 0.5203l-0.0043 0.5096-0.03896 0.1122c-0.046 0.1325-0.1424 0.2826-0.2294 0.3572-0.0849 0.07283-0.2189 0.1412-0.3285 0.1677-0.1206 0.02913-0.33 0.02926-0.442 0.000278-0.2836-0.07344-0.4867-0.2818-0.5725-0.5871-0.02894-0.1031-0.02901-0.1066-0.037-1.791-0.0057-1.205-0.01248-1.714-0.02367-1.78-0.04826-0.2854-0.0577-0.295-0.09729-0.09928-0.01009 0.04992-0.01739 0.6222-0.0232 1.82l-0.0085 1.747-0.02922 0.1059c-0.08477 0.3072-0.2783 0.5139-0.5472 0.5844-0.1107 0.02903-0.3099 0.02903-0.4206 0-0.2451-0.06426-0.4326-0.247-0.5249-0.5119l-0.03913-0.1122-0.0083-1.675c-0.0081-1.636-0.01045-1.726-0.05207-1.976-0.01319-0.07914-0.0301-0.1159-0.04598-0.1-0.0029 0.0029-0.01556 0.06156-0.02817 0.1304-0.02071 0.113-0.02368 0.2924-0.03068 1.853-0.0086 1.926-0.001 1.778-0.1019 1.986-0.06437 0.1325-0.2163 0.2875-0.3369 0.3436-0.1587 0.07387-0.3588 0.1043-0.5209 0.07925zm0.2781-0.3372c0.1452-0.03734 0.2594-0.1435 0.3199-0.2974 0.02183-0.0555 0.02396-0.1756 0.03127-1.761 0.0084-1.831 0.0088-1.841 0.07967-2.105 0.06762-0.2524 0.214-0.3872 0.3807-0.3506 0.1728 0.03796 0.2898 0.3108 0.3322 0.7748 0.0088 0.09582 0.01395 0.7262 0.01404 1.701 0.000132 1.004 0.005 1.579 0.01387 1.635 0.01635 0.1025 0.07183 0.2276 0.1306 0.2946 0.02341 0.02666 0.07641 0.0651 0.1178 0.08542 0.06628 0.03255 0.09014 0.03693 0.201 0.03693 0.1111 0 0.1346-0.0044 0.2015-0.03721 0.08404-0.04127 0.153-0.1133 0.196-0.205 0.06583-0.14 0.06527-0.1244 0.06556-1.823 0.000278-1.633 0.0041-1.773 0.05421-2.022 0.05789-0.2876 0.1555-0.4305 0.31-0.4537 0.2424-0.03634 0.3849 0.2493 0.4298 0.8611 0.0081 0.1106 0.01369 0.7967 0.01383 1.701 0.000265 1.627-0.000636 1.603 0.06693 1.736 0.0955 0.1872 0.314 0.2824 0.5442 0.2371 0.2185-0.04299 0.3457-0.1898 0.3807-0.4394 0.01147-0.08185 0.01429-0.6722 0.01087-2.275-0.0046-2.144-0.0049-2.165-0.03244-2.283-0.1171-0.5014-0.4104-0.8676-0.7402-0.9241-0.1588-0.0272-0.3572 0.02938-0.545 0.1554-0.1171 0.07858-0.2846 0.2335-0.3741 0.3459-0.1023 0.1285-0.1755 0.1548-0.2655 0.09521-0.03406-0.02255-0.06368-0.06761-0.122-0.1856-0.133-0.2689-0.2661-0.3784-0.4752-0.3908-0.0562-0.0033-0.1307 0.000847-0.1655 0.0093-0.09531 0.02321-0.3139 0.1365-0.4406 0.2283-0.1587 0.1151-0.242 0.1567-0.3131 0.1567-0.09509 0-0.1304-0.02711-0.1903-0.1463-0.0665-0.1323-0.1275-0.2005-0.2193-0.2454-0.06549-0.03204-0.08222-0.03457-0.1941-0.02937-0.1411 0.0066-0.2149 0.03362-0.2989 0.1096-0.06274 0.05668-0.1266 0.1763-0.1471 0.2755-0.01 0.04839-0.01324 0.8327-0.01078 2.617l0.0035 2.548 0.02861 0.07563c0.09397 0.2484 0.3341 0.3649 0.6073 0.2946zm6.082 0.0065c0.3822-0.06031 0.7065-0.3148 0.8796-0.6904 0.08921-0.1935 0.1141-0.3547 0.07552-0.4886-0.04092-0.1419-0.1706-0.2505-0.2986-0.2499-0.08433 0.000357-0.1527 0.03171-0.2461 0.1128-0.1933 0.1678-0.3517 0.2301-0.5173 0.2034-0.2239-0.03606-0.3869-0.2037-0.4552-0.4683-0.04945-0.1915-0.05202-0.5144-0.0056-0.7044 0.02327-0.09527 0.08544-0.2262 0.1378-0.29 0.1009-0.1232 0.2034-0.1444 0.7874-0.1627 0.4008-0.0126 0.4248-0.01831 0.543-0.1288 0.1552-0.1452 0.2284-0.3777 0.2286-0.7265 0.000359-0.5859-0.1714-1.344-0.3972-1.754-0.1409-0.2555-0.3255-0.4517-0.5104-0.5422-0.1431-0.07006-0.2406-0.0934-0.3937-0.09433-0.1476-0.000912-0.222 0.01491-0.355 0.07541-0.5892 0.2681-1.051 1.218-1.174 2.414-0.02853 0.2778-0.02162 0.9473 0.01243 1.205 0.05199 0.3928 0.1268 0.7443 0.2079 0.9764 0.02224 0.06365 0.08057 0.1991 0.1296 0.3011 0.3614 0.7509 0.8218 1.096 1.351 1.012zm-0.3025-3.734c-0.185-0.03572-0.2892-0.1926-0.303-0.4564-0.01569-0.2994 0.07552-0.5131 0.2547-0.5967 0.142-0.06627 0.2966-0.01453 0.3951 0.1323 0.07871 0.1172 0.09471 0.1872 0.09434 0.4124-0.000288 0.1741-0.004 0.2077-0.02989 0.2724-0.07092 0.1772-0.2333 0.2704-0.4113 0.236zm0.1056-0.3384c0.01324-0.01599 0.01806-0.06532 0.01776-0.182-0.000407-0.1607-0.01405-0.2196-0.05089-0.2196-0.03364 0-0.04799 0.06717-0.04799 0.2247 0 0.1253 0.0042 0.1615 0.0208 0.1781 0.02637 0.02638 0.0377 0.02616 0.06031-0.0011zm3.881 4.398c-0.3284-0.06268-0.5962-0.2158-0.8694-0.4971-0.5477-0.5641-0.8652-1.513-0.9747-2.913-0.05706-0.7298-0.03753-1.766 0.04643-2.462 0.1437-1.192 0.484-2.053 1.003-2.536 0.6204-0.5774 1.445-0.5669 2.06 0.02643 0.209 0.2018 0.3494 0.3986 0.5017 0.7035 0.183 0.3663 0.319 0.8026 0.4139 1.328 0.02161 0.1196 0.04222 0.2204 0.04582 0.224 0.0082 0.0082 0.0059 0.01127 0.06448-0.08662 0.09565-0.1599 0.2437-0.2781 0.4209-0.3362 0.08298-0.02718 0.1228-0.03178 0.2757-0.03178s0.1927 0.0046 0.2757 0.03178c0.3071 0.1006 0.5042 0.3633 0.5422 0.7228 0.0071 0.06754 0.01379 0.8673 0.01535 1.847 0.0015 0.9501 0.0058 1.742 0.0095 1.761 0.01722 0.08389 0.03387 0.1191 0.05626 0.1191 0.06181 0 0.06022 0.04519 0.06761-1.933l0.0069-1.86 0.03036-0.09906c0.1179-0.3848 0.3991-0.5949 0.7975-0.5957 0.1354-0.000274 0.2787 0.03324 0.3966 0.09279 0.08052 0.04065 0.2242 0.1702 0.2858 0.2578l0.02796 0.03972 0.08123-0.08829c0.04468-0.04856 0.1196-0.1125 0.1664-0.1421l0.08521-0.05382 0.0044-0.7249c0.005-0.806 0.003-0.7869 0.09845-0.9831 0.06177-0.127 0.1998-0.2693 0.3201-0.33 0.1214-0.06127 0.2616-0.0936 0.4056-0.0936 0.3887 0 0.6741 0.2155 0.7894 0.5959 0.02922 0.09645 0.03014 0.1171 0.03475 0.7834l0.0048 0.6843 0.07536 0.02151c0.2946 0.08411 0.5011 0.2921 0.566 0.5698 0.02558 0.1096 0.02854 0.2995 0.0064 0.4095-0.02501 0.1242-0.109 0.2855-0.1981 0.3804-0.09454 0.1007-0.1964 0.1642-0.3379 0.2104l-0.1066 0.03482-0.0036 1.428c-0.0031 1.246-0.000977 1.441 0.01689 1.53 0.04958 0.2475 0.1471 0.3624 0.3507 0.4131 0.271 0.06746 0.4246 0.3364 0.4277 0.7488 0.000847 0.1104-0.0053 0.174-0.0225 0.2317-0.08081 0.2715-0.2845 0.4549-0.5971 0.5379-0.1535 0.04075-0.456 0.04127-0.6183 0.001-0.1757-0.04353-0.312-0.1011-0.4421-0.1868-0.3346-0.2204-0.5586-0.5704-0.6787-1.06-0.09017-0.3677-0.08609-0.2744-0.09093-2.082l-0.0044-1.638-0.05577-0.03486c-0.03068-0.01917-0.07727-0.05171-0.1036-0.07231-0.02629-0.0206-0.0516-0.03364-0.05626-0.02898-0.0047 0.0047-0.0085 0.9936-0.0085 2.198 0 2.461 0.0065 2.297-0.1001 2.515-0.1377 0.2822-0.3881 0.4307-0.7273 0.4314-0.2514 0.000523-0.4173-0.06688-0.5853-0.2377-0.05982-0.06083-0.1126-0.1106-0.1172-0.1106s-0.03759 0.02623-0.07325 0.05828c-0.2035 0.183-0.4182 0.2669-0.7209 0.2818-0.1954 0.0096-0.316-0.0134-0.4663-0.08902-0.3404-0.1713-0.5526-0.5702-0.6332-1.191-0.01397-0.1076-0.01949-0.2693-0.01882-0.5518 0.000582-0.2479-0.004-0.4026-0.01204-0.4076-0.0071-0.0044-0.01688 0.0086-0.02164 0.02892-0.1677 0.7155-0.3924 1.221-0.7151 1.607-0.2403 0.2881-0.5561 0.4965-0.8788 0.5799-0.1438 0.03718-0.4026 0.0476-0.5384 0.02169zm0.4473-0.3374c0.2353-0.06017 0.4235-0.1728 0.6205-0.3712 0.516-0.5198 0.8175-1.445 0.9131-2.8 0.03877-0.5503 0.02946-1.478-0.02033-2.025-0.1382-1.518-0.561-2.488-1.24-2.847-0.1583-0.08352-0.2684-0.1141-0.4407-0.1224-0.3407-0.01648-0.617 0.102-0.8999 0.386-0.5182 0.5201-0.8086 1.441-0.9086 2.88-0.02119 0.3051-0.02114 1.382 0.000132 1.681 0.08965 1.264 0.3229 2.101 0.7418 2.66 0.2087 0.2786 0.4952 0.4858 0.7694 0.5564 0.1343 0.03462 0.3337 0.03541 0.4649 0.0018zm-0.2885-1.458c-0.195-0.03901-0.2848-0.1572-0.3871-0.5097-0.2606-0.8979-0.2652-3.18-0.0084-4.195 0.0856-0.3383 0.1539-0.4631 0.2897-0.5296 0.1823-0.08918 0.3934-0.03189 0.4996 0.1356 0.1045 0.1648 0.2156 0.6546 0.2695 1.188 0.0729 0.7219 0.07847 1.774 0.01318 2.489-0.05084 0.5563-0.1554 1.032-0.2715 1.235-0.07785 0.1363-0.2534 0.2174-0.4049 0.1871zm0.09744-0.3409c0.06046-0.03845 0.1659-0.4506 0.2153-0.8414 0.05328-0.4219 0.06025-0.5863 0.06013-1.418-0.000133-0.8044-0.0061-0.9579-0.05333-1.377-0.03994-0.3538-0.1116-0.7017-0.1799-0.8737-0.02855-0.07185-0.03527-0.07942-0.07038-0.07942-0.03491 0-0.04192 0.0077-0.06955 0.07644-0.09364 0.233-0.1697 0.674-0.2187 1.267-0.02736 0.3317-0.02258 1.753 0.0069 2.065 0.04417 0.4671 0.1045 0.8056 0.1837 1.031 0.05089 0.145 0.07944 0.1789 0.1257 0.1495zm4.725 1.788c0.1363-0.05228 0.2217-0.149 0.2702-0.3061 0.02598-0.08413 0.0264-0.1254 0.02639-2.635-0.000003-2.3-0.0021-2.557-0.02123-2.622-0.04491-0.1538-0.1437-0.2664-0.2782-0.317-0.06692-0.02517-0.09863-0.02879-0.2173-0.02484-0.1194 0.004-0.1495 0.0098-0.2139 0.04132-0.08197 0.04013-0.1538 0.1111-0.1959 0.1937-0.06785 0.133-0.0663 0.08566-0.06651 2.022-0.000132 1.268-0.0046 1.824-0.01487 1.873-0.03436 0.1642-0.1499 0.3042-0.2814 0.341-0.2275 0.0637-0.4414-0.09755-0.4854-0.3659-0.0075-0.04606-0.01274-0.7906-0.01293-1.851-0.00032-1.922 0.0014-1.873-0.07208-2.018-0.04382-0.08647-0.1158-0.1587-0.1997-0.2002-0.05914-0.02932-0.08198-0.03254-0.2311-0.03254-0.1549 0-0.1699 0.0023-0.2345 0.0364-0.08809 0.04644-0.1535 0.1121-0.1967 0.1973-0.07366 0.1454-0.07131 0.06833-0.07154 2.341-0.000133 1.316 0.0048 2.152 0.01322 2.244 0.05187 0.5623 0.2244 0.9404 0.4847 1.062 0.07268 0.03404 0.08911 0.03637 0.2564 0.03637 0.1479 0 0.1947-0.0051 0.2714-0.02936 0.1464-0.04639 0.2499-0.1157 0.4153-0.2782 0.1699-0.1669 0.2026-0.1828 0.289-0.1406 0.05137 0.0251 0.06426 0.04461 0.1298 0.1966 0.03552 0.08232 0.1024 0.1619 0.173 0.2057 0.1099 0.06828 0.3266 0.08195 0.464 0.02926zm2.653-0.01477c0.2402-0.07662 0.3424-0.2284 0.3265-0.4845-0.0095-0.1521-0.04857-0.2792-0.103-0.3349-0.03611-0.03694-0.1069-0.06902-0.1528-0.06925-0.0081 0-0.05657-0.02098-0.1077-0.04655-0.1789-0.08948-0.3366-0.2971-0.3922-0.5161-0.04452-0.1754-0.04796-0.2996-0.04796-1.728 0-1.234 0.0027-1.434 0.02022-1.503 0.03554-0.1387 0.08816-0.186 0.226-0.2032 0.1199-0.01497 0.2086-0.05429 0.2811-0.1246 0.1978-0.1918 0.1935-0.5604-0.0086-0.7383-0.07039-0.06196-0.1706-0.1015-0.3187-0.1258-0.1102-0.01807-0.1465-0.03671-0.178-0.09154-0.01091-0.01895-0.01723-0.2497-0.02194-0.801-0.0066-0.7682-0.0069-0.775-0.03683-0.8491-0.08546-0.2114-0.2336-0.3072-0.4728-0.3057-0.2424 0.0015-0.4223 0.1482-0.4694 0.3827-0.007 0.03512-0.01486 0.4034-0.01738 0.8184-0.0054 0.8884 0.0079 0.8142-0.1591 0.8918-0.1273 0.05913-0.2161 0.145-0.2554 0.247-0.03804 0.09864-0.03623 0.3336 0.0032 0.4189 0.04206 0.09102 0.1286 0.1777 0.2218 0.2222 0.09285 0.04431 0.129 0.0783 0.1627 0.153 0.02237 0.04961 0.02425 0.1542 0.0314 1.747 0.0082 1.834 0.0042 1.73 0.07961 2.025 0.06168 0.2408 0.1732 0.4928 0.2821 0.6377 0.1621 0.2156 0.3831 0.3579 0.6235 0.4015 0.1139 0.02065 0.3853 0.0069 0.4837-0.02447z"/>
 <path d="m5.943 20.53c-0.164-0.02-0.311-0.09-0.426-0.19-0.087-0.07-0.183-0.22-0.229-0.35l-0.03915-0.1122-0.00785-2.853c-0.0058-2.11-0.01191-2.873-0.02347-2.932-0.00859-0.04368-0.03356-0.1163-0.0555-0.1614-0.058-0.12-0.132-0.17-0.369-0.26-0.372-0.15-0.582-0.3-0.686-0.51l-0.05004-0.1012-0.00423-0.4595c-0.00482-0.5262 0.00528-0.6251 0.07902-0.7753 0.05657-0.1152 0.1663-0.2261 0.2777-0.2808 0.1674-0.08222 0.1319-0.08049 1.661-0.08074 1.343-0.000223 1.395 0.000677 1.494 0.02596 0.2385 0.06099 0.3937 0.2034 0.4736 0.4346 0.03002 0.08687 0.0306 0.09883 0.0306 0.6247 0 0.5302-0.0003197 0.5368-0.0302 0.6016-0.09599 0.2082-0.2981 0.3599-0.6714 0.504-0.3188 0.123-0.3809 0.1757-0.4399 0.3726-0.0216 0.07211-0.02358 0.2656-0.02999 2.937l-0.00688 2.859-0.02932 0.1033c-0.08513 0.2998-0.2902 0.5126-0.5623 0.5835-0.0963 0.02508-0.2622 0.03544-0.3547 0.02216zm0.343-0.36c0.1203-0.05397 0.1911-0.1369 0.2486-0.291 0.02372-0.06361 0.02496-0.1771 0.0318-2.912l0.00712-2.846 0.02892-0.1258c0.0768-0.334 0.221-0.4782 0.6395-0.6397 0.2616-0.1009 0.3942-0.1833 0.465-0.2888l0.03704-0.05515v-0.4656c0-0.5312-0.00346-0.5539-0.09893-0.6494-0.1049-0.1049-0.01028-0.09894-1.575-0.09886-0.8694 0.000039-1.408 0.0049-1.438 0.01307-0.08624 0.02396-0.1625 0.08353-0.2047 0.1599l-0.03972 0.07184-0.00417 0.4567c-0.0028 0.3087 0.0005809 0.4729 0.01056 0.5067 0.03384 0.1147 0.2284 0.2504 0.5168 0.3605 0.4253 0.1623 0.5682 0.3278 0.6283 0.728 0.01719 0.1144 0.01991 0.5025 0.02006 2.866 0.0001322 1.822 0.00475 2.762 0.0139 2.82 0.01556 0.09756 0.07016 0.2241 0.1244 0.2882 0.1199 0.1418 0.3935 0.1893 0.5879 0.1021zm1.537 0.36c-0.018 0-0.069-0.01-0.112-0.01-0.044-0.01-0.129-0.04-0.188-0.07-0.194-0.09-0.328-0.26-0.404-0.5l-0.031-0.09928v-2.621-2.621l0.03606-0.1059c0.1224-0.3595 0.4056-0.5626 0.7847-0.5626 0.3918 0 0.6792 0.2192 0.7902 0.6029l0.03049 0.1053v2.588c0 2.474-0.00107 2.592-0.02443 2.681-0.07984 0.3028-0.2908 0.524-0.5669 0.5944-0.08072 0.02059-0.2615 0.03578-0.3155 0.02651zm0.2812-0.3563c0.1295-0.0456 0.2378-0.1789 0.2815-0.3466 0.02969-0.114 0.02945-5.064-0.0002514-5.19-0.03789-0.1607-0.1172-0.2686-0.2426-0.33-0.06438-0.03152-0.0945-0.03734-0.2139-0.04132-0.1173-0.0039-0.1508-0.000208-0.2145 0.02377-0.1395 0.05249-0.251 0.1866-0.2878 0.3462-0.00877 0.03802-0.0135 0.9357-0.01371 2.602-0.0003197 2.496 0.000159 2.545 0.02584 2.628 0.07264 0.2352 0.2416 0.3495 0.4967 0.3361 0.05825-0.0031 0.1342-0.01551 0.1687-0.02767zm1.513 0.3502c-0.1921-0.0297-0.3445-0.1093-0.4703-0.2457-0.08871-0.09613-0.1475-0.2034-0.1879-0.3431l-0.03052-0.1054v-2.595c0-2.801-0.00399-2.638 0.06908-2.818 0.122-0.3001 0.4034-0.4852 0.7378-0.4852 0.2381 0 0.4283 0.09296 0.5739 0.2805 0.03287 0.04233 0.06571 0.07696 0.07298 0.07696 0.0073 0 0.06927-0.03632 0.1378-0.0807 0.1602-0.1038 0.3443-0.1907 0.4743-0.224 0.3438-0.08793 0.6811 0.04433 0.9018 0.3537 0.03272 0.04585 0.06248 0.08336 0.06614 0.08336 0.0037 0 0.05228-0.04219 0.108-0.09376 0.3895-0.3602 0.839-0.477 1.215-0.3159 0.2389 0.1024 0.4751 0.3472 0.6284 0.6511 0.131 0.2598 0.1824 0.4676 0.1933 0.7815 0.0042 0.1221 0.01232 0.2249 0.01798 0.2284 0.0057 0.0035 0.02644-0.04284 0.04619-0.1029 0.1922-0.5851 0.4053-0.9738 0.693-1.264 0.2849-0.2877 0.5894-0.4271 0.9322-0.4266 0.2323 0.000299 0.4388 0.05685 0.6376 0.1746 0.1233 0.07304 0.3509 0.3009 0.4479 0.4485 0.3321 0.5051 0.5439 1.318 0.5445 2.09 0.000252 0.3161-0.01314 0.4101-0.08673 0.6089-0.07631 0.2061-0.2456 0.4079-0.4097 0.4881-0.1547 0.07564-0.1981 0.08224-0.6216 0.09447-0.4099 0.01183-0.493 0.0216-0.5237 0.06157-0.03555 0.04626-0.07336 0.1969-0.08114 0.3232-0.01905 0.3096 0.07248 0.5623 0.2133 0.5887 0.05911 0.01109 0.1406-0.03233 0.2814-0.1499 0.05695-0.04754 0.1423-0.1049 0.1896-0.1275 0.08077-0.03852 0.09537-0.04104 0.2383-0.04104 0.148 0 0.155 0.0014 0.254 0.04862 0.1876 0.0896 0.3218 0.2587 0.3761 0.474 0.0322 0.1277 0.02009 0.3426-0.02763 0.49-0.07465 0.2307-0.2022 0.4443-0.3706 0.621-0.2954 0.3098-0.636 0.4573-1.053 0.4558-0.5165-0.0018-0.9695-0.3225-1.34-0.9482-0.1104-0.1865-0.2127-0.4072-0.2824-0.6091-0.02718-0.07869-0.05416-0.1383-0.05997-0.1324-0.0058 0.0059-0.0125 0.24-0.01486 0.5203l-0.0043 0.5096-0.03896 0.1122c-0.046 0.1325-0.1424 0.2826-0.2294 0.3572-0.0849 0.07283-0.2189 0.1412-0.3285 0.1677-0.1206 0.02913-0.33 0.02926-0.442 0.000278-0.2836-0.07344-0.4867-0.2818-0.5725-0.5871-0.02894-0.1031-0.02901-0.1066-0.037-1.791-0.0057-1.205-0.01248-1.714-0.02367-1.78-0.04826-0.2854-0.0577-0.295-0.09729-0.09928-0.01009 0.04992-0.01739 0.6222-0.0232 1.82l-0.0085 1.747-0.02922 0.1059c-0.08477 0.3072-0.2783 0.5139-0.5472 0.5844-0.1107 0.02903-0.3099 0.02903-0.4206 0-0.2451-0.06426-0.4326-0.247-0.5249-0.5119l-0.03913-0.1122-0.0083-1.675c-0.0081-1.636-0.01045-1.726-0.05207-1.976-0.01319-0.07914-0.0301-0.1159-0.04598-0.1-0.0029 0.0029-0.01556 0.06156-0.02817 0.1304-0.02071 0.113-0.02368 0.2924-0.03068 1.853-0.0086 1.926-0.001 1.778-0.1019 1.986-0.06437 0.1325-0.2163 0.2875-0.3369 0.3436-0.1587 0.07387-0.3588 0.1043-0.5209 0.07925zm0.2781-0.3372c0.1452-0.03734 0.2594-0.1435 0.3199-0.2974 0.02183-0.0555 0.02396-0.1756 0.03127-1.761 0.0084-1.831 0.0088-1.841 0.07967-2.105 0.06762-0.2524 0.214-0.3872 0.3807-0.3506 0.1728 0.03796 0.2898 0.3108 0.3322 0.7748 0.0088 0.09582 0.01395 0.7262 0.01404 1.701 0.000132 1.004 0.005 1.579 0.01387 1.635 0.01635 0.1025 0.07183 0.2276 0.1306 0.2946 0.02341 0.02666 0.07641 0.0651 0.1178 0.08542 0.06628 0.03255 0.09014 0.03693 0.201 0.03693 0.1111 0 0.1346-0.0044 0.2015-0.03721 0.08404-0.04127 0.153-0.1133 0.196-0.205 0.06583-0.14 0.06527-0.1244 0.06556-1.823 0.000278-1.633 0.0041-1.773 0.05421-2.022 0.05789-0.2876 0.1555-0.4305 0.31-0.4537 0.2424-0.03634 0.3849 0.2493 0.4298 0.8611 0.0081 0.1106 0.01369 0.7967 0.01383 1.701 0.000265 1.627-0.000636 1.603 0.06693 1.736 0.0955 0.1872 0.314 0.2824 0.5442 0.2371 0.2185-0.04299 0.3457-0.1898 0.3807-0.4394 0.01147-0.08185 0.01429-0.6722 0.01087-2.275-0.0046-2.144-0.0049-2.165-0.03244-2.283-0.1171-0.5014-0.4104-0.8676-0.7402-0.9241-0.1588-0.0272-0.3572 0.02938-0.545 0.1554-0.1171 0.07858-0.2846 0.2335-0.3741 0.3459-0.1023 0.1285-0.1755 0.1548-0.2655 0.09521-0.03406-0.02255-0.06368-0.06761-0.122-0.1856-0.133-0.2689-0.2661-0.3784-0.4752-0.3908-0.0562-0.0033-0.1307 0.000847-0.1655 0.0093-0.09531 0.02321-0.3139 0.1365-0.4406 0.2283-0.1587 0.1151-0.242 0.1567-0.3131 0.1567-0.09509 0-0.1304-0.02711-0.1903-0.1463-0.0665-0.1323-0.1275-0.2005-0.2193-0.2454-0.06549-0.03204-0.08222-0.03457-0.1941-0.02937-0.1411 0.0066-0.2149 0.03362-0.2989 0.1096-0.06274 0.05668-0.1266 0.1763-0.1471 0.2755-0.01 0.04839-0.01324 0.8327-0.01078 2.617l0.0035 2.548 0.02861 0.07563c0.09397 0.2484 0.3341 0.3649 0.6073 0.2946zm6.082 0.0065c0.3822-0.06031 0.7065-0.3148 0.8796-0.6904 0.08921-0.1935 0.1141-0.3547 0.07552-0.4886-0.04092-0.1419-0.1706-0.2505-0.2986-0.2499-0.08433 0.000357-0.1527 0.03171-0.2461 0.1128-0.1933 0.1678-0.3517 0.2301-0.5173 0.2034-0.2239-0.03606-0.3869-0.2037-0.4552-0.4683-0.04945-0.1915-0.05202-0.5144-0.0056-0.7044 0.02327-0.09527 0.08544-0.2262 0.1378-0.29 0.1009-0.1232 0.2034-0.1444 0.7874-0.1627 0.4008-0.0126 0.4248-0.01831 0.543-0.1288 0.1552-0.1452 0.2284-0.3777 0.2286-0.7265 0.000359-0.5859-0.1714-1.344-0.3972-1.754-0.1409-0.2555-0.3255-0.4517-0.5104-0.5422-0.1431-0.07006-0.2406-0.0934-0.3937-0.09433-0.1476-0.000912-0.222 0.01491-0.355 0.07541-0.5892 0.2681-1.051 1.218-1.174 2.414-0.02853 0.2778-0.02162 0.9473 0.01243 1.205 0.05199 0.3928 0.1268 0.7443 0.2079 0.9764 0.02224 0.06365 0.08057 0.1991 0.1296 0.3011 0.3614 0.7509 0.8218 1.096 1.351 1.012zm-0.3025-3.734c-0.185-0.03572-0.2892-0.1926-0.303-0.4564-0.01569-0.2994 0.07552-0.5131 0.2547-0.5967 0.142-0.06627 0.2966-0.01453 0.3951 0.1323 0.07871 0.1172 0.09471 0.1872 0.09434 0.4124-0.000288 0.1741-0.004 0.2077-0.02989 0.2724-0.07092 0.1772-0.2333 0.2704-0.4113 0.236zm0.1056-0.3384c0.01324-0.01599 0.01806-0.06532 0.01776-0.182-0.000407-0.1607-0.01405-0.2196-0.05089-0.2196-0.03364 0-0.04799 0.06717-0.04799 0.2247 0 0.1253 0.0042 0.1615 0.0208 0.1781 0.02637 0.02638 0.0377 0.02616 0.06031-0.0011zm3.881 4.398c-0.3284-0.06268-0.5962-0.2158-0.8694-0.4971-0.5477-0.5641-0.8652-1.513-0.9747-2.913-0.05706-0.7298-0.03753-1.766 0.04643-2.462 0.1437-1.192 0.484-2.053 1.003-2.536 0.6204-0.5774 1.445-0.5669 2.06 0.02643 0.209 0.2018 0.3494 0.3986 0.5017 0.7035 0.183 0.3663 0.319 0.8026 0.4139 1.328 0.02161 0.1196 0.04222 0.2204 0.04582 0.224 0.0082 0.0082 0.0059 0.01127 0.06448-0.08662 0.09565-0.1599 0.2437-0.2781 0.4209-0.3362 0.08298-0.02718 0.1228-0.03178 0.2757-0.03178s0.1927 0.0046 0.2757 0.03178c0.3071 0.1006 0.5042 0.3633 0.5422 0.7228 0.0071 0.06754 0.01379 0.8673 0.01535 1.847 0.0015 0.9501 0.0058 1.742 0.0095 1.761 0.01722 0.08389 0.03387 0.1191 0.05626 0.1191 0.06181 0 0.06022 0.04519 0.06761-1.933l0.0069-1.86 0.03036-0.09906c0.1179-0.3848 0.3991-0.5949 0.7975-0.5957 0.1354-0.000274 0.2787 0.03324 0.3966 0.09279 0.08052 0.04065 0.2242 0.1702 0.2858 0.2578l0.02796 0.03972 0.08123-0.08829c0.04468-0.04856 0.1196-0.1125 0.1664-0.1421l0.08521-0.05382 0.0044-0.7249c0.005-0.806 0.003-0.7869 0.09845-0.9831 0.06177-0.127 0.1998-0.2693 0.3201-0.33 0.1214-0.06127 0.2616-0.0936 0.4056-0.0936 0.3887 0 0.6741 0.2155 0.7894 0.5959 0.02922 0.09645 0.03014 0.1171 0.03475 0.7834l0.0048 0.6843 0.07536 0.02151c0.2946 0.08411 0.5011 0.2921 0.566 0.5698 0.02558 0.1096 0.02854 0.2995 0.0064 0.4095-0.02501 0.1242-0.109 0.2855-0.1981 0.3804-0.09454 0.1007-0.1964 0.1642-0.3379 0.2104l-0.1066 0.03482-0.0036 1.428c-0.0031 1.246-0.000977 1.441 0.01689 1.53 0.04958 0.2475 0.1471 0.3624 0.3507 0.4131 0.271 0.06746 0.4246 0.3364 0.4277 0.7488 0.000847 0.1104-0.0053 0.174-0.0225 0.2317-0.08081 0.2715-0.2845 0.4549-0.5971 0.5379-0.1535 0.04075-0.456 0.04127-0.6183 0.001-0.1757-0.04353-0.312-0.1011-0.4421-0.1868-0.3346-0.2204-0.5586-0.5704-0.6787-1.06-0.09017-0.3677-0.08609-0.2744-0.09093-2.082l-0.0044-1.638-0.05577-0.03486c-0.03068-0.01917-0.07727-0.05171-0.1036-0.07231-0.02629-0.0206-0.0516-0.03364-0.05626-0.02898-0.0047 0.0047-0.0085 0.9936-0.0085 2.198 0 2.461 0.0065 2.297-0.1001 2.515-0.1377 0.2822-0.3881 0.4307-0.7273 0.4314-0.2514 0.000523-0.4173-0.06688-0.5853-0.2377-0.05982-0.06083-0.1126-0.1106-0.1172-0.1106s-0.03759 0.02623-0.07325 0.05828c-0.2035 0.183-0.4182 0.2669-0.7209 0.2818-0.1954 0.0096-0.316-0.0134-0.4663-0.08902-0.3404-0.1713-0.5526-0.5702-0.6332-1.191-0.01397-0.1076-0.01949-0.2693-0.01882-0.5518 0.000582-0.2479-0.004-0.4026-0.01204-0.4076-0.0071-0.0044-0.01688 0.0086-0.02164 0.02892-0.1677 0.7155-0.3924 1.221-0.7151 1.607-0.2403 0.2881-0.5561 0.4965-0.8788 0.5799-0.1438 0.03718-0.4026 0.0476-0.5384 0.02169zm0.4473-0.3374c0.2353-0.06017 0.4235-0.1728 0.6205-0.3712 0.516-0.5198 0.8175-1.445 0.9131-2.8 0.03877-0.5503 0.02946-1.478-0.02033-2.025-0.1382-1.518-0.561-2.488-1.24-2.847-0.1583-0.08352-0.2684-0.1141-0.4407-0.1224-0.3407-0.01648-0.617 0.102-0.8999 0.386-0.5182 0.5201-0.8086 1.441-0.9086 2.88-0.02119 0.3051-0.02114 1.382 0.000132 1.681 0.08965 1.264 0.3229 2.101 0.7418 2.66 0.2087 0.2786 0.4952 0.4858 0.7694 0.5564 0.1343 0.03462 0.3337 0.03541 0.4649 0.0018zm-0.2885-1.458c-0.195-0.03901-0.2848-0.1572-0.3871-0.5097-0.2606-0.8979-0.2652-3.18-0.0084-4.195 0.0856-0.3383 0.1539-0.4631 0.2897-0.5296 0.1823-0.08918 0.3934-0.03189 0.4996 0.1356 0.1045 0.1648 0.2156 0.6546 0.2695 1.188 0.0729 0.7219 0.07847 1.774 0.01318 2.489-0.05084 0.5563-0.1554 1.032-0.2715 1.235-0.07785 0.1363-0.2534 0.2174-0.4049 0.1871zm0.09744-0.3409c0.06046-0.03845 0.1659-0.4506 0.2153-0.8414 0.05328-0.4219 0.06025-0.5863 0.06013-1.418-0.000133-0.8044-0.0061-0.9579-0.05333-1.377-0.03994-0.3538-0.1116-0.7017-0.1799-0.8737-0.02855-0.07185-0.03527-0.07942-0.07038-0.07942-0.03491 0-0.04192 0.0077-0.06955 0.07644-0.09364 0.233-0.1697 0.674-0.2187 1.267-0.02736 0.3317-0.02258 1.753 0.0069 2.065 0.04417 0.4671 0.1045 0.8056 0.1837 1.031 0.05089 0.145 0.07944 0.1789 0.1257 0.1495zm4.725 1.788c0.1363-0.05228 0.2217-0.149 0.2702-0.3061 0.02598-0.08413 0.0264-0.1254 0.02639-2.635-0.000003-2.3-0.0021-2.557-0.02123-2.622-0.04491-0.1538-0.1437-0.2664-0.2782-0.317-0.06692-0.02517-0.09863-0.02879-0.2173-0.02484-0.1194 0.004-0.1495 0.0098-0.2139 0.04132-0.08197 0.04013-0.1538 0.1111-0.1959 0.1937-0.06785 0.133-0.0663 0.08566-0.06651 2.022-0.000132 1.268-0.0046 1.824-0.01487 1.873-0.03436 0.1642-0.1499 0.3042-0.2814 0.341-0.2275 0.0637-0.4414-0.09755-0.4854-0.3659-0.0075-0.04606-0.01274-0.7906-0.01293-1.851-0.00032-1.922 0.0014-1.873-0.07208-2.018-0.04382-0.08647-0.1158-0.1587-0.1997-0.2002-0.05914-0.02932-0.08198-0.03254-0.2311-0.03254-0.1549 0-0.1699 0.0023-0.2345 0.0364-0.08809 0.04644-0.1535 0.1121-0.1967 0.1973-0.07366 0.1454-0.07131 0.06833-0.07154 2.341-0.000133 1.316 0.0048 2.152 0.01322 2.244 0.05187 0.5623 0.2244 0.9404 0.4847 1.062 0.07268 0.03404 0.08911 0.03637 0.2564 0.03637 0.1479 0 0.1947-0.0051 0.2714-0.02936 0.1464-0.04639 0.2499-0.1157 0.4153-0.2782 0.1699-0.1669 0.2026-0.1828 0.289-0.1406 0.05137 0.0251 0.06426 0.04461 0.1298 0.1966 0.03552 0.08232 0.1024 0.1619 0.173 0.2057 0.1099 0.06828 0.3266 0.08195 0.464 0.02926zm2.653-0.01477c0.2402-0.07662 0.3424-0.2284 0.3265-0.4845-0.0095-0.1521-0.04857-0.2792-0.103-0.3349-0.03611-0.03694-0.1069-0.06902-0.1528-0.06925-0.0081 0-0.05657-0.02098-0.1077-0.04655-0.1789-0.08948-0.3366-0.2971-0.3922-0.5161-0.04452-0.1754-0.04796-0.2996-0.04796-1.728 0-1.234 0.0027-1.434 0.02022-1.503 0.03554-0.1387 0.08816-0.186 0.226-0.2032 0.1199-0.01497 0.2086-0.05429 0.2811-0.1246 0.1978-0.1918 0.1935-0.5604-0.0086-0.7383-0.07039-0.06196-0.1706-0.1015-0.3187-0.1258-0.1102-0.01807-0.1465-0.03671-0.178-0.09154-0.01091-0.01895-0.01723-0.2497-0.02194-0.801-0.0066-0.7682-0.0069-0.775-0.03683-0.8491-0.08546-0.2114-0.2336-0.3072-0.4728-0.3057-0.2424 0.0015-0.4223 0.1482-0.4694 0.3827-0.007 0.03512-0.01486 0.4034-0.01738 0.8184-0.0054 0.8884 0.0079 0.8142-0.1591 0.8918-0.1273 0.05913-0.2161 0.145-0.2554 0.247-0.03804 0.09864-0.03623 0.3336 0.0032 0.4189 0.04206 0.09102 0.1286 0.1777 0.2218 0.2222 0.09285 0.04431 0.129 0.0783 0.1627 0.153 0.02237 0.04961 0.02425 0.1542 0.0314 1.747 0.0082 1.834 0.0042 1.73 0.07961 2.025 0.06168 0.2408 0.1732 0.4928 0.2821 0.6377 0.1621 0.2156 0.3831 0.3579 0.6235 0.4015 0.1139 0.02065 0.3853 0.0069 0.4837-0.02447z" style="fill:#0a0a0a"/>
</svg>
