<?xml version="1.0" encoding="UTF-8" standalone="no"?>
<svg xmlns:rdf="http://www.w3.org/1999/02/22-rdf-syntax-ns#" xmlns="http://www.w3.org/2000/svg" height="32" width="32" version="1.0" xmlns:cc="http://creativecommons.org/ns#" xmlns:dc="http://purl.org/dc/elements/1.1/">
 <path style="fill:#fff" d="m0 0v32h32v-32z"/>
 <g style="opacity:.1" transform="matrix(.3099 0 0 .3099 7.31 15.8)">
  <path d="m6.159-4.352-7.91 10.64 8.32 11.23h-4.238l-6.367-8.594-6.367 8.594h-4.238l8.496-11.45-7.773-10.43h4.238l5.801 7.793 5.801-7.793h4.238z" style=""/>
  <path d="m11.51-12.87h3.613v17.95l10.72-9.434h4.59l-11.6 10.23 12.09 11.64h-4.688l-11.11-10.68v10.68h-3.613v-30.39z" style=""/>
  <path d="m50.59-3.513v3.359q-1.523-0.8398-3.066-1.25-1.523-0.4297-3.086-0.4297-3.496 0-5.43 2.227-1.934 2.207-1.934 6.211t1.934 6.23q1.934 2.207 5.43 2.207 1.562 0 3.086-0.4102 1.543-0.4297 3.066-1.27v3.32q-1.504 0.7031-3.125 1.055-1.602 0.3516-3.418 0.3516-4.941 0-7.852-3.105-2.91-3.105-2.91-8.379 0-5.352 2.93-8.418 2.949-3.066 8.066-3.066 1.66 0 3.242 0.3516 1.582 0.332 3.066 1.016z" style=""/>
  <path d="m71.28-1.032v-11.84h3.594v30.39h-3.594v-3.281q-1.133 1.953-2.871 2.91-1.719 0.9375-4.141 0.9375-3.965 0-6.465-3.164-2.48-3.164-2.48-8.32t2.48-8.32q2.5-3.164 6.465-3.164 2.422 0 4.141 0.957 1.738 0.9375 2.871 2.891zm-12.25 7.637q0 3.965 1.621 6.23 1.641 2.246 4.492 2.246 2.852 0 4.492-2.246 1.641-2.266 1.641-6.23 0-3.965-1.641-6.211-1.641-2.266-4.492-2.266-2.852 0-4.492 2.266-1.621 2.246-1.621 6.211z" style=""/>
 </g>
 <g transform="matrix(.3099 0 0 .3099 6.666 15.19)">
  <path d="m6.159-4.352-7.91 10.64 8.32 11.23h-4.238l-6.367-8.594-6.367 8.594h-4.238l8.496-11.45-7.773-10.43h4.238l5.801 7.793 5.801-7.793h4.238z"/>
  <path d="m11.51-12.87h3.613v17.95l10.72-9.434h4.59l-11.6 10.23 12.09 11.64h-4.688l-11.11-10.68v10.68h-3.613v-30.39z"/>
  <path d="m50.59-3.513v3.359q-1.523-0.8398-3.066-1.25-1.523-0.4297-3.086-0.4297-3.496 0-5.43 2.227-1.934 2.207-1.934 6.211t1.934 6.23q1.934 2.207 5.43 2.207 1.562 0 3.086-0.4102 1.543-0.4297 3.066-1.27v3.32q-1.504 0.7031-3.125 1.055-1.602 0.3516-3.418 0.3516-4.941 0-7.852-3.105-2.91-3.105-2.91-8.379 0-5.352 2.93-8.418 2.949-3.066 8.066-3.066 1.66 0 3.242 0.3516 1.582 0.332 3.066 1.016z"/>
  <path d="m71.28-1.032v-11.84h3.594v30.39h-3.594v-3.281q-1.133 1.953-2.871 2.91-1.719 0.9375-4.141 0.9375-3.965 0-6.465-3.164-2.48-3.164-2.48-8.32t2.48-8.32q2.5-3.164 6.465-3.164 2.422 0 4.141 0.957 1.738 0.9375 2.871 2.891zm-12.25 7.637q0 3.965 1.621 6.23 1.641 2.246 4.492 2.246 2.852 0 4.492-2.246 1.641-2.266 1.641-6.23 0-3.965-1.641-6.211-1.641-2.266-4.492-2.266-2.852 0-4.492 2.266-1.621 2.246-1.621 6.211z"/>
 </g>
</svg>
