<?xml version="1.0" encoding="UTF-8" standalone="no"?>
<svg
   xmlns:dc="http://purl.org/dc/elements/1.1/"
   xmlns:cc="http://creativecommons.org/ns#"
   xmlns:rdf="http://www.w3.org/1999/02/22-rdf-syntax-ns#"
   xmlns:svg="http://www.w3.org/2000/svg"
   xmlns="http://www.w3.org/2000/svg"
   id="svg7649"
   version="1.0"
   width="32"
   height="32">
  <metadata
     id="metadata7661">
    <rdf:RDF>
      <cc:Work
         rdf:about="">
        <dc:format>image/svg+xml</dc:format>
        <dc:type
           rdf:resource="http://purl.org/dc/dcmitype/StillImage" />
        <dc:title></dc:title>
      </cc:Work>
    </rdf:RDF>
  </metadata>
  <defs
     id="defs7659">
    <linearGradient
       gradientTransform="matrix(0,-1,1,0,-1.5e-6,47.999998)"
       gradientUnits="userSpaceOnUse"
       x2="47"
       x1="1"
       id="linearGradient3764">
      <stop
         id="stop7"
         style="stop-color:#344e8e;stop-opacity:1" />
      <stop
         id="stop9"
         style="stop-color:#3a569c;stop-opacity:1"
         offset="1" />
    </linearGradient>
  </defs>
  <path
     id="path7651"
     style="color:#000000;fill:#375295;fill-opacity:1"
     d="M 0,0 0,32 32,32 32,0 Z" />
  <g
     transform="matrix(0.88660944,0,0,0.88660944,-5.7210447,-5.7219313)"
     id="g7692">
    <g
       transform="matrix(0.9,0,0,0.9,2.4499,2.45)"
       id="g23">
      <g
         id="g25">
        <g
           id="g27"
           transform="translate(1,1)">
          <g
             id="g29"
             style="opacity:0.1">
            <!-- color: #3a569c -->
            <g
               id="g31">
              <path
                 id="path33"
                 style="fill:#000000;fill-opacity:1;fill-rule:nonzero;stroke:none"
                 d="m 17,19 3,0 0,-2 c 0,-1.559 0.223,-2.633 0.586,-3.402 0.379,-0.766 1.059,-1.387 2.047,-1.867 1,-0.484 2.262,-0.73 3.785,-0.73 1.559,0 3.195,0.402 4.582,1 l -1,3 c -0.871,-0.188 -1.453,-0.234 -2.258,-0.234 -0.793,0 -1.363,0.168 -1.715,0.508 C 25.687,15.599 25,16.06 25,17.005 l 0,2 5,0 0,3 -5,0 0,15 -4.961,0 -0.039,-15 -3,0" />
            </g>
          </g>
        </g>
      </g>
    </g>
    <g
       transform="matrix(0.9,0,0,0.9,2.4499,2.45)"
       id="g35">
      <g
         id="g37">
        <!-- color: #3a569c -->
        <g
           id="g39">
          <path
             id="path41"
             style="fill:#f9f9f9;fill-opacity:1;fill-rule:nonzero;stroke:none"
             d="m 17,19 3,0 0,-2 c 0,-1.559 0.223,-2.633 0.586,-3.402 0.379,-0.766 1.059,-1.387 2.047,-1.867 1,-0.484 2.262,-0.73 3.785,-0.73 1.559,0 3.195,0.402 4.582,1 l -1,3 c -0.871,-0.188 -1.453,-0.234 -2.258,-0.234 -0.793,0 -1.363,0.168 -1.715,0.508 C 25.687,15.599 25,16.06 25,17.005 l 0,2 5,0 0,3 -5,0 0,15 -4.961,0 -0.039,-15 -3,0" />
        </g>
      </g>
    </g>
    <g
       transform="matrix(0.9,0,0,0.9,2.4499,2.45)"
       id="g43" />
  </g>
</svg>
