<?xml version="1.0" encoding="UTF-8" standalone="no"?>
<svg xmlns="http://www.w3.org/2000/svg" xmlns:osb="http://www.openswatchbook.org/uri/2009/osb" height="32" width="32" version="1.0" xmlns:xlink="http://www.w3.org/1999/xlink">
 <g transform="matrix(.1138 0 0 .1138 -64.82 -29.38)">
  <path style="fill:#7f5b35" d="m569.4 258.1h281.1v281.1h-281.1z"/>
  <path d="m838.2 350.1s-34.39 1.849-55.84 27.36-45.48 113.9-128.7 94.29c-72.8-17.15-55.1-77.28-42.15-92.81 12.94-15.53 41.61-13.84 55.65 1.294 17.43 18.78-2.737 52.01-25.14 36.79-17.56-11.93-2.404-23.67-2.404-23.67s-15.9 7.396-5.547 22.19 45.76 11.06 61.11-0.3698c25.7-19.14 34.67-29.58 34.67-29.58s-40.71-0.3983-28.28-34.82c5.188-14.36 29.41-14.69 31.24 4.131 0 0-2.034 13.5-11.28 7.211-8.616-5.859-1.387 10.26 20.52 6.841 16.81-2.624 11.09-7.396 36.98-11.83 25.88-4.437 59.16-7.026 59.16-7.026z" style="opacity:.1;fill-rule:evenodd"/>
  <path style="fill:#a2ab33;fill-rule:evenodd" d="m829.3 341.3s-34.39 1.849-55.84 27.36-45.48 113.9-128.7 94.29c-72.8-17.15-55.1-77.28-42.15-92.81 12.94-15.53 41.61-13.84 55.65 1.294 17.43 18.78-2.737 52.01-25.14 36.79-17.56-11.93-2.404-23.67-2.404-23.67s-15.9 7.396-5.547 22.19 45.76 11.06 61.11-0.3698c25.7-19.14 34.67-29.58 34.67-29.58s-40.71-0.3983-28.28-34.82c5.188-14.36 29.41-14.69 31.24 4.131 0 0-2.034 13.5-11.28 7.211-8.616-5.859-1.387 10.26 20.52 6.841 16.81-2.624 11.09-7.396 36.98-11.83 25.88-4.437 59.16-7.026 59.16-7.026z"/>
 </g>
</svg>
