<?xml version="1.0" encoding="UTF-8" standalone="no"?>
<svg xmlns="http://www.w3.org/2000/svg" xmlns:osb="http://www.openswatchbook.org/uri/2009/osb" height="32" width="32" version="1.0" xmlns:xlink="http://www.w3.org/1999/xlink">
 <g transform="matrix(.1138 0 0 .1138 -64.82 -29.38)">
  <path style="fill:#af51a7" d="m569.4 258.1h281.1v281.1h-281.1z"/>
  <g style="opacity:.1" transform="matrix(8.785 0 0 8.785 607.3 300.8)">
   <circle cy="4" cx="17" r="2" style=""/>
   <path style="stroke:#000;stroke-width:2;stroke-miterlimit:10;fill:none" stroke-miterlimit="10" d="m4 16h4.5c0.6 0 1.2-0.3 1.6-0.8l0.3-0.4"/>
   <path style="stroke:#000;stroke-width:2;stroke-miterlimit:10;fill:none" stroke-miterlimit="10" d="m7 8s2.1-1 3.2-1.6c0.5-0.2 1-0.3 1.5-0.1l1.3 0.4 1.7 0.8c0.4 0.2 0.7 0.5 0.9 0.9l0.8 1.6c0.3 0.7 1 1.1 1.8 1.1h2.9"/>
   <path style="" d="m12.7 7-2.4 4.2c-0.5 0.9-0.3 2 0.5 2.7l3.9 2.8-1.2-2.9s-0.8 0.1-0.6-0.2l2.9-5.2z"/>
   <path style="" d="m13.9 17-1.9 5h2.1l1.7-4.3c0.4-1.1 0.2-2.4-0.7-3.2l-2.4-2.4-1.4 1.4 2.4 2.4c0.3 0.3 0.4 0.7 0.2 1.1z"/>
  </g>
  <g transform="matrix(8.785 0 0 8.785 599.7 293.2)">
   <circle cx="17" cy="4" r="2"/>
   <path style="stroke:#000;stroke-width:2;stroke-miterlimit:10;fill:none" stroke-miterlimit="10" d="m4 16h4.5c0.6 0 1.2-0.3 1.6-0.8l0.3-0.4"/>
   <path style="stroke:#000;stroke-width:2;stroke-miterlimit:10;fill:none" stroke-miterlimit="10" d="m7 8s2.1-1 3.2-1.6c0.5-0.2 1-0.3 1.5-0.1l1.3 0.4 1.7 0.8c0.4 0.2 0.7 0.5 0.9 0.9l0.8 1.6c0.3 0.7 1 1.1 1.8 1.1h2.9"/>
   <path d="m12.7 7-2.4 4.2c-0.5 0.9-0.3 2 0.5 2.7l3.9 2.8-1.2-2.9s-0.8 0.1-0.6-0.2l2.9-5.2z"/>
   <path d="m13.9 17-1.9 5h2.1l1.7-4.3c0.4-1.1 0.2-2.4-0.7-3.2l-2.4-2.4-1.4 1.4 2.4 2.4c0.3 0.3 0.4 0.7 0.2 1.1z"/>
  </g>
 </g>
</svg>
