<?xml version="1.0" encoding="UTF-8" standalone="no"?>
<svg xmlns="http://www.w3.org/2000/svg" xmlns:osb="http://www.openswatchbook.org/uri/2009/osb" height="32" width="32" version="1.0" xmlns:xlink="http://www.w3.org/1999/xlink">
 <path style="color:#000000;fill:#fff" d="m0 0v32h32v-32z"/>
 <g style="opacity:.1" transform="matrix(.02602 0 0 -.02602 1.502 19.82)">
  <g style="" transform="scale(.1)">
   <path d="m0 683.8c0-121.1 98.44-219.6 227.1-219.6h908.9v227.2h-908.9v227.1h893.4c121.1 0 242.3 98.44 242.3 219.6v-7.58 446.7c0 121.1-113.6 242.3-242.3 242.3h-892.9c-121.1 0-227.1-121-227.1-242zm1136 462.2h-908.9v454.3h908.5zm3036 681.4h-900.9c-121.1 0-242.3-121.1-242.3-242.3v-900.9 7.582c0-121.1 121.1-227.2 242.3-227.2h893.4v-227.4h-908v-227.1h916.1c121.1 0 219.6 106 219.6 227.1v1348c0 121.1-98.44 242.3-219.6 242.3zm-7.58-1136h-908.5v908.5h908.5zm-1741 1136h-673.8c-121.1 0-234.7-121.1-234.7-242.3v-1121h227.2v1136h681.4c121.1 0 227.1-113.6 227.1-242.3v-893.8h227.1v893.4c0 249.8-204.4 469.4-454.2 469.4zm3255-1136h-908.5v673.8c0 121.1 121.1 242.3 249.8 242.3h658.7v-1135h227.1v1113c0 121.1-90.86 242.3-212 242.3h-673.8c-249.8 0-477-219.5-477-469.4v-674.2c0-121.1 128.7-219.6 249.8-219.6h393.7c204.4 0 416.4 83.28 492.1 227.2v-227.2m5151 2044h-227.1v-2044h227.1v1136h681.4v227.1h-681.4m-3183-1143c0-121.1 68.12-219.6 189.3-219.6h870.7v-227.1h-833v-227.1h863.1c121.1 0 196.8 106 196.8 234.7v-7.582 1348c0 121.1-75.7 242.3-196.8 242.3h-900.9c-121.2 0-189.3-121.1-189.3-242.3zm1060 7.582h-832.8v908.5h832.8zm-1515 1136h-878.2c-121.1 0-257.4-121.1-257.4-242.3v-900.9 7.582c0-121.1 136.2-227.2 257.4-227.2h1106v2044h-227.2zm0-1136h-908.5v908.5h908.5zm1893-7.582c0-121.1 128.7-219.6 249.8-219.6h885.8v227.6h-908v227.1h923.7c121.1 0 211.9 98.44 211.9 219.6v-7.58 446.7c0 121.1-90.8 242.3-211.9 242.3h-901c-121.1 0-249.8-121.1-249.8-242.3zm1136 461.8h-908.5v454.3h908.5z" style="fill:#2b2d32"/>
  </g>
 </g>
 <g transform="matrix(.02602 0 0 -.02602 1.028 19.28)">
  <g transform="scale(.1)">
   <path style="fill:#2b2d32" d="m0 683.8c0-121.1 98.44-219.6 227.1-219.6h908.9v227.2h-908.9v227.1h893.4c121.1 0 242.3 98.44 242.3 219.6v-7.58 446.7c0 121.1-113.6 242.3-242.3 242.3h-892.9c-121.1 0-227.1-121-227.1-242zm1136 462.2h-908.9v454.3h908.5zm3036 681.4h-900.9c-121.1 0-242.3-121.1-242.3-242.3v-900.9 7.582c0-121.1 121.1-227.2 242.3-227.2h893.4v-227.4h-908v-227.1h916.1c121.1 0 219.6 106 219.6 227.1v1348c0 121.1-98.44 242.3-219.6 242.3zm-7.58-1136h-908.5v908.5h908.5zm-1741 1136h-673.8c-121.1 0-234.7-121.1-234.7-242.3v-1121h227.2v1136h681.4c121.1 0 227.1-113.6 227.1-242.3v-893.8h227.1v893.4c0 249.8-204.4 469.4-454.2 469.4zm3255-1136h-908.5v673.8c0 121.1 121.1 242.3 249.8 242.3h658.7v-1135h227.1v1113c0 121.1-90.86 242.3-212 242.3h-673.8c-249.8 0-477-219.5-477-469.4v-674.2c0-121.1 128.7-219.6 249.8-219.6h393.7c204.4 0 416.4 83.28 492.1 227.2v-227.2m5151 2044h-227.1v-2044h227.1v1136h681.4v227.1h-681.4m-3183-1143c0-121.1 68.12-219.6 189.3-219.6h870.7v-227.1h-833v-227.1h863.1c121.1 0 196.8 106 196.8 234.7v-7.582 1348c0 121.1-75.7 242.3-196.8 242.3h-900.9c-121.2 0-189.3-121.1-189.3-242.3zm1060 7.582h-832.8v908.5h832.8zm-1515 1136h-878.2c-121.1 0-257.4-121.1-257.4-242.3v-900.9 7.582c0-121.1 136.2-227.2 257.4-227.2h1106v2044h-227.2zm0-1136h-908.5v908.5h908.5zm1893-7.582c0-121.1 128.7-219.6 249.8-219.6h885.8v227.6h-908v227.1h923.7c121.1 0 211.9 98.44 211.9 219.6v-7.58 446.7c0 121.1-90.8 242.3-211.9 242.3h-901c-121.1 0-249.8-121.1-249.8-242.3zm1136 461.8h-908.5v454.3h908.5z"/>
  </g>
 </g>
</svg>
