<?xml version="1.0" encoding="UTF-8" standalone="no"?>
<svg xmlns:rdf="http://www.w3.org/1999/02/22-rdf-syntax-ns#" xmlns="http://www.w3.org/2000/svg" height="32" width="32" version="1.0" xmlns:cc="http://creativecommons.org/ns#" xmlns:dc="http://purl.org/dc/elements/1.1/">
 <path style="fill:#fff" d="m0 0v32h32v-32z"/>
 <g style="opacity:.1" transform="matrix(.9554 0 0 .9554 -9.521 1.506)">
  <path d="m25.17 14.39c-0.3224 0.5168-0.4585 2.144-0.3466 3.224 0.03941 0.3564 0.1039 0.6538 0.1979 0.8311 0.129 0.2454 0.3457 0.3914 0.5929 0.4003 0.1585 0.0081 0.257-0.01881 3.238-0.9771 0 0 1.325-0.4227 1.33-0.4254 0.3305-0.08419 0.5526-0.3878 0.5741-0.7756 0.02149-0.3976-0.1836-0.7487-0.5221-0.8759 0 0-0.9341-0.3806-0.9359-0.3806-3.203-1.321-3.347-1.373-3.508-1.375-0.2472-0.0099-0.4666 0.1146-0.6198 0.3538"/>
  <path d="m32.33 24.24c0.05194-0.1505 0.05821-0.2535 0.06717-3.384 0 0 0.0071-1.384 0.0081-1.397 0.0215-0.3394-0.1979-0.6484-0.5571-0.7863-0.3699-0.1424-0.7684-0.05463-0.9923 0.2239 0 0-0.6538 0.7756-0.6556 0.7756-2.243 2.636-2.338 2.758-2.392 2.913-0.03314 0.09135-0.04657 0.1899-0.03582 0.2875 0.01344 0.1397 0.07702 0.2776 0.1818 0.4066 0.5203 0.618 3.015 1.536 3.813 1.4 0.2767-0.05015 0.4783-0.206 0.5633-0.4388"/>
  <path d="m37.4 23.15c0.7523-0.3 2.393-2.388 2.509-3.191 0.0403-0.2794-0.04747-0.5203-0.24-0.6744-0.1263-0.09493-0.2221-0.1317-3.201-1.11 0 0-1.307-0.4317-1.324-0.4397-0.3161-0.1227-0.6771-0.009-0.9198 0.2902-0.2526 0.3072-0.2902 0.7129-0.08866 1.019l0.5257 0.8562c1.768 2.871 1.903 3.075 2.03 3.174 0.197 0.1549 0.4478 0.18 0.7084 0.07523"/>
  <path d="m35.86 15.75c3.385-0.8204 3.516-0.8634 3.65-0.9511 0.2051-0.1379 0.3081-0.369 0.2902-0.6502 0-0.009 0.0018-0.01881 0-0.02866-0.08687-0.8311-1.543-2.993-2.26-3.344-0.2544-0.1218-0.5087-0.1137-0.7201 0.02776-0.1308 0.08508-0.2266 0.214-2.039 2.693 0 0-0.8186 1.115-0.8284 1.126-0.2158 0.2624-0.2194 0.6386-0.0081 0.961 0.2185 0.3341 0.5875 0.4971 0.9261 0.403 0 0-0.01344 0.02418-0.01702 0.02866 0.1666-0.0627 0.4648-0.1361 1.008-0.2651"/>
  <path d="m32.46 12.96c-0.06-1.34-0.46-7.316-0.51-7.593-0.07-0.251-0.27-0.43-0.55-0.5-0.8643-0.214-4.167 0.7111-4.779 1.343-0.197 0.2051-0.2696 0.4577-0.2105 0.6816 0.09672 0.1979 4.189 6.636 4.189 6.636 0.6045 0.9807 1.098 0.8284 1.26 0.7774 0.1603-0.04926 0.6511-0.2015 0.5956-1.345"/>
 </g>
 <g transform="matrix(.9554 0 0 .9554 -10.2 .8973)">
  <path style="fill:#bf2519" d="m25.17 14.39c-0.3224 0.5168-0.4585 2.144-0.3466 3.224 0.03941 0.3564 0.1039 0.6538 0.1979 0.8311 0.129 0.2454 0.3457 0.3914 0.5929 0.4003 0.1585 0.0081 0.257-0.01881 3.238-0.9771 0 0 1.325-0.4227 1.33-0.4254 0.3305-0.08419 0.5526-0.3878 0.5741-0.7756 0.02149-0.3976-0.1836-0.7487-0.5221-0.8759 0 0-0.9341-0.3806-0.9359-0.3806-3.203-1.321-3.347-1.373-3.508-1.375-0.2472-0.0099-0.4666 0.1146-0.6198 0.3538"/>
  <path style="fill:#bf2519" d="m32.33 24.24c0.05194-0.1505 0.05821-0.2535 0.06717-3.384 0 0 0.0071-1.384 0.0081-1.397 0.0215-0.3394-0.1979-0.6484-0.5571-0.7863-0.3699-0.1424-0.7684-0.05463-0.9923 0.2239 0 0-0.6538 0.7756-0.6556 0.7756-2.243 2.636-2.338 2.758-2.392 2.913-0.03314 0.09135-0.04657 0.1899-0.03582 0.2875 0.01344 0.1397 0.07702 0.2776 0.1818 0.4066 0.5203 0.618 3.015 1.536 3.813 1.4 0.2767-0.05015 0.4783-0.206 0.5633-0.4388"/>
  <path style="fill:#bf2519" d="m37.4 23.15c0.7523-0.3 2.393-2.388 2.509-3.191 0.0403-0.2794-0.04747-0.5203-0.24-0.6744-0.1263-0.09493-0.2221-0.1317-3.201-1.11 0 0-1.307-0.4317-1.324-0.4397-0.3161-0.1227-0.6771-0.009-0.9198 0.2902-0.2526 0.3072-0.2902 0.7129-0.08866 1.019l0.5257 0.8562c1.768 2.871 1.903 3.075 2.03 3.174 0.197 0.1549 0.4478 0.18 0.7084 0.07523"/>
  <path style="fill:#bf2519" d="m35.86 15.75c3.385-0.8204 3.516-0.8634 3.65-0.9511 0.2051-0.1379 0.3081-0.369 0.2902-0.6502 0-0.009 0.0018-0.01881 0-0.02866-0.08687-0.8311-1.543-2.993-2.26-3.344-0.2544-0.1218-0.5087-0.1137-0.7201 0.02776-0.1308 0.08508-0.2266 0.214-2.039 2.693 0 0-0.8186 1.115-0.8284 1.126-0.2158 0.2624-0.2194 0.6386-0.0081 0.961 0.2185 0.3341 0.5875 0.4971 0.9261 0.403 0 0-0.01344 0.02418-0.01702 0.02866 0.1666-0.0627 0.4648-0.1361 1.008-0.2651"/>
  <path style="fill:#bf2519" d="m32.46 12.96c-0.06-1.34-0.46-7.316-0.51-7.593-0.07-0.251-0.27-0.43-0.55-0.5-0.8643-0.214-4.167 0.7111-4.779 1.343-0.197 0.2051-0.2696 0.4577-0.2105 0.6816 0.09672 0.1979 4.189 6.636 4.189 6.636 0.6045 0.9807 1.098 0.8284 1.26 0.7774 0.1603-0.04926 0.6511-0.2015 0.5956-1.345"/>
 </g>
 <path style="opacity:.1" d="m6.283 27.41c0.4073 0.3773 1.179 0.4843 2.117 0.2935 0.8787-0.1737 1.424-0.5664 1.948-2.234l2.612-8.207c0.1352-0.4355 0.1249-0.8137-0.02994-1.094-0.1258-0.2259-0.3354-0.379-0.6315-0.4578-0.4655-0.1275-1.046-0.1147-1.413 1.136l-1.371 4.656s-2.792-5.274-2.794-5.275c-0.1763-0.3525-0.6931-0.6049-1.219-0.3962-0.6862 0.261-0.9147 0.8779-0.6409 1.673 0 0 3.396 6.911 3.404 6.93 0 0 0.0924 0.2464 0.0924 0.2866 0 0 0.0308 0.1874 0.0308 0.1942-0.00678 0.2661-0.09583 0.4903-0.255 0.64-0.1566 0.1472-0.3739 0.2242-0.628 0.2139 0 0-0.5296-0.01198-0.5699-0.01198-0.5442 0.06674-0.8864 0.379-0.9412 0.8616-0.0385 0.3106 0.0616 0.5835 0.2883 0.7923"/>
 <path d="m5.603 26.81c0.4073 0.3773 1.179 0.4843 2.117 0.2935 0.8787-0.1737 1.424-0.5664 1.948-2.234l2.612-8.21c0.1352-0.4355 0.1249-0.8137-0.02994-1.094-0.1258-0.2259-0.3354-0.379-0.6315-0.4578-0.4655-0.1275-1.046-0.1147-1.413 1.136l-1.371 4.656s-2.792-5.274-2.794-5.275c-0.1763-0.3525-0.6931-0.6049-1.219-0.3962-0.6862 0.261-0.9147 0.8779-0.6409 1.673 0 0 3.396 6.911 3.404 6.93 0 0 0.0924 0.2464 0.0924 0.2866 0 0 0.0308 0.1874 0.0308 0.1942-0.00678 0.2661-0.09583 0.4903-0.255 0.64-0.1566 0.1472-0.3739 0.2242-0.628 0.2139 0 0-0.5296-0.01198-0.5699-0.01198-0.5442 0.06674-0.8864 0.379-0.9412 0.8616-0.0385 0.3106 0.0616 0.5835 0.2883 0.7923" style="fill:#231f20"/>
</svg>
