<?xml version="1.0" encoding="UTF-8" standalone="no"?>
<svg xmlns="http://www.w3.org/2000/svg" xmlns:osb="http://www.openswatchbook.org/uri/2009/osb" height="32" width="32" version="1.0" xmlns:xlink="http://www.w3.org/1999/xlink">
 <defs>
  <clipPath id="b">
   <g transform="translate(0 -1004)">
    <rect rx="4" height="46" width="46" y="1005" x="1" fill="#1890d0"/>
   </g>
  </clipPath>
  <clipPath id="a">
   <g transform="translate(0 -1004)">
    <rect rx="4" height="46" width="46" y="1005" x="1" fill="#1890d0"/>
   </g>
  </clipPath>
 </defs>
 <g transform="matrix(.1138 0 0 .1138 -64.82 -29.38)">
  <path style="fill:#7424a5" d="m569.4 258.1h281.1v281.1h-281.1z"/>
  <g transform="matrix(.8276 0 0 .8276 279.1 81.96)">
   <g transform="matrix(8.785 0 0 8.785 313.3 176.2)">
    <g clip-path="url(#b)">
     <g style="opacity:.1">
      <path d="m9 15 0.004 0.996h3.961l7.496 9.957 0.227 4.754c-0.199 0.824-0.84 1.117-1.297 1.289h-2.773l0.031 1h12.34v-1h-3.633c-0.453 0.074-0.418-0.934-0.457-1.211l-0.23-4.52c0.059-0.363 0.133-0.727 0.613-1.09l7.188-5.844 3.359-0.336 0.535-1h-11.17l0.18 1 3.211 0.102c0.191 0.16 0.57 0.145 0.152 0.859l-4.664 4.125c-0.246 0.152-0.434 0.07-0.613-0.074l-5.195-6.938c-0.387-0.551-0.012-1.027 0.457-1.074h3.359v-1h-13.08m0 0.004"/>
      <path d="m31.82 30.27 1.488 0.938-1 1.789-1.516-0.965 1.027-1.766m0 0.004"/>
      <path d="m32.54 28.63 1.262 0.82 5.195-8.688-2.941-1.715-3.52 9.582m0.004 0"/>
     </g>
    </g>
   </g>
   <g transform="matrix(8.785 0 0 8.785 309.8 176.2)" clip-path="url(#a)">
    <g transform="translate(0,-1)">
     <path style="fill:#f9f9f9" d="m9 15 0.004 0.996h3.961l7.496 9.957 0.227 4.754c-0.199 0.824-0.84 1.117-1.297 1.289h-2.773l0.031 1h12.34v-1h-3.633c-0.453 0.074-0.418-0.934-0.457-1.211l-0.23-4.52c0.059-0.363 0.133-0.727 0.613-1.09l7.188-5.844 3.359-0.336 0.535-1h-11.17l0.18 1 3.211 0.102c0.191 0.16 0.57 0.145 0.152 0.859l-4.664 4.125c-0.246 0.152-0.434 0.07-0.613-0.074l-5.195-6.938c-0.387-0.551-0.012-1.027 0.457-1.074h3.359v-1h-13.08m0 0.004"/>
     <path style="fill:#f9f9f9" d="m31.82 30.27 1.488 0.938-1 1.789-1.516-0.965 1.027-1.766m0 0.004"/>
     <path style="fill:#f9f9f9" d="m32.54 28.63 1.262 0.82 5.195-8.688-2.941-1.715-3.52 9.582m0.004 0"/>
    </g>
   </g>
  </g>
 </g>
</svg>
