<?xml version="1.0" encoding="UTF-8" standalone="no"?>
<svg xmlns:rdf="http://www.w3.org/1999/02/22-rdf-syntax-ns#" xmlns="http://www.w3.org/2000/svg" height="32" width="32" version="1.0" xmlns:cc="http://creativecommons.org/ns#" xmlns:dc="http://purl.org/dc/elements/1.1/">
 <path style="fill:#0b2f46" d="m0 0v32h32v-32z"/>
 <g style="opacity:.1" transform="matrix(.06693 0 0 .06693 2.294 12.74)">
  <path d="m278.7 70.58c-4.568 0-7.586-1.34-10.74-6.266-3.076-4.896-8.232-13.14-8.232-13.14l22.42-31.24h-19.48l-17.8 24.79v-44.73h-16.27v85.87h16.27v-27.26s9.114 14.31 11.88 18.73c4.463 6.807 10.41 8.605 20.28 8.605l4.758-0.012v-15.35c-1.729 0-1.727-0.006-3.096-0.006z"/>
  <path d="m424.3 70.58c-4.57 0-7.586-1.34-10.74-6.266-3.078-4.896-8.234-13.14-8.234-13.14l22.42-31.24h-19.48l-17.8 24.79v-44.73h-16.27v85.87h16.27v-27.26s9.113 14.31 11.88 18.73c4.461 6.807 10.41 8.605 20.28 8.605l4.756-0.012v-15.35c-1.729 0-1.727-0.006-3.094-0.006z"/>
  <path d="m25.1 86.59c-10.13 0-18.41-1.86-25.1-8.74l10.42-10.42c3.439 3.439 9.481 4.648 14.78 4.648 6.417 0 9.484-2.137 9.484-5.949 0-1.582-0.369-2.887-1.3-3.914-0.836-0.836-2.232-1.49-4.371-1.768l-8-1.11c-5.85-0.84-10.32-2.79-13.29-5.86-3.073-3.16-4.558-7.62-4.558-13.29 0-12.09 9.111-20.92 24.17-20.92 9.484 0 16.64 2.232 22.32 7.904l-10.23 10.22c-4.185-4.184-9.671-3.904-12.55-3.904-5.671 0-7.995 3.256-7.995 6.137 0 0.838 0.279 2.045 1.302 3.068 0.836 0.838 2.229 1.674 4.557 1.953l7.994 1.117c5.951 0.834 10.23 2.693 13.02 5.484 3.533 3.439 4.925 8.365 4.925 14.51 0 13.48-11.62 20.82-25.57 20.82z"/>
  <path d="m100.3 79.15c-4.836 4.836-10.42 7.438-18.5 7.438-8.09 0-13.67-2.602-18.5-7.438-6.974-6.973-6.695-16.28-6.695-26.23 0-9.947-0.279-19.25 6.695-26.22 4.833-4.836 10.41-7.439 18.5-7.439 8.088 0 13.67 2.604 18.5 7.439 6.972 6.973 6.693 16.27 6.693 26.22 0 9.954 0.279 19.26-6.693 26.23zm-12.04-42.5c-1.209-1.58-3.533-2.883-6.509-2.883-2.975 0-5.299 1.303-6.506 2.883-1.487 1.951-2.418 4.184-2.418 16.27 0 12.1 0.931 14.24 2.418 16.19 1.207 1.58 3.531 2.973 6.506 2.973 2.976 0 5.299-1.393 6.509-2.973 1.486-1.953 2.416-4.09 2.416-16.19 0-12.09-0.93-14.32-2.416-16.27z"/>
  <path d="m343.3 86.66c-7.717 0-13.57-2.604-18.41-7.439-6.967-6.971-6.689-16.28-6.689-26.23 0-9.953-0.277-19.25 6.689-26.22 4.836-4.836 10.69-7.441 18.41-7.441 12.56 0 22.69 6.975 25.1 21.57h-16.55c-1.023-3.721-3.068-7.066-8.463-7.066-2.977 0-5.205 1.209-6.416 2.789-1.488 1.953-2.51 4.277-2.51 16.36 0 12.09 1.021 14.42 2.51 16.37 1.211 1.582 3.439 2.791 6.416 2.791 5.395 0 7.439-3.348 8.463-7.068h16.55c-2.417 14.6-12.55 21.57-25.1 21.57z"/>
  <path d="m204.2 90.9c0 8.715-6.019 10.26-9.911 10.26l-5.917 0.039v14.52l7.217 0.025c16.19-0.104 25.02-8.564 25.02-24.81l-0.057-48.88c0-7.623-3.51-13.67-8.645-17.57-4.58-3.479-10.46-5.227-16.32-5.227-7.717 0-13.58 2.605-18.41 7.441-6.977 6.971-6.696 16.27-6.696 26.22 0 9.949-0.281 19.26 6.696 26.23 4.831 4.836 10.69 7.439 18.41 7.439 2.994 0 5.695-0.598 8.611-1.998v6.319zm-8.5-18.82c-2.977 0-5.207-1.209-6.415-2.791-1.489-1.951-2.511-4.277-2.511-16.37s1.021-14.41 2.511-16.36c1.208-1.58 3.438-2.789 6.415-2.789 5.301 0 7.363 3.232 8.404 6.879v24.56c-1.041 3.64-3.103 6.876-8.404 6.876z"/>
  <path d="m163.9 48.52c0-6.756 0.27-14.87-6.696-21.83-4.833-4.836-10.41-7.439-18.5-7.439-8.088 0-13.67 2.604-18.5 7.439-6.973 6.973-6.695 15.5-6.695 21.83l-0.005 37.5 16.26-0.004 0.017-37.49c0-8.461 0.928-9.703 2.418-11.65 1.208-1.58 3.531-3.109 6.508-3.109s5.3 1.529 6.507 3.109c1.487 1.951 2.418 2.973 2.418 11.7l-0.03 37.42 16.26 0.025 0.04-37.49z"/>
  <polygon points="302.8 13.18 302.8 0.016 286.5 0.014 286.5 13.15"/>
  <path d="m286.1 19.94 16.54 0.01 0.003 40.42c0 7.209 4.623 10.2 10.02 10.2l3.766 0.004v15.38l-5.291 0.037c-16.51-0.104-25.03-9.15-25.03-25.06l-0.022-40.99z"/>
 </g>
 <g transform="matrix(.06693 0 0 .06693 1.685 12.13)">
  <path style="fill:#f80046" d="m278.7 70.58c-4.568 0-7.586-1.34-10.74-6.266-3.076-4.896-8.232-13.14-8.232-13.14l22.42-31.24h-19.48l-17.8 24.79v-44.73h-16.27v85.87h16.27v-27.26s9.114 14.31 11.88 18.73c4.463 6.807 10.41 8.605 20.28 8.605l4.758-0.012v-15.35c-1.729 0-1.727-0.006-3.096-0.006z"/>
  <path style="fill:#f80046" d="m424.3 70.58c-4.57 0-7.586-1.34-10.74-6.266-3.078-4.896-8.234-13.14-8.234-13.14l22.42-31.24h-19.48l-17.8 24.79v-44.73h-16.27v85.87h16.27v-27.26s9.113 14.31 11.88 18.73c4.461 6.807 10.41 8.605 20.28 8.605l4.756-0.012v-15.35c-1.729 0-1.727-0.006-3.094-0.006z"/>
  <path style="fill:#f80046" d="m25.1 86.59c-10.13 0-18.41-1.86-25.1-8.74l10.42-10.42c3.439 3.439 9.481 4.648 14.78 4.648 6.417 0 9.484-2.137 9.484-5.949 0-1.582-0.369-2.887-1.3-3.914-0.836-0.836-2.232-1.49-4.371-1.768l-8-1.11c-5.85-0.84-10.32-2.79-13.29-5.86-3.073-3.16-4.558-7.62-4.558-13.29 0-12.09 9.111-20.92 24.17-20.92 9.484 0 16.64 2.232 22.32 7.904l-10.23 10.22c-4.185-4.184-9.671-3.904-12.55-3.904-5.671 0-7.995 3.256-7.995 6.137 0 0.838 0.279 2.045 1.302 3.068 0.836 0.838 2.229 1.674 4.557 1.953l7.994 1.117c5.951 0.834 10.23 2.693 13.02 5.484 3.533 3.439 4.925 8.365 4.925 14.51 0 13.48-11.62 20.82-25.57 20.82z"/>
  <path style="fill:#f80046" d="m100.3 79.15c-4.836 4.836-10.42 7.438-18.5 7.438-8.09 0-13.67-2.602-18.5-7.438-6.974-6.973-6.695-16.28-6.695-26.23 0-9.947-0.279-19.25 6.695-26.22 4.833-4.836 10.41-7.439 18.5-7.439 8.088 0 13.67 2.604 18.5 7.439 6.972 6.973 6.693 16.27 6.693 26.22 0 9.954 0.279 19.26-6.693 26.23zm-12.04-42.5c-1.209-1.58-3.533-2.883-6.509-2.883-2.975 0-5.299 1.303-6.506 2.883-1.487 1.951-2.418 4.184-2.418 16.27 0 12.1 0.931 14.24 2.418 16.19 1.207 1.58 3.531 2.973 6.506 2.973 2.976 0 5.299-1.393 6.509-2.973 1.486-1.953 2.416-4.09 2.416-16.19 0-12.09-0.93-14.32-2.416-16.27z"/>
  <path style="fill:#f80046" d="m343.3 86.66c-7.717 0-13.57-2.604-18.41-7.439-6.967-6.971-6.689-16.28-6.689-26.23 0-9.953-0.277-19.25 6.689-26.22 4.836-4.836 10.69-7.441 18.41-7.441 12.56 0 22.69 6.975 25.1 21.57h-16.55c-1.023-3.721-3.068-7.066-8.463-7.066-2.977 0-5.205 1.209-6.416 2.789-1.488 1.953-2.51 4.277-2.51 16.36 0 12.09 1.021 14.42 2.51 16.37 1.211 1.582 3.439 2.791 6.416 2.791 5.395 0 7.439-3.348 8.463-7.068h16.55c-2.417 14.6-12.55 21.57-25.1 21.57z"/>
  <path style="fill:#f80046" d="m204.2 90.9c0 8.715-6.019 10.26-9.911 10.26l-5.917 0.039v14.52l7.217 0.025c16.19-0.104 25.02-8.564 25.02-24.81l-0.057-48.88c0-7.623-3.51-13.67-8.645-17.57-4.58-3.479-10.46-5.227-16.32-5.227-7.717 0-13.58 2.605-18.41 7.441-6.977 6.971-6.696 16.27-6.696 26.22 0 9.949-0.281 19.26 6.696 26.23 4.831 4.836 10.69 7.439 18.41 7.439 2.994 0 5.695-0.598 8.611-1.998v6.319zm-8.5-18.82c-2.977 0-5.207-1.209-6.415-2.791-1.489-1.951-2.511-4.277-2.511-16.37s1.021-14.41 2.511-16.36c1.208-1.58 3.438-2.789 6.415-2.789 5.301 0 7.363 3.232 8.404 6.879v24.56c-1.041 3.64-3.103 6.876-8.404 6.876z"/>
  <path style="fill:#f80046" d="m163.9 48.52c0-6.756 0.27-14.87-6.696-21.83-4.833-4.836-10.41-7.439-18.5-7.439-8.088 0-13.67 2.604-18.5 7.439-6.973 6.973-6.695 15.5-6.695 21.83l-0.005 37.5 16.26-0.004 0.017-37.49c0-8.461 0.928-9.703 2.418-11.65 1.208-1.58 3.531-3.109 6.508-3.109s5.3 1.529 6.507 3.109c1.487 1.951 2.418 2.973 2.418 11.7l-0.03 37.42 16.26 0.025 0.04-37.49z"/>
  <polygon style="fill:#f80046" points="286.5 0.014 286.5 13.15 302.8 13.18 302.8 0.016"/>
  <path style="fill:#f80046" d="m286.1 19.94 16.54 0.01 0.003 40.42c0 7.209 4.623 10.2 10.02 10.2l3.766 0.004v15.38l-5.291 0.037c-16.51-0.104-25.03-9.15-25.03-25.06l-0.022-40.99z"/>
 </g>
</svg>
