<?xml version="1.0" encoding="UTF-8" standalone="no"?>
<svg xmlns:rdf="http://www.w3.org/1999/02/22-rdf-syntax-ns#" xmlns="http://www.w3.org/2000/svg" height="32" width="32" version="1.0" xmlns:cc="http://creativecommons.org/ns#" xmlns:dc="http://purl.org/dc/elements/1.1/">
 <path style="color:#000000;fill:#e4e4e4" d="m0 0v32h32v-32z"/>
 <path d="m26.61 20.42c0.26 0-14.31-0.07-17-0.08l-4.909-0.03-0.026-0.02c-0.02839-0.02631-0.05947-0.08148-0.05968-0.1059-0.0001078-0.0123-0.00189-0.01323-0.00778-0.0039-0.01166 0.0184-0.02103-0.04548-0.01377-0.09386 0.00336-0.0224 0.00893-0.03614 0.01238-0.03056 0.00361 0.0059 0.01062-0.0043 0.01649-0.0239 0.00561-0.01874 0.0234-0.04845 0.03952-0.06603l0.02931-0.03196 0.9345-0.0059c0.514-0.0033 4.766-0.02739 7.274-0.04169 2.508-0.01429 6.466-0.03635 8.795-0.04904 2.329-0.01267 4.304-0.02535 4.388-0.02815 0.142-0.0046 0.1543-0.0064 0.1543-0.02156 0-0.01461-0.04476-0.08803-0.2995-0.4913-0.05897-0.09334-0.2803-0.4456-0.7361-1.171-0.0911-0.1451-0.1983-0.3161-0.2382-0.38-0.03989-0.0639-0.07926-0.1175-0.08748-0.119-0.01402-0.0028-0.0992 0.1088-0.7966 1.043-0.08311 0.1113-0.09551 0.1324-0.09551 0.1627 0 0.06219 0.05086 0.09717 0.1431 0.09838 0.07445 0.000947 0.1598 0.06931 0.1845 0.1477 0.03229 0.1024-0.01004 0.2079-0.1041 0.2592l-0.04918 0.02683-2.83 0.0026c-1.851 0.0018-2.869-0.000473-2.942-0.0064-0.2686-0.02172-0.5114-0.1298-0.691-0.3075-0.4691-0.517-0.9265-1.039-1.418-1.596-0.06559-0.07435-0.1253-0.1375-0.1326-0.1403-0.0074-0.0028-0.4852-0.0023-0.493 0.0056-0.0082 0.0082-0.0098 1.25 0.04852 1.338 0.104 0.1572 0.2509 0.2437 0.4438 0.2614 0.1324 0.01217 0.1618 0.02068 0.2045 0.05932 0.05229 0.04725 0.07333 0.09359 0.07414 0.1633 0.000592 0.04923-0.0036 0.06565-0.02711 0.1073-0.03153 0.05584-0.08699 0.09616-0.1486 0.1081-0.02101 0.004-2.453 0.0036-2.453 0.0036l-0.03576-0.01934c-0.0806-0.04357-0.1207-0.1104-0.1207-0.2011 0-0.06913 0.02328-0.1207 0.07415-0.1642 0.03959-0.03388 0.06323-0.042 0.1673-0.0574 0.09327-0.0138 0.1537-0.04561 0.229-0.1206 0.07248-0.07213 0.1211-0.158 0.1372-0.2425 0.0074-0.03899 0.0049-4.086 0.0049-4.086l-0.02486-0.05062c-0.1005-0.1705-0.2451-0.1641-0.3597-0.1668-0.0969-0.0023-0.1555-0.01744-0.2274 0.0067-0.09336 0.0312-0.1965 0.07682-0.241 0.1706l-0.02337 0.04918-0.0045 2.329-0.0045 2.329-0.01863 0.05056c-0.09214 0.25-0.3679 0.3618-0.6012 0.2438-0.04569-0.02311-0.1081-0.07471-0.2654-0.2194-0.1131-0.104-3.321-3.053-3.38-3.108-0.14-0.1294-0.1608-0.1464-0.1794-0.1464-0.01449 0-0.01514 0.01491-0.00975 0.2213 0.08554 0.7984-0.06006 1.647 0.1039 2.43 0.05364 0.1108 0.1511 0.2035 0.2727 0.2594 0.07533 0.03462 0.1201 0.04579 0.2146 0.05353 0.09409 0.0077 0.1248 0.01808 0.1672 0.05639 0.05214 0.04711 0.07291 0.0933 0.07315 0.1627 0.0003551 0.1023-0.06205 0.1854-0.1585 0.2111-0.03858 0.01029-4.749 0.0095-4.78 0.0029-0.05804-0.01242-0.1097-0.05051-0.1411-0.1041-0.02164-0.03682-0.02519-0.0524-0.02519-0.1106 0-0.05982 0.00317-0.0729 0.02706-0.1115 0.04261-0.06892 0.08915-0.09245 0.2112-0.1068 0.1608-0.01887 0.2744-0.06904 0.3715-0.1641 0.05895-0.05771 0.1026-0.1241 0.1249-0.1896 0.01589-0.04687 0.02373-4.82-0.02773-4.933-0.04132-0.09026-0.0859-0.1393-0.1894-0.2086-0.1096-0.07331-0.2145-0.1277-0.3297-0.1709-0.06188-0.02323-0.08995-0.03959-0.1215-0.07082-0.1146-0.1136-0.08384-0.3147 0.05823-0.3809 0.02494-0.01167 0.03931-0.0215 0.03193-0.02197-0.00738-0.000473-0.00335-0.0035 0.00895-0.0068s22.51 0.1174 22.75 0.1204l0.4419 0.0055 0.02519 0.02757c0.04303 0.04711 0.05648 0.08464 0.05663 0.1581 0.000118 0.05784-0.0035 0.07368-0.02648 0.1151-0.01465 0.02644-0.03476 0.05326-0.04471 0.05959-0.0234 0.01491-0.408 0.02049-1.824 0.0265-0.5902 0.0025-1.413 0.0067-1.829 0.0093-1.491 0.0094-6.663 0.03985-8.307 0.04881-0.9222 0.005-3.316 0.01917-5.319 0.03145-3.542 0.02168-3.644 0.02278-3.691 0.03952-0.0631 0.02217-0.1152 0.06084-0.1523 0.1131-0.06232 0.08765-0.05266 5.034-0.05266 5.034l0.02584 0.04918c0.07738 0.1473 0.2049 0.2481 0.3673 0.2902 0.1048 0.02722 0.1993 0.01205 0.3223-0.05156 0.08166-0.04226 0.1699-0.1254 0.217-0.2044 0.04611-0.07737 0.1759-4.127 0.1812-4.304 0.0143-0.4791 0.01724-0.4963 0.09911-0.5785 0.05254-0.05275 0.1167-0.07406 0.204-0.06779 0.07521 0.0054 0.1149 0.026 0.1981 0.1027 0.03652 0.03369 0.1509 0.1376 0.2541 0.2309 0.1033 0.09329 0.2866 0.2602 0.4074 0.3708 0.1208 0.1107 3.143 2.888 3.153 2.888 0.0059 0.00012 0.01255-0.0028 0.01479-0.0065 0.0063-0.01016 0.01298-0.3629 0.02977-1.564 0.0118-0.8449 0.01289-1.1 0.0048-1.127-0.01591-0.05309-0.09436-0.1586-0.1519-0.2043-0.06063-0.04816-0.1763-0.1056-0.2389-0.1187-0.0246-0.0051-0.07481-0.01192-0.1116-0.01507-0.08076-0.0069-0.112-0.0191-0.1596-0.06208-0.08499-0.07679-0.09059-0.2149-0.01217-0.3017 0.06408-0.07092 0.07671-0.0738 0.3147-0.07163 0.1156 0.0011 4.952 0.08926 5.066 0.113 0.1933 0.04039 0.4033 0.1233 0.5288 0.2087 0.2414 0.1643 0.445 0.4426 0.538 0.7354 0.1256 0.3955 0.07459 0.8287-0.1392 1.181-0.1337 0.2204-0.4175 0.4992-0.6465 0.6352-0.03806 0.02261-0.06209 0.04278-0.06209 0.05211 0 0.0084 0.02515 0.04331 0.05589 0.07763s1.588 1.797 1.637 1.852c0.04869 0.0551 0.1092 0.1144 0.1345 0.1317 0.158 0.1083 0.3778 0.09266 0.5163-0.03682 0.1023-0.09567 0.1302-0.1642 0.143-0.3516 0.0055-0.08129 0.0029-4.003-0.01242-4.031-0.03328-0.06096-0.1683-0.1191-0.3058-0.1316-0.1463-0.01334-0.228-0.09178-0.228-0.2189 0-0.06348 0.01862-0.1085 0.06348-0.1536 0.0744-0.07471-0.0094-0.06997 1.238-0.06997 0.9433 0 1.107 0.0019 1.145 0.01315 0.1283 0.03829 0.1917 0.1823 0.1344 0.3053-0.03575 0.07677-0.09756 0.1133-0.2164 0.1277-0.123 0.01494-0.2293 0.05691-0.2777 0.1096-0.01054 0.01154-0.02366 0.03707-0.02901 0.05675-0.0123 0.04526-0.01363 3.958-0.0014 4.075 0.0097 0.09128 0.02687 0.1339 0.08582 0.2118 0.07115 0.09407 0.1864 0.1682 0.317 0.2041 0.05159 0.01415 0.8833 0.01468 1.007-0.04742 0.1054-0.05279 0.1511-0.1022 0.3877-0.4195 0.1211-0.1623 1.28-1.715 1.284-1.725 0.004-0.01054-1.312-2.107-1.344-2.157-0.03209-0.05097-0.07765-0.1094-0.1032-0.1324-0.1107-0.0995-0.2618-0.1604-0.4342-0.175-0.08137-0.0069-0.1153-0.01394-0.1518-0.03158-0.174-0.08405-0.1485-0.3457 0.0391-0.4021 0.06414-0.0193 2.099-0.01883 2.164 0.000474 0.1299 0.03875 0.1932 0.1856 0.1326 0.3073-0.02742 0.05501-0.08871 0.1059-0.1364 0.1134-0.09532 0.0148-0.1264 0.03638-0.1264 0.08769 0 0.01882 0.8056 1.209 0.8255 1.211 0.01618 0.0019 0.539-0.6956 0.6577-0.8545 0.2326-0.3114 0.2346-0.3151 0.2023-0.3776-0.01846-0.03571-0.05033-0.04986-0.1293-0.0574-0.07975-0.0077-0.1107-0.01943-0.1566-0.05967-0.04457-0.03914-0.06897-0.09501-0.06936-0.1588-0.000474-0.08574 0.04368-0.158 0.1229-0.2008l0.03576-0.01934h0.9613 0.9613l0.03576 0.01934c0.1362 0.07365 0.1673 0.2375 0.06591 0.3475-0.04545 0.04932-0.08682 0.06458-0.2045 0.07543-0.1193 0.0084-0.2351 0.0493-0.3337 0.1149-0.07584 0.05161-0.07124 0.04563-1.261 1.637-0.1522 0.2036-0.2829 0.381-0.2905 0.3943-0.01365 0.02379-0.01265 0.02584 0.08014 0.1619 0.05167 0.07579 1.918 2.815 1.943 2.852 0.2098 0.3052 0.1957 0.2893 0.3369 0.3818 0.088 0.05766 0.2012 0.114 0.3188 0.1587 0.0359 0.01364 0.07722 0.03485 0.09183 0.04715 0.07402 0.06229 0.1015 0.186 0.06179 0.2782-0.02306 0.05362-0.08493 0.1135-0.1268 0.1226-0.01728 0.0038-0.02342 0.0085-0.01659 0.01271 0.02137 0.01321-0.06008 0.01797-0.2722 0.01592-0.118-0.0012-1.957-0.01192-1.578-0.01482zm-9.977-4.146c0.3959-0.335 0.4714-1.08 0.1112-1.477-0.2706-0.264-0.6582-0.3351-1.034-0.3232l-0.06706 0.0029-0.0045 1.999 0.02015 0.0075c0.3093 0.03244 0.7234-0.02266 0.9746-0.2097zm-11.41-3.48c-0.04769-0.0016-0.1282-0.0016-0.1788-0.000017-0.05067 0.0016-0.01166 0.0029 0.08671 0.0029 0.09836 0.000007 0.1398-0.0013 0.09213-0.0029z" style="opacity:.1"/>
 <path style="fill:#2c2963" d="m26 19.81c0.2533-0.002-14.31-0.07349-17.01-0.08651l-4.905-0.02367-0.02541-0.02355c-0.02839-0.02631-0.05947-0.08148-0.05968-0.1059-0.0001078-0.0123-0.00189-0.01323-0.00778-0.0039-0.01166 0.0184-0.02103-0.04548-0.01377-0.09386 0.00336-0.0224 0.00893-0.03614 0.01238-0.03056 0.00361 0.0059 0.01062-0.0043 0.01649-0.0239 0.00561-0.01874 0.0234-0.04845 0.03952-0.06603l0.02931-0.03196 0.9345-0.0059c0.514-0.0033 4.766-0.02739 7.274-0.04169 2.508-0.01429 6.466-0.03635 8.795-0.04904 2.329-0.01267 4.304-0.02535 4.388-0.02815 0.142-0.0046 0.1543-0.0064 0.1543-0.02156 0-0.01461-0.04476-0.08803-0.2995-0.4913-0.05897-0.09334-0.2803-0.4456-0.7361-1.171-0.0911-0.1451-0.1983-0.3161-0.2382-0.38-0.03989-0.0639-0.07926-0.1175-0.08748-0.119-0.01402-0.0028-0.0992 0.1088-0.7966 1.043-0.08311 0.1113-0.09551 0.1324-0.09551 0.1627 0 0.06219 0.05086 0.09717 0.1431 0.09838 0.07445 0.000947 0.1598 0.06931 0.1845 0.1477 0.03229 0.1024-0.01004 0.2079-0.1041 0.2592l-0.04918 0.02683-2.83 0.0026c-1.851 0.0018-2.869-0.000473-2.942-0.0064-0.2686-0.02172-0.5114-0.1298-0.691-0.3075-0.4691-0.517-0.9265-1.039-1.418-1.596-0.06559-0.07435-0.1253-0.1375-0.1326-0.1403-0.0074-0.0028-0.4852-0.0023-0.493 0.0056-0.0082 0.0082-0.0098 1.25 0.04852 1.338 0.104 0.1572 0.2509 0.2437 0.4438 0.2614 0.1324 0.01217 0.1618 0.02068 0.2045 0.05932 0.05229 0.04725 0.07333 0.09359 0.07414 0.1633 0.000592 0.04923-0.0036 0.06565-0.02711 0.1073-0.03153 0.05584-0.08699 0.09616-0.1486 0.1081-0.02101 0.004-2.453 0.0036-2.453 0.0036l-0.03576-0.01934c-0.0806-0.04357-0.1207-0.1104-0.1207-0.2011 0-0.06913 0.02328-0.1207 0.07415-0.1642 0.03959-0.03388 0.06323-0.042 0.1673-0.0574 0.09327-0.0138 0.1537-0.04561 0.229-0.1206 0.07248-0.07213 0.1211-0.158 0.1372-0.2425 0.0074-0.03899 0.0049-4.086 0.0049-4.086l-0.02486-0.05062c-0.1005-0.1705-0.2451-0.1641-0.3597-0.1668-0.0969-0.0023-0.1555-0.01744-0.2274 0.0067-0.09336 0.0312-0.1965 0.07682-0.241 0.1706l-0.02337 0.04918-0.0045 2.329-0.0045 2.329-0.01863 0.05056c-0.09214 0.25-0.3679 0.3618-0.6012 0.2438-0.04569-0.02311-0.1081-0.07471-0.2654-0.2194-0.1131-0.104-3.321-3.053-3.38-3.108-0.14-0.1294-0.1608-0.1464-0.1794-0.1464-0.01449 0-0.01514 0.01491-0.00975 0.2213 0.08554 0.7984-0.06006 1.647 0.1039 2.43 0.05364 0.1108 0.1511 0.2035 0.2727 0.2594 0.07533 0.03462 0.1201 0.04579 0.2146 0.05353 0.09409 0.0077 0.1248 0.01808 0.1672 0.05639 0.05214 0.04711 0.07291 0.0933 0.07315 0.1627 0.0003551 0.1023-0.06205 0.1854-0.1585 0.2111-0.03858 0.01029-4.749 0.0095-4.78 0.0029-0.05804-0.01242-0.1097-0.05051-0.1411-0.1041-0.02164-0.03682-0.02519-0.0524-0.02519-0.1106 0-0.05982 0.00317-0.0729 0.02706-0.1115 0.04261-0.06892 0.08915-0.09245 0.2112-0.1068 0.1608-0.01887 0.2744-0.06904 0.3715-0.1641 0.05895-0.05771 0.1026-0.1241 0.1249-0.1896 0.01589-0.04687 0.02373-4.82-0.02773-4.933-0.04132-0.09026-0.0859-0.1393-0.1894-0.2086-0.1096-0.07331-0.2145-0.1277-0.3297-0.1709-0.06188-0.02323-0.08995-0.03959-0.1215-0.07082-0.1146-0.1136-0.08384-0.3147 0.05823-0.3809 0.02494-0.01167 0.03931-0.0215 0.03193-0.02197-0.00738-0.000473-0.00335-0.0035 0.00895-0.0068s22.51 0.1174 22.75 0.1204l0.4419 0.0055 0.02519 0.02757c0.04303 0.04711 0.05648 0.08464 0.05663 0.1581 0.000118 0.05784-0.0035 0.07368-0.02648 0.1151-0.01465 0.02644-0.03476 0.05326-0.04471 0.05959-0.0234 0.01491-0.408 0.02049-1.824 0.0265-0.5902 0.0025-1.413 0.0067-1.829 0.0093-1.491 0.0094-6.663 0.03985-8.307 0.04881-0.9222 0.005-3.316 0.01917-5.319 0.03145-3.542 0.02168-3.644 0.02278-3.691 0.03952-0.0631 0.02217-0.1152 0.06084-0.1523 0.1131-0.06232 0.08765-0.05266 5.034-0.05266 5.034l0.02584 0.04918c0.07738 0.1473 0.2049 0.2481 0.3673 0.2902 0.1048 0.02722 0.1993 0.01205 0.3223-0.05156 0.08166-0.04226 0.1699-0.1254 0.217-0.2044 0.04611-0.07737 0.1759-4.127 0.1812-4.304 0.0143-0.4791 0.01724-0.4963 0.09911-0.5785 0.05254-0.05275 0.1167-0.07406 0.204-0.06779 0.07521 0.0054 0.1149 0.026 0.1981 0.1027 0.03652 0.03369 0.1509 0.1376 0.2541 0.2309 0.1033 0.09329 0.2866 0.2602 0.4074 0.3708 0.1208 0.1107 3.143 2.888 3.153 2.888 0.0059 0.00012 0.01255-0.0028 0.01479-0.0065 0.0063-0.01016 0.01298-0.3629 0.02977-1.564 0.0118-0.8449 0.01289-1.1 0.0048-1.127-0.01591-0.05309-0.09436-0.1586-0.1519-0.2043-0.06063-0.04816-0.1763-0.1056-0.2389-0.1187-0.0246-0.0051-0.07481-0.01192-0.1116-0.01507-0.08076-0.0069-0.112-0.0191-0.1596-0.06208-0.08499-0.07679-0.09059-0.2149-0.01217-0.3017 0.06408-0.07092 0.07671-0.0738 0.3147-0.07163 0.1156 0.0011 4.952 0.08926 5.066 0.113 0.1933 0.04039 0.4033 0.1233 0.5288 0.2087 0.2414 0.1643 0.445 0.4426 0.538 0.7354 0.1256 0.3955 0.07459 0.8287-0.1392 1.181-0.1337 0.2204-0.4175 0.4992-0.6465 0.6352-0.03806 0.02261-0.06209 0.04278-0.06209 0.05211 0 0.0084 0.02515 0.04331 0.05589 0.07763s1.588 1.797 1.637 1.852c0.04869 0.0551 0.1092 0.1144 0.1345 0.1317 0.158 0.1083 0.3778 0.09266 0.5163-0.03682 0.1023-0.09567 0.1302-0.1642 0.143-0.3516 0.0055-0.08129 0.0029-4.003-0.01242-4.031-0.03328-0.06096-0.1683-0.1191-0.3058-0.1316-0.1463-0.01334-0.228-0.09178-0.228-0.2189 0-0.06348 0.01862-0.1085 0.06348-0.1536 0.0744-0.07471-0.0094-0.06997 1.238-0.06997 0.9433 0 1.107 0.0019 1.145 0.01315 0.1283 0.03829 0.1917 0.1823 0.1344 0.3053-0.03575 0.07677-0.09756 0.1133-0.2164 0.1277-0.123 0.01494-0.2293 0.05691-0.2777 0.1096-0.01054 0.01154-0.02366 0.03707-0.02901 0.05675-0.0123 0.04526-0.01363 3.958-0.0014 4.075 0.0097 0.09128 0.02687 0.1339 0.08582 0.2118 0.07115 0.09407 0.1864 0.1682 0.317 0.2041 0.05159 0.01415 0.8833 0.01468 1.007-0.04742 0.1054-0.05279 0.1511-0.1022 0.3877-0.4195 0.1211-0.1623 1.28-1.715 1.284-1.725 0.004-0.01054-1.312-2.107-1.344-2.157-0.03209-0.05097-0.07765-0.1094-0.1032-0.1324-0.1107-0.0995-0.2618-0.1604-0.4342-0.175-0.08137-0.0069-0.1153-0.01394-0.1518-0.03158-0.174-0.08405-0.1485-0.3457 0.0391-0.4021 0.06414-0.0193 2.099-0.01883 2.164 0.000474 0.1299 0.03875 0.1932 0.1856 0.1326 0.3073-0.02742 0.05501-0.08871 0.1059-0.1364 0.1134-0.09532 0.0148-0.1264 0.03638-0.1264 0.08769 0 0.01882 0.8056 1.209 0.8255 1.211 0.01618 0.0019 0.539-0.6956 0.6577-0.8545 0.2326-0.3114 0.2346-0.3151 0.2023-0.3776-0.01846-0.03571-0.05033-0.04986-0.1293-0.0574-0.07975-0.0077-0.1107-0.01943-0.1566-0.05967-0.04457-0.03914-0.06897-0.09501-0.06936-0.1588-0.000474-0.08574 0.04368-0.158 0.1229-0.2008l0.03576-0.01934h0.9613 0.9613l0.03576 0.01934c0.1362 0.07365 0.1673 0.2375 0.06591 0.3475-0.04545 0.04932-0.08682 0.06458-0.2045 0.07543-0.1193 0.0084-0.2351 0.0493-0.3337 0.1149-0.07584 0.05161-0.07124 0.04563-1.261 1.637-0.1522 0.2036-0.2829 0.381-0.2905 0.3943-0.01365 0.02379-0.01265 0.02584 0.08014 0.1619 0.05167 0.07579 1.918 2.815 1.943 2.852 0.2098 0.3052 0.1957 0.2893 0.3369 0.3818 0.088 0.05766 0.2012 0.114 0.3188 0.1587 0.0359 0.01364 0.07722 0.03485 0.09183 0.04715 0.07402 0.06229 0.1015 0.186 0.06179 0.2782-0.02306 0.05362-0.08493 0.1135-0.1268 0.1226-0.01728 0.0038-0.02342 0.0085-0.01659 0.01271 0.02137 0.01321-0.06008 0.01797-0.2722 0.01592-0.118-0.0012-1.957-0.01192-1.578-0.01482zm-9.977-4.146c0.3959-0.335 0.4714-1.08 0.1112-1.477-0.2706-0.264-0.6582-0.3351-1.034-0.3232l-0.06706 0.0029-0.0045 1.999 0.02015 0.0075c0.3093 0.03244 0.7234-0.02266 0.9746-0.2097zm-11.41-3.48c-0.04769-0.0016-0.1282-0.0016-0.1788-0.000017-0.05067 0.0016-0.01166 0.0029 0.08671 0.0029 0.09836 0.000007 0.1398-0.0013 0.09213-0.0029z"/>
</svg>
