<?xml version="1.0" encoding="UTF-8" standalone="no"?>
<svg
   xmlns:dc="http://purl.org/dc/elements/1.1/"
   xmlns:cc="http://creativecommons.org/ns#"
   xmlns:rdf="http://www.w3.org/1999/02/22-rdf-syntax-ns#"
   xmlns:svg="http://www.w3.org/2000/svg"
   xmlns="http://www.w3.org/2000/svg"
   id="svg2"
   viewBox="0 0 32 32"
   version="1.1"
   width="32"
   height="32">
  <metadata
     id="metadata14">
    <rdf:RDF>
      <cc:Work
         rdf:about="">
        <dc:format>image/svg+xml</dc:format>
        <dc:type
           rdf:resource="http://purl.org/dc/dcmitype/StillImage" />
        <dc:title></dc:title>
      </cc:Work>
    </rdf:RDF>
  </metadata>
  <defs
     id="defs12" />
  <path
     style="fill:#c3f7ff;fill-opacity:1"
     id="path4"
     fill="#333"
     d="m0 0v32h32v-32z" />
  <g
     style="fill:#000000;fill-opacity:1;stroke:none;stroke-opacity:1;enable-background:new;opacity:0.1"
     transform="matrix(1,0,0,0.7374,-32.762547,16.875081)"
     id="g4142">
    <path
       style="fill:#000000;fill-opacity:1;stroke:none;stroke-opacity:1"
       d="m 53.59,7.356 q 0,-1.32 -0.56,-2.16 -0.52,-0.88 -1.48,-0.88 -1.96,0 -1.96,3.04 0,1.28 0.56,2.16 0.6,0.88 1.56,0.88 1.88,0 1.88,-3.04 z m -0.08,-11.68 q 0,-2.4 -1.88,-2.4 -1.92,0 -1.92,2.44 0,2.72 1.96,2.72 1.84,0 1.84,-2.76 z m 4.4,11.76 q 0,3.68 -1.72,6.24 -1.8,2.68 -4.52,2.68 -2.96,0 -4.68,-2.52 -1.68,-2.52 -1.68,-6.48 0,-3.64 1.72,-5.92 -1.52,-2.24 -1.52,-5.64 0,-3.64 1.72,-5.96 1.72,-2.32 4.44,-2.32 2.64,0 4.32,2.36 1.68,2.32 1.68,5.88 0,3.48 -1.56,5.64 1.8,2.36 1.8,6.04 z"
       id="path4144" />
  </g>
  <g
     id="g6"
     transform="matrix(1 0 0 .7374 -35.61 14.57)"
     style="enable-background:new;fill:#9cc3ff;fill-opacity:1;stroke:#4638a3;stroke-opacity:1">
    <path
       id="path8"
       d="m53.59 7.356q0-1.32-0.56-2.16-0.52-0.88-1.48-0.88-1.96 0-1.96 3.04 0 1.28 0.56 2.16 0.6 0.88 1.56 0.88 1.88 0 1.88-3.04zm-0.08-11.68q0-2.4-1.88-2.4-1.92 0-1.92 2.44 0 2.72 1.96 2.72 1.84 0 1.84-2.76zm4.4 11.76q0 3.68-1.72 6.24-1.8 2.68-4.52 2.68-2.96 0-4.68-2.52-1.68-2.52-1.68-6.48 0-3.64 1.72-5.92-1.52-2.24-1.52-5.64 0-3.64 1.72-5.96t4.44-2.32q2.64 0 4.32 2.36 1.68 2.32 1.68 5.88 0 3.48-1.56 5.64 1.8 2.36 1.8 6.04z"
       style="fill:#9cc3ff;fill-opacity:1;stroke:#4638a3;stroke-opacity:1" />
  </g>
</svg>
