<?xml version="1.0" encoding="UTF-8" standalone="no"?>
<svg
   xmlns:dc="http://purl.org/dc/elements/1.1/"
   xmlns:cc="http://creativecommons.org/ns#"
   xmlns:rdf="http://www.w3.org/1999/02/22-rdf-syntax-ns#"
   xmlns:svg="http://www.w3.org/2000/svg"
   xmlns="http://www.w3.org/2000/svg"
   id="svg2"
   version="1.0"
   width="32"
   height="32">
  <metadata
     id="metadata14">
    <rdf:RDF>
      <cc:Work
         rdf:about="">
        <dc:format>image/svg+xml</dc:format>
        <dc:type
           rdf:resource="http://purl.org/dc/dcmitype/StillImage" />
        <dc:title></dc:title>
      </cc:Work>
    </rdf:RDF>
  </metadata>
  <defs
     id="defs12" />
  <path
     style="fill:#095458;fill-opacity:1"
     id="path4"
     fill="#333"
     d="m0 0v32h32v-32z" />
  <path
     style="fill:#000000;enable-background:new;fill-opacity:1;opacity:0.1"
     d="m 24.155081,9.1890844 c 0,0 -0.02609,0.03106 -0.1738,0.07031 -0.1473,0.03947 -0.2732,0.05358 -0.3848,0.06836 -0.1116,0.01455 -0.1113,0.05273 -0.1113,0.05273 l -0.1934,0.3105 c 0,0 -0.0061,0.02186 0.0098,0.06641 0.01632,0.04454 0.08984,0.09961 0.08984,0.09961 0,0 0.1268,0.09322 0.2188,0.1542996 0.09192,0.06042 0.08789,0.08008 0.08789,0.08008 -0.2476,0.02161 -0.3133,-0.0085 -0.4141,-0.05859 -0.09794,-0.04961 -0.1674,-0.1612996 -0.2032,-0.2401996 -0.03617,-0.07894 -0.1152,-0.1465 -0.1152,-0.1465 -0.1294,-0.07387 -0.3735,-0.0762 -0.6191,-0.0332 -0.9997,0.2702 -2.063,0.6007996 -2.93,0.8397996 -0.3731,0.03793 -0.4844,-0.0293 -0.4844,-0.0293 -0.06547,-0.028 -0.05664,-0.1152 -0.05664,-0.1152 l 0.002,-0.2539 c 0,0 -0.008,-0.09551 -0.08008,-0.1347996 -0.07233,-0.03947 -0.1723,-0.05412 -0.3516,-0.0625 -0.1788,-0.0079 -0.3705,0.0097 -0.4609,0.0293 -0.09019,0.01985 -0.2625,0.06786 -0.3887,0.2089996 -0.1261,0.1409 -0.1055,0.252 -0.1055,0.252 0,0 0.0083,0.1499 0.01953,0.2617 0.01147,0.111599 0.1055,0.146499 0.1055,0.146499 -0.4813,0.2602 -0.8622,0.3063 -1.482,0.4375 0.0372,0.453399 0.1582,0.891398 0.2539,1.331998 0,0 0.02107,0.08121 0.1016,0.1191 0.08027,0.03768 0.2322,0.05195 0.3848,-0.0078 0.1524,-0.05998 0.1947,-0.1268 0.2637,-0.207 0.06924,-0.08004 0.09375,-0.1074 0.09375,-0.1074 0,0 0.1465,-0.1375 0.3262,-0.07617 0.1795,0.06152 0.2871,0.2715 0.2871,0.2715 l 0.0059,0.01172 c 0,0 0.08422,0.1435 0.08398,0.2754 -0.0016,0.01013 -0.01391,0.06715 -0.1504,0.1719 -0.1493,0.114 -0.2693,0.1061 -0.3691,0.09766 -0.09989,-0.0088 -0.1469,-0.01577 -0.1758,-0.0098 l -0.1602,0.0078 c -0.1733,0.0247 -0.2695,0.08984 -0.2695,0.08984 -0.3971,0.2351 0.1621,2.049 0.1621,2.049 -0.8258,0.1034 -1.794,0.2995 -2.326,0.4375 -0.5319,0.1383 -0.5645,0.291 -0.5645,0.291 -0.114,0.1797 0.03125,0.2734 0.03125,0.2734 0,0 0.1832,0.0615 0.2246,0.2617 0.04168,0.2002 -0.1719,0.3594 -0.1719,0.3594 0,0 -0.255,0.2138 -0.6387,0.2793 -0.3835,0.06571 -0.5298,0.07686 -0.7578,-0.1035 -0.2004,-0.159 -0.06442,-0.4112 0.07031,-0.5078 0.135,-0.09702 0.1992,-0.2011 0.2168,-0.2461 0.01704,-0.04454 0.0078,-0.08203 0.0078,-0.08203 l -0.1289,-0.1172 c -0.4419,-0.2937 -2.177998,0.01172 -2.177998,0.01172 -0.174299,-0.6768 0.02237,-1.092 0.2656,-1.645 0,0 0.09838,-0.1627 0.2715,-0.1797 0.173499,-0.01676 0.221599,0.03347 0.302699,0.04297 0.2895,0.03484 0.3359,-0.03711 0.3359,-0.03711 0.214999,-0.1579 0.304699,-0.3809 0.304699,-0.3809 0.1308,-0.3217 0.01089,-0.6472 -0.04687,-0.7109 -0.071,-0.0774 -0.228499,-0.1934 -0.228499,-0.1934 0,0 -0.0958,-0.08102 -0.2402,-0.0078 -0.1147,0.05821 -0.1543,0.04492 -0.1543,0.04492 0.0682,-0.5807 0.4008,-1.106999 0.667999,-1.632999 0.09261,-0.242799 0.08984,-0.427699 0.08984,-0.427699 0,0 -0.176,-0.223 -0.2012,-0.2578 -0.02558,-0.03484 -0.06055,-0.04883 -0.06055,-0.04883 -0.04542,0.01742 -0.07617,0.02148 -0.07617,0.02148 l 0.03906,-0.03125 c 0,0 0.09344,-0.1069 0.2363,-0.07227 0.1429,0.03462 0.2461,-0.0293 0.2461,-0.0293 0.2229,-0.1685 0.3652,-0.480499 0.3652,-0.480499 l 0.21,-0.4390002 -0.18,-0.295 c 0,0 -0.02807,-0.0051 -0.2148,0.05859 -0.187,0.06351 -0.3125,0.1328 -0.3125,0.1328 l -0.111,-0.17 -0.014,-0.013 c 0,0 -0.0288,-0.03056 -0.1973,0.0078 -0.1689,0.03837 -0.395899,0.1692 -0.490199,0.2949 -0.09416,0.1255 -0.1055,0.1895 -0.1055,0.1895 -0.395199,0.3464002 -0.720699,0.4823992 -0.720699,0.4823992 -0.09217,0.01058 -0.1484,0.05469 -0.1484,0.05469 -0.315099,0.2659 -0.695299,0.7129 -0.695299,0.7129 0,0 -0.00911,0.0074 -0.02344,0.03516 -0.01433,0.02778 -0.04301,0.1368 -0.03906,0.1582 0.00375,0.02161 0.0293,0.03906 0.0293,0.03906 -0.00113,0.0013 -0.00107,0.0028 -0.00195,0.0039 -0.2653,0.357699 -0.375,0.451199 -0.375,0.451199 -0.01434,-0.02029 -0.04102,-0.01563 -0.04102,-0.01563 -0.04476,0.01301 -0.1641,0.08984 -0.1641,0.08984 -0.09835,0.1389 -0.3594,0.574199 -0.3594,0.574199 l -0.01562,0.0039 c -0.02668,0.01058 -0.07812,0.04883 -0.07812,0.04883 l -0.01953,-0.0078 -0.1504,0.08399 c -0.6816,1.121 -1.173,2.371 -1.428,3.705 l 0.01953,0.07226 -0.05469,0.125 c -0.387,2.625 0.07354,5.37 1.387,7.635 l 0.04688,0.0332 0.02148,0.08008 c 1.969999,3.25 5.537997,5.42 9.617997,5.42 5.883,0 10.71,-4.516 11.2,-10.27 0.03218,-0.3282 0.03308,-0.6837 0.04297,-0.9707 0,-1.007 -0.1339,-1.985 -0.3828,-2.914 l -0.06055,-0.2168 c -0.3768,-1.302 -1.007,-2.541 -1.795,-3.601999 l -0.1367,-0.05664 -0.04297,0.03125 -0.07617,0.05078 c 0.02095,0.09923 0.04492,0.1875 0.04492,0.1875 -0.1014,-0.09394 -0.3711,-0.460901 -0.3711,-0.460901 -0.2595,-0.285599 -0.4629,-0.574199 -0.4629,-0.574199 l 0.02148,-0.03516 -0.04883,-0.1504 c -0.08,-0.198 -0.44,-0.486 -0.44,-0.486 0,0 -0.1282,-0.09104 -0.2148,-0.125 -0.08622,-0.03396 -0.1836,-0.03711 -0.1836,-0.03711 l -0.04297,0.05273 c -0.24,-0.1609998 -1.03,-0.7909998 -1.03,-0.7909998 z m 0.5293,6.2929966 c 0.06494,0.01248 0.0599,0.0074 0.0957,0.0332 0.0258,0.03329 0.01235,0.0087 0.0332,0.06445 0.04745,0.07493 0.01749,0.111 0,0.1992 -0.9083,0.2215 -0.6236,1.104 -0.8242,2.01 -0.1474,0.6718 -0.5443,4.711 -0.6934,5.828 -0.0791,0.04326 -0.09589,0.05865 -0.2324,0.06445 -0.4712,-0.7251 -2.099,-2.604 -2.371,-2.701 -0.03746,0.4013 -0.5805,2.752 -0.7578,3.525 -0.08326,0.04492 -0.1146,0.06115 -0.2637,0.06445 -0.2456,-0.3988 -0.6136,-0.716 -0.8867,-1.084 -0.701,-0.9482 -3.654,-4.61 -4.314,-4.811 -0.2523,-0.0766 -0.5276,-0.0042 -0.7891,0 -0.04663,-0.08409 -0.08018,-0.1039 -0.09766,-0.2305 0.03081,-0.01167 0.06435,-0.02241 0.09766,-0.0332 0.2506,-0.1823 2.263,-0.7218 2.932,-0.8242 0.01256,0.0341 0.02182,0.06603 0.03516,0.09766 0.05995,0.08575 0.04374,0.09736 0.03125,0.1973 -0.2281,0.02747 -0.4666,0.2058 -0.5273,0.3965 -0.0583,0.07326 -0.06641,0.1578 -0.06641,0.2969 0.7917,1.001 3.67,4.382 3.723,4.514 0.02583,-0.03414 0.01239,-0.009 0.0332,-0.06641 0.1349,-0.2106 0.4625,-1.958 0.4941,-2.537 -0.2323,-0.1648 -2.277,-2.609 -2.633,-2.734 -0.2223,-0.07826 -0.5044,-7.43e-4 -0.6934,-0.0332 l 0,-0.06641 c -0.03,-0.04246 -0.0299,-0.08081 -0.0332,-0.1641 l 0.0332,0 0,-0.0332 c 0.9649,-0.05079 1.712,-0.5325 2.57,-0.6582 0.05497,0.0924 0.08517,0.1113 0.09766,0.2637 -0.2772,0.1024 -0.5738,0.1948 -0.5938,0.5586 0.09824,0.1032 1.245,1.352 1.482,1.713 l 0.03125,0 0,-0.06445 c 0.1415,-0.2106 0.09609,-0.5841 0.166,-0.8555 0.2231,-0.8858 0.4002,-1.516 -0.7578,-1.451 -0.01241,-0.03166 -0.0216,-0.06519 -0.0332,-0.09766 -0.02581,-0.03831 -0.0232,-0.05703 -0.0332,-0.1328 0.298,-0.1532 1.857,-0.5576 2.309,-0.625 0.01162,0.03331 0.01954,0.06633 0.03125,0.09961 0.03,0.04329 0.0315,0.0808 0.0332,0.1641 -0.2048,0.0999 -0.5018,0.2158 -0.625,0.3965 -0.2801,0.9038 -0.5883,1.964 -0.6934,3.029 0.2289,0.1798 1.321,1.392 1.615,1.781 0.1307,0.1723 0.2603,0.4316 0.4609,0.5273 l 0,-0.06836 c 0.149,-0.2431 0.536,-5.29 0.4277,-5.5 -0.1665,-0.3222 -0.5132,-0.1745 -0.8887,-0.2969 -0.01331,-0.06494 -0.02148,-0.1315 -0.0332,-0.1973 0.03414,-0.01081 0.06715,-0.02233 0.09961,-0.0332 0.1931,-0.1232 1.756,-0.3406 2.01,-0.5254 z"
     id="path4142" />
  <path
     id="path8"
     d="m21.85 6.884s-0.02609 0.03106-0.1738 0.07031c-0.1473 0.03947-0.2732 0.05358-0.3848 0.06836-0.1116 0.01455-0.1113 0.05273-0.1113 0.05273l-0.1934 0.3105s-0.0061 0.02186 0.0098 0.06641c0.01632 0.04454 0.08984 0.09961 0.08984 0.09961s0.1268 0.09322 0.2188 0.1543c0.09192 0.06042 0.08789 0.08008 0.08789 0.08008-0.2476 0.02161-0.3133-0.0085-0.4141-0.05859-0.09794-0.04961-0.1674-0.1613-0.2032-0.2402-0.03617-0.07894-0.1152-0.1465-0.1152-0.1465-0.1294-0.07387-0.3735-0.0762-0.6191-0.0332-0.9997 0.2702-2.063 0.6008-2.93 0.8398-0.3731 0.03793-0.4844-0.0293-0.4844-0.0293-0.06547-0.028-0.05664-0.1152-0.05664-0.1152l0.002-0.2539s-0.008-0.09551-0.08008-0.1348c-0.07233-0.03947-0.1723-0.05412-0.3516-0.0625-0.1788-0.0079-0.3705 0.0097-0.4609 0.0293-0.09019 0.01985-0.2625 0.06786-0.3887 0.209-0.1261 0.1409-0.1055 0.252-0.1055 0.252s0.0083 0.1499 0.01953 0.2617c0.01147 0.1116 0.1055 0.1465 0.1055 0.1465-0.4813 0.2602-0.8622 0.3063-1.482 0.4375 0.0372 0.4534 0.1582 0.8914 0.2539 1.332 0 0 0.02107 0.08121 0.1016 0.1191 0.08027 0.03768 0.2322 0.05195 0.3848-0.0078 0.1524-0.05998 0.1947-0.1268 0.2637-0.207 0.06924-0.08004 0.09375-0.1074 0.09375-0.1074s0.1465-0.1375 0.3262-0.07617c0.1795 0.06152 0.2871 0.2715 0.2871 0.2715l0.0059 0.01172s0.08422 0.1435 0.08398 0.2754c-0.0016 0.01013-0.01391 0.06715-0.1504 0.1719-0.1493 0.114-0.2693 0.1061-0.3691 0.09766-0.09989-0.0088-0.1469-0.01577-0.1758-0.0098l-0.1602 0.0078c-0.1733 0.0247-0.2695 0.08984-0.2695 0.08984-0.3971 0.2351 0.1621 2.049 0.1621 2.049-0.8258 0.1034-1.794 0.2995-2.326 0.4375-0.5319 0.1383-0.5645 0.291-0.5645 0.291-0.114 0.1797 0.03125 0.2734 0.03125 0.2734s0.1832 0.0615 0.2246 0.2617c0.04168 0.2002-0.1719 0.3594-0.1719 0.3594s-0.255 0.2138-0.6387 0.2793c-0.3835 0.06571-0.5298 0.07686-0.7578-0.1035-0.2004-0.159-0.06442-0.4112 0.07031-0.5078 0.135-0.09702 0.1992-0.2011 0.2168-0.2461 0.01704-0.04454 0.0078-0.08203 0.0078-0.08203l-0.1289-0.1172c-0.4419-0.2937-2.178 0.01172-2.178 0.01172-0.1743-0.6768 0.02237-1.092 0.2656-1.645 0 0 0.09838-0.1627 0.2715-0.1797 0.1735-0.01676 0.2216 0.03347 0.3027 0.04297 0.2895 0.03484 0.3359-0.03711 0.3359-0.03711 0.215-0.1579 0.3047-0.3809 0.3047-0.3809 0.1308-0.3217 0.01089-0.6472-0.04687-0.7109-0.071-0.0774-0.2285-0.1934-0.2285-0.1934s-0.0958-0.08102-0.2402-0.0078c-0.1147 0.05821-0.1543 0.04492-0.1543 0.04492 0.0682-0.5807 0.4008-1.107 0.668-1.633 0.09261-0.2428 0.08984-0.4277 0.08984-0.4277s-0.176-0.223-0.2012-0.2578c-0.02558-0.03484-0.06055-0.04883-0.06055-0.04883-0.04542 0.01742-0.07617 0.02148-0.07617 0.02148l0.03906-0.03125s0.09344-0.1069 0.2363-0.07227c0.1429 0.03462 0.2461-0.0293 0.2461-0.0293 0.2229-0.1685 0.3652-0.4805 0.3652-0.4805l0.21-0.439-0.18-0.295s-0.02807-0.0051-0.2148 0.05859c-0.187 0.06351-0.3125 0.1328-0.3125 0.1328l-0.111-0.17-0.014-0.013s-0.0288-0.03056-0.1973 0.0078c-0.1689 0.03837-0.3959 0.1692-0.4902 0.2949-0.09416 0.1255-0.1055 0.1895-0.1055 0.1895-0.3952 0.3464-0.7207 0.4824-0.7207 0.4824-0.09217 0.01058-0.1484 0.05469-0.1484 0.05469-0.3151 0.2659-0.6953 0.7129-0.6953 0.7129s-0.00911 0.0074-0.02344 0.03516c-0.01433 0.02778-0.04301 0.1368-0.03906 0.1582 0.00375 0.02161 0.0293 0.03906 0.0293 0.03906-0.00113 0.0013-0.00107 0.0028-0.00195 0.0039-0.2653 0.3577-0.375 0.4512-0.375 0.4512-0.01434-0.02029-0.04102-0.01563-0.04102-0.01563-0.04476 0.01301-0.1641 0.08984-0.1641 0.08984-0.09835 0.1389-0.3594 0.5742-0.3594 0.5742l-0.01562 0.0039c-0.02668 0.01058-0.07812 0.04883-0.07812 0.04883l-0.01953-0.0078-0.1504 0.08399c-0.6816 1.121-1.173 2.371-1.428 3.705l0.01953 0.07226-0.05469 0.125c-0.387 2.625 0.07354 5.37 1.387 7.635l0.04688 0.0332 0.02148 0.08008c1.97 3.25 5.538 5.42 9.618 5.42 5.883 0 10.71-4.516 11.2-10.27 0.03218-0.3282 0.03308-0.6837 0.04297-0.9707 0-1.007-0.1339-1.985-0.3828-2.914l-0.06055-0.2168c-0.3768-1.302-1.007-2.541-1.795-3.602l-0.1367-0.05664-0.04297 0.03125-0.07617 0.05078c0.02095 0.09923 0.04492 0.1875 0.04492 0.1875-0.1014-0.09394-0.3711-0.4609-0.3711-0.4609-0.2595-0.2856-0.4629-0.5742-0.4629-0.5742l0.02148-0.03516-0.04883-0.1504c-0.08-0.198-0.44-0.486-0.44-0.486s-0.1282-0.09104-0.2148-0.125c-0.08622-0.03396-0.1836-0.03711-0.1836-0.03711l-0.04297 0.05273c-0.24-0.161-1.03-0.791-1.03-0.791zm0.5293 6.293c0.06494 0.01248 0.0599 0.0074 0.0957 0.0332 0.0258 0.03329 0.01235 0.0087 0.0332 0.06445 0.04745 0.07493 0.01749 0.111 0 0.1992-0.9083 0.2215-0.6236 1.104-0.8242 2.01-0.1474 0.6718-0.5443 4.711-0.6934 5.828-0.0791 0.04326-0.09589 0.05865-0.2324 0.06445-0.4712-0.7251-2.099-2.604-2.371-2.701-0.03746 0.4013-0.5805 2.752-0.7578 3.525-0.08326 0.04492-0.1146 0.06115-0.2637 0.06445-0.2456-0.3988-0.6136-0.716-0.8867-1.084-0.701-0.9482-3.654-4.61-4.314-4.811-0.2523-0.0766-0.5276-0.0042-0.7891 0-0.04663-0.08409-0.08018-0.1039-0.09766-0.2305 0.03081-0.01167 0.06435-0.02241 0.09766-0.0332 0.2506-0.1823 2.263-0.7218 2.932-0.8242 0.01256 0.0341 0.02182 0.06603 0.03516 0.09766 0.05995 0.08575 0.04374 0.09736 0.03125 0.1973-0.2281 0.02747-0.4666 0.2058-0.5273 0.3965-0.0583 0.07326-0.06641 0.1578-0.06641 0.2969 0.7917 1.001 3.67 4.382 3.723 4.514 0.02583-0.03414 0.01239-0.009 0.0332-0.06641 0.1349-0.2106 0.4625-1.958 0.4941-2.537-0.2323-0.1648-2.277-2.609-2.633-2.734-0.2223-0.07826-0.5044-0.000743-0.6934-0.0332v-0.06641c-0.03-0.04246-0.0299-0.08081-0.0332-0.1641h0.0332v-0.0332c0.9649-0.05079 1.712-0.5325 2.57-0.6582 0.05497 0.0924 0.08517 0.1113 0.09766 0.2637-0.2772 0.1024-0.5738 0.1948-0.5938 0.5586 0.09824 0.1032 1.245 1.352 1.482 1.713h0.03125v-0.06445c0.1415-0.2106 0.09609-0.5841 0.166-0.8555 0.2231-0.8858 0.4002-1.516-0.7578-1.451-0.01241-0.03166-0.0216-0.06519-0.0332-0.09766-0.02581-0.03831-0.0232-0.05703-0.0332-0.1328 0.298-0.1532 1.857-0.5576 2.309-0.625 0.01162 0.03331 0.01954 0.06633 0.03125 0.09961 0.03 0.04329 0.0315 0.0808 0.0332 0.1641-0.2048 0.0999-0.5018 0.2158-0.625 0.3965-0.2801 0.9038-0.5883 1.964-0.6934 3.029 0.2289 0.1798 1.321 1.392 1.615 1.781 0.1307 0.1723 0.2603 0.4316 0.4609 0.5273v-0.06836c0.149-0.2431 0.536-5.29 0.4277-5.5-0.1665-0.3222-0.5132-0.1745-0.8887-0.2969-0.01331-0.06494-0.02148-0.1315-0.0332-0.1973 0.03414-0.01081 0.06715-0.02233 0.09961-0.0332 0.1931-0.1232 1.756-0.3406 2.01-0.5254z"
     style="enable-background:new;fill:#fff" />
</svg>
