<?xml version="1.0" encoding="UTF-8" standalone="no"?>
<svg xmlns:rdf="http://www.w3.org/1999/02/22-rdf-syntax-ns#" xmlns="http://www.w3.org/2000/svg" height="32" width="32" version="1.0" xmlns:cc="http://creativecommons.org/ns#" xmlns:dc="http://purl.org/dc/elements/1.1/">
 <path d="m0 0v32h32v-32z" style="fill:#dea857" fill="#333"/>
 <g transform="matrix(.8197 0 0 .8197 -3.582 -2.332)">
  <path style="opacity:.1" d="m14 11v25.5c1 0.5 0 0.5 20.5 0.5 0.83 0 1.5-0.67 1.5-1.5v-22c0-0.68-0.45-1.24-1.07-1.43-0.19-0.62-0.75-1.07-1.43-1.07"/>
  <path style="fill:#dcdad2" d="m14 11-1 24.5c1 0.5 0 0.5 20.5 0.5 0.83 0 1.5-0.67 1.5-1.5v-22c0-0.83-0.67-1.5-1.5-1.5z"/>
  <path style="fill:#f7f4d5" d="m13 10v25.5c1-0.5 0-0.5 19.5-0.5 0.83 0 1.5-0.67 1.5-1.5v-22c0-0.83-0.67-1.5-1.5-1.5z"/>
  <g transform="matrix(1.006 0 0 .9936 0 1)">
   <path style="fill:#525252" d="m15.3 11.07v4.03h0.732v-3l1.981 3h0.892v-4.03h-0.732v2.984l-1.993-2.984h-0.881z"/>
   <path style="fill:#525252" d="m19.79 15.1h2.541v-0.657h-1.85v-1.141h1.647v-0.657h-1.647v-0.913h1.85v-0.657h-2.541z"/>
   <path style="fill:#525252" d="m22.65 11.07 1.043 4.03h0.752l0.904-2.919 0.765 2.919h0.752l1.249-4.03h-0.753l-0.844 2.818-0.751-2.818h-0.784l-0.929 2.818-0.65-2.818z"/>
   <path style="fill:#525252" d="m29.93 11.64c0.418 0 0.694 0.094 1.03 0.224l0.241-0.644-0.082-0.03c-0.371-0.136-0.694-0.218-1.212-0.218-0.818 0-1.535 0.372-1.535 1.163 0 0.821 0.653 1.045 1.294 1.24 0.335 0.1 0.947 0.283 0.947 0.614 0 0.401-0.494 0.543-0.93 0.543-0.294 0-0.665-0.083-1.118-0.254l-0.112-0.047-0.247 0.632 0.094 0.047c0.459 0.177 0.759 0.289 1.324 0.289 0.924 0 1.712-0.348 1.712-1.21 0-0.815-0.665-1.039-1.306-1.24-0.312-0.094-0.935-0.295-0.935-0.584 0-0.39 0.412-0.525 0.835-0.525z"/>
  </g>
  <path style="fill:#6a6a6a" d="m15 18v10h10v-10z"/>
  <rect style="fill:#6a6a6a" height="1" width="5" y="18" x="27"/>
  <rect style="fill:#6a6a6a" height="1" width="5" y="20" x="27"/>
  <rect style="fill:#6a6a6a" height="1" width="5" y="22" x="27"/>
  <rect style="fill:#6a6a6a" height="1" width="5" y="24" x="27"/>
  <rect style="fill:#6a6a6a" height="1" width="3" y="26" x="27"/>
  <rect style="fill:#6a6a6a" height="1" width="17" y="30" x="15"/>
  <rect style="fill:#6a6a6a" height="1" width="8" y="32" x="15"/>
  <rect style="fill:#6a6a6a" height="1" width="7" y="32" x="24"/>
 </g>
</svg>
