<?xml version="1.0" encoding="UTF-8" standalone="no"?>
<svg xmlns:rdf="http://www.w3.org/1999/02/22-rdf-syntax-ns#" xmlns="http://www.w3.org/2000/svg" xmlns:osb="http://www.openswatchbook.org/uri/2009/osb" height="32" width="32" version="1.0" xmlns:cc="http://creativecommons.org/ns#" xmlns:xlink="http://www.w3.org/1999/xlink" xmlns:dc="http://purl.org/dc/elements/1.1/">
 <path style="color:#000000;fill:#434343" d="m0 0v32h32v-32z"/>
 <g transform="matrix(.8327 0 0 .8327 -3.39 -3.994)">
  <g transform="translate(1,1)">
   <g style="opacity:.1">
    <path d="m20.67 14-8.67 14.66l4.332 7.332h17.34l4.332-7.332-8.668-14.67h-8.664zm4.332 7.332 4.332 7.336h-8.668l4.34-7.34z" style="fill-rule:evenodd" transform="translate(-1,-1)"/>
   </g>
  </g>
  <path style="fill:#3e86fb;fill-rule:evenodd" d="m19.67 27.66h17.33l-4.332 7.332h-17.34m4.336-7.332"/>
  <path style="fill:#fbcf4b;fill-rule:evenodd" d="m37 27.66-8.668-14.67h-8.664l8.664 14.67m8.668 0"/>
  <path style="fill:#0aa35f;fill-rule:evenodd" d="m15.33 35 8.67-14.67-4.33-7.33-8.67 14.66m4.332 7.332"/>
 </g>
</svg>
