<?xml version="1.0" encoding="UTF-8" standalone="no"?>
<svg xmlns:rdf="http://www.w3.org/1999/02/22-rdf-syntax-ns#" xmlns="http://www.w3.org/2000/svg" height="32" width="32" version="1.0" xmlns:cc="http://creativecommons.org/ns#" xmlns:dc="http://purl.org/dc/elements/1.1/">
 <path style="fill:#fff" d="m0 0v32h32v-32z"/>
 <g style="opacity:.1" transform="matrix(1.152 0 0 1.152 4.6 4.6)">
  <g>
   <path d="m17.81 2.018c2.017 0.053 3.026 1.198 3.036 3.438 0 0.147-0.005 0.3-0.013 0.457-0.089 1.899-1.502 4.486-4.245 7.76-2.829 3.43-5.229 5.147-7.2 5.156-1.226 0-2.244-1.05-3.061-3.151l-0.86-2.89-0.848-2.878c-0.625-2.084-1.293-3.124-2.006-3.124-0.156 0-0.697 0.304-1.626 0.91l-0.99-1.171 1.536-1.276 1.511-1.263c1.353-1.084 2.382-1.67 3.088-1.757 0.094-0.01 0.188-0.013 0.284-0.013 1.449 0 2.354 1.041 2.709 3.124 0.198 1.188 0.362 2.154 0.495 2.896 0.129 0.744 0.237 1.262 0.323 1.557 0.479 1.97 0.995 2.96 1.55 2.968 0.426 0 1.082-0.642 1.968-1.926 0.866-1.319 1.332-2.296 1.392-2.932 0.019-0.129 0.026-0.25 0.026-0.362 0-0.861-0.474-1.29-1.418-1.29-0.479 0-0.99 0.102-1.537 0.299 0.98-3.021 2.864-4.534 5.65-4.544h0.234z"/>
  </g>
 </g>
 <g style="fill:#37d7e0" transform="matrix(1.152 0 0 1.152 3.991 3.991)">
  <g style="fill:#37d7e0">
   <path style="fill:#37d7e0" d="m17.81 2.018c2.017 0.053 3.026 1.198 3.036 3.438 0 0.147-0.005 0.3-0.013 0.457-0.089 1.899-1.502 4.486-4.245 7.76-2.829 3.43-5.229 5.147-7.2 5.156-1.226 0-2.244-1.05-3.061-3.151l-0.86-2.89-0.848-2.878c-0.625-2.084-1.293-3.124-2.006-3.124-0.156 0-0.697 0.304-1.626 0.91l-0.99-1.171 1.536-1.276 1.511-1.263c1.353-1.084 2.382-1.67 3.088-1.757 0.094-0.01 0.188-0.013 0.284-0.013 1.449 0 2.354 1.041 2.709 3.124 0.198 1.188 0.362 2.154 0.495 2.896 0.129 0.744 0.237 1.262 0.323 1.557 0.479 1.97 0.995 2.96 1.55 2.968 0.426 0 1.082-0.642 1.968-1.926 0.866-1.319 1.332-2.296 1.392-2.932 0.019-0.129 0.026-0.25 0.026-0.362 0-0.861-0.474-1.29-1.418-1.29-0.479 0-0.99 0.102-1.537 0.299 0.98-3.021 2.864-4.534 5.65-4.544h0.234z"/>
  </g>
 </g>
</svg>
