<?xml version="1.0" encoding="UTF-8" standalone="no"?>
<svg xmlns:rdf="http://www.w3.org/1999/02/22-rdf-syntax-ns#" xmlns="http://www.w3.org/2000/svg" xmlns:osb="http://www.openswatchbook.org/uri/2009/osb" height="32" width="32" version="1.0" xmlns:cc="http://creativecommons.org/ns#" xmlns:xlink="http://www.w3.org/1999/xlink" xmlns:dc="http://purl.org/dc/elements/1.1/">
 <path style="color:#000000;fill:#b13d6e" d="m0 0v32h32v-32z"/>
 <path style="opacity:.1" d="m24.73 12.95c0 2.453-0.8705 4.511-2.651 6.014-0.07914 0-0.554 0.5144-0.554 0.5144l-0.07914 0.07914c-0.7122 0.9892-1.227 3.799-1.345 6.014-0.07914-0.07914-0.1583-0.07914-0.277-0.07914h-4.669c-0.9892 0-0.9892 1.504 0 1.504h4.669 0.1978c-0.277 1.306-1.424 2.295-2.73 2.295h-1.583c-1.504 0-2.73-1.227-2.73-2.73v-0.1583c0-0.9892-0.07914-2.018-0.277-3.086h4.946c0.9892 0 0.9892-1.504 0-1.504h-4.709c-0.07914 0-0.1978 0.07914-0.277 0.07914-0.1583-0.9892-0.554-1.86-0.7914-2.295l-0.4353-0.5144-0.07914-0.07914c-1.782-1.49-2.732-3.55-2.732-6.01 0-4.432 3.64-8.072 8.072-8.072 4.392 0 8.032 3.601 8.032 8.032z"/>
 <path style="fill:#eaff20" d="m24.12 12.35c0 2.453-0.8705 4.511-2.651 6.014-0.07914 0-0.554 0.5144-0.554 0.5144l-0.07914 0.07914c-0.7122 0.9892-1.227 3.799-1.345 6.014-0.07914-0.07914-0.1583-0.07914-0.277-0.07914h-4.669c-0.9892 0-0.9892 1.504 0 1.504h4.669 0.1978c-0.277 1.306-1.424 2.295-2.73 2.295h-1.583c-1.504 0-2.73-1.227-2.73-2.73v-0.1583c0-0.9892-0.07914-2.018-0.277-3.086h4.946c0.9892 0 0.9892-1.504 0-1.504h-4.709c-0.07914 0-0.1978 0.07914-0.277 0.07914-0.1583-0.9892-0.554-1.86-0.7914-2.295l-0.4353-0.5144-0.07914-0.07914c-1.791-1.5-2.741-3.56-2.741-6.01 0-4.432 3.64-8.072 8.072-8.072 4.392 0 8.032 3.601 8.032 8.032z"/>
</svg>
