<?xml version="1.0" encoding="UTF-8" standalone="no"?>
<svg
   xmlns:osb="http://www.openswatchbook.org/uri/2009/osb"
   xmlns:dc="http://purl.org/dc/elements/1.1/"
   xmlns:cc="http://creativecommons.org/ns#"
   xmlns:rdf="http://www.w3.org/1999/02/22-rdf-syntax-ns#"
   xmlns:svg="http://www.w3.org/2000/svg"
   xmlns="http://www.w3.org/2000/svg"
   xmlns:xlink="http://www.w3.org/1999/xlink"
   id="svg7649"
   version="1.0"
   width="32"
   height="32">
  <metadata
     id="metadata7661">
    <rdf:RDF>
      <cc:Work
         rdf:about="">
        <dc:format>image/svg+xml</dc:format>
        <dc:type
           rdf:resource="http://purl.org/dc/dcmitype/StillImage" />
        <dc:title></dc:title>
      </cc:Work>
    </rdf:RDF>
  </metadata>
  <defs
     id="defs7659">
    <linearGradient
       gradientTransform="matrix(0,-1,1,0,-1.5e-6,47.999998)"
       gradientUnits="userSpaceOnUse"
       x2="47"
       x1="1"
       id="linearGradient3764">
      <stop
         id="stop7"
         style="stop-color:#344e8e;stop-opacity:1" />
      <stop
         id="stop9"
         style="stop-color:#3a569c;stop-opacity:1"
         offset="1" />
    </linearGradient>
    <linearGradient
       gradientTransform="matrix(0,-1,1,0,44.444443,47.999998)"
       gradientUnits="userSpaceOnUse"
       x2="47"
       x1="1"
       id="linearGradient3764-1">
      <stop
         id="stop7-0"
         style="stop-color:#f7b747;stop-opacity:1" />
      <stop
         id="stop9-3"
         style="stop-color:#f8bd5a;stop-opacity:1"
         offset="1" />
    </linearGradient>
    <linearGradient
       gradientTransform="matrix(0,-1,1,0,-1.5e-6,47.999998)"
       gradientUnits="userSpaceOnUse"
       x2="47"
       x1="1"
       id="linearGradient3764-6">
      <stop
         id="stop7-7"
         style="stop-color:#f6b042;stop-opacity:1" />
      <stop
         id="stop9-32"
         style="stop-color:#f7b754;stop-opacity:1"
         offset="1" />
    </linearGradient>
    <linearGradient
       gradientTransform="matrix(0,-1,1,0,-1.5e-6,47.999998)"
       gradientUnits="userSpaceOnUse"
       x2="47"
       x1="1"
       id="linearGradient3764-2">
      <stop
         id="stop7-1"
         style="stop-color:#ad897f;stop-opacity:1" />
      <stop
         id="stop9-5"
         style="stop-color:#b5948b;stop-opacity:1"
         offset="1" />
    </linearGradient>
    <linearGradient
       id="linearGradient3874">
      <stop
         id="stop3876"
         offset="0"
         style="stop-color:#ffffff;stop-opacity:1;" />
      <stop
         id="stop3878"
         offset="1"
         style="stop-color:#ffffff;stop-opacity:0;" />
    </linearGradient>
    <linearGradient
       id="linearGradient3858">
      <stop
         style="stop-color:#000000;stop-opacity:1;"
         offset="0"
         id="stop3860" />
      <stop
         style="stop-color:#000000;stop-opacity:0;"
         offset="1"
         id="stop3862" />
    </linearGradient>
    <linearGradient
       id="linearGradient3045">
      <stop
         style="stop-color:#91bedd;stop-opacity:1;"
         offset="0"
         id="stop3047" />
      <stop
         style="stop-color:#4986b1;stop-opacity:1;"
         offset="1"
         id="stop3049" />
    </linearGradient>
    <linearGradient
       id="linearGradient4213">
      <stop
         id="stop4215"
         offset="0"
         style="stop-color:#b1d7f3;stop-opacity:1" />
      <stop
         id="stop4217"
         offset="1"
         style="stop-color:#8fafda;stop-opacity:1" />
    </linearGradient>
    <linearGradient
       id="linearGradient5460"
       osb:paint="gradient">
      <stop
         style="stop-color:#e6e6e6;stop-opacity:1"
         offset="0"
         id="stop5462" />
      <stop
         style="stop-color:#ffffff;stop-opacity:1"
         offset="1"
         id="stop5464" />
    </linearGradient>
    <linearGradient
       id="linearGradient5476"
       osb:paint="solid">
      <stop
         style="stop-color:#772953;stop-opacity:1;"
         offset="0"
         id="stop5478" />
    </linearGradient>
    <linearGradient
       xlink:href="#linearGradient4213"
       id="linearGradient3037"
       gradientUnits="userSpaceOnUse"
       x1="144"
       y1="918.36218"
       x2="144"
       y2="1052.3622"
       gradientTransform="matrix(1.7777778,0,0,1.7761194,16,-1563.3597)" />
    <filter
       id="filter4223"
       style="color-interpolation-filters:sRGB">
      <feBlend
         id="feBlend4225"
         in2="BackgroundImage"
         mode="multiply" />
    </filter>
    <filter
       id="filter4154"
       style="color-interpolation-filters:sRGB">
      <feComposite
         id="feComposite4156"
         in2="SourceGraphic"
         k3="0"
         k2="1"
         k1="0"
         result="composite1"
         k4="0"
         operator="arithmetic" />
      <feColorMatrix
         id="feColorMatrix4158"
         type="saturate"
         values="0"
         result="colormatrix1"
         in="composite1" />
      <feFlood
         id="feFlood4160"
         result="flood1"
         flood-color="rgb(72,59,72)" />
      <feBlend
         id="feBlend4162"
         result="blend1"
         mode="multiply"
         in2="colormatrix1"
         in="flood1" />
      <feBlend
         id="feBlend4164"
         mode="screen"
         in2="blend1"
         result="blend2" />
      <feColorMatrix
         id="feColorMatrix4166"
         type="saturate"
         values="1"
         result="colormatrix2"
         in="blend2" />
      <feComposite
         id="feComposite4168"
         operator="in"
         result="composite2"
         in2="SourceGraphic"
         in="colormatrix2" />
    </filter>
    <linearGradient
       xlink:href="#linearGradient3858"
       id="linearGradient3864"
       x1="272"
       y1="256"
       x2="368"
       y2="352"
       gradientUnits="userSpaceOnUse" />
    <linearGradient
       xlink:href="#linearGradient3874"
       id="linearGradient3872"
       gradientUnits="userSpaceOnUse"
       x1="272"
       y1="256"
       x2="368"
       y2="352"
       gradientTransform="rotate(180,272,272)" />
    <linearGradient
       xlink:href="#linearGradient3874"
       id="linearGradient3906"
       gradientUnits="userSpaceOnUse"
       gradientTransform="rotate(180,272,272)"
       x1="288"
       y1="264"
       x2="360"
       y2="328" />
    <linearGradient
       xlink:href="#linearGradient3858"
       id="linearGradient3908"
       gradientUnits="userSpaceOnUse"
       x1="288"
       y1="272"
       x2="368"
       y2="352" />
    <clipPath
       clipPathUnits="userSpaceOnUse"
       id="clipPath9430">
      <path
         id="path9432"
         d="m 166.0625,-196 179.875,0 C 491.2348,-196 512,-175.28677 512,-30.125 l 0,148.25 C 512,263.28618 491.2348,284 345.9375,284 l -179.875,0 C 20.7652,284 0,263.28618 0,118.125 L 0,-30.125 C 0,-175.28677 20.7652,-196 166.0625,-196 Z"
         style="color:#000000;display:inline;overflow:visible;visibility:visible;fill:#ffffff;fill-opacity:1;fill-rule:nonzero;stroke:none;stroke-width:1;marker:none;enable-background:new" />
    </clipPath>
    <linearGradient
       gradientTransform="matrix(0,-1,1,0,-1.5e-6,47.999998)"
       gradientUnits="userSpaceOnUse"
       x2="47"
       x1="1"
       id="linearGradient3764-3">
      <stop
         id="stop7-3"
         style="stop-color:#4eb470;stop-opacity:1" />
      <stop
         id="stop9-8"
         style="stop-color:#5dba7c;stop-opacity:1"
         offset="1" />
    </linearGradient>
    <linearGradient
       gradientTransform="matrix(3.543307,0,0,3.543307,-1,0)"
       x2="10.442"
       x1="3.669"
       gradientUnits="userSpaceOnUse"
       id="linear0">
      <stop
         id="stop12"
         style="stop-color:#e2f4fb;stop-opacity:1" />
      <stop
         id="stop14"
         style="stop-color:#f9f9f9;stop-opacity:1"
         offset="1" />
    </linearGradient>
    <linearGradient
       gradientTransform="matrix(0,-1,1,0,-1.5e-6,47.999998)"
       gradientUnits="userSpaceOnUse"
       x2="47"
       x1="1"
       id="linearGradient3764-28">
      <stop
         id="stop7-5"
         style="stop-color:#18aa86;stop-opacity:1" />
      <stop
         id="stop9-80"
         style="stop-color:#1abc95;stop-opacity:1"
         offset="1" />
    </linearGradient>
    <linearGradient
       gradientTransform="matrix(0,-1,1,0,-1.5e-6,47.999998)"
       gradientUnits="userSpaceOnUse"
       x2="47"
       x1="1"
       id="linearGradient3764-8">
      <stop
         id="stop7-6"
         style="stop-color:#5dbacb;stop-opacity:1" />
      <stop
         id="stop9-9"
         style="stop-color:#6cc0d0;stop-opacity:1"
         offset="1" />
    </linearGradient>
    <linearGradient
       gradientUnits="userSpaceOnUse"
       x2="24"
       x1="21"
       id="linearGradient4251"
       xlink:href="#linearGradient4309" />
    <linearGradient
       id="linearGradient4309">
      <stop
         id="stop13"
         style="stop-color:#eff5eb;stop-opacity:1" />
      <stop
         id="stop15"
         style="stop-color:#d1e2c4;stop-opacity:1"
         offset="1" />
    </linearGradient>
    <linearGradient
       gradientTransform="matrix(-1,0,0,1,48,0)"
       x2="24"
       x1="21"
       gradientUnits="userSpaceOnUse"
       id="linearGradient4265"
       xlink:href="#linearGradient4309" />
    <linearGradient
       gradientUnits="userSpaceOnUse"
       y2="1"
       x2="0"
       y1="47"
       id="linearGradient3845">
      <stop
         id="stop7-33"
         style="stop-color:#24bbd2;stop-opacity:1" />
      <stop
         id="stop9-7"
         style="stop-color:#2fc4db;stop-opacity:1"
         offset="1" />
    </linearGradient>
    <linearGradient
       gradientTransform="matrix(0,-1,1,0,-1.5e-6,47.999998)"
       gradientUnits="userSpaceOnUse"
       x2="47"
       x1="1"
       id="linearGradient3764-4">
      <stop
         id="stop7-37"
         style="stop-color:#de4f48;stop-opacity:1" />
      <stop
         id="stop9-1"
         style="stop-color:#e16059;stop-opacity:1"
         offset="1" />
    </linearGradient>
    <linearGradient
       gradientTransform="matrix(0,-1,1,0,-1.5e-6,47.999998)"
       gradientUnits="userSpaceOnUse"
       x2="47"
       x1="1"
       id="linearGradient3764-39">
      <stop
         id="stop7-64"
         style="stop-color:#ee810c;stop-opacity:1" />
      <stop
         id="stop9-2"
         style="stop-color:#f38b1b;stop-opacity:1"
         offset="1" />
    </linearGradient>
    <linearGradient
       gradientTransform="matrix(0,-1,1,0,-1.5e-6,47.999998)"
       gradientUnits="userSpaceOnUse"
       x2="47"
       x1="1"
       id="linearGradient3764-0">
      <stop
         id="stop7-2"
         style="stop-color:#3db0e3;stop-opacity:1" />
      <stop
         id="stop9-95"
         style="stop-color:#50b8e6;stop-opacity:1"
         offset="1" />
    </linearGradient>
    <linearGradient
       id="linearGradient3102-2"
       gradientUnits="userSpaceOnUse"
       gradientTransform="matrix(0.05622958,0,0,0.05622958,0.07160145,-0.0527796)"
       x1="135"
       y1="120"
       x2="160"
       y2="160">
      <stop
         id="stop12-7"
         style="stop-color:#eff7fc" />
      <stop
         id="stop14-4"
         style="stop-color:#fff"
         offset="1" />
    </linearGradient>
    <linearGradient
       gradientTransform="matrix(0,-1,1,0,-1.5e-6,47.999998)"
       gradientUnits="userSpaceOnUse"
       x2="47"
       x1="1"
       id="linearGradient3764-64">
      <stop
         id="stop7-9"
         style="stop-color:#575757;stop-opacity:1" />
      <stop
         id="stop9-12"
         style="stop-color:#616161;stop-opacity:1"
         offset="1" />
    </linearGradient>
    <linearGradient
       gradientTransform="matrix(0,-1,1,0,-1.5e-6,47.999998)"
       gradientUnits="userSpaceOnUse"
       x2="47"
       x1="1"
       id="linearGradient3764-31">
      <stop
         id="stop7-8"
         style="stop-color:#315bd1;stop-opacity:1" />
      <stop
         id="stop9-13"
         style="stop-color:#4166d4;stop-opacity:1"
         offset="1" />
    </linearGradient>
    <linearGradient
       gradientUnits="userSpaceOnUse"
       y2="1"
       x2="0"
       y1="47"
       id="linearGradient3764-89">
      <stop
         id="stop7-24"
         style="stop-color:#23bd88;stop-opacity:1" />
      <stop
         id="stop9-51"
         style="stop-color:#26cd93;stop-opacity:1"
         offset="1" />
    </linearGradient>
    <linearGradient
       gradientTransform="matrix(0,-1,1,0,-1.5e-6,47.999998)"
       gradientUnits="userSpaceOnUse"
       x2="47"
       x1="1"
       id="linearGradient3764-00">
      <stop
         id="stop7-13"
         style="stop-color:#075f93;stop-opacity:1" />
      <stop
         id="stop9-30"
         style="stop-color:#086ba6;stop-opacity:1"
         offset="1" />
    </linearGradient>
    <linearGradient
       gradientTransform="matrix(0.9,0,0,0.9,2.4499,2.45)"
       gradientUnits="userSpaceOnUse"
       y2="1"
       x2="0"
       y1="47"
       id="linearGradient3764-002">
      <stop
         id="stop7-22"
         style="stop-color:#67ac5e;stop-opacity:1" />
      <stop
         id="stop9-4"
         style="stop-color:#74b36b;stop-opacity:1"
         offset="1" />
    </linearGradient>
    <linearGradient
       gradientTransform="matrix(0,-1,1,0,-1.5e-6,47.999998)"
       gradientUnits="userSpaceOnUse"
       x2="47"
       x1="1"
       id="linearGradient3764-7">
      <stop
         id="stop7-86"
         style="stop-color:#f6b042;stop-opacity:1" />
      <stop
         id="stop9-0"
         style="stop-color:#f7b754;stop-opacity:1"
         offset="1" />
    </linearGradient>
    <linearGradient
       x2="-24"
       x1="-27"
       gradientUnits="userSpaceOnUse"
       id="linearGradient3357">
      <stop
         style="stop-color:#e25543;stop-opacity:1"
         id="stop14433" />
      <stop
         offset="1"
         style="stop-color:#e96b5a;stop-opacity:1"
         id="stop14435" />
    </linearGradient>
    <linearGradient
       id="linearGradient3764-06"
       x1="1"
       x2="47"
       gradientUnits="userSpaceOnUse"
       gradientTransform="matrix(0,-1,1,0,-1.5e-6,47.999998)">
      <stop
         style="stop-color:#324162;stop-opacity:1"
         id="stop14589" />
      <stop
         offset="1"
         style="stop-color:#394a6f;stop-opacity:1"
         id="stop14591" />
    </linearGradient>
    <linearGradient
       id="linear0-4"
       gradientUnits="userSpaceOnUse"
       x1="13"
       y1="28"
       x2="15"
       y2="29">
      <stop
         style="stop-color:#35587c;stop-opacity:1"
         id="stop14594" />
      <stop
         offset="1"
         style="stop-color:#335276;stop-opacity:1"
         id="stop14596" />
    </linearGradient>
    <linearGradient
       id="linear1"
       gradientUnits="userSpaceOnUse"
       x1="12.906"
       y1="27.547"
       x2="24"
       y2="28">
      <stop
         style="stop-color:#3d6084;stop-opacity:1"
         id="stop14599" />
      <stop
         offset="1"
         style="stop-color:#2f5175;stop-opacity:1"
         id="stop14601" />
    </linearGradient>
    <linearGradient
       id="linear2"
       gradientUnits="userSpaceOnUse"
       x1="27"
       y1="35"
       x2="35"
       y2="24">
      <stop
         style="stop-color:#375b80;stop-opacity:1"
         id="stop14604" />
      <stop
         offset="1"
         style="stop-color:#3d6185;stop-opacity:1"
         id="stop14606" />
    </linearGradient>
    <linearGradient
       id="linearGradient4193"
       x1="1"
       x2="47"
       gradientUnits="userSpaceOnUse">
      <stop
         style="stop-color:#2ebd59;stop-opacity:1"
         id="stop14736" />
      <stop
         offset="1"
         style="stop-color:#33cd61;stop-opacity:1"
         id="stop14738" />
    </linearGradient>
    <linearGradient
       id="linearGradient3764-37"
       x1="1"
       x2="47"
       gradientUnits="userSpaceOnUse"
       gradientTransform="matrix(0,-1,1,0,-1.5e-6,47.999998)">
      <stop
         style="stop-color:#b471e3;stop-opacity:1"
         id="stop15099" />
      <stop
         offset="1"
         style="stop-color:#bd82e6;stop-opacity:1"
         id="stop15101" />
    </linearGradient>
    <linearGradient
       id="linearGradient3189"
       gradientUnits="userSpaceOnUse"
       gradientTransform="matrix(0,-1,1,0,-1.5e-6,47.999998)"
       x1="1"
       x2="47">
      <stop
         style="stop-color:#e4e4e4;stop-opacity:1"
         id="stop16051" />
      <stop
         offset="1"
         style="stop-color:#eee;stop-opacity:1"
         id="stop16053" />
    </linearGradient>
  </defs>
  <path
     d="M 0,12.353467 0,32 32,32 32,12.353467 Z"
     style="color:#000000;fill:#e9e9e9;fill-opacity:1"
     id="path16127" />
  <path
     id="path7651"
     style="color:#000000;fill:#000000;fill-opacity:1;opacity:0.1"
     d="m 0,0.57270688 0,12.35793912 32,0 0,-12.35793912 z" />
  <path
     d="m 0,0 0,12.357942 32,0 L 32,0 Z"
     style="color:#000000;fill:#d64936;fill-opacity:1"
     id="path16129" />
  <g
     transform="matrix(0.4699189,0,0,0.4699189,4.487457,4.4506628)"
     id="g16104">
    <path
       d="m 31,12 c 0,1.105 -0.891,2 -1.996,2 -1.109,0 -2,-0.895 -2,-2 0,-1.102 0.891,-1.996 2,-1.996 1.105,0 1.996,0.898 1.996,1.996 m 0,0"
       style="fill:#7f2c20;fill-opacity:1;fill-rule:nonzero;stroke:none"
       id="path16069" />
    <path
       d="m 36,12 c 0,1.105 -0.895,2 -2,2 -1.105,0 -1.996,-0.895 -1.996,-2 0,-1.102 0.891,-1.996 1.996,-1.996 1.105,0 2,0.898 2,1.996 m 0,0"
       style="fill:#7f2c20;fill-opacity:1;fill-rule:nonzero;stroke:none"
       id="path16071" />
    <path
       d="m 34,13 c 1,0 1,-1 1,-1 0,0 0,-0.996 -1,-0.996 l -4.996,0 c -1,0 -1,0.996 -1,0.996 0,0 0,1 1,1 M 34,13"
       style="fill:#dcdcdc;fill-opacity:1;fill-rule:nonzero;stroke:none"
       id="path16073" />
    <path
       d="m 16,12 c 0,1.105 -0.891,2 -1.996,2 -1.105,0 -2,-0.895 -2,-2 0,-1.102 0.895,-1.996 2,-1.996 1.105,0 1.996,0.898 1.996,1.996 m 0,0"
       style="fill:#7f2c20;fill-opacity:1;fill-rule:nonzero;stroke:none"
       id="path16075" />
    <path
       d="m 21,12 c 0,1.105 -0.891,2 -1.996,2 -1.105,0 -2,-0.895 -2,-2 0,-1.102 0.895,-1.996 2,-1.996 1.105,0 1.996,0.898 1.996,1.996 m 0,0"
       style="fill:#7f2c20;fill-opacity:1;fill-rule:nonzero;stroke:none"
       id="path16077" />
    <path
       d="m 14,13 c -1,0 -1,-1 -1,-1 0,0 0,-0.996 1,-0.996 l 5,0 c 1,0 1,0.996 1,0.996 0,0 0,1 -1,1 m -5,0"
       style="fill:#dcdcdc;fill-opacity:1;fill-rule:nonzero;stroke:none"
       id="path16079" />
    <g
       transform="scale(1.0154981,0.98473842)"
       style="opacity:0.12000002;fill:#000000;fill-opacity:1;stroke:none"
       id="g16085">
      <path
         d="m 22.67,27.806 q 0,0.691 -0.218,1.258 -0.218,0.568 -0.615,0.984 -0.388,0.416 -0.936,0.691 -0.549,0.265 -1.22,0.378 l 0,0.057 q 1.674,0.208 2.544,1.069 0.87,0.851 0.87,2.223 0,0.908 -0.312,1.665 -0.303,0.757 -0.927,1.305 -0.624,0.549 -1.58,0.851 -0.955,0.303 -2.261,0.303 -1.031,0 -1.949,-0.161 -0.908,-0.161 -1.712,-0.586 l 0,-1.608 q 0.823,0.435 1.778,0.672 0.965,0.236 1.845,0.236 0.87,0 1.504,-0.189 0.634,-0.189 1.04,-0.539 0.416,-0.35 0.605,-0.861 0.199,-0.511 0.199,-1.145 0,-0.643 -0.255,-1.097 -0.246,-0.463 -0.709,-0.757 -0.463,-0.303 -1.135,-0.445 -0.662,-0.142 -1.504,-0.142 l -1.258,0 0,-1.428 1.258,0 q 0.766,0 1.362,-0.189 0.596,-0.189 0.993,-0.539 0.407,-0.35 0.615,-0.832 0.208,-0.482 0.208,-1.059 0,-0.492 -0.17,-0.88 -0.17,-0.388 -0.482,-0.653 -0.312,-0.274 -0.747,-0.416 -0.435,-0.142 -0.965,-0.142 -1.012,0 -1.788,0.322 -0.766,0.312 -1.466,0.823 l -0.87,-1.182 q 0.359,-0.293 0.795,-0.549 0.445,-0.255 0.965,-0.445 0.52,-0.199 1.107,-0.312 0.596,-0.114 1.258,-0.114 1.022,0 1.788,0.255 0.776,0.255 1.296,0.719 0.52,0.454 0.785,1.088 0.265,0.624 0.265,1.372 z"
         id="path16087" />
      <path
         d="m 30.975,38.4 -1.665,0 0,-8.636 q 0,-0.407 0,-0.87 0.009,-0.463 0.019,-0.918 0.019,-0.463 0.028,-0.88 0.019,-0.426 0.028,-0.747 -0.161,0.17 -0.284,0.293 -0.123,0.123 -0.255,0.236 -0.123,0.114 -0.265,0.246 -0.142,0.123 -0.341,0.293 l -1.4,1.145 -0.908,-1.163 3.623,-2.828 1.419,0 0,13.829 z"
         id="path16089" />
    </g>
    <g
       transform="scale(1.0154981,0.98473842)"
       style="fill:#868686;fill-opacity:1;stroke:none"
       id="g16091">
      <path
         d="m 21.685,26.79 q 0,0.691 -0.218,1.258 -0.218,0.568 -0.615,0.984 -0.388,0.416 -0.936,0.691 -0.549,0.265 -1.22,0.378 l 0,0.057 q 1.674,0.208 2.544,1.069 0.87,0.851 0.87,2.223 0,0.908 -0.312,1.665 -0.303,0.757 -0.927,1.305 -0.624,0.549 -1.58,0.851 -0.955,0.303 -2.261,0.303 -1.031,0 -1.949,-0.161 -0.908,-0.161 -1.712,-0.586 l 0,-1.608 q 0.823,0.435 1.778,0.672 0.965,0.236 1.845,0.236 0.87,0 1.504,-0.189 0.634,-0.189 1.04,-0.539 0.416,-0.35 0.605,-0.861 0.199,-0.511 0.199,-1.145 0,-0.643 -0.255,-1.097 -0.246,-0.463 -0.709,-0.757 -0.463,-0.303 -1.135,-0.445 -0.662,-0.142 -1.504,-0.142 l -1.258,0 0,-1.428 1.258,0 q 0.766,0 1.362,-0.189 0.596,-0.189 0.993,-0.539 0.407,-0.35 0.615,-0.832 0.208,-0.482 0.208,-1.059 0,-0.492 -0.17,-0.88 -0.17,-0.388 -0.482,-0.653 -0.312,-0.274 -0.747,-0.416 -0.435,-0.142 -0.965,-0.142 -1.012,0 -1.788,0.322 -0.766,0.312 -1.466,0.823 l -0.87,-1.182 q 0.359,-0.293 0.795,-0.549 0.445,-0.255 0.965,-0.445 0.52,-0.199 1.107,-0.312 0.596,-0.114 1.258,-0.114 1.022,0 1.788,0.255 0.776,0.255 1.296,0.719 0.52,0.454 0.785,1.088 0.265,0.624 0.265,1.372 z"
         id="path16093" />
      <path
         d="m 29.99,37.38 -1.665,0 0,-8.636 q 0,-0.407 0,-0.87 0.009,-0.463 0.019,-0.918 0.019,-0.463 0.028,-0.88 0.019,-0.426 0.028,-0.747 -0.161,0.17 -0.284,0.293 -0.123,0.123 -0.255,0.236 -0.123,0.114 -0.265,0.246 -0.142,0.123 -0.341,0.293 l -1.4,1.145 -0.908,-1.163 3.623,-2.828 1.419,0 0,13.829 z"
         id="path16095" />
    </g>
  </g>
</svg>
