<?xml version="1.0" encoding="UTF-8" standalone="no"?>
<svg xmlns="http://www.w3.org/2000/svg" xmlns:osb="http://www.openswatchbook.org/uri/2009/osb" height="32" width="32" version="1.0" xmlns:xlink="http://www.w3.org/1999/xlink">
 <path style="color:#000000;fill:#d8dee3" d="m0 0v32h32v-32z"/>
 <g aria-label="Ci" style="opacity:.1;fill:#161616" transform="matrix(.73 0 0 .73 4 20)">
  <path d="m24-7.4q0 0.51-0.61 0.51-0.53 0-0.64-0.62-0.23-1.2-0.92-3.5-1-2.5-2.9-4-2-1.7-4.6-1.7-2 0-4 0.98-5.8 2.8-5.8 12 0 9.3 6.3 12 1.9 0.8 3.6 0.8 2.7 0 5-1.7t3.1-4.3q0.33-1 0.53-2.7 0.078-0.64 0.45-0.64 0.47 0 0.47 0.68 0 4-3 6.9t-7 2.9q-5.6 0-9.5-4.2-3.8-4.1-3.8-9.8 0-5.6 3.8-9.8 3.9-4.2 9.5-4.2 3.8 0 7.1 3.3l1.9-2.8q0.33-0.49 0.61-0.49 0.43 0 0.43 0.64z" style="font-variant-numeric:normal;font-variant-ligatures:normal;font-variant-caps:normal;font-feature-settings:normal;fill:#161616"/>
  <path d="m33-16q0 0.94-0.66 1.6-0.64 0.64-1.6 0.64-0.9 0-1.5-0.66-0.64-0.68-0.64-1.6 0-0.88 0.64-1.5 0.66-0.66 1.5-0.66 0.94 0 1.6 0.64t0.66 1.6zm2.8 25q-3.9-0.12-4.4-0.12-0.8 0-4.6 0.12v-1q1 0.02 0.86 0.02 1.3 0 1.7-0.25 0.64-0.35 0.64-1.5v-11q0-1.7-0.8-2.1-0.45-0.23-2.3-0.21v-1.3l5.8-0.45v15q0 1.2 1 1.4 0.47 0.14 2 0.098z" style="font-variant-numeric:normal;font-variant-ligatures:normal;font-variant-caps:normal;font-feature-settings:normal;fill:#161616"/>
 </g>
 <g aria-label="Ci" style="fill:#43cdba" transform="matrix(.73 0 0 .73 2.8 19)">
  <path style="font-variant-numeric:normal;font-variant-ligatures:normal;font-variant-caps:normal;font-feature-settings:normal;fill:#43cdba" d="m24-7.4q0 0.51-0.61 0.51-0.53 0-0.64-0.62-0.23-1.2-0.92-3.5-1-2.5-2.9-4-2-1.7-4.6-1.7-2 0-4 0.98-5.8 2.8-5.8 12 0 9.3 6.3 12 1.9 0.8 3.6 0.8 2.7 0 5-1.7t3.1-4.3q0.33-1 0.53-2.7 0.078-0.64 0.45-0.64 0.47 0 0.47 0.68 0 4-3 6.9t-7 2.9q-5.6 0-9.5-4.2-3.8-4.1-3.8-9.8 0-5.6 3.8-9.8 3.9-4.2 9.5-4.2 3.8 0 7.1 3.3l1.9-2.8q0.33-0.49 0.61-0.49 0.43 0 0.43 0.64z"/>
  <path style="font-variant-numeric:normal;font-variant-ligatures:normal;font-variant-caps:normal;font-feature-settings:normal;fill:#43cdba" d="m33-16q0 0.94-0.66 1.6-0.64 0.64-1.6 0.64-0.9 0-1.5-0.66-0.64-0.68-0.64-1.6 0-0.88 0.64-1.5 0.66-0.66 1.5-0.66 0.94 0 1.6 0.64t0.66 1.6zm2.8 25q-3.9-0.12-4.4-0.12-0.8 0-4.6 0.12v-1q1 0.02 0.86 0.02 1.3 0 1.7-0.25 0.64-0.35 0.64-1.5v-11q0-1.7-0.8-2.1-0.45-0.23-2.3-0.21v-1.3l5.8-0.45v15q0 1.2 1 1.4 0.47 0.14 2 0.098z"/>
 </g>
</svg>
