<?xml version="1.0" encoding="UTF-8" standalone="no"?>
<svg xmlns:rdf="http://www.w3.org/1999/02/22-rdf-syntax-ns#" xmlns="http://www.w3.org/2000/svg" xmlns:osb="http://www.openswatchbook.org/uri/2009/osb" height="32" width="32" version="1.0" xmlns:cc="http://creativecommons.org/ns#" xmlns:xlink="http://www.w3.org/1999/xlink" xmlns:dc="http://purl.org/dc/elements/1.1/">
 <path style="color:#000000;fill:#1c364b" d="m0 0v32h32v-32z"/>
 <g transform="matrix(.09620 0 0 .09620 -39.05 11.42)">
  <g transform="matrix(7.872 0 0 7.872 383.9 -142.2)">
   <g transform="translate(1,1)">
    <g style="opacity:.1">
     <path d="m11 13v22h3v-1h4v1h12v-1h4v1h3v-22h-3v1h-4v-1h-12v1h-4v-1h-3m3 3h4v4h-4m16-4h4v4h-4m-16 2h4v4h-4m16-4h4v4h-4m-16 2h4v4h-4m16-4h4v4h-4m0-4"/>
    </g>
   </g>
   <path style="fill:#f9f9f9" d="m11 13v22h3v-1h4v1h12v-1h4v1h3v-22h-3v1h-4v-1h-12v1h-4v-1h-3m3 3h4v4h-4m16-4h4v4h-4m-16 2h4v4h-4m16-4h4v4h-4m-16 2h4v4h-4m16-4h4v4h-4m0-4"/>
  </g>
 </g>
</svg>
