<?xml version="1.0" encoding="UTF-8" standalone="no"?>
<svg
   xmlns:dc="http://purl.org/dc/elements/1.1/"
   xmlns:cc="http://creativecommons.org/ns#"
   xmlns:rdf="http://www.w3.org/1999/02/22-rdf-syntax-ns#"
   xmlns:svg="http://www.w3.org/2000/svg"
   xmlns="http://www.w3.org/2000/svg"
   id="svg7649"
   version="1.0"
   width="32"
   height="32">
  <metadata
     id="metadata7661">
    <rdf:RDF>
      <cc:Work
         rdf:about="">
        <dc:format>image/svg+xml</dc:format>
        <dc:type
           rdf:resource="http://purl.org/dc/dcmitype/StillImage" />
        <dc:title></dc:title>
      </cc:Work>
    </rdf:RDF>
  </metadata>
  <defs
     id="defs7659">
    <linearGradient
       gradientTransform="matrix(0,-1,1,0,-1.5e-6,47.999998)"
       gradientUnits="userSpaceOnUse"
       x2="47"
       x1="1"
       id="linearGradient3764">
      <stop
         id="stop7"
         style="stop-color:#344e8e;stop-opacity:1" />
      <stop
         id="stop9"
         style="stop-color:#3a569c;stop-opacity:1"
         offset="1" />
    </linearGradient>
    <linearGradient
       gradientTransform="matrix(0,-1,1,0,44.444443,47.999998)"
       gradientUnits="userSpaceOnUse"
       x2="47"
       x1="1"
       id="linearGradient3764-1">
      <stop
         id="stop7-0"
         style="stop-color:#f7b747;stop-opacity:1" />
      <stop
         id="stop9-3"
         style="stop-color:#f8bd5a;stop-opacity:1"
         offset="1" />
    </linearGradient>
    <linearGradient
       gradientTransform="matrix(0,-1,1,0,-1.5e-6,47.999998)"
       gradientUnits="userSpaceOnUse"
       x2="47"
       x1="1"
       id="linearGradient3764-6">
      <stop
         id="stop7-7"
         style="stop-color:#f6b042;stop-opacity:1" />
      <stop
         id="stop9-32"
         style="stop-color:#f7b754;stop-opacity:1"
         offset="1" />
    </linearGradient>
  </defs>
  <path
     id="path7651"
     style="color:#000000;fill:#f7b44c;fill-opacity:1"
     d="M 0,0 0,32 32,32 32,0 Z" />
  <g
     transform="matrix(0.912904,0,0,0.912904,-5.8683551,-5.7018574)"
     id="g8730">
    <g
       transform="matrix(0.9,0,0,0.9,2.4499,2.45)"
       id="g23">
      <g
         id="g25">
        <g
           id="g27"
           transform="translate(1,1)">
          <g
             id="g29"
             style="opacity:0.1">
            <!-- color: #f7b754 -->
            <g
               id="g31">
              <path
                 id="path33"
                 transform="translate(-1,-1)"
                 d="m 25,11 c -4.144,0 -6.855,2.38 -8.137,5.174 -1.596,-0.05 -3.192,-0.1 -4.783,-0.174 -0.586,-0.031 -1.145,0.648 -1.066,1.098 1.01,6.68 1.063,12.918 0,19.801 -0.074,0.453 0.48,1.121 1.066,1.098 l 25.836,0 c 0.598,0.023 1.148,-0.645 1.078,-1.098 -1.063,-6.879 -1.078,-13.199 0,-19.801 0.078,-0.453 -0.48,-1.133 -1.078,-1.098 -1.598,0.087 -3.185,0.136 -4.773,0.188 C 31.863,13.388 29.148,11 25,11 Z m 0,1 c 3.2,0 5.576,1.981 6.875,4.236 -4.613,0.123 -9.19,0.108 -13.74,-0.016 1.301,-2.249 3.672,-4.221 6.865,-4.221 z" />
            </g>
          </g>
        </g>
      </g>
    </g>
    <g
       id="g35"
       transform="matrix(0.9,0,0,0.9,2.4503396,2.45)">
      <g
         id="g37">
        <!-- color: #f7b754 -->
        <g
           id="g39">
          <path
             id="path41"
             style="fill:#f8ecde;fill-opacity:1;fill-rule:nonzero;stroke:none"
             d="m 11.08,15 c -0.586,-0.031 -1.145,0.648 -1.066,1.098 1.01,6.68 1.063,12.918 0,19.801 -0.074,0.453 0.48,1.121 1.066,1.098 8.617,0 17.227,0 25.836,0 0.598,0.023 1.148,-0.645 1.078,-1.098 -1.063,-6.879 -1.078,-13.199 0,-19.801 0.078,-0.453 -0.48,-1.133 -1.078,-1.098 -8.738,0.473 -17.32,0.395 -25.836,0 m 0,0" />
          <path
             id="path43"
             style="fill:#a9946f;fill-opacity:1;fill-rule:nonzero;stroke:none"
             d="M 17,19.5 C 17,20.328 16.328,21 15.5,21 14.672,21 14,20.328 14,19.5 14,18.672 14.672,18 15.5,18 c 0.828,0 1.5,0.672 1.5,1.5 m 0,0" />
          <path
             id="path45"
             style="fill:#a9946f;fill-opacity:1;fill-rule:nonzero;stroke:none"
             d="M 34,19.5 C 34,20.328 33.328,21 32.5,21 31.672,21 31,20.328 31,19.5 31,18.672 31.672,18 32.5,18 c 0.828,0 1.5,0.672 1.5,1.5 m 0,0" />
          <path
             id="path47"
             style="fill:#e5d6be;fill-opacity:1;fill-rule:nonzero;stroke:none"
             d="M 15.5,20 C 15,20 15,19.422 15,19 c 0,-4.01 3,-9 9,-9 5.996,0 9,4.988 9,9 0,0.422 0,1 -0.5,1 C 32,20 32,19.422 32,19 c 0,-3.168 -3,-8 -8,-8 -5,0 -8,4.832 -8,8 0,0.422 0,1 -0.496,1 m 0,0" />
          <path
             id="path49"
             style="fill:#dd4512;fill-opacity:1;fill-rule:nonzero;stroke:none"
             d="m 27.313,20.04 c -0.43,0.035 -0.832,0.262 -1.063,0.656 -0.371,0.641 -0.141,1.445 0.5,1.816 0.637,0.367 1.445,0.168 1.813,-0.469 0.367,-0.637 0.137,-1.473 -0.5,-1.844 -0.242,-0.137 -0.492,-0.172 -0.75,-0.156 M 24,21.449 c -0.926,0 -1.789,0.207 -2.563,0.594 l 0.938,1.688 c 0.5,-0.234 1.039,-0.375 1.629,-0.375 2.035,0 3.699,1.566 3.875,3.578 l 1.906,-0.031 c -0.094,-1.473 -0.73,-2.813 -1.719,-3.781 -0.508,0.191 -1.086,0.164 -1.594,-0.125 -0.508,-0.293 -0.82,-0.777 -0.906,-1.313 -0.492,-0.137 -1.027,-0.219 -1.563,-0.219 m -3.223,0.98 c -1.168,0.781 -2.043,1.945 -2.406,3.348 0.422,0.344 0.719,0.883 0.719,1.469 0,0.59 -0.297,1.129 -0.719,1.473 0.363,1.398 1.238,2.559 2.406,3.344 l 0.969,-1.625 c -1,-0.707 -1.656,-1.871 -1.656,-3.191 0,-1.316 0.652,-2.512 1.656,-3.219 m -4.547,1.871 c -0.738,0 -1.344,0.609 -1.344,1.344 0,0.738 0.605,1.313 1.344,1.313 0.738,0 1.313,-0.574 1.313,-1.313 0,-0.734 -0.574,-1.344 -1.313,-1.344 m 10.664,1.688 c -0.172,1.992 -1.84,3.578 -3.875,3.578 -0.59,0 -1.129,-0.141 -1.625,-0.375 l -0.941,1.688 c 0.777,0.391 1.641,0.602 2.563,0.602 0.539,0 1.07,-0.078 1.563,-0.227 0.09,-0.527 0.402,-1.02 0.906,-1.309 0.508,-0.297 1.09,-0.348 1.594,-0.156 0.988,-0.973 1.629,-2.281 1.719,-3.75 m -2.559,4.172 c -0.172,0.023 -0.305,0.102 -0.465,0.191 -0.641,0.367 -0.871,1.172 -0.5,1.813 0.367,0.641 1.172,0.867 1.813,0.5 0.637,-0.363 0.867,-1.199 0.5,-1.844 -0.277,-0.477 -0.828,-0.719 -1.344,-0.656 m -0.004,0" />
        </g>
      </g>
    </g>
  </g>
</svg>
