<?xml version="1.0" encoding="UTF-8" standalone="no"?>
<svg xmlns:rdf="http://www.w3.org/1999/02/22-rdf-syntax-ns#" xmlns="http://www.w3.org/2000/svg" height="32" width="32" version="1.0" xmlns:cc="http://creativecommons.org/ns#" xmlns:dc="http://purl.org/dc/elements/1.1/">
 <path style="fill:#7dd073" d="m0 0v32h32v-32z"/>
 <g transform="matrix(.7321 0 0 .7321 -1.739 -1.634)">
  <g transform="matrix(3.543 0 0 3.543 -2.803e-8 .003151)">
   <path style="opacity:.1" d="m7.06 2.822c-2.338 0-4.233 1.895-4.233 4.233s1.895 4.233 4.233 4.233 4.233-1.895 4.233-4.233-1.895-4.233-4.233-4.233z"/>
   <ellipse style="fill:#51c3c9" rx="9.218" ry="9.52" transform="matrix(.4286 0 0 .4150 13.44 -1.545)" cy="20.04" cx="-15.54"/>
   <path style="fill:#eee" d="m6.491 5.644v3.387h0.564v-3.387z"/>
   <path style="fill:#eee" d="m7.06 4.798c0 0.156-0.126 0.282-0.282 0.282s-0.282-0.126-0.282-0.282 0.126-0.282 0.282-0.282 0.282 0.126 0.282 0.282z"/>
   <path d="m24 9c-8.28 0-15 6.72-15 15s6.72 15 15 15 15-6.72 15-15-6.72-15-15-15m0 2c7.18 0 13 5.82 13 13s-5.82 13-13 13-13-5.82-13-13 5.82-13 13-13z" style="fill:#eee" transform="scale(.2822)"/>
  </g>
 </g>
</svg>
