<?xml version="1.0" encoding="UTF-8" standalone="no"?>
<svg xmlns="http://www.w3.org/2000/svg" viewBox="0 0 32 32" height="32" width="32" version="1.1">
 <path d="m0 0v32h32v-32z" style="fill:#d8c628" fill="#333"/>
 <path d="m5.392 23.76c-0.591-0.06-1.056-0.18-1.578-0.41l-0.2254-0.1002v-1.166l0.06702 0.04055c0.4425 0.2678 0.8837 0.4708 1.212 0.558 0.6281 0.1666 1.288 0.1071 1.488-0.1343 0.05544-0.0668 0.07153-0.1126 0.07938-0.2259 0.00849-0.1227 0.00108-0.1559-0.05444-0.243-0.111-0.16-0.286-0.25-1.013-0.5-0.901-0.32-1.245-0.5-1.531-0.81-0.251-0.27-0.369-0.58-0.37-0.97-0.00108-0.4724 0.201-0.8504 0.6045-1.131 0.4473-0.3114 1.009-0.4421 1.792-0.4166 0.5512 0.01795 1.177 0.148 1.692 0.3517l0.1271 0.05027v0.5236c0 0.288-0.00376 0.5236-0.00798 0.5236-0.00438 0-0.1113-0.04119-0.2376-0.09154-1.113-0.4436-2.043-0.4999-2.382-0.1443-0.06577 0.06884-0.07701 0.09798-0.07701 0.1997 0 0.09581 0.01379 0.1365 0.07066 0.2087 0.1172 0.1487 0.3163 0.2447 1.027 0.4955 0.8505 0.3 1.094 0.4227 1.402 0.7075 0.3429 0.3165 0.4724 0.6056 0.4724 1.055 0 0.6473-0.3498 1.131-1.026 1.42-0.4075 0.1741-1.013 0.2575-1.531 0.2109z" style="opacity:.1;stroke-width:.2704"/>
 <path style="opacity:.1" d="m8.333 9.691v5.315h5.228v-5.319zm1.406 0.755h0.9793c0.3095 0 0.549 0.04236 0.7208 0.125 0.1738 0.0848 0.3053 0.2015 0.3965 0.3499 0.09116 0.1463 0.1357 0.318 0.1357 0.513 0 0.371-0.1887 0.6381-0.5681 0.8014 0.2714 0.05088 0.4896 0.1652 0.6508 0.3412 0.1611 0.1781 0.2418 0.388 0.2418 0.6339 0 0.1929-0.05088 0.3646-0.1484 0.5172s-0.2417 0.2777-0.4304 0.3731-0.4283 0.1442-0.7123 0.1442h-1.266v-3.799zm0.5341 0.4833v1.141h0.3562c0.2862 0 0.4897-0.05298 0.6085-0.1653 0.1208-0.1102 0.1802-0.2523 0.1802-0.4283 0-0.3646-0.2269-0.547-0.6827-0.547h-0.4622zm0 1.626v1.206h0.5279c0.2925 0 0.4918-0.02336 0.5957-0.07s0.1865-0.1187 0.2501-0.2162c0.0636-0.09752 0.09546-0.2036 0.09546-0.316 0-0.1145-0.03396-0.2205-0.09968-0.318-0.06784-0.09752-0.1632-0.1674-0.2841-0.2162-0.123-0.04664-0.318-0.06998-0.583-0.06998h-0.5025z"/>
 <path style="opacity:.1" d="m14.35 9.691v5.315h5.228v-5.319zm1.406 0.755h0.9793c0.3095 0 0.549 0.04236 0.7208 0.125 0.1738 0.0848 0.3053 0.2015 0.3965 0.3499 0.09116 0.1463 0.1357 0.318 0.1357 0.513 0 0.371-0.1887 0.6381-0.5681 0.8014 0.2714 0.05088 0.4896 0.1652 0.6508 0.3412 0.1611 0.1781 0.2418 0.388 0.2418 0.6339 0 0.1929-0.05088 0.3646-0.1484 0.5172s-0.2417 0.2777-0.4304 0.3731-0.4283 0.1442-0.7123 0.1442h-1.266v-3.799zm0.5341 0.4833v1.141h0.3562c0.2862 0 0.4897-0.05298 0.6085-0.1653 0.1208-0.1102 0.1802-0.2523 0.1802-0.4283 0-0.3646-0.2269-0.547-0.6827-0.547h-0.4622zm0 1.626v1.206h0.5279c0.2926 0 0.4918-0.02336 0.5957-0.07s0.1865-0.1187 0.2501-0.2162c0.0636-0.09752 0.09546-0.2036 0.09546-0.316 0-0.1145-0.03396-0.2205-0.09968-0.318-0.06784-0.09752-0.1632-0.1674-0.2841-0.2162-0.123-0.04664-0.318-0.06998-0.583-0.06998h-0.5025z"/>
 <path style="opacity:.1" d="m20.41 9.691v5.315h5.228v-5.319zm2.83 0.6995c0.3922 0 0.8268 0.1039 1.308 0.3117v0.5851c-0.44-0.26-0.87-0.387-1.28-0.387-0.4261 0-0.7823 0.1378-1.062 0.4134-0.2841 0.2735-0.4261 0.6168-0.4261 1.03 0 0.4176 0.1399 0.759 0.4176 1.028 0.2777 0.2671 0.6339 0.4007 1.066 0.4007 0.4515 0 0.8924-0.1399 1.327-0.4239v0.5999c-0.3943 0.2184-0.8459 0.3265-1.359 0.3265-0.4176 0-0.7694-0.0848-1.06-0.2544-0.2904-0.1717-0.5216-0.4071-0.6912-0.706-0.1675-0.301-0.2523-0.6233-0.2523-0.9709 0-0.5533 0.1929-1.018 0.5809-1.395 0.3879-0.3752 0.865-0.5639 1.433-0.5639z"/>
 <path d="m7.113 8.538v5.315h5.228v-5.312zm1.406 0.755h0.9793c0.3095 0 0.549 0.04236 0.7208 0.125 0.1738 0.0848 0.3053 0.2015 0.3965 0.3499 0.09116 0.1463 0.1357 0.318 0.1357 0.513 0 0.371-0.1887 0.6381-0.5681 0.8014 0.2714 0.05088 0.4896 0.1652 0.6508 0.3412 0.1611 0.1781 0.2418 0.388 0.2418 0.6339 0 0.1929-0.05088 0.3646-0.1484 0.5172s-0.2417 0.2777-0.4304 0.3731-0.4283 0.1442-0.7123 0.1442h-1.266v-3.799zm0.5341 0.4833v1.141h0.3562c0.2862 0 0.4897-0.05298 0.6085-0.1653 0.1208-0.1102 0.1802-0.2523 0.1802-0.4283 0-0.3646-0.2269-0.547-0.6827-0.547h-0.462zm0 1.626v1.206h0.528c0.2925 0 0.4918-0.02336 0.5957-0.07s0.1865-0.1187 0.2501-0.2162c0.0636-0.09752 0.09546-0.2036 0.09546-0.316 0-0.1145-0.03396-0.2205-0.09968-0.318-0.06784-0.09752-0.1632-0.1674-0.2841-0.2162-0.123-0.04664-0.318-0.06998-0.583-0.06998h-0.5025z"/>
 <path d="m13.13 8.538v5.315h5.228v-5.312zm1.406 0.755h0.9793c0.3095 0 0.549 0.04236 0.7208 0.125 0.1738 0.0848 0.3053 0.2015 0.3965 0.3499 0.09116 0.1463 0.1357 0.318 0.1357 0.513 0 0.371-0.1887 0.6381-0.5681 0.8014 0.2714 0.05088 0.4896 0.1652 0.6508 0.3412 0.1611 0.1781 0.2418 0.388 0.2418 0.6339 0 0.1929-0.05088 0.3646-0.1484 0.5172s-0.2417 0.2777-0.4304 0.3731-0.4283 0.1442-0.7123 0.1442h-1.266v-3.799zm0.5341 0.4833v1.141h0.3562c0.2862 0 0.4897-0.05298 0.6085-0.1653 0.1208-0.1102 0.1802-0.2523 0.1802-0.4283 0-0.3646-0.2269-0.547-0.6827-0.547h-0.4622zm0 1.626v1.206h0.5279c0.2926 0 0.4918-0.02336 0.5957-0.07s0.1865-0.1187 0.2501-0.2162c0.0636-0.09752 0.09546-0.2036 0.09546-0.316 0-0.1145-0.03396-0.2205-0.09968-0.318-0.06784-0.09752-0.1632-0.1674-0.2841-0.2162-0.123-0.04664-0.318-0.06998-0.583-0.06998h-0.5025z"/>
 <path d="m19.19 8.538v5.315h5.228v-5.312zm2.83 0.6995c0.3922 0 0.8268 0.1039 1.308 0.3117v0.5851c-0.44-0.26-0.87-0.387-1.28-0.387-0.4261 0-0.7823 0.1378-1.062 0.4134-0.2841 0.2735-0.4261 0.6168-0.4261 1.03 0 0.4176 0.1399 0.759 0.4176 1.028 0.2777 0.2671 0.6339 0.4007 1.066 0.4007 0.4515 0 0.8924-0.1399 1.327-0.4239v0.5999c-0.3943 0.2184-0.8459 0.3265-1.359 0.3265-0.4176 0-0.7694-0.0848-1.06-0.2544-0.2904-0.1717-0.5216-0.4071-0.6912-0.706-0.1675-0.301-0.2523-0.6233-0.2523-0.9709 0-0.5533 0.1929-1.018 0.5809-1.395 0.3879-0.3752 0.865-0.5639 1.433-0.5639z"/>
 <path style="stroke-width:.2704" d="m4.385 22.75c-0.591-0.05-1.056-0.17-1.578-0.4l-0.2254-0.1002v-1.166l0.06702 0.04055c0.4425 0.2678 0.8837 0.4708 1.212 0.558 0.6281 0.1666 1.288 0.1071 1.488-0.1343 0.05544-0.0668 0.07153-0.1126 0.07938-0.2259 0.00849-0.1227 0.00108-0.1559-0.05444-0.243-0.111-0.17-0.286-0.26-1.013-0.51-0.901-0.31-1.245-0.49-1.531-0.8-0.251-0.27-0.369-0.58-0.37-0.97-0.00108-0.4724 0.201-0.8504 0.6045-1.131 0.4473-0.3114 1.009-0.4421 1.792-0.4166 0.5512 0.01795 1.177 0.148 1.692 0.3517l0.1271 0.05027v0.5236c0 0.288-0.00376 0.5236-0.00798 0.5236-0.00438 0-0.1113-0.04119-0.2376-0.09154-1.113-0.4436-2.043-0.4999-2.382-0.1443-0.06577 0.06884-0.07701 0.09798-0.07701 0.1997 0 0.09581 0.01379 0.1365 0.07066 0.2087 0.1172 0.1487 0.3163 0.2447 1.027 0.4955 0.8505 0.3 1.094 0.4227 1.402 0.7075 0.3429 0.3165 0.4724 0.6056 0.4724 1.055 0 0.6473-0.3498 1.131-1.026 1.42-0.4075 0.1741-1.013 0.2575-1.531 0.2109z"/>
 <path d="m16.47 18.25c-0.2541 0.00027-0.5096 0.01287-0.6562 0.04224-0.6051 0.1212-1.062 0.3746-1.479 0.8195-0.3454 0.3691-0.5718 0.7681-0.6879 1.225-0.051 0.2009-0.05535 0.2535-0.05535 0.6674s0.0044 0.4666 0.05535 0.6674c0.1474 0.5804 0.5057 1.133 0.9883 1.512 0.3949 0.3104 0.904 0.5108 1.439 0.5661 0.8109 0.08378 1.589-0.1083 2.143-0.5238 0.0839-0.06297 0.2291-0.1987 0.3321-0.3042 0.5401-0.5536 0.7907-1.159 0.7907-1.926 0-0.5927-0.1529-1.093-0.4902-1.571-0.4347-0.6166-0.9874-0.9722-1.739-1.132-0.1366-0.02913-0.3864-0.04252-0.6404-0.04224zm-0.01582 1.107c0.5176 0 0.9258 0.174 1.226 0.5238 0.2542 0.2967 0.3645 0.6459 0.3637 1.124-0.00054 0.4987-0.1277 0.862-0.4111 1.166-0.2412 0.2586-0.5191 0.4006-0.8934 0.4562-0.2987 0.04439-0.5822 0.0196-0.8697-0.07604-0.4705-0.1565-0.8193-0.5598-0.9488-1.081-0.06147-0.2477-0.06154-0.6882 0-0.9378 0.1814-0.7359 0.7508-1.174 1.534-1.174z" style="opacity:.1;stroke-width:.2704"/>
 <path d="m8.727 18.3v2.687c0 1.477 0.00871 2.695 0.0169 2.704 0.00822 0.0082 0.3061 0.0084 0.6674 0.0084h0.659v-2.162l0.8846-0.0084c0.651-0.0087 0.7341-0.0156 0.8956-0.05914 0.3918-0.1056 0.7216-0.3274 0.9462-0.6421 0.2001-0.2804 0.2796-0.5527 0.2788-0.9293-0.000541-0.2841-0.03455-0.4355-0.1605-0.6928-0.0753-0.1538-0.1307-0.2319-0.2957-0.3971-0.2302-0.2303-0.4493-0.3544-0.7519-0.4393-0.1694-0.04751-0.2148-0.05192-1.58-0.05914l-1.56-0.0084zm1.343 0.9885 0.6227 0.0084c0.5122 0.01217 0.6701 0.04009 0.828 0.1605 0.1555 0.1186 0.2216 0.4116 0.1521 0.6505-0.06815 0.2344-0.2397 0.3638-0.5492 0.414-0.07926 0.01284-0.3175 0.02533-0.5238 0.02533h-0.5298v-1.259z" style="opacity:.1;stroke-width:.2704"/>
 <path style="stroke-width:.2704" d="m15.46 17.24c-0.2541 0.00027-0.5096 0.01287-0.6562 0.04224-0.6051 0.1212-1.062 0.3746-1.479 0.8195-0.3454 0.3691-0.5718 0.7681-0.6879 1.225-0.051 0.2009-0.05535 0.2535-0.05535 0.6674s0.0044 0.4666 0.05535 0.6674c0.1474 0.5804 0.5057 1.133 0.9883 1.512 0.3949 0.3104 0.904 0.5108 1.439 0.5661 0.8109 0.08378 1.589-0.1083 2.143-0.5238 0.0839-0.06297 0.2291-0.1987 0.3321-0.3042 0.5401-0.5536 0.7907-1.159 0.7907-1.926 0-0.5927-0.1529-1.093-0.4902-1.571-0.4347-0.6166-0.9874-0.9722-1.739-1.132-0.1366-0.02913-0.3864-0.04252-0.6404-0.04224zm-0.01582 1.107c0.5176 0 0.9258 0.174 1.226 0.5238 0.2542 0.2967 0.3645 0.6459 0.3637 1.124-0.00054 0.4987-0.1277 0.862-0.4111 1.166-0.2412 0.2586-0.5191 0.4006-0.8934 0.4562-0.2987 0.04439-0.5822 0.0196-0.8697-0.07604-0.4705-0.1565-0.8193-0.5598-0.9488-1.081-0.06147-0.2477-0.06154-0.6882 0-0.9378 0.1814-0.7359 0.7508-1.174 1.534-1.174z"/>
 <path style="stroke-width:.2704" d="m7.721 17.3v2.687c0 1.477 0.00871 2.695 0.0169 2.704 0.00822 0.0082 0.3061 0.0084 0.6674 0.0084h0.659v-2.162l0.8846-0.0084c0.651-0.0087 0.7341-0.0156 0.8956-0.05914 0.3918-0.1056 0.7216-0.3274 0.9462-0.6421 0.2001-0.2804 0.2796-0.5527 0.2788-0.9293-0.000541-0.2841-0.03455-0.4355-0.1605-0.6928-0.0753-0.1538-0.1307-0.2319-0.2957-0.3971-0.2302-0.2303-0.4493-0.3544-0.7519-0.4393-0.1694-0.04751-0.2148-0.05192-1.58-0.05914l-1.56-0.0084zm1.343 0.9885 0.6227 0.0084c0.5122 0.01217 0.6701 0.04009 0.828 0.1605 0.1555 0.1186 0.2216 0.4116 0.1521 0.6505-0.06815 0.2344-0.2397 0.3638-0.5492 0.414-0.07926 0.01284-0.3175 0.02533-0.5238 0.02533h-0.53v-1.259z"/>
 <path d="m20.14 18.31v5.39h1.343v-2.196l0.445 0.0084c0.246 0.0074 0.2933 0.01379 0.3802 0.05914 0.17 0.08878 0.2709 0.1809 0.3971 0.3717 0.1499 0.2267 0.224 0.3777 0.49 0.98 0.1154 0.2613 0.2394 0.5505 0.2788 0.6336l0.07604 0.1436h1.47l-0.05069-0.1098c-0.3357-0.7404-0.7558-1.635-0.828-1.766-0.1258-0.2282-0.3192-0.4731-0.4562-0.5661-0.06356-0.04312-0.1181-0.07835-0.1183-0.08449-0.000213-0.0062 0.06519-0.04282 0.1436-0.08449 0.3634-0.193 0.6344-0.5322 0.7181-0.8871 0.04249-0.1811 0.043-0.5273 0-0.7097-0.1121-0.4755-0.5347-0.9135-1.039-1.081-0.292-0.09722-0.5501-0.1012-1.932-0.1014h-1.318zm1.343 0.98h0.5886c0.4731 0 0.6354 0.02768 0.7857 0.1267 0.1817 0.1197 0.2713 0.3689 0.2197 0.6167-0.03854 0.1851-0.1374 0.3007-0.3295 0.3971l-0.1521 0.08449-0.4816 0.0084-0.6309 0.0084v-1.242z" style="opacity:.1;stroke-width:.2704"/>
 <path style="stroke-width:.2704" d="m19.13 17.3v5.39h1.343v-2.19l0.445 0.0084c0.246 0.0074 0.2933 0.01379 0.3802 0.05914 0.17 0.08878 0.2709 0.1809 0.3971 0.3717 0.1499 0.2267 0.224 0.3777 0.49 0.98 0.1154 0.2613 0.2394 0.5505 0.2788 0.6336l0.07604 0.1436h1.47l-0.05069-0.1098c-0.3357-0.7404-0.7558-1.635-0.828-1.766-0.1258-0.2282-0.3192-0.4731-0.4562-0.5661-0.06356-0.04312-0.1181-0.07835-0.1183-0.08449-0.000213-0.0062 0.06519-0.04282 0.1436-0.08449 0.3634-0.193 0.6344-0.5322 0.7181-0.8871 0.04249-0.1811 0.043-0.5273 0-0.7097-0.1121-0.4755-0.5347-0.9135-1.039-1.081-0.292-0.09722-0.5501-0.1012-1.932-0.1014h-1.318zm1.343 0.98h0.5886c0.4731 0 0.6354 0.02768 0.7857 0.1267 0.1817 0.1197 0.2713 0.3689 0.2197 0.6167-0.03854 0.1851-0.1374 0.3007-0.3295 0.3971l-0.1521 0.08449-0.4816 0.0084-0.6309 0.0084v-1.242z"/>
 <path d="m27.11 21.5v-2.206h-2.082v-0.9854h5.515v0.9854h-2.09l-0.0057 2.201-0.0057 2.201-0.6663 0.0059-0.6663 0.0059v-2.206z" style="opacity:.1;stroke-width:.2704"/>
 <path style="stroke-width:.2704;fill:#100" d="m26.11 20.49v-2.206h-2.082v-0.9854h5.515v0.9854h-2.09l-0.0057 2.201-0.0057 2.201-0.6663 0.0059-0.6663 0.0059v-2.206z"/>
</svg>
