<?xml version="1.0" encoding="UTF-8" standalone="no"?>
<svg xmlns="http://www.w3.org/2000/svg" xmlns:osb="http://www.openswatchbook.org/uri/2009/osb" height="32" width="32" version="1.0" xmlns:xlink="http://www.w3.org/1999/xlink">
 <g transform="matrix(.1138 0 0 .1138 -64.82 -29.38)">
  <path style="fill:#244aa5" d="m569.4 258.1h281.1v281.1h-281.1z"/>
  <g style="opacity:.1" transform="translate(7.572 7.257)">
   <path style="fill-rule:evenodd" d="m623.4 464.4c-2.697-2.337-7.551-3.895-12.41-3.895-7.97 0-14.98 4.255-18.82 11.39-2.217 4.255-3.296 9.109-3.296 15.22 0 7.191 1.978 13.12 5.933 17.56 4.015 4.674 9.229 6.772 16.06 6.772 5.573 0 9.708-1.378 13.54-4.554l-4.435-6.173c-2.936 2.277-5.573 3.116-8.45 3.116-4.195 0-7.491-1.858-9.469-5.513-1.498-2.637-2.038-6.412-2.038-13.06 0-5.753 0.839-9.828 2.757-12.64 1.738-2.637 5.034-4.255 8.33-4.255 2.757 0 5.334 0.8989 7.851 2.757l4.435-6.712"/>
   <path style="fill-rule:evenodd" d="m629.1 460.6c0.4195 1.498 0.7191 4.854 0.7191 8.27v41.77h9.588v-25.89c2.097-1.918 5.154-3.356 7.491-3.356 2.697 0 3.656 1.318 3.656 4.974v24.27h9.289v-25.29c0-3.416-0.2397-4.674-0.9588-6.712-1.139-3.116-4.794-5.154-9.409-5.154-3.656 0-7.731 1.558-10.25 3.895 0-0.4195 0.1798-1.858 0.1798-2.996v-7.251c0-3.416-0.2397-6.832-0.6592-8.809l-9.648 2.277"/>
   <path style="fill-rule:evenodd" d="m685.6 494.8-0.1198 7.731c-1.438 1.618-3.176 2.517-4.974 2.517-2.397 0-4.135-1.918-4.135-4.734 0-4.315 2.277-5.513 8.809-5.513zm-18.58-16.06 4.015 6.832c3.955-2.637 7.431-4.075 10.49-4.075 3.416 0 4.195 1.258 4.195 5.334v1.498c-0.7791-0.1199-1.378-0.1199-2.097-0.1199-11.51 0-17.38 3.955-17.38 12.46 0 7.131 4.435 11.27 12.46 11.27 2.936 0 5.453-0.7191 7.251-1.978 0.6592-0.5394 1.498-1.199 2.157-1.918 0.8989 1.858 2.877 3.416 5.094 4.375l5.034-5.753c-2.757-2.038-3.416-3.536-3.416-7.431v-0.6592l0.2397-12.11c0.0599-3.895-0.1199-4.974-0.5993-6.472-1.438-4.075-5.633-6.352-11.69-6.352-3.356 0-6.352 0.6592-9.888 2.157-2.517 1.019-3.955 1.738-5.873 2.936"/>
   <path style="fill-rule:evenodd" d="m702.3 476c0.839 2.397 1.258 5.334 1.258 8.45v26.19h9.469v-25.53c2.217-1.978 4.674-3.296 6.592-3.296 2.457 0 3.176 1.258 3.176 5.334v23.49h9.229v-26.37c0-2.277-0.1798-3.835-0.5993-5.154-1.199-3.116-4.674-5.214-8.69-5.214-2.157 0-4.674 0.5393-6.532 1.558-1.558 0.7791-2.757 1.678-4.195 2.697 0-1.558-0.4794-3.056-1.318-4.554l-8.39 2.397"/>
   <path style="fill-rule:evenodd" d="m739.1 476c0.839 2.397 1.258 5.334 1.258 8.45v26.19h9.469v-25.53c2.157-1.978 4.674-3.296 6.532-3.296 2.457 0 3.176 1.258 3.176 5.334v23.49h9.349v-26.37c0-2.277-0.1798-3.835-0.7191-5.154-1.139-3.116-4.674-5.214-8.69-5.214-2.097 0-4.554 0.5393-6.472 1.558-1.558 0.7791-2.757 1.678-4.195 2.697 0-1.558-0.4794-3.056-1.318-4.554l-8.39 2.397"/>
   <path style="fill-rule:evenodd" d="m785.8 488.6v-0.1198c0-5.034 2.038-7.851 5.633-7.851 1.918 0 3.236 0.7191 4.195 2.157 0.839 1.318 1.079 2.697 1.079 5.393v0.4195zm16.66 12.35c-2.877 2.397-5.933 3.656-9.169 3.656-4.854 0-7.611-3.236-7.611-8.749v-0.2996h20.85v-2.217c0-7.551-1.498-12.41-4.794-15.82-2.337-2.397-6.292-3.775-10.43-3.775-4.794 0-8.45 1.558-11.39 4.854-3.176 3.536-4.495 7.851-4.495 14.32 0 11.39 6.712 18.7 17.02 18.7 5.094 0 9.528-1.618 13.66-4.974l-3.656-5.693"/>
   <path style="fill-rule:evenodd" d="m822.5 458.4-9.648 2.157c0.2996 3.296 0.4794 6.232 0.4794 10.91v26.91c0 5.214 0.1798 6.352 0.839 8.15 1.139 3.056 4.435 4.914 8.39 4.914 2.097 0 4.075-0.2996 5.693-0.8989l-1.618-5.693c-0.5393 0.1198-0.7191 0.1198-1.079 0.1198-0.7791 0-1.558-0.3596-1.858-0.9588-0.5993-1.019-0.6592-1.858-0.6592-8.03v-28.23c0-5.034-0.1198-7.371-0.5394-9.349"/>
   <path style="fill-rule:evenodd" d="m587.1 395.5 11.75 49.5h11.21l4.075-20.2c1.498-7.131 2.337-14.08 2.337-14.08 0.1198 1.378 0.839 7.671 2.337 14.26l4.375 20.02h10.79l11.87-49.5h-10.37l-4.075 18.58c-0.9588 4.854-2.517 14.8-2.637 16.36 0 0-1.199-8.39-2.157-13l-4.495-21.93h-10.8l-4.375 19.84c-1.498 6.772-2.337 13.78-2.517 15.64 0 0-0.6592-6.952-2.637-16.12l-4.255-19.36h-10.43"/>
   <path style="fill-rule:evenodd" d="m655.7 422.6v-0.1198c0-5.034 2.038-7.851 5.633-7.851 1.918 0 3.236 0.7191 4.195 2.157 0.7791 1.318 1.079 2.697 1.079 5.393v0.4195zm16.66 12.35c-2.877 2.397-5.933 3.596-9.169 3.596-4.854 0-7.611-3.176-7.611-8.69v-0.2996h20.8v-2.217c0-7.551-1.498-12.41-4.794-15.82-2.277-2.397-6.292-3.835-10.43-3.835-4.794 0-8.45 1.618-11.33 4.914-3.236 3.536-4.554 7.851-4.554 14.32 0 11.39 6.712 18.7 17.08 18.7 5.094 0 9.469-1.618 13.6-5.034l-3.656-5.633"/>
   <path style="fill-rule:evenodd" d="m700 428.8-0.1199 7.731c-1.438 1.618-3.176 2.457-4.974 2.457-2.397 0-4.135-1.858-4.135-4.674 0-4.315 2.277-5.513 8.809-5.513zm-18.58-16.06 4.015 6.832c3.895-2.637 7.431-4.075 10.49-4.075 3.476 0 4.195 1.258 4.195 5.334v1.498c-0.7191-0.1199-1.378-0.1199-2.097-0.1199-11.51 0-17.38 3.955-17.38 12.41 0 7.251 4.375 11.33 12.41 11.33 2.996 0 5.513-0.7191 7.311-1.978 0.6592-0.4794 1.498-1.199 2.157-1.918 0.8989 1.858 2.936 3.476 5.094 4.375l5.034-5.753c-2.757-2.038-3.416-3.536-3.416-7.431v-0.6592l0.2397-12.17c0.0599-3.835-0.1199-4.914-0.5993-6.472-1.438-4.015-5.633-6.292-11.69-6.292-3.356 0-6.352 0.6592-9.888 2.157-2.517 1.019-3.955 1.738-5.873 2.936"/>
   <path style="fill-rule:evenodd" d="m736 408.5h-8.45c0-3.716 0.1798-7.611 0.5394-10.91l-9.588 2.397c-0.3596 2.637-0.3596 4.974-0.3596 8.51h-3.596v6.472h3.596v19.6c0 3.356 0.0599 4.075 0.5993 5.633 1.139 3.176 4.974 5.274 9.768 5.274 2.457 0 4.914-0.4794 7.731-1.618l-1.258-5.633c-1.678 0.4794-2.517 0.6592-3.356 0.6592-3.236 0-4.075-1.199-4.075-5.753v-18.16h6.053l2.397-6.472"/>
   <path style="fill-rule:evenodd" d="m740.1 394.6c0.4195 1.498 0.7191 4.854 0.7191 8.21v41.83h9.588v-25.89c2.157-1.918 5.154-3.296 7.491-3.296 2.697 0 3.656 1.318 3.656 4.914v24.27h9.289v-25.2c0-3.476-0.2996-4.674-0.9588-6.772-1.139-3.116-4.794-5.154-9.409-5.154-3.656 0-7.731 1.558-10.25 3.955 0-0.4794 0.1798-1.918 0.1798-3.056v-7.191c0-3.476-0.1798-6.832-0.6592-8.869l-9.648 2.277"/>
   <path style="fill-rule:evenodd" d="m786 422.6v-0.1198c0-5.034 2.038-7.851 5.633-7.851 1.978 0 3.236 0.7191 4.195 2.157 0.839 1.318 1.079 2.697 1.079 5.393v0.4195zm16.66 12.35c-2.877 2.397-5.933 3.596-9.169 3.596-4.854 0-7.611-3.176-7.611-8.69v-0.2996h20.91v-2.217c0-7.551-1.498-12.41-4.854-15.82-2.277-2.397-6.292-3.835-10.43-3.835-4.794 0-8.39 1.618-11.33 4.914-3.176 3.536-4.554 7.851-4.554 14.32 0 11.39 6.712 18.7 17.08 18.7 5.094 0 9.469-1.618 13.6-5.034l-3.656-5.633"/>
   <path style="fill-rule:evenodd" d="m812 409.9c0.7791 2.038 1.318 5.693 1.318 10.61v24.09h9.469v-25.6c1.798-2.038 3.716-2.996 5.813-2.996 1.019 0 1.798 0.1798 2.757 0.7191l2.577-8.39c-1.438-0.6592-2.097-0.779-3.536-0.779-1.019 0-2.337 0.2397-3.056 0.5993-1.798 0.7791-4.015 2.697-5.393 4.614-0.1199-2.097-0.5993-3.656-1.498-5.214l-8.45 2.277"/>
   <path style="fill-rule:evenodd" d="m587.4 330.6v8.21h11.99v40.87h10.01v-40.87h11.75l1.618-8.21z"/>
   <path style="fill-rule:evenodd" d="m627 329.6c0.4195 1.498 0.7191 4.854 0.7191 8.21v41.83h9.588v-25.89c2.097-1.918 5.154-3.296 7.491-3.296 2.697 0 3.656 1.258 3.656 4.914v24.27h9.289v-25.29c0-3.416-0.2996-4.674-0.9588-6.712-1.139-3.116-4.794-5.154-9.409-5.154-3.656 0-7.731 1.558-10.25 3.895 0-0.4195 0.1798-1.858 0.1798-2.996v-7.251c0-3.416-0.2397-6.832-0.6592-8.809l-9.648 2.277"/>
   <path style="fill-rule:evenodd" d="m674.3 357.6v-0.1798c0-4.974 2.038-7.791 5.693-7.791 1.858 0 3.176 0.7191 4.135 2.097 0.839 1.378 1.079 2.757 1.079 5.453v0.4195zm16.66 12.35c-2.877 2.397-5.933 3.596-9.169 3.596-4.854 0-7.611-3.176-7.611-8.749v-0.2397h20.85v-2.217c0-7.551-1.498-12.46-4.794-15.82-2.277-2.397-6.292-3.835-10.43-3.835-4.794 0-8.39 1.618-11.33 4.914-3.176 3.536-4.554 7.851-4.554 14.26 0 11.45 6.712 18.76 17.08 18.76 5.034 0 9.469-1.618 13.66-5.034l-3.716-5.633"/>
  </g>
  <path style="fill:#fff;fill-rule:evenodd" d="m623.4 464.4c-2.697-2.337-7.551-3.895-12.41-3.895-7.97 0-14.98 4.255-18.82 11.39-2.217 4.255-3.296 9.109-3.296 15.22 0 7.191 1.978 13.12 5.933 17.56 4.015 4.674 9.229 6.772 16.06 6.772 5.573 0 9.708-1.378 13.54-4.554l-4.435-6.173c-2.936 2.277-5.573 3.116-8.45 3.116-4.195 0-7.491-1.858-9.469-5.513-1.498-2.637-2.038-6.412-2.038-13.06 0-5.753 0.839-9.828 2.757-12.64 1.738-2.637 5.034-4.255 8.33-4.255 2.757 0 5.334 0.8989 7.851 2.757l4.435-6.712"/>
  <path style="fill:#fff;fill-rule:evenodd" d="m629.1 460.6c0.4195 1.498 0.7191 4.854 0.7191 8.27v41.77h9.588v-25.89c2.097-1.918 5.154-3.356 7.491-3.356 2.697 0 3.656 1.318 3.656 4.974v24.27h9.289v-25.29c0-3.416-0.2397-4.674-0.9588-6.712-1.139-3.116-4.794-5.154-9.409-5.154-3.656 0-7.731 1.558-10.25 3.895 0-0.4195 0.1798-1.858 0.1798-2.996v-7.251c0-3.416-0.2397-6.832-0.6592-8.809l-9.648 2.277"/>
  <path style="fill:#fff;fill-rule:evenodd" d="m685.6 494.8-0.1198 7.731c-1.438 1.618-3.176 2.517-4.974 2.517-2.397 0-4.135-1.918-4.135-4.734 0-4.315 2.277-5.513 8.809-5.513zm-18.58-16.06 4.015 6.832c3.955-2.637 7.431-4.075 10.49-4.075 3.416 0 4.195 1.258 4.195 5.334v1.498c-0.7791-0.1199-1.378-0.1199-2.097-0.1199-11.51 0-17.38 3.955-17.38 12.46 0 7.131 4.435 11.27 12.46 11.27 2.936 0 5.453-0.7191 7.251-1.978 0.6592-0.5394 1.498-1.199 2.157-1.918 0.8989 1.858 2.877 3.416 5.094 4.375l5.034-5.753c-2.757-2.038-3.416-3.536-3.416-7.431v-0.6592l0.2397-12.11c0.0599-3.895-0.1199-4.974-0.5993-6.472-1.438-4.075-5.633-6.352-11.69-6.352-3.356 0-6.352 0.6592-9.888 2.157-2.517 1.019-3.955 1.738-5.873 2.936"/>
  <path style="fill:#fff;fill-rule:evenodd" d="m702.3 476c0.839 2.397 1.258 5.334 1.258 8.45v26.19h9.469v-25.53c2.217-1.978 4.674-3.296 6.592-3.296 2.457 0 3.176 1.258 3.176 5.334v23.49h9.229v-26.37c0-2.277-0.1798-3.835-0.5993-5.154-1.199-3.116-4.674-5.214-8.69-5.214-2.157 0-4.674 0.5393-6.532 1.558-1.558 0.7791-2.757 1.678-4.195 2.697 0-1.558-0.4794-3.056-1.318-4.554l-8.39 2.397"/>
  <path style="fill:#fff;fill-rule:evenodd" d="m739.1 476c0.839 2.397 1.258 5.334 1.258 8.45v26.19h9.469v-25.53c2.157-1.978 4.674-3.296 6.532-3.296 2.457 0 3.176 1.258 3.176 5.334v23.49h9.349v-26.37c0-2.277-0.1798-3.835-0.7191-5.154-1.139-3.116-4.674-5.214-8.69-5.214-2.097 0-4.554 0.5393-6.472 1.558-1.558 0.7791-2.757 1.678-4.195 2.697 0-1.558-0.4794-3.056-1.318-4.554l-8.39 2.397"/>
  <path style="fill:#fff;fill-rule:evenodd" d="m785.8 488.6v-0.1198c0-5.034 2.038-7.851 5.633-7.851 1.918 0 3.236 0.7191 4.195 2.157 0.839 1.318 1.079 2.697 1.079 5.393v0.4195zm16.66 12.35c-2.877 2.397-5.933 3.656-9.169 3.656-4.854 0-7.611-3.236-7.611-8.749v-0.2996h20.85v-2.217c0-7.551-1.498-12.41-4.794-15.82-2.337-2.397-6.292-3.775-10.43-3.775-4.794 0-8.45 1.558-11.39 4.854-3.176 3.536-4.495 7.851-4.495 14.32 0 11.39 6.712 18.7 17.02 18.7 5.094 0 9.528-1.618 13.66-4.974l-3.656-5.693"/>
  <path style="fill:#fff;fill-rule:evenodd" d="m822.5 458.4-9.648 2.157c0.2996 3.296 0.4794 6.232 0.4794 10.91v26.91c0 5.214 0.1798 6.352 0.839 8.15 1.139 3.056 4.435 4.914 8.39 4.914 2.097 0 4.075-0.2996 5.693-0.8989l-1.618-5.693c-0.5393 0.1198-0.7191 0.1198-1.079 0.1198-0.7791 0-1.558-0.3596-1.858-0.9588-0.5993-1.019-0.6592-1.858-0.6592-8.03v-28.23c0-5.034-0.1198-7.371-0.5394-9.349"/>
  <path style="fill:#fff;fill-rule:evenodd" d="m587.1 395.5 11.75 49.5h11.21l4.075-20.2c1.498-7.131 2.337-14.08 2.337-14.08 0.1198 1.378 0.839 7.671 2.337 14.26l4.375 20.02h10.79l11.87-49.5h-10.37l-4.075 18.58c-0.9588 4.854-2.517 14.8-2.637 16.36 0 0-1.199-8.39-2.157-13l-4.495-21.93h-10.8l-4.375 19.84c-1.498 6.772-2.337 13.78-2.517 15.64 0 0-0.6592-6.952-2.637-16.12l-4.255-19.36h-10.43"/>
  <path style="fill:#fff;fill-rule:evenodd" d="m655.7 422.6v-0.1198c0-5.034 2.038-7.851 5.633-7.851 1.918 0 3.236 0.7191 4.195 2.157 0.7791 1.318 1.079 2.697 1.079 5.393v0.4195zm16.66 12.35c-2.877 2.397-5.933 3.596-9.169 3.596-4.854 0-7.611-3.176-7.611-8.69v-0.2996h20.8v-2.217c0-7.551-1.498-12.41-4.794-15.82-2.277-2.397-6.292-3.835-10.43-3.835-4.794 0-8.45 1.618-11.33 4.914-3.236 3.536-4.554 7.851-4.554 14.32 0 11.39 6.712 18.7 17.08 18.7 5.094 0 9.469-1.618 13.6-5.034l-3.656-5.633"/>
  <path style="fill:#fff;fill-rule:evenodd" d="m700 428.8-0.1199 7.731c-1.438 1.618-3.176 2.457-4.974 2.457-2.397 0-4.135-1.858-4.135-4.674 0-4.315 2.277-5.513 8.809-5.513zm-18.58-16.06 4.015 6.832c3.895-2.637 7.431-4.075 10.49-4.075 3.476 0 4.195 1.258 4.195 5.334v1.498c-0.7191-0.1199-1.378-0.1199-2.097-0.1199-11.51 0-17.38 3.955-17.38 12.41 0 7.251 4.375 11.33 12.41 11.33 2.996 0 5.513-0.7191 7.311-1.978 0.6592-0.4794 1.498-1.199 2.157-1.918 0.8989 1.858 2.936 3.476 5.094 4.375l5.034-5.753c-2.757-2.038-3.416-3.536-3.416-7.431v-0.6592l0.2397-12.17c0.0599-3.835-0.1199-4.914-0.5993-6.472-1.438-4.015-5.633-6.292-11.69-6.292-3.356 0-6.352 0.6592-9.888 2.157-2.517 1.019-3.955 1.738-5.873 2.936"/>
  <path style="fill:#fff;fill-rule:evenodd" d="m736 408.5h-8.45c0-3.716 0.1798-7.611 0.5394-10.91l-9.588 2.397c-0.3596 2.637-0.3596 4.974-0.3596 8.51h-3.596v6.472h3.596v19.6c0 3.356 0.0599 4.075 0.5993 5.633 1.139 3.176 4.974 5.274 9.768 5.274 2.457 0 4.914-0.4794 7.731-1.618l-1.258-5.633c-1.678 0.4794-2.517 0.6592-3.356 0.6592-3.236 0-4.075-1.199-4.075-5.753v-18.16h6.053l2.397-6.472"/>
  <path style="fill:#fff;fill-rule:evenodd" d="m740.1 394.6c0.4195 1.498 0.7191 4.854 0.7191 8.21v41.83h9.588v-25.89c2.157-1.918 5.154-3.296 7.491-3.296 2.697 0 3.656 1.318 3.656 4.914v24.27h9.289v-25.2c0-3.476-0.2996-4.674-0.9588-6.772-1.139-3.116-4.794-5.154-9.409-5.154-3.656 0-7.731 1.558-10.25 3.955 0-0.4794 0.1798-1.918 0.1798-3.056v-7.191c0-3.476-0.1798-6.832-0.6592-8.869l-9.648 2.277"/>
  <path style="fill:#fff;fill-rule:evenodd" d="m786 422.6v-0.1198c0-5.034 2.038-7.851 5.633-7.851 1.978 0 3.236 0.7191 4.195 2.157 0.839 1.318 1.079 2.697 1.079 5.393v0.4195zm16.66 12.35c-2.877 2.397-5.933 3.596-9.169 3.596-4.854 0-7.611-3.176-7.611-8.69v-0.2996h20.91v-2.217c0-7.551-1.498-12.41-4.854-15.82-2.277-2.397-6.292-3.835-10.43-3.835-4.794 0-8.39 1.618-11.33 4.914-3.176 3.536-4.554 7.851-4.554 14.32 0 11.39 6.712 18.7 17.08 18.7 5.094 0 9.469-1.618 13.6-5.034l-3.656-5.633"/>
  <path style="fill:#fff;fill-rule:evenodd" d="m812 409.9c0.7791 2.038 1.318 5.693 1.318 10.61v24.09h9.469v-25.6c1.798-2.038 3.716-2.996 5.813-2.996 1.019 0 1.798 0.1798 2.757 0.7191l2.577-8.39c-1.438-0.6592-2.097-0.779-3.536-0.779-1.019 0-2.337 0.2397-3.056 0.5993-1.798 0.7791-4.015 2.697-5.393 4.614-0.1199-2.097-0.5993-3.656-1.498-5.214l-8.45 2.277"/>
  <path style="fill:#fff;fill-rule:evenodd" d="m587.4 330.6v8.21h11.99v40.87h10.01v-40.87h11.75l1.618-8.21z"/>
  <path style="fill:#fff;fill-rule:evenodd" d="m627 329.6c0.4195 1.498 0.7191 4.854 0.7191 8.21v41.83h9.588v-25.89c2.097-1.918 5.154-3.296 7.491-3.296 2.697 0 3.656 1.258 3.656 4.914v24.27h9.289v-25.29c0-3.416-0.2996-4.674-0.9588-6.712-1.139-3.116-4.794-5.154-9.409-5.154-3.656 0-7.731 1.558-10.25 3.895 0-0.4195 0.1798-1.858 0.1798-2.996v-7.251c0-3.416-0.2397-6.832-0.6592-8.809l-9.648 2.277"/>
  <path style="fill:#fff;fill-rule:evenodd" d="m674.3 357.6v-0.1798c0-4.974 2.038-7.791 5.693-7.791 1.858 0 3.176 0.7191 4.135 2.097 0.839 1.378 1.079 2.757 1.079 5.453v0.4195zm16.66 12.35c-2.877 2.397-5.933 3.596-9.169 3.596-4.854 0-7.611-3.176-7.611-8.749v-0.2397h20.85v-2.217c0-7.551-1.498-12.46-4.794-15.82-2.277-2.397-6.292-3.835-10.43-3.835-4.794 0-8.39 1.618-11.33 4.914-3.176 3.536-4.554 7.851-4.554 14.26 0 11.45 6.712 18.76 17.08 18.76 5.034 0 9.469-1.618 13.66-5.034l-3.716-5.633"/>
 </g>
</svg>
