<?xml version="1.0" encoding="UTF-8" standalone="no"?>
<svg
   xmlns:osb="http://www.openswatchbook.org/uri/2009/osb"
   xmlns:dc="http://purl.org/dc/elements/1.1/"
   xmlns:cc="http://creativecommons.org/ns#"
   xmlns:rdf="http://www.w3.org/1999/02/22-rdf-syntax-ns#"
   xmlns:svg="http://www.w3.org/2000/svg"
   xmlns="http://www.w3.org/2000/svg"
   xmlns:xlink="http://www.w3.org/1999/xlink"
   id="svg7649"
   version="1.0"
   width="32"
   height="32">
  <metadata
     id="metadata7661">
    <rdf:RDF>
      <cc:Work
         rdf:about="">
        <dc:format>image/svg+xml</dc:format>
        <dc:type
           rdf:resource="http://purl.org/dc/dcmitype/StillImage" />
        <dc:title></dc:title>
      </cc:Work>
    </rdf:RDF>
  </metadata>
  <defs
     id="defs7659">
    <linearGradient
       gradientTransform="matrix(0,-1,1,0,-1.5e-6,47.999998)"
       gradientUnits="userSpaceOnUse"
       x2="47"
       x1="1"
       id="linearGradient3764">
      <stop
         id="stop7"
         style="stop-color:#344e8e;stop-opacity:1" />
      <stop
         id="stop9"
         style="stop-color:#3a569c;stop-opacity:1"
         offset="1" />
    </linearGradient>
    <linearGradient
       gradientTransform="matrix(0,-1,1,0,44.444443,47.999998)"
       gradientUnits="userSpaceOnUse"
       x2="47"
       x1="1"
       id="linearGradient3764-1">
      <stop
         id="stop7-0"
         style="stop-color:#f7b747;stop-opacity:1" />
      <stop
         id="stop9-3"
         style="stop-color:#f8bd5a;stop-opacity:1"
         offset="1" />
    </linearGradient>
    <linearGradient
       gradientTransform="matrix(0,-1,1,0,-1.5e-6,47.999998)"
       gradientUnits="userSpaceOnUse"
       x2="47"
       x1="1"
       id="linearGradient3764-6">
      <stop
         id="stop7-7"
         style="stop-color:#f6b042;stop-opacity:1" />
      <stop
         id="stop9-32"
         style="stop-color:#f7b754;stop-opacity:1"
         offset="1" />
    </linearGradient>
    <linearGradient
       gradientTransform="matrix(0,-1,1,0,-1.5e-6,47.999998)"
       gradientUnits="userSpaceOnUse"
       x2="47"
       x1="1"
       id="linearGradient3764-2">
      <stop
         id="stop7-1"
         style="stop-color:#ad897f;stop-opacity:1" />
      <stop
         id="stop9-5"
         style="stop-color:#b5948b;stop-opacity:1"
         offset="1" />
    </linearGradient>
    <linearGradient
       id="linearGradient3874">
      <stop
         id="stop3876"
         offset="0"
         style="stop-color:#ffffff;stop-opacity:1;" />
      <stop
         id="stop3878"
         offset="1"
         style="stop-color:#ffffff;stop-opacity:0;" />
    </linearGradient>
    <linearGradient
       id="linearGradient3858">
      <stop
         style="stop-color:#000000;stop-opacity:1;"
         offset="0"
         id="stop3860" />
      <stop
         style="stop-color:#000000;stop-opacity:0;"
         offset="1"
         id="stop3862" />
    </linearGradient>
    <linearGradient
       id="linearGradient3045">
      <stop
         style="stop-color:#91bedd;stop-opacity:1;"
         offset="0"
         id="stop3047" />
      <stop
         style="stop-color:#4986b1;stop-opacity:1;"
         offset="1"
         id="stop3049" />
    </linearGradient>
    <linearGradient
       id="linearGradient4213">
      <stop
         id="stop4215"
         offset="0"
         style="stop-color:#b1d7f3;stop-opacity:1" />
      <stop
         id="stop4217"
         offset="1"
         style="stop-color:#8fafda;stop-opacity:1" />
    </linearGradient>
    <linearGradient
       id="linearGradient5460"
       osb:paint="gradient">
      <stop
         style="stop-color:#e6e6e6;stop-opacity:1"
         offset="0"
         id="stop5462" />
      <stop
         style="stop-color:#ffffff;stop-opacity:1"
         offset="1"
         id="stop5464" />
    </linearGradient>
    <linearGradient
       id="linearGradient5476"
       osb:paint="solid">
      <stop
         style="stop-color:#772953;stop-opacity:1;"
         offset="0"
         id="stop5478" />
    </linearGradient>
    <linearGradient
       xlink:href="#linearGradient4213"
       id="linearGradient3037"
       gradientUnits="userSpaceOnUse"
       x1="144"
       y1="918.36218"
       x2="144"
       y2="1052.3622"
       gradientTransform="matrix(1.7777778,0,0,1.7761194,16,-1563.3597)" />
    <filter
       id="filter4223"
       style="color-interpolation-filters:sRGB">
      <feBlend
         id="feBlend4225"
         in2="BackgroundImage"
         mode="multiply" />
    </filter>
    <filter
       id="filter4154"
       style="color-interpolation-filters:sRGB">
      <feComposite
         id="feComposite4156"
         in2="SourceGraphic"
         k3="0"
         k2="1"
         k1="0"
         result="composite1"
         k4="0"
         operator="arithmetic" />
      <feColorMatrix
         id="feColorMatrix4158"
         type="saturate"
         values="0"
         result="colormatrix1"
         in="composite1" />
      <feFlood
         id="feFlood4160"
         result="flood1"
         flood-color="rgb(72,59,72)" />
      <feBlend
         id="feBlend4162"
         result="blend1"
         mode="multiply"
         in2="colormatrix1"
         in="flood1" />
      <feBlend
         id="feBlend4164"
         mode="screen"
         in2="blend1"
         result="blend2" />
      <feColorMatrix
         id="feColorMatrix4166"
         type="saturate"
         values="1"
         result="colormatrix2"
         in="blend2" />
      <feComposite
         id="feComposite4168"
         operator="in"
         result="composite2"
         in2="SourceGraphic"
         in="colormatrix2" />
    </filter>
    <linearGradient
       xlink:href="#linearGradient3858"
       id="linearGradient3864"
       x1="272"
       y1="256"
       x2="368"
       y2="352"
       gradientUnits="userSpaceOnUse" />
    <linearGradient
       xlink:href="#linearGradient3874"
       id="linearGradient3872"
       gradientUnits="userSpaceOnUse"
       x1="272"
       y1="256"
       x2="368"
       y2="352"
       gradientTransform="rotate(180,272,272)" />
    <linearGradient
       xlink:href="#linearGradient3874"
       id="linearGradient3906"
       gradientUnits="userSpaceOnUse"
       gradientTransform="rotate(180,272,272)"
       x1="288"
       y1="264"
       x2="360"
       y2="328" />
    <linearGradient
       xlink:href="#linearGradient3858"
       id="linearGradient3908"
       gradientUnits="userSpaceOnUse"
       x1="288"
       y1="272"
       x2="368"
       y2="352" />
    <clipPath
       clipPathUnits="userSpaceOnUse"
       id="clipPath9430">
      <path
         id="path9432"
         d="m 166.0625,-196 179.875,0 C 491.2348,-196 512,-175.28677 512,-30.125 l 0,148.25 C 512,263.28618 491.2348,284 345.9375,284 l -179.875,0 C 20.7652,284 0,263.28618 0,118.125 L 0,-30.125 C 0,-175.28677 20.7652,-196 166.0625,-196 Z"
         style="color:#000000;display:inline;overflow:visible;visibility:visible;fill:#ffffff;fill-opacity:1;fill-rule:nonzero;stroke:none;stroke-width:1;marker:none;enable-background:new" />
    </clipPath>
  </defs>
  <path
     id="path7651"
     style="color:#000000;fill:#b28f86;fill-opacity:1"
     d="M 0,0 0,32 32,32 32,0 Z" />
  <g
     transform="matrix(1.0286367,0,0,1.0286367,-8.6623467,-8.8061883)"
     id="g8905">
    <g
       id="g27"
       transform="matrix(3.1889763,0,0,3.1889763,2.4123964,2.4135592)">
      <g
         id="g29"
         style="opacity:0.1"
         transform="translate(0.2822222,0.28222215)">
        <path
           id="path31"
           style="fill:#000000;fill-opacity:1;stroke:none"
           transform="matrix(0.28222223,0,0,0.28222223,-0.2822222,-0.28222215)"
           d="m 18.543,13 c -1.777,0 -3.226,1.299 -3.488,3 l -1.523,0 c -0.294,0 -0.531,0.237 -0.531,0.531 l 0,0.938 c 0,0.294 0.237,0.531 0.531,0.531 l 1.469,0 0,2 -1.469,0 c -0.294,0 -0.531,0.237 -0.531,0.531 l 0,0.938 c 0,0.294 0.237,0.531 0.531,0.531 l 1.469,0 0,2 -1.469,0 c -0.294,0 -0.531,0.237 -0.531,0.531 l 0,0.938 c 0,0.294 0.237,0.531 0.531,0.531 l 1.469,0 0,2 -1.469,0 c -0.294,0 -0.531,0.237 -0.531,0.531 l 0,0.938 c 0,0.294 0.237,0.531 0.531,0.531 l 1.469,0 0,2 -1.469,0 c -0.294,0 -0.531,0.237 -0.531,0.531 l 0,0.938 c 0,0.294 0.237,0.531 0.531,0.531 l 1.523,0 c 0.262,1.701 1.712,3 3.488,3 l 12.914,0 c 1.777,0 3.226,-1.299 3.488,-3 l 1.168,0 C 36.604,34 37,33.604 37,33.113 l 0,-2.227 c 0,-0.491 -0.396,-0.887 -0.887,-0.887 l -1.113,0 0,-3 1.113,0 c 0.491,0 0.887,-0.396 0.887,-0.887 l 0,-2.227 c 0,-0.491 -0.396,-0.887 -0.887,-0.887 l -1.113,0 0,-3 1.113,0 c 0.491,0 0.887,-0.396 0.887,-0.887 l 0,-2.227 c 0,-0.491 -0.396,-0.887 -0.887,-0.887 l -1.168,0 c -0.262,-1.701 -1.712,-3 -3.488,-3 l -12.914,0 z" />
      </g>
      <g
         id="g33">
        <rect
           id="rect35"
           style="fill:#45485b;fill-opacity:1;stroke:none"
           width="0.847"
           height="1.1289999"
           x="9.3129997"
           y="8.184"
           rx="0.25" />
        <rect
           id="rect37"
           style="fill:#e44933;fill-opacity:1;stroke:none"
           rx="0.25"
           y="6.2090001"
           x="9.3129997"
           height="1.1289999"
           width="0.847" />
        <rect
           id="rect39"
           style="fill:#ffca08;fill-opacity:1;stroke:none"
           width="0.847"
           height="1.1289999"
           x="9.3129997"
           y="4.2329998"
           rx="0.25" />
        <rect
           id="rect41"
           style="fill:#f9f9f9;fill-opacity:1;stroke:none"
           width="5.6440001"
           height="6.7729998"
           x="3.951"
           y="3.3870001"
           rx="1" />
        <path
           id="path43"
           style="fill:#b1c9c9;fill-opacity:1;stroke:none"
           d="m 4.948,3.387 c -0.554,0 -0.997,0.443 -0.997,0.997 l 0,4.78 c 0,0.554 0.443,0.997 0.997,0.997 l 0.132,0 0,-6.773 z" />
        <rect
           id="rect45"
           style="fill:#81584a;fill-opacity:1;stroke:none"
           rx="0.15000001"
           y="5.362"
           x="3.3870001"
           height="0.56400001"
           width="1.1289999" />
        <rect
           id="rect47"
           style="fill:#81584a;fill-opacity:1;stroke:none"
           width="1.1289999"
           height="0.56400001"
           x="3.3870001"
           y="6.4910002"
           rx="0.15000001" />
        <rect
           id="rect49"
           style="fill:#81584a;fill-opacity:1;stroke:none"
           rx="0.15000001"
           y="7.6199999"
           x="3.3870001"
           height="0.56400001"
           width="1.1289999" />
        <rect
           id="rect51"
           style="fill:#81584a;fill-opacity:1;stroke:none"
           width="1.1289999"
           height="0.56400001"
           x="3.3870001"
           y="8.7489996"
           rx="0.15000001" />
        <rect
           id="rect53"
           style="fill:#81584a;fill-opacity:1;stroke:none"
           width="1.1289999"
           height="0.56400001"
           x="3.3870001"
           y="4.2329998"
           rx="0.15000001" />
        <path
           id="path55"
           style="fill:#6a6e84;fill-opacity:1"
           d="M 6.819,8.746 C 6.407,8.729 6.128,8.698 5.913,8.644 5.666,8.582 5.49,8.489 5.418,8.381 5.368,8.306 5.359,8.268 5.363,8.127 5.366,8.008 5.366,8.007 5.394,7.949 5.463,7.806 5.592,7.684 5.829,7.537 5.946,7.464 6.188,7.346 6.36,7.278 6.531,7.21 6.57,7.183 6.607,7.103 6.626,7.063 6.63,7.044 6.63,6.995 6.63,6.901 6.613,6.853 6.555,6.789 6.311,6.516 6.154,6.111 6.154,5.752 6.154,5.355 6.326,5.045 6.628,4.896 6.756,4.833 6.868,4.806 7.022,4.8 7.445,4.784 7.794,5.018 7.913,5.4 7.976,5.601 7.977,5.87 7.917,6.107 7.858,6.337 7.726,6.599 7.59,6.754 7.519,6.835 7.512,6.847 7.497,6.916 7.48,6.999 7.484,7.082 7.509,7.135 7.537,7.194 7.573,7.22 7.68,7.258 c 0.559,0.2 0.953,0.465 1.051,0.706 0.017,0.041 0.018,0.057 0.018,0.183 0,0.134 0,0.139 -0.022,0.184 C 8.637,8.523 8.353,8.646 7.856,8.709 7.637,8.737 7.074,8.758 6.819,8.748 Z" />
      </g>
    </g>
  </g>
</svg>
