<?xml version="1.0" encoding="UTF-8" standalone="no"?>
<svg xmlns="http://www.w3.org/2000/svg" xmlns:osb="http://www.openswatchbook.org/uri/2009/osb" height="32" width="32" version="1.0" xmlns:xlink="http://www.w3.org/1999/xlink">
 <defs>
  <clipPath id="b">
   <g transform="translate(0 -1004)">
    <rect rx="4" height="46" width="46" y="1005" x="1" fill="#1890d0"/>
   </g>
  </clipPath>
  <clipPath id="a">
   <g transform="translate(0 -1004)">
    <rect rx="4" height="46" width="46" y="1005" x="1" fill="#1890d0"/>
   </g>
  </clipPath>
 </defs>
 <path style="color:#000000;fill:#fff" d="m0 0v32h32v-32z"/>
 <g transform="translate(-7.542 -7.5)">
  <g clip-path="url(#b)">
   <g style="opacity:.1">
    <path d="m23 24c0 3.313-2.688 6-6 6-3.313 0-6-2.688-6-6 0-3.313 2.688-6 6-6 3.313 0 6 2.688 6 6"/>
    <path d="m37 24c0 3.313-2.688 6-6 6-3.313 0-6-2.688-6-6 0-3.313 2.688-6 6-6 3.313 0 6 2.688 6 6"/>
   </g>
  </g>
 </g>
 <g transform="translate(-8.458 -7.5)">
  <g clip-path="url(#a)">
   <g transform="translate(0,-1)">
    <path style="fill:#6292c1" d="m23 24c0 3.313-2.688 6-6 6-3.313 0-6-2.688-6-6 0-3.313 2.688-6 6-6 3.313 0 6 2.688 6 6"/>
    <path style="fill:#f142a3" d="m37 24c0 3.313-2.688 6-6 6-3.313 0-6-2.688-6-6 0-3.313 2.688-6 6-6 3.313 0 6 2.688 6 6"/>
   </g>
  </g>
 </g>
</svg>
