<?xml version="1.0" encoding="UTF-8" standalone="no"?>
<svg xmlns:rdf="http://www.w3.org/1999/02/22-rdf-syntax-ns#" xmlns="http://www.w3.org/2000/svg" height="32" width="32" version="1.0" xmlns:cc="http://creativecommons.org/ns#" xmlns:dc="http://purl.org/dc/elements/1.1/">
 <path style="fill:#00343c" d="m0 0v32h32v-32z"/>
 <g style="opacity:.1" transform="matrix(.8763 0 0 .8763 -5.257 -3.421)">
  <path d="m17.42 22.53c1.711 3.422 4.644 6.233 8.07 8.07l2.689-2.689c0.367-0.367 0.856-0.489 1.222-0.244 1.344 0.489 2.811 0.733 4.4 0.733 0.733 0 1.222 0.489 1.222 1.222v4.156c0 0.733-0.489 1.222-1.222 1.222-11.49 0-20.78-9.289-20.78-20.78 0-0.733 0.489-1.222 1.222-1.222h4.278c0.733 0 1.222 0.489 1.222 1.222 0 1.467 0.244 2.933 0.733 4.4 0.122 0.367 0 0.856-0.244 1.222l-2.811 2.689z"/>
 </g>
 <g transform="matrix(.8763 0 0 .8763 -5.865 -4.03)">
  <path style="fill:#e3e3e3" d="m17.42 22.53c1.711 3.422 4.644 6.233 8.07 8.07l2.689-2.689c0.367-0.367 0.856-0.489 1.222-0.244 1.344 0.489 2.811 0.733 4.4 0.733 0.733 0 1.222 0.489 1.222 1.222v4.156c0 0.733-0.489 1.222-1.222 1.222-11.49 0-20.78-9.289-20.78-20.78 0-0.733 0.489-1.222 1.222-1.222h4.278c0.733 0 1.222 0.489 1.222 1.222 0 1.467 0.244 2.933 0.733 4.4 0.122 0.367 0 0.856-0.244 1.222l-2.811 2.689z"/>
 </g>
 <g transform="matrix(.2810 0 0 .2810 14.4 3.635)">
  <g transform="translate(1,1)"></g>
  <path style="opacity:.1" d="m25 10c-8.284 0-15 6.716-15 15s6.716 15 15 15 15-6.716 15-15-6.716-15-15-15m0 2c7.18-0.002 13 5.82 13 13s-5.82 13-13 13c-6.03 0-11.27-4.16-12.64-10.04l4.637-6.963h-4.357c1.73-5.36 6.72-9 12.36-9"/>
  <path style="fill:#777" d="m9 24c0 8.284 6.716 15 15 15 0.5-0.625 0.5-1.292 0-2-7.18 0-13-5.82-13-13z"/>
  <path style="fill:#f9f9f9" d="m24 9a15 15 0 0 0 -15 15h2a13 13 0 0 1 13 -13 13 13 0 0 1 13 13 13 13 0 0 1 -13 13v2a15 15 0 0 0 15 -15 15 15 0 0 0 -15 -15"/>
  <path style="fill:#f9f9f9" d="m9.559 20a15 15 0 0 0 -0.559 4 15 15 0 0 0 0.916 5.13l6.084-9.13h-6.441"/>
 </g>
</svg>
