<?xml version="1.0" encoding="UTF-8" standalone="no"?>
<svg xmlns="http://www.w3.org/2000/svg" xmlns:osb="http://www.openswatchbook.org/uri/2009/osb" height="32" width="32" version="1.0" xmlns:xlink="http://www.w3.org/1999/xlink">
 <path style="color:#000000;fill:#fff" d="m0 0v32h32v-32z"/>
 <g style="opacity:.1;fill:#300707" transform="matrix(.1024 0 0 .1024 1.502 10.7)">
  <path d="m38.87 26.31c-21.15 0-38.77 8.97-38.77 36.04 0 21.44 11.85 34.94 39.31 34.94 32.33 0 34.4-21.29 34.4-21.29h-15.66s-3.358 11.47-19.69 11.47c-13.3 0-22.87-8.986-22.87-21.58h59.86v-7.904c0-12.46-7.91-31.67-36.58-31.67zm-0.55 10.1c12.66 0 21.29 7.757 21.29 19.38h-43.68c0-12.34 11.27-19.38 22.39-19.38z" style="fill:#300707"/>
  <path d="m75.44 0.1v83.6c0 4.745-0.339 11.41-0.339 11.41h14.94s0.537-4.785 0.537-9.159c0 0 7.381 11.55 27.45 11.55 21.13 0 35.49-14.67 35.49-35.7 0-19.56-13.19-35.29-35.46-35.29-20.85 0-27.33 11.26-27.33 11.26v-37.67zm38.77 36.75c14.35 0 23.48 10.65 23.48 24.95 0 15.33-10.54 25.36-23.38 25.36-15.32 0-23.58-11.96-23.58-25.22 0-12.35 7.414-25.08 23.48-25.08z" style="fill:#300707"/>
  <path d="m190.6 26.31c-31.81 0-33.85 17.42-33.85 20.2h15.83s0.83-10.17 16.93-10.17c10.46 0 18.56 4.788 18.56 13.99v3.276h-18.56c-24.64 0-37.67 7.21-37.67 21.84 0 14.4 12.04 22.23 28.31 22.23 22.17 0 29.31-12.25 29.31-12.25 0 4.873 0.375 9.675 0.375 9.675h14.08s-0.545-5.952-0.545-9.76v-32.92c0-21.58-17.41-26.12-32.76-26.12zm17.47 37.13v4.368c0 5.697-3.516 19.86-24.21 19.86-11.33 0-16.19-5.656-16.19-12.22 0-11.94 16.36-12.01 40.4-12.01z" style="fill:#300707"/>
  <path d="m214.9 29.04h17.81l25.56 51.22 25.51-51.22h16.1l-46.46 91.18h-16.9l13.4-25.39z" style="fill:#300707"/>
 </g>
 <g transform="matrix(.1024 0 0 .1024 .6390 9.839)">
  <path id="e" style="fill:#e53238" d="m38.87 26.31c-21.15 0-38.77 8.97-38.77 36.04 0 21.44 11.85 34.94 39.31 34.94 32.33 0 34.4-21.29 34.4-21.29h-15.66s-3.358 11.47-19.69 11.47c-13.3 0-22.87-8.986-22.87-21.58h59.86v-7.904c0-12.46-7.91-31.67-36.58-31.67zm-0.55 10.1c12.66 0 21.29 7.757 21.29 19.38h-43.68c0-12.34 11.27-19.38 22.39-19.38z"/>
  <path id="b" style="fill:#0064d2" d="m75.44 0.1v83.6c0 4.745-0.339 11.41-0.339 11.41h14.94s0.537-4.785 0.537-9.159c0 0 7.381 11.55 27.45 11.55 21.13 0 35.49-14.67 35.49-35.7 0-19.56-13.19-35.29-35.46-35.29-20.85 0-27.33 11.26-27.33 11.26v-37.67zm38.77 36.75c14.35 0 23.48 10.65 23.48 24.95 0 15.33-10.54 25.36-23.38 25.36-15.32 0-23.58-11.96-23.58-25.22 0-12.35 7.414-25.08 23.48-25.08z"/>
  <path id="a" style="fill:#f5af02" d="m190.6 26.31c-31.81 0-33.85 17.42-33.85 20.2h15.83s0.83-10.17 16.93-10.17c10.46 0 18.56 4.788 18.56 13.99v3.276h-18.56c-24.64 0-37.67 7.21-37.67 21.84 0 14.4 12.04 22.23 28.31 22.23 22.17 0 29.31-12.25 29.31-12.25 0 4.873 0.375 9.675 0.375 9.675h14.08s-0.545-5.952-0.545-9.76v-32.92c0-21.58-17.41-26.12-32.76-26.12zm17.47 37.13v4.368c0 5.697-3.516 19.86-24.21 19.86-11.33 0-16.19-5.656-16.19-12.22 0-11.94 16.36-12.01 40.4-12.01z"/>
  <path id="y" style="fill:#86b817" d="m214.9 29.04h17.81l25.56 51.22 25.51-51.22h16.1l-46.46 91.18h-16.9l13.4-25.39z"/>
 </g>
</svg>
