<?xml version="1.0" encoding="UTF-8" standalone="no"?>
<svg xmlns:rdf="http://www.w3.org/1999/02/22-rdf-syntax-ns#" xmlns="http://www.w3.org/2000/svg" xmlns:osb="http://www.openswatchbook.org/uri/2009/osb" height="32" width="32" version="1.0" xmlns:cc="http://creativecommons.org/ns#" xmlns:xlink="http://www.w3.org/1999/xlink" xmlns:dc="http://purl.org/dc/elements/1.1/">
 <path style="color:#000000;fill:#321a8c" d="m0 0v32h32v-32z"/>
 <g style="opacity:.1" transform="matrix(.2261 0 0 .2261 10.66 5.313)">
  <path d="m24.4 32.6c-0.018 3.233-2.977 6.711-6.812 6.711v54.79c-0.001 7.803-10.61 7.803-10.62 0v-54.79c-3.727 0-6.977-2.88-6.97-7.17v-30.19c-0.007-2.62 3.787-2.721 3.812 0.103v22.31h3.153v-22.52c0-2.407 3.652-2.563 3.661 0.103v22.42h3.251v-22.47c0.024-2.539 3.573-2.64 3.558 0.102v22.36h3.255v-22.47c-0.012-2.513 3.695-2.615 3.711 0.102v30.6h-0.001z"/>
  <path d="m52.66 8.965v85.14c0.014 7.606-10.61 7.493-10.62 0v-33.8h-5.643v-51.34c-0.006-11.95 16.28-11.95 16.26 0z"/>
 </g>
 <g style="fill:#fff" transform="matrix(.2261 0 0 .2261 10.05 4.705)">
  <path style="fill:#fff" d="m24.4 32.6c-0.018 3.233-2.977 6.711-6.812 6.711v54.79c-0.001 7.803-10.61 7.803-10.62 0v-54.79c-3.727 0-6.977-2.88-6.97-7.17v-30.19c-0.007-2.62 3.787-2.721 3.812 0.103v22.31h3.153v-22.52c0-2.407 3.652-2.563 3.661 0.103v22.42h3.251v-22.47c0.024-2.539 3.573-2.64 3.558 0.102v22.36h3.255v-22.47c-0.012-2.513 3.695-2.615 3.711 0.102v30.6h-0.001z"/>
  <path style="fill:#fff" d="m52.66 8.965v85.14c0.014 7.606-10.61 7.493-10.62 0v-33.8h-5.643v-51.34c-0.006-11.95 16.28-11.95 16.26 0z"/>
 </g>
</svg>
