<?xml version="1.0" encoding="UTF-8" standalone="no"?>
<svg xmlns:rdf="http://www.w3.org/1999/02/22-rdf-syntax-ns#" xmlns="http://www.w3.org/2000/svg" xmlns:osb="http://www.openswatchbook.org/uri/2009/osb" height="32" width="32" version="1.0" xmlns:cc="http://creativecommons.org/ns#" xmlns:xlink="http://www.w3.org/1999/xlink" xmlns:dc="http://purl.org/dc/elements/1.1/">
 <path style="color:#000000;fill:#005193" d="m0 0v32h32v-32z"/>
 <path style="opacity:.1" d="m16.28 6.144c-1.26 0.027-2.51 0.346-3.62 0.99-5.783 3.066-8.003 11.3-5.637 15.69 1.684 2.715 5.678 4.582 9.792 4.667 2.331-0.04793 4.619-0.674 6.475-1.696-0.000053 0.000064 3.071 1.055 3.179 1.055 0.2145 0 0.3219-0.1074 0.3219-0.3219 0-0.1073-0.7402-2.949-0.7402-2.949 0.2033-0.2451 0.3949-0.4932 0.5572-0.7548 2.36-4.39 0.14-12.62-5.64-15.69-1.11-0.64-2.36-0.959-3.62-0.986h-0.5321-0.5321z"/>
 <path style="fill:#ff5a49" d="m15.47 5.329c-1.27 0.027-2.51 0.346-3.63 0.99-5.778 3.066-7.998 11.29-5.632 15.68 1.684 2.715 5.678 4.582 9.792 4.667 2.331-0.04793 4.619-0.674 6.475-1.696-0.000053 0.000064 3.071 1.055 3.179 1.055 0.2145 0 0.3219-0.1074 0.3219-0.3219 0-0.1073-0.7402-2.949-0.7402-2.949 0.2033-0.2451 0.3949-0.4932 0.5572-0.7548 2.36-4.39 0.14-12.62-5.64-15.68-1.12-0.645-2.36-0.964-3.63-0.991h-0.5321-0.5321z"/>
 <path style="fill:#fff" d="m15.63 7.758c0.1383-0.00335 0.281 0.0005113 0.4204 0.00698 2.453 0.1122 4.996 1.639 6.611 4.19 0.07635 0.1193 0.1526 0.2425 0.2242 0.3666 0.07158 0.1241 0.1381 0.261 0.2032 0.3869 2.034 3.893 1.206 8.395-1.939 10.21-4.269 2.67-10.6 0.984-12.63-2.288-1.819-3.389-0.1044-9.728 4.339-12.1 0.8599-0.4972 1.799-0.7575 2.767-0.7807z"/>
 <path style="fill:#ff5a49" d="m19.3 13.27c-0.9599 0-1.736 0.5802-1.736 1.291 0 0.18 0.0509 0.3476 0.1409 0.5033 0.2657-0.459 0.8786-0.7787 1.595-0.7787 0.7178 0 1.337 0.3186 1.602 0.7787 0.08937-0.1551 0.1346-0.3239 0.1346-0.5033 0-0.7113-0.7765-1.291-1.736-1.291z"/>
 <path style="fill:#ff5a49;fill-rule:evenodd" d="m17.57 17.17c0 0.8622-0.7019 1.561-1.568 1.561-0.8658 0-1.568-0.699-1.568-1.561h3.135z"/>
 <path style="fill:#ff5a49" d="m12.7 13.27c-0.9599 0-1.736 0.5802-1.736 1.291 0 0.18 0.0509 0.3476 0.1409 0.5033 0.2657-0.459 0.8786-0.7787 1.595-0.7787 0.7178 0 1.337 0.3186 1.602 0.7787 0.08937-0.1551 0.1346-0.3239 0.1346-0.5033 0-0.7113-0.7765-1.291-1.736-1.291z"/>
</svg>
