<?xml version="1.0" encoding="UTF-8" standalone="no"?>
<svg
   xmlns:dc="http://purl.org/dc/elements/1.1/"
   xmlns:cc="http://creativecommons.org/ns#"
   xmlns:rdf="http://www.w3.org/1999/02/22-rdf-syntax-ns#"
   xmlns:svg="http://www.w3.org/2000/svg"
   xmlns="http://www.w3.org/2000/svg"
   id="svg2"
   viewBox="0 0 32 32"
   version="1.1"
   width="32"
   height="32">
  <metadata
     id="metadata24">
    <rdf:RDF>
      <cc:Work
         rdf:about="">
        <dc:format>image/svg+xml</dc:format>
        <dc:type
           rdf:resource="http://purl.org/dc/dcmitype/StillImage" />
        <dc:title></dc:title>
      </cc:Work>
    </rdf:RDF>
  </metadata>
  <defs
     id="defs22" />
  <path
     style="fill:#850909;fill-opacity:1"
     id="path4"
     fill="#333"
     d="m0 0v32h32v-32z" />
  <g
     style="fill:#000000;fill-opacity:1;opacity:0.1"
     transform="translate(1.220339,1.1525424)"
     id="g4161">
    <path
       id="path4163"
       d="m 7.113,8.538 0,5.315 5.228,0 0,-5.315 -5.228,0 z m 1.406,0.755 0.9793,0 c 0.3095,0 0.549,0.04236 0.7208,0.125 0.1738,0.0848 0.3053,0.2015 0.3965,0.3499 0.09116,0.1463 0.1357,0.318 0.1357,0.513 0,0.371 -0.1887,0.6381 -0.5681,0.8014 0.2714,0.05088 0.4896,0.1652 0.6508,0.3412 0.1611,0.1781 0.2418,0.388 0.2418,0.6339 0,0.1929 -0.05088,0.3646 -0.1484,0.5172 -0.09752,0.1526 -0.2417,0.2777 -0.4304,0.3731 -0.1887,0.0954 -0.4283,0.1442 -0.7123,0.1442 l -1.266,0 0,-3.799 z m 0.5341,0.4833 0,1.141 0.3562,0 c 0.2862,0 0.4897,-0.05298 0.6085,-0.1653 0.1208,-0.1102 0.1802,-0.2523 0.1802,-0.4283 0,-0.3646 -0.2269,-0.547 -0.6827,-0.547 l -0.4622,0 z m 0,1.626 0,1.206 0.5279,0 c 0.2925,0 0.4918,-0.02336 0.5957,-0.07 0.1039,-0.04664 0.1865,-0.1187 0.2501,-0.2162 0.0636,-0.09752 0.09546,-0.2036 0.09546,-0.316 0,-0.1145 -0.03396,-0.2205 -0.09968,-0.318 -0.06784,-0.09752 -0.1632,-0.1674 -0.2841,-0.2162 -0.123,-0.04664 -0.318,-0.06998 -0.583,-0.06998 l -0.5025,0 z"
       style="fill:#000000;fill-opacity:1" />
    <path
       id="path4165"
       style="fill:#000000;fill-opacity:1"
       d="m 13.13,8.538 0,5.315 5.228,0 0,-5.315 -5.228,0 z m 1.406,0.755 0.9793,0 c 0.3095,0 0.549,0.04236 0.7208,0.125 0.1738,0.0848 0.3053,0.2015 0.3965,0.3499 0.09116,0.1463 0.1357,0.318 0.1357,0.513 0,0.371 -0.1887,0.6381 -0.5681,0.8014 0.2714,0.05088 0.4896,0.1652 0.6508,0.3412 0.1611,0.1781 0.2418,0.388 0.2418,0.6339 0,0.1929 -0.05088,0.3646 -0.1484,0.5172 -0.09752,0.1526 -0.2417,0.2777 -0.4304,0.3731 -0.1887,0.0954 -0.4283,0.1442 -0.7123,0.1442 l -1.266,0 0,-3.799 z m 0.5341,0.4833 0,1.141 0.3562,0 c 0.2862,0 0.4897,-0.05298 0.6085,-0.1653 0.1208,-0.1102 0.1802,-0.2523 0.1802,-0.4283 0,-0.3646 -0.2269,-0.547 -0.6827,-0.547 l -0.4622,0 z m 0,1.626 0,1.206 0.5279,0 c 0.2926,0 0.4918,-0.02336 0.5957,-0.07 0.1039,-0.04664 0.1865,-0.1187 0.2501,-0.2162 0.0636,-0.09752 0.09546,-0.2036 0.09546,-0.316 0,-0.1145 -0.03396,-0.2205 -0.09968,-0.318 -0.06784,-0.09752 -0.1632,-0.1674 -0.2841,-0.2162 -0.123,-0.04664 -0.318,-0.06998 -0.583,-0.06998 l -0.5025,0 z" />
    <path
       id="path4167"
       d="m 19.19,8.538 0,5.315 5.228,0 0,-5.315 -5.228,0 z m 2.83,0.6995 c 0.3922,0 0.8268,0.1039 1.308,0.3117 l 0,0.5851 c -0.44,-0.26 -0.87,-0.387 -1.28,-0.387 -0.4261,0 -0.7823,0.1378 -1.062,0.4134 -0.2841,0.2735 -0.4261,0.6168 -0.4261,1.03 0,0.4176 0.1399,0.759 0.4176,1.028 0.2777,0.2671 0.6339,0.4007 1.066,0.4007 0.4515,0 0.8924,-0.1399 1.327,-0.4239 l 0,0.5999 c -0.3943,0.2184 -0.8459,0.3265 -1.359,0.3265 -0.4176,0 -0.7694,-0.0848 -1.06,-0.2544 -0.2904,-0.1717 -0.5216,-0.4071 -0.6912,-0.706 -0.1675,-0.301 -0.2523,-0.6233 -0.2523,-0.9709 0,-0.5533 0.1929,-1.018 0.5809,-1.395 0.3879,-0.3752 0.865,-0.5639 1.433,-0.5639 z"
       style="fill:#000000;fill-opacity:1" />
    <path
       id="path4169"
       d="m 7.889,16.43 0.9476,0 0,6.951 -0.8586,0 -4.645,-5.351 0,5.351 -0.937,0 0,-6.951 0.8077,0 4.685,5.399 0,-5.399 z"
       style="fill:#000000;fill-opacity:1" />
    <path
       id="path4171"
       d="m 10.32,16.31 3.941,0 0,0.8861 -2.947,0 0,2.12 2.849,0 0,0.8904 -2.849,0 0,2.158 3.042,0 0,0.8882 -4.036,0 0,-6.943 z"
       style="fill:#000000;fill-opacity:1" />
    <path
       id="path4173"
       d="m 24.27,16.43 0.9921,0 -2.811,6.981 -0.2184,0 -2.273,-5.652 -2.296,5.652 -0.212,0 -2.803,-6.981 1.003,0 1.916,4.793 1.927,-4.793 0.9412,0 1.935,4.793 1.897,-4.793 z"
       style="fill:#000000;fill-opacity:1" />
    <path
       id="path4175"
       d="m 27.75,20.47 -0.7589,-0.46 c -0.4749,-0.2883 -0.8119,-0.5745 -1.011,-0.8543 -0.2014,-0.2798 -0.301,-0.6021 -0.301,-0.9667 0,-0.5469 0.1887,-0.9921 0.5681,-1.333 0.3795,-0.3413 0.8734,-0.513 1.482,-0.513 0.5809,0 1.113,0.1632 1.598,0.4897 l 0,1.128 c -0.5024,-0.4812 -1.041,-0.7229 -1.618,-0.7229 -0.3265,0 -0.5936,0.07632 -0.8035,0.2268 -0.2078,0.1505 -0.3137,0.3413 -0.3137,0.5766 0,0.2078 0.07844,0.4028 0.2311,0.5851 0.1548,0.1823 0.4028,0.3731 0.742,0.5724 l 0.7632,0.4494 c 0.848,0.5067 1.272,1.151 1.272,1.933 0,0.5575 -0.1866,1.011 -0.5597,1.359 -0.3731,0.3498 -0.8586,0.5236 -1.459,0.5236 -0.6847,0 -1.31,-0.212 -1.874,-0.6339 l 0,-1.266 c 0.5363,0.6805 1.157,1.024 1.866,1.024 0.3137,0 0.5724,-0.08904 0.7801,-0.2629 0.2078,-0.1738 0.3095,-0.3901 0.3095,-0.6508 0,-0.424 -0.3032,-0.8247 -0.9137,-1.204 z"
       style="fill:#000000;fill-opacity:1" />
  </g>
  <g
     id="g4152">
    <path
       style="fill:#fff"
       d="m7.113 8.538v5.315h5.228v-5.315h-5.228zm1.406 0.755h0.9793c0.3095 0 0.549 0.04236 0.7208 0.125 0.1738 0.0848 0.3053 0.2015 0.3965 0.3499 0.09116 0.1463 0.1357 0.318 0.1357 0.513 0 0.371-0.1887 0.6381-0.5681 0.8014 0.2714 0.05088 0.4896 0.1652 0.6508 0.3412 0.1611 0.1781 0.2418 0.388 0.2418 0.6339 0 0.1929-0.05088 0.3646-0.1484 0.5172s-0.2417 0.2777-0.4304 0.3731-0.4283 0.1442-0.7123 0.1442h-1.266v-3.799zm0.5341 0.4833v1.141h0.3562c0.2862 0 0.4897-0.05298 0.6085-0.1653 0.1208-0.1102 0.1802-0.2523 0.1802-0.4283 0-0.3646-0.2269-0.547-0.6827-0.547h-0.4622zm0 1.626v1.206h0.5279c0.2925 0 0.4918-0.02336 0.5957-0.07s0.1865-0.1187 0.2501-0.2162c0.0636-0.09752 0.09546-0.2036 0.09546-0.316 0-0.1145-0.03396-0.2205-0.09968-0.318-0.06784-0.09752-0.1632-0.1674-0.2841-0.2162-0.123-0.04664-0.318-0.06998-0.583-0.06998h-0.5025z"
       id="path6" />
    <path
       d="m13.13 8.538v5.315h5.228v-5.315h-5.228zm1.406 0.755h0.9793c0.3095 0 0.549 0.04236 0.7208 0.125 0.1738 0.0848 0.3053 0.2015 0.3965 0.3499 0.09116 0.1463 0.1357 0.318 0.1357 0.513 0 0.371-0.1887 0.6381-0.5681 0.8014 0.2714 0.05088 0.4896 0.1652 0.6508 0.3412 0.1611 0.1781 0.2418 0.388 0.2418 0.6339 0 0.1929-0.05088 0.3646-0.1484 0.5172s-0.2417 0.2777-0.4304 0.3731-0.4283 0.1442-0.7123 0.1442h-1.266v-3.799zm0.5341 0.4833v1.141h0.3562c0.2862 0 0.4897-0.05298 0.6085-0.1653 0.1208-0.1102 0.1802-0.2523 0.1802-0.4283 0-0.3646-0.2269-0.547-0.6827-0.547h-0.4622zm0 1.626v1.206h0.5279c0.2926 0 0.4918-0.02336 0.5957-0.07s0.1865-0.1187 0.2501-0.2162c0.0636-0.09752 0.09546-0.2036 0.09546-0.316 0-0.1145-0.03396-0.2205-0.09968-0.318-0.06784-0.09752-0.1632-0.1674-0.2841-0.2162-0.123-0.04664-0.318-0.06998-0.583-0.06998h-0.5025z"
       style="fill:#fff"
       id="path8" />
    <path
       style="fill:#fff"
       d="m19.19 8.538v5.315h5.228v-5.315h-5.228zm2.83 0.6995c0.3922 0 0.8268 0.1039 1.308 0.3117v0.5851c-0.44-0.26-0.87-0.387-1.28-0.387-0.4261 0-0.7823 0.1378-1.062 0.4134-0.2841 0.2735-0.4261 0.6168-0.4261 1.03 0 0.4176 0.1399 0.759 0.4176 1.028 0.2777 0.2671 0.6339 0.4007 1.066 0.4007 0.4515 0 0.8924-0.1399 1.327-0.4239v0.5999c-0.3943 0.2184-0.8459 0.3265-1.359 0.3265-0.4176 0-0.7694-0.0848-1.06-0.2544-0.2904-0.1717-0.5216-0.4071-0.6912-0.706-0.1675-0.301-0.2523-0.6233-0.2523-0.9709 0-0.5533 0.1929-1.018 0.5809-1.395 0.3879-0.3752 0.865-0.5639 1.433-0.5639z"
       id="path10" />
    <path
       style="fill:#fff"
       d="m7.889 16.43h0.9476v6.951h-0.8586l-4.645-5.351v5.351h-0.937v-6.951h0.8077l4.685 5.399v-5.399z"
       id="path12" />
    <path
       style="fill:#fff"
       d="m10.32 16.31h3.941v0.8861h-2.947v2.12h2.849v0.8904h-2.849v2.158h3.042v0.8882h-4.036v-6.943z"
       id="path14" />
    <path
       style="fill:#fff"
       d="m24.27 16.43h0.9921l-2.811 6.981h-0.2184l-2.273-5.652-2.296 5.652h-0.212l-2.803-6.981h1.003l1.916 4.793 1.927-4.793h0.9412l1.935 4.793 1.897-4.793z"
       id="path16" />
    <path
       style="fill:#fff"
       d="m27.75 20.47-0.7589-0.46c-0.4749-0.2883-0.8119-0.5745-1.011-0.8543-0.2014-0.2798-0.301-0.6021-0.301-0.9667 0-0.5469 0.1887-0.9921 0.5681-1.333 0.3795-0.3413 0.8734-0.513 1.482-0.513 0.5809 0 1.113 0.1632 1.598 0.4897v1.128c-0.5024-0.4812-1.041-0.7229-1.618-0.7229-0.3265 0-0.5936 0.07632-0.8035 0.2268-0.2078 0.1505-0.3137 0.3413-0.3137 0.5766 0 0.2078 0.07844 0.4028 0.2311 0.5851 0.1548 0.1823 0.4028 0.3731 0.742 0.5724l0.7632 0.4494c0.848 0.5067 1.272 1.151 1.272 1.933 0 0.5575-0.1866 1.011-0.5597 1.359-0.3731 0.3498-0.8586 0.5236-1.459 0.5236-0.6847 0-1.31-0.212-1.874-0.6339v-1.266c0.5363 0.6805 1.157 1.024 1.866 1.024 0.3137 0 0.5724-0.08904 0.7801-0.2629 0.2078-0.1738 0.3095-0.3901 0.3095-0.6508 0-0.424-0.3032-0.8247-0.9137-1.204z"
       id="path18" />
  </g>
</svg>
