<?xml version="1.0" encoding="UTF-8" standalone="no"?>
<svg xmlns="http://www.w3.org/2000/svg" xmlns:osb="http://www.openswatchbook.org/uri/2009/osb" height="32" width="32" version="1.0" xmlns:xlink="http://www.w3.org/1999/xlink">
 <path d="m12 25h0.92v-15h-0.92z" style="opacity:.1;fill:#040404"/>
 <path style="color:#000000;fill:#f50037" d="m0 0v32h32v-32z"/>
 <path d="m12 25h0.92v-15h-0.92z" style="opacity:.1;fill:#040404"/>
 <path style="fill:#fff" d="m11 23h0.92v-14h-0.92z"/>
 <path d="m8.2 15c0.016-0.95 1.7-0.98 1.7-0.046l0.015 0.81h1.2v-0.75c0.081-2.5-4.2-2.5-4.2-0.062v4.3c-0.033 2.4 4.3 2.5 4.2 0v-1h-1.1v0.97c0 0.94-1.6 0.95-1.6 0v-4.4l-0.0021 0.046" style="opacity:.1;fill:#040404"/>
 <path style="fill:#fff" d="m11 23h0.92v-14h-0.92z"/>
 <path d="m15 14s0.22-0.32 0.79-0.64c0.72-0.4 1.4-0.0017 1.3-0.046 0.57 0.25 0.79 0.87 0.83 1.5v5.1h0.8v0.94h-2.1l-0.0013-6.1c0-0.89-1.5-0.86-1.5 0.042l0.0017-0.042v6.1h-2v-1l0.59 0.0021v-5.7l-0.7-0.0043v-0.93h1.8l0.0048 0.69" style="opacity:.1;fill:#040404"/>
 <path style="fill:#fff" d="m7 14c0.016-0.95 1.7-0.98 1.7-0.046l0.015 0.81h1.2v-0.75c0.081-2.5-4.2-2.5-4.2-0.062v4.3c-0.033 2.4 4.3 2.5 4.2 0v-0.91h-1.3v0.97c0 0.94-1.6 0.95-1.6 0v-4.4l-0.0021 0.046"/>
 <path d="m25 19c0.04 0.68 0.26 1.3 0.83 1.6-0.11-0.049 0.28 0.14 0.68 0.14 0.21-0.0054 1.2-0.0043 1.2-0.0043v-0.94s-0.51-0.0064-0.78-0.0043c-0.34 0.0043-0.64-0.16-0.67-0.64l0.0034-5.1-0.0034-0.0091h1.2v-0.92h-1.2l0.007-0.015v-2h-1.3v7.9" style="opacity:.1;fill:#040404"/>
 <path style="fill:#fff" d="m14 13s0.22-0.32 0.79-0.64c0.72-0.4 1.4-0.0017 1.3-0.046 0.57 0.25 0.79 0.87 0.83 1.5v5.1h0.8v0.94h-2.1l-0.0013-6.1c0-0.89-1.5-0.86-1.5 0.042l0.0017-0.042v6.1h-1.9v-0.94l0.59 0.0021v-5.7l-0.7-0.0043v-0.93h1.8l0.0048 0.69"/>
 <path d="m22 18v0.97c0 0.94-1.6 0.95-1.6 0v-2l2.7 0.0017c0.13 0 0.23-0.1 0.23-0.23v-2.1c0.079-2.5-4.2-2.5-4.2-0.062v4.3c-0.034 2.4 4.3 2.5 4.2 0v-0.91h-1.3zm-1.6-3.4c0.022-0.94 1.6-0.93 1.6 0.0064l-0.0038 1.4-1.6 0.00086v-1.4" style="opacity:.1;fill:#040404"/>
 <path style="fill:#fff" d="m24 18c0.04 0.68 0.26 1.3 0.83 1.6-0.11-0.049 0.28 0.14 0.68 0.14 0.21-0.0054 1.2-0.0043 1.2-0.0043v-0.94s-0.51-0.0064-0.78-0.0043c-0.34 0.0043-0.64-0.16-0.67-0.64l0.0034-5.1-0.0034-0.0091h1.2v-0.92h-1.2l0.007-0.015v-2h-1.3v7.9"/>
 <path style="fill:#fff" d="m21 17v0.97c0 0.94-1.6 0.95-1.6 0v-2l2.7 0.0017c0.13 0 0.23-0.1 0.23-0.23v-2.1c0.079-2.5-4.2-2.5-4.2-0.062v4.3c-0.034 2.4 4.3 2.5 4.2 0v-1h-1.3zm-1.6-3.4c0.022-0.94 1.6-0.93 1.6 0.0064l-0.0038 1.4-1.6 0.00086v-1"/>
</svg>
