<?xml version="1.0" encoding="UTF-8" standalone="no"?>
<svg
   xmlns:osb="http://www.openswatchbook.org/uri/2009/osb"
   xmlns:dc="http://purl.org/dc/elements/1.1/"
   xmlns:cc="http://creativecommons.org/ns#"
   xmlns:rdf="http://www.w3.org/1999/02/22-rdf-syntax-ns#"
   xmlns:svg="http://www.w3.org/2000/svg"
   xmlns="http://www.w3.org/2000/svg"
   xmlns:xlink="http://www.w3.org/1999/xlink"
   id="svg7649"
   version="1.0"
   width="32"
   height="32">
  <metadata
     id="metadata7661">
    <rdf:RDF>
      <cc:Work
         rdf:about="">
        <dc:format>image/svg+xml</dc:format>
        <dc:type
           rdf:resource="http://purl.org/dc/dcmitype/StillImage" />
        <dc:title></dc:title>
      </cc:Work>
    </rdf:RDF>
  </metadata>
  <defs
     id="defs7659">
    <linearGradient
       gradientTransform="matrix(0,-1,1,0,-1.5e-6,47.999998)"
       gradientUnits="userSpaceOnUse"
       x2="47"
       x1="1"
       id="linearGradient3764">
      <stop
         id="stop7"
         style="stop-color:#344e8e;stop-opacity:1" />
      <stop
         id="stop9"
         style="stop-color:#3a569c;stop-opacity:1"
         offset="1" />
    </linearGradient>
    <linearGradient
       gradientTransform="matrix(0,-1,1,0,44.444443,47.999998)"
       gradientUnits="userSpaceOnUse"
       x2="47"
       x1="1"
       id="linearGradient3764-1">
      <stop
         id="stop7-0"
         style="stop-color:#f7b747;stop-opacity:1" />
      <stop
         id="stop9-3"
         style="stop-color:#f8bd5a;stop-opacity:1"
         offset="1" />
    </linearGradient>
    <linearGradient
       gradientTransform="matrix(0,-1,1,0,-1.5e-6,47.999998)"
       gradientUnits="userSpaceOnUse"
       x2="47"
       x1="1"
       id="linearGradient3764-6">
      <stop
         id="stop7-7"
         style="stop-color:#f6b042;stop-opacity:1" />
      <stop
         id="stop9-32"
         style="stop-color:#f7b754;stop-opacity:1"
         offset="1" />
    </linearGradient>
    <linearGradient
       gradientTransform="matrix(0,-1,1,0,-1.5e-6,47.999998)"
       gradientUnits="userSpaceOnUse"
       x2="47"
       x1="1"
       id="linearGradient3764-2">
      <stop
         id="stop7-1"
         style="stop-color:#ad897f;stop-opacity:1" />
      <stop
         id="stop9-5"
         style="stop-color:#b5948b;stop-opacity:1"
         offset="1" />
    </linearGradient>
    <linearGradient
       id="linearGradient3874">
      <stop
         id="stop3876"
         offset="0"
         style="stop-color:#ffffff;stop-opacity:1;" />
      <stop
         id="stop3878"
         offset="1"
         style="stop-color:#ffffff;stop-opacity:0;" />
    </linearGradient>
    <linearGradient
       id="linearGradient3858">
      <stop
         style="stop-color:#000000;stop-opacity:1;"
         offset="0"
         id="stop3860" />
      <stop
         style="stop-color:#000000;stop-opacity:0;"
         offset="1"
         id="stop3862" />
    </linearGradient>
    <linearGradient
       id="linearGradient3045">
      <stop
         style="stop-color:#91bedd;stop-opacity:1;"
         offset="0"
         id="stop3047" />
      <stop
         style="stop-color:#4986b1;stop-opacity:1;"
         offset="1"
         id="stop3049" />
    </linearGradient>
    <linearGradient
       id="linearGradient4213">
      <stop
         id="stop4215"
         offset="0"
         style="stop-color:#b1d7f3;stop-opacity:1" />
      <stop
         id="stop4217"
         offset="1"
         style="stop-color:#8fafda;stop-opacity:1" />
    </linearGradient>
    <linearGradient
       id="linearGradient5460"
       osb:paint="gradient">
      <stop
         style="stop-color:#e6e6e6;stop-opacity:1"
         offset="0"
         id="stop5462" />
      <stop
         style="stop-color:#ffffff;stop-opacity:1"
         offset="1"
         id="stop5464" />
    </linearGradient>
    <linearGradient
       id="linearGradient5476"
       osb:paint="solid">
      <stop
         style="stop-color:#772953;stop-opacity:1;"
         offset="0"
         id="stop5478" />
    </linearGradient>
    <linearGradient
       xlink:href="#linearGradient4213"
       id="linearGradient3037"
       gradientUnits="userSpaceOnUse"
       x1="144"
       y1="918.36218"
       x2="144"
       y2="1052.3622"
       gradientTransform="matrix(1.7777778,0,0,1.7761194,16,-1563.3597)" />
    <filter
       id="filter4223"
       style="color-interpolation-filters:sRGB">
      <feBlend
         id="feBlend4225"
         in2="BackgroundImage"
         mode="multiply" />
    </filter>
    <filter
       id="filter4154"
       style="color-interpolation-filters:sRGB">
      <feComposite
         id="feComposite4156"
         in2="SourceGraphic"
         k3="0"
         k2="1"
         k1="0"
         result="composite1"
         k4="0"
         operator="arithmetic" />
      <feColorMatrix
         id="feColorMatrix4158"
         type="saturate"
         values="0"
         result="colormatrix1"
         in="composite1" />
      <feFlood
         id="feFlood4160"
         result="flood1"
         flood-color="rgb(72,59,72)" />
      <feBlend
         id="feBlend4162"
         result="blend1"
         mode="multiply"
         in2="colormatrix1"
         in="flood1" />
      <feBlend
         id="feBlend4164"
         mode="screen"
         in2="blend1"
         result="blend2" />
      <feColorMatrix
         id="feColorMatrix4166"
         type="saturate"
         values="1"
         result="colormatrix2"
         in="blend2" />
      <feComposite
         id="feComposite4168"
         operator="in"
         result="composite2"
         in2="SourceGraphic"
         in="colormatrix2" />
    </filter>
    <linearGradient
       xlink:href="#linearGradient3858"
       id="linearGradient3864"
       x1="272"
       y1="256"
       x2="368"
       y2="352"
       gradientUnits="userSpaceOnUse" />
    <linearGradient
       xlink:href="#linearGradient3874"
       id="linearGradient3872"
       gradientUnits="userSpaceOnUse"
       x1="272"
       y1="256"
       x2="368"
       y2="352"
       gradientTransform="rotate(180,272,272)" />
    <linearGradient
       xlink:href="#linearGradient3874"
       id="linearGradient3906"
       gradientUnits="userSpaceOnUse"
       gradientTransform="rotate(180,272,272)"
       x1="288"
       y1="264"
       x2="360"
       y2="328" />
    <linearGradient
       xlink:href="#linearGradient3858"
       id="linearGradient3908"
       gradientUnits="userSpaceOnUse"
       x1="288"
       y1="272"
       x2="368"
       y2="352" />
    <clipPath
       clipPathUnits="userSpaceOnUse"
       id="clipPath9430">
      <path
         id="path9432"
         d="m 166.0625,-196 179.875,0 C 491.2348,-196 512,-175.28677 512,-30.125 l 0,148.25 C 512,263.28618 491.2348,284 345.9375,284 l -179.875,0 C 20.7652,284 0,263.28618 0,118.125 L 0,-30.125 C 0,-175.28677 20.7652,-196 166.0625,-196 Z"
         style="color:#000000;display:inline;overflow:visible;visibility:visible;fill:#ffffff;fill-opacity:1;fill-rule:nonzero;stroke:none;stroke-width:1;marker:none;enable-background:new" />
    </clipPath>
    <linearGradient
       gradientTransform="matrix(0,-1,1,0,-1.5e-6,47.999998)"
       gradientUnits="userSpaceOnUse"
       x2="47"
       x1="1"
       id="linearGradient3764-3">
      <stop
         id="stop7-3"
         style="stop-color:#4eb470;stop-opacity:1" />
      <stop
         id="stop9-8"
         style="stop-color:#5dba7c;stop-opacity:1"
         offset="1" />
    </linearGradient>
    <linearGradient
       gradientTransform="matrix(3.543307,0,0,3.543307,-1,0)"
       x2="10.442"
       x1="3.669"
       gradientUnits="userSpaceOnUse"
       id="linear0">
      <stop
         id="stop12"
         style="stop-color:#e2f4fb;stop-opacity:1" />
      <stop
         id="stop14"
         style="stop-color:#f9f9f9;stop-opacity:1"
         offset="1" />
    </linearGradient>
    <linearGradient
       gradientTransform="matrix(0,-1,1,0,-1.5e-6,47.999998)"
       gradientUnits="userSpaceOnUse"
       x2="47"
       x1="1"
       id="linearGradient3764-28">
      <stop
         id="stop7-5"
         style="stop-color:#18aa86;stop-opacity:1" />
      <stop
         id="stop9-80"
         style="stop-color:#1abc95;stop-opacity:1"
         offset="1" />
    </linearGradient>
    <linearGradient
       gradientTransform="matrix(0,-1,1,0,-1.5e-6,47.999998)"
       gradientUnits="userSpaceOnUse"
       x2="47"
       x1="1"
       id="linearGradient3764-8">
      <stop
         id="stop7-6"
         style="stop-color:#5dbacb;stop-opacity:1" />
      <stop
         id="stop9-9"
         style="stop-color:#6cc0d0;stop-opacity:1"
         offset="1" />
    </linearGradient>
    <linearGradient
       gradientUnits="userSpaceOnUse"
       x2="24"
       x1="21"
       id="linearGradient4251"
       xlink:href="#linearGradient4309" />
    <linearGradient
       id="linearGradient4309">
      <stop
         id="stop13"
         style="stop-color:#eff5eb;stop-opacity:1" />
      <stop
         id="stop15"
         style="stop-color:#d1e2c4;stop-opacity:1"
         offset="1" />
    </linearGradient>
    <linearGradient
       gradientTransform="matrix(-1,0,0,1,48,0)"
       x2="24"
       x1="21"
       gradientUnits="userSpaceOnUse"
       id="linearGradient4265"
       xlink:href="#linearGradient4309" />
  </defs>
  <path
     id="path7651"
     style="color:#000000;fill:#65bdce;fill-opacity:1"
     d="M 0,0 0,32 32,32 32,0 Z" />
  <g
     transform="translate(-8.0336754,-8.1778523)"
     id="g10395">
    <g
       transform="matrix(0.9,0,0,0.9,2.4499,2.45)"
       id="g34">
      <path
         id="path36"
         style="fill:#000000;fill-opacity:0.09800002;fill-rule:evenodd;stroke:none"
         d="m 12,15 0,20 11,0 c 1,0.6 3,0.6 4,0 l 11,0 0,-20 -11,0 c -1,0.6 -3,0.6 -4,0 l -11,0 z" />
      <path
         id="path38"
         style="fill:#a91717;fill-opacity:1;fill-rule:evenodd;stroke:none"
         d="m 22,14 c 1,0.6 3,0.6 4,0 1.045,6.439 2.636,12.76 0,20 -1,0.6 -3,0.6 -4,0 -1.495,-6.978 -0.353,-13.407 0,-20 z" />
      <rect
         id="rect40"
         style="fill:#c52b2b;fill-opacity:1;stroke:none"
         width="11"
         height="20"
         x="11"
         y="14" />
      <rect
         id="rect42"
         style="fill:#c52b2b;fill-opacity:1;stroke:none"
         y="14"
         x="26"
         height="20"
         width="11" />
      <g
         id="g44">
        <g
           id="g46">
          <path
             id="path48"
             style="fill:#b2b1a2;fill-opacity:1;stroke:none"
             d="m 12,15 12,0 0,18.5 C 24,33 16,33 12,33 Z" />
          <path
             id="path50"
             style="fill:#b2b1a2;fill-opacity:1;stroke:none"
             d="m 36,15 -12,0 0,18.5 C 24,33 32,33 36,33 Z" />
          <path
             id="path52"
             style="fill:#c8cdc3;fill-opacity:1;stroke:none"
             d="m 24,15 c 0.991,-1 10.647,-0.5 11.5,-0.5 l 0,18 C 34.509,32.5 25,32 24,33.25" />
          <path
             id="path54"
             style="fill:#c8cdc3;fill-opacity:1;stroke:none"
             d="M 24,15 C 23.009,14 13.353,14.5 12.5,14.5 l 0,18 C 13.491,32.5 23,32 24,33.25" />
          <path
             id="path56"
             style="fill:url(#linearGradient4251);fill-opacity:1;stroke:none"
             d="M 24,15 C 23,13 15,14.01 13,14 l 0,18 c 2,0 10,-1 11,1 z" />
          <path
             id="path58"
             style="fill:url(#linearGradient4265);fill-opacity:1;stroke:none"
             d="m 24,15 c 1,-2 9,-0.99 11,-1 l 0,18 c -2,0 -10,-1 -11,1 z" />
        </g>
        <g
           id="g60"
           style="fill:#1e1e1e;fill-opacity:0.17600002">
          <g
             id="g62">
            <path
               id="path64"
               style="stroke:none"
               d="m 18.875,28.802 c -1.885,0 -3.645,0.133 -4.875,0.195 l 0,1 c 2.276,-0.12 6.847,-0.528 9,0.303 l 0,-1 c -0.989,-0.381 -2.522,-0.499 -4.125,-0.498 z" />
            <path
               id="path66"
               style="stroke:none"
               d="m 18.875,26.802 c -1.885,0 -3.645,0.133 -4.875,0.195 l 0,1 c 2.276,-0.12 6.847,-0.528 9,0.303 l 0,-1 c -0.989,-0.381 -2.522,-0.499 -4.125,-0.498 z" />
            <path
               id="path68"
               style="stroke:none"
               d="m 18.875,24.802 c -1.885,0 -3.645,0.133 -4.875,0.195 l 0,1 c 2.276,-0.12 6.847,-0.528 9,0.303 l 0,-1 c -0.989,-0.381 -2.522,-0.499 -4.125,-0.498 z" />
            <path
               id="path4228"
               d="m 18.875,16.803 c -1.885,0 -3.645,0.133 -4.875,0.195 l 0,7 c 2.276,-0.12 6.847,-0.528 9,0.303 l 0,-7 C 22.011,16.92 20.478,16.802 18.875,16.803 Z"
               style="stroke:none" />
          </g>
          <g
             id="g72"
             transform="matrix(-1,0,0,1,48,0)">
            <path
               id="path74"
               style="stroke:none"
               d="m 18.875,28.802 c -1.885,0 -3.645,0.133 -4.875,0.195 l 0,1 c 2.276,-0.12 6.847,-0.528 9,0.303 l 0,-1 c -0.989,-0.381 -2.522,-0.499 -4.125,-0.498 z" />
            <path
               id="path76"
               style="stroke:none"
               d="m 18.875,26.802 c -1.885,0 -3.645,0.133 -4.875,0.195 l 0,1 c 2.276,-0.12 6.847,-0.528 9,0.303 l 0,-1 c -0.989,-0.381 -2.522,-0.499 -4.125,-0.498 z" />
            <path
               id="path78"
               style="stroke:none"
               d="m 18.875,24.802 c -1.885,0 -3.645,0.133 -4.875,0.195 l 0,1 c 2.276,-0.12 6.847,-0.528 9,0.303 l 0,-1 c -0.989,-0.381 -2.522,-0.499 -4.125,-0.498 z" />
            <path
               id="path80"
               style="stroke:none"
               d="m 18.875,22.802 c -1.885,0 -3.645,0.133 -4.875,0.195 l 0,1 c 2.276,-0.12 6.847,-0.528 9,0.303 l 0,-1 c -0.989,-0.381 -2.522,-0.499 -4.125,-0.498 z" />
            <path
               id="path82"
               style="stroke:none"
               d="m 18.875,20.802 c -1.885,0 -3.645,0.133 -4.875,0.195 l 0,1 c 2.276,-0.12 6.847,-0.528 9,0.303 l 0,-1 c -0.989,-0.381 -2.522,-0.499 -4.125,-0.498 z" />
            <path
               id="path84"
               style="stroke:none"
               d="m 18.875,18.802 c -1.885,0 -3.645,0.133 -4.875,0.195 l 0,1 c 2.276,-0.12 6.847,-0.528 9,0.303 l 0,-1 c -0.989,-0.381 -2.522,-0.499 -4.125,-0.498 z" />
            <path
               id="path86"
               style="stroke:none"
               d="m 18.875,16.802 c -1.885,0 -3.645,0.133 -4.875,0.195 l 0,1 c 2.276,-0.12 6.847,-0.528 9,0.303 l 0,-1 c -0.989,-0.381 -2.522,-0.499 -4.125,-0.498 z" />
          </g>
        </g>
      </g>
    </g>
  </g>
</svg>
