<?xml version="1.0" encoding="UTF-8" standalone="no"?>
<svg
   xmlns:osb="http://www.openswatchbook.org/uri/2009/osb"
   xmlns:dc="http://purl.org/dc/elements/1.1/"
   xmlns:cc="http://creativecommons.org/ns#"
   xmlns:rdf="http://www.w3.org/1999/02/22-rdf-syntax-ns#"
   xmlns:svg="http://www.w3.org/2000/svg"
   xmlns="http://www.w3.org/2000/svg"
   xmlns:xlink="http://www.w3.org/1999/xlink"
   id="svg7649"
   version="1.0"
   width="32"
   height="32">
  <metadata
     id="metadata7661">
    <rdf:RDF>
      <cc:Work
         rdf:about="">
        <dc:format>image/svg+xml</dc:format>
        <dc:type
           rdf:resource="http://purl.org/dc/dcmitype/StillImage" />
        <dc:title></dc:title>
      </cc:Work>
    </rdf:RDF>
  </metadata>
  <defs
     id="defs7659">
    <linearGradient
       gradientTransform="matrix(0,-1,1,0,-1.5e-6,47.999998)"
       gradientUnits="userSpaceOnUse"
       x2="47"
       x1="1"
       id="linearGradient3764">
      <stop
         id="stop7"
         style="stop-color:#344e8e;stop-opacity:1" />
      <stop
         id="stop9"
         style="stop-color:#3a569c;stop-opacity:1"
         offset="1" />
    </linearGradient>
    <linearGradient
       gradientTransform="matrix(0,-1,1,0,44.444443,47.999998)"
       gradientUnits="userSpaceOnUse"
       x2="47"
       x1="1"
       id="linearGradient3764-1">
      <stop
         id="stop7-0"
         style="stop-color:#f7b747;stop-opacity:1" />
      <stop
         id="stop9-3"
         style="stop-color:#f8bd5a;stop-opacity:1"
         offset="1" />
    </linearGradient>
    <linearGradient
       gradientTransform="matrix(0,-1,1,0,-1.5e-6,47.999998)"
       gradientUnits="userSpaceOnUse"
       x2="47"
       x1="1"
       id="linearGradient3764-6">
      <stop
         id="stop7-7"
         style="stop-color:#f6b042;stop-opacity:1" />
      <stop
         id="stop9-32"
         style="stop-color:#f7b754;stop-opacity:1"
         offset="1" />
    </linearGradient>
    <linearGradient
       gradientTransform="matrix(0,-1,1,0,-1.5e-6,47.999998)"
       gradientUnits="userSpaceOnUse"
       x2="47"
       x1="1"
       id="linearGradient3764-2">
      <stop
         id="stop7-1"
         style="stop-color:#ad897f;stop-opacity:1" />
      <stop
         id="stop9-5"
         style="stop-color:#b5948b;stop-opacity:1"
         offset="1" />
    </linearGradient>
    <linearGradient
       id="linearGradient3874">
      <stop
         id="stop3876"
         offset="0"
         style="stop-color:#ffffff;stop-opacity:1;" />
      <stop
         id="stop3878"
         offset="1"
         style="stop-color:#ffffff;stop-opacity:0;" />
    </linearGradient>
    <linearGradient
       id="linearGradient3858">
      <stop
         style="stop-color:#000000;stop-opacity:1;"
         offset="0"
         id="stop3860" />
      <stop
         style="stop-color:#000000;stop-opacity:0;"
         offset="1"
         id="stop3862" />
    </linearGradient>
    <linearGradient
       id="linearGradient3045">
      <stop
         style="stop-color:#91bedd;stop-opacity:1;"
         offset="0"
         id="stop3047" />
      <stop
         style="stop-color:#4986b1;stop-opacity:1;"
         offset="1"
         id="stop3049" />
    </linearGradient>
    <linearGradient
       id="linearGradient4213">
      <stop
         id="stop4215"
         offset="0"
         style="stop-color:#b1d7f3;stop-opacity:1" />
      <stop
         id="stop4217"
         offset="1"
         style="stop-color:#8fafda;stop-opacity:1" />
    </linearGradient>
    <linearGradient
       id="linearGradient5460"
       osb:paint="gradient">
      <stop
         style="stop-color:#e6e6e6;stop-opacity:1"
         offset="0"
         id="stop5462" />
      <stop
         style="stop-color:#ffffff;stop-opacity:1"
         offset="1"
         id="stop5464" />
    </linearGradient>
    <linearGradient
       id="linearGradient5476"
       osb:paint="solid">
      <stop
         style="stop-color:#772953;stop-opacity:1;"
         offset="0"
         id="stop5478" />
    </linearGradient>
    <linearGradient
       xlink:href="#linearGradient4213"
       id="linearGradient3037"
       gradientUnits="userSpaceOnUse"
       x1="144"
       y1="918.36218"
       x2="144"
       y2="1052.3622"
       gradientTransform="matrix(1.7777778,0,0,1.7761194,16,-1563.3597)" />
    <filter
       id="filter4223"
       style="color-interpolation-filters:sRGB">
      <feBlend
         id="feBlend4225"
         in2="BackgroundImage"
         mode="multiply" />
    </filter>
    <filter
       id="filter4154"
       style="color-interpolation-filters:sRGB">
      <feComposite
         id="feComposite4156"
         in2="SourceGraphic"
         k3="0"
         k2="1"
         k1="0"
         result="composite1"
         k4="0"
         operator="arithmetic" />
      <feColorMatrix
         id="feColorMatrix4158"
         type="saturate"
         values="0"
         result="colormatrix1"
         in="composite1" />
      <feFlood
         id="feFlood4160"
         result="flood1"
         flood-color="rgb(72,59,72)" />
      <feBlend
         id="feBlend4162"
         result="blend1"
         mode="multiply"
         in2="colormatrix1"
         in="flood1" />
      <feBlend
         id="feBlend4164"
         mode="screen"
         in2="blend1"
         result="blend2" />
      <feColorMatrix
         id="feColorMatrix4166"
         type="saturate"
         values="1"
         result="colormatrix2"
         in="blend2" />
      <feComposite
         id="feComposite4168"
         operator="in"
         result="composite2"
         in2="SourceGraphic"
         in="colormatrix2" />
    </filter>
    <linearGradient
       xlink:href="#linearGradient3858"
       id="linearGradient3864"
       x1="272"
       y1="256"
       x2="368"
       y2="352"
       gradientUnits="userSpaceOnUse" />
    <linearGradient
       xlink:href="#linearGradient3874"
       id="linearGradient3872"
       gradientUnits="userSpaceOnUse"
       x1="272"
       y1="256"
       x2="368"
       y2="352"
       gradientTransform="rotate(180,272,272)" />
    <linearGradient
       xlink:href="#linearGradient3874"
       id="linearGradient3906"
       gradientUnits="userSpaceOnUse"
       gradientTransform="rotate(180,272,272)"
       x1="288"
       y1="264"
       x2="360"
       y2="328" />
    <linearGradient
       xlink:href="#linearGradient3858"
       id="linearGradient3908"
       gradientUnits="userSpaceOnUse"
       x1="288"
       y1="272"
       x2="368"
       y2="352" />
    <clipPath
       clipPathUnits="userSpaceOnUse"
       id="clipPath9430">
      <path
         id="path9432"
         d="m 166.0625,-196 179.875,0 C 491.2348,-196 512,-175.28677 512,-30.125 l 0,148.25 C 512,263.28618 491.2348,284 345.9375,284 l -179.875,0 C 20.7652,284 0,263.28618 0,118.125 L 0,-30.125 C 0,-175.28677 20.7652,-196 166.0625,-196 Z"
         style="color:#000000;display:inline;overflow:visible;visibility:visible;fill:#ffffff;fill-opacity:1;fill-rule:nonzero;stroke:none;stroke-width:1;marker:none;enable-background:new" />
    </clipPath>
    <linearGradient
       gradientTransform="matrix(0,-1,1,0,-1.5e-6,47.999998)"
       gradientUnits="userSpaceOnUse"
       x2="47"
       x1="1"
       id="linearGradient3764-3">
      <stop
         id="stop7-3"
         style="stop-color:#4eb470;stop-opacity:1" />
      <stop
         id="stop9-8"
         style="stop-color:#5dba7c;stop-opacity:1"
         offset="1" />
    </linearGradient>
    <linearGradient
       gradientTransform="matrix(3.543307,0,0,3.543307,-1,0)"
       x2="10.442"
       x1="3.669"
       gradientUnits="userSpaceOnUse"
       id="linear0">
      <stop
         id="stop12"
         style="stop-color:#e2f4fb;stop-opacity:1" />
      <stop
         id="stop14"
         style="stop-color:#f9f9f9;stop-opacity:1"
         offset="1" />
    </linearGradient>
    <linearGradient
       gradientTransform="matrix(0,-1,1,0,-1.5e-6,47.999998)"
       gradientUnits="userSpaceOnUse"
       x2="47"
       x1="1"
       id="linearGradient3764-28">
      <stop
         id="stop7-5"
         style="stop-color:#18aa86;stop-opacity:1" />
      <stop
         id="stop9-80"
         style="stop-color:#1abc95;stop-opacity:1"
         offset="1" />
    </linearGradient>
  </defs>
  <path
     id="path7651"
     style="color:#000000;fill:#34495b;fill-opacity:1"
     d="M 0,0 0,32 32,32 32,0 Z" />
  <g
     transform="matrix(0.52443662,0,0,0.52443662,3.295004,3.1513028)"
     id="g9330">
    <g
       transform="matrix(0.9,0,0,0.9,2.4499,2.45)"
       id="g11">
      <path
         id="path13"
         style="opacity:0.05"
         d="m 36.31,5 c 5.859,4.062 9.688,10.831 9.688,18.5 0,12.426 -10.07,22.5 -22.5,22.5 -7.669,0 -14.438,-3.828 -18.5,-9.688 1.037,1.822 2.306,3.499 3.781,4.969 4.085,3.712 9.514,5.969 15.469,5.969 12.703,0 23,-10.298 23,-23 0,-5.954 -2.256,-11.384 -5.969,-15.469 C 39.81,7.306 38.132,6.037 36.31,5 Z m 4.969,3.781 c 3.854,4.113 6.219,9.637 6.219,15.719 0,12.703 -10.297,23 -23,23 -6.081,0 -11.606,-2.364 -15.719,-6.219 4.16,4.144 9.883,6.719 16.219,6.719 12.703,0 23,-10.298 23,-23 0,-6.335 -2.575,-12.06 -6.719,-16.219 z" />
      <path
         id="path15"
         style="opacity:0.1"
         d="m 41.28,8.781 c 3.712,4.085 5.969,9.514 5.969,15.469 0,12.703 -10.297,23 -23,23 -5.954,0 -11.384,-2.256 -15.469,-5.969 4.113,3.854 9.637,6.219 15.719,6.219 12.703,0 23,-10.298 23,-23 0,-6.081 -2.364,-11.606 -6.219,-15.719 z" />
      <path
         id="path17"
         style="opacity:0.2"
         d="M 31.25,2.375 C 39.865,5.529 46,13.792 46,23.505 c 0,12.426 -10.07,22.5 -22.5,22.5 -9.708,0 -17.971,-6.135 -21.12,-14.75 a 23,23 0 0 0 44.875,-7 23,23 0 0 0 -16,-21.875 z" />
    </g>
    <g
       transform="matrix(0.9,0,0,0.9,2.4499,2.45)"
       id="g19">
      <path
         id="path21"
         style="fill:url(#linearGradient3764-28);fill-opacity:1"
         d="M 24,1 C 36.703,1 47,11.297 47,24 47,36.703 36.703,47 24,47 11.297,47 1,36.703 1,24 1,11.297 11.297,1 24,1 Z" />
    </g>
    <g
       transform="matrix(0.9,0,0,0.9,2.4499,2.45)"
       id="g23">
      <g
         id="g25">
        <g
           id="g27"
           transform="translate(1,1)">
          <g
             id="g29"
             style="opacity:0.1">
            <!-- color: #1abc95 -->
            <g
               id="g31">
              <path
                 id="path33"
                 style="fill:#000000;fill-opacity:1;fill-rule:evenodd;stroke:none"
                 d="m 24,6 c 9.941,0 18,8.06 18,18 0,9.941 -8.06,18 -18,18 C 14.059,42 6,33.94 6,24 6,14.059 14.06,6 24,6 m 0,0" />
              <path
                 id="path35"
                 style="fill:#000000;fill-opacity:1;fill-rule:nonzero;stroke:none"
                 d="m 26,24 c 0,1.105 -0.895,2 -2,2 -1.105,0 -2,-0.895 -2,-2 0,-1.105 0.895,-2 2,-2 1.105,0 2,0.895 2,2 m 0,0" />
            </g>
          </g>
        </g>
      </g>
    </g>
    <g
       transform="matrix(0.9,0,0,0.9,2.4499,2.45)"
       id="g37">
      <g
         id="g39">
        <!-- color: #1abc95 -->
        <g
           id="g41">
          <path
             id="path43"
             style="fill:#ecedf1;fill-opacity:1;fill-rule:evenodd;stroke:none"
             d="m 24,6 c 9.941,0 18,8.06 18,18 0,9.941 -8.06,18 -18,18 C 14.059,42 6,33.94 6,24 6,14.059 14.06,6 24,6 m 0,0" />
          <path
             id="path45"
             style="fill:#2c3d4d;fill-opacity:1;fill-rule:nonzero;stroke:none"
             d="m 22.473,23.738 -5.211,-5.211 c -0.348,-0.344 -0.348,-0.906 0,-1.25 l 0.039,-0.043 c 0.344,-0.344 0.906,-0.344 1.254,0 l 5.211,5.211 c 0.344,0.348 0.344,0.91 0,1.254 l -0.043,0.039 c -0.344,0.348 -0.906,0.348 -1.25,0 m 0,0" />
          <path
             id="path47"
             style="fill:#2f8ecf;fill-opacity:1;fill-rule:nonzero;stroke:none"
             d="m 23.887,23 13.227,0 c 0.492,0 0.887,0.395 0.887,0.887 l 0,0.227 c 0,0.488 -0.395,0.887 -0.887,0.887 l -13.227,0 C 23.399,25.001 23,24.603 23,24.114 l 0,-0.227 C 23,23.395 23.398,23 23.887,23 m 0,0" />
          <path
             id="path49"
             style="fill:#e45344;fill-opacity:1;fill-rule:nonzero;stroke:none"
             d="M 16.555,36.28 23.66,23.19 c 0.117,-0.215 0.383,-0.285 0.59,-0.16 l 0.063,0.039 c 0.207,0.129 0.281,0.406 0.164,0.621 l -7.105,13.09 c -0.117,0.215 -0.379,0.285 -0.59,0.16 L 16.723,36.901 C 16.512,36.772 16.438,36.495 16.555,36.28 m 0,0" />
          <path
             id="path51"
             style="fill:#34495b;fill-opacity:1;fill-rule:nonzero;stroke:none"
             d="m 28,24 c 0,2.211 -1.789,4 -4,4 -2.211,0 -4,-1.789 -4,-4 0,-2.211 1.789,-4 4,-4 2.211,0 4,1.789 4,4 m 0,0" />
          <path
             id="path53"
             style="fill:#ecedf1;fill-opacity:1;fill-rule:nonzero;stroke:none"
             d="m 26,24 c 0,1.105 -0.895,2 -2,2 -1.105,0 -2,-0.895 -2,-2 0,-1.105 0.895,-2 2,-2 1.105,0 2,0.895 2,2 m 0,0" />
        </g>
      </g>
    </g>
    <g
       transform="matrix(0.9,0,0,0.9,2.4499,2.45)"
       id="g55">
      <path
         id="path57"
         style="opacity:0.1"
         d="m 40.03,7.531 c 3.712,4.084 5.969,9.514 5.969,15.469 0,12.703 -10.297,23 -23,23 C 17.045,46 11.615,43.744 7.53,40.031 11.708,44.322 17.54,47 23.999,47 c 12.703,0 23,-10.298 23,-23 0,-6.462 -2.677,-12.291 -6.969,-16.469 z" />
    </g>
  </g>
</svg>
