<?xml version="1.0" encoding="UTF-8" standalone="no"?>
<svg xmlns:rdf="http://www.w3.org/1999/02/22-rdf-syntax-ns#" xmlns="http://www.w3.org/2000/svg" xmlns:osb="http://www.openswatchbook.org/uri/2009/osb" height="32" width="32" version="1.0" xmlns:cc="http://creativecommons.org/ns#" xmlns:xlink="http://www.w3.org/1999/xlink" xmlns:dc="http://purl.org/dc/elements/1.1/">
 <path style="color:#000000;fill:#eedb97" d="m0 0v32h32v-32z"/>
 <g transform="matrix(.09620 0 0 .09620 -39.05 11.42)">
  <g transform="matrix(9.086 0 0 9.086 361.8 -168.3)">
   <g transform="translate(1,1)">
    <g style="opacity:.1">
     <path d="m18 13c-1.105 0-2 0.895-2 2v4c0 1.105 0.895 2 2 2h-4c-1.105 0-2 0.895-2 2v4c0 1.105 0.895 2 2 2h4c-1.105 0-2 0.895-2 2v4c0 1.105 0.895 2 2 2h18v-8h-4.01v-8h4.01v-8h-18" transform="translate(-1,-1)"/>
    </g>
   </g>
   <path style="fill:#537f95" d="m17 28c-1.105 0-2 0.895-2 2v4c0 1.105 0.895 2 2 2h18v-8h-18"/>
   <path style="fill:#e1e1e1" d="m31.46 29c-1.371-0.001-2.469 1.098-2.469 2.469v1.063c0 1.371 1.098 2.471 2.469 2.471h3.531v-6z"/>
   <path style="fill:#c4c4c4" d="m31.46 29c-0.809 0-1.52 0.402-1.969 1h5.5v-1h-3.531zm-2.406 2c-0.027 0.148-0.064 0.305-0.064 0.469v0.531h6v-1h-5.936zm-0.002 2c0.074 0.375 0.219 0.703 0.438 1h5.5v-1h-5.938z"/>
   <path style="fill:#75744b" d="m13 20c-1.105 0-2 0.895-2 2v4c0 1.105 0.895 2 2 2h18v-8z"/>
   <path style="fill:#e1e1e1" d="m27.46 21c-1.371-0.001-2.469 1.098-2.469 2.469v1.063c0 1.371 1.098 2.471 2.469 2.471h3.531v-6z"/>
   <path style="fill:#c4c4c4" d="m27.46 21c-0.809 0-1.52 0.402-1.969 1h5.5v-1h-3.531zm-2.406 2c-0.027 0.148-0.064 0.305-0.064 0.469v0.531h6v-1h-5.936zm-0.002 2c0.074 0.375 0.219 0.703 0.438 1h5.5v-1h-5.938z"/>
   <path style="fill:#c49422" d="m17 12c-1.105 0-2 0.895-2 2v4c0 1.105 0.895 2 2 2h18v-8h-18"/>
   <path style="fill:#e1e1e1" d="m31.46 13c-1.371 0-2.469 1.098-2.469 2.469v1.063c0 1.371 1.098 2.471 2.469 2.471h3.531v-6l-3.531-0.002z"/>
   <path style="fill:#c4c4c4" d="m31.46 13c-0.809 0-1.52 0.402-1.969 1h5.5v-1h-3.531zm-2.406 2c-0.027 0.148-0.064 0.305-0.064 0.469v0.531h6v-1h-5.936zm-0.002 2c0.074 0.375 0.219 0.703 0.438 1h5.5v-1h-5.938z"/>
  </g>
 </g>
</svg>
