<?xml version="1.0" encoding="UTF-8" standalone="no"?>
<svg xmlns="http://www.w3.org/2000/svg" xmlns:osb="http://www.openswatchbook.org/uri/2009/osb" height="32" width="32" version="1.0" xmlns:xlink="http://www.w3.org/1999/xlink">
 <g transform="matrix(.1138 0 0 .1138 -64.82 -29.38)">
  <path style="fill:#b0b0b0" d="m569.4 258.1h281.1v281.1h-281.1z"/>
  <path style="opacity:.1;stroke-width:2.056;fill:#3f3f3f" d="m810.6 478.9-26.4-26.3c11.1-13.98 17.68-31.46 17.68-50.58-0.2056-45.03-36.81-81.63-81.63-81.63s-81.63 36.6-81.63 81.63 36.6 81.63 81.63 81.63c14.6 0 28.38-3.907 40.3-10.69l27.96 27.96c5.963 5.963 15.83 5.963 22 0 6.168-5.963 6.168-15.83 0-22zm-149.3-76.9c0-32.69 26.32-59.01 59.01-59.01s59.01 26.52 59.01 59.01-26.52 59.01-59.01 59.01-59.01-26.52-59.01-59.01z"/>
  <path style="stroke-width:2.056;fill:#3f3f3f" d="m793.6 464.7-26.3-26.4c11.1-13.98 17.68-31.46 17.68-50.58-0.2056-45.03-36.81-81.63-81.63-81.63s-81.63 36.6-81.63 81.63 36.6 81.63 81.63 81.63c14.6 0 28.38-3.907 40.3-10.69l27.96 27.96c5.963 5.963 15.83 5.963 22 0 6.168-5.963 6.168-15.83 0-22zm-149.3-76.9c0-32.69 26.32-59.01 59.01-59.01s59.01 26.52 59.01 59.01-26.52 59.01-59.01 59.01-59.01-26.52-59.01-59.01z"/>
 </g>
</svg>
