<?xml version="1.0" encoding="UTF-8" standalone="no"?>
<svg
   xmlns:osb="http://www.openswatchbook.org/uri/2009/osb"
   xmlns:dc="http://purl.org/dc/elements/1.1/"
   xmlns:cc="http://creativecommons.org/ns#"
   xmlns:rdf="http://www.w3.org/1999/02/22-rdf-syntax-ns#"
   xmlns:svg="http://www.w3.org/2000/svg"
   xmlns="http://www.w3.org/2000/svg"
   xmlns:xlink="http://www.w3.org/1999/xlink"
   id="svg7649"
   version="1.0"
   width="32"
   height="32">
  <metadata
     id="metadata7661">
    <rdf:RDF>
      <cc:Work
         rdf:about="">
        <dc:format>image/svg+xml</dc:format>
        <dc:type
           rdf:resource="http://purl.org/dc/dcmitype/StillImage" />
        <dc:title></dc:title>
      </cc:Work>
    </rdf:RDF>
  </metadata>
  <defs
     id="defs7659">
    <linearGradient
       gradientTransform="matrix(0,-1,1,0,-1.5e-6,47.999998)"
       gradientUnits="userSpaceOnUse"
       x2="47"
       x1="1"
       id="linearGradient3764">
      <stop
         id="stop7"
         style="stop-color:#344e8e;stop-opacity:1" />
      <stop
         id="stop9"
         style="stop-color:#3a569c;stop-opacity:1"
         offset="1" />
    </linearGradient>
    <linearGradient
       gradientTransform="matrix(0,-1,1,0,44.444443,47.999998)"
       gradientUnits="userSpaceOnUse"
       x2="47"
       x1="1"
       id="linearGradient3764-1">
      <stop
         id="stop7-0"
         style="stop-color:#f7b747;stop-opacity:1" />
      <stop
         id="stop9-3"
         style="stop-color:#f8bd5a;stop-opacity:1"
         offset="1" />
    </linearGradient>
    <linearGradient
       gradientTransform="matrix(0,-1,1,0,-1.5e-6,47.999998)"
       gradientUnits="userSpaceOnUse"
       x2="47"
       x1="1"
       id="linearGradient3764-6">
      <stop
         id="stop7-7"
         style="stop-color:#f6b042;stop-opacity:1" />
      <stop
         id="stop9-32"
         style="stop-color:#f7b754;stop-opacity:1"
         offset="1" />
    </linearGradient>
    <linearGradient
       gradientTransform="matrix(0,-1,1,0,-1.5e-6,47.999998)"
       gradientUnits="userSpaceOnUse"
       x2="47"
       x1="1"
       id="linearGradient3764-2">
      <stop
         id="stop7-1"
         style="stop-color:#ad897f;stop-opacity:1" />
      <stop
         id="stop9-5"
         style="stop-color:#b5948b;stop-opacity:1"
         offset="1" />
    </linearGradient>
    <linearGradient
       id="linearGradient3874">
      <stop
         id="stop3876"
         offset="0"
         style="stop-color:#ffffff;stop-opacity:1;" />
      <stop
         id="stop3878"
         offset="1"
         style="stop-color:#ffffff;stop-opacity:0;" />
    </linearGradient>
    <linearGradient
       id="linearGradient3858">
      <stop
         style="stop-color:#000000;stop-opacity:1;"
         offset="0"
         id="stop3860" />
      <stop
         style="stop-color:#000000;stop-opacity:0;"
         offset="1"
         id="stop3862" />
    </linearGradient>
    <linearGradient
       id="linearGradient3045">
      <stop
         style="stop-color:#91bedd;stop-opacity:1;"
         offset="0"
         id="stop3047" />
      <stop
         style="stop-color:#4986b1;stop-opacity:1;"
         offset="1"
         id="stop3049" />
    </linearGradient>
    <linearGradient
       id="linearGradient4213">
      <stop
         id="stop4215"
         offset="0"
         style="stop-color:#b1d7f3;stop-opacity:1" />
      <stop
         id="stop4217"
         offset="1"
         style="stop-color:#8fafda;stop-opacity:1" />
    </linearGradient>
    <linearGradient
       id="linearGradient5460"
       osb:paint="gradient">
      <stop
         style="stop-color:#e6e6e6;stop-opacity:1"
         offset="0"
         id="stop5462" />
      <stop
         style="stop-color:#ffffff;stop-opacity:1"
         offset="1"
         id="stop5464" />
    </linearGradient>
    <linearGradient
       id="linearGradient5476"
       osb:paint="solid">
      <stop
         style="stop-color:#772953;stop-opacity:1;"
         offset="0"
         id="stop5478" />
    </linearGradient>
    <linearGradient
       xlink:href="#linearGradient4213"
       id="linearGradient3037"
       gradientUnits="userSpaceOnUse"
       x1="144"
       y1="918.36218"
       x2="144"
       y2="1052.3622"
       gradientTransform="matrix(1.7777778,0,0,1.7761194,16,-1563.3597)" />
    <filter
       id="filter4223"
       style="color-interpolation-filters:sRGB">
      <feBlend
         id="feBlend4225"
         in2="BackgroundImage"
         mode="multiply" />
    </filter>
    <filter
       id="filter4154"
       style="color-interpolation-filters:sRGB">
      <feComposite
         id="feComposite4156"
         in2="SourceGraphic"
         k3="0"
         k2="1"
         k1="0"
         result="composite1"
         k4="0"
         operator="arithmetic" />
      <feColorMatrix
         id="feColorMatrix4158"
         type="saturate"
         values="0"
         result="colormatrix1"
         in="composite1" />
      <feFlood
         id="feFlood4160"
         result="flood1"
         flood-color="rgb(72,59,72)" />
      <feBlend
         id="feBlend4162"
         result="blend1"
         mode="multiply"
         in2="colormatrix1"
         in="flood1" />
      <feBlend
         id="feBlend4164"
         mode="screen"
         in2="blend1"
         result="blend2" />
      <feColorMatrix
         id="feColorMatrix4166"
         type="saturate"
         values="1"
         result="colormatrix2"
         in="blend2" />
      <feComposite
         id="feComposite4168"
         operator="in"
         result="composite2"
         in2="SourceGraphic"
         in="colormatrix2" />
    </filter>
    <linearGradient
       xlink:href="#linearGradient3858"
       id="linearGradient3864"
       x1="272"
       y1="256"
       x2="368"
       y2="352"
       gradientUnits="userSpaceOnUse" />
    <linearGradient
       xlink:href="#linearGradient3874"
       id="linearGradient3872"
       gradientUnits="userSpaceOnUse"
       x1="272"
       y1="256"
       x2="368"
       y2="352"
       gradientTransform="rotate(180,272,272)" />
    <linearGradient
       xlink:href="#linearGradient3874"
       id="linearGradient3906"
       gradientUnits="userSpaceOnUse"
       gradientTransform="rotate(180,272,272)"
       x1="288"
       y1="264"
       x2="360"
       y2="328" />
    <linearGradient
       xlink:href="#linearGradient3858"
       id="linearGradient3908"
       gradientUnits="userSpaceOnUse"
       x1="288"
       y1="272"
       x2="368"
       y2="352" />
    <clipPath
       clipPathUnits="userSpaceOnUse"
       id="clipPath9430">
      <path
         id="path9432"
         d="m 166.0625,-196 179.875,0 C 491.2348,-196 512,-175.28677 512,-30.125 l 0,148.25 C 512,263.28618 491.2348,284 345.9375,284 l -179.875,0 C 20.7652,284 0,263.28618 0,118.125 L 0,-30.125 C 0,-175.28677 20.7652,-196 166.0625,-196 Z"
         style="color:#000000;display:inline;overflow:visible;visibility:visible;fill:#ffffff;fill-opacity:1;fill-rule:nonzero;stroke:none;stroke-width:1;marker:none;enable-background:new" />
    </clipPath>
    <linearGradient
       gradientTransform="matrix(0,-1,1,0,-1.5e-6,47.999998)"
       gradientUnits="userSpaceOnUse"
       x2="47"
       x1="1"
       id="linearGradient3764-3">
      <stop
         id="stop7-3"
         style="stop-color:#4eb470;stop-opacity:1" />
      <stop
         id="stop9-8"
         style="stop-color:#5dba7c;stop-opacity:1"
         offset="1" />
    </linearGradient>
    <linearGradient
       gradientTransform="matrix(3.543307,0,0,3.543307,-1,0)"
       x2="10.442"
       x1="3.669"
       gradientUnits="userSpaceOnUse"
       id="linear0">
      <stop
         id="stop12"
         style="stop-color:#e2f4fb;stop-opacity:1" />
      <stop
         id="stop14"
         style="stop-color:#f9f9f9;stop-opacity:1"
         offset="1" />
    </linearGradient>
    <linearGradient
       gradientTransform="matrix(0,-1,1,0,-1.5e-6,47.999998)"
       gradientUnits="userSpaceOnUse"
       x2="47"
       x1="1"
       id="linearGradient3764-28">
      <stop
         id="stop7-5"
         style="stop-color:#18aa86;stop-opacity:1" />
      <stop
         id="stop9-80"
         style="stop-color:#1abc95;stop-opacity:1"
         offset="1" />
    </linearGradient>
    <linearGradient
       gradientTransform="matrix(0,-1,1,0,-1.5e-6,47.999998)"
       gradientUnits="userSpaceOnUse"
       x2="47"
       x1="1"
       id="linearGradient3764-8">
      <stop
         id="stop7-6"
         style="stop-color:#5dbacb;stop-opacity:1" />
      <stop
         id="stop9-9"
         style="stop-color:#6cc0d0;stop-opacity:1"
         offset="1" />
    </linearGradient>
    <linearGradient
       gradientUnits="userSpaceOnUse"
       x2="24"
       x1="21"
       id="linearGradient4251"
       xlink:href="#linearGradient4309" />
    <linearGradient
       id="linearGradient4309">
      <stop
         id="stop13"
         style="stop-color:#eff5eb;stop-opacity:1" />
      <stop
         id="stop15"
         style="stop-color:#d1e2c4;stop-opacity:1"
         offset="1" />
    </linearGradient>
    <linearGradient
       gradientTransform="matrix(-1,0,0,1,48,0)"
       x2="24"
       x1="21"
       gradientUnits="userSpaceOnUse"
       id="linearGradient4265"
       xlink:href="#linearGradient4309" />
    <linearGradient
       gradientUnits="userSpaceOnUse"
       y2="1"
       x2="0"
       y1="47"
       id="linearGradient3845">
      <stop
         id="stop7-33"
         style="stop-color:#24bbd2;stop-opacity:1" />
      <stop
         id="stop9-7"
         style="stop-color:#2fc4db;stop-opacity:1"
         offset="1" />
    </linearGradient>
    <linearGradient
       gradientTransform="matrix(0,-1,1,0,-1.5e-6,47.999998)"
       gradientUnits="userSpaceOnUse"
       x2="47"
       x1="1"
       id="linearGradient3764-4">
      <stop
         id="stop7-37"
         style="stop-color:#de4f48;stop-opacity:1" />
      <stop
         id="stop9-1"
         style="stop-color:#e16059;stop-opacity:1"
         offset="1" />
    </linearGradient>
    <linearGradient
       gradientTransform="matrix(0,-1,1,0,-1.5e-6,47.999998)"
       gradientUnits="userSpaceOnUse"
       x2="47"
       x1="1"
       id="linearGradient3764-39">
      <stop
         id="stop7-64"
         style="stop-color:#ee810c;stop-opacity:1" />
      <stop
         id="stop9-2"
         style="stop-color:#f38b1b;stop-opacity:1"
         offset="1" />
    </linearGradient>
    <linearGradient
       gradientTransform="matrix(0,-1,1,0,-1.5e-6,47.999998)"
       gradientUnits="userSpaceOnUse"
       x2="47"
       x1="1"
       id="linearGradient3764-0">
      <stop
         id="stop7-2"
         style="stop-color:#3db0e3;stop-opacity:1" />
      <stop
         id="stop9-95"
         style="stop-color:#50b8e6;stop-opacity:1"
         offset="1" />
    </linearGradient>
    <linearGradient
       id="linearGradient3102-2"
       gradientUnits="userSpaceOnUse"
       gradientTransform="matrix(0.05622958,0,0,0.05622958,0.07160145,-0.0527796)"
       x1="135"
       y1="120"
       x2="160"
       y2="160">
      <stop
         id="stop12-7"
         style="stop-color:#eff7fc" />
      <stop
         id="stop14-4"
         style="stop-color:#fff"
         offset="1" />
    </linearGradient>
    <linearGradient
       gradientTransform="matrix(0,-1,1,0,-1.5e-6,47.999998)"
       gradientUnits="userSpaceOnUse"
       x2="47"
       x1="1"
       id="linearGradient3764-64">
      <stop
         id="stop7-9"
         style="stop-color:#575757;stop-opacity:1" />
      <stop
         id="stop9-12"
         style="stop-color:#616161;stop-opacity:1"
         offset="1" />
    </linearGradient>
    <linearGradient
       gradientTransform="matrix(0,-1,1,0,-1.5e-6,47.999998)"
       gradientUnits="userSpaceOnUse"
       x2="47"
       x1="1"
       id="linearGradient3764-31">
      <stop
         id="stop7-8"
         style="stop-color:#315bd1;stop-opacity:1" />
      <stop
         id="stop9-13"
         style="stop-color:#4166d4;stop-opacity:1"
         offset="1" />
    </linearGradient>
  </defs>
  <path
     id="path7651"
     style="color:#000000;fill:#345dd1;fill-opacity:1"
     d="M 0,0 0,32 32,32 32,0 Z" />
  <g
     transform="matrix(0.87628427,0,0,0.87628427,-4.467376,-5.4752441)"
     id="g12524">
    <g
       transform="matrix(0.9,0,0,0.9,2.4499,2.45)"
       id="g23">
      <g
         id="g25">
        <g
           id="g27"
           transform="translate(1,1)">
          <g
             id="g29"
             style="opacity:0.1">
            <!-- color: #4166d4 -->
            <g
               id="g31">
              <path
                 id="path33"
                 style="fill:#000000;fill-opacity:1;fill-rule:nonzero;stroke:none"
                 d="m 23.598,11.01 c -0.512,0.023 -0.672,0.172 -0.672,0.453 0,0.375 0.828,0.754 2.535,1.168 1.48,0.352 3.289,1.145 4.328,1.879 2.16,1.52 4.172,4.648 4.492,7.03 0.328,2.414 0.441,2.684 1.176,2.684 0.551,0 0.617,-0.293 0.434,-2.043 C 35.293,16.517 30.36,11.513 24.946,11.061 24.344,11.01 23.907,10.995 23.598,11.014 m -9.285,0.422 c -1.406,0.074 -3.355,1.629 -4.063,3.309 -0.41,0.977 -0.355,1.379 0.492,3.203 3.387,7.273 8.852,12.863 17.1,17.488 3.27,1.836 3.512,1.875 5.059,1.086 1.613,-0.816 3.102,-2.73 3.102,-3.992 0,-0.934 -0.469,-1.434 -3.16,-3.379 -1.738,-1.254 -3.348,-2.281 -3.578,-2.281 -0.23,0 -1,0.598 -1.719,1.324 -0.719,0.727 -1.633,1.32 -2.02,1.32 -2.648,0 -7.98,-5.242 -7.98,-7.844 0,-0.395 0.605,-1.281 1.348,-1.984 0.738,-0.707 1.332,-1.547 1.32,-1.867 -0.012,-0.324 -1.012,-1.867 -2.223,-3.426 -1.805,-2.328 -2.414,-2.859 -3.402,-2.957 -0.086,-0.008 -0.184,-0.004 -0.273,0 m 10.16,2.586 c -0.379,0.031 -0.41,0.195 -0.336,0.578 0.094,0.469 0.633,0.809 1.648,1.02 2.793,0.57 5.598,3.609 5.598,6.07 0,0.492 0.121,1.016 0.266,1.16 0.598,0.586 1.074,-0.125 1.047,-1.551 -0.066,-3.316 -3.426,-6.691 -7.125,-7.188 -0.52,-0.063 -0.863,-0.102 -1.094,-0.098 m 1.078,3.168 c -0.445,0.031 -0.711,0.23 -0.711,0.594 0,0.211 0.609,0.645 1.359,0.945 0.93,0.383 1.535,0.973 1.922,1.887 0.598,1.402 1.207,1.711 1.563,0.793 0.379,-0.977 -0.992,-3.145 -2.402,-3.809 -0.672,-0.313 -1.285,-0.445 -1.727,-0.414 m -0.004,0.004" />
            </g>
          </g>
        </g>
      </g>
    </g>
    <g
       transform="matrix(0.9,0,0,0.9,2.4499,2.45)"
       id="g35">
      <g
         id="g37">
        <!-- color: #4166d4 -->
        <g
           id="g39">
          <path
             id="path41"
             style="fill:#f9f9f9;fill-opacity:1;fill-rule:nonzero;stroke:none"
             d="m 23.598,11.01 c -0.512,0.023 -0.672,0.172 -0.672,0.453 0,0.375 0.828,0.754 2.535,1.168 1.48,0.352 3.289,1.145 4.328,1.879 2.16,1.52 4.172,4.648 4.492,7.03 0.328,2.414 0.441,2.684 1.176,2.684 0.551,0 0.617,-0.293 0.434,-2.043 C 35.293,16.517 30.36,11.513 24.946,11.061 24.344,11.01 23.907,10.995 23.598,11.014 m -9.285,0.422 c -1.406,0.074 -3.355,1.629 -4.063,3.309 -0.41,0.977 -0.355,1.379 0.492,3.203 3.387,7.273 8.852,12.863 17.1,17.488 3.27,1.836 3.512,1.875 5.059,1.086 1.613,-0.816 3.102,-2.73 3.102,-3.992 0,-0.934 -0.469,-1.434 -3.16,-3.379 -1.738,-1.254 -3.348,-2.281 -3.578,-2.281 -0.23,0 -1,0.598 -1.719,1.324 -0.719,0.727 -1.633,1.32 -2.02,1.32 -2.648,0 -7.98,-5.242 -7.98,-7.844 0,-0.395 0.605,-1.281 1.348,-1.984 0.738,-0.707 1.332,-1.547 1.32,-1.867 -0.012,-0.324 -1.012,-1.867 -2.223,-3.426 -1.805,-2.328 -2.414,-2.859 -3.402,-2.957 -0.086,-0.008 -0.184,-0.004 -0.273,0 m 10.16,2.586 c -0.379,0.031 -0.41,0.195 -0.336,0.578 0.094,0.469 0.633,0.809 1.648,1.02 2.793,0.57 5.598,3.609 5.598,6.07 0,0.492 0.121,1.016 0.266,1.16 0.598,0.586 1.074,-0.125 1.047,-1.551 -0.066,-3.316 -3.426,-6.691 -7.125,-7.188 -0.52,-0.063 -0.863,-0.102 -1.094,-0.098 m 1.078,3.168 c -0.445,0.031 -0.711,0.23 -0.711,0.594 0,0.211 0.609,0.645 1.359,0.945 0.93,0.383 1.535,0.973 1.922,1.887 0.598,1.402 1.207,1.711 1.563,0.793 0.379,-0.977 -0.992,-3.145 -2.402,-3.809 -0.672,-0.313 -1.285,-0.445 -1.727,-0.414 m -0.004,0.004" />
        </g>
      </g>
    </g>
  </g>
</svg>
