<?xml version="1.0" encoding="UTF-8" standalone="no"?>
<svg xmlns:rdf="http://www.w3.org/1999/02/22-rdf-syntax-ns#" xmlns="http://www.w3.org/2000/svg" xmlns:osb="http://www.openswatchbook.org/uri/2009/osb" height="32" width="32" version="1.0" xmlns:cc="http://creativecommons.org/ns#" xmlns:xlink="http://www.w3.org/1999/xlink" xmlns:dc="http://purl.org/dc/elements/1.1/">
 <path style="color:#000000;fill:#7d007d" d="m0 0v32h32v-32z"/>
 <path d="m9.644 21.71c0.4778 1.077 1.267 1.454 2.102 1.729l-4.881 2.271z" style="opacity:.1;fill-rule:evenodd"/>
 <path style="opacity:.1" d="m21.32 19.85c0.6533-0.4837 1.062-0.8227 1.062-0.8227 7.54-6.6 5.91-11.68 5.86-11.92-0.23-0.05-5.32-1.682-11.92 5.86 0 0-0.3408 0.4108-0.827 1.068-6.091-0.9856-8.468 4.006-8.468 4.006 2.329-0.7377 4.159-0.358 5.303 0.1053l1.393-1.798-0.8704 2.036c0.000723 0.000368 0.0014 0.000725 0.0021 0.0011-0.1364 0.3075-0.255 0.6163-0.3528 0.9206-0.0039 0.0125-0.0061 0.02642-0.0073 0.04089-0.2457 0.8199 0.05785 1.872 0.8486 2.663 0.794 0.794 1.852 1.097 2.673 0.8454 0.01196-0.0016 0.02357-0.004 0.0341-0.0073 0.3-0.1014 0.6054-0.223 0.9125-0.3591 0.000164 0.000532 0.000531 0.0011 0.00092 0.0016l2.032-0.8688-1.789 1.401c0.463 1.144 0.8427 2.974 0.1052 5.303-0.000342-0.000342 4.998-2.381 4.003-8.481z"/>
 <path style="fill:#c6c6c6" d="m19.59 18.22c0.6533-0.4837 1.062-0.8227 1.062-0.8227 7.544-6.597 5.912-11.68 5.857-11.91-0.2312-0.05445-5.315-1.687-11.91 5.857 0 0-0.3408 0.4108-0.827 1.068-6.091-0.9856-8.468 4.006-8.468 4.006 2.329-0.7377 4.159-0.358 5.303 0.1053l1.393-1.798-0.8704 2.036c0.000723 0.000368 0.0014 0.000725 0.0021 0.0011-0.1364 0.3075-0.255 0.6163-0.3528 0.9206-0.0039 0.0125-0.0061 0.02642-0.0073 0.04089-0.2457 0.8199 0.05785 1.872 0.8486 2.663 0.794 0.794 1.852 1.097 2.673 0.8454 0.01196-0.0016 0.02357-0.004 0.0341-0.0073 0.3-0.1014 0.6054-0.223 0.9125-0.3591 0.000164 0.000532 0.000531 0.0011 0.00092 0.0016l2.032-0.8688-1.789 1.401c0.463 1.144 0.8427 2.974 0.1052 5.303-0.000342-0.000342 4.998-2.381 4.003-8.481z"/>
 <path style="fill:#676767" d="m20.28 11.73c-0.6808-0.6808-0.6808-1.785 0-2.465 0.6808-0.6808 1.785-0.6808 2.465 0 0.6808 0.6808 0.6808 1.785 0 2.465-0.6808 0.6808-1.785 0.6808-2.465 0z"/>
 <path style="fill:#ff5252;fill-rule:evenodd" d="m9.356 21.42c0.4778 1.077 1.267 1.454 2.102 1.729l-4.881 2.271z"/>
</svg>
