<?xml version="1.0" encoding="UTF-8" standalone="no"?>
<svg xmlns="http://www.w3.org/2000/svg" xmlns:osb="http://www.openswatchbook.org/uri/2009/osb" height="32" width="32" version="1.0" xmlns:xlink="http://www.w3.org/1999/xlink">
 <g transform="matrix(.1138 0 0 .1138 -64.82 -29.38)">
  <path style="fill:#3b87a8" d="m569.4 258.1h281.1v281.1h-281.1z"/>
  <g transform="matrix(8.785 0 0 8.785 465.6 -340.1)">
   <g style="opacity:.1;fill:#471414" transform="matrix(.2633 0 0 .2633 15.66 71.93)">
    <path style="fill:#471414;clip-rule:evenodd;fill-rule:evenodd" d="m74.87 83.05h-2.193v3.598c0 1.609 1.316 2.926 2.926 2.926h5.4c1.607 0 2.924-1.316 2.924-2.926v-8.324c-2.002 2.853-5.319 4.726-9.057 4.726z"/>
    <path style="fill:#471414;clip-rule:evenodd;fill-rule:evenodd" d="m15.68 77.71v8.938c0 1.609 1.316 2.926 2.925 2.926h5.4c1.609 0 2.925-1.316 2.925-2.926v-3.598h-1.792c-4.001 0-7.516-2.143-9.458-5.34z"/>
    <circle style="fill:#471414;clip-rule:evenodd;fill-rule:evenodd" cx="25.25" r="1.436" cy="69.24"/>
    <circle style="fill:#471414;clip-rule:evenodd;fill-rule:evenodd" cx="21.06" r="1.436" cy="69.24"/>
    <circle style="fill:#471414;clip-rule:evenodd;fill-rule:evenodd" cx="74.76" r="1.436" cy="69.24"/>
    <circle style="fill:#471414;clip-rule:evenodd;fill-rule:evenodd" cx="78.95" r="1.436" cy="69.24"/>
    <path style="fill:#471414;clip-rule:evenodd;fill-rule:evenodd" d="m92.51 30.05h-0.107c-0.197-1.848-1.75-3.301-3.648-3.301h-2.82v-10.65c0-3.124-2.547-5.672-5.672-5.672h-60.51c-3.124 0-5.672 2.548-5.672 5.672v10.65h-2.835c-1.898 0-3.452 1.453-3.649 3.301h-0.103c-1.19 0-2.164 0.974-2.164 2.164v11.2c0 1.19 0.974 2.164 2.164 2.164h2.796c1.19 0 2.164-0.974 2.164-2.164v-11.19c0-1.19-0.974-2.164-2.164-2.164h-0.503c0.144-0.632 0.708-1.106 1.383-1.106h2.918v40.32c0 6.09 4.967 11.06 11.06 11.06h49.73c6.09 0 11.06-4.967 11.06-11.06v-40.32h2.912c0.674 0 1.238 0.475 1.383 1.106h-0.508c-1.189 0-2.164 0.974-2.164 2.164v11.2c0 1.19 0.975 2.164 2.164 2.164h2.797c1.189 0 2.164-0.974 2.164-2.164v-11.2c0.001-1.19-0.974-2.164-2.163-2.164zm-59.91-15.57h34.8v6h-34.8zm-13.35 10.05h61.51v33.79h-61.51zm10.3 47.4c-0.109 0.166-0.279 0.258-0.477 0.258h-8c-2.343 0-4.254-1.91-4.254-4.254v-1.025c0-0.314 0.256-0.57 0.57-0.57h9.632c0.231 0 0.43 0.131 0.522 0.342l2.053 4.711c0.079 0.18 0.062 0.374-0.046 0.538zm53.64-3.996c0 2.344-1.912 4.254-4.254 4.254h-8c-0.199 0-0.369-0.092-0.479-0.258-0.107-0.164-0.123-0.357-0.045-0.539l2.053-4.711c0.094-0.211 0.291-0.342 0.523-0.342h9.631c0.314 0 0.57 0.256 0.57 0.57v1.026z"/>
   </g>
   <g style="fill:#e6e6e6" transform="matrix(.2633 0 0 .2633 14.65 70.93)">
    <path style="fill-rule:evenodd;fill:#e6e6e6;clip-rule:evenodd" d="m74.87 83.05h-2.193v3.598c0 1.609 1.316 2.926 2.926 2.926h5.4c1.607 0 2.924-1.316 2.924-2.926v-8.324c-2.002 2.853-5.319 4.726-9.057 4.726z"/>
    <path style="fill-rule:evenodd;fill:#e6e6e6;clip-rule:evenodd" d="m15.68 77.71v8.938c0 1.609 1.316 2.926 2.925 2.926h5.4c1.609 0 2.925-1.316 2.925-2.926v-3.598h-1.792c-4.001 0-7.516-2.143-9.458-5.34z"/>
    <circle cx="25.25" cy="69.24" r="1.436" style="fill-rule:evenodd;fill:#e6e6e6;clip-rule:evenodd"/>
    <circle cx="21.06" cy="69.24" r="1.436" style="fill-rule:evenodd;fill:#e6e6e6;clip-rule:evenodd"/>
    <circle cx="74.76" cy="69.24" r="1.436" style="fill-rule:evenodd;fill:#e6e6e6;clip-rule:evenodd"/>
    <circle cx="78.95" cy="69.24" r="1.436" style="fill-rule:evenodd;fill:#e6e6e6;clip-rule:evenodd"/>
    <path style="fill-rule:evenodd;fill:#e6e6e6;clip-rule:evenodd" d="m92.51 30.05h-0.107c-0.197-1.848-1.75-3.301-3.648-3.301h-2.82v-10.65c0-3.124-2.547-5.672-5.672-5.672h-60.51c-3.124 0-5.672 2.548-5.672 5.672v10.65h-2.835c-1.898 0-3.452 1.453-3.649 3.301h-0.103c-1.19 0-2.164 0.974-2.164 2.164v11.2c0 1.19 0.974 2.164 2.164 2.164h2.796c1.19 0 2.164-0.974 2.164-2.164v-11.19c0-1.19-0.974-2.164-2.164-2.164h-0.503c0.144-0.632 0.708-1.106 1.383-1.106h2.918v40.32c0 6.09 4.967 11.06 11.06 11.06h49.73c6.09 0 11.06-4.967 11.06-11.06v-40.32h2.912c0.674 0 1.238 0.475 1.383 1.106h-0.508c-1.189 0-2.164 0.974-2.164 2.164v11.2c0 1.19 0.975 2.164 2.164 2.164h2.797c1.189 0 2.164-0.974 2.164-2.164v-11.2c0.001-1.19-0.974-2.164-2.163-2.164zm-59.91-15.57h34.8v6h-34.8zm-13.35 10.05h61.51v33.79h-61.51zm10.3 47.4c-0.109 0.166-0.279 0.258-0.477 0.258h-8c-2.343 0-4.254-1.91-4.254-4.254v-1.025c0-0.314 0.256-0.57 0.57-0.57h9.632c0.231 0 0.43 0.131 0.522 0.342l2.053 4.711c0.079 0.18 0.062 0.374-0.046 0.538zm53.64-3.996c0 2.344-1.912 4.254-4.254 4.254h-8c-0.199 0-0.369-0.092-0.479-0.258-0.107-0.164-0.123-0.357-0.045-0.539l2.053-4.711c0.094-0.211 0.291-0.342 0.523-0.342h9.631c0.314 0 0.57 0.256 0.57 0.57v1.026z"/>
   </g>
  </g>
 </g>
</svg>
