<?xml version="1.0" encoding="UTF-8" standalone="no"?>
<svg xmlns="http://www.w3.org/2000/svg" xmlns:osb="http://www.openswatchbook.org/uri/2009/osb" height="32" width="32" version="1.0" xmlns:xlink="http://www.w3.org/1999/xlink">
 <g transform="matrix(.1138 0 0 .1138 -64.82 -29.38)">
  <path style="fill:#1b4871" d="m569.4 258.1h281.1v281.1h-281.1z"/>
  <g style="opacity:.1;fill:#070008" transform="matrix(6.657 0 0 -6.657 525.4 995)">
   <path style="fill:#070008" stroke-miterlimit="10" d="m30.5 80.84v-0.134c0-0.5764-0.4667-1.043-1.042-1.043h-0.2864c-0.5758 0-1.042 0.4667-1.042 1.043v8.216l-1.459-4.064c-0.2194-0.6096-0.8361-0.947-1.378-0.7519l-0.2698 0.09666c-0.542 0.1939-0.8035 0.8462-0.5841 1.457l3.708 10.33c0.08183 0.494 0.5082 0.8723 1.025 0.8723h0.2864c0.5758 0 1.042-0.4673 1.042-1.043v-8.134l2.868 7.987c0.03084 0.08598 0.0676 0.1654 0.1067 0.2437 0.04981 0.5307 0.4904 0.947 1.033 0.947h0.2864c0.5758 0 1.042-0.4673 1.042-1.043v-8.134l2.868 7.987c0.03084 0.08598 0.0676 0.1654 0.1067 0.2437 0.0504 0.5301 0.491 0.9464 1.034 0.9464h0.2864c0.5758 0 1.042-0.4673 1.042-1.043v-8.134l2.868 7.987c0.03084 0.08598 0.0676 0.1654 0.1067 0.2437 0.0504 0.5301 0.491 0.9464 1.034 0.9464h0.287c0.5758 0 1.042-0.4673 1.042-1.043v-8.133l2.868 7.986c0.03083 0.08598 0.06819 0.166 0.1073 0.2443 0.04981 0.5295 0.4898 0.9458 1.032 0.9458h0.287c0.5758 0 1.042-0.4673 1.042-1.043v-8.134l2.868 7.987c0.03083 0.08598 0.06819 0.166 0.1073 0.2443 0.04981 0.5295 0.4898 0.9458 1.032 0.9458h0.287c0.5758 0 1.042-0.4673 1.042-1.043v-8.46l1.806 5.028c0.2194 0.6108 0.8361 0.9476 1.378 0.7531l0.2698-0.09725c0.542-0.1945 0.8035-0.8468 0.5841-1.458l-3.75-10.35c-0.06997-0.1951-0.1838-0.3582-0.3196-0.4886v-0.105c0-0.5764-0.4667-1.043-1.042-1.043h-0.287c-0.5758 0-1.042 0.4667-1.042 1.043v8.216l-2.744-7.641c-0.05871-0.1619-0.1358-0.3078-0.2212-0.4412v-0.134c0-0.5764-0.4667-1.043-1.042-1.043h-0.287c-0.5758 0-1.042 0.4667-1.042 1.043v8.216l-2.744-7.641c-0.05871-0.1619-0.1358-0.3078-0.2212-0.4412v-0.134c0-0.5764-0.4667-1.043-1.042-1.043h-0.287c-0.5758 0-1.042 0.4667-1.042 1.043v8.216l-2.744-7.641c-0.0587-0.1619-0.1358-0.3078-0.2212-0.4412v-0.134c0-0.5764-0.4667-1.043-1.042-1.043h-0.2864c-0.5758 0-1.042 0.4667-1.042 1.043v8.216l-2.744-7.641c-0.05871-0.1619-0.1358-0.3078-0.2212-0.4412v-0.134c0-0.5764-0.4667-1.043-1.042-1.043h-0.2864c-0.5758 0-1.042 0.4667-1.042 1.043v8.216l-2.744-7.641c-0.0593-0.1625-0.1358-0.3078-0.2218-0.4418z"/>
  </g>
  <g style="fill:#767676" transform="matrix(6.657 0 0 -6.657 516.6 986.2)">
   <path style="fill:#767676" stroke-miterlimit="10" d="m30.5 80.84v-0.134c0-0.5764-0.4667-1.043-1.042-1.043h-0.2864c-0.5758 0-1.042 0.4667-1.042 1.043v8.216l-1.459-4.064c-0.2194-0.6096-0.8361-0.947-1.378-0.7519l-0.2698 0.09666c-0.542 0.1939-0.8035 0.8462-0.5841 1.457l3.708 10.33c0.08183 0.494 0.5082 0.8723 1.025 0.8723h0.2864c0.5758 0 1.042-0.4673 1.042-1.043v-8.134l2.868 7.987c0.03084 0.08598 0.0676 0.1654 0.1067 0.2437 0.04981 0.5307 0.4904 0.947 1.033 0.947h0.2864c0.5758 0 1.042-0.4673 1.042-1.043v-8.134l2.868 7.987c0.03084 0.08598 0.0676 0.1654 0.1067 0.2437 0.0504 0.5301 0.491 0.9464 1.034 0.9464h0.2864c0.5758 0 1.042-0.4673 1.042-1.043v-8.134l2.868 7.987c0.03084 0.08598 0.0676 0.1654 0.1067 0.2437 0.0504 0.5301 0.491 0.9464 1.034 0.9464h0.287c0.5758 0 1.042-0.4673 1.042-1.043v-8.133l2.868 7.986c0.03083 0.08598 0.06819 0.166 0.1073 0.2443 0.04981 0.5295 0.4898 0.9458 1.032 0.9458h0.287c0.5758 0 1.042-0.4673 1.042-1.043v-8.134l2.868 7.987c0.03083 0.08598 0.06819 0.166 0.1073 0.2443 0.04981 0.5295 0.4898 0.9458 1.032 0.9458h0.287c0.5758 0 1.042-0.4673 1.042-1.043v-8.46l1.806 5.028c0.2194 0.6108 0.8361 0.9476 1.378 0.7531l0.2698-0.09725c0.542-0.1945 0.8035-0.8468 0.5841-1.458l-3.75-10.35c-0.06997-0.1951-0.1838-0.3582-0.3196-0.4886v-0.105c0-0.5764-0.4667-1.043-1.042-1.043h-0.287c-0.5758 0-1.042 0.4667-1.042 1.043v8.216l-2.744-7.641c-0.05871-0.1619-0.1358-0.3078-0.2212-0.4412v-0.134c0-0.5764-0.4667-1.043-1.042-1.043h-0.287c-0.5758 0-1.042 0.4667-1.042 1.043v8.216l-2.744-7.641c-0.05871-0.1619-0.1358-0.3078-0.2212-0.4412v-0.134c0-0.5764-0.4667-1.043-1.042-1.043h-0.287c-0.5758 0-1.042 0.4667-1.042 1.043v8.216l-2.744-7.641c-0.0587-0.1619-0.1358-0.3078-0.2212-0.4412v-0.134c0-0.5764-0.4667-1.043-1.042-1.043h-0.2864c-0.5758 0-1.042 0.4667-1.042 1.043v8.216l-2.744-7.641c-0.05871-0.1619-0.1358-0.3078-0.2212-0.4412v-0.134c0-0.5764-0.4667-1.043-1.042-1.043h-0.2864c-0.5758 0-1.042 0.4667-1.042 1.043v8.216l-2.744-7.641c-0.0593-0.1625-0.1358-0.3078-0.2218-0.4418z"/>
  </g>
  <ellipse style="opacity:.1;color-rendering:auto;color:#000000;isolation:auto;mix-blend-mode:normal;shape-rendering:auto;solid-color:#000000;image-rendering:auto;fill:#070008" rx="97.81" ry="97.81" cy="407.5" cx="574.6"/>
  <ellipse style="color-rendering:auto;color:#000000;isolation:auto;mix-blend-mode:normal;shape-rendering:auto;solid-color:#000000;image-rendering:auto;fill:#490952" rx="97.81" ry="97.81" cy="398.6" cx="565.8"/>
  <ellipse style="color-rendering:auto;color:#000000;isolation:auto;mix-blend-mode:normal;shape-rendering:auto;solid-color:#000000;image-rendering:auto;fill:#bd1bd0" rx="82.66" ry="82.66" cy="398.6" cx="565.8"/>
 </g>
</svg>
