<?xml version="1.0" encoding="UTF-8" standalone="no"?>
<svg
   xmlns:dc="http://purl.org/dc/elements/1.1/"
   xmlns:cc="http://creativecommons.org/ns#"
   xmlns:rdf="http://www.w3.org/1999/02/22-rdf-syntax-ns#"
   xmlns:svg="http://www.w3.org/2000/svg"
   xmlns="http://www.w3.org/2000/svg"
   version="1.0"
   width="32"
   height="32"
   id="svg2817">
  <metadata
     id="metadata14">
    <rdf:RDF>
      <cc:Work
         rdf:about="">
        <dc:format>image/svg+xml</dc:format>
        <dc:type
           rdf:resource="http://purl.org/dc/dcmitype/StillImage" />
        <dc:title></dc:title>
      </cc:Work>
    </rdf:RDF>
  </metadata>
  <defs
     id="defs12" />
  <path
     id="path3"
     d="m0 0v32h32v-32z"
     style="fill:#6c2424;fill-opacity:1" />
  <path
     id="path4142"
     d="m 17.629933,6.2598573 c -6.316687,0 -11.3700732,5.0533857 -11.3700732,11.3700727 0,6.316687 5.0533862,11.370072 11.3700732,11.370072 1.010712,0 1.895041,-0.884329 1.895041,-1.895041 0,-0.505339 -0.12633,-0.884329 -0.505338,-1.263303 -0.25267,-0.378999 -0.505339,-0.758007 -0.505339,-1.263302 0,-1.010712 0.884417,-1.895041 1.895041,-1.895041 l 2.274014,0 c 3.536967,0 6.316513,-2.779545 6.316513,-6.316512 0,-5.559091 -5.05356,-10.1071206 -11.370072,-10.1071206 z"
     style="fill:#000000;fill-opacity:1;opacity:0.1" />
  <path
     style="fill:#ffffff"
     d="m 15.99999,4.629916 c -6.316687,0 -11.3700715,5.0533845 -11.3700715,11.370071 0,6.316687 5.0533845,11.370072 11.3700715,11.370072 1.010712,0 1.895041,-0.884329 1.895041,-1.895041 0,-0.505339 -0.12633,-0.884329 -0.505338,-1.263303 -0.25267,-0.378999 -0.505339,-0.758007 -0.505339,-1.263302 0,-1.010712 0.884417,-1.895041 1.895041,-1.895041 l 2.274014,0 c 3.536967,0 6.316513,-2.779545 6.316513,-6.316512 0,-5.5590904 -5.05356,-10.1071189 -11.370072,-10.1071189 z"
     id="path4840" />
  <path
     style="fill:#f1a443"
     d="m 8.128402,15.999987 c -0.9329581,0 -1.7492417,-0.816021 -1.7492417,-1.749241 0,-0.933221 0.8162836,-1.749242 1.7492417,-1.749242 0.9329581,0 1.7492418,0.816021 1.7492418,1.749242 0,0.93322 -0.8162837,1.749241 -1.7492418,1.749241 z"
     id="path4852" />
  <path
     style="fill:#3f90dc"
     d="m 12.501506,10.752262 c -0.932958,0 -1.749241,-0.8163097 -1.749241,-1.7492416 0,-0.9329319 0.81631,-1.7492418 1.749241,-1.7492418 0.932932,0 1.749242,0.8163099 1.749242,1.7492418 0,0.9329319 -0.81631,1.7492416 -1.749242,1.7492416 z"
     id="path4854" />
  <path
     style="fill:#56a913"
     d="m 18.623853,10.752262 c -0.932958,0 -1.749242,-0.8163097 -1.749242,-1.7492416 0,-0.9329319 0.81631,-1.7492418 1.749242,-1.7492418 0.932931,0 1.749241,0.8163099 1.749241,1.7492418 0,0.9329319 -0.81631,1.7492416 -1.749241,1.7492416 z"
     id="path4856" />
  <path
     style="fill:#f35b5b"
     d="m 22.996957,15.999987 c -0.932958,0 -1.749242,-0.816309 -1.749242,-1.749241 0,-0.932932 0.81631,-1.749242 1.749242,-1.749242 0.932932,0 1.749242,0.81631 1.749242,1.749242 0,0.932932 -0.81631,1.749241 -1.749242,1.749241 z"
     id="path4858" />
</svg>
