<?xml version="1.0" encoding="UTF-8" standalone="no"?>
<svg
   xmlns:osb="http://www.openswatchbook.org/uri/2009/osb"
   xmlns:dc="http://purl.org/dc/elements/1.1/"
   xmlns:cc="http://creativecommons.org/ns#"
   xmlns:rdf="http://www.w3.org/1999/02/22-rdf-syntax-ns#"
   xmlns:svg="http://www.w3.org/2000/svg"
   xmlns="http://www.w3.org/2000/svg"
   xmlns:xlink="http://www.w3.org/1999/xlink"
   id="svg7649"
   version="1.0"
   width="32"
   height="32">
  <metadata
     id="metadata7661">
    <rdf:RDF>
      <cc:Work
         rdf:about="">
        <dc:format>image/svg+xml</dc:format>
        <dc:type
           rdf:resource="http://purl.org/dc/dcmitype/StillImage" />
        <dc:title></dc:title>
      </cc:Work>
    </rdf:RDF>
  </metadata>
  <defs
     id="defs7659">
    <linearGradient
       gradientTransform="matrix(0,-1,1,0,-1.5e-6,47.999998)"
       gradientUnits="userSpaceOnUse"
       x2="47"
       x1="1"
       id="linearGradient3764">
      <stop
         id="stop7"
         style="stop-color:#344e8e;stop-opacity:1" />
      <stop
         id="stop9"
         style="stop-color:#3a569c;stop-opacity:1"
         offset="1" />
    </linearGradient>
    <linearGradient
       gradientTransform="matrix(0,-1,1,0,44.444443,47.999998)"
       gradientUnits="userSpaceOnUse"
       x2="47"
       x1="1"
       id="linearGradient3764-1">
      <stop
         id="stop7-0"
         style="stop-color:#f7b747;stop-opacity:1" />
      <stop
         id="stop9-3"
         style="stop-color:#f8bd5a;stop-opacity:1"
         offset="1" />
    </linearGradient>
    <linearGradient
       gradientTransform="matrix(0,-1,1,0,-1.5e-6,47.999998)"
       gradientUnits="userSpaceOnUse"
       x2="47"
       x1="1"
       id="linearGradient3764-6">
      <stop
         id="stop7-7"
         style="stop-color:#f6b042;stop-opacity:1" />
      <stop
         id="stop9-32"
         style="stop-color:#f7b754;stop-opacity:1"
         offset="1" />
    </linearGradient>
    <linearGradient
       gradientTransform="matrix(0,-1,1,0,-1.5e-6,47.999998)"
       gradientUnits="userSpaceOnUse"
       x2="47"
       x1="1"
       id="linearGradient3764-2">
      <stop
         id="stop7-1"
         style="stop-color:#ad897f;stop-opacity:1" />
      <stop
         id="stop9-5"
         style="stop-color:#b5948b;stop-opacity:1"
         offset="1" />
    </linearGradient>
    <linearGradient
       id="linearGradient3874">
      <stop
         id="stop3876"
         offset="0"
         style="stop-color:#ffffff;stop-opacity:1;" />
      <stop
         id="stop3878"
         offset="1"
         style="stop-color:#ffffff;stop-opacity:0;" />
    </linearGradient>
    <linearGradient
       id="linearGradient3858">
      <stop
         style="stop-color:#000000;stop-opacity:1;"
         offset="0"
         id="stop3860" />
      <stop
         style="stop-color:#000000;stop-opacity:0;"
         offset="1"
         id="stop3862" />
    </linearGradient>
    <linearGradient
       id="linearGradient3045">
      <stop
         style="stop-color:#91bedd;stop-opacity:1;"
         offset="0"
         id="stop3047" />
      <stop
         style="stop-color:#4986b1;stop-opacity:1;"
         offset="1"
         id="stop3049" />
    </linearGradient>
    <linearGradient
       id="linearGradient4213">
      <stop
         id="stop4215"
         offset="0"
         style="stop-color:#b1d7f3;stop-opacity:1" />
      <stop
         id="stop4217"
         offset="1"
         style="stop-color:#8fafda;stop-opacity:1" />
    </linearGradient>
    <linearGradient
       id="linearGradient5460"
       osb:paint="gradient">
      <stop
         style="stop-color:#e6e6e6;stop-opacity:1"
         offset="0"
         id="stop5462" />
      <stop
         style="stop-color:#ffffff;stop-opacity:1"
         offset="1"
         id="stop5464" />
    </linearGradient>
    <linearGradient
       id="linearGradient5476"
       osb:paint="solid">
      <stop
         style="stop-color:#772953;stop-opacity:1;"
         offset="0"
         id="stop5478" />
    </linearGradient>
    <linearGradient
       xlink:href="#linearGradient4213"
       id="linearGradient3037"
       gradientUnits="userSpaceOnUse"
       x1="144"
       y1="918.36218"
       x2="144"
       y2="1052.3622"
       gradientTransform="matrix(1.7777778,0,0,1.7761194,16,-1563.3597)" />
    <filter
       id="filter4223"
       style="color-interpolation-filters:sRGB">
      <feBlend
         id="feBlend4225"
         in2="BackgroundImage"
         mode="multiply" />
    </filter>
    <filter
       id="filter4154"
       style="color-interpolation-filters:sRGB">
      <feComposite
         id="feComposite4156"
         in2="SourceGraphic"
         k3="0"
         k2="1"
         k1="0"
         result="composite1"
         k4="0"
         operator="arithmetic" />
      <feColorMatrix
         id="feColorMatrix4158"
         type="saturate"
         values="0"
         result="colormatrix1"
         in="composite1" />
      <feFlood
         id="feFlood4160"
         result="flood1"
         flood-color="rgb(72,59,72)" />
      <feBlend
         id="feBlend4162"
         result="blend1"
         mode="multiply"
         in2="colormatrix1"
         in="flood1" />
      <feBlend
         id="feBlend4164"
         mode="screen"
         in2="blend1"
         result="blend2" />
      <feColorMatrix
         id="feColorMatrix4166"
         type="saturate"
         values="1"
         result="colormatrix2"
         in="blend2" />
      <feComposite
         id="feComposite4168"
         operator="in"
         result="composite2"
         in2="SourceGraphic"
         in="colormatrix2" />
    </filter>
    <linearGradient
       xlink:href="#linearGradient3858"
       id="linearGradient3864"
       x1="272"
       y1="256"
       x2="368"
       y2="352"
       gradientUnits="userSpaceOnUse" />
    <linearGradient
       xlink:href="#linearGradient3874"
       id="linearGradient3872"
       gradientUnits="userSpaceOnUse"
       x1="272"
       y1="256"
       x2="368"
       y2="352"
       gradientTransform="rotate(180,272,272)" />
    <linearGradient
       xlink:href="#linearGradient3874"
       id="linearGradient3906"
       gradientUnits="userSpaceOnUse"
       gradientTransform="rotate(180,272,272)"
       x1="288"
       y1="264"
       x2="360"
       y2="328" />
    <linearGradient
       xlink:href="#linearGradient3858"
       id="linearGradient3908"
       gradientUnits="userSpaceOnUse"
       x1="288"
       y1="272"
       x2="368"
       y2="352" />
    <clipPath
       clipPathUnits="userSpaceOnUse"
       id="clipPath9430">
      <path
         id="path9432"
         d="m 166.0625,-196 179.875,0 C 491.2348,-196 512,-175.28677 512,-30.125 l 0,148.25 C 512,263.28618 491.2348,284 345.9375,284 l -179.875,0 C 20.7652,284 0,263.28618 0,118.125 L 0,-30.125 C 0,-175.28677 20.7652,-196 166.0625,-196 Z"
         style="color:#000000;display:inline;overflow:visible;visibility:visible;fill:#ffffff;fill-opacity:1;fill-rule:nonzero;stroke:none;stroke-width:1;marker:none;enable-background:new" />
    </clipPath>
    <linearGradient
       gradientTransform="matrix(0,-1,1,0,-1.5e-6,47.999998)"
       gradientUnits="userSpaceOnUse"
       x2="47"
       x1="1"
       id="linearGradient3764-3">
      <stop
         id="stop7-3"
         style="stop-color:#4eb470;stop-opacity:1" />
      <stop
         id="stop9-8"
         style="stop-color:#5dba7c;stop-opacity:1"
         offset="1" />
    </linearGradient>
    <linearGradient
       gradientTransform="matrix(3.543307,0,0,3.543307,-1,0)"
       x2="10.442"
       x1="3.669"
       gradientUnits="userSpaceOnUse"
       id="linear0">
      <stop
         id="stop12"
         style="stop-color:#e2f4fb;stop-opacity:1" />
      <stop
         id="stop14"
         style="stop-color:#f9f9f9;stop-opacity:1"
         offset="1" />
    </linearGradient>
    <linearGradient
       gradientTransform="matrix(0,-1,1,0,-1.5e-6,47.999998)"
       gradientUnits="userSpaceOnUse"
       x2="47"
       x1="1"
       id="linearGradient3764-28">
      <stop
         id="stop7-5"
         style="stop-color:#18aa86;stop-opacity:1" />
      <stop
         id="stop9-80"
         style="stop-color:#1abc95;stop-opacity:1"
         offset="1" />
    </linearGradient>
    <linearGradient
       gradientTransform="matrix(0,-1,1,0,-1.5e-6,47.999998)"
       gradientUnits="userSpaceOnUse"
       x2="47"
       x1="1"
       id="linearGradient3764-8">
      <stop
         id="stop7-6"
         style="stop-color:#5dbacb;stop-opacity:1" />
      <stop
         id="stop9-9"
         style="stop-color:#6cc0d0;stop-opacity:1"
         offset="1" />
    </linearGradient>
    <linearGradient
       gradientUnits="userSpaceOnUse"
       x2="24"
       x1="21"
       id="linearGradient4251"
       xlink:href="#linearGradient4309" />
    <linearGradient
       id="linearGradient4309">
      <stop
         id="stop13"
         style="stop-color:#eff5eb;stop-opacity:1" />
      <stop
         id="stop15"
         style="stop-color:#d1e2c4;stop-opacity:1"
         offset="1" />
    </linearGradient>
    <linearGradient
       gradientTransform="matrix(-1,0,0,1,48,0)"
       x2="24"
       x1="21"
       gradientUnits="userSpaceOnUse"
       id="linearGradient4265"
       xlink:href="#linearGradient4309" />
    <linearGradient
       gradientUnits="userSpaceOnUse"
       y2="1"
       x2="0"
       y1="47"
       id="linearGradient3845">
      <stop
         id="stop7-33"
         style="stop-color:#24bbd2;stop-opacity:1" />
      <stop
         id="stop9-7"
         style="stop-color:#2fc4db;stop-opacity:1"
         offset="1" />
    </linearGradient>
    <linearGradient
       gradientTransform="matrix(0,-1,1,0,-1.5e-6,47.999998)"
       gradientUnits="userSpaceOnUse"
       x2="47"
       x1="1"
       id="linearGradient3764-4">
      <stop
         id="stop7-37"
         style="stop-color:#de4f48;stop-opacity:1" />
      <stop
         id="stop9-1"
         style="stop-color:#e16059;stop-opacity:1"
         offset="1" />
    </linearGradient>
    <linearGradient
       gradientTransform="matrix(0,-1,1,0,-1.5e-6,47.999998)"
       gradientUnits="userSpaceOnUse"
       x2="47"
       x1="1"
       id="linearGradient3764-39">
      <stop
         id="stop7-64"
         style="stop-color:#ee810c;stop-opacity:1" />
      <stop
         id="stop9-2"
         style="stop-color:#f38b1b;stop-opacity:1"
         offset="1" />
    </linearGradient>
    <linearGradient
       gradientTransform="matrix(0,-1,1,0,-1.5e-6,47.999998)"
       gradientUnits="userSpaceOnUse"
       x2="47"
       x1="1"
       id="linearGradient3764-0">
      <stop
         id="stop7-2"
         style="stop-color:#3db0e3;stop-opacity:1" />
      <stop
         id="stop9-95"
         style="stop-color:#50b8e6;stop-opacity:1"
         offset="1" />
    </linearGradient>
    <linearGradient
       id="linearGradient3102-2"
       gradientUnits="userSpaceOnUse"
       gradientTransform="matrix(0.05622958,0,0,0.05622958,0.07160145,-0.0527796)"
       x1="135"
       y1="120"
       x2="160"
       y2="160">
      <stop
         id="stop12-7"
         style="stop-color:#eff7fc" />
      <stop
         id="stop14-4"
         style="stop-color:#fff"
         offset="1" />
    </linearGradient>
    <linearGradient
       gradientTransform="matrix(0,-1,1,0,-1.5e-6,47.999998)"
       gradientUnits="userSpaceOnUse"
       x2="47"
       x1="1"
       id="linearGradient3764-64">
      <stop
         id="stop7-9"
         style="stop-color:#575757;stop-opacity:1" />
      <stop
         id="stop9-12"
         style="stop-color:#616161;stop-opacity:1"
         offset="1" />
    </linearGradient>
    <linearGradient
       gradientTransform="matrix(0,-1,1,0,-1.5e-6,47.999998)"
       gradientUnits="userSpaceOnUse"
       x2="47"
       x1="1"
       id="linearGradient3764-31">
      <stop
         id="stop7-8"
         style="stop-color:#315bd1;stop-opacity:1" />
      <stop
         id="stop9-13"
         style="stop-color:#4166d4;stop-opacity:1"
         offset="1" />
    </linearGradient>
    <linearGradient
       gradientUnits="userSpaceOnUse"
       y2="1"
       x2="0"
       y1="47"
       id="linearGradient3764-89">
      <stop
         id="stop7-24"
         style="stop-color:#23bd88;stop-opacity:1" />
      <stop
         id="stop9-51"
         style="stop-color:#26cd93;stop-opacity:1"
         offset="1" />
    </linearGradient>
    <linearGradient
       gradientTransform="matrix(0,-1,1,0,-1.5e-6,47.999998)"
       gradientUnits="userSpaceOnUse"
       x2="47"
       x1="1"
       id="linearGradient3764-00">
      <stop
         id="stop7-13"
         style="stop-color:#075f93;stop-opacity:1" />
      <stop
         id="stop9-30"
         style="stop-color:#086ba6;stop-opacity:1"
         offset="1" />
    </linearGradient>
    <linearGradient
       gradientTransform="matrix(0.9,0,0,0.9,2.4499,2.45)"
       gradientUnits="userSpaceOnUse"
       y2="1"
       x2="0"
       y1="47"
       id="linearGradient3764-002">
      <stop
         id="stop7-22"
         style="stop-color:#67ac5e;stop-opacity:1" />
      <stop
         id="stop9-4"
         style="stop-color:#74b36b;stop-opacity:1"
         offset="1" />
    </linearGradient>
    <linearGradient
       gradientTransform="matrix(0,-1,1,0,-1.5e-6,47.999998)"
       gradientUnits="userSpaceOnUse"
       x2="47"
       x1="1"
       id="linearGradient3764-7">
      <stop
         id="stop7-86"
         style="stop-color:#f6b042;stop-opacity:1" />
      <stop
         id="stop9-0"
         style="stop-color:#f7b754;stop-opacity:1"
         offset="1" />
    </linearGradient>
    <linearGradient
       x2="-24"
       x1="-27"
       gradientUnits="userSpaceOnUse"
       id="linearGradient3357">
      <stop
         style="stop-color:#e25543;stop-opacity:1"
         id="stop14433" />
      <stop
         offset="1"
         style="stop-color:#e96b5a;stop-opacity:1"
         id="stop14435" />
    </linearGradient>
    <linearGradient
       id="linearGradient3764-06"
       x1="1"
       x2="47"
       gradientUnits="userSpaceOnUse"
       gradientTransform="matrix(0,-1,1,0,-1.5e-6,47.999998)">
      <stop
         style="stop-color:#324162;stop-opacity:1"
         id="stop14589" />
      <stop
         offset="1"
         style="stop-color:#394a6f;stop-opacity:1"
         id="stop14591" />
    </linearGradient>
    <linearGradient
       id="linear0-4"
       gradientUnits="userSpaceOnUse"
       x1="13"
       y1="28"
       x2="15"
       y2="29">
      <stop
         style="stop-color:#35587c;stop-opacity:1"
         id="stop14594" />
      <stop
         offset="1"
         style="stop-color:#335276;stop-opacity:1"
         id="stop14596" />
    </linearGradient>
    <linearGradient
       id="linear1"
       gradientUnits="userSpaceOnUse"
       x1="12.906"
       y1="27.547"
       x2="24"
       y2="28">
      <stop
         style="stop-color:#3d6084;stop-opacity:1"
         id="stop14599" />
      <stop
         offset="1"
         style="stop-color:#2f5175;stop-opacity:1"
         id="stop14601" />
    </linearGradient>
    <linearGradient
       id="linear2"
       gradientUnits="userSpaceOnUse"
       x1="27"
       y1="35"
       x2="35"
       y2="24">
      <stop
         style="stop-color:#375b80;stop-opacity:1"
         id="stop14604" />
      <stop
         offset="1"
         style="stop-color:#3d6185;stop-opacity:1"
         id="stop14606" />
    </linearGradient>
    <linearGradient
       id="linearGradient4193"
       x1="1"
       x2="47"
       gradientUnits="userSpaceOnUse">
      <stop
         style="stop-color:#2ebd59;stop-opacity:1"
         id="stop14736" />
      <stop
         offset="1"
         style="stop-color:#33cd61;stop-opacity:1"
         id="stop14738" />
    </linearGradient>
    <linearGradient
       id="linearGradient3764-37"
       x1="1"
       x2="47"
       gradientUnits="userSpaceOnUse"
       gradientTransform="matrix(0,-1,1,0,-1.5e-6,47.999998)">
      <stop
         style="stop-color:#b471e3;stop-opacity:1"
         id="stop15099" />
      <stop
         offset="1"
         style="stop-color:#bd82e6;stop-opacity:1"
         id="stop15101" />
    </linearGradient>
    <linearGradient
       id="linearGradient3764-5"
       x1="1"
       x2="47"
       gradientUnits="userSpaceOnUse"
       gradientTransform="matrix(0,-1,1,0,-1.5e-6,47.999998)">
      <stop
         style="stop-color:#ff7061;stop-opacity:1"
         id="stop16473" />
      <stop
         offset="1"
         style="stop-color:#ff8275;stop-opacity:1"
         id="stop16475" />
    </linearGradient>
    <radialGradient
       id="radial0"
       gradientUnits="userSpaceOnUse"
       cx="6.773"
       cy="5.927"
       r="0.564"
       gradientTransform="matrix(3.543307,0,0,3.543307,0.000000147638,0.000377575)">
      <stop
         style="stop-color:#8eb0c7;stop-opacity:1"
         id="stop16478" />
      <stop
         offset="1"
         style="stop-color:#8eb0c7;stop-opacity:0"
         id="stop16480" />
    </radialGradient>
    <radialGradient
       id="radial1"
       gradientUnits="userSpaceOnUse"
       cx="6"
       cy="17.292"
       r="1"
       gradientTransform="translate(18,8.707971)"
       xlink:href="#radial0" />
    <radialGradient
       xlink:href="#radial0"
       id="radialGradient3427"
       gradientUnits="userSpaceOnUse"
       gradientTransform="matrix(3.543307,0,0,3.543307,1.47638e-7,3.77575e-4)"
       cx="6.773"
       cy="5.927"
       r="0.564" />
    <linearGradient
       id="linearGradient3764-81"
       x1="1"
       x2="47"
       gradientUnits="userSpaceOnUse"
       gradientTransform="matrix(0,-1,1,0,-1.5e-6,47.999998)">
      <stop
         style="stop-color:#e4e4e4;stop-opacity:1"
         id="stop16695" />
      <stop
         offset="1"
         style="stop-color:#eee;stop-opacity:1"
         id="stop16697" />
    </linearGradient>
    <linearGradient
       id="linearGradient3764-30"
       x1="1"
       x2="47"
       gradientUnits="userSpaceOnUse"
       gradientTransform="matrix(0,-1,1,0,-1.5e-6,47.999998)">
      <stop
         style="stop-color:#f5c755;stop-opacity:1"
         id="stop16859" />
      <stop
         offset="1"
         style="stop-color:#f6cd68;stop-opacity:1"
         id="stop16861" />
    </linearGradient>
    <linearGradient
       id="linearGradient3764-26"
       x1="1"
       x2="47"
       gradientUnits="userSpaceOnUse"
       gradientTransform="matrix(0,-1,1,0,-1.5e-6,47.999998)">
      <stop
         style="stop-color:#e0a300;stop-opacity:1"
         id="stop16950" />
      <stop
         offset="1"
         style="stop-color:#f4b400;stop-opacity:1"
         id="stop16952" />
    </linearGradient>
    <linearGradient
       id="linearGradient3764-43"
       x1="1"
       x2="47"
       gradientUnits="userSpaceOnUse"
       gradientTransform="matrix(0,-1,1,0,-1.5e-6,47.999998)">
      <stop
         style="stop-color:#3d3d3d;stop-opacity:1"
         id="stop18185" />
      <stop
         offset="1"
         style="stop-color:#474747;stop-opacity:1"
         id="stop18187" />
    </linearGradient>
    <linearGradient
       id="linearGradient3764-86"
       x1="1"
       x2="47"
       gradientUnits="userSpaceOnUse"
       gradientTransform="matrix(0,-1,1,0,-1.5e-6,47.999998)">
      <stop
         style="stop-color:#d84430;stop-opacity:1"
         id="stop18278" />
      <stop
         offset="1"
         style="stop-color:#db5441;stop-opacity:1"
         id="stop18280" />
    </linearGradient>
    <linearGradient
       id="linearGradient3064"
       y1="1"
       x2="0"
       y2="47"
       gradientUnits="userSpaceOnUse">
      <stop
         style="stop-color:#555;stop-opacity:1"
         id="stop18419" />
      <stop
         offset="1"
         style="stop-color:#4b4b4b;stop-opacity:1"
         id="stop18421" />
    </linearGradient>
    <linearGradient
       id="linearGradient3764-70"
       x1="1"
       x2="47"
       gradientUnits="userSpaceOnUse"
       gradientTransform="matrix(0,-1,1,0,-1.5e-6,47.999998)">
      <stop
         style="stop-color:#f05d1c;stop-opacity:1"
         id="stop18510" />
      <stop
         offset="1"
         style="stop-color:#f16a30;stop-opacity:1"
         id="stop18512" />
    </linearGradient>
    <linearGradient
       id="linearGradient3764-819"
       x1="1"
       x2="47"
       gradientUnits="userSpaceOnUse"
       gradientTransform="matrix(0,-1,1,0,-1.5e-6,47.999998)">
      <stop
         style="stop-color:#a467af;stop-opacity:1"
         id="stop18695" />
      <stop
         offset="1"
         style="stop-color:#ac74b6;stop-opacity:1"
         id="stop18697" />
    </linearGradient>
    <linearGradient
       id="linearGradient3764-816"
       x1="1"
       x2="47"
       gradientUnits="userSpaceOnUse"
       gradientTransform="matrix(0,-1,1,0,-1.5e-6,47.999998)">
      <stop
         style="stop-color:#d3d3d3;stop-opacity:1"
         id="stop22104" />
      <stop
         offset="1"
         style="stop-color:#ddd;stop-opacity:1"
         id="stop22106" />
    </linearGradient>
    <linearGradient
       id="linearGradient3764-48"
       x1="1"
       x2="47"
       gradientUnits="userSpaceOnUse"
       gradientTransform="matrix(0,-1,1,0,-1.5e-6,47.999998)">
      <stop
         style="stop-color:#cfcfcf;stop-opacity:1"
         id="stop22223" />
      <stop
         offset="1"
         style="stop-color:#d9d9d9;stop-opacity:1"
         id="stop22225" />
    </linearGradient>
    <linearGradient
       id="linearGradient3126"
       gradientUnits="userSpaceOnUse"
       gradientTransform="matrix(0,-1,1,0,-1.5e-6,47.999998)"
       x1="1"
       x2="47">
      <stop
         style="stop-color:#5ab133;stop-opacity:1"
         id="stop22615" />
      <stop
         offset="1"
         style="stop-color:#63c038;stop-opacity:1"
         id="stop22617" />
    </linearGradient>
    <linearGradient
       id="linearGradient3764-50"
       x1="1"
       x2="47"
       gradientUnits="userSpaceOnUse"
       gradientTransform="matrix(0,-1,1,0,-1.5e-6,47.999998)">
      <stop
         style="stop-color:#00acec;stop-opacity:1"
         id="stop22936" />
      <stop
         offset="1"
         style="stop-color:#01b9ff;stop-opacity:1"
         id="stop22938" />
    </linearGradient>
    <linearGradient
       id="linearGradient3764-15"
       x1="1"
       x2="47"
       gradientUnits="userSpaceOnUse"
       gradientTransform="matrix(0,-1,1,0,-1.5e-6,47.999998)">
      <stop
         style="stop-color:#4b4b4b;stop-opacity:1"
         id="stop27458" />
      <stop
         offset="1"
         style="stop-color:#555;stop-opacity:1"
         id="stop27460" />
    </linearGradient>
    <linearGradient
       id="linearGradient3764-9"
       x1="1"
       x2="47"
       gradientUnits="userSpaceOnUse"
       gradientTransform="matrix(0,-1,1,0,-1.5e-6,47.999998)">
      <stop
         style="stop-color:#93c848;stop-opacity:1"
         id="stop28213" />
      <stop
         offset="1"
         style="stop-color:#9ccd57;stop-opacity:1"
         id="stop28215" />
    </linearGradient>
    <linearGradient
       id="linearGradient3764-706"
       x1="1"
       x2="47"
       gradientUnits="userSpaceOnUse"
       gradientTransform="matrix(0,-1,1,0,-1.5e-6,47.999998)">
      <stop
         style="stop-color:#d6740a;stop-opacity:1"
         id="stop28339" />
      <stop
         offset="1"
         style="stop-color:#e97e0b;stop-opacity:1"
         id="stop28341" />
    </linearGradient>
    <linearGradient
       id="linearGradient3764-289"
       x1="1"
       x2="47"
       gradientUnits="userSpaceOnUse"
       gradientTransform="matrix(0,-1,1,0,-1.5e-6,47.999998)">
      <stop
         style="stop-color:#01a0db;stop-opacity:1"
         id="stop28428" />
      <stop
         offset="1"
         style="stop-color:#01b1ef;stop-opacity:1"
         id="stop28430" />
    </linearGradient>
    <linearGradient
       id="linearGradient3845-5"
       y1="47"
       x2="0"
       y2="1"
       gradientUnits="userSpaceOnUse">
      <stop
         style="stop-color:#6fa2b4;stop-opacity:1"
         id="stop28619" />
      <stop
         offset="1"
         style="stop-color:#7dabbb;stop-opacity:1"
         id="stop28621" />
    </linearGradient>
    <linearGradient
       id="linearGradient3764-02"
       x1="1"
       x2="47"
       gradientUnits="userSpaceOnUse"
       gradientTransform="matrix(0,-1,1,0,-1.5e-6,47.999998)">
      <stop
         style="stop-color:#314c6b;stop-opacity:1"
         id="stop28723" />
      <stop
         offset="1"
         style="stop-color:#375678;stop-opacity:1"
         id="stop28725" />
    </linearGradient>
    <linearGradient
       id="linearGradient3764-72"
       x1="1"
       x2="47"
       gradientUnits="userSpaceOnUse"
       gradientTransform="matrix(0,-1,1,0,-1.5e-6,47.999998)">
      <stop
         style="stop-color:#e1281f;stop-opacity:1"
         id="stop28837" />
      <stop
         offset="1"
         style="stop-color:#e33a31;stop-opacity:1"
         id="stop28839" />
    </linearGradient>
    <linearGradient
       id="linearGradient3764-817"
       x1="1"
       x2="47"
       gradientUnits="userSpaceOnUse"
       gradientTransform="matrix(0,-1,1,0,-1.5e-6,47.999998)">
      <stop
         style="stop-color:#7568a0;stop-opacity:1"
         id="stop30966" />
      <stop
         offset="1"
         style="stop-color:#8074a8;stop-opacity:1"
         id="stop30968" />
    </linearGradient>
    <linearGradient
       id="linearGradient3764-79"
       x1="1"
       x2="47"
       gradientUnits="userSpaceOnUse"
       gradientTransform="matrix(0,-1,1,0,-1.5e-6,47.999998)">
      <stop
         style="stop-color:#2c313c;stop-opacity:1"
         id="stop34948" />
      <stop
         offset="1"
         style="stop-color:#353b47;stop-opacity:1"
         id="stop34950" />
    </linearGradient>
    <linearGradient
       id="linearGradient4164"
       x1="1"
       x2="47"
       gradientUnits="userSpaceOnUse">
      <stop
         style="stop-color:#f44c68;stop-opacity:1"
         id="stop35063" />
      <stop
         offset="1"
         style="stop-color:#f55f78;stop-opacity:1"
         id="stop35065" />
    </linearGradient>
    <linearGradient
       id="linearGradient3764-798"
       x1="1"
       x2="47"
       gradientUnits="userSpaceOnUse"
       gradientTransform="matrix(0,-1,1,0,-1.5e-6,47.999998)">
      <stop
         style="stop-color:#66b7cc;stop-opacity:1"
         id="stop35216" />
      <stop
         offset="1"
         style="stop-color:#75bed1;stop-opacity:1"
         id="stop35218" />
    </linearGradient>
  </defs>
  <path
     id="path7651"
     style="color:#000000;fill:#de6517;fill-opacity:1"
     d="M 0,0 0,32 32,32 32,0 Z" />
  <g
     style="fill:#000000;fill-opacity:1;opacity:0.1"
     id="g35331"
     transform="translate(-17.223814,7.475611)">
    <path
       d="m 34.286314,-1.175111 a 10.762,10.762 0 0 0 -10.762,10.762 10.762,10.762 0 0 0 10.762,10.762 10.762,10.762 0 0 0 10.762,-10.762 10.762,10.762 0 0 0 -10.762,-10.762 z m -0.0507,4.36 c 2.2925,0.062672 5.86,1.5247 6.3558,5.5788 6.73e-4,0.0068 -0.0081,0.17587 -0.01114,0.19602 -0.08572,0.55209 -0.56213,0.96471 -1.1269,0.96464 -0.57783,-6.73e-4 -1.0637,-0.4337 -1.131,-1.0076 -0.3283,-2.002 -2.0579,-3.4719 -4.0867,-3.473 -0.61224,0.0013 -1.2165,0.13867 -1.7694,0.40162 0.11096,-0.19092 0.16957,-0.40774 0.17004,-0.62856 0,-0.04248 -0.0027,-0.08441 -0.0068,-0.12583 l 0.09615,-0.03339 a 1.4333,1.4333 0 0 1 6.33e-4,0.0047 4.765,4.765 0 0 1 1.5592,-0.26806 4.765,4.765 0 0 1 4.4788,3.1508 1.4333,1.4333 0 0 1 0.22292,-0.11779 5.0166,5.0166 0 0 0 -4.7017,-3.2847 5.0166,5.0166 0 0 0 -1.5425,0.24827 l -3.16e-4,-0.0013 c -0.0092,-0.0047 -0.09452,0.02781 -0.16294,0.05473 -0.05661,-0.1826 -0.15507,-0.34625 -0.28228,-0.48262 l 0.16108,-0.05965 a 5.5724,5.5724 0 0 1 1.8269,-0.31505 5.5724,5.5724 0 0 1 5.2508,3.7247 1.4333,1.4333 0 0 1 0.01206,-3.17e-4 1.4333,1.4333 0 0 1 0.3132,0.03615 5.8667,5.8667 0 0 0 -5.576,-4.0549 5.8667,5.8667 0 0 0 -2.0616,0.38184 1.4333,1.4333 0 0 1 0.0053,0.0047 l -0.18643,0.07513 c -0.19266,-0.12044 -0.41818,-0.19323 -0.66221,-0.19324 -0.08141,3.16e-4 -0.16259,0.0087 -0.24239,0.0247 0.94801,-0.52485 2.0137,-0.80045 3.0973,-0.80109 z m -3.1892,1.1032 c 0.61892,1.3e-5 1.1206,0.50184 1.1205,1.1208 -6.33e-4,0.48424 -0.68773,1.0595 -0.64556,1.0543 -0.90601,0.78544 -1.4273,1.9249 -1.4293,3.1239 0.0013,1.3281 0.63964,2.5749 1.7159,3.353 -0.2429,0.0047 -0.4679,0.07931 -0.65793,0.20282 a 4.765,4.765 0 0 1 -1.6294,-3.5834 4.765,4.765 0 0 1 1.1523,-3.1038 1.4333,1.4333 0 0 1 -0.21642,-0.12892 5.0166,5.0166 0 0 0 -1.1872,3.2328 5.0166,5.0166 0 0 0 1.6847,3.7404 c -0.13541,0.13291 -0.23989,0.29606 -0.30423,0.47861 a 5.5724,5.5724 0 0 1 -1.9367,-4.219 5.5724,5.5724 0 0 1 1.3619,-3.6455 1.4333,1.4333 0 0 1 -0.13356,-0.28723 5.8667,5.8667 0 0 0 -1.5221,3.9327 5.8667,5.8667 0 0 0 2.1407,4.5264 1.4333,1.4333 0 0 1 0.04174,-0.13882 c -0.01609,0.08012 -0.0247,0.16286 -0.0247,0.24765 3.16e-4,0.3208 0.12326,0.62934 0.34381,0.8623 -3.5925,-2.2722 -4.09,-7.4648 -0.61372,-10.489 0.20416,-0.18019 0.46694,-0.27995 0.73925,-0.28042 z m 9.579,5.6478 c -0.18515,3.3942 -2.9906,6.052 -6.3898,6.0534 -0.71052,-0.0033 -1.4155,-0.1254 -2.086,-0.3605 -0.1457,-0.02498 -0.28521,-0.07796 -0.41059,-0.15614 -0.0033,-0.002 -0.05998,-0.03952 -0.06523,-0.04329 -0.29615,-0.21398 -0.4721,-0.55736 -0.47242,-0.92351 3.4e-5,-0.62972 0.51052,-1.1402 1.1402,-1.1402 0.18677,10e-5 0.37066,0.04605 0.5355,0.13387 l -0.002,-0.0033 c 0.43724,0.15377 0.89719,0.23308 1.3607,0.23466 2.1131,-6.73e-4 3.8872,-1.5916 4.1173,-3.6922 0.12896,0.24692 0.33421,0.43728 0.57723,0.55219 a 4.765,4.765 0 0 1 -4.6445,3.7339 4.765,4.765 0 0 1 -0.91702,-0.09059 1.4333,1.4333 0 0 1 0.01482,0.19386 1.4333,1.4333 0 0 1 -0.0033,0.06369 5.0166,5.0166 0 0 0 0.90527,0.08472 5.0166,5.0166 0 0 0 4.8832,-3.9015 c 0.09596,0.02342 0.1948,0.03797 0.29619,0.03804 0.09251,-4e-5 0.18233,-0.0136 0.27022,-0.03306 a 5.5724,5.5724 0 0 1 -5.4496,4.4525 5.5724,5.5724 0 0 1 -1.0373,-0.10049 1.4333,1.4333 0 0 1 -0.15984,0.26434 5.8667,5.8667 0 0 0 1.1971,0.13048 5.8667,5.8667 0 0 0 5.7773,-4.8692 c 0.24783,-0.13487 0.4502,-0.34935 0.56239,-0.62145 z"
       style="color:#000000;isolation:auto;mix-blend-mode:normal;solid-color:#000000;fill:#000000;color-rendering:auto;image-rendering:auto;shape-rendering:auto;fill-opacity:1"
       id="path35333" />
  </g>
  <g
     transform="translate(-18.286314,6.413111)"
     id="g35325">
    <path
       id="path4881"
       style="color:#000000;isolation:auto;mix-blend-mode:normal;solid-color:#000000;fill:#ffffff;color-rendering:auto;image-rendering:auto;shape-rendering:auto"
       d="m 34.286314,-1.175111 a 10.762,10.762 0 0 0 -10.762,10.762 10.762,10.762 0 0 0 10.762,10.762 10.762,10.762 0 0 0 10.762,-10.762 10.762,10.762 0 0 0 -10.762,-10.762 z m -0.0507,4.36 c 2.2925,0.062672 5.86,1.5247 6.3558,5.5788 6.73e-4,0.0068 -0.0081,0.17587 -0.01114,0.19602 -0.08572,0.55209 -0.56213,0.96471 -1.1269,0.96464 -0.57783,-6.73e-4 -1.0637,-0.4337 -1.131,-1.0076 -0.3283,-2.002 -2.0579,-3.4719 -4.0867,-3.473 -0.61224,0.0013 -1.2165,0.13867 -1.7694,0.40162 0.11096,-0.19092 0.16957,-0.40774 0.17004,-0.62856 0,-0.04248 -0.0027,-0.08441 -0.0068,-0.12583 l 0.09615,-0.03339 a 1.4333,1.4333 0 0 1 6.33e-4,0.0047 4.765,4.765 0 0 1 1.5592,-0.26806 4.765,4.765 0 0 1 4.4788,3.1508 1.4333,1.4333 0 0 1 0.22292,-0.11779 5.0166,5.0166 0 0 0 -4.7017,-3.2847 5.0166,5.0166 0 0 0 -1.5425,0.24827 l -3.16e-4,-0.0013 c -0.0092,-0.0047 -0.09452,0.02781 -0.16294,0.05473 -0.05661,-0.1826 -0.15507,-0.34625 -0.28228,-0.48262 l 0.16108,-0.05965 a 5.5724,5.5724 0 0 1 1.8269,-0.31505 5.5724,5.5724 0 0 1 5.2508,3.7247 1.4333,1.4333 0 0 1 0.01206,-3.17e-4 1.4333,1.4333 0 0 1 0.3132,0.03615 5.8667,5.8667 0 0 0 -5.576,-4.0549 5.8667,5.8667 0 0 0 -2.0616,0.38184 1.4333,1.4333 0 0 1 0.0053,0.0047 l -0.18643,0.07513 c -0.19266,-0.12044 -0.41818,-0.19323 -0.66221,-0.19324 -0.08141,3.16e-4 -0.16259,0.0087 -0.24239,0.0247 0.94801,-0.52485 2.0137,-0.80045 3.0973,-0.80109 z m -3.1892,1.1032 c 0.61892,1.3e-5 1.1206,0.50184 1.1205,1.1208 -6.33e-4,0.48424 -0.68773,1.0595 -0.64556,1.0543 -0.90601,0.78544 -1.4273,1.9249 -1.4293,3.1239 0.0013,1.3281 0.63964,2.5749 1.7159,3.353 -0.2429,0.0047 -0.4679,0.07931 -0.65793,0.20282 a 4.765,4.765 0 0 1 -1.6294,-3.5834 4.765,4.765 0 0 1 1.1523,-3.1038 1.4333,1.4333 0 0 1 -0.21642,-0.12892 5.0166,5.0166 0 0 0 -1.1872,3.2328 5.0166,5.0166 0 0 0 1.6847,3.7404 c -0.13541,0.13291 -0.23989,0.29606 -0.30423,0.47861 a 5.5724,5.5724 0 0 1 -1.9367,-4.219 5.5724,5.5724 0 0 1 1.3619,-3.6455 1.4333,1.4333 0 0 1 -0.13356,-0.28723 5.8667,5.8667 0 0 0 -1.5221,3.9327 5.8667,5.8667 0 0 0 2.1407,4.5264 1.4333,1.4333 0 0 1 0.04174,-0.13882 c -0.01609,0.08012 -0.0247,0.16286 -0.0247,0.24765 3.16e-4,0.3208 0.12326,0.62934 0.34381,0.8623 -3.5925,-2.2722 -4.09,-7.4648 -0.61372,-10.489 0.20416,-0.18019 0.46694,-0.27995 0.73925,-0.28042 z m 9.579,5.6478 c -0.18515,3.3942 -2.9906,6.052 -6.3898,6.0534 -0.71052,-0.0033 -1.4155,-0.1254 -2.086,-0.3605 -0.1457,-0.02498 -0.28521,-0.07796 -0.41059,-0.15614 -0.0033,-0.002 -0.05998,-0.03952 -0.06523,-0.04329 -0.29615,-0.21398 -0.4721,-0.55736 -0.47242,-0.92351 3.4e-5,-0.62972 0.51052,-1.1402 1.1402,-1.1402 0.18677,10e-5 0.37066,0.04605 0.5355,0.13387 l -0.002,-0.0033 c 0.43724,0.15377 0.89719,0.23308 1.3607,0.23466 2.1131,-6.73e-4 3.8872,-1.5916 4.1173,-3.6922 0.12896,0.24692 0.33421,0.43728 0.57723,0.55219 a 4.765,4.765 0 0 1 -4.6445,3.7339 4.765,4.765 0 0 1 -0.91702,-0.09059 1.4333,1.4333 0 0 1 0.01482,0.19386 1.4333,1.4333 0 0 1 -0.0033,0.06369 5.0166,5.0166 0 0 0 0.90527,0.08472 5.0166,5.0166 0 0 0 4.8832,-3.9015 c 0.09596,0.02342 0.1948,0.03797 0.29619,0.03804 0.09251,-4e-5 0.18233,-0.0136 0.27022,-0.03306 a 5.5724,5.5724 0 0 1 -5.4496,4.4525 5.5724,5.5724 0 0 1 -1.0373,-0.10049 1.4333,1.4333 0 0 1 -0.15984,0.26434 5.8667,5.8667 0 0 0 1.1971,0.13048 5.8667,5.8667 0 0 0 5.7773,-4.8692 c 0.24783,-0.13487 0.4502,-0.34935 0.56239,-0.62145 z" />
  </g>
</svg>
