<?xml version="1.0" encoding="UTF-8" standalone="no"?>
<svg
   xmlns:dc="http://purl.org/dc/elements/1.1/"
   xmlns:cc="http://creativecommons.org/ns#"
   xmlns:rdf="http://www.w3.org/1999/02/22-rdf-syntax-ns#"
   xmlns:svg="http://www.w3.org/2000/svg"
   xmlns="http://www.w3.org/2000/svg"
   xmlns:sodipodi="http://sodipodi.sourceforge.net/DTD/sodipodi-0.dtd"
   xmlns:inkscape="http://www.inkscape.org/namespaces/inkscape"
   version="1.1"
   x="0px"
   y="0px"
   viewBox="0 0 29.999998 29.999998"
   enable-background="new 0 0 100 100"
   xml:space="preserve"
   id="svg2"
   inkscape:version="0.92.0 unknown"
   sodipodi:docname="gbemu4.cibersheep_gbemu4.svg"
   width="32"
   height="32"
   inkscape:export-filename="/home/cibersheep/Ubuntu_Touch_Projects/gb-emu-4/www/images/icon256.png"
   inkscape:export-xdpi="45"
   inkscape:export-ydpi="45"><metadata
     id="metadata14"><rdf:RDF><cc:Work
         rdf:about=""><dc:format>image/svg+xml</dc:format><dc:type
           rdf:resource="http://purl.org/dc/dcmitype/StillImage" /><dc:title></dc:title></cc:Work></rdf:RDF></metadata><defs
     id="defs12" /><sodipodi:namedview
     pagecolor="#ffffff"
     bordercolor="#666666"
     borderopacity="1"
     objecttolerance="10"
     gridtolerance="10"
     guidetolerance="10"
     inkscape:pageopacity="0"
     inkscape:pageshadow="2"
     inkscape:window-width="1851"
     inkscape:window-height="1053"
     id="namedview10"
     showgrid="false"
     inkscape:zoom="9.8442522"
     inkscape:cx="-11.496956"
     inkscape:cy="17.600762"
     inkscape:window-x="69"
     inkscape:window-y="27"
     inkscape:window-maximized="1"
     inkscape:current-layer="svg2" /><rect
     style="color:#000000;clip-rule:nonzero;display:inline;overflow:visible;visibility:visible;opacity:1;isolation:auto;mix-blend-mode:normal;color-interpolation:sRGB;color-interpolation-filters:linearRGB;solid-color:#000000;solid-opacity:1;fill:#860051;fill-opacity:1;fill-rule:nonzero;stroke:none;stroke-width:0.04101562;stroke-linecap:butt;stroke-linejoin:round;stroke-miterlimit:4;stroke-dasharray:none;stroke-dashoffset:0;stroke-opacity:1;marker:none;color-rendering:auto;image-rendering:auto;shape-rendering:auto;text-rendering:auto;enable-background:accumulate"
     id="rect4142"
     width="29.999998"
     height="29.999998"
     x="-4.6325681e-08"
     y="-4.6325681e-08"
     rx="0.59776908"
     ry="0.59776908" /><path
     style="clip-rule:evenodd;fill:#160417;fill-opacity:1;fill-rule:evenodd;stroke-width:0.05859375;opacity:0.1"
     d="m 21.24523,4.97324 c -2.69938,-0.48133 -7.2318,-0.48168 -9.93154,0 -0.96795,0.22166 -1.52162,0.64531 -1.63479,1.84812 0,5.99049 0,12.65579 0,18.64661 0.11317,1.20353 0.66684,1.62648 1.63479,1.84848 2.70266,0.48133 7.22922,0.48133 9.93154,0 0.96795,-0.222 1.52137,-0.64495 1.63479,-1.84848 0,-5.99048 0,-12.65648 0,-18.64661 C 22.7666,5.61855 22.21318,5.1949 21.24523,4.97324 Z"
     id="path882" /><path
     d="m 19.96577,3.82846 c -2.69938,-0.48133 -7.2318,-0.48168 -9.93154,0 -0.96795,0.22166 -1.52162,0.64531 -1.63479,1.84812 0,5.99049 0,12.65579 0,18.64661 0.11317,1.20353 0.66684,1.62648 1.63479,1.84848 2.70266,0.48133 7.22922,0.48133 9.93154,0 0.96795,-0.222 1.52137,-0.64495 1.63479,-1.84848 0,-5.99048 0,-12.65648 0,-18.64661 C 21.48714,4.47377 20.93372,4.05012 19.96577,3.82846 Z m -6.239,16.75161 h -1.12359 v 1.12324 h -1.12324 v -1.12324 h -1.1236 v -1.1236 h 1.1236 l -0.0159,-1.14079 1.13915,0.0172 v 1.12358 h 1.12359 v 1.1236 z m 3.44519,0.67313 c -0.35806,0 -0.64907,-0.2906 -0.64907,-0.64893 0,-0.35806 0.29101,-0.64906 0.64907,-0.64906 0.35832,0 0.64934,0.291 0.64934,0.64906 0,0.35833 -0.29102,0.64893 -0.64934,0.64893 z m 1.83714,-1.29799 c -0.35793,0 -0.64895,-0.29022 -0.64895,-0.64854 0,-0.35873 0.29102,-0.64934 0.64895,-0.64934 0.35871,0 0.64932,0.29061 0.64932,0.64934 0,0.35832 -0.29061,0.64854 -0.64932,0.64854 z m 0.76557,-4.61244 H 10.22533 V 5.74024 h 9.54934 z"
     id="path4"
     style="clip-rule:evenodd;fill:#cea8d0;fill-opacity:1;fill-rule:evenodd;stroke-width:0.05859375"
     inkscape:connector-curvature="0"
     inkscape:export-filename="/home/cibersheep/Ubuntu_Touch_Projects/gb-emu-4/www/images/path4.png"
     inkscape:export-xdpi="159"
     inkscape:export-ydpi="159" /></svg>