<?xml version="1.0" encoding="UTF-8" standalone="no"?>
<svg xmlns="http://www.w3.org/2000/svg" xmlns:osb="http://www.openswatchbook.org/uri/2009/osb" height="32" width="32" version="1.0" xmlns:xlink="http://www.w3.org/1999/xlink">
 <g transform="matrix(.1138 0 0 .1138 -64.82 -29.38)">
  <path style="fill:#e3cfe8" d="m569.4 258.1h281.1v281.1h-281.1z"/>
  <g style="opacity:.1" transform="matrix(3.544 0 0 3.544 604.8 -520.1)">
   <rect style="opacity:1" ry=".7087" height="24.49" width="8.164" y="242.9" x="12.18"/>
   <rect style="opacity:1" ry=".8977" height="8.164" width="24.49" y="251.1" x="4.012"/>
   <circle style="opacity:1" cx="-146.6" transform="rotate(-42.88)" cy="217.2" r="6.301"/>
   <circle style="opacity:1" transform="rotate(-42.88)" cy="222.4" cx="-129.3" r="6.301"/>
   <rect style="opacity:1;paint-order:markers fill stroke" transform="rotate(-26.53)" ry="2.117" height="4.233" width="12.7" y="259.9" x="-109.4"/>
   <rect style="opacity:1;paint-order:markers fill stroke" transform="rotate(-26.38)" ry="2.117" height="4.233" width="12.7" y="268.1" x="-92.43"/>
  </g>
  <g transform="matrix(3.544 0 0 3.544 592.4 -532.6)">
   <rect style="stroke:#2a2a2a;stroke-linecap:round;stroke-width:1.142;fill:#343434" ry=".7087" height="24.49" width="8.164" y="242.9" x="12.18"/>
   <rect style="stroke:#2a2a2a;stroke-linecap:round;stroke-width:1.142;fill:#343434" ry=".8977" height="8.164" width="24.49" y="251.1" x="4.012"/>
   <circle style="stroke:#cf2463;stroke-linecap:round;stroke-width:1.058;fill:#b01561" transform="rotate(-42.88)" cy="217.2" cx="-146.6" r="6.301"/>
   <circle style="stroke:#cf2463;stroke-linecap:round;stroke-width:1.058;fill:#b01561" cx="-129.3" transform="rotate(-42.88)" cy="222.4" r="6.301"/>
   <rect ry="2.117" style="paint-order:markers fill stroke;stroke:#919191;stroke-linecap:round;stroke-width:1.058;fill:#a3a3a3" transform="rotate(-26.53)" height="4.233" width="12.7" y="259.9" x="-109.4"/>
   <rect ry="2.117" style="paint-order:markers fill stroke;stroke:#919191;stroke-linecap:round;stroke-width:1.058;fill:#a3a3a3" transform="rotate(-26.38)" height="4.233" width="12.7" y="268.1" x="-92.43"/>
   <rect style="fill:#343434" ry="0" height="10.53" width="7.017" y="250.1" x="12.75"/>
   <rect style="fill:#e0e0e0;paint-order:markers fill stroke" transform="rotate(-26.57)" height="25.12" width="49.01" y="285.3" x="-107.9"/>
   <rect style="fill:none" ry="16.93" height="67.73" width="67.73" y="229.3" x="0"/>
  </g>
 </g>
</svg>
