<?xml version="1.0" encoding="UTF-8" standalone="no"?>
<svg xmlns="http://www.w3.org/2000/svg" xmlns:osb="http://www.openswatchbook.org/uri/2009/osb" height="32" width="32" version="1.0" xmlns:xlink="http://www.w3.org/1999/xlink">
 <g transform="matrix(.1138 0 0 .1138 -64.82 -29.38)">
  <path style="fill:#5a5356" d="m569.4 258.1h281.1v281.1h-281.1z"/>
  <g transform="matrix(.2380 0 0 .2380 602.9 291.6)">
   <path style="fill:#ec4d68" d="m783 856.4c-229.8 41.9-229 43.6-229 43.6l88.7-77.1z"/>
   <path style="fill:#464040" d="m785.2 856.1-200.2-170.1-410.1 89.2zm110.5-706.2-370.5-149.9 46.6 156.5z"/>
   <path style="fill:#ec4d68" d="m0 154.6 897.1-4.8 2.9 557.3-724.2 68.3z"/>
   <path style="fill-opacity:.2" d="m162.7 482.9a412.1 412.1 0 0 1 69.53 -31.62l11.47-71.32 68.3 2.57-10.29 54.43a172.9 172.9 0 0 1 19.05 -1.16 77 77 0 0 1 40.37 10.47 79.05 79.05 0 0 1 29.78 29.56 117.8 117.8 0 0 1 14.19 40 142.2 142.2 0 0 1 1.34 41.74 233 233 0 0 1 -26.15 80.92l-67.44-1.26a593 593 0 0 0 22.3 -60.9 166.8 166.8 0 0 0 3.62 -34.36 75.15 75.15 0 0 0 -7.63 -33.49c-5.1-10.8-14.2-17-27.2-18.4a63.15 63.15 0 0 0 -12 0.36l-30 161.5-62-1.78 22-135.8c-13 6.31-25.65 13-37.89 20.08l-21.3-51.4m335.1-57.33-42.62 53.57q-32-35.84-66.83-68.23-33.79-30.81-66.87-62.4l39.72-46.41q29.82 23.73 58.37 48.6 39.88 36.59 78.23 74.87m6-73.81 72.73-9.69 9.6-57.75 57.16-1.69-7.97 51.29 44.68-5.77 0.52 59.31-53.52 6.78-18.46 160.7-59.66 1 18.67-152.8-55 5.56-8.9-57m198.4 42 51.72-4.48c3.83 21.26 7.57 42.63 11.39 63.89a662.7 662.7 0 0 1 84.16 9.61l-14.8 56c-20.78-5.17-41.6-9.83-62.64-13.76a270.2 270.2 0 0 1 2 36.13 61.21 61.21 0 0 1 -16.38 39.63 62.27 62.27 0 0 1 -37.2 20 87.79 87.79 0 0 1 -31.88 0.52 63.2 63.2 0 0 1 -28.77 -11.82 61.23 61.23 0 0 1 -19.93 -24.15 98.17 98.17 0 0 1 -8.57 -30.26c-1.2-14.93 2.51-28.21 11.25-39.75a93 93 0 0 1 32.6 -26.6 134.4 134.4 0 0 1 40.4 -13.1c-4.16-20.62-8.61-41.21-13.28-62m59.9-104 52.8 20.4-40.8 73.3-48.4-17.8 36.4-75.8m-36.6 244.8a315.8 315.8 0 0 0 -2.9 -33.6c-4.94 0.76-9.66 1.6-14.2 2.32a42.34 42.34 0 0 0 -13.24 4.62 19.43 19.43 0 0 0 -9.55 9.63 23.8 23.8 0 0 0 -1.61 13.24 26.08 26.08 0 0 0 6 19.21c4.57 5.71 10.52 7.74 17.88 6.2a54.89 54.89 0 0 0 9.55 -3.5 12.67 12.67 0 0 0 6.37 -7.56 38.18 38.18 0 0 0 1.51 -10.52"/>
   <path style="fill:#fef9fd" d="m147.7 468a412.1 412.1 0 0 1 69.53 -31.62l11.5-71.4 68.3 2.6-10.3 54.4a172.9 172.9 0 0 1 19.05 -1.16 77 77 0 0 1 40.37 10.47 79.05 79.05 0 0 1 29.78 29.56 117.8 117.8 0 0 1 14.19 40 142.2 142.2 0 0 1 1.34 41.74 233 233 0 0 1 -26.15 80.92l-67.44-1.26a593 593 0 0 0 22.3 -60.9 166.8 166.8 0 0 0 3.62 -34.37 75.15 75.15 0 0 0 -7.63 -33.49c-5.1-10.8-14.1-17-27.2-18.4a63.15 63.15 0 0 0 -12 0.36l-30 161.5-62-1.78 22-135.8c-13 6.31-25.65 13-37.89 20.08l-21.3-51.4m335.1-57.33-42.62 53.57q-32-35.84-66.83-68.23-33.79-30.81-66.87-62.4l39.72-46.41q29.82 23.73 58.37 48.6 39.88 36.59 78.23 74.87m6-73.81 72.73-9.69 9.6-57.75 57.16-1.69-7.96 51.27 44.66-5.74 0.52 59.31-53.52 6.78-18.43 160.7-59.66 1 18.67-152.8-55 5.56-8.9-57m198.4 42 51.72-4.48c3.83 21.26 7.57 42.63 11.39 63.89a662.7 662.7 0 0 1 84.16 9.61l-14.9 55.9c-20.78-5.17-41.6-9.83-62.64-13.76a270.2 270.2 0 0 1 2 36.13 61.21 61.21 0 0 1 -16.38 39.63 62.27 62.27 0 0 1 -37.2 20 87.79 87.79 0 0 1 -31.88 0.52 63.2 63.2 0 0 1 -28.77 -11.79 61.23 61.23 0 0 1 -19.93 -24.15 98.17 98.17 0 0 1 -8.57 -30.26c-1.2-14.93 2.51-28.21 11.25-39.75a93 93 0 0 1 32.6 -26.8 134.4 134.4 0 0 1 40.4 -13.1c-4.16-20.62-8.61-41.21-13.28-62m59.9-104 52.8 20.4-40.8 73.3-48.3-17.8 36.3-75.8m-36.6 244.8a315.8 315.8 0 0 0 -2.8 -33.6c-4.94 0.76-9.66 1.6-14.2 2.32a42.34 42.34 0 0 0 -13.24 4.62 19.43 19.43 0 0 0 -9.55 9.63 23.8 23.8 0 0 0 -1.57 13.24 26.08 26.08 0 0 0 6 19.19c4.57 5.71 10.52 7.74 17.88 6.2a54.89 54.89 0 0 0 9.55 -3.5 12.67 12.67 0 0 0 6.37 -7.56 38.18 38.18 0 0 0 1.51 -10.52"/>
  </g>
 </g>
</svg>
