<?xml version="1.0" encoding="UTF-8" standalone="no"?>
<svg
   xmlns:dc="http://purl.org/dc/elements/1.1/"
   xmlns:cc="http://creativecommons.org/ns#"
   xmlns:rdf="http://www.w3.org/1999/02/22-rdf-syntax-ns#"
   xmlns:svg="http://www.w3.org/2000/svg"
   xmlns="http://www.w3.org/2000/svg"
   id="svg2"
   version="1.0"
   width="32"
   height="32">
  <metadata
     id="metadata18">
    <rdf:RDF>
      <cc:Work
         rdf:about="">
        <dc:format>image/svg+xml</dc:format>
        <dc:type
           rdf:resource="http://purl.org/dc/dcmitype/StillImage" />
        <dc:title></dc:title>
      </cc:Work>
    </rdf:RDF>
  </metadata>
  <defs
     id="defs16" />
  <path
     id="path4"
     d="m0 0v32h32v-32z"
     style="fill:#910088;fill-opacity:1" />
  <g
     transform="translate(1.152542,1.1525424)"
     style="color:#000000;opacity:0.1;isolation:auto;mix-blend-mode:normal;solid-color:#000000;fill:#000000;fill-opacity:1;color-rendering:auto;image-rendering:auto;shape-rendering:auto"
     id="g4146">
    <path
       style="fill:#000000;fill-opacity:1"
       d="m 16.99,16.51 c 0,0 -2.84,-1.42 -4.788,-4.463 -1.55,-2.419 -1.91,-5.193 -1.91,-5.193 0,0 3.384,3.942 5.883,5.153 3.615,1.75 8.561,1.948 8.561,1.948 0,0 -2.916,-1.592 -4.463,-3.246 -1.14,-1.219 -2.191,-4.504 -2.191,-4.504 0,0 3.851,4.221 7.871,5.599 2.286971,0.784281 4.673826,0.926476 4.877237,0.883103 L 30.830508,0.0343 0.028,0.0343 c 0,0 0.061,5.863 3.814,10.14 6.375,7.271 13.15,6.329 13.15,6.329 z"
       id="path4148" />
    <path
       id="path4159"
       d="m 21.02,19.04 c -1.625,0 -2.942,1.317 -2.942,2.942 0,1.625 1.317,2.942 2.942,2.942 1.625,0 2.942,-1.317 2.942,-2.942 0,-1.625 -1.317,-2.942 -2.942,-2.942 z"
       style="fill:#000000;fill-opacity:1" />
    <path
       id="path4163"
       d="m 9.989,19.04 c -1.625,0 -2.942,1.317 -2.942,2.942 0,1.625 1.317,2.942 2.942,2.942 1.625,0 2.942,-1.317 2.942,-2.942 0,-1.625 -1.317,-2.942 -2.942,-2.942 z"
       style="fill:#000000;fill-opacity:1" />
  </g>
  <path
     d="m 16.99,16.51 c 0,0 -2.84,-1.42 -4.788,-4.463 -1.55,-2.419 -1.91,-5.193 -1.91,-5.193 0,0 3.384,3.942 5.883,5.153 3.615,1.75 8.561,1.948 8.561,1.948 0,0 -2.916,-1.592 -4.463,-3.246 -1.14,-1.219 -2.191,-4.504 -2.191,-4.504 0,0 3.851,4.221 7.871,5.599 4.062,1.393 6.005,0.7303 6.005,0.7303 l 0,-12.5 -31.93,0 c 0,0 0.061,5.863 3.814,10.14 6.375,7.271 13.15,6.329 13.15,6.329 z"
     id="path8"
     style="color:#000000;isolation:auto;mix-blend-mode:normal;solid-color:#000000;fill:#183562;fill-opacity:1;color-rendering:auto;image-rendering:auto;shape-rendering:auto" />
  <path
     id="path4171"
     d="m 21.02,19.04 c -1.625,0 -2.942,1.317 -2.942,2.942 0,1.625 1.317,2.942 2.942,2.942 1.625,0 2.942,-1.317 2.942,-2.942 0,-1.625 -1.317,-2.942 -2.942,-2.942 z"
     style="color:#000000;isolation:auto;mix-blend-mode:normal;solid-color:#000000;fill:#ffffff;fill-opacity:1;color-rendering:auto;image-rendering:auto;shape-rendering:auto" />
  <path
     id="path10"
     d="m 20.2024,20.48 c 0.6356,-5.9e-5 1.151,0.5152 1.151,1.151 -2.9e-5,0.6355 -0.5153,1.151 -1.151,1.151 -0.6355,-3e-5 -1.151,-0.5152 -1.151,-1.151 -5.8e-5,-0.6355 0.5151,-1.151 1.151,-1.151 z"
     style="color:#000000;isolation:auto;mix-blend-mode:normal;solid-color:#000000;fill:#000000;fill-opacity:1;color-rendering:auto;image-rendering:auto;shape-rendering:auto" />
  <path
     id="path4167"
     d="m 9.989,19.04 c -1.625,0 -2.942,1.317 -2.942,2.942 0,1.625 1.317,2.942 2.942,2.942 1.625,0 2.942,-1.317 2.942,-2.942 0,-1.625 -1.317,-2.942 -2.942,-2.942 z"
     style="color:#000000;isolation:auto;mix-blend-mode:normal;solid-color:#000000;fill:#ffffff;fill-opacity:1;color-rendering:auto;image-rendering:auto;shape-rendering:auto" />
  <path
     id="path12"
     d="m 9.1714,20.48 c 0.6356,-5.8e-5 1.151,0.5152 1.151,1.151 -2.9e-5,0.6355 -0.5153,1.151 -1.151,1.151 -0.6355,-2.9e-5 -1.151,-0.5152 -1.151,-1.151 -5.82e-5,-0.6355 0.5151,-1.151 1.151,-1.151 z"
     style="color:#000000;isolation:auto;mix-blend-mode:normal;solid-color:#000000;fill:#000000;fill-opacity:1;color-rendering:auto;image-rendering:auto;shape-rendering:auto" />
</svg>
