<?xml version="1.0" encoding="UTF-8" standalone="no"?>
<svg xmlns="http://www.w3.org/2000/svg" xmlns:osb="http://www.openswatchbook.org/uri/2009/osb" height="32" width="32" version="1.0" xmlns:xlink="http://www.w3.org/1999/xlink">
 <g transform="matrix(.1138 0 0 .1138 -64.82 -29.38)">
  <path style="fill:#cbd0d9" d="m569.4 258.1h281.1v281.1h-281.1z"/>
  <g style="opacity:.1" transform="translate(15.14 15.78)">
   <path style="opacity:1;color-rendering:auto;color:#000000;isolation:auto;mix-blend-mode:normal;shape-rendering:auto;solid-color:#000000;image-rendering:auto" d="m654.5 303.4a58.83 58.83 0 0 0 -58.83 58.83 58.83 58.83 0 0 0 58.83 58.83 58.83 58.83 0 0 0 58.83 -58.83 58.83 58.83 0 0 0 -58.83 -58.83zm0 24.61a34.23 34.23 0 0 1 34.23 34.22 34.23 34.23 0 0 1 -34.23 34.23 34.23 34.23 0 0 1 -34.23 -34.23 34.23 34.23 0 0 1 34.23 -34.22z"/>
   <path style="opacity:1;color-rendering:auto;color:#000000;isolation:auto;mix-blend-mode:normal;shape-rendering:auto;solid-color:#000000;image-rendering:auto" d="m765.5 366.3a63.8 63.8 0 0 0 -63.8 63.8 63.8 63.8 0 0 0 63.8 63.8 63.8 63.8 0 0 0 63.8 -63.8 63.8 63.8 0 0 0 -63.8 -63.8zm0 26.68a37.12 37.12 0 0 1 37.12 37.11 37.12 37.12 0 0 1 -37.12 37.12 37.12 37.12 0 0 1 -37.12 -37.12 37.12 37.12 0 0 1 37.12 -37.11z"/>
   <path style="opacity:1;color-rendering:auto;color:#000000;isolation:auto;mix-blend-mode:normal;shape-rendering:auto;solid-color:#000000;image-rendering:auto" d="m665.4 423.7a30.2 30.2 0 0 0 -30.2 30.2 30.2 30.2 0 0 0 30.2 30.2 30.2 30.2 0 0 0 30.2 -30.2 30.2 30.2 0 0 0 -30.2 -30.2zm0 17.35a12.86 12.86 0 0 1 12.86 12.86 12.86 12.86 0 0 1 -12.86 12.86 12.86 12.86 0 0 1 -12.86 -12.86 12.86 12.86 0 0 1 12.86 -12.86z"/>
  </g>
  <path d="m654.5 303.4a58.83 58.83 0 0 0 -58.83 58.83 58.83 58.83 0 0 0 58.83 58.83 58.83 58.83 0 0 0 58.83 -58.83 58.83 58.83 0 0 0 -58.83 -58.83zm0 24.61a34.23 34.23 0 0 1 34.23 34.22 34.23 34.23 0 0 1 -34.23 34.23 34.23 34.23 0 0 1 -34.23 -34.23 34.23 34.23 0 0 1 34.23 -34.22z" style="color-rendering:auto;color:#000000;isolation:auto;mix-blend-mode:normal;shape-rendering:auto;solid-color:#000000;image-rendering:auto;fill:#009aec"/>
  <path style="color-rendering:auto;color:#000000;isolation:auto;mix-blend-mode:normal;shape-rendering:auto;solid-color:#000000;image-rendering:auto;fill:#009aec" d="m765.5 366.3a63.8 63.8 0 0 0 -63.8 63.8 63.8 63.8 0 0 0 63.8 63.8 63.8 63.8 0 0 0 63.8 -63.8 63.8 63.8 0 0 0 -63.8 -63.8zm0 26.68a37.12 37.12 0 0 1 37.12 37.11 37.12 37.12 0 0 1 -37.12 37.12 37.12 37.12 0 0 1 -37.12 -37.12 37.12 37.12 0 0 1 37.12 -37.11z"/>
  <path d="m665.4 423.7a30.2 30.2 0 0 0 -30.2 30.2 30.2 30.2 0 0 0 30.2 30.2 30.2 30.2 0 0 0 30.2 -30.2 30.2 30.2 0 0 0 -30.2 -30.2zm0 17.35a12.86 12.86 0 0 1 12.86 12.86 12.86 12.86 0 0 1 -12.86 12.86 12.86 12.86 0 0 1 -12.86 -12.86 12.86 12.86 0 0 1 12.86 -12.86z" style="color-rendering:auto;color:#000000;isolation:auto;mix-blend-mode:normal;shape-rendering:auto;solid-color:#000000;image-rendering:auto;fill:#009aec"/>
 </g>
</svg>
