<?xml version="1.0" encoding="UTF-8" standalone="no"?>
<svg
   xmlns:dc="http://purl.org/dc/elements/1.1/"
   xmlns:cc="http://creativecommons.org/ns#"
   xmlns:rdf="http://www.w3.org/1999/02/22-rdf-syntax-ns#"
   xmlns:svg="http://www.w3.org/2000/svg"
   xmlns="http://www.w3.org/2000/svg"
   version="1.0"
   width="32"
   height="32"
   id="svg2817">
  <metadata
     id="metadata11">
    <rdf:RDF>
      <cc:Work
         rdf:about="">
        <dc:format>image/svg+xml</dc:format>
        <dc:type
           rdf:resource="http://purl.org/dc/dcmitype/StillImage" />
        <dc:title></dc:title>
      </cc:Work>
    </rdf:RDF>
  </metadata>
  <defs
     id="defs9">
    <linearGradient
       id="linearGradient3888"
       x1="1"
       x2="47"
       gradientUnits="userSpaceOnUse">
      <stop
         style="stop-color:#d64937;stop-opacity:1"
         id="stop4144" />
      <stop
         offset="1"
         style="stop-color:#d95747;stop-opacity:1"
         id="stop4146" />
    </linearGradient>
  </defs>
  <path
     id="path3"
     d="m0 0v32h32v-32z"
     style="color:#000000;fill:#d74e3c;fill-opacity:1" />
  <g
     transform="matrix(0.76030279,0,0,0.76030279,-2.0521453,-2.247267)"
     id="g4177">
    <path
       d="m 25,13 c -6.05,0 -10,4.383 -10,10 l 0,12 c -0.007,0.471 0.516,1 1,1 0.484,0 1.01,-0.529 1,-1 l 0,-12 c 0,-4.596 2.876,-8 8,-8 5.124,0 8,3.435 8,8.03 l 0,11.969 c -0.007,0.471 0.516,1 1,1 0.484,0 1.01,-0.529 1,-1 l 0,-12 c 0,-5.617 -3.952,-10 -10,-10 z m -9,0.906 c -0.48,0.006 -1.01,0.466 -1,0.875 l 0,3.344 c 0.458,-0.959 1.258,-2.258 2,-3.03 l 0,-0.313 C 17.008,14.365 16.49,13.9 16,13.907 Z"
       style="color:#000000;opacity:0.1;fill:#000000;fill-opacity:1"
       id="path4164" />
    <path
       d="m 15,12.892 c -0.48,0.006 -1.01,0.484 -1,0.892 l 0,3.347 c 0.458,-0.959 1.258,-2.256 2,-3.03 l 0,-0.326 c 0.008,-0.417 -0.51,-0.89 -1,-0.883 z"
       style="color:#000000;fill:#f9f9f9"
       id="path4166" />
    <path
       d="m 24,12 c -6.05,0 -10,4.383 -10,10 l 0,12 c -0.007,0.471 0.516,1 1,1 0.484,0 1.01,-0.529 1,-1 l 0,-12 c 0,-4.596 2.876,-8 8,-8 5.124,0 8,3.432 8,8.03 l 0,11.972 c -0.007,0.471 0.516,1 1,1 0.484,0 1.01,-0.529 1,-1 l 0,-12 c 0,-5.617 -3.952,-10 -10,-10 z"
       style="color:#000000;fill:#f9f9f9;stroke:none"
       id="path4168" />
  </g>
</svg>
