<?xml version="1.0" encoding="UTF-8" standalone="no"?>
<svg xmlns:rdf="http://www.w3.org/1999/02/22-rdf-syntax-ns#" xmlns="http://www.w3.org/2000/svg" xmlns:osb="http://www.openswatchbook.org/uri/2009/osb" height="32" width="32" version="1.0" xmlns:cc="http://creativecommons.org/ns#" xmlns:xlink="http://www.w3.org/1999/xlink" xmlns:dc="http://purl.org/dc/elements/1.1/">
 <path style="color:#000000;fill:#0072b2" d="m0 0v32h32v-32z"/>
 <g style="opacity:.1" transform="matrix(.2543 0 0 .2543 4.78 4.44)">
  <path style="color-rendering:auto;text-decoration-color:#000000;color:#000000;isolation:auto;mix-blend-mode:normal;shape-rendering:auto;solid-color:#000000;block-progression:tb;text-decoration-line:none;image-rendering:auto;white-space:normal;text-indent:0;text-transform:none;text-decoration-style:solid" d="m19.98 4.004c-5.04 0.068-8.72-0.139-11.73 1.785-1.504 0.961-2.695 2.588-3.354 4.621-0.658 2.03-0.896 4.44-0.896 7.49v60.21c0 3.046 0.2378 5.456 0.8965 7.487 0.6587 2.032 1.85 3.658 3.356 4.62 3.011 1.924 6.692 1.719 11.72 1.787h0.01172 56.02 0.01172c5.033-0.06739 8.714 0.137 11.72-1.787 1.506-0.9617 2.697-2.588 3.356-4.62 0.6587-2.032 0.8965-4.442 0.8965-7.487v-60.21c0-3.046-0.2378-5.458-0.8965-7.49-0.66-2.037-1.851-3.662-3.356-4.624-3-1.939-6.68-1.733-11.72-1.8h-0.01-56.02-0.01zm0.02344 4.631h56c5.038 0.06805 8.352 0.2743 9.816 1.21 0.7336 0.4687 1.153 0.9876 1.543 2.191 0.3902 1.204 0.6406 3.118 0.6406 5.862v60.21c0 2.744-0.2504 4.658-0.6406 5.862s-0.8093 1.723-1.543 2.191c-1.464 0.9356-4.778 1.142-9.816 1.21h-55.98-0.02344c-5.038-0.06808-8.352-0.2743-9.816-1.21-0.73-0.47-1.147-0.99-1.537-2.19-0.391-1.21-0.643-3.12-0.643-5.86v-60.21c0-2.744 0.2523-4.658 0.6426-5.862 0.3902-1.204 0.8074-1.723 1.541-2.191 1.464-0.9356 4.778-1.142 9.816-1.21z"/>
  <path d="m4 71.28 34.06-23.92 2 3.079l-36.06 29.56v-8.717z"/>
  <circle style="color:#000000" cx="-48" transform="matrix(0,-1,-1,0,0,0)" cy="-48" r="18"/>
  <circle style="color:#000000" cx="-22" transform="matrix(0,-1,-1,0,0,0)" cy="-74" r="6"/>
  <path style="color-rendering:auto;text-decoration-color:#000000;color:#000000;isolation:auto;mix-blend-mode:normal;shape-rendering:auto;solid-color:#000000;block-progression:tb;text-decoration-line:none;image-rendering:auto;white-space:normal;text-indent:0;text-transform:none;text-decoration-style:solid" d="m16 8v16h4v-16h-4z"/>
  <path style="color-rendering:auto;text-decoration-color:#000000;color:#000000;isolation:auto;mix-blend-mode:normal;shape-rendering:auto;solid-color:#000000;block-progression:tb;text-decoration-line:none;image-rendering:auto;white-space:normal;text-indent:0;text-transform:none;text-decoration-style:solid" d="m22 8v16h4v-16h-4z"/>
  <path style="color-rendering:auto;text-decoration-color:#000000;color:#000000;isolation:auto;mix-blend-mode:normal;shape-rendering:auto;solid-color:#000000;block-progression:tb;text-decoration-line:none;image-rendering:auto;white-space:normal;text-indent:0;text-transform:none;text-decoration-style:solid" d="m28 8v16h4v-16h-4z"/>
 </g>
 <g style="fill:#f7f7f7" transform="matrix(.2543 0 0 .2543 4.099 3.796)">
  <path style="color-rendering:auto;text-decoration-color:#000000;color:#000000;isolation:auto;mix-blend-mode:normal;shape-rendering:auto;solid-color:#000000;block-progression:tb;text-decoration-line:none;image-rendering:auto;white-space:normal;text-indent:0;text-transform:none;text-decoration-style:solid;fill:#f7f7f7" d="m19.98 4.004c-5.04 0.068-8.72-0.139-11.73 1.785-1.504 0.961-2.695 2.588-3.354 4.621-0.658 2.03-0.896 4.44-0.896 7.49v60.21c0 3.046 0.2378 5.456 0.8965 7.487 0.6587 2.032 1.85 3.658 3.356 4.62 3.011 1.924 6.692 1.719 11.72 1.787h0.01172 56.02 0.01172c5.033-0.06739 8.714 0.137 11.72-1.787 1.506-0.9617 2.697-2.588 3.356-4.62 0.6587-2.032 0.8965-4.442 0.8965-7.487v-60.21c0-3.046-0.2378-5.458-0.8965-7.49-0.66-2.037-1.851-3.662-3.356-4.624-3-1.939-6.68-1.733-11.72-1.8h-0.01-56.02-0.01zm0.02344 4.631h56c5.038 0.06805 8.352 0.2743 9.816 1.21 0.7336 0.4687 1.153 0.9876 1.543 2.191 0.3902 1.204 0.6406 3.118 0.6406 5.862v60.21c0 2.744-0.2504 4.658-0.6406 5.862s-0.8093 1.723-1.543 2.191c-1.464 0.9356-4.778 1.142-9.816 1.21h-55.98-0.02344c-5.038-0.06808-8.352-0.2743-9.816-1.21-0.73-0.47-1.147-0.99-1.537-2.19-0.391-1.21-0.643-3.12-0.643-5.86v-60.21c0-2.744 0.2523-4.658 0.6426-5.862 0.3902-1.204 0.8074-1.723 1.541-2.191 1.464-0.9356 4.778-1.142 9.816-1.21z"/>
  <path style="fill:#f7f7f7" d="m4 71.28 34.06-23.92 2 3.079l-36.06 29.56v-8.717z"/>
  <circle style="color:#000000;fill:#f7f7f7" transform="matrix(0,-1,-1,0,0,0)" cy="-48" cx="-48" r="18"/>
  <circle style="color:#000000;fill:#f7f7f7" transform="matrix(0,-1,-1,0,0,0)" cy="-74" cx="-22" r="6"/>
  <path style="color-rendering:auto;text-decoration-color:#000000;color:#000000;isolation:auto;mix-blend-mode:normal;shape-rendering:auto;solid-color:#000000;block-progression:tb;text-decoration-line:none;image-rendering:auto;white-space:normal;text-indent:0;text-transform:none;text-decoration-style:solid;fill:#f7f7f7" d="m16 8v16h4v-16h-4z"/>
  <path style="color-rendering:auto;text-decoration-color:#000000;color:#000000;isolation:auto;mix-blend-mode:normal;shape-rendering:auto;solid-color:#000000;block-progression:tb;text-decoration-line:none;image-rendering:auto;white-space:normal;text-indent:0;text-transform:none;text-decoration-style:solid;fill:#f7f7f7" d="m22 8v16h4v-16h-4z"/>
  <path style="color-rendering:auto;text-decoration-color:#000000;color:#000000;isolation:auto;mix-blend-mode:normal;shape-rendering:auto;solid-color:#000000;block-progression:tb;text-decoration-line:none;image-rendering:auto;white-space:normal;text-indent:0;text-transform:none;text-decoration-style:solid;fill:#f7f7f7" d="m28 8v16h4v-16h-4z"/>
 </g>
</svg>
