<?xml version="1.0" encoding="UTF-8" standalone="no"?>
<svg xmlns:rdf="http://www.w3.org/1999/02/22-rdf-syntax-ns#" xmlns="http://www.w3.org/2000/svg" xmlns:osb="http://www.openswatchbook.org/uri/2009/osb" height="32" width="32" version="1.0" xmlns:cc="http://creativecommons.org/ns#" xmlns:xlink="http://www.w3.org/1999/xlink" xmlns:dc="http://purl.org/dc/elements/1.1/">
 <defs>
  <linearGradient id="a" gradientUnits="userSpaceOnUse" x2="47" x1="1" gradientTransform="matrix(0 -1 1 0 -.0000015 48)">
   <stop style="stop-color:#785048" offset="0"/>
   <stop style="stop-color:#845950" offset="1"/>
  </linearGradient>
 </defs>
 <path style="color:#000000;fill:#434343" d="m0 0v32h32v-32z"/>
 <g transform="matrix(.4658 0 0 .4658 4.947 4.875)">
  <path style="opacity:.05" d="m36.31 5c5.859 4.062 9.688 10.83 9.688 18.5 0 12.43-10.07 22.5-22.5 22.5-7.669 0-14.44-3.828-18.5-9.688 1.037 1.822 2.306 3.499 3.781 4.969 4.085 3.712 9.514 5.969 15.47 5.969 12.7 0 23-10.3 23-23 0-5.954-2.256-11.38-5.969-15.47-1.47-1.474-3.15-2.743-4.97-3.78zm4.969 3.781c3.854 4.113 6.219 9.637 6.219 15.72 0 12.7-10.3 23-23 23-6.081 0-11.61-2.364-15.72-6.219 4.16 4.144 9.883 6.719 16.22 6.719 12.7 0 23-10.3 23-23 0-6.335-2.575-12.06-6.719-16.22z"/>
  <path style="opacity:.1" d="m41.28 8.781c3.712 4.085 5.969 9.514 5.969 15.47 0 12.7-10.3 23-23 23-5.954 0-11.38-2.256-15.47-5.969 4.113 3.854 9.637 6.219 15.72 6.219 12.7 0 23-10.3 23-23 0-6.081-2.364-11.61-6.219-15.72z"/>
  <path style="opacity:.2" d="m31.25 2.375c8.61 3.154 14.75 11.42 14.75 21.12 0 12.43-10.07 22.5-22.5 22.5-9.708 0-17.97-6.135-21.12-14.75a23 23 0 0 0 44.88 -7 23 23 0 0 0 -16 -21.88z"/>
  <path style="fill:url(#a)" d="m24 1c12.7 0 23 10.3 23 23-22 14-22 14-46 0 0-12.7 10.3-23 23-23z"/>
  <path style="opacity:.1" d="m14 3.283c-1.42 0.687-2.76 1.52-4 2.473v19.24h4v-21.72z"/>
  <path style="fill:#4c9cff" d="m13 3.797c-0.339 0.185-0.672 0.379-1 0.58v19.62h1v-20.2z"/>
  <path style="fill:#7de5a8" d="m12 4.377c-0.339 0.208-0.672 0.426-1 0.65v18.97h1v-19.62z"/>
  <path style="fill:#ffd468" d="m11 5.03c-0.34 0.234-0.673 0.477-1 0.729v18.24h1v-18.97z"/>
  <path style="fill:#ff2f6e" d="m10 5.756c-0.341 0.262-0.674 0.536-1 0.816v17.43h1v-18.24z"/>
  <path style="opacity:.1" d="m35 25c0 5.523-4.477 10-10 10s-10-4.477-10-10 4.477-10 10-10 10 4.477 10 10"/>
  <path style="opacity:.1" d="m31.89 10h4.227c0.488 0 0.887 0.398 0.887 0.887v4.227c0 0.488-0.398 0.887-0.887 0.887h-4.227c-0.49-0.01-0.89-0.41-0.89-0.9v-4.227c0-0.48 0.4-0.88 0.89-0.88"/>
  <path style="fill:#dbc1ab" d="m1 24c0 12.7 10.3 23 23 23s23-10.3 23-23h-46z"/>
  <path style="fill:#e5d6c8" d="m34 24c0 5.523-4.477 10-10 10s-10-4.477-10-10 4.477-10 10-10 10 4.477 10 10"/>
  <path style="fill:#5b5b5b" d="m32 24c0 4.418-3.582 8-8 8s-8-3.582-8-8 3.582-8 8-8 8 3.582 8 8"/>
  <path style="fill:#84b295" d="m30 24c0 3.313-2.688 6-6 6-3.313 0-6-2.688-6-6 0-3.313 2.688-6 6-6 3.313 0 6 2.688 6 6"/>
  <path style="fill:#3c3c3c" d="m27 24c0 1.656-1.344 3-3 3s-3-1.344-3-3 1.344-3 3-3 3 1.344 3 3"/>
  <path style="fill-opacity:.3020;fill:#fff" d="m28 21c0 0.551-0.449 1-1 1s-1-0.449-1-1 0.449-1 1-1 1 0.449 1 1"/>
  <path style="fill-opacity:.3020;fill:#fff" d="m22 25c0 0.551-0.445 1-1 1-0.551 0-1-0.449-1-1s0.449-1 1-1c0.555 0 1 0.449 1 1"/>
  <path style="fill:#2f353d" d="m30.89 9h4.227c0.488 0 0.887 0.398 0.887 0.887v4.227c0 0.488-0.398 0.887-0.887 0.887h-4.227c-0.49 0-0.89-0.4-0.89-0.89v-4.223c0-0.488 0.4-0.887 0.89-0.887"/>
  <path style="fill:#282828" d="m35 12c0 1.105-0.895 2-2 2s-2-0.895-2-2 0.895-2 2-2 2 0.895 2 2"/>
  <path style="opacity:.1" d="m40.03 7.531c3.712 4.084 5.969 9.514 5.969 15.47 0 12.7-10.3 23-23 23-5.96 0-11.38-2.26-15.47-5.97 4.18 4.29 10.01 6.97 16.47 6.97 12.7 0 23-10.3 23-23 0-6.462-2.677-12.29-6.969-16.47z"/>
  <g transform="translate(1,1)"></g>
 </g>
</svg>
