<?xml version="1.0" encoding="UTF-8" standalone="no"?>
<svg
   xmlns:dc="http://purl.org/dc/elements/1.1/"
   xmlns:cc="http://creativecommons.org/ns#"
   xmlns:rdf="http://www.w3.org/1999/02/22-rdf-syntax-ns#"
   xmlns:svg="http://www.w3.org/2000/svg"
   xmlns="http://www.w3.org/2000/svg"
   id="svg2"
   version="1.0"
   width="32"
   height="32">
  <metadata
     id="metadata14">
    <rdf:RDF>
      <cc:Work
         rdf:about="">
        <dc:format>image/svg+xml</dc:format>
        <dc:type
           rdf:resource="http://purl.org/dc/dcmitype/StillImage" />
        <dc:title></dc:title>
      </cc:Work>
    </rdf:RDF>
  </metadata>
  <defs
     id="defs12" />
  <path
     id="path4"
     d="m0 0v32h32v-32z"
     style="fill:#f8f8f8;fill-opacity:1" />
  <path
     style="color:#000000;isolation:auto;mix-blend-mode:normal;solid-color:#000000;fill:#000000;fill-opacity:1;color-rendering:auto;image-rendering:auto;shape-rendering:auto;opacity:0.1"
     d="m 18.522549,25.882549 c -1.478,-0.5466 -1.909,-2.094 -1.848,-3.51 0.02309,-1.224 -1.978,-2.31 -2.556,-0.97 0.0231,1.324 -0.8699,2.525 -2.317,2.109 -1.085003,-0.07698 -2.4400068,-1.247 -2.0090068,-2.417 0.5543018,-1.309 2.4870068,-0.816 2.9870068,-2.156 0.4234,-1.039 0.05389,-2.494 -1.147,-2.794 -1.432006,-0.1925 -2.7330068,-1.494 -2.5020068,-3.01 0.2463,-1.863 3.0560068,-2.479003 4.1030068,-0.9315 0.8314,0.8699 0.6159,2.179 1.132,3.164 1.278,0.7236 2.502,-0.639 2.556,-1.886 0.1694,-1.609 0.5004,-3.403006 1.963,-4.3570068 1.655,-1.416 4.604,-1.47 5.858,0.5004 1.047,1.6700068 0.1694,3.9340068 -1.486,4.8420068 -1.486,1.062 -3.695,0.8468 -4.834,2.417 -0.5158,1.101 -0.7082,2.848 0.485,3.603 1.363,0.8853 3.31,1.093 4.165,2.633 0.4003,3.018 -2.317,3.534 -4.55,2.764 z"
     id="path4142" />
  <path
     id="path8"
     d="m17.37 24.73c-1.478-0.5466-1.909-2.094-1.848-3.51 0.02309-1.224-1.978-2.31-2.556-0.97 0.0231 1.324-0.8699 2.525-2.317 2.109-1.085-0.07698-2.44-1.247-2.009-2.417 0.5543-1.309 2.487-0.816 2.987-2.156 0.4234-1.039 0.05389-2.494-1.147-2.794-1.432-0.1925-2.733-1.494-2.502-3.01 0.2463-1.863 3.056-2.479 4.103-0.9315 0.8314 0.8699 0.6159 2.179 1.132 3.164 1.278 0.7236 2.502-0.639 2.556-1.886 0.1694-1.609 0.5004-3.403 1.963-4.357 1.655-1.416 4.604-1.47 5.858 0.5004 1.047 1.67 0.1694 3.934-1.486 4.842-1.486 1.062-3.695 0.8468-4.834 2.417-0.5158 1.101-0.7082 2.848 0.485 3.603 1.363 0.8853 3.31 1.093 4.165 2.633 0.4003 3.018-2.317 3.534-4.55 2.764z"
     style="color-rendering:auto;color:#000000;isolation:auto;mix-blend-mode:normal;shape-rendering:auto;solid-color:#000000;image-rendering:auto;fill:#000000;fill-opacity:1" />
</svg>
