<?xml version="1.0" encoding="UTF-8" standalone="no"?>
<svg xmlns="http://www.w3.org/2000/svg" xmlns:osb="http://www.openswatchbook.org/uri/2009/osb" height="32" width="32" version="1.0" xmlns:xlink="http://www.w3.org/1999/xlink">
 <path style="color:#000000;fill:#e2e2e2" d="m0 0v32h32v-32z"/>
 <g style="opacity:.1" transform="matrix(.12 0 0 .12 -34 -39)">
  <path d="m3e2 6.1e2l1e2 -1.3e2 -1e2 -1.4e2h67l83 1.1e2 -1.3e2 1.6e2zm1.2e2 -1.1e2 1.2e2 -1.6e2h24l-1e2 1.3e2 1e2 1.4e2h-67l-84-1.1e2z"/>
 </g>
 <g transform="matrix(.12 0 0 .12 -35 -40)">
  <path d="m3e2 6.1e2l1e2 -1.3e2 -1e2 -1.4e2h67l83 1.1e2 -1.3e2 1.6e2zm1.2e2 -1.1e2 1.2e2 -1.6e2h24l-1e2 1.3e2 1e2 1.4e2h-67l-84-1.1e2z"/>
 </g>
</svg>
