<?xml version="1.0" encoding="UTF-8" standalone="no"?>
<svg xmlns:rdf="http://www.w3.org/1999/02/22-rdf-syntax-ns#" xmlns="http://www.w3.org/2000/svg" xmlns:osb="http://www.openswatchbook.org/uri/2009/osb" height="32" width="32" version="1.0" xmlns:cc="http://creativecommons.org/ns#" xmlns:xlink="http://www.w3.org/1999/xlink" xmlns:dc="http://purl.org/dc/elements/1.1/">
 <path style="color:#000000;fill:#ee4f4e" d="m0 0v32h32v-32z"/>
 <g transform="matrix(.09620 0 0 .09620 -39.05 11.42)">
  <g transform="matrix(8.631 0 0 8.631 366 -160.1)">
   <g transform="translate(1,1)">
    <g style="opacity:.1">
     <path d="m12 13c-0.551 0-0.996 0.445-0.996 1v20c0 0.555 0.445 1 0.996 1h24c0.555 0 1-0.445 1-1v-20c0-0.555-0.445-1-1-1m-22 3h4v4h-4m16-4h4v4h-4m-16 1.996h4v4h-4m16-4h4v4h-4m-16 2h4v4h-4m16-4h4v4h-4m0-4"/>
    </g>
   </g>
   <path style="fill:#f9f9f9" d="m12 13c-0.551 0-0.996 0.445-0.996 1v20c0 0.555 0.445 1 0.996 1h24c0.555 0 1-0.445 1-1v-20c0-0.555-0.445-1-1-1m-22 3h4v4h-4m16-4h4v4h-4m-16 1.996h4v4h-4m16-4h4v4h-4m-16 2h4v4h-4m16-4h4v4h-4m0-4"/>
  </g>
 </g>
</svg>
