<?xml version="1.0" encoding="UTF-8" standalone="no"?>
<svg
   xmlns:dc="http://purl.org/dc/elements/1.1/"
   xmlns:cc="http://creativecommons.org/ns#"
   xmlns:rdf="http://www.w3.org/1999/02/22-rdf-syntax-ns#"
   xmlns:svg="http://www.w3.org/2000/svg"
   xmlns="http://www.w3.org/2000/svg"
   xmlns:sodipodi="http://sodipodi.sourceforge.net/DTD/sodipodi-0.dtd"
   xmlns:inkscape="http://www.inkscape.org/namespaces/inkscape"
   id="svg2817"
   height="32"
   width="32"
   version="1.0"
   inkscape:version="0.91 r"
   sodipodi:docname="messenger.vocoderism_messenger.svg">
  <metadata
     id="metadata13">
    <rdf:RDF>
      <cc:Work
         rdf:about="">
        <dc:format>image/svg+xml</dc:format>
        <dc:type
           rdf:resource="http://purl.org/dc/dcmitype/StillImage" />
        <dc:title></dc:title>
      </cc:Work>
    </rdf:RDF>
  </metadata>
  <defs
     id="defs11" />
  <sodipodi:namedview
     pagecolor="#ffffff"
     bordercolor="#666666"
     borderopacity="1"
     objecttolerance="10"
     gridtolerance="10"
     guidetolerance="10"
     inkscape:pageopacity="0"
     inkscape:pageshadow="2"
     inkscape:window-width="972"
     inkscape:window-height="480"
     id="namedview9"
     showgrid="false"
     inkscape:zoom="7.375"
     inkscape:cx="16"
     inkscape:cy="16"
     inkscape:window-x="80"
     inkscape:window-y="38"
     inkscape:window-maximized="0"
     inkscape:current-layer="svg2817" />
  <path
     style="color:#000000;fill:#006dff;fill-opacity:1"
     d="m0 0v32h32v-32z"
     id="path3" />
  <g
     id="g5">
    <path
       id="path4980"
       style="color:#000000;"
       d="m14.248 12.284a0.077437 0.077437 0 0 0 -0.05686 0.02662l-5.1856 5.988a0.077437 0.077437 0 0 0 0.097996 0.11614l5.0849-3.0742 3.2484 3.1153a0.077437 0.077437 0 0 0 0.1101 -0.0012l5.4418-5.5616a0.077437 0.077437 0 0 0 -0.09074 -0.1234l-5.3741 2.687-3.2206-3.1504a0.077437 0.077437 0 0 0 -0.05565 -0.02299z"
       fill="#fff" />
    <path
       id="path4926"
       style="color-rendering:auto;color:#000000;isolation:auto;mix-blend-mode:normal;shape-rendering:auto;solid-color:#000000;image-rendering:auto"
       d="m15.999 5.4405c-5.781 0-10.467 4.3719-10.467 9.7658 0 3.0542 1.5031 5.7814 3.8562 7.5721v3.7577l3.5123-1.9982c0.97926 0.28225 2.0199 0.4355 3.0984 0.4355 5.7814 0 10.468-4.3736 10.468-9.7671 0-5.3939-4.6869-9.7658-10.468-9.7658zm0 0.94516c5.2633 0 9.5298 3.9816 9.5298 8.8921 0 4.9102-4.2666 8.8907-9.5298 8.8907-0.98186 0-1.9291-0.1381-2.8207-0.39505l-3.1982 1.8175v-3.4206c-2.1415-1.631-3.5089-4.113-3.5089-6.893 0-4.9105 4.2655-8.8921 9.5285-8.8921z"
       fill="#fff" />
  </g>
</svg>
