<?xml version="1.0" encoding="UTF-8" standalone="no"?>
<svg
   xmlns:dc="http://purl.org/dc/elements/1.1/"
   xmlns:cc="http://creativecommons.org/ns#"
   xmlns:rdf="http://www.w3.org/1999/02/22-rdf-syntax-ns#"
   xmlns:svg="http://www.w3.org/2000/svg"
   xmlns="http://www.w3.org/2000/svg"
   id="svg2"
   version="1.0"
   width="32"
   height="32">
  <metadata
     id="metadata20">
    <rdf:RDF>
      <cc:Work
         rdf:about="">
        <dc:format>image/svg+xml</dc:format>
        <dc:type
           rdf:resource="http://purl.org/dc/dcmitype/StillImage" />
        <dc:title></dc:title>
      </cc:Work>
    </rdf:RDF>
  </metadata>
  <defs
     id="defs18" />
  <path
     id="path4"
     d="m0 0v32h32v-32z"
     style="color:#000000;fill:#62ae98;fill-opacity:1" />
  <g
     id="g6"
     style="fill-opacity:0.52569997;fill:#ff044a;fill-rule:evenodd">
    <path
       style="fill:#ff044a;fill-opacity:0.52569997"
       id="path8"
       d="m15.9 14.87 4.438 17.15-20.34-0.02693 0.00065-3.75z" />
    <path
       style="fill:#ff044a;fill-opacity:0.52569997"
       id="path10"
       d="m0 8.34 15.9 6.53-3.812-14.88-12.09 0.0071z" />
    <path
       style="fill:#ff044a;fill-opacity:0.52569997"
       id="path12"
       d="m15.9 14.87 16.1-12.69v19.12l-16.1-6.43" />
  </g>
  <path
     style="fill:#000000;fill-rule:evenodd;enable-background:new;fill-opacity:1;opacity:0.1"
     d="m 21.400346,4.5935422 c -3.098,-0.05182 -4.727,3.287 -4.727,3.287 0,0 -4.242,-4.021 -8.7500072,0.1328 -2.268,2.0970008 -0.569,7.5190068 -0.569,7.5190068 0,0 -2.783,2.165 -2.076,4.596 0.683,2.348 3.668,2.695 3.668,2.695 0,0 -0.0892,3.314 2.5620072,4.021 4.364,1.164 6.232,-2.783 6.232,-2.783 0,0 0.7512,1.766 3.668,0.9707 2.917,-0.7955 1.723,-4.33 1.723,-4.33 0,0 5.481,2.341 7.293,-1.238 3.06,-6.05 -4.02,-7.56 -4.02,-7.56 0,0 1.459,-3.7110068 -1.414,-5.8770068 -1.353,-1.02 -2.549,-1.414 -3.582,-1.432 z"
     id="path4197" />
  <path
     id="path4152"
     d="m 20.18,3.441 c -3.098,-0.05182 -4.727,3.287 -4.727,3.287 0,0 -4.242,-4.021 -8.75,0.1328 -2.268,2.097 -0.569,7.519 -0.569,7.519 0,0 -2.783,2.165 -2.076,4.596 0.683,2.348 3.668,2.695 3.668,2.695 0,0 -0.0892,3.314 2.562,4.021 4.364,1.164 6.232,-2.783 6.232,-2.783 0,0 0.7512,1.766 3.668,0.9707 2.917,-0.7955 1.723,-4.33 1.723,-4.33 0,0 5.481,2.341 7.293,-1.238 3.06,-6.05 -4.02,-7.56 -4.02,-7.56 0,0 1.459,-3.711 -1.414,-5.877 -1.353,-1.02 -2.549,-1.414 -3.582,-1.432 z"
     style="enable-background:new;fill:#fff;fill-rule:evenodd" />
  <path
     style="opacity:0.1;fill:#000000;fill-opacity:1;fill-rule:evenodd;enable-background:new"
     d="m 17.312376,7.4213728 c 0.5039,-0.03328 0.9526,0.1012 1.348,0.4023 0.5256,0.3974 0.9128,1.06 1.162,1.9900004 l 1.119,4.1740028 -1.143,0.3066 -1.109,-4.137002 c -0.18,-0.6620008 -0.43,-1.1220012 -0.75,-1.3810012 -0.32,-0.258 -0.72,-0.324 -1.2,-0.195 -0.59,0.158 -1,0.478 -1.24,0.961 -0.2369,0.4826002 -0.2649,1.0610032 -0.084,1.7360032 l 1.047,3.908 -1.143,0.3066 -1.107,-4.137 c -0.19,-0.67 -0.44,-1.132002 -0.76,-1.3860036 -0.32,-0.2589994 -0.72,-0.323 -1.21,-0.1919998 -0.5804,0.1554998 -0.9869,0.4762014 -1.223,0.9629034 -0.2369,0.4826 -0.2657,1.06 -0.0859,1.73 l 1.047,3.908 -1.143,0.3066 -1.8520032,-6.9140034 1.1410002,-0.3065994 0.289102,1.0740028 c 0.145701,-0.493403 0.371501,-0.8888036 0.679701,-1.1880032 0.3082,-0.2987 0.7109,-0.515 1.209,-0.6484 0.5022,-0.1346 0.9626,-0.1224 1.381,0.03906 0.4224,0.1603 0.7831,0.4619 1.082,0.9022996 0.1472,-0.5864996 0.3867,-1.0559996 0.7168,-1.4039996 0.3301,-0.3487 0.7618,-0.5949 1.297,-0.7383 0.1801,-0.04825 0.3555,-0.0768 0.5234,-0.08789 z"
     id="path4193" />
  <path
     id="path4150"
     d="m 16.77,6.879 c 0.5039,-0.03328 0.9526,0.1012 1.348,0.4023 0.5256,0.3974 0.9128,1.06 1.162,1.99 l 1.119,4.174 -1.143,0.3066 -1.109,-4.137 c -0.18,-0.662 -0.43,-1.122 -0.75,-1.381 -0.32,-0.258 -0.72,-0.324 -1.2,-0.195 -0.59,0.158 -1,0.478 -1.24,0.961 -0.2369,0.4826 -0.2649,1.061 -0.084,1.736 l 1.047,3.908 -1.143,0.3066 -1.107,-4.137 c -0.19,-0.67 -0.44,-1.132 -0.76,-1.386 -0.32,-0.259 -0.72,-0.323 -1.21,-0.192 -0.5804,0.1555 -0.9869,0.4762 -1.223,0.9629 -0.2369,0.4826 -0.2657,1.06 -0.0859,1.73 l 1.047,3.908 -1.143,0.3066 -1.852,-6.914 1.141,-0.3066 0.2891,1.074 c 0.1457,-0.4934 0.3715,-0.8888 0.6797,-1.188 0.3082,-0.2987 0.7109,-0.515 1.209,-0.6484 0.5022,-0.1346 0.9626,-0.1224 1.381,0.03906 0.4224,0.1603 0.7831,0.4619 1.082,0.9023 0.1472,-0.5865 0.3867,-1.056 0.7168,-1.404 0.3301,-0.3487 0.7618,-0.5949 1.297,-0.7383 0.1801,-0.04825 0.3555,-0.0768 0.5234,-0.08789 z"
     style="enable-background:new;fill:#050b9c;fill-rule:evenodd;fill-opacity:1" />
  <path
     style="opacity:0.1;fill:#000000;fill-opacity:1;fill-rule:evenodd;enable-background:new"
     d="m 16.775779,14.472579 0.5527,0.3203 -0.3008,0.5195 c 0.2444,-0.133 0.4828,-0.197 0.7148,-0.1934 0.2321,0.0036 0.4695,0.07543 0.7109,0.2148 0.2435,0.1406 0.4135,0.3213 0.5117,0.543 0.1002,0.2228 0.1244,0.4751 0.0703,0.7578 0.2806,-0.168 0.551,-0.2546 0.8105,-0.2617 0.2596,-0.0071 0.5179,0.0631 0.7774,0.2129 0.3492,0.2016 0.5478,0.481 0.5957,0.8359 0.049,0.3529 -0.056,0.7541 -0.3164,1.205 l -1.168,2.023 -0.5547,-0.3184 1.158,-2.006 c 0.1855,-0.3213 0.2661,-0.5931 0.2422,-0.8145 -0.0239,-0.2213 -0.1532,-0.3984 -0.3867,-0.5332 -0.2854,-0.1648 -0.5647,-0.2014 -0.8398,-0.1074 -0.2751,0.09396 -0.5064,0.3055 -0.6953,0.6328 l -1.096,1.895 -0.5527,-0.3203 1.158,-2.006 c 0.1867,-0.3233 0.2672,-0.5951 0.2422,-0.8145 -0.0239,-0.2213 -0.1551,-0.4 -0.3926,-0.5371 -0.2814,-0.1625 -0.5597,-0.1956 -0.8359,-0.09961 -0.2751,0.09396 -0.5075,0.3036 -0.6953,0.6289 l -1.094,1.895 -0.5527,-0.3184 1.936,-3.354 z"
     id="path4195" />
  <path
     id="path14"
     d="m 16.3012,13.998 0.5527,0.3203 -0.3008,0.5195 c 0.2444,-0.133 0.4828,-0.197 0.7148,-0.1934 0.2321,0.0036 0.4695,0.07543 0.7109,0.2148 0.2435,0.1406 0.4135,0.3213 0.5117,0.543 0.1002,0.2228 0.1244,0.4751 0.0703,0.7578 0.2806,-0.168 0.551,-0.2546 0.8105,-0.2617 0.2596,-0.0071 0.5179,0.0631 0.7774,0.2129 0.3492,0.2016 0.5478,0.481 0.5957,0.8359 0.049,0.3529 -0.056,0.7541 -0.3164,1.205 l -1.168,2.023 -0.5547,-0.3184 1.158,-2.006 c 0.1855,-0.3213 0.2661,-0.5931 0.2422,-0.8145 -0.0239,-0.2213 -0.1532,-0.3984 -0.3867,-0.5332 -0.2854,-0.1648 -0.5647,-0.2014 -0.8398,-0.1074 -0.2751,0.09396 -0.5064,0.3055 -0.6953,0.6328 l -1.096,1.895 -0.5527,-0.3203 1.158,-2.006 c 0.1867,-0.3233 0.2672,-0.5951 0.2422,-0.8145 -0.0239,-0.2213 -0.1551,-0.4 -0.3926,-0.5371 -0.2814,-0.1625 -0.5597,-0.1956 -0.8359,-0.09961 -0.2751,0.09396 -0.5075,0.3036 -0.6953,0.6289 l -1.094,1.895 -0.5527,-0.3184 1.936,-3.354 z"
     style="enable-background:new;fill:#050b9c;fill-rule:evenodd;fill-opacity:1" />
</svg>
