<?xml version="1.0" encoding="UTF-8" standalone="no"?>
<svg
   xmlns:dc="http://purl.org/dc/elements/1.1/"
   xmlns:cc="http://creativecommons.org/ns#"
   xmlns:rdf="http://www.w3.org/1999/02/22-rdf-syntax-ns#"
   xmlns:svg="http://www.w3.org/2000/svg"
   xmlns="http://www.w3.org/2000/svg"
   id="svg2"
   version="1.0"
   width="32"
   height="32">
  <metadata
     id="metadata28">
    <rdf:RDF>
      <cc:Work
         rdf:about="">
        <dc:format>image/svg+xml</dc:format>
        <dc:type
           rdf:resource="http://purl.org/dc/dcmitype/StillImage" />
        <dc:title></dc:title>
      </cc:Work>
    </rdf:RDF>
  </metadata>
  <defs
     id="defs26" />
  <path
     id="path4"
     d="m0 0v32h32v-32z"
     style="color:#000000;fill:#bde5ff;fill-opacity:1" />
  <g
     style="opacity:0.1;fill:#000000;fill-opacity:1"
     transform="translate(0.81497048,0.81497048)"
     id="g4184">
    <path
       id="path4178"
       d="m 18.98,25.36 c -0.275,1.409 -1.389,2.518 -2.8,2.787 l 0,3.952 -1.382,0 0,-3.962 c -1.4,-0.29 -2.49,-1.4 -2.75,-2.8 z"
       style="color:#000000;isolation:auto;mix-blend-mode:normal;solid-color:#000000;fill:#000000;fill-opacity:1;color-rendering:auto;image-rendering:auto;shape-rendering:auto" />
    <path
       d="m 19.47,24.1 0,0.8967 -7.378,0 A 10.16,9.926 74.8 0 0 12.7724,24.1 l 6.698,0 z"
       id="path4180"
       style="color:#000000;isolation:auto;mix-blend-mode:normal;solid-color:#000000;fill:#000000;fill-opacity:1;color-rendering:auto;image-rendering:auto;shape-rendering:auto" />
    <path
       d="m 16.93,17.83 a 4.08,4.194 0 0 1 -1.633,1.715 4.08,4.194 0 0 0 1.633,-1.715 z m 1.501,1.249 c 0.383,0.5608 0.611,1.237 0.6133,1.967 l 0,0.01119 0,2.679 -6.025,0 a 10.16,9.926 74.8 0 0 0.4437,-0.8053 10.16,9.926 74.8 0 0 0.9209,-3.007 4.08,4.194 0 0 1 -0.09507,0.0205 4.08,4.194 0 0 0 0.2591,-0.06898 4.08,4.194 0 0 1 -0.1119,0.03356 c 0.3607,0.08902 0.7358,0.1398 1.124,0.1398 1.066,0 2.059,-0.3696 2.871,-0.9693 z m -6.232,0.8184 a 4.08,4.194 0 0 0 0.3766,0.09134 4.08,4.194 0 0 1 -0.3766,-0.09134 z m 1.95,0.07829 a 4.08,4.194 0 0 1 -0.2442,0.04474 4.08,4.194 0 0 0 0.2442,-0.04474 z m -1.53,0.02 a 4.08,4.194 0 0 0 0.3244,0.04474 4.08,4.194 0 0 1 -0.3244,-0.04474 z m 1.119,0.04287 a 4.08,4.194 0 0 1 -0.2815,0.01864 4.08,4.194 0 0 0 0.2815,-0.01864 z m -0.6879,0.01119 a 4.08,4.194 0 0 0 0.3039,0.0094 4.08,4.194 0 0 1 -0.3039,-0.0094 z"
       id="path4182"
       style="color:#000000;isolation:auto;mix-blend-mode:normal;solid-color:#000000;fill:#000000;fill-opacity:1;color-rendering:auto;image-rendering:auto;shape-rendering:auto" />
  </g>
  <path
     style="color:#000000;isolation:auto;mix-blend-mode:normal;solid-color:#000000;fill:#000000;fill-opacity:1;color-rendering:auto;image-rendering:auto;shape-rendering:auto;opacity:0.1"
     id="path4176"
     d="m 10.247126,18.631339 a 4.6419697,4.7727919 0 0 0 4.822676,1.34259 4.6419697,4.7727919 0 0 0 3.212904,-3.933534 4.6419697,4.7727919 0 0 0 -2.118654,-4.651948" />
  <path
     style="color:#000000;isolation:auto;mix-blend-mode:normal;solid-color:#000000;fill:#000000;fill-opacity:1;color-rendering:auto;image-rendering:auto;shape-rendering:auto;opacity:0.1"
     id="path4174"
     d="m 16.842902,5.6249698 c 2.04,0 3.693,1.653 3.693,3.693 -0.02764,2.7309932 0.9465,2.8639932 1.194,5.4639932 0,2.981 -2.557,5.396 -5.537,5.396 -0.4472,0 -0.8793,-0.05849 -1.295,-0.161 a 4.699,4.831 0 0 0 0.13,-0.04 4.699,4.831 0 0 0 3.25,-3.98 4.699,4.831 0 0 0 -2.08,-4.66 2.665,2.665 0 0 0 2.67,-2.6689932 2.665,2.665 0 0 0 -2.67,-2.665 l 0,0.08374 c -0.0068,-0.1337 -0.01284,-0.2678 -0.01288,-0.3994 0.2136,-0.03841 0.4323,-0.06012 0.657,-0.06012 z m -0.6441,5.7049932 a 4.699,4.831 0 0 0 -0.06441,-0.04294 l -0.02968,0.0365 a 2.665,2.665 0 0 1 -2.22,-1.3379932 2.665,2.665 0 0 1 -0.24,-0.584 c 0.05692,-0.01482 0.1111,-0.03553 0.1718,-0.04079 0.2803,-0.01896 0.6597,0.0726 0.8739,0.3478 0.2512,0.3230002 0.5726,0.6021972 1.005,0.5646982 0.1887,-0.01637 0.3605,-0.0824 0.5046,-0.184599 l 0,1.229994 z m -6.037994,7.306 a 4.699,4.831 0 0 0 4.675994,1.398 11.7,11.43 74.8 0 1 -1.061,3.463 11.7,11.43 74.8 0 1 -7.1949928,5.98 l 3.081,-6.3 a 8.674,8.874 0 0 1 -3.212,0.0022 l 3.7099988,-4.543 z" />
  <circle
     r="2.6525428"
     cy="7.8559322"
     cx="15.313565"
     id="path4168"
     style="color:#000000;clip-rule:nonzero;display:inline;overflow:visible;visibility:visible;opacity:1;isolation:auto;mix-blend-mode:normal;color-interpolation:sRGB;color-interpolation-filters:linearRGB;solid-color:#000000;solid-opacity:1;fill:#f2f2f2;fill-opacity:1;fill-rule:nonzero;stroke:none;stroke-width:0.69999999;stroke-linecap:butt;stroke-linejoin:round;stroke-miterlimit:4;stroke-dasharray:none;stroke-dashoffset:0;stroke-opacity:1;marker:none;color-rendering:auto;image-rendering:auto;shape-rendering:auto;text-rendering:auto;enable-background:accumulate" />
  <path
     d="m 8.611,22.56 -1.385,2.832 c -0.6851,0.07404 -1.375,0.08298 -2.061,0.03006 l 2.871,-2.778 c 0.1929,-0.02141 0.3843,-0.04913 0.5754,-0.08373 z"
     id="path8"
     style="color:#000000;isolation:auto;mix-blend-mode:normal;solid-color:#000000;fill:#f6ff43;color-rendering:auto;image-rendering:auto;shape-rendering:auto;fill-opacity:1" />
  <path
     id="path4172"
     d="m 18.98,25.36 c -0.275,1.409 -1.389,2.518 -2.8,2.787 l 0,3.952 -1.382,0 0,-3.962 c -1.4,-0.29 -2.49,-1.4 -2.75,-2.8 z"
     style="color:#000000;isolation:auto;mix-blend-mode:normal;solid-color:#000000;fill:#585656;color-rendering:auto;image-rendering:auto;shape-rendering:auto;fill-opacity:1" />
  <path
     id="path10"
     d="m 15.419,25.6147 c -0.3181,3e-6 -0.576,0.2579 -0.576,0.576 4e-6,0.3181 0.2579,0.576 0.576,0.576 0.3181,-3e-6 0.576,-0.2579 0.576,-0.576 -4e-6,-0.3181 -0.2579,-0.576 -0.576,-0.576 z"
     style="color:#000000;isolation:auto;mix-blend-mode:normal;solid-color:#000000;fill:#ff0909;color-rendering:auto;image-rendering:auto;shape-rendering:auto;fill-opacity:1" />
  <path
     d="m 19.47,24.1 0,0.8967 -7.378,0 A 10.16,9.926 74.8 0 0 12.7724,24.1 l 6.698,0 z"
     id="path12"
     style="color:#000000;isolation:auto;mix-blend-mode:normal;solid-color:#000000;fill:#413939;color-rendering:auto;image-rendering:auto;shape-rendering:auto;fill-opacity:1" />
  <path
     d="m 16.93,17.83 a 4.08,4.194 0 0 1 -1.633,1.715 4.08,4.194 0 0 0 1.633,-1.715 z m 1.501,1.249 c 0.383,0.5608 0.611,1.237 0.6133,1.967 l 0,0.01119 0,2.679 -6.025,0 a 10.16,9.926 74.8 0 0 0.4437,-0.8053 10.16,9.926 74.8 0 0 0.9209,-3.007 4.08,4.194 0 0 1 -0.09507,0.0205 4.08,4.194 0 0 0 0.2591,-0.06898 4.08,4.194 0 0 1 -0.1119,0.03356 c 0.3607,0.08902 0.7358,0.1398 1.124,0.1398 1.066,0 2.059,-0.3696 2.871,-0.9693 z m -6.232,0.8184 a 4.08,4.194 0 0 0 0.3766,0.09134 4.08,4.194 0 0 1 -0.3766,-0.09134 z m 1.95,0.07829 a 4.08,4.194 0 0 1 -0.2442,0.04474 4.08,4.194 0 0 0 0.2442,-0.04474 z m -1.53,0.02 a 4.08,4.194 0 0 0 0.3244,0.04474 4.08,4.194 0 0 1 -0.3244,-0.04474 z m 1.119,0.04287 a 4.08,4.194 0 0 1 -0.2815,0.01864 4.08,4.194 0 0 0 0.2815,-0.01864 z m -0.6879,0.01119 a 4.08,4.194 0 0 0 0.3039,0.0094 4.08,4.194 0 0 1 -0.3039,-0.0094 z"
     id="path14"
     style="color:#000000;isolation:auto;mix-blend-mode:normal;solid-color:#000000;fill:#606060;color-rendering:auto;image-rendering:auto;shape-rendering:auto;fill-opacity:1" />
  <path
     d="m 15.98,4.81 c 2.04,0 3.693,1.653 3.693,3.693 -0.02764,2.731 0.9465,2.864 1.194,5.464 0,2.981 -2.557,5.396 -5.537,5.396 -0.4472,0 -0.8793,-0.05849 -1.295,-0.161 a 4.699,4.831 0 0 0 0.13,-0.04 4.699,4.831 0 0 0 3.25,-3.98 4.699,4.831 0 0 0 -2.08,-4.66 2.665,2.665 0 0 0 2.67,-2.669 2.665,2.665 0 0 0 -2.67,-2.665 l 0,0.08374 c -0.0068,-0.1337 -0.01284,-0.2678 -0.01288,-0.3994 0.2136,-0.03841 0.4323,-0.06012 0.657,-0.06012 z m -0.6441,5.705 a 4.699,4.831 0 0 0 -0.06441,-0.04294 l -0.02968,0.0365 a 2.665,2.665 0 0 1 -2.22,-1.338 2.665,2.665 0 0 1 -0.24,-0.584 c 0.05692,-0.01482 0.1111,-0.03553 0.1718,-0.04079 0.2803,-0.01896 0.6597,0.0726 0.8739,0.3478 0.2512,0.323 0.5726,0.6022 1.005,0.5647 0.1887,-0.01637 0.3605,-0.0824 0.5046,-0.1846 l 0,1.23 z m -6.038,7.306 a 4.699,4.831 0 0 0 4.676,1.398 11.7,11.43 74.8 0 1 -1.061,3.463 11.7,11.43 74.8 0 1 -7.195,5.98 l 3.081,-6.3 a 8.674,8.874 0 0 1 -3.212,0.0022 l 3.71,-4.543 z"
     id="path16"
     style="color:#000000;isolation:auto;mix-blend-mode:normal;solid-color:#000000;fill:#156b00;color-rendering:auto;image-rendering:auto;shape-rendering:auto;fill-opacity:1" />
  <path
     d="m 9.3362798,17.768437 a 4.6419697,4.7727919 0 0 0 4.8226812,1.34259 4.6419697,4.7727919 0 0 0 3.212904,-3.933534 4.6419697,4.7727919 0 0 0 -2.118654,-4.651948"
     id="path18"
     style="color:#000000;isolation:auto;mix-blend-mode:normal;solid-color:#000000;fill:#457d8b;fill-opacity:1;color-rendering:auto;image-rendering:auto;shape-rendering:auto" />
  <path
     d="m 15.29,4.905 c 4.4e-5,0.1249 0.004,0.251 0.01044,0.3779 l 0,2.449 0,1.362 c -0.13,0.097 -0.3,0.161 -0.48,0.176 -0.41,0.036 -0.71,-0.231 -0.95,-0.537 -0.2,-0.261 -0.56,-0.348 -0.83,-0.33 -0.41,0.035 -0.74,0.31 -0.86,0.674 -0.03,-0.13 -0.05,-0.261 -0.06,-0.396 -0.17,-1.919 1.25,-3.654 3.17,-3.776 z"
     id="path20"
     style="color:#000000;isolation:auto;mix-blend-mode:normal;solid-color:#000000;fill:#efb300;color-rendering:auto;image-rendering:auto;shape-rendering:auto;fill-opacity:1" />
  <circle
     cy="7.2810001"
     cx="16.559999"
     r="0.62089998"
     id="circle22"
     style="color:#000000;isolation:auto;mix-blend-mode:normal;solid-color:#000000;fill:#000000;color-rendering:auto;image-rendering:auto;shape-rendering:auto;fill-opacity:1" />
</svg>
