<?xml version="1.0" encoding="UTF-8" standalone="no"?>
<svg
   xmlns:osb="http://www.openswatchbook.org/uri/2009/osb"
   xmlns:dc="http://purl.org/dc/elements/1.1/"
   xmlns:cc="http://creativecommons.org/ns#"
   xmlns:rdf="http://www.w3.org/1999/02/22-rdf-syntax-ns#"
   xmlns:svg="http://www.w3.org/2000/svg"
   xmlns="http://www.w3.org/2000/svg"
   xmlns:xlink="http://www.w3.org/1999/xlink"
   id="svg7649"
   version="1.0"
   width="32"
   height="32">
  <metadata
     id="metadata7661">
    <rdf:RDF>
      <cc:Work
         rdf:about="">
        <dc:format>image/svg+xml</dc:format>
        <dc:type
           rdf:resource="http://purl.org/dc/dcmitype/StillImage" />
        <dc:title></dc:title>
      </cc:Work>
    </rdf:RDF>
  </metadata>
  <defs
     id="defs7659">
    <linearGradient
       gradientTransform="matrix(0,-1,1,0,-1.5e-6,47.999998)"
       gradientUnits="userSpaceOnUse"
       x2="47"
       x1="1"
       id="linearGradient3764">
      <stop
         id="stop7"
         style="stop-color:#344e8e;stop-opacity:1" />
      <stop
         id="stop9"
         style="stop-color:#3a569c;stop-opacity:1"
         offset="1" />
    </linearGradient>
    <linearGradient
       gradientTransform="matrix(0,-1,1,0,44.444443,47.999998)"
       gradientUnits="userSpaceOnUse"
       x2="47"
       x1="1"
       id="linearGradient3764-1">
      <stop
         id="stop7-0"
         style="stop-color:#f7b747;stop-opacity:1" />
      <stop
         id="stop9-3"
         style="stop-color:#f8bd5a;stop-opacity:1"
         offset="1" />
    </linearGradient>
    <linearGradient
       gradientTransform="matrix(0,-1,1,0,-1.5e-6,47.999998)"
       gradientUnits="userSpaceOnUse"
       x2="47"
       x1="1"
       id="linearGradient3764-6">
      <stop
         id="stop7-7"
         style="stop-color:#f6b042;stop-opacity:1" />
      <stop
         id="stop9-32"
         style="stop-color:#f7b754;stop-opacity:1"
         offset="1" />
    </linearGradient>
    <linearGradient
       gradientTransform="matrix(0,-1,1,0,-1.5e-6,47.999998)"
       gradientUnits="userSpaceOnUse"
       x2="47"
       x1="1"
       id="linearGradient3764-2">
      <stop
         id="stop7-1"
         style="stop-color:#ad897f;stop-opacity:1" />
      <stop
         id="stop9-5"
         style="stop-color:#b5948b;stop-opacity:1"
         offset="1" />
    </linearGradient>
    <linearGradient
       id="linearGradient3874">
      <stop
         id="stop3876"
         offset="0"
         style="stop-color:#ffffff;stop-opacity:1;" />
      <stop
         id="stop3878"
         offset="1"
         style="stop-color:#ffffff;stop-opacity:0;" />
    </linearGradient>
    <linearGradient
       id="linearGradient3858">
      <stop
         style="stop-color:#000000;stop-opacity:1;"
         offset="0"
         id="stop3860" />
      <stop
         style="stop-color:#000000;stop-opacity:0;"
         offset="1"
         id="stop3862" />
    </linearGradient>
    <linearGradient
       id="linearGradient3045">
      <stop
         style="stop-color:#91bedd;stop-opacity:1;"
         offset="0"
         id="stop3047" />
      <stop
         style="stop-color:#4986b1;stop-opacity:1;"
         offset="1"
         id="stop3049" />
    </linearGradient>
    <linearGradient
       id="linearGradient4213">
      <stop
         id="stop4215"
         offset="0"
         style="stop-color:#b1d7f3;stop-opacity:1" />
      <stop
         id="stop4217"
         offset="1"
         style="stop-color:#8fafda;stop-opacity:1" />
    </linearGradient>
    <linearGradient
       id="linearGradient5460"
       osb:paint="gradient">
      <stop
         style="stop-color:#e6e6e6;stop-opacity:1"
         offset="0"
         id="stop5462" />
      <stop
         style="stop-color:#ffffff;stop-opacity:1"
         offset="1"
         id="stop5464" />
    </linearGradient>
    <linearGradient
       id="linearGradient5476"
       osb:paint="solid">
      <stop
         style="stop-color:#772953;stop-opacity:1;"
         offset="0"
         id="stop5478" />
    </linearGradient>
    <linearGradient
       xlink:href="#linearGradient4213"
       id="linearGradient3037"
       gradientUnits="userSpaceOnUse"
       x1="144"
       y1="918.36218"
       x2="144"
       y2="1052.3622"
       gradientTransform="matrix(1.7777778,0,0,1.7761194,16,-1563.3597)" />
    <filter
       id="filter4223"
       style="color-interpolation-filters:sRGB">
      <feBlend
         id="feBlend4225"
         in2="BackgroundImage"
         mode="multiply" />
    </filter>
    <filter
       id="filter4154"
       style="color-interpolation-filters:sRGB">
      <feComposite
         id="feComposite4156"
         in2="SourceGraphic"
         k3="0"
         k2="1"
         k1="0"
         result="composite1"
         k4="0"
         operator="arithmetic" />
      <feColorMatrix
         id="feColorMatrix4158"
         type="saturate"
         values="0"
         result="colormatrix1"
         in="composite1" />
      <feFlood
         id="feFlood4160"
         result="flood1"
         flood-color="rgb(72,59,72)" />
      <feBlend
         id="feBlend4162"
         result="blend1"
         mode="multiply"
         in2="colormatrix1"
         in="flood1" />
      <feBlend
         id="feBlend4164"
         mode="screen"
         in2="blend1"
         result="blend2" />
      <feColorMatrix
         id="feColorMatrix4166"
         type="saturate"
         values="1"
         result="colormatrix2"
         in="blend2" />
      <feComposite
         id="feComposite4168"
         operator="in"
         result="composite2"
         in2="SourceGraphic"
         in="colormatrix2" />
    </filter>
    <linearGradient
       xlink:href="#linearGradient3858"
       id="linearGradient3864"
       x1="272"
       y1="256"
       x2="368"
       y2="352"
       gradientUnits="userSpaceOnUse" />
    <linearGradient
       xlink:href="#linearGradient3874"
       id="linearGradient3872"
       gradientUnits="userSpaceOnUse"
       x1="272"
       y1="256"
       x2="368"
       y2="352"
       gradientTransform="rotate(180,272,272)" />
    <linearGradient
       xlink:href="#linearGradient3874"
       id="linearGradient3906"
       gradientUnits="userSpaceOnUse"
       gradientTransform="rotate(180,272,272)"
       x1="288"
       y1="264"
       x2="360"
       y2="328" />
    <linearGradient
       xlink:href="#linearGradient3858"
       id="linearGradient3908"
       gradientUnits="userSpaceOnUse"
       x1="288"
       y1="272"
       x2="368"
       y2="352" />
    <clipPath
       clipPathUnits="userSpaceOnUse"
       id="clipPath9430">
      <path
         id="path9432"
         d="m 166.0625,-196 179.875,0 C 491.2348,-196 512,-175.28677 512,-30.125 l 0,148.25 C 512,263.28618 491.2348,284 345.9375,284 l -179.875,0 C 20.7652,284 0,263.28618 0,118.125 L 0,-30.125 C 0,-175.28677 20.7652,-196 166.0625,-196 Z"
         style="color:#000000;display:inline;overflow:visible;visibility:visible;fill:#ffffff;fill-opacity:1;fill-rule:nonzero;stroke:none;stroke-width:1;marker:none;enable-background:new" />
    </clipPath>
    <linearGradient
       gradientTransform="matrix(0,-1,1,0,-1.5e-6,47.999998)"
       gradientUnits="userSpaceOnUse"
       x2="47"
       x1="1"
       id="linearGradient3764-3">
      <stop
         id="stop7-3"
         style="stop-color:#4eb470;stop-opacity:1" />
      <stop
         id="stop9-8"
         style="stop-color:#5dba7c;stop-opacity:1"
         offset="1" />
    </linearGradient>
    <linearGradient
       gradientTransform="matrix(3.543307,0,0,3.543307,-1,0)"
       x2="10.442"
       x1="3.669"
       gradientUnits="userSpaceOnUse"
       id="linear0">
      <stop
         id="stop12"
         style="stop-color:#e2f4fb;stop-opacity:1" />
      <stop
         id="stop14"
         style="stop-color:#f9f9f9;stop-opacity:1"
         offset="1" />
    </linearGradient>
    <linearGradient
       gradientTransform="matrix(0,-1,1,0,-1.5e-6,47.999998)"
       gradientUnits="userSpaceOnUse"
       x2="47"
       x1="1"
       id="linearGradient3764-28">
      <stop
         id="stop7-5"
         style="stop-color:#18aa86;stop-opacity:1" />
      <stop
         id="stop9-80"
         style="stop-color:#1abc95;stop-opacity:1"
         offset="1" />
    </linearGradient>
    <linearGradient
       gradientTransform="matrix(0,-1,1,0,-1.5e-6,47.999998)"
       gradientUnits="userSpaceOnUse"
       x2="47"
       x1="1"
       id="linearGradient3764-8">
      <stop
         id="stop7-6"
         style="stop-color:#5dbacb;stop-opacity:1" />
      <stop
         id="stop9-9"
         style="stop-color:#6cc0d0;stop-opacity:1"
         offset="1" />
    </linearGradient>
    <linearGradient
       gradientUnits="userSpaceOnUse"
       x2="24"
       x1="21"
       id="linearGradient4251"
       xlink:href="#linearGradient4309" />
    <linearGradient
       id="linearGradient4309">
      <stop
         id="stop13"
         style="stop-color:#eff5eb;stop-opacity:1" />
      <stop
         id="stop15"
         style="stop-color:#d1e2c4;stop-opacity:1"
         offset="1" />
    </linearGradient>
    <linearGradient
       gradientTransform="matrix(-1,0,0,1,48,0)"
       x2="24"
       x1="21"
       gradientUnits="userSpaceOnUse"
       id="linearGradient4265"
       xlink:href="#linearGradient4309" />
    <linearGradient
       gradientUnits="userSpaceOnUse"
       y2="1"
       x2="0"
       y1="47"
       id="linearGradient3845">
      <stop
         id="stop7-33"
         style="stop-color:#24bbd2;stop-opacity:1" />
      <stop
         id="stop9-7"
         style="stop-color:#2fc4db;stop-opacity:1"
         offset="1" />
    </linearGradient>
    <linearGradient
       gradientTransform="matrix(0,-1,1,0,-1.5e-6,47.999998)"
       gradientUnits="userSpaceOnUse"
       x2="47"
       x1="1"
       id="linearGradient3764-4">
      <stop
         id="stop7-37"
         style="stop-color:#de4f48;stop-opacity:1" />
      <stop
         id="stop9-1"
         style="stop-color:#e16059;stop-opacity:1"
         offset="1" />
    </linearGradient>
    <linearGradient
       gradientTransform="matrix(0,-1,1,0,-1.5e-6,47.999998)"
       gradientUnits="userSpaceOnUse"
       x2="47"
       x1="1"
       id="linearGradient3764-39">
      <stop
         id="stop7-64"
         style="stop-color:#ee810c;stop-opacity:1" />
      <stop
         id="stop9-2"
         style="stop-color:#f38b1b;stop-opacity:1"
         offset="1" />
    </linearGradient>
    <linearGradient
       gradientTransform="matrix(0,-1,1,0,-1.5e-6,47.999998)"
       gradientUnits="userSpaceOnUse"
       x2="47"
       x1="1"
       id="linearGradient3764-0">
      <stop
         id="stop7-2"
         style="stop-color:#3db0e3;stop-opacity:1" />
      <stop
         id="stop9-95"
         style="stop-color:#50b8e6;stop-opacity:1"
         offset="1" />
    </linearGradient>
    <linearGradient
       id="linearGradient3102-2"
       gradientUnits="userSpaceOnUse"
       gradientTransform="matrix(0.05622958,0,0,0.05622958,0.07160145,-0.0527796)"
       x1="135"
       y1="120"
       x2="160"
       y2="160">
      <stop
         id="stop12-7"
         style="stop-color:#eff7fc" />
      <stop
         id="stop14-4"
         style="stop-color:#fff"
         offset="1" />
    </linearGradient>
    <linearGradient
       gradientTransform="matrix(0,-1,1,0,-1.5e-6,47.999998)"
       gradientUnits="userSpaceOnUse"
       x2="47"
       x1="1"
       id="linearGradient3764-64">
      <stop
         id="stop7-9"
         style="stop-color:#575757;stop-opacity:1" />
      <stop
         id="stop9-12"
         style="stop-color:#616161;stop-opacity:1"
         offset="1" />
    </linearGradient>
    <linearGradient
       gradientTransform="matrix(0,-1,1,0,-1.5e-6,47.999998)"
       gradientUnits="userSpaceOnUse"
       x2="47"
       x1="1"
       id="linearGradient3764-31">
      <stop
         id="stop7-8"
         style="stop-color:#315bd1;stop-opacity:1" />
      <stop
         id="stop9-13"
         style="stop-color:#4166d4;stop-opacity:1"
         offset="1" />
    </linearGradient>
    <linearGradient
       gradientUnits="userSpaceOnUse"
       y2="1"
       x2="0"
       y1="47"
       id="linearGradient3764-89">
      <stop
         id="stop7-24"
         style="stop-color:#23bd88;stop-opacity:1" />
      <stop
         id="stop9-51"
         style="stop-color:#26cd93;stop-opacity:1"
         offset="1" />
    </linearGradient>
    <linearGradient
       gradientTransform="matrix(0,-1,1,0,-1.5e-6,47.999998)"
       gradientUnits="userSpaceOnUse"
       x2="47"
       x1="1"
       id="linearGradient3764-00">
      <stop
         id="stop7-13"
         style="stop-color:#075f93;stop-opacity:1" />
      <stop
         id="stop9-30"
         style="stop-color:#086ba6;stop-opacity:1"
         offset="1" />
    </linearGradient>
    <linearGradient
       gradientTransform="matrix(0.9,0,0,0.9,2.4499,2.45)"
       gradientUnits="userSpaceOnUse"
       y2="1"
       x2="0"
       y1="47"
       id="linearGradient3764-002">
      <stop
         id="stop7-22"
         style="stop-color:#67ac5e;stop-opacity:1" />
      <stop
         id="stop9-4"
         style="stop-color:#74b36b;stop-opacity:1"
         offset="1" />
    </linearGradient>
    <linearGradient
       gradientTransform="matrix(0,-1,1,0,-1.5e-6,47.999998)"
       gradientUnits="userSpaceOnUse"
       x2="47"
       x1="1"
       id="linearGradient3764-7">
      <stop
         id="stop7-86"
         style="stop-color:#f6b042;stop-opacity:1" />
      <stop
         id="stop9-0"
         style="stop-color:#f7b754;stop-opacity:1"
         offset="1" />
    </linearGradient>
    <linearGradient
       x2="-24"
       x1="-27"
       gradientUnits="userSpaceOnUse"
       id="linearGradient3357">
      <stop
         style="stop-color:#e25543;stop-opacity:1"
         id="stop14433" />
      <stop
         offset="1"
         style="stop-color:#e96b5a;stop-opacity:1"
         id="stop14435" />
    </linearGradient>
    <linearGradient
       id="linearGradient3764-06"
       x1="1"
       x2="47"
       gradientUnits="userSpaceOnUse"
       gradientTransform="matrix(0,-1,1,0,-1.5e-6,47.999998)">
      <stop
         style="stop-color:#324162;stop-opacity:1"
         id="stop14589" />
      <stop
         offset="1"
         style="stop-color:#394a6f;stop-opacity:1"
         id="stop14591" />
    </linearGradient>
    <linearGradient
       id="linear0-4"
       gradientUnits="userSpaceOnUse"
       x1="13"
       y1="28"
       x2="15"
       y2="29">
      <stop
         style="stop-color:#35587c;stop-opacity:1"
         id="stop14594" />
      <stop
         offset="1"
         style="stop-color:#335276;stop-opacity:1"
         id="stop14596" />
    </linearGradient>
    <linearGradient
       id="linear1"
       gradientUnits="userSpaceOnUse"
       x1="12.906"
       y1="27.547"
       x2="24"
       y2="28">
      <stop
         style="stop-color:#3d6084;stop-opacity:1"
         id="stop14599" />
      <stop
         offset="1"
         style="stop-color:#2f5175;stop-opacity:1"
         id="stop14601" />
    </linearGradient>
    <linearGradient
       id="linear2"
       gradientUnits="userSpaceOnUse"
       x1="27"
       y1="35"
       x2="35"
       y2="24">
      <stop
         style="stop-color:#375b80;stop-opacity:1"
         id="stop14604" />
      <stop
         offset="1"
         style="stop-color:#3d6185;stop-opacity:1"
         id="stop14606" />
    </linearGradient>
    <linearGradient
       id="linearGradient4193"
       x1="1"
       x2="47"
       gradientUnits="userSpaceOnUse">
      <stop
         style="stop-color:#2ebd59;stop-opacity:1"
         id="stop14736" />
      <stop
         offset="1"
         style="stop-color:#33cd61;stop-opacity:1"
         id="stop14738" />
    </linearGradient>
    <linearGradient
       id="linearGradient3764-37"
       x1="1"
       x2="47"
       gradientUnits="userSpaceOnUse"
       gradientTransform="matrix(0,-1,1,0,-1.5e-6,47.999998)">
      <stop
         style="stop-color:#b471e3;stop-opacity:1"
         id="stop15099" />
      <stop
         offset="1"
         style="stop-color:#bd82e6;stop-opacity:1"
         id="stop15101" />
    </linearGradient>
    <linearGradient
       id="linearGradient3764-5"
       x1="1"
       x2="47"
       gradientUnits="userSpaceOnUse"
       gradientTransform="matrix(0,-1,1,0,-1.5e-6,47.999998)">
      <stop
         style="stop-color:#ff7061;stop-opacity:1"
         id="stop16473" />
      <stop
         offset="1"
         style="stop-color:#ff8275;stop-opacity:1"
         id="stop16475" />
    </linearGradient>
    <radialGradient
       id="radial0"
       gradientUnits="userSpaceOnUse"
       cx="6.773"
       cy="5.927"
       r="0.564"
       gradientTransform="matrix(3.543307,0,0,3.543307,0.000000147638,0.000377575)">
      <stop
         style="stop-color:#8eb0c7;stop-opacity:1"
         id="stop16478" />
      <stop
         offset="1"
         style="stop-color:#8eb0c7;stop-opacity:0"
         id="stop16480" />
    </radialGradient>
    <radialGradient
       id="radial1"
       gradientUnits="userSpaceOnUse"
       cx="6"
       cy="17.292"
       r="1"
       gradientTransform="translate(18,8.707971)"
       xlink:href="#radial0" />
    <radialGradient
       xlink:href="#radial0"
       id="radialGradient3427"
       gradientUnits="userSpaceOnUse"
       gradientTransform="matrix(3.543307,0,0,3.543307,1.47638e-7,3.77575e-4)"
       cx="6.773"
       cy="5.927"
       r="0.564" />
    <linearGradient
       id="linearGradient3764-81"
       x1="1"
       x2="47"
       gradientUnits="userSpaceOnUse"
       gradientTransform="matrix(0,-1,1,0,-1.5e-6,47.999998)">
      <stop
         style="stop-color:#e4e4e4;stop-opacity:1"
         id="stop16695" />
      <stop
         offset="1"
         style="stop-color:#eee;stop-opacity:1"
         id="stop16697" />
    </linearGradient>
    <linearGradient
       id="linearGradient3764-30"
       x1="1"
       x2="47"
       gradientUnits="userSpaceOnUse"
       gradientTransform="matrix(0,-1,1,0,-1.5e-6,47.999998)">
      <stop
         style="stop-color:#f5c755;stop-opacity:1"
         id="stop16859" />
      <stop
         offset="1"
         style="stop-color:#f6cd68;stop-opacity:1"
         id="stop16861" />
    </linearGradient>
    <linearGradient
       id="linearGradient3764-26"
       x1="1"
       x2="47"
       gradientUnits="userSpaceOnUse"
       gradientTransform="matrix(0,-1,1,0,-1.5e-6,47.999998)">
      <stop
         style="stop-color:#e0a300;stop-opacity:1"
         id="stop16950" />
      <stop
         offset="1"
         style="stop-color:#f4b400;stop-opacity:1"
         id="stop16952" />
    </linearGradient>
    <linearGradient
       id="linearGradient3764-43"
       x1="1"
       x2="47"
       gradientUnits="userSpaceOnUse"
       gradientTransform="matrix(0,-1,1,0,-1.5e-6,47.999998)">
      <stop
         style="stop-color:#3d3d3d;stop-opacity:1"
         id="stop18185" />
      <stop
         offset="1"
         style="stop-color:#474747;stop-opacity:1"
         id="stop18187" />
    </linearGradient>
    <linearGradient
       id="linearGradient3764-86"
       x1="1"
       x2="47"
       gradientUnits="userSpaceOnUse"
       gradientTransform="matrix(0,-1,1,0,-1.5e-6,47.999998)">
      <stop
         style="stop-color:#d84430;stop-opacity:1"
         id="stop18278" />
      <stop
         offset="1"
         style="stop-color:#db5441;stop-opacity:1"
         id="stop18280" />
    </linearGradient>
    <linearGradient
       id="linearGradient3064"
       y1="1"
       x2="0"
       y2="47"
       gradientUnits="userSpaceOnUse">
      <stop
         style="stop-color:#555;stop-opacity:1"
         id="stop18419" />
      <stop
         offset="1"
         style="stop-color:#4b4b4b;stop-opacity:1"
         id="stop18421" />
    </linearGradient>
    <linearGradient
       id="linearGradient3764-70"
       x1="1"
       x2="47"
       gradientUnits="userSpaceOnUse"
       gradientTransform="matrix(0,-1,1,0,-1.5e-6,47.999998)">
      <stop
         style="stop-color:#f05d1c;stop-opacity:1"
         id="stop18510" />
      <stop
         offset="1"
         style="stop-color:#f16a30;stop-opacity:1"
         id="stop18512" />
    </linearGradient>
    <linearGradient
       id="linearGradient3764-819"
       x1="1"
       x2="47"
       gradientUnits="userSpaceOnUse"
       gradientTransform="matrix(0,-1,1,0,-1.5e-6,47.999998)">
      <stop
         style="stop-color:#a467af;stop-opacity:1"
         id="stop18695" />
      <stop
         offset="1"
         style="stop-color:#ac74b6;stop-opacity:1"
         id="stop18697" />
    </linearGradient>
    <linearGradient
       id="linearGradient3764-816"
       x1="1"
       x2="47"
       gradientUnits="userSpaceOnUse"
       gradientTransform="matrix(0,-1,1,0,-1.5e-6,47.999998)">
      <stop
         style="stop-color:#d3d3d3;stop-opacity:1"
         id="stop22104" />
      <stop
         offset="1"
         style="stop-color:#ddd;stop-opacity:1"
         id="stop22106" />
    </linearGradient>
    <linearGradient
       id="linearGradient3764-48"
       x1="1"
       x2="47"
       gradientUnits="userSpaceOnUse"
       gradientTransform="matrix(0,-1,1,0,-1.5e-6,47.999998)">
      <stop
         style="stop-color:#cfcfcf;stop-opacity:1"
         id="stop22223" />
      <stop
         offset="1"
         style="stop-color:#d9d9d9;stop-opacity:1"
         id="stop22225" />
    </linearGradient>
    <linearGradient
       id="linearGradient3126"
       gradientUnits="userSpaceOnUse"
       gradientTransform="matrix(0,-1,1,0,-1.5e-6,47.999998)"
       x1="1"
       x2="47">
      <stop
         style="stop-color:#5ab133;stop-opacity:1"
         id="stop22615" />
      <stop
         offset="1"
         style="stop-color:#63c038;stop-opacity:1"
         id="stop22617" />
    </linearGradient>
    <linearGradient
       id="linearGradient3764-50"
       x1="1"
       x2="47"
       gradientUnits="userSpaceOnUse"
       gradientTransform="matrix(0,-1,1,0,-1.5e-6,47.999998)">
      <stop
         style="stop-color:#00acec;stop-opacity:1"
         id="stop22936" />
      <stop
         offset="1"
         style="stop-color:#01b9ff;stop-opacity:1"
         id="stop22938" />
    </linearGradient>
    <linearGradient
       id="linearGradient3764-15"
       x1="1"
       x2="47"
       gradientUnits="userSpaceOnUse"
       gradientTransform="matrix(0,-1,1,0,-1.5e-6,47.999998)">
      <stop
         style="stop-color:#4b4b4b;stop-opacity:1"
         id="stop27458" />
      <stop
         offset="1"
         style="stop-color:#555;stop-opacity:1"
         id="stop27460" />
    </linearGradient>
    <linearGradient
       id="linearGradient3764-9"
       x1="1"
       x2="47"
       gradientUnits="userSpaceOnUse"
       gradientTransform="matrix(0,-1,1,0,-1.5e-6,47.999998)">
      <stop
         style="stop-color:#93c848;stop-opacity:1"
         id="stop28213" />
      <stop
         offset="1"
         style="stop-color:#9ccd57;stop-opacity:1"
         id="stop28215" />
    </linearGradient>
    <linearGradient
       id="linearGradient3764-706"
       x1="1"
       x2="47"
       gradientUnits="userSpaceOnUse"
       gradientTransform="matrix(0,-1,1,0,-1.5e-6,47.999998)">
      <stop
         style="stop-color:#d6740a;stop-opacity:1"
         id="stop28339" />
      <stop
         offset="1"
         style="stop-color:#e97e0b;stop-opacity:1"
         id="stop28341" />
    </linearGradient>
    <linearGradient
       id="linearGradient3764-289"
       x1="1"
       x2="47"
       gradientUnits="userSpaceOnUse"
       gradientTransform="matrix(0,-1,1,0,-1.5e-6,47.999998)">
      <stop
         style="stop-color:#01a0db;stop-opacity:1"
         id="stop28428" />
      <stop
         offset="1"
         style="stop-color:#01b1ef;stop-opacity:1"
         id="stop28430" />
    </linearGradient>
    <linearGradient
       id="linearGradient3845-5"
       y1="47"
       x2="0"
       y2="1"
       gradientUnits="userSpaceOnUse">
      <stop
         style="stop-color:#6fa2b4;stop-opacity:1"
         id="stop28619" />
      <stop
         offset="1"
         style="stop-color:#7dabbb;stop-opacity:1"
         id="stop28621" />
    </linearGradient>
    <linearGradient
       id="linearGradient3764-02"
       x1="1"
       x2="47"
       gradientUnits="userSpaceOnUse"
       gradientTransform="matrix(0,-1,1,0,-1.5e-6,47.999998)">
      <stop
         style="stop-color:#314c6b;stop-opacity:1"
         id="stop28723" />
      <stop
         offset="1"
         style="stop-color:#375678;stop-opacity:1"
         id="stop28725" />
    </linearGradient>
    <linearGradient
       id="linearGradient3764-72"
       x1="1"
       x2="47"
       gradientUnits="userSpaceOnUse"
       gradientTransform="matrix(0,-1,1,0,-1.5e-6,47.999998)">
      <stop
         style="stop-color:#e1281f;stop-opacity:1"
         id="stop28837" />
      <stop
         offset="1"
         style="stop-color:#e33a31;stop-opacity:1"
         id="stop28839" />
    </linearGradient>
    <linearGradient
       id="linearGradient3764-817"
       x1="1"
       x2="47"
       gradientUnits="userSpaceOnUse"
       gradientTransform="matrix(0,-1,1,0,-1.5e-6,47.999998)">
      <stop
         style="stop-color:#7568a0;stop-opacity:1"
         id="stop30966" />
      <stop
         offset="1"
         style="stop-color:#8074a8;stop-opacity:1"
         id="stop30968" />
    </linearGradient>
    <linearGradient
       id="linearGradient3764-79"
       x1="1"
       x2="47"
       gradientUnits="userSpaceOnUse"
       gradientTransform="matrix(0,-1,1,0,-1.5e-6,47.999998)">
      <stop
         style="stop-color:#2c313c;stop-opacity:1"
         id="stop34948" />
      <stop
         offset="1"
         style="stop-color:#353b47;stop-opacity:1"
         id="stop34950" />
    </linearGradient>
    <linearGradient
       id="linearGradient4164"
       x1="1"
       x2="47"
       gradientUnits="userSpaceOnUse">
      <stop
         style="stop-color:#f44c68;stop-opacity:1"
         id="stop35063" />
      <stop
         offset="1"
         style="stop-color:#f55f78;stop-opacity:1"
         id="stop35065" />
    </linearGradient>
    <linearGradient
       id="linearGradient3764-798"
       x1="1"
       x2="47"
       gradientUnits="userSpaceOnUse"
       gradientTransform="matrix(0,-1,1,0,-1.5e-6,47.999998)">
      <stop
         style="stop-color:#66b7cc;stop-opacity:1"
         id="stop35216" />
      <stop
         offset="1"
         style="stop-color:#75bed1;stop-opacity:1"
         id="stop35218" />
    </linearGradient>
    <linearGradient
       id="linearGradient3764-898"
       x1="1"
       x2="47"
       gradientUnits="userSpaceOnUse"
       gradientTransform="matrix(0,-1,1,0,-1.5e-6,47.999998)">
      <stop
         style="stop-color:#098cc3;stop-opacity:1"
         id="stop35370" />
      <stop
         offset="1"
         style="stop-color:#0a99d6;stop-opacity:1"
         id="stop35372" />
    </linearGradient>
    <linearGradient
       id="linearGradient3764-05"
       x1="1"
       x2="47"
       gradientUnits="userSpaceOnUse"
       gradientTransform="matrix(0,-1,1,0,-1.5e-6,47.999998)">
      <stop
         style="stop-color:#a31d23;stop-opacity:1"
         id="stop35475" />
      <stop
         offset="1"
         style="stop-color:#b42026;stop-opacity:1"
         id="stop35477" />
    </linearGradient>
    <linearGradient
       id="linearGradient3764-20"
       x1="1"
       x2="47"
       gradientUnits="userSpaceOnUse"
       gradientTransform="matrix(0,-1,1,0,-1.5e-6,47.999998)">
      <stop
         style="stop-color:#c94943;stop-opacity:1"
         id="stop35698" />
      <stop
         offset="1"
         style="stop-color:#ce5952;stop-opacity:1"
         id="stop35700" />
    </linearGradient>
    <linearGradient
       id="linearGradient3764-24"
       x1="1"
       x2="47"
       gradientUnits="userSpaceOnUse"
       gradientTransform="matrix(0,-1,1,0,-1.5e-6,47.999998)">
      <stop
         style="stop-color:#e05a48;stop-opacity:1"
         id="stop35838" />
      <stop
         offset="1"
         style="stop-color:#e36959;stop-opacity:1"
         id="stop35840" />
    </linearGradient>
    <linearGradient
       id="linearGradient3764-373"
       x1="1"
       x2="47"
       gradientUnits="userSpaceOnUse"
       gradientTransform="matrix(0,-1,1,0,-1.5e-6,47.999998)">
      <stop
         style="stop-color:#436769;stop-opacity:1"
         id="stop36000" />
      <stop
         offset="1"
         style="stop-color:#4b7376;stop-opacity:1"
         id="stop36002" />
    </linearGradient>
    <linearGradient
       id="linearGradient3764-001"
       x1="1"
       x2="47"
       gradientUnits="userSpaceOnUse"
       gradientTransform="matrix(0,-1,1,0,-1.5e-6,47.999998)">
      <stop
         style="stop-color:#d52f3f;stop-opacity:1"
         id="stop36097" />
      <stop
         offset="1"
         style="stop-color:#d8404d;stop-opacity:1"
         id="stop36099" />
    </linearGradient>
    <linearGradient
       id="linearGradient3764-58"
       x1="1"
       x2="47"
       gradientUnits="userSpaceOnUse"
       gradientTransform="matrix(0,-1,1,0,-1.5e-6,47.999998)">
      <stop
         style="stop-color:#60c3e0;stop-opacity:1"
         id="stop36378" />
      <stop
         offset="1"
         style="stop-color:#71c9e3;stop-opacity:1"
         id="stop36380" />
    </linearGradient>
    <linearGradient
       gradientTransform="translate(0.012,0.0069995)"
       id="linearGradient4225"
       y1="47"
       x2="-0.016"
       y2="0.993"
       gradientUnits="userSpaceOnUse">
      <stop
         style="stop-color:#cf5225;stop-opacity:1"
         id="stop36383" />
      <stop
         offset="1"
         style="stop-color:#da5c2e;stop-opacity:1"
         id="stop36385" />
    </linearGradient>
  </defs>
  <path
     id="path7651"
     style="color:#000000;fill:#ffffff;fill-opacity:1"
     d="M 0,0 0,32 32,32 32,0 Z" />
  <g
     transform="matrix(0.46595416,0,0,0.46595416,4.848822,4.7618316)"
     id="g36441">
    <g
       id="g36387">
      <path
         d="m 36.31,5 c 5.859,4.062 9.688,10.831 9.688,18.5 0,12.426 -10.07,22.5 -22.5,22.5 -7.669,0 -14.438,-3.828 -18.5,-9.688 1.037,1.822 2.306,3.499 3.781,4.969 4.085,3.712 9.514,5.969 15.469,5.969 12.703,0 23,-10.298 23,-23 0,-5.954 -2.256,-11.384 -5.969,-15.469 C 39.81,7.306 38.132,6.037 36.31,5 Z m 4.969,3.781 c 3.854,4.113 6.219,9.637 6.219,15.719 0,12.703 -10.297,23 -23,23 -6.081,0 -11.606,-2.364 -15.719,-6.219 4.16,4.144 9.883,6.719 16.219,6.719 12.703,0 23,-10.298 23,-23 0,-6.335 -2.575,-12.06 -6.719,-16.219 z"
         style="opacity:0.05"
         id="path36389" />
      <path
         d="m 41.28,8.781 c 3.712,4.085 5.969,9.514 5.969,15.469 0,12.703 -10.297,23 -23,23 -5.954,0 -11.384,-2.256 -15.469,-5.969 4.113,3.854 9.637,6.219 15.719,6.219 12.703,0 23,-10.298 23,-23 0,-6.081 -2.364,-11.606 -6.219,-15.719 z"
         style="opacity:0.1"
         id="path36391" />
      <path
         d="M 31.25,2.375 C 39.865,5.529 46,13.792 46,23.505 c 0,12.426 -10.07,22.5 -22.5,22.5 -9.708,0 -17.971,-6.135 -21.12,-14.75 a 23,23 0 0 0 44.875,-7 23,23 0 0 0 -16,-21.875 z"
         style="opacity:0.2"
         id="path36393" />
    </g>
    <g
       id="g36395">
      <path
         d="M 23.996,0.996 24,1 C 21.73,1 19.538,1.334 17.467,1.947 19.001,3 16.217,3.967 14.262,3.162 11.48,4.465 9.011,6.315 6.971,8.562 L 3,24 27,46 C 27,46 42.18,34 45,16.73 45,16.73 34.746,3.69 34.723,3.65 31.52,1.958 27.871,0.996 23.996,0.996 Z"
         style="fill:url(#linearGradient3764-58);fill-opacity:1"
         id="path36397" />
      <path
         d="m 17.727,2.926 c -0.43,0.422 -1.571,0.659 -2.674,0.461 l -0.367,0.27 -0.781,-0.031 0.066,0.5 1.121,-0.031 -0.317,2.505 0.189,1.063 0.754,0.125 0.719,-0.688 0.625,-0.656 0.965,-0.25 1.229,-0.594 0.719,-0.875 1.031,-1.254 0.719,-0.189 -0.031,-0.275 -1.121,0 z m 9.33,0.461 C 27.002,3.407 25.53,3.408 25.53,3.408 l -0.379,0.1 0.5,0.598 0.531,-0.5 0.344,0.219 0.5,-0.25 c 0,0 0.09,-0.212 0.031,-0.187 z m 6,0.461 -0.375,0.004 -0.469,0.063 -0.406,0.25 -0.469,0.35 -0.277,0.5 0.59,-0.099 0.219,-0.188 0.031,-0.152 0.469,-0.313 c 0,0 0.609,0.008 0.656,0 0.051,-0.012 0.189,-0.191 0.189,-0.191 z M 29.221,5.829 28.346,5.515 27.467,5.359 26.526,5.55 l -0.969,0.779 -0.436,0.439 -0.654,0.719 -0.25,0.031 -0.096,0.344 0.125,0.344 c 0,0 0.133,0.156 0.156,0.156 0.02,0 0.25,-0.125 0.25,-0.125 0,0 0.027,-0.117 0.156,-0.156 0.133,-0.039 0.25,-0.063 0.25,-0.063 l 0.188,0.375 0.636,-0.225 0.083,-0.498 0.063,-0.316 c 0,0 0.125,-0.051 0.125,-0.094 0,-0.039 0.191,-0.189 0.191,-0.189 l 0.219,-0.275 0.156,-0.189 0.219,-0.156 0.254,0.189 0,0.125 -0.223,0.25 -0.066,0.25 -3.201,2.166 -1.623,1.504 0.281,0.189 0.189,0.311 c 0,0 0.117,0.223 0.152,0.223 0.031,0 0.094,0.219 0.094,0.219 l -0.189,0.25 -0.094,0 -0.656,0.125 -0.125,-0.281 -0.434,0.438 -0.191,0.723 0,0.598 0.754,0.406 0.594,-0.223 0.6,-1.063 0.529,-0.652 0.967,-0.156 0.219,-0.188 1.098,1.281 0.121,0.438 0.314,-0.156 -0.09,-0.375 0.188,0 -0.125,-0.254 -1.063,-1 0.094,-0.188 0.344,-0.031 0.75,0.75 0.375,0.441 0,0.688 0.191,0.125 0.375,0.375 0.275,-0.094 -0.15,-0.566 0.094,-0.344 0.188,-0.219 0.439,0.156 0.156,0.063 -0.031,-0.5 0.25,-0.469 0.156,-0.689 0.563,0.096 0.094,0.313 0.219,0.156 0.254,-0.219 -0.156,-0.346 0.656,0 -0.223,0.375 -0.808,0.967 -0.598,0.316 -0.125,0.188 -0.434,0.094 0.188,0.469 0.344,0.406 0.625,-0.219 0.156,0.277 -0.192,0.937 -0.188,0.465 -1.375,-0.25 -0.25,-0.316 -2.41,-0.277 0,-0.941 -0.564,0.031 -0.029,0.313 -4.613,2.76 -2.283,-1.975 0.031,-0.156 c 0.145,-0.988 0.633,-1.773 1.031,-2.527 0.434,-0.691 1.269,-1.454 2.5,-2.25 -2.281,0.273 -4.353,1.27 -6.189,2.969 l -4.121,-1.081 c 0.191,-0.09 0.066,-0.434 -0.125,-0.75 -0.191,-0.313 0.094,-0.625 0.094,-0.625 l 0.719,-0.434 0.625,0.121 0.066,0.754 c 0,0 0.59,0.563 0.781,0.465 0.188,-0.09 0.27,-0.406 0.27,-0.406 l -0.313,-0.813 0.191,-0.813 -0.844,0.121 0,-1.375 -0.254,0.254 -0.656,0.031 -0.09,-0.688 -0.434,-0.529 c 0,0 -0.432,0.25 -0.85,0.406 L 8.19,9.33 7.471,8.767 C 6.802,10.763 6.272,12.69 5.854,14.554 5.854,14.554 5,24 5,24.003 c 12,17 23,17 23,17 9,0 16.822,-24.266 16.822,-24.266 z m -18.283,-0.248 0.563,-0.064 0.25,0.469 -0.5,0.531 -0.563,0.063 0.5,0.225 0.531,0.465 0.523,0.125 0.191,-0.719 0.035,-0.439 0.621,0.094 c 0,0 -0.191,0.314 -0.094,0.314 0.098,0 0.469,-0.406 0.469,-0.406 L 12.398,5.141 c 0,0 -0.434,-0.344 -0.563,-0.25 z M 10.184,6.172 9.87,5.869 C 9.728,5.98 9.59,6.096 9.45,6.211 9.218,6.399 8.986,6.587 8.762,6.785 8.714,6.827 8.669,6.873 8.621,6.916 8.991,7.01 9.472,7.205 9.559,7.145 9.688,7.051 10.184,6.27 10.184,6.27 c 0.02,-0.026 0,-0.065 0,-0.098 z m 9.533,0.227 -0.121,0.406 c 0.449,0.348 0.621,0.344 0.621,0.344 L 20.742,7.024 21.092,6.68 20.867,6.399 Z m 2.775,1.783 -0.25,0.219 c -0.066,0.305 -0.148,0.621 -0.148,0.621 l 0.469,0.223 0.063,0.277 0.469,0.098 -0.098,-0.656 -0.344,-0.375 z m -0.773,1.184 -0.281,0.469 0.375,0.156 0.156,-0.281 z m 10.938,1.85 0.496,1.438 -0.504,0.254 c 0,0 -0.303,-0.406 -0.436,-0.469 -0.137,-0.066 -0.256,-0.281 -0.256,-0.281 l 0.125,-0.531 0.564,-0.406 z m -7.906,1.188 -0.375,0.719 0.281,0.281 0.25,-0.223 0.031,-0.311 z m 0.904,1.219 -0.188,0.064 0.309,0.531 0.281,-0.223 z m 7.223,1.744 0.277,0.531 0.344,0.535 0.598,0.344 0.406,-0.094 0.25,0.281 1.785,-0.035 c -0.007,0.157 0.379,0.401 0.531,0.535 l 1.492,2.652 0.188,0.689 0.277,0.654 0.219,0.277 0.314,-0.188 0.199,5.617 c -0.543,-1.594 -1.063,-2.508 -1.5,-2.844 0.613,4.918 -0.211,8.539 -2.5,10.906 0.441,-1.445 0.598,-2.629 0.5,-3.564 -2.691,3.891 -5.754,5.904 -9.189,6.03 -1.352,-0.016 -2.641,-0.216 -3.844,-0.594 -1.77,-0.57 -3.359,-1.551 -4.781,-2.939 2.219,0.176 4.245,-0.191 6.03,-1.063 l 1.889,-1.186 0.23,0.305 0.063,0.594 0.094,0.688 0.346,-0.344 0.875,-0.09 0.529,0 0.971,-1.5 0.063,-0.594 0.656,-0.656 0.031,-0.75 0.344,-0.754 0.814,-0.777 0,-0.875 -0.191,-0.813 -0.121,-1.125 0.594,-0.939 1.064,-1.313 0.41,-0.406 0.148,-0.531 0.254,-0.469 0.064,-0.691 -0.594,0 -0.281,0.281 -0.564,-0.156 -0.344,-0.563 -0.281,-0.564 -0.652,-0.5 -0.152,-0.813 -0.281,-0.475 -0.313,-0.594 -0.406,-0.719 -0.094,-0.469 0.438,-0.064 1.535,2.908 0.434,0.723 0.602,0.6 0.535,-0.5 0.594,-0.156 0.436,-0.531 0.6,-0.344 0.344,-0.594 0.031,-0.5 -0.281,-0.316 -0.375,-0.438 -0.25,0.154 -0.156,0.254 -0.406,-0.188 -0.125,-0.314 -0.281,-0.41 -0.434,-0.404 z m -13.24,5.928 0.07,0.201 0.754,0.906 0.434,0.375 0.441,0.094 0.09,-0.375 1.563,0 0.41,-0.188 0.5,0.063 0.152,0.313 1.264,5.781 -6.652,0.76 c -0.934,-0.617 -1.819,-1.461 -2.688,-2.5 -0.118,-0.152 -0.216,-0.345 -0.314,-0.5 0.043,-1.027 0.437,-1.564 1.281,-1.689 0.957,0.082 2.051,0.281 3.281,0.625 0.207,-1.141 -0.064,-2.334 -0.814,-3.563 l 0.031,-0.125 c 0.032,-0.028 0.115,-0.103 0.197,-0.178 z m 13.414,6.195 0,0.439 c -0.02,0.066 -0.406,0.375 -0.406,0.375 l -0.469,0.219 -0.346,0.281 0.256,0.344 0.154,0.156 -0.41,0.344 0,0.563 0.156,0.596 0.344,0.094 0.41,-0.625 0.25,-0.406 -0.063,-0.5 0.375,-0.594 0.125,-0.281 0,-0.563 -0.096,-0.439 z"
         style="opacity:0.1;fill:#000000;fill-opacity:1"
         id="path36399" />
      <path
         d="m 17.475,1.943 c -1.152,0.34 -2.267,0.767 -3.336,1.275 l 0.363,0.969 0.15,0.598 -0.621,0.346 -0.254,0.465 0.189,1.063 0.754,0.125 0.719,-0.688 0.625,-0.656 0.965,-0.25 1.227,-0.594 0.719,-0.875 1.031,-1.254 0.719,-0.189 -0.031,-0.271 -1.121,0 -2.098,-0.062 z m 8.582,0.443 c -0.055,0.02 -1.527,0.02 -1.527,0.02 l -0.379,0.102 0.5,0.598 0.531,-0.5 0.344,0.219 0.5,-0.25 c 0,0 0.09,-0.212 0.031,-0.188 z m 6,0.461 -0.375,0.004 -0.469,0.063 -0.406,0.25 -0.469,0.35 -0.277,0.5 0.434,0.438 L 30.87,4.483 31.026,4.229 30.651,3.915 30.87,3.727 30.901,3.575 31.37,3.262 c 0,0 0.609,0.008 0.656,0 0.051,-0.012 0.189,-0.191 0.189,-0.191 l -0.156,-0.223 -0.002,0 z m 2.725,0.814 0,0.01 -0.008,0.006 -0.498,0.299 -0.531,0.438 C 33.71,4.482 33.597,4.445 33.522,4.461 L 33.206,4.023 32.554,3.96 c 0,0 0.152,0.664 0.152,0.75 0,0.082 -0.438,0.021 -0.438,0.021 l -0.75,0.035 c 0,0 -1.086,0.25 -1.219,0.25 -0.739,0.177 -1.445,0.613 -2.055,0.941 L 27.931,5.732 27.775,5.482 27.839,5.228 28.527,5.263 28.843,5.138 28.222,4.824 27.347,4.511 26.468,4.355 25.527,4.546 24.558,5.321 24.12,5.76 23.468,6.479 23.218,6.51 23.12,6.854 23.245,7.198 c 0,0 0.133,0.156 0.156,0.156 0.02,0 0.25,-0.125 0.25,-0.125 0,0 0.027,-0.117 0.156,-0.156 0.133,-0.039 0.25,-0.063 0.25,-0.063 l 0.188,0.375 0.227,0.313 0.09,0.25 c 0,0 0.363,-0.223 0.379,-0.25 0.008,-0.031 0.031,-0.406 0.031,-0.406 l 0.27,-0.189 c 0,0 0.074,-0.133 0.066,-0.156 C 25.296,6.927 25.12,6.728 25.12,6.728 L 24.964,6.665 25.027,6.349 c 0,0 0.125,-0.051 0.125,-0.094 0,-0.039 0.191,-0.189 0.191,-0.189 l 0.219,-0.273 0.156,-0.189 0.219,-0.156 0.254,0.189 0,0.125 -0.223,0.25 -0.066,0.25 0,0.344 0.191,0.156 0.344,-0.031 0.314,-0.063 0.279,0.152 -0.064,0.223 c 0,0 -0.195,0.188 -0.25,0.219 -0.059,0.031 -0.41,-0.063 -0.5,-0.031 -0.09,0.031 -0.314,0.316 -0.314,0.316 0,0 -0.023,0.248 0,0.313 0.012,0.023 -0.004,0.071 -0.012,0.129 l -0.025,0.02 -0.379,0.277 -0.021,0 -0.25,-0.094 c 0,0 -0.162,0.008 -0.229,0.066 -0.063,0.051 -0.119,0.102 -0.313,0.121 -0.191,0.02 -0.563,0 -0.598,0 l -0.219,0 L 23.887,8.15 24.043,7.9 23.766,7.677 c 0,0 -0.184,0.23 -0.191,0.281 -0.004,0.055 0.125,0.277 0.125,0.277 0,0 -0.059,0.184 -0.09,0.223 -0.035,0.039 -0.313,0.125 -0.313,0.125 L 22.858,8.36 c 0,0 -0.18,-0.038 -0.156,0.064 0.027,0.102 0.225,0.195 0.225,0.281 0,0.082 -0.125,0.273 -0.125,0.273 l -0.156,0.189 -0.25,0.254 -0.344,0.09 c 0,0 -0.251,0.07 -0.314,0.094 -0.066,0.023 -0.254,0.066 -0.254,0.066 l -0.25,0.029 -0.156,0.225 0.281,0.189 0.189,0.311 c 0,0 0.119,0.223 0.154,0.223 0.031,0 0.092,0.221 0.092,0.221 l -0.189,0.25 -0.094,0 -0.656,0.125 -0.125,-0.281 -0.434,0.438 -0.191,0.723 0,0.598 0.754,0.406 0.594,-0.223 0.604,-1.063 0.525,-0.652 0.971,-0.156 0.219,-0.188 1.098,1.281 0.121,0.438 0.313,-0.156 -0.09,-0.375 0.188,0 -0.125,-0.254 -1.063,-1 0.094,-0.188 0.344,-0.031 0.75,0.75 0.375,0.441 0,0.688 0.191,0.125 0.375,0.375 0.277,-0.094 -0.152,-0.566 0.094,-0.344 0.188,-0.219 0.439,0.156 0.156,0.063 -0.031,-0.5 0.25,-0.469 0.156,-0.689 0.563,0.098 0.096,0.313 0.221,0.156 0.254,-0.219 -0.156,-0.348 0.656,0 -0.225,0.375 0.438,0.375 0.375,0.189 0.219,0.438 -0.5,0.121 -0.719,-0.154 -0.621,0 -0.598,0.314 -0.125,0.189 -0.436,0.094 0.189,0.469 0.344,0.406 0.625,-0.219 0.156,0.273 0.273,-0.219 0.375,0.064 0.035,0.408 -0.125,0.777 -0.344,-0.031 -0.41,-0.063 -0.188,0.465 -1.375,-0.25 -0.25,-0.316 -0.316,0.281 -0.344,0.469 -0.875,-0.5 -0.875,-0.525 0,-0.941 -0.564,0.031 -0.025,0.313 -1.375,-0.063 -0.439,0.4 -0.844,0.031 -0.566,0.5 -0.344,0.969 -0.875,0.691 -0.625,0.844 -0.031,1.625 -0.188,0.5 -0.043,0.396 c 0.326,0.313 0.609,0.652 0.771,1.033 -0.043,0.037 -0.158,0.14 -0.27,0.242 l 0.068,0.201 0.758,0.906 0.434,0.375 0.441,0.094 0.09,-0.375 1.563,0 0.41,-0.188 0.5,0.063 0.152,0.314 0.523,0.031 0.352,0.25 0,0.529 -0.121,0.439 -0.125,0.344 0.313,0.566 0.406,0.469 0.189,1.188 0.025,0.777 -0.271,0.656 -0.027,0.527 1.047,3.452 0.23,0.305 0.063,0.594 0.096,0.688 0.346,-0.344 0.875,-0.09 0.529,0 0.971,-1.5 0.063,-0.594 0.656,-0.656 0.031,-0.75 0.344,-0.754 0.814,-0.777 0,-0.875 -0.191,-0.813 -0.121,-1.125 0.594,-0.939 1.064,-1.313 0.41,-0.406 0.148,-0.531 0.256,-0.469 0.063,-0.691 -0.594,0 -0.281,0.281 -0.563,-0.156 -0.346,-0.563 -0.279,-0.564 -0.654,-0.5 -0.152,-0.813 -0.281,-0.477 -0.313,-0.594 -0.406,-0.719 -0.094,-0.471 0.438,-0.063 0.25,0.531 0.5,0.938 0.375,0.689 0.41,0.75 0.436,0.723 0.602,0.602 0.535,-0.5 0.594,-0.156 0.436,-0.531 0.6,-0.344 0.344,-0.594 0.031,-0.5 -0.281,-0.316 -0.375,-0.438 -0.25,0.152 -0.156,0.254 -0.404,-0.188 -0.125,-0.314 -0.281,-0.41 -0.434,-0.404 0,-0.814 0.275,0.531 0.344,0.535 0.6,0.344 0.406,-0.094 0.25,0.281 1.783,-0.035 -0.033,0.035 0.564,0.5 0.406,0.563 0.125,0.277 0.275,0 0.096,-0.313 0.094,0.467 0.156,0.846 0.34,0.813 0.189,0.689 0.275,0.654 0.221,0.277 0.313,-0.188 0.094,-0.314 0.125,-0.775 -0.035,-0.688 0.098,-0.119 0.805,-0.922 c 0.137,-0.148 0.287,-0.299 0.287,-0.299 l 0.281,-0.354 0.063,-0.037 2.912,-2.32 C 43.377,13.847 43.427,12.28 42.827,10.757 40.749,7.805 37.996,5.36 34.787,3.653 Z m -23.06,0.902 c -0.598,0.378 -1.16,0.758 -1.719,1.188 l 0.094,0.031 0.531,0.469 0.531,0.125 0.188,-0.719 0.031,-0.438 0.625,0.094 c 0,0 -0.188,0.313 -0.094,0.313 0.094,0 0.469,-0.406 0.469,-0.406 L 11.722,4.564 Z m 6.994,0.826 -0.121,0.406 c 0.449,0.348 0.621,0.344 0.621,0.344 L 19.737,6.014 20.091,5.67 19.862,5.389 Z M 9.849,6.16 c 0,0 -0.436,0.248 -0.854,0.404 C 8.993,6.566 8.991,6.566 8.989,6.568 8.898,6.647 8.809,6.724 8.719,6.804 8.666,6.924 8.69,7.034 8.69,7.034 L 8.655,7.878 7.967,8.441 7.529,9.097 c 0,0 -0.281,-0.188 -0.281,-0.313 0,-0.125 -0.063,-0.471 -0.063,-0.471 L 7.177,8.307 6.972,8.549 c -0.071,2.241 0.088,3.02 0.951,3.316 l 0.146,-0.076 0.625,-0.691 c 0,0 0.934,-0.148 1.121,-0.254 C 10.006,10.754 9.881,10.41 9.69,10.094 9.499,9.781 9.784,9.469 9.784,9.469 l 0.719,-0.436 0.625,0.121 0.066,0.754 c 0,0 0.59,0.565 0.781,0.467 0.188,-0.09 0.27,-0.406 0.27,-0.406 l -0.313,-0.814 0.189,-0.813 -0.844,0.121 0,-1.375 -0.254,0.254 -0.656,0.031 -0.09,-0.688 -0.432,-0.527 z m 11.643,1.012 -0.25,0.219 c -0.066,0.305 -0.15,0.621 -0.15,0.621 l 0.469,0.223 0.063,0.277 -0.25,0.254 -0.219,0.375 0.152,0.156 L 21.87,9.201 22.37,8.98 22.097,8.605 21.995,7.951 21.651,7.576 21.493,7.172 Z M 20.717,8.356 20.436,8.825 20.811,8.981 20.967,8.7 Z m 10.938,1.848 c 0.137,-0.043 0.375,0.154 0.375,0.154 l -0.25,0.221 0.09,0.313 0.281,0.75 0.281,0.469 0.375,0.596 -0.406,0.189 -0.531,-0.344 -0.223,-0.656 c 0,0 -0.303,-0.406 -0.436,-0.469 -0.137,-0.066 -0.254,-0.281 -0.254,-0.281 l 0.125,-0.531 c 0,0 0.431,-0.355 0.564,-0.402 l 0.008,-0.006 0,-0.002 z m -7.906,1.188 -0.375,0.719 0.281,0.281 0.25,-0.223 0.031,-0.309 -0.188,-0.469 z m -1.252,0.752 0,0.188 0.156,-0.029 -0.156,-0.158 z m 2.156,0.467 -0.188,0.064 0.309,0.531 0.281,-0.221 -0.402,-0.375 z m 14.408,7.838 -0.316,0.406 0.156,0.6 0.316,-0.346 C 39.201,20.934 39.181,20.755 39.16,20.576 l -0.1,-0.127 z m -7.01,6.03 0,0.439 c -0.02,0.066 -0.406,0.375 -0.406,0.375 l -0.469,0.219 -0.346,0.281 0.254,0.344 0.156,0.156 -0.41,0.344 0,0.563 0.156,0.596 0.344,0.094 0.41,-0.625 0.25,-0.406 -0.063,-0.5 0.375,-0.594 0.125,-0.281 0,-0.563 -0.098,-0.439 -0.279,-0.002 z"
         style="fill:#afdbec;fill-opacity:1"
         id="path36401" />
      <path
         d="m 30.06,7.813 0.004,0.002 0.008,0.006 c 1.137,0.219 2.094,0.471 2.875,0.814 1.203,0.516 1.977,1.215 2.344,2 -1.117,-0.199 -2.109,-0.149 -3,0.188 4.488,1.712 7.313,3.659 8.475,5.826 l 2.42,-1.93 C 43.244,14.44 43.277,14.067 43.29,13.662 41.987,11.396 39.746,9.586 36.78,8.719 34.897,8.174 32.646,7.888 30.061,7.813 m -22.09,1.75 c -0.325,0.358 -0.624,0.739 -0.926,1.117 0.12,0.683 0.378,1.028 0.877,1.201 l 0.146,-0.078 0.234,-0.26 C 8.193,11.032 8.101,10.427 7.97,9.563 m 10.666,10.729 0.07,0.201 0.756,0.906 0.027,0.023 c 0.045,-0.04 0.098,-0.087 0.168,-0.15 0.88,-0.643 1.953,-1.437 2.857,-1.992 l -0.002,-0.002 c 0.242,-0.16 0.534,-0.294 0.65,-0.852 0.023,-0.039 0.055,-0.063 0.109,-0.07 0.207,-0.41 -0.18,-0.785 -0.254,-0.746 -0.726,0.012 -2.217,-0.135 -2.217,-0.135 0,0 -2.228,0.332 -2.166,2.816 z m 6.727,10.619 0.23,0.305 0.063,0.594 0.07,0.502 1.686,-1.059 c 0.215,-0.156 0.517,-0.136 0.732,-0.185 l 0.328,-0.506 0.063,-0.594 0.287,-0.287 C 28.439,29.354 27.93,29.023 27.156,28.755"
         style="opacity:0.1;fill:#000000;fill-opacity:1"
         id="path36403" />
    </g>
    <path
       d="m 29.07,6.814 0.008,0.006 c 1.137,0.219 2.094,0.471 2.875,0.814 1.203,0.516 1.977,1.215 2.344,2 -1.117,-0.199 -2.109,-0.149 -3,0.188 6.383,2.434 9.416,5.343 9.06,8.688 -0.465,-0.699 -1.093,-1.175 -1.875,-1.406 0.977,3.668 1.06,6.676 0.279,9.06 -0.543,-1.594 -1.063,-2.508 -1.5,-2.844 0.613,4.918 -0.211,8.539 -2.5,10.906 0.441,-1.445 0.598,-2.629 0.5,-3.564 -2.691,3.891 -5.753,5.905 -9.188,6.03 -1.352,-0.016 -2.641,-0.216 -3.844,-0.594 -1.77,-0.57 -3.359,-1.551 -4.781,-2.939 2.219,0.176 4.244,-0.191 6.03,-1.063 1.03,-0.65 2.106,-1.304 3.131,-1.926 0.136,-0.796 0.087,-1.613 -0.451,-2.409 -1.316,-0.516 -2.615,-0.363 -4.086,0.553 -1.469,0.915 -2.985,0.785 -4.406,-0.094 -0.934,-0.617 -1.819,-1.461 -2.688,-2.5 -0.118,-0.152 -0.215,-0.345 -0.313,-0.5 0.043,-1.027 0.437,-1.564 1.281,-1.689 0.957,0.082 2.051,0.281 3.281,0.625 0.207,-1.141 -0.064,-2.334 -0.814,-3.563 l 0.031,-0.125 c 0.075,-0.067 0.395,-0.358 0.469,-0.422 l -1.998,-5.704 c 0,0 -0.194,-0.237 -0.345,-0.439 l 0.031,-0.156 c 0.145,-0.988 0.633,-1.775 1.031,-2.529 0.434,-0.691 1.269,-1.454 2.5,-2.25 -2.281,0.273 -4.352,1.27 -6.188,2.969 -1.52,-0.535 -3.332,-0.422 -5.406,0.344 C 7.315,11.725 7.334,10.926 6.975,8.562 3.272,12.644 1.004,18.053 1.004,24 c 0,12.703 10.297,23 23,23 12.703,0 23,-10.297 23,-23 0,-4.93 -1.547,-9.506 -4.188,-13.25 0.321,1.531 0.362,3.11 0.375,3.969 -0.949,-3.211 -3.586,-5.883 -7.406,-7 C 33.902,7.174 31.651,6.888 29.066,6.813"
       style="fill:url(#linearGradient4225);fill-opacity:1;fill-rule:nonzero;stroke:none"
       id="path36405" />
    <g
       id="g36407">
      <g
         id="g36409">
        <g
           transform="translate(1,1)"
           id="g36411">
          <g
             style="opacity:0.1"
             id="g36413">
            <!-- color: #5fad38 -->
          </g>
        </g>
      </g>
    </g>
    <g
       id="g36415">
      <g
         id="g36417">
        <!-- color: #5fad38 -->
      </g>
    </g>
    <g
       id="g36419">
      <path
         d="m 40.03,7.531 c 3.712,4.084 5.969,9.514 5.969,15.469 0,12.703 -10.297,23 -23,23 C 17.045,46 11.615,43.744 7.53,40.031 11.708,44.322 17.54,47 23.999,47 c 12.703,0 23,-10.298 23,-23 0,-6.462 -2.677,-12.291 -6.969,-16.469 z"
         style="opacity:0.1"
         id="path36421" />
    </g>
    <path
       d="m 26.614,30.17 c 0.328,-0.184 0.746,-0.082 1.059,0 0.309,-0.027 0.91,-0.195 0.672,-0.973 -0.398,-0.469 -1,-1.027 -2.188,-1.438 m 0.457,2.41"
       style="fill:#fbf4ce;fill-opacity:1;fill-rule:nonzero;stroke:none"
       id="path36423" />
    <path
       d="m 19.789,16.472 1.723,1.805 c 0.242,-0.16 0.535,-0.293 0.652,-0.852 0.023,-0.039 0.055,-0.063 0.109,-0.07 0.207,-0.41 -0.18,-0.785 -0.254,-0.746 -0.73,0.012 -1.258,-0.023 -2.23,-0.137"
       style="fill:#2d2d2d;fill-opacity:1;fill-rule:nonzero;stroke:none"
       id="path36425" />
    <path
       d="M 18.676,20.304 C 18.461,19.8 18.114,19.175 17.637,18.796 l 2.969,-1.477 0.91,0.961 c -1.047,0.637 -1.988,1.261 -2.844,2.01"
       style="fill:#fbf4ce;fill-opacity:1;fill-rule:nonzero;stroke:none"
       id="path36427" />
    <path
       d="m 16.899,14.327 c -0.531,1.66 -0.062,3.094 0.731,4.469 l 2.977,-1.477 C 20.212,16.893 19.802,16.475 19.802,16.475 19.497,16.393 19.107,16.143 18.63,15.702"
       style="fill:#b93620;fill-opacity:1;fill-rule:nonzero;stroke:none"
       id="path36429" />
  </g>
</svg>
