<?xml version="1.0" encoding="UTF-8" standalone="no"?>
<svg xmlns="http://www.w3.org/2000/svg" xmlns:osb="http://www.openswatchbook.org/uri/2009/osb" height="32" width="32" version="1.0" xmlns:xlink="http://www.w3.org/1999/xlink">
 <g transform="matrix(.1138 0 0 .1138 -64.82 -29.38)">
  <path style="fill:#3b87a8" d="m569.4 258.1h281.1v281.1h-281.1z"/>
  <g style="opacity:.1;fill:#000907" transform="matrix(1.988 0 0 1.988 619.4 324.6)">
   <path style="fill:#000907;clip-rule:evenodd;fill-rule:evenodd" d="m50.07 24.74c6.475 0 11.73 5.208 11.73 11.62 0 6.423-5.259 11.63-11.73 11.63-6.48 0-11.73-5.208-11.73-11.63 0-6.417 5.253-11.62 11.73-11.62"/>
   <path style="fill:#000907;clip-rule:evenodd;fill-rule:evenodd" d="m63.21 32.22 0.093 0.092c14.1-2.42 26.85-9.807 35.92-20.8l0.012-0.023c0.5-0.56 0.77-1.26 0.77-1.99 0-1.697-1.42-3.067-3.17-3.067-0.179 0-0.351 0.011-0.528 0.04l-0.09-0.109c-14.13 2.294-26.95 9.586-36.11 20.53l0.172 0.029c1.422 1.543 2.474 3.384 3.083 5.396z"/>
   <path style="fill:#000907;clip-rule:evenodd;fill-rule:evenodd" d="m3.596 6.535 0.098-0.062c-0.175-0.029-0.35-0.04-0.522-0.04-1.749 0-3.172 1.37-3.172 3.067 0 0.7 0.247 1.382 0.703 1.928l0.043 0.045c9.012 11.02 21.73 18.42 35.8 20.84l-0.006 0.006c0.608-2.002 1.663-3.842 3.088-5.38l-0.01-0.06c-9.11-10.94-21.89-18.23-35.97-20.53z"/>
   <path style="fill:#000907;clip-rule:evenodd;fill-rule:evenodd" d="m52.95 49.87v0.022c-1.001 0.195-2.026 0.299-3.062 0.299-1.063 0-2.124-0.109-3.165-0.321l-0.089 0.132c-2.392 6.526-3.613 13.42-3.613 20.38 0 7.197 1.308 14.33 3.866 21.06l0.04 0.086c0.464 1.273 1.646 2.11 2.961 2.11 1.316 0 2.498-0.837 2.968-2.11l-0.062-0.086c2.552-6.727 3.859-13.86 3.859-21.06 0-6.951-1.221-13.85-3.607-20.38z"/>
  </g>
  <g style="fill:#002f23" transform="matrix(1.988 0 0 1.988 610.5 315.8)">
   <path style="fill-rule:evenodd;fill:#002f23;clip-rule:evenodd" d="m50.07 24.74c6.475 0 11.73 5.208 11.73 11.62 0 6.423-5.259 11.63-11.73 11.63-6.48 0-11.73-5.208-11.73-11.63 0-6.417 5.253-11.62 11.73-11.62"/>
   <path style="fill-rule:evenodd;fill:#002f23;clip-rule:evenodd" d="m63.21 32.22 0.093 0.092c14.1-2.42 26.85-9.807 35.92-20.8l0.012-0.023c0.5-0.56 0.77-1.26 0.77-1.99 0-1.697-1.42-3.067-3.17-3.067-0.179 0-0.351 0.011-0.528 0.04l-0.09-0.109c-14.13 2.294-26.95 9.586-36.11 20.53l0.172 0.029c1.422 1.543 2.474 3.384 3.083 5.396z"/>
   <path style="fill-rule:evenodd;fill:#002f23;clip-rule:evenodd" d="m3.596 6.535 0.098-0.062c-0.175-0.029-0.35-0.04-0.522-0.04-1.749 0-3.172 1.37-3.172 3.067 0 0.7 0.247 1.382 0.703 1.928l0.043 0.045c9.012 11.02 21.73 18.42 35.8 20.84l-0.006 0.006c0.608-2.002 1.663-3.842 3.088-5.38l-0.01-0.06c-9.11-10.94-21.89-18.23-35.97-20.53z"/>
   <path style="fill-rule:evenodd;fill:#002f23;clip-rule:evenodd" d="m52.95 49.87v0.022c-1.001 0.195-2.026 0.299-3.062 0.299-1.063 0-2.124-0.109-3.165-0.321l-0.089 0.132c-2.392 6.526-3.613 13.42-3.613 20.38 0 7.197 1.308 14.33 3.866 21.06l0.04 0.086c0.464 1.273 1.646 2.11 2.961 2.11 1.316 0 2.498-0.837 2.968-2.11l-0.062-0.086c2.552-6.727 3.859-13.86 3.859-21.06 0-6.951-1.221-13.85-3.607-20.38z"/>
  </g>
 </g>
</svg>
