<?xml version="1.0" encoding="UTF-8" standalone="no"?>
<svg xmlns="http://www.w3.org/2000/svg" xmlns:osb="http://www.openswatchbook.org/uri/2009/osb" height="32" width="32" version="1.0" xmlns:xlink="http://www.w3.org/1999/xlink">
 <defs>
  <linearGradient id="a">
   <stop style="stop-color:#eee" offset="0"/>
   <stop style="stop-color:#eee;stop-opacity:0" offset="1"/>
  </linearGradient>
  <linearGradient id="k" y2="452.4" xlink:href="#a" gradientUnits="userSpaceOnUse" y1="551.6" gradientTransform="matrix(.3124 0 0 .3124 678.7 288.6)" x2="255" x1="256.4"/>
  <linearGradient id="e" y2="502.4" xlink:href="#a" gradientUnits="userSpaceOnUse" y1="503.1" gradientTransform="matrix(.3124 0 0 .3124 -429.9 537.4)" x2="398.6" x1="100.7"/>
  <linearGradient id="d" y2="502.4" xlink:href="#a" gradientUnits="userSpaceOnUse" y1="503.1" gradientTransform="matrix(.2079 0 0 .3135 -450.6 568.1)" x2="398.6" x1="100.7"/>
  <linearGradient id="i" y2="452.4" xlink:href="#a" gradientUnits="userSpaceOnUse" y1="551.6" gradientTransform="matrix(.3124 0 0 .3124 585 257.3)" x2="255" x1="256.4"/>
  <linearGradient id="h" y2="452.4" xlink:href="#a" gradientUnits="userSpaceOnUse" y1="551.6" gradientTransform="matrix(.3124 0 0 .3124 678.7 194.9)" x2="255" x1="256.4"/>
  <linearGradient id="g" y2="452.4" xlink:href="#a" gradientUnits="userSpaceOnUse" y1="551.6" gradientTransform="matrix(.2079 0 0 .3135 626.7 288)" x2="255" x1="256.4"/>
  <linearGradient id="f" y2="452.4" xlink:href="#a" gradientUnits="userSpaceOnUse" y1="551.6" gradientTransform="matrix(.2079 0 0 .3135 689.2 163.1)" x2="255" x1="256.4"/>
  <linearGradient id="j" y2="452.4" xlink:href="#a" gradientUnits="userSpaceOnUse" y1="551.6" gradientTransform="matrix(.3124 0 0 .3124 647.5 319.8)" x2="255" x1="256.4"/>
  <linearGradient id="c" y2="502.4" xlink:href="#a" gradientUnits="userSpaceOnUse" y1="503.1" gradientTransform="matrix(.2079 0 0 .3135 -388.1 505.6)" x2="398.6" x1="100.7"/>
  <linearGradient id="b" y2="592.4" gradientUnits="userSpaceOnUse" y1="790.2" gradientTransform="matrix(.3124 0 0 .3124 616.3 163.6)" x2="97.14" x1="102.1">
   <stop offset="0"/>
   <stop style="stop-opacity:0" offset="1"/>
  </linearGradient>
 </defs>
 <g transform="matrix(.1138 0 0 .1138 -64.82 -29.38)">
  <g style="opacity:.1" transform="translate(7.572 8.203)">
   <rect style="opacity:1;fill-rule:evenodd" ry="3.724" height="30.62" width="93.09" y="430.2" x="710.3"/>
   <rect style="opacity:1;fill-rule:evenodd" transform="rotate(-90)" ry="3.724" height="30.62" width="93.09" y="679" x="-398.3"/>
   <rect style="opacity:1;fill-rule:evenodd" transform="rotate(-90)" ry="3.738" height="30.73" width="61.97" y="710.2" x="-429.6"/>
   <rect style="opacity:1;fill-rule:evenodd" ry="3.724" height="30.62" width="93.09" y="398.9" x="616.6"/>
   <rect style="opacity:1;fill-rule:evenodd" ry="3.738" height="30.73" width="61.97" y="367.7" x="616.5"/>
   <rect style="opacity:1;fill-rule:evenodd" ry="3.724" height="30.62" width="93.09" y="336.5" x="710.3"/>
   <rect style="opacity:1;fill-rule:evenodd" ry="3.738" height="30.73" width="61.97" y="430.1" x="647.7"/>
   <rect style="opacity:1;fill-rule:evenodd" ry="3.738" height="30.73" width="61.97" y="305.2" x="710.2"/>
   <rect style="opacity:1;fill-rule:evenodd" ry="3.724" height="30.62" width="93.09" y="461.4" x="679"/>
   <rect style="opacity:1;fill-rule:evenodd" transform="rotate(-90)" ry="3.738" height="30.73" width="61.97" y="647.7" x="-367.2"/>
  </g>
  <rect style="fill:#aaa;fill-opacity:.6667;fill-rule:evenodd" ry="0" height="281.1" width="281.1" y="258.1" x="569.4"/>
  <rect style="stroke-linejoin:round;fill-rule:evenodd;stroke:url(#k);stroke-linecap:round;stroke-miterlimit:0;stroke-width:.6165;fill:#444" ry="3.724" height="30.62" width="93.09" y="430.2" x="710.3"/>
  <rect ry="3.724" style="stroke-linejoin:round;fill-rule:evenodd;stroke:url(#e);stroke-linecap:round;stroke-miterlimit:0;stroke-width:.6165;fill:#444" transform="rotate(-90)" height="30.62" width="93.09" y="679" x="-398.3"/>
  <rect ry="3.738" style="stroke-linejoin:round;fill-rule:evenodd;stroke:url(#d);stroke-linecap:round;stroke-miterlimit:0;stroke-width:.5039;fill:#444" transform="rotate(-90)" height="30.73" width="61.97" y="710.2" x="-429.6"/>
  <rect style="stroke-linejoin:round;fill-rule:evenodd;stroke:url(#i);stroke-linecap:round;stroke-miterlimit:0;stroke-width:.6165;fill:#444" ry="3.724" height="30.62" width="93.09" y="398.9" x="616.6"/>
  <rect style="stroke-linejoin:round;fill-opacity:.6419;fill-rule:evenodd;stroke:url(#b);stroke-linecap:round;stroke-miterlimit:0;stroke-width:.5039;fill:#fff" ry="3.738" height="30.73" width="61.97" y="367.7" x="616.5"/>
  <rect style="stroke-linejoin:round;fill-rule:evenodd;stroke:url(#h);stroke-linecap:round;stroke-miterlimit:0;stroke-width:.6165;fill:#444" ry="3.724" height="30.62" width="93.09" y="336.5" x="710.3"/>
  <rect style="stroke-linejoin:round;fill-rule:evenodd;stroke:url(#g);stroke-linecap:round;stroke-miterlimit:0;stroke-width:.5039;fill:#444" ry="3.738" height="30.73" width="61.97" y="430.1" x="647.7"/>
  <rect style="stroke-linejoin:round;fill-rule:evenodd;stroke:url(#f);stroke-linecap:round;stroke-miterlimit:0;stroke-width:.5039;fill:#444" ry="3.738" height="30.73" width="61.97" y="305.2" x="710.2"/>
  <rect style="stroke-linejoin:round;fill-rule:evenodd;stroke:url(#j);stroke-linecap:round;stroke-miterlimit:0;stroke-width:.6165;fill:#444" ry="3.724" height="30.62" width="93.09" y="461.4" x="679"/>
  <rect ry="3.738" style="stroke-linejoin:round;fill-rule:evenodd;stroke:url(#c);stroke-linecap:round;stroke-miterlimit:0;stroke-width:.5039;fill:#444" transform="rotate(-90)" height="30.73" width="61.97" y="647.7" x="-367.2"/>
 </g>
</svg>
