<?xml version="1.0" encoding="UTF-8" standalone="no"?>
<svg xmlns="http://www.w3.org/2000/svg" xmlns:osb="http://www.openswatchbook.org/uri/2009/osb" height="32" width="32" version="1.0" xmlns:xlink="http://www.w3.org/1999/xlink">
 <g transform="matrix(.1138 0 0 .1138 -64.82 -29.38)">
  <path style="fill:#9a8ca4" d="m569.4 258.1h281.1v281.1h-281.1z"/>
  <path style="opacity:.1" d="m632.8 443c-2.827-3.258-5.166-6.141-5.166-6.364-0.0556-0.3203 2.618-1.574 5.876-2.994 12.78-5.222 25.4-12.67 40.26-23.71 3.481-2.618 6.364-5.055 6.364-5.542 0-0.4317-0.8773-1.574-1.963-2.618-3.76-3.481-13.33-15.29-17.24-21.38-3.857-5.932-9.901-17.84-9.901-19.52 0-0.5431 3.161-0.8216 9.901-0.8216h9.845l2.618 5.765c3.161 6.963 9.58 16.81 14.96 22.95 2.172 2.451 4.191 4.567 4.512 4.679 0.6545 0.2785 7.728-7.673 12.35-13.81 7.185-9.525 13.76-25.83 13.76-34.27v-7.394h-89.8v-13.87l24.09 0.1114 31.61-0.1114v-13.93h13.93v13.93l55.7 0.1114v13.76h-17.52l-0.4874 8.48c-1.963 17.09-12.46 36.5-29.27 53.96l-3.314 3.426 3.203 2.618c1.796 1.42 5.111 3.857 7.506 5.389 2.339 1.574 4.303 2.994 4.303 3.161 0 0.2228-0.8773 1.462-1.908 2.771-2.061 2.771-4.08 7.993-4.08 10.61 0 0.9748-0.2228 1.796-0.4317 1.796-0.2785 0-4.303-2.938-9.023-6.531-4.735-3.593-9.246-7.018-10.01-7.561-1.629-1.142-0.3203-1.963-12.84 7.561-4.735 3.593-12.41 8.87-17.03 11.75-8.272 5.111-23.77 13.44-25.13 13.44-0.3203 0-2.938-2.66-5.765-5.876m0.1114 0.0556"/>
  <path style="fill:#535352" d="m623.8 434c-2.827-3.258-5.166-6.141-5.166-6.364-0.0556-0.3203 2.618-1.574 5.876-2.994 12.78-5.222 25.4-12.67 40.26-23.71 3.481-2.618 6.364-5.055 6.364-5.542 0-0.4317-0.8773-1.574-1.963-2.618-3.76-3.481-13.33-15.29-17.24-21.38-3.857-5.932-9.901-17.84-9.901-19.52 0-0.5431 3.161-0.8216 9.901-0.8216h9.845l2.618 5.765c3.161 6.963 9.58 16.81 14.96 22.95 2.172 2.451 4.191 4.567 4.512 4.679 0.6545 0.2785 7.728-7.673 12.35-13.81 7.185-9.525 13.76-25.83 13.76-34.27v-7.394h-89.8v-13.87l24.09 0.1114 31.61-0.1114v-13.93h13.93v13.93l55.7 0.1114v13.76h-17.52l-0.4874 8.48c-1.963 17.09-12.46 36.5-29.27 53.96l-3.314 3.426 3.203 2.618c1.796 1.42 5.111 3.857 7.506 5.389 2.339 1.574 4.303 2.994 4.303 3.161 0 0.2228-0.8773 1.462-1.908 2.771-2.061 2.771-4.08 7.993-4.08 10.61 0 0.9748-0.2228 1.796-0.4317 1.796-0.2785 0-4.303-2.938-9.023-6.531-4.735-3.593-9.246-7.018-10.01-7.561-1.629-1.142-0.3203-1.963-12.84 7.561-4.735 3.593-12.41 8.87-17.03 11.75-8.272 5.111-23.77 13.44-25.13 13.44-0.3203 0-2.938-2.66-5.765-5.876m0.1114 0.0556"/>
  <path d="m754.5 393.6-41.78 111.4h13.93l10.44-27.85h48.74l10.44 27.85h13.93l-41.6-111.4zm7.235 13.98 20.62 55.7h-41.78z" style="opacity:.1"/>
  <path style="fill:#fafafa" d="m745.6 384.7-41.78 111.4h13.93l10.44-27.85h48.74l10.44 27.85h13.93l-41.6-111.3zm7.235 13.98 20.62 55.7h-41.78z"/>
  <path style="opacity:.1" d="m632.8 364.3"/>
  <path style="fill:#367ff3" d="m623.9 355.4"/>
 </g>
</svg>
