<?xml version="1.0" encoding="UTF-8" standalone="no"?>
<svg xmlns:rdf="http://www.w3.org/1999/02/22-rdf-syntax-ns#" xmlns="http://www.w3.org/2000/svg" xmlns:osb="http://www.openswatchbook.org/uri/2009/osb" height="32" width="32" version="1.0" xmlns:cc="http://creativecommons.org/ns#" xmlns:xlink="http://www.w3.org/1999/xlink" xmlns:dc="http://purl.org/dc/elements/1.1/">
 <path style="color:#000000;fill:#b1e9b7" d="m0 0v32h32v-32z"/>
 <g transform="matrix(.8996 0 0 .8996 -5.272 -4.277)">
  <path style="fill-opacity:0.098" d="m23 12v2h-2v4h2v2h-2v2h-2v2h-2v6h2v2h2v2h8v-2h2v-2h2v-6h-2v-2h-2v-2h-2v-2h2v-4h-2v-2zm8 10h2v-2h2v-2h-4zm0 10v4h4v-2h-2v-2zm-12 0h-2v2h-2v2h4zm0-10v-4h-4v2h2v2z"/>
  <path style="fill:#348c35" d="m22 11v2h-2v4h2v2h-2v2h-2v2h-2v6h2v2h2v2h8v-2h2v-2h2v-6h-2v-2h-2v-2h-2v-2h2v-4h-2v-2zm8 10h2v-2h2v-2h-4zm0 10v4h4v-2h-2v-2zm-12 0h-2v2h-2v2h4zm0-10v-4h-4v2h2v2z"/>
 </g>
</svg>
