<?xml version="1.0" encoding="UTF-8" standalone="no"?>
<svg
   xmlns:dc="http://purl.org/dc/elements/1.1/"
   xmlns:cc="http://creativecommons.org/ns#"
   xmlns:rdf="http://www.w3.org/1999/02/22-rdf-syntax-ns#"
   xmlns:svg="http://www.w3.org/2000/svg"
   xmlns="http://www.w3.org/2000/svg"
   id="svg2"
   viewBox="0 0 32 32"
   version="1.1"
   width="32"
   height="32">
  <metadata
     id="metadata12">
    <rdf:RDF>
      <cc:Work
         rdf:about="">
        <dc:format>image/svg+xml</dc:format>
        <dc:type
           rdf:resource="http://purl.org/dc/dcmitype/StillImage" />
        <dc:title></dc:title>
      </cc:Work>
    </rdf:RDF>
  </metadata>
  <defs
     id="defs10" />
  <path
     id="path4"
     d="m0 0v32h32v-32z"
     fill="#333" />
  <path
     style="color:#000000;isolation:auto;mix-blend-mode:normal;solid-color:#000000;fill:#000000;fill-opacity:1;color-rendering:auto;image-rendering:auto;shape-rendering:auto;opacity:0.1"
     d="m 16.774963,5.8929698 a 10.96,10.96 0 0 0 -10.96,10.9599932 10.96,10.96 0 0 0 10.96,10.96 10.96,10.96 0 0 0 10.96,-10.96 10.96,10.96 0 0 0 -10.96,-10.9599932 z"
     id="path4171" />
  <path
     id="path4150"
     d="M 15.96,5.078 A 10.96,10.96 0 0 0 5,16.038 10.96,10.96 0 0 0 15.96,26.998 10.96,10.96 0 0 0 26.92,16.038 10.96,10.96 0 0 0 15.96,5.078 Z"
     style="color-rendering:auto;color:#000000;isolation:auto;mix-blend-mode:normal;shape-rendering:auto;solid-color:#000000;image-rendering:auto;fill:#f32326;fill-opacity:1" />
  <g
     style="fill:#000000;fill-opacity:1;opacity:0.1"
     transform="translate(0.814963,0.81497048)"
     id="g4159">
    <path
       id="path4161"
       d="m 19.958,8.658 c 1.506,0.03626 2.676,0.4875 3.709,1.547 0.779,0.7987 1.164,1.789 1.164,2.682 0,0.6247 -0.1916,1.368 -0.4785,1.854 -0.2515,0.4261 -0.8336,0.9884 -1.068,1.088 -0.0888,0.03763 -0.1902,0.09456 -0.1875,0.0957 0.006,0.0023 0.1599,0.1101 0.332,0.207 0.7262,0.409 1.338,1.319 1.482,2.205 0.309,1.894 -0.8544,3.74 -2.918,4.635 -0.9318,0.4038 -2.089,0.5424 -3.25,0.3906 -2.29,-0.2994 -3.808,-1.575 -4.227,-3.549 -0.0575,-0.2712 -0.1048,-0.5661 -0.1055,-0.6562 l -0.002,-0.1641 1.854,0 1.852,0 0.08594,0.2617 c 0.1119,0.339 0.4809,0.7542 0.7793,0.8789 0.5543,0.2316 1.598,0.0629 1.932,-0.3125 0.3463,-0.39 0.4042,-1.369 0.1699,-1.863 -0.2366,-0.4987 -0.8735,-0.6862 -1.855,-0.7285 l -0.8086,-0.0078 0,-1.264 0,-1.264 0.6523,0 c 1.122,0 1.67,-0.1967 2.025,-0.7246 0.3196,-0.4743 0.1787,-1.611 -0.2461,-1.988 -0.4008,-0.3559 -1.272,-0.4582 -1.812,-0.2129 -0.3537,0.1607 -0.7189,0.5594 -0.8359,0.9141 l -0.08594,0.2617 -1.852,0 -1.854,0 0,-0.166 c 0,-0.263 0.2037,-0.9753 0.375,-1.312 0.5558,-1.094 1.274,-1.861 2.129,-2.271 0.7116,-0.3423 1.301,-0.4727 2.379,-0.5254 0.2294,-0.01122 0.4509,-0.01494 0.666,-0.00977 z"
       style="color:#000000;isolation:auto;mix-blend-mode:normal;solid-color:#000000;fill:#000000;fill-opacity:1;color-rendering:auto;image-rendering:auto;shape-rendering:auto" />
    <path
       id="path4163"
       d="m 6.958,11.17 8.672,4.809 -1.457,0.8027 -7.215,-4.01 0,-0.1445 0,-1.457 z"
       style="color:#000000;isolation:auto;mix-blend-mode:normal;solid-color:#000000;fill:#000000;fill-opacity:1;color-rendering:auto;image-rendering:auto;shape-rendering:auto" />
    <path
       id="path4165"
       d="m 6.958,13.647 6.34,3.572 0.1074,0.05469 -1.42,0.7461 -5.029,-2.77 0,-1.604 z"
       style="color:#000000;isolation:auto;mix-blend-mode:normal;solid-color:#000000;fill:#000000;fill-opacity:1;color-rendering:auto;image-rendering:auto;shape-rendering:auto" />
    <path
       id="path4167"
       d="m 6.958,16.198 4.154,2.332 -1.312,0.7285 -2.842,-1.604 0,-0.1445 0,-1.312 z"
       style="color:#000000;isolation:auto;mix-blend-mode:normal;solid-color:#000000;fill:#000000;fill-opacity:1;color-rendering:auto;image-rendering:auto;shape-rendering:auto" />
    <path
       id="path4169"
       d="m 6.958,18.604 1.967,1.166 -1.967,1.092 0,-2.258 z"
       style="color:#000000;isolation:auto;mix-blend-mode:normal;solid-color:#000000;fill:#000000;fill-opacity:1;color-rendering:auto;image-rendering:auto;shape-rendering:auto" />
  </g>
  <g
     id="g4152">
    <path
       style="color-rendering:auto;color:#000000;isolation:auto;mix-blend-mode:normal;shape-rendering:auto;solid-color:#000000;image-rendering:auto;fill:#ffffff;fill-opacity:1"
       d="m 19.958,8.658 c 1.506,0.03626 2.676,0.4875 3.709,1.547 0.779,0.7987 1.164,1.789 1.164,2.682 0,0.6247 -0.1916,1.368 -0.4785,1.854 -0.2515,0.4261 -0.8336,0.9884 -1.068,1.088 -0.0888,0.03763 -0.1902,0.09456 -0.1875,0.0957 0.006,0.0023 0.1599,0.1101 0.332,0.207 0.7262,0.409 1.338,1.319 1.482,2.205 0.309,1.894 -0.8544,3.74 -2.918,4.635 -0.9318,0.4038 -2.089,0.5424 -3.25,0.3906 -2.29,-0.2994 -3.808,-1.575 -4.227,-3.549 -0.0575,-0.2712 -0.1048,-0.5661 -0.1055,-0.6562 l -0.002,-0.1641 1.854,0 1.852,0 0.08594,0.2617 c 0.1119,0.339 0.4809,0.7542 0.7793,0.8789 0.5543,0.2316 1.598,0.0629 1.932,-0.3125 0.3463,-0.39 0.4042,-1.369 0.1699,-1.863 -0.2366,-0.4987 -0.8735,-0.6862 -1.855,-0.7285 l -0.8086,-0.0078 0,-1.264 0,-1.264 0.6523,0 c 1.122,0 1.67,-0.1967 2.025,-0.7246 0.3196,-0.4743 0.1787,-1.611 -0.2461,-1.988 -0.4008,-0.3559 -1.272,-0.4582 -1.812,-0.2129 -0.3537,0.1607 -0.7189,0.5594 -0.8359,0.9141 l -0.08594,0.2617 -1.852,0 -1.854,0 0,-0.166 c 0,-0.263 0.2037,-0.9753 0.375,-1.312 0.5558,-1.094 1.274,-1.861 2.129,-2.271 0.7116,-0.3423 1.301,-0.4727 2.379,-0.5254 0.2294,-0.01122 0.4509,-0.01494 0.666,-0.00977 z"
       id="path4148" />
    <path
       style="color-rendering:auto;color:#000000;isolation:auto;mix-blend-mode:normal;shape-rendering:auto;solid-color:#000000;image-rendering:auto;fill:#ffffff;fill-opacity:1"
       d="m 6.958,11.17 8.672,4.809 -1.457,0.8027 -7.215,-4.01 0,-0.1445 0,-1.457 z"
       id="path4146" />
    <path
       style="color-rendering:auto;color:#000000;isolation:auto;mix-blend-mode:normal;shape-rendering:auto;solid-color:#000000;image-rendering:auto;fill:#ffffff;fill-opacity:1"
       d="m 6.958,13.647 6.34,3.572 0.1074,0.05469 -1.42,0.7461 -5.029,-2.77 0,-1.604 z"
       id="path4144" />
    <path
       style="color-rendering:auto;color:#000000;isolation:auto;mix-blend-mode:normal;shape-rendering:auto;solid-color:#000000;image-rendering:auto;fill:#ffffff;fill-opacity:1"
       d="m 6.958,16.198 4.154,2.332 -1.312,0.7285 -2.842,-1.604 0,-0.1445 0,-1.312 z"
       id="path4142" />
    <path
       style="color-rendering:auto;color:#000000;isolation:auto;mix-blend-mode:normal;shape-rendering:auto;solid-color:#000000;image-rendering:auto;fill:#ffffff;fill-opacity:1"
       d="m 6.958,18.604 1.967,1.166 -1.967,1.092 0,-2.258 z"
       id="path6" />
  </g>
</svg>
