<?xml version="1.0" encoding="UTF-8" standalone="no"?>
<svg
   xmlns:dc="http://purl.org/dc/elements/1.1/"
   xmlns:cc="http://creativecommons.org/ns#"
   xmlns:rdf="http://www.w3.org/1999/02/22-rdf-syntax-ns#"
   xmlns:svg="http://www.w3.org/2000/svg"
   xmlns="http://www.w3.org/2000/svg"
   id="svg2"
   version="1.0"
   width="32"
   height="32">
  <metadata
     id="metadata14">
    <rdf:RDF>
      <cc:Work
         rdf:about="">
        <dc:format>image/svg+xml</dc:format>
        <dc:type
           rdf:resource="http://purl.org/dc/dcmitype/StillImage" />
        <dc:title></dc:title>
      </cc:Work>
    </rdf:RDF>
  </metadata>
  <defs
     id="defs12" />
  <path
     id="path4"
     d="m0 0v32h32v-32z"
     style="color:#000000;fill:#6c9bd4;fill-opacity:1" />
  <path
     style="color:#000000;isolation:auto;mix-blend-mode:normal;solid-color:#000000;fill:#000000;fill-opacity:1;color-rendering:auto;image-rendering:auto;shape-rendering:auto;opacity:0.1"
     d="m 6.3895422,16.979549 q 0,2.931 1.444,5.405 1.444,2.474 3.9190068,3.919 2.475,1.445 5.405,1.444 2.93,-9e-4 5.405,-1.444 2.475,-1.4431 3.919,-3.919 1.444,-2.4759 1.444,-5.405 0,-2.9291 -1.444,-5.405 -1.444,-2.4759068 -3.919,-3.9190068 -2.475,-1.4431 -5.405,-1.444 -2.93,-9e-4 -5.405,1.444 -2.4750068,1.4449 -3.9190068,3.9190068 -1.444,2.4741 -1.444,5.405 z"
     id="path4184" />
  <path
     id="path8"
     d="m 5.237,15.827 q 0,2.931 1.444,5.405 1.444,2.474 3.919,3.919 2.475,1.445 5.405,1.444 2.93,-9e-4 5.405,-1.444 2.475,-1.4431 3.919,-3.919 1.444,-2.4759 1.444,-5.405 0,-2.9291 -1.444,-5.405 Q 23.885,7.9461 21.41,6.503 18.935,5.0599 16.005,5.059 13.075,5.0581 10.6,6.503 8.125,7.9479 6.681,10.422 5.237,12.8961 5.237,15.827 Z"
     style="color-rendering:auto;color:#000000;isolation:auto;mix-blend-mode:normal;shape-rendering:auto;solid-color:#000000;image-rendering:auto;fill:#ff0000;fill-opacity:1" />
  <path
     id="path4144"
     d="m 8.378,15.827 q 0,-2.075 1.024,-3.828 1.024,-1.754 2.777,-2.777 1.753,-1.023 3.828,-1.024 2.076,-9e-4 3.828,1.024 1.753,1.025 2.777,2.777 1.024,1.752 1.024,3.828 0,2.077 -1.024,3.828 -1.024,1.752 -2.777,2.777 -1.753,1.025 -3.828,1.024 -2.076,-9e-4 -3.828,-1.024 Q 10.426,21.409 9.402,19.655 8.378,17.901 8.378,15.827 Z"
     style="color:#000000;isolation:auto;mix-blend-mode:normal;solid-color:#000000;fill:#ffffff;fill-opacity:1;color-rendering:auto;image-rendering:auto;shape-rendering:auto" />
  <path
     style="color:#000000;isolation:auto;mix-blend-mode:normal;solid-color:#000000;fill:#000000;fill-opacity:1;color-rendering:auto;image-rendering:auto;shape-rendering:auto;opacity:0.1"
     d="m 13.22958,11.045986 0,7.599609 7.179687,3.591797 0,-7.601562 -7.179687,-3.589844 z m 5.384765,4.697266 0,3.589843 -3.589843,-1.794922 3.589843,-1.794921 z"
     id="path4188" />
  <path
     id="path4146"
     d="m 12.416016,10.232422 0,7.599609 7.179687,3.591797 0,-7.601562 -7.179687,-3.589844 z m 5.384765,4.697266 0,3.589843 -3.589843,-1.794922 3.589843,-1.794921 z"
     style="color:#000000;isolation:auto;mix-blend-mode:normal;solid-color:#000000;fill:#ff0000;fill-opacity:1;color-rendering:auto;image-rendering:auto;shape-rendering:auto" />
</svg>
