<?xml version="1.0" encoding="UTF-8" standalone="no"?>
<svg xmlns:rdf="http://www.w3.org/1999/02/22-rdf-syntax-ns#" xmlns="http://www.w3.org/2000/svg" height="32" width="32" version="1.0" xmlns:cc="http://creativecommons.org/ns#" xmlns:dc="http://purl.org/dc/elements/1.1/">
 <path d="m0 0v32h32v-32z" style="fill:#e9e9e9" fill="#333"/>
 <g style="opacity:.1">
  <path style="opacity:1;color-rendering:auto;color:#000000;isolation:auto;mix-blend-mode:normal;shape-rendering:auto;solid-color:#000000;image-rendering:auto" d="m16.61 5.761c-2.433-0.0001852-4.406 1.971-4.406 4.404 0.00004 0.5358 0.09629 1.05 0.2715 1.525l0.002 0.0078 4.076 10.8c-0.09-0.11 4.26-11.03 4.26-11.03v-0.0078c0.1257-0.4094 0.1933-0.8443 0.1933-1.295 0.000166-2.433-1.971-4.404-4.404-4.404zm0 3.004a1.401 1.401 0 0 1 1.4 1.4 1.401 1.401 0 0 1 -1.4 1.4 1.401 1.401 0 0 1 -1.4 -1.4 1.401 1.401 0 0 1 1.4 -1.4z"/>
  <path style="opacity:1;color-rendering:auto;color:#000000;isolation:auto;mix-blend-mode:normal;shape-rendering:auto;solid-color:#000000;image-rendering:auto" d="m20.15 16.93c-0.1415 0.3582-0.1544 0.3885-0.3017 0.762a5.074 5.074 0 0 1 1.837 3.905 5.074 5.074 0 0 1 -5.074 5.074 5.074 5.074 0 0 1 -5.074 -5.074 5.074 5.074 0 0 1 1.74 -3.817l-0.294-0.7805a5.862 5.862 0 0 0 -2.235 4.598 5.862 5.862 0 0 0 5.862 5.862 5.862 5.862 0 0 0 5.862 -5.862 5.862 5.862 0 0 0 -2.323 -4.667z"/>
 </g>
 <path style="color-rendering:auto;color:#000000;isolation:auto;mix-blend-mode:normal;shape-rendering:auto;solid-color:#000000;image-rendering:auto;fill:#ff4646" d="m16 5.152c-2.43 0-4.41 1.972-4.41 4.405 0 0.533 0.1 1.053 0.28 1.523v0.01l4.07 10.8c-0.08-0.11 4.27-11.03 4.27-11.03v-0.01c0.13-0.41 0.19-0.84 0.19-1.293 0-2.433-1.97-4.404-4.4-4.405zm0 3.004a1.401 1.401 0 0 1 1.4 1.401 1.401 1.401 0 0 1 -1.4 1.403 1.401 1.401 0 0 1 -1.4 -1.403 1.401 1.401 0 0 1 1.4 -1.401z"/>
 <path style="color-rendering:auto;color:#000000;isolation:auto;mix-blend-mode:normal;shape-rendering:auto;solid-color:#000000;image-rendering:auto;fill:#095458" d="m19.54 16.32c-0.1415 0.3582-0.1544 0.3885-0.3017 0.762a5.074 5.074 0 0 1 1.83 3.91 5.074 5.074 0 0 1 -5.07 5.07 5.074 5.074 0 0 1 -5.07 -5.07 5.074 5.074 0 0 1 1.74 -3.82l-0.3-0.78a5.862 5.862 0 0 0 -2.23 4.6 5.862 5.862 0 0 0 5.86 5.86 5.862 5.862 0 0 0 5.862 -5.862 5.862 5.862 0 0 0 -2.323 -4.667z"/>
</svg>
