<?xml version="1.0" encoding="UTF-8" standalone="no"?>
<svg xmlns:rdf="http://www.w3.org/1999/02/22-rdf-syntax-ns#" xmlns="http://www.w3.org/2000/svg" xmlns:osb="http://www.openswatchbook.org/uri/2009/osb" height="32" width="32" version="1.0" xmlns:cc="http://creativecommons.org/ns#" xmlns:xlink="http://www.w3.org/1999/xlink" xmlns:dc="http://purl.org/dc/elements/1.1/">
 <path style="color:#000000;fill:#d2d2d2" d="m0 0v32h32v-32z"/>
 <g transform="matrix(.09620 0 0 .09620 -39.05 11.42)">
  <g transform="matrix(10.4 0 0 10.4 -31.03 -418)">
   <path style="opacity:.1" d="m47.35 38.18v14.1h17.63l7.052-7.052-7.052-7.052zm2.645 2.645h13.22l4.408 4.408-4.408 4.408h-13.22zm13.22 2.645c-0.9741 0-1.763 0.789-1.763 1.763 0 0.9741 0.789 1.763 1.763 1.763 0.9741 0 1.763-0.789 1.763-1.763 0-0.9741-0.789-1.763-1.763-1.763z"/>
   <path style="fill:#616577" d="m46.47 37.3v14.1h17.63l7.052-7.052-7.052-7.052h-17.63zm2.645 2.645h13.22l4.408 4.408-4.408 4.408h-13.22v-8.815z"/>
   <path style="fill:#616577" d="m64.1 44.35a1.763 1.763 0 0 1 -3.526 0 1.763 1.763 0 1 1 3.526 0z"/>
   <g transform="matrix(.8815 0 0 .8815 35.9 22.32)">
    <path d="m23.46 22.74v0.9997q-0.4271-0.4928-0.826-0.704-0.3942-0.2112-0.8729-0.2112-0.7368 0-1.211 0.4693-0.474 0.4693-0.6242 1.347h2.708l-0.2581 0.5773h-2.525q-0.0093 0.1126-0.01418 0.2206 0 0.108 0 0.2722 0 0.1502 0 0.2581 0.0046 0.108 0.01418 0.2206h2.093l-0.2628 0.5773h-1.755q0.1502 0.8776 0.6242 1.352 0.474 0.474 1.211 0.474 0.4787 0 0.8729-0.2112 0.3989-0.2112 0.826-0.704v0.9903q-0.4177 0.3379-0.8542 0.5069-0.4318 0.169-0.8823 0.169-1.112 0-1.84-0.6805-0.7228-0.6805-0.9105-1.896h-0.9903l0.2581-0.5773h0.6524q0-0.108-0.0046-0.2159 0-0.1126 0-0.2628 0-0.1643 0-0.2722 0.0046-0.1126 0.0046-0.2206h-0.9105l0.2581-0.5773h0.7322q0.1877-1.206 0.9152-1.887 0.7275-0.6805 1.835-0.6805 0.4599 0 0.8917 0.169 0.4365 0.1643 0.8448 0.4975z" style="opacity:.1"/>
    <path style="fill:#616577" d="m22.85 22.13v0.9997q-0.4271-0.4928-0.826-0.704-0.3942-0.2112-0.8729-0.2112-0.7368 0-1.211 0.4693-0.474 0.4693-0.6242 1.347h2.708l-0.2581 0.5773h-2.525q-0.0093 0.1126-0.01418 0.2206 0 0.108 0 0.2722 0 0.1502 0 0.2581 0.0046 0.108 0.01418 0.2206h2.093l-0.2628 0.5773h-1.755q0.1502 0.8776 0.6242 1.352 0.474 0.474 1.211 0.474 0.4787 0 0.8729-0.2112 0.3989-0.2112 0.826-0.704v0.9903q-0.4177 0.3379-0.8542 0.5069-0.4318 0.169-0.8823 0.169-1.112 0-1.84-0.6805-0.7228-0.6805-0.9105-1.896h-0.9903l0.2581-0.5773h0.6524q0-0.108-0.0046-0.2159 0-0.1126 0-0.2628 0-0.1643 0-0.2722 0.0046-0.1126 0.0046-0.2206h-0.9105l0.2581-0.5773h0.7322q0.1877-1.206 0.9152-1.887 0.7275-0.6805 1.835-0.6805 0.4599 0 0.8917 0.169 0.4365 0.1643 0.8448 0.4975z"/>
   </g>
  </g>
 </g>
</svg>
