<?xml version="1.0" encoding="UTF-8" standalone="no"?>
<svg
   xmlns:osb="http://www.openswatchbook.org/uri/2009/osb"
   xmlns:dc="http://purl.org/dc/elements/1.1/"
   xmlns:cc="http://creativecommons.org/ns#"
   xmlns:rdf="http://www.w3.org/1999/02/22-rdf-syntax-ns#"
   xmlns:svg="http://www.w3.org/2000/svg"
   xmlns="http://www.w3.org/2000/svg"
   xmlns:xlink="http://www.w3.org/1999/xlink"
   id="svg7649"
   version="1.0"
   width="32"
   height="32">
  <metadata
     id="metadata7661">
    <rdf:RDF>
      <cc:Work
         rdf:about="">
        <dc:format>image/svg+xml</dc:format>
        <dc:type
           rdf:resource="http://purl.org/dc/dcmitype/StillImage" />
        <dc:title></dc:title>
      </cc:Work>
    </rdf:RDF>
  </metadata>
  <defs
     id="defs7659">
    <linearGradient
       gradientTransform="matrix(0,-1,1,0,-1.5e-6,47.999998)"
       gradientUnits="userSpaceOnUse"
       x2="47"
       x1="1"
       id="linearGradient3764">
      <stop
         id="stop7"
         style="stop-color:#344e8e;stop-opacity:1" />
      <stop
         id="stop9"
         style="stop-color:#3a569c;stop-opacity:1"
         offset="1" />
    </linearGradient>
    <linearGradient
       gradientTransform="matrix(0,-1,1,0,44.444443,47.999998)"
       gradientUnits="userSpaceOnUse"
       x2="47"
       x1="1"
       id="linearGradient3764-1">
      <stop
         id="stop7-0"
         style="stop-color:#f7b747;stop-opacity:1" />
      <stop
         id="stop9-3"
         style="stop-color:#f8bd5a;stop-opacity:1"
         offset="1" />
    </linearGradient>
    <linearGradient
       gradientTransform="matrix(0,-1,1,0,-1.5e-6,47.999998)"
       gradientUnits="userSpaceOnUse"
       x2="47"
       x1="1"
       id="linearGradient3764-6">
      <stop
         id="stop7-7"
         style="stop-color:#f6b042;stop-opacity:1" />
      <stop
         id="stop9-32"
         style="stop-color:#f7b754;stop-opacity:1"
         offset="1" />
    </linearGradient>
    <linearGradient
       gradientTransform="matrix(0,-1,1,0,-1.5e-6,47.999998)"
       gradientUnits="userSpaceOnUse"
       x2="47"
       x1="1"
       id="linearGradient3764-2">
      <stop
         id="stop7-1"
         style="stop-color:#ad897f;stop-opacity:1" />
      <stop
         id="stop9-5"
         style="stop-color:#b5948b;stop-opacity:1"
         offset="1" />
    </linearGradient>
    <linearGradient
       id="linearGradient3874">
      <stop
         id="stop3876"
         offset="0"
         style="stop-color:#ffffff;stop-opacity:1;" />
      <stop
         id="stop3878"
         offset="1"
         style="stop-color:#ffffff;stop-opacity:0;" />
    </linearGradient>
    <linearGradient
       id="linearGradient3858">
      <stop
         style="stop-color:#000000;stop-opacity:1;"
         offset="0"
         id="stop3860" />
      <stop
         style="stop-color:#000000;stop-opacity:0;"
         offset="1"
         id="stop3862" />
    </linearGradient>
    <linearGradient
       id="linearGradient3045">
      <stop
         style="stop-color:#91bedd;stop-opacity:1;"
         offset="0"
         id="stop3047" />
      <stop
         style="stop-color:#4986b1;stop-opacity:1;"
         offset="1"
         id="stop3049" />
    </linearGradient>
    <linearGradient
       id="linearGradient4213">
      <stop
         id="stop4215"
         offset="0"
         style="stop-color:#b1d7f3;stop-opacity:1" />
      <stop
         id="stop4217"
         offset="1"
         style="stop-color:#8fafda;stop-opacity:1" />
    </linearGradient>
    <linearGradient
       id="linearGradient5460"
       osb:paint="gradient">
      <stop
         style="stop-color:#e6e6e6;stop-opacity:1"
         offset="0"
         id="stop5462" />
      <stop
         style="stop-color:#ffffff;stop-opacity:1"
         offset="1"
         id="stop5464" />
    </linearGradient>
    <linearGradient
       id="linearGradient5476"
       osb:paint="solid">
      <stop
         style="stop-color:#772953;stop-opacity:1;"
         offset="0"
         id="stop5478" />
    </linearGradient>
    <linearGradient
       xlink:href="#linearGradient4213"
       id="linearGradient3037"
       gradientUnits="userSpaceOnUse"
       x1="144"
       y1="918.36218"
       x2="144"
       y2="1052.3622"
       gradientTransform="matrix(1.7777778,0,0,1.7761194,16,-1563.3597)" />
    <filter
       id="filter4223"
       style="color-interpolation-filters:sRGB">
      <feBlend
         id="feBlend4225"
         in2="BackgroundImage"
         mode="multiply" />
    </filter>
    <filter
       id="filter4154"
       style="color-interpolation-filters:sRGB">
      <feComposite
         id="feComposite4156"
         in2="SourceGraphic"
         k3="0"
         k2="1"
         k1="0"
         result="composite1"
         k4="0"
         operator="arithmetic" />
      <feColorMatrix
         id="feColorMatrix4158"
         type="saturate"
         values="0"
         result="colormatrix1"
         in="composite1" />
      <feFlood
         id="feFlood4160"
         result="flood1"
         flood-color="rgb(72,59,72)" />
      <feBlend
         id="feBlend4162"
         result="blend1"
         mode="multiply"
         in2="colormatrix1"
         in="flood1" />
      <feBlend
         id="feBlend4164"
         mode="screen"
         in2="blend1"
         result="blend2" />
      <feColorMatrix
         id="feColorMatrix4166"
         type="saturate"
         values="1"
         result="colormatrix2"
         in="blend2" />
      <feComposite
         id="feComposite4168"
         operator="in"
         result="composite2"
         in2="SourceGraphic"
         in="colormatrix2" />
    </filter>
    <linearGradient
       xlink:href="#linearGradient3858"
       id="linearGradient3864"
       x1="272"
       y1="256"
       x2="368"
       y2="352"
       gradientUnits="userSpaceOnUse" />
    <linearGradient
       xlink:href="#linearGradient3874"
       id="linearGradient3872"
       gradientUnits="userSpaceOnUse"
       x1="272"
       y1="256"
       x2="368"
       y2="352"
       gradientTransform="rotate(180,272,272)" />
    <linearGradient
       xlink:href="#linearGradient3874"
       id="linearGradient3906"
       gradientUnits="userSpaceOnUse"
       gradientTransform="rotate(180,272,272)"
       x1="288"
       y1="264"
       x2="360"
       y2="328" />
    <linearGradient
       xlink:href="#linearGradient3858"
       id="linearGradient3908"
       gradientUnits="userSpaceOnUse"
       x1="288"
       y1="272"
       x2="368"
       y2="352" />
    <clipPath
       clipPathUnits="userSpaceOnUse"
       id="clipPath9430">
      <path
         id="path9432"
         d="m 166.0625,-196 179.875,0 C 491.2348,-196 512,-175.28677 512,-30.125 l 0,148.25 C 512,263.28618 491.2348,284 345.9375,284 l -179.875,0 C 20.7652,284 0,263.28618 0,118.125 L 0,-30.125 C 0,-175.28677 20.7652,-196 166.0625,-196 Z"
         style="color:#000000;display:inline;overflow:visible;visibility:visible;fill:#ffffff;fill-opacity:1;fill-rule:nonzero;stroke:none;stroke-width:1;marker:none;enable-background:new" />
    </clipPath>
    <linearGradient
       gradientTransform="matrix(0,-1,1,0,-1.5e-6,47.999998)"
       gradientUnits="userSpaceOnUse"
       x2="47"
       x1="1"
       id="linearGradient3764-3">
      <stop
         id="stop7-3"
         style="stop-color:#4eb470;stop-opacity:1" />
      <stop
         id="stop9-8"
         style="stop-color:#5dba7c;stop-opacity:1"
         offset="1" />
    </linearGradient>
    <linearGradient
       gradientTransform="matrix(3.543307,0,0,3.543307,-1,0)"
       x2="10.442"
       x1="3.669"
       gradientUnits="userSpaceOnUse"
       id="linear0">
      <stop
         id="stop12"
         style="stop-color:#e2f4fb;stop-opacity:1" />
      <stop
         id="stop14"
         style="stop-color:#f9f9f9;stop-opacity:1"
         offset="1" />
    </linearGradient>
    <linearGradient
       gradientTransform="matrix(0,-1,1,0,-1.5e-6,47.999998)"
       gradientUnits="userSpaceOnUse"
       x2="47"
       x1="1"
       id="linearGradient3764-28">
      <stop
         id="stop7-5"
         style="stop-color:#18aa86;stop-opacity:1" />
      <stop
         id="stop9-80"
         style="stop-color:#1abc95;stop-opacity:1"
         offset="1" />
    </linearGradient>
    <linearGradient
       gradientTransform="matrix(0,-1,1,0,-1.5e-6,47.999998)"
       gradientUnits="userSpaceOnUse"
       x2="47"
       x1="1"
       id="linearGradient3764-8">
      <stop
         id="stop7-6"
         style="stop-color:#5dbacb;stop-opacity:1" />
      <stop
         id="stop9-9"
         style="stop-color:#6cc0d0;stop-opacity:1"
         offset="1" />
    </linearGradient>
    <linearGradient
       gradientUnits="userSpaceOnUse"
       x2="24"
       x1="21"
       id="linearGradient4251"
       xlink:href="#linearGradient4309" />
    <linearGradient
       id="linearGradient4309">
      <stop
         id="stop13"
         style="stop-color:#eff5eb;stop-opacity:1" />
      <stop
         id="stop15"
         style="stop-color:#d1e2c4;stop-opacity:1"
         offset="1" />
    </linearGradient>
    <linearGradient
       gradientTransform="matrix(-1,0,0,1,48,0)"
       x2="24"
       x1="21"
       gradientUnits="userSpaceOnUse"
       id="linearGradient4265"
       xlink:href="#linearGradient4309" />
    <linearGradient
       gradientUnits="userSpaceOnUse"
       y2="1"
       x2="0"
       y1="47"
       id="linearGradient3845">
      <stop
         id="stop7-33"
         style="stop-color:#24bbd2;stop-opacity:1" />
      <stop
         id="stop9-7"
         style="stop-color:#2fc4db;stop-opacity:1"
         offset="1" />
    </linearGradient>
    <linearGradient
       gradientTransform="matrix(0,-1,1,0,-1.5e-6,47.999998)"
       gradientUnits="userSpaceOnUse"
       x2="47"
       x1="1"
       id="linearGradient3764-4">
      <stop
         id="stop7-37"
         style="stop-color:#de4f48;stop-opacity:1" />
      <stop
         id="stop9-1"
         style="stop-color:#e16059;stop-opacity:1"
         offset="1" />
    </linearGradient>
    <linearGradient
       gradientTransform="matrix(0,-1,1,0,-1.5e-6,47.999998)"
       gradientUnits="userSpaceOnUse"
       x2="47"
       x1="1"
       id="linearGradient3764-39">
      <stop
         id="stop7-64"
         style="stop-color:#ee810c;stop-opacity:1" />
      <stop
         id="stop9-2"
         style="stop-color:#f38b1b;stop-opacity:1"
         offset="1" />
    </linearGradient>
    <linearGradient
       gradientTransform="matrix(0,-1,1,0,-1.5e-6,47.999998)"
       gradientUnits="userSpaceOnUse"
       x2="47"
       x1="1"
       id="linearGradient3764-0">
      <stop
         id="stop7-2"
         style="stop-color:#3db0e3;stop-opacity:1" />
      <stop
         id="stop9-95"
         style="stop-color:#50b8e6;stop-opacity:1"
         offset="1" />
    </linearGradient>
    <linearGradient
       id="linearGradient3102-2"
       gradientUnits="userSpaceOnUse"
       gradientTransform="matrix(0.05622958,0,0,0.05622958,0.07160145,-0.0527796)"
       x1="135"
       y1="120"
       x2="160"
       y2="160">
      <stop
         id="stop12-7"
         style="stop-color:#eff7fc" />
      <stop
         id="stop14-4"
         style="stop-color:#fff"
         offset="1" />
    </linearGradient>
    <linearGradient
       gradientTransform="matrix(0,-1,1,0,-1.5e-6,47.999998)"
       gradientUnits="userSpaceOnUse"
       x2="47"
       x1="1"
       id="linearGradient3764-64">
      <stop
         id="stop7-9"
         style="stop-color:#575757;stop-opacity:1" />
      <stop
         id="stop9-12"
         style="stop-color:#616161;stop-opacity:1"
         offset="1" />
    </linearGradient>
    <linearGradient
       gradientTransform="matrix(0,-1,1,0,-1.5e-6,47.999998)"
       gradientUnits="userSpaceOnUse"
       x2="47"
       x1="1"
       id="linearGradient3764-31">
      <stop
         id="stop7-8"
         style="stop-color:#315bd1;stop-opacity:1" />
      <stop
         id="stop9-13"
         style="stop-color:#4166d4;stop-opacity:1"
         offset="1" />
    </linearGradient>
    <linearGradient
       gradientUnits="userSpaceOnUse"
       y2="1"
       x2="0"
       y1="47"
       id="linearGradient3764-89">
      <stop
         id="stop7-24"
         style="stop-color:#23bd88;stop-opacity:1" />
      <stop
         id="stop9-51"
         style="stop-color:#26cd93;stop-opacity:1"
         offset="1" />
    </linearGradient>
    <linearGradient
       gradientTransform="matrix(0,-1,1,0,-1.5e-6,47.999998)"
       gradientUnits="userSpaceOnUse"
       x2="47"
       x1="1"
       id="linearGradient3764-00">
      <stop
         id="stop7-13"
         style="stop-color:#075f93;stop-opacity:1" />
      <stop
         id="stop9-30"
         style="stop-color:#086ba6;stop-opacity:1"
         offset="1" />
    </linearGradient>
    <linearGradient
       gradientTransform="matrix(0.9,0,0,0.9,2.4499,2.45)"
       gradientUnits="userSpaceOnUse"
       y2="1"
       x2="0"
       y1="47"
       id="linearGradient3764-002">
      <stop
         id="stop7-22"
         style="stop-color:#67ac5e;stop-opacity:1" />
      <stop
         id="stop9-4"
         style="stop-color:#74b36b;stop-opacity:1"
         offset="1" />
    </linearGradient>
    <linearGradient
       gradientTransform="matrix(0,-1,1,0,-1.5e-6,47.999998)"
       gradientUnits="userSpaceOnUse"
       x2="47"
       x1="1"
       id="linearGradient3764-7">
      <stop
         id="stop7-86"
         style="stop-color:#f6b042;stop-opacity:1" />
      <stop
         id="stop9-0"
         style="stop-color:#f7b754;stop-opacity:1"
         offset="1" />
    </linearGradient>
    <linearGradient
       x2="-24"
       x1="-27"
       gradientUnits="userSpaceOnUse"
       id="linearGradient3357">
      <stop
         style="stop-color:#e25543;stop-opacity:1"
         id="stop14433" />
      <stop
         offset="1"
         style="stop-color:#e96b5a;stop-opacity:1"
         id="stop14435" />
    </linearGradient>
    <linearGradient
       id="linearGradient3764-06"
       x1="1"
       x2="47"
       gradientUnits="userSpaceOnUse"
       gradientTransform="matrix(0,-1,1,0,-1.5e-6,47.999998)">
      <stop
         style="stop-color:#324162;stop-opacity:1"
         id="stop14589" />
      <stop
         offset="1"
         style="stop-color:#394a6f;stop-opacity:1"
         id="stop14591" />
    </linearGradient>
    <linearGradient
       id="linear0-4"
       gradientUnits="userSpaceOnUse"
       x1="13"
       y1="28"
       x2="15"
       y2="29">
      <stop
         style="stop-color:#35587c;stop-opacity:1"
         id="stop14594" />
      <stop
         offset="1"
         style="stop-color:#335276;stop-opacity:1"
         id="stop14596" />
    </linearGradient>
    <linearGradient
       id="linear1"
       gradientUnits="userSpaceOnUse"
       x1="12.906"
       y1="27.547"
       x2="24"
       y2="28">
      <stop
         style="stop-color:#3d6084;stop-opacity:1"
         id="stop14599" />
      <stop
         offset="1"
         style="stop-color:#2f5175;stop-opacity:1"
         id="stop14601" />
    </linearGradient>
    <linearGradient
       id="linear2"
       gradientUnits="userSpaceOnUse"
       x1="27"
       y1="35"
       x2="35"
       y2="24">
      <stop
         style="stop-color:#375b80;stop-opacity:1"
         id="stop14604" />
      <stop
         offset="1"
         style="stop-color:#3d6185;stop-opacity:1"
         id="stop14606" />
    </linearGradient>
    <linearGradient
       id="linearGradient4193"
       x1="1"
       x2="47"
       gradientUnits="userSpaceOnUse">
      <stop
         style="stop-color:#2ebd59;stop-opacity:1"
         id="stop14736" />
      <stop
         offset="1"
         style="stop-color:#33cd61;stop-opacity:1"
         id="stop14738" />
    </linearGradient>
    <linearGradient
       id="linearGradient3764-37"
       x1="1"
       x2="47"
       gradientUnits="userSpaceOnUse"
       gradientTransform="matrix(0,-1,1,0,-1.5e-6,47.999998)">
      <stop
         style="stop-color:#b471e3;stop-opacity:1"
         id="stop15099" />
      <stop
         offset="1"
         style="stop-color:#bd82e6;stop-opacity:1"
         id="stop15101" />
    </linearGradient>
    <linearGradient
       id="linearGradient3764-5"
       x1="1"
       x2="47"
       gradientUnits="userSpaceOnUse"
       gradientTransform="matrix(0,-1,1,0,-1.5e-6,47.999998)">
      <stop
         style="stop-color:#ff7061;stop-opacity:1"
         id="stop16473" />
      <stop
         offset="1"
         style="stop-color:#ff8275;stop-opacity:1"
         id="stop16475" />
    </linearGradient>
    <radialGradient
       id="radial0"
       gradientUnits="userSpaceOnUse"
       cx="6.773"
       cy="5.927"
       r="0.564"
       gradientTransform="matrix(3.543307,0,0,3.543307,0.000000147638,0.000377575)">
      <stop
         style="stop-color:#8eb0c7;stop-opacity:1"
         id="stop16478" />
      <stop
         offset="1"
         style="stop-color:#8eb0c7;stop-opacity:0"
         id="stop16480" />
    </radialGradient>
    <radialGradient
       id="radial1"
       gradientUnits="userSpaceOnUse"
       cx="6"
       cy="17.292"
       r="1"
       gradientTransform="translate(18,8.707971)"
       xlink:href="#radial0" />
    <radialGradient
       xlink:href="#radial0"
       id="radialGradient3427"
       gradientUnits="userSpaceOnUse"
       gradientTransform="matrix(3.543307,0,0,3.543307,1.47638e-7,3.77575e-4)"
       cx="6.773"
       cy="5.927"
       r="0.564" />
    <linearGradient
       id="linearGradient3764-81"
       x1="1"
       x2="47"
       gradientUnits="userSpaceOnUse"
       gradientTransform="matrix(0,-1,1,0,-1.5e-6,47.999998)">
      <stop
         style="stop-color:#e4e4e4;stop-opacity:1"
         id="stop16695" />
      <stop
         offset="1"
         style="stop-color:#eee;stop-opacity:1"
         id="stop16697" />
    </linearGradient>
    <linearGradient
       id="linearGradient3764-30"
       x1="1"
       x2="47"
       gradientUnits="userSpaceOnUse"
       gradientTransform="matrix(0,-1,1,0,-1.5e-6,47.999998)">
      <stop
         style="stop-color:#f5c755;stop-opacity:1"
         id="stop16859" />
      <stop
         offset="1"
         style="stop-color:#f6cd68;stop-opacity:1"
         id="stop16861" />
    </linearGradient>
    <linearGradient
       id="linearGradient3764-26"
       x1="1"
       x2="47"
       gradientUnits="userSpaceOnUse"
       gradientTransform="matrix(0,-1,1,0,-1.5e-6,47.999998)">
      <stop
         style="stop-color:#e0a300;stop-opacity:1"
         id="stop16950" />
      <stop
         offset="1"
         style="stop-color:#f4b400;stop-opacity:1"
         id="stop16952" />
    </linearGradient>
    <linearGradient
       id="linearGradient3764-43"
       x1="1"
       x2="47"
       gradientUnits="userSpaceOnUse"
       gradientTransform="matrix(0,-1,1,0,-1.5e-6,47.999998)">
      <stop
         style="stop-color:#3d3d3d;stop-opacity:1"
         id="stop18185" />
      <stop
         offset="1"
         style="stop-color:#474747;stop-opacity:1"
         id="stop18187" />
    </linearGradient>
    <linearGradient
       id="linearGradient3764-86"
       x1="1"
       x2="47"
       gradientUnits="userSpaceOnUse"
       gradientTransform="matrix(0,-1,1,0,-1.5e-6,47.999998)">
      <stop
         style="stop-color:#d84430;stop-opacity:1"
         id="stop18278" />
      <stop
         offset="1"
         style="stop-color:#db5441;stop-opacity:1"
         id="stop18280" />
    </linearGradient>
    <linearGradient
       id="linearGradient3064"
       y1="1"
       x2="0"
       y2="47"
       gradientUnits="userSpaceOnUse">
      <stop
         style="stop-color:#555;stop-opacity:1"
         id="stop18419" />
      <stop
         offset="1"
         style="stop-color:#4b4b4b;stop-opacity:1"
         id="stop18421" />
    </linearGradient>
    <linearGradient
       id="linearGradient3764-70"
       x1="1"
       x2="47"
       gradientUnits="userSpaceOnUse"
       gradientTransform="matrix(0,-1,1,0,-1.5e-6,47.999998)">
      <stop
         style="stop-color:#f05d1c;stop-opacity:1"
         id="stop18510" />
      <stop
         offset="1"
         style="stop-color:#f16a30;stop-opacity:1"
         id="stop18512" />
    </linearGradient>
    <linearGradient
       id="linearGradient3764-819"
       x1="1"
       x2="47"
       gradientUnits="userSpaceOnUse"
       gradientTransform="matrix(0,-1,1,0,-1.5e-6,47.999998)">
      <stop
         style="stop-color:#a467af;stop-opacity:1"
         id="stop18695" />
      <stop
         offset="1"
         style="stop-color:#ac74b6;stop-opacity:1"
         id="stop18697" />
    </linearGradient>
    <linearGradient
       id="linearGradient3764-816"
       x1="1"
       x2="47"
       gradientUnits="userSpaceOnUse"
       gradientTransform="matrix(0,-1,1,0,-1.5e-6,47.999998)">
      <stop
         style="stop-color:#d3d3d3;stop-opacity:1"
         id="stop22104" />
      <stop
         offset="1"
         style="stop-color:#ddd;stop-opacity:1"
         id="stop22106" />
    </linearGradient>
    <linearGradient
       id="linearGradient3764-48"
       x1="1"
       x2="47"
       gradientUnits="userSpaceOnUse"
       gradientTransform="matrix(0,-1,1,0,-1.5e-6,47.999998)">
      <stop
         style="stop-color:#cfcfcf;stop-opacity:1"
         id="stop22223" />
      <stop
         offset="1"
         style="stop-color:#d9d9d9;stop-opacity:1"
         id="stop22225" />
    </linearGradient>
    <linearGradient
       id="linearGradient3126"
       gradientUnits="userSpaceOnUse"
       gradientTransform="matrix(0,-1,1,0,-1.5e-6,47.999998)"
       x1="1"
       x2="47">
      <stop
         style="stop-color:#5ab133;stop-opacity:1"
         id="stop22615" />
      <stop
         offset="1"
         style="stop-color:#63c038;stop-opacity:1"
         id="stop22617" />
    </linearGradient>
    <linearGradient
       id="linearGradient3764-50"
       x1="1"
       x2="47"
       gradientUnits="userSpaceOnUse"
       gradientTransform="matrix(0,-1,1,0,-1.5e-6,47.999998)">
      <stop
         style="stop-color:#00acec;stop-opacity:1"
         id="stop22936" />
      <stop
         offset="1"
         style="stop-color:#01b9ff;stop-opacity:1"
         id="stop22938" />
    </linearGradient>
    <linearGradient
       id="linearGradient3764-15"
       x1="1"
       x2="47"
       gradientUnits="userSpaceOnUse"
       gradientTransform="matrix(0,-1,1,0,-1.5e-6,47.999998)">
      <stop
         style="stop-color:#4b4b4b;stop-opacity:1"
         id="stop27458" />
      <stop
         offset="1"
         style="stop-color:#555;stop-opacity:1"
         id="stop27460" />
    </linearGradient>
    <linearGradient
       id="linearGradient3764-9"
       x1="1"
       x2="47"
       gradientUnits="userSpaceOnUse"
       gradientTransform="matrix(0,-1,1,0,-1.5e-6,47.999998)">
      <stop
         style="stop-color:#93c848;stop-opacity:1"
         id="stop28213" />
      <stop
         offset="1"
         style="stop-color:#9ccd57;stop-opacity:1"
         id="stop28215" />
    </linearGradient>
    <linearGradient
       id="linearGradient3764-706"
       x1="1"
       x2="47"
       gradientUnits="userSpaceOnUse"
       gradientTransform="matrix(0,-1,1,0,-1.5e-6,47.999998)">
      <stop
         style="stop-color:#d6740a;stop-opacity:1"
         id="stop28339" />
      <stop
         offset="1"
         style="stop-color:#e97e0b;stop-opacity:1"
         id="stop28341" />
    </linearGradient>
    <linearGradient
       id="linearGradient3764-289"
       x1="1"
       x2="47"
       gradientUnits="userSpaceOnUse"
       gradientTransform="matrix(0,-1,1,0,-1.5e-6,47.999998)">
      <stop
         style="stop-color:#01a0db;stop-opacity:1"
         id="stop28428" />
      <stop
         offset="1"
         style="stop-color:#01b1ef;stop-opacity:1"
         id="stop28430" />
    </linearGradient>
    <linearGradient
       id="linearGradient3845-5"
       y1="47"
       x2="0"
       y2="1"
       gradientUnits="userSpaceOnUse">
      <stop
         style="stop-color:#6fa2b4;stop-opacity:1"
         id="stop28619" />
      <stop
         offset="1"
         style="stop-color:#7dabbb;stop-opacity:1"
         id="stop28621" />
    </linearGradient>
    <linearGradient
       id="linearGradient3764-02"
       x1="1"
       x2="47"
       gradientUnits="userSpaceOnUse"
       gradientTransform="matrix(0,-1,1,0,-1.5e-6,47.999998)">
      <stop
         style="stop-color:#314c6b;stop-opacity:1"
         id="stop28723" />
      <stop
         offset="1"
         style="stop-color:#375678;stop-opacity:1"
         id="stop28725" />
    </linearGradient>
    <linearGradient
       id="linearGradient3764-72"
       x1="1"
       x2="47"
       gradientUnits="userSpaceOnUse"
       gradientTransform="matrix(0,-1,1,0,-1.5e-6,47.999998)">
      <stop
         style="stop-color:#e1281f;stop-opacity:1"
         id="stop28837" />
      <stop
         offset="1"
         style="stop-color:#e33a31;stop-opacity:1"
         id="stop28839" />
    </linearGradient>
    <linearGradient
       id="linearGradient3764-817"
       x1="1"
       x2="47"
       gradientUnits="userSpaceOnUse"
       gradientTransform="matrix(0,-1,1,0,-1.5e-6,47.999998)">
      <stop
         style="stop-color:#7568a0;stop-opacity:1"
         id="stop30966" />
      <stop
         offset="1"
         style="stop-color:#8074a8;stop-opacity:1"
         id="stop30968" />
    </linearGradient>
    <linearGradient
       id="linearGradient3764-79"
       x1="1"
       x2="47"
       gradientUnits="userSpaceOnUse"
       gradientTransform="matrix(0,-1,1,0,-1.5e-6,47.999998)">
      <stop
         style="stop-color:#2c313c;stop-opacity:1"
         id="stop34948" />
      <stop
         offset="1"
         style="stop-color:#353b47;stop-opacity:1"
         id="stop34950" />
    </linearGradient>
    <linearGradient
       id="linearGradient4164"
       x1="1"
       x2="47"
       gradientUnits="userSpaceOnUse">
      <stop
         style="stop-color:#f44c68;stop-opacity:1"
         id="stop35063" />
      <stop
         offset="1"
         style="stop-color:#f55f78;stop-opacity:1"
         id="stop35065" />
    </linearGradient>
  </defs>
  <path
     id="path7651"
     style="color:#000000;fill:#f55670;fill-opacity:1"
     d="M 0,0 0,32 32,32 32,0 Z" />
  <g
     transform="matrix(0.78496559,0,0,0.78496559,-2.9816571,-1.660156)"
     id="g35106">
    <g
       id="g35079">
      <g
         id="g35081">
        <g
           transform="translate(1,1)"
           id="g35083">
          <g
             style="opacity:0.1"
             id="g35085">
            <!-- color: #ebebeb -->
          </g>
        </g>
      </g>
    </g>
    <g
       transform="translate(1.7850532e-6,0)"
       id="g35087">
      <g
         id="g35089">
        <!-- color: #ebebeb -->
      </g>
    </g>
    <path
       d="m 32,11 0,1 1,0 c 2.216,0 4,1.769 4,4 l 0,1 1,0 0,-1 c 0,-2.77 -2.23,-5 -5,-5 l -1,0 z m -1,3 0,1 1,0 c 1.108,0 2,0.892 2,2 l 0,1 1,0 0,-1 c 0,-1.662 -1.338,-3 -3,-3 l -1,0 z m -2,3 c -0.593,0 -1,0.464 -1,0.996 l 0,2 -14,0 c -1,0 -2,1 -2,2 l 0,11 c 0,1 1,2 2,2 l 22,0 c 1,0 2,-1 2,-2 l 0,-11 c 0,-1 -1,-2 -2,-2 l -4,0 0,-2 C 32,17.442 31.554,17 31,17 l -2,0 z m 0.5,1 1,0 c 0.277,0 0.5,0.223 0.5,0.5 l 0,1.5 -2,0 0,-1.5 C 29,18.223 29.223,18 29.5,18 Z M 15.691,21.996 23.308,22 c 0.846,0 1.691,0.709 1.691,1.424 l 0,8.145 c 0,0.714 -0.845,1.432 -1.691,1.432 l -7.617,0 c -0.106,0 -0.212,-0.012 -0.316,-0.033 C 14.646,32.822 14,32.197 14,31.572 l 0,-8.145 c 0,-0.714 0.845,-1.426 1.691,-1.426 l 0,-0.004 z M 27,22 l 7.309,0 c 0.846,0 1.689,0.711 1.689,1.426 l 0,8.145 c 0,0.714 -0.843,1.43 -1.689,1.43 l -7.309,0 0,-11 z m 2.5,0.998 c -0.277,0 -0.5,0.223 -0.5,0.5 0,0.277 0.223,0.502 0.5,0.502 l 1,0 c 0.277,0 0.5,-0.225 0.5,-0.502 0,-0.277 -0.223,-0.5 -0.5,-0.5 l -1,0 z m 3,0 c -0.277,0 -0.5,0.223 -0.5,0.5 0,0.277 0.223,0.502 0.5,0.502 l 1,0 c 0.277,0 0.5,-0.225 0.5,-0.502 0,-0.277 -0.223,-0.5 -0.5,-0.5 l -1,0 z m -13,1 c -1.933,0 -3.5,1.567 -3.5,3.5 0,1.933 1.567,3.5 3.5,3.5 1.933,0 3.5,-1.567 3.5,-3.5 0,-1.933 -1.567,-3.5 -3.5,-3.5 z m 10,0.998 c -0.277,0 -0.5,0.223 -0.5,0.5 0,0.277 0.223,0.502 0.5,0.502 l 1,0 c 0.277,0 0.5,-0.225 0.5,-0.502 0,-0.277 -0.223,-0.5 -0.5,-0.5 l -1,0 z m 3,0 c -0.277,0 -0.5,0.223 -0.5,0.5 0,0.277 0.223,0.502 0.5,0.502 l 1,0 c 0.277,0 0.5,-0.225 0.5,-0.502 0,-0.277 -0.223,-0.5 -0.5,-0.5 l -1,0 z m -13,1 c 0.828,0 1.5,0.672 1.5,1.5 0,0.828 -0.672,1.5 -1.5,1.5 -0.828,0 -1.5,-0.672 -1.5,-1.5 0,-0.828 0.672,-1.5 1.5,-1.5 z m 13,0.998 c -0.277,0 -0.5,0.223 -0.5,0.5 0,0.277 0.223,0.502 0.5,0.502 l 1,0 c 0.277,0 0.5,-0.225 0.5,-0.502 0,-0.277 -0.223,-0.5 -0.5,-0.5 l -1,0 z m -3,0.002 c -0.277,0 -0.5,0.221 -0.5,0.498 0,0.277 0.223,0.502 0.5,0.502 l 1,0 c 0.277,0 0.5,-0.225 0.5,-0.502 0,-0.277 -0.223,-0.498 -0.5,-0.498 l -1,0 z m 4.5,3 c -0.552,0 -1,0.448 -1,1 0,0.552 0.448,1 1,1 0.552,0 1,-0.448 1,-1 0,-0.552 -0.448,-1 -1,-1 z"
       mix-blend-mode="normal"
       white-space="normal"
       isolation="auto"
       style="color:#000000;white-space:normal;display:inline;visibility:visible;opacity:0.1;isolation:auto;mix-blend-mode:normal;color-interpolation:sRGB;color-interpolation-filters:linearRGB;solid-color:#000000;solid-opacity:1;fill:#000000;fill-opacity:1;fill-rule:evenodd;stroke:none;color-rendering:auto;image-rendering:auto;shape-rendering:auto"
       id="path35095" />
    <path
       d="m 31,10 0,1 1,0 c 2.216,0 4,1.769 4,4 l 0,1 1,0 0,-1 c 0,-2.77 -2.23,-5 -5,-5 l -1,0 z m -1,3 0,1 1,0 c 1.108,0 2,0.892 2,2 l 0,1 1,0 0,-1 c 0,-1.662 -1.338,-3 -3,-3 l -1,0 z m -2,3 c -0.593,0 -1,0.464 -1,0.996 l 0,2 -14,0 c -1,0 -2,1 -2,2 l 0,11 c 0,1 1,2 2,2 l 22,0 c 1,0 2,-1 2,-2 l 0,-11 c 0,-1 -1,-2 -2,-2 l -4,0 0,-2 C 31,16.442 30.554,16 30,16 l -2,0 z m 0.5,1 1,0 c 0.277,0 0.5,0.223 0.5,0.5 l 0,1.5 -2,0 0,-1.5 C 28,17.223 28.223,17 28.5,17 Z M 14.691,20.996 22.308,21 c 0.846,0 1.691,0.709 1.691,1.424 l 0,8.145 c 0,0.714 -0.845,1.432 -1.691,1.432 l -7.617,0 c -0.106,0 -0.212,-0.012 -0.316,-0.033 C 13.646,31.822 13,31.197 13,30.572 l 0,-8.145 c 0,-0.714 0.845,-1.426 1.691,-1.426 l 0,-0.004 z M 26,21 l 7.309,0 c 0.846,0 1.689,0.711 1.689,1.426 l 0,8.145 c 0,0.714 -0.843,1.43 -1.689,1.43 l -7.309,0 0,-11 z m 2.5,0.998 c -0.277,0 -0.5,0.223 -0.5,0.5 0,0.277 0.223,0.502 0.5,0.502 l 1,0 c 0.277,0 0.5,-0.225 0.5,-0.502 0,-0.277 -0.223,-0.5 -0.5,-0.5 l -1,0 z m 3,0 c -0.277,0 -0.5,0.223 -0.5,0.5 0,0.277 0.223,0.502 0.5,0.502 l 1,0 c 0.277,0 0.5,-0.225 0.5,-0.502 0,-0.277 -0.223,-0.5 -0.5,-0.5 l -1,0 z m -13,1 c -1.933,0 -3.5,1.567 -3.5,3.5 0,1.933 1.567,3.5 3.5,3.5 1.933,0 3.5,-1.567 3.5,-3.5 0,-1.933 -1.567,-3.5 -3.5,-3.5 z m 10,0.998 c -0.277,0 -0.5,0.223 -0.5,0.5 0,0.277 0.223,0.502 0.5,0.502 l 1,0 c 0.277,0 0.5,-0.225 0.5,-0.502 0,-0.277 -0.223,-0.5 -0.5,-0.5 l -1,0 z m 3,0 c -0.277,0 -0.5,0.223 -0.5,0.5 0,0.277 0.223,0.502 0.5,0.502 l 1,0 c 0.277,0 0.5,-0.225 0.5,-0.502 0,-0.277 -0.223,-0.5 -0.5,-0.5 l -1,0 z m -13,1 c 0.828,0 1.5,0.672 1.5,1.5 0,0.828 -0.672,1.5 -1.5,1.5 -0.828,0 -1.5,-0.672 -1.5,-1.5 0,-0.828 0.672,-1.5 1.5,-1.5 z m 13,0.998 c -0.277,0 -0.5,0.223 -0.5,0.5 0,0.277 0.223,0.502 0.5,0.502 l 1,0 c 0.277,0 0.5,-0.225 0.5,-0.502 0,-0.277 -0.223,-0.5 -0.5,-0.5 l -1,0 z m -3,0.002 c -0.277,0 -0.5,0.221 -0.5,0.498 0,0.277 0.223,0.502 0.5,0.502 l 1,0 c 0.277,0 0.5,-0.225 0.5,-0.502 0,-0.277 -0.223,-0.498 -0.5,-0.498 l -1,0 z m 4.5,3 c -0.552,0 -1,0.448 -1,1 0,0.552 0.448,1 1,1 0.552,0 1,-0.448 1,-1 0,-0.552 -0.448,-1 -1,-1 z"
       mix-blend-mode="normal"
       white-space="normal"
       isolation="auto"
       style="color:#000000;white-space:normal;display:inline;visibility:visible;opacity:1;isolation:auto;mix-blend-mode:normal;color-interpolation:sRGB;color-interpolation-filters:linearRGB;solid-color:#000000;solid-opacity:1;fill:#f9eff1;fill-opacity:1;fill-rule:evenodd;stroke:none;color-rendering:auto;image-rendering:auto;shape-rendering:auto"
       id="path35097" />
  </g>
</svg>
