<?xml version="1.0" encoding="UTF-8" standalone="no"?>
<svg
   xmlns:osb="http://www.openswatchbook.org/uri/2009/osb"
   xmlns:dc="http://purl.org/dc/elements/1.1/"
   xmlns:cc="http://creativecommons.org/ns#"
   xmlns:rdf="http://www.w3.org/1999/02/22-rdf-syntax-ns#"
   xmlns:svg="http://www.w3.org/2000/svg"
   xmlns="http://www.w3.org/2000/svg"
   xmlns:xlink="http://www.w3.org/1999/xlink"
   id="svg7649"
   version="1.0"
   width="32"
   height="32">
  <metadata
     id="metadata7661">
    <rdf:RDF>
      <cc:Work
         rdf:about="">
        <dc:format>image/svg+xml</dc:format>
        <dc:type
           rdf:resource="http://purl.org/dc/dcmitype/StillImage" />
        <dc:title></dc:title>
      </cc:Work>
    </rdf:RDF>
  </metadata>
  <defs
     id="defs7659">
    <linearGradient
       gradientTransform="matrix(0,-1,1,0,-1.5e-6,47.999998)"
       gradientUnits="userSpaceOnUse"
       x2="47"
       x1="1"
       id="linearGradient3764">
      <stop
         id="stop7"
         style="stop-color:#344e8e;stop-opacity:1" />
      <stop
         id="stop9"
         style="stop-color:#3a569c;stop-opacity:1"
         offset="1" />
    </linearGradient>
    <linearGradient
       gradientTransform="matrix(0,-1,1,0,44.444443,47.999998)"
       gradientUnits="userSpaceOnUse"
       x2="47"
       x1="1"
       id="linearGradient3764-1">
      <stop
         id="stop7-0"
         style="stop-color:#f7b747;stop-opacity:1" />
      <stop
         id="stop9-3"
         style="stop-color:#f8bd5a;stop-opacity:1"
         offset="1" />
    </linearGradient>
    <linearGradient
       gradientTransform="matrix(0,-1,1,0,-1.5e-6,47.999998)"
       gradientUnits="userSpaceOnUse"
       x2="47"
       x1="1"
       id="linearGradient3764-6">
      <stop
         id="stop7-7"
         style="stop-color:#f6b042;stop-opacity:1" />
      <stop
         id="stop9-32"
         style="stop-color:#f7b754;stop-opacity:1"
         offset="1" />
    </linearGradient>
    <linearGradient
       gradientTransform="matrix(0,-1,1,0,-1.5e-6,47.999998)"
       gradientUnits="userSpaceOnUse"
       x2="47"
       x1="1"
       id="linearGradient3764-2">
      <stop
         id="stop7-1"
         style="stop-color:#ad897f;stop-opacity:1" />
      <stop
         id="stop9-5"
         style="stop-color:#b5948b;stop-opacity:1"
         offset="1" />
    </linearGradient>
    <linearGradient
       id="linearGradient3874">
      <stop
         id="stop3876"
         offset="0"
         style="stop-color:#ffffff;stop-opacity:1;" />
      <stop
         id="stop3878"
         offset="1"
         style="stop-color:#ffffff;stop-opacity:0;" />
    </linearGradient>
    <linearGradient
       id="linearGradient3858">
      <stop
         style="stop-color:#000000;stop-opacity:1;"
         offset="0"
         id="stop3860" />
      <stop
         style="stop-color:#000000;stop-opacity:0;"
         offset="1"
         id="stop3862" />
    </linearGradient>
    <linearGradient
       id="linearGradient3045">
      <stop
         style="stop-color:#91bedd;stop-opacity:1;"
         offset="0"
         id="stop3047" />
      <stop
         style="stop-color:#4986b1;stop-opacity:1;"
         offset="1"
         id="stop3049" />
    </linearGradient>
    <linearGradient
       id="linearGradient4213">
      <stop
         id="stop4215"
         offset="0"
         style="stop-color:#b1d7f3;stop-opacity:1" />
      <stop
         id="stop4217"
         offset="1"
         style="stop-color:#8fafda;stop-opacity:1" />
    </linearGradient>
    <linearGradient
       id="linearGradient5460"
       osb:paint="gradient">
      <stop
         style="stop-color:#e6e6e6;stop-opacity:1"
         offset="0"
         id="stop5462" />
      <stop
         style="stop-color:#ffffff;stop-opacity:1"
         offset="1"
         id="stop5464" />
    </linearGradient>
    <linearGradient
       id="linearGradient5476"
       osb:paint="solid">
      <stop
         style="stop-color:#772953;stop-opacity:1;"
         offset="0"
         id="stop5478" />
    </linearGradient>
    <linearGradient
       xlink:href="#linearGradient4213"
       id="linearGradient3037"
       gradientUnits="userSpaceOnUse"
       x1="144"
       y1="918.36218"
       x2="144"
       y2="1052.3622"
       gradientTransform="matrix(1.7777778,0,0,1.7761194,16,-1563.3597)" />
    <filter
       id="filter4223"
       style="color-interpolation-filters:sRGB">
      <feBlend
         id="feBlend4225"
         in2="BackgroundImage"
         mode="multiply" />
    </filter>
    <filter
       id="filter4154"
       style="color-interpolation-filters:sRGB">
      <feComposite
         id="feComposite4156"
         in2="SourceGraphic"
         k3="0"
         k2="1"
         k1="0"
         result="composite1"
         k4="0"
         operator="arithmetic" />
      <feColorMatrix
         id="feColorMatrix4158"
         type="saturate"
         values="0"
         result="colormatrix1"
         in="composite1" />
      <feFlood
         id="feFlood4160"
         result="flood1"
         flood-color="rgb(72,59,72)" />
      <feBlend
         id="feBlend4162"
         result="blend1"
         mode="multiply"
         in2="colormatrix1"
         in="flood1" />
      <feBlend
         id="feBlend4164"
         mode="screen"
         in2="blend1"
         result="blend2" />
      <feColorMatrix
         id="feColorMatrix4166"
         type="saturate"
         values="1"
         result="colormatrix2"
         in="blend2" />
      <feComposite
         id="feComposite4168"
         operator="in"
         result="composite2"
         in2="SourceGraphic"
         in="colormatrix2" />
    </filter>
    <linearGradient
       xlink:href="#linearGradient3858"
       id="linearGradient3864"
       x1="272"
       y1="256"
       x2="368"
       y2="352"
       gradientUnits="userSpaceOnUse" />
    <linearGradient
       xlink:href="#linearGradient3874"
       id="linearGradient3872"
       gradientUnits="userSpaceOnUse"
       x1="272"
       y1="256"
       x2="368"
       y2="352"
       gradientTransform="rotate(180,272,272)" />
    <linearGradient
       xlink:href="#linearGradient3874"
       id="linearGradient3906"
       gradientUnits="userSpaceOnUse"
       gradientTransform="rotate(180,272,272)"
       x1="288"
       y1="264"
       x2="360"
       y2="328" />
    <linearGradient
       xlink:href="#linearGradient3858"
       id="linearGradient3908"
       gradientUnits="userSpaceOnUse"
       x1="288"
       y1="272"
       x2="368"
       y2="352" />
    <clipPath
       clipPathUnits="userSpaceOnUse"
       id="clipPath9430">
      <path
         id="path9432"
         d="m 166.0625,-196 179.875,0 C 491.2348,-196 512,-175.28677 512,-30.125 l 0,148.25 C 512,263.28618 491.2348,284 345.9375,284 l -179.875,0 C 20.7652,284 0,263.28618 0,118.125 L 0,-30.125 C 0,-175.28677 20.7652,-196 166.0625,-196 Z"
         style="color:#000000;display:inline;overflow:visible;visibility:visible;fill:#ffffff;fill-opacity:1;fill-rule:nonzero;stroke:none;stroke-width:1;marker:none;enable-background:new" />
    </clipPath>
    <linearGradient
       gradientTransform="matrix(0,-1,1,0,-1.5e-6,47.999998)"
       gradientUnits="userSpaceOnUse"
       x2="47"
       x1="1"
       id="linearGradient3764-3">
      <stop
         id="stop7-3"
         style="stop-color:#4eb470;stop-opacity:1" />
      <stop
         id="stop9-8"
         style="stop-color:#5dba7c;stop-opacity:1"
         offset="1" />
    </linearGradient>
    <linearGradient
       gradientTransform="matrix(3.543307,0,0,3.543307,-1,0)"
       x2="10.442"
       x1="3.669"
       gradientUnits="userSpaceOnUse"
       id="linear0">
      <stop
         id="stop12"
         style="stop-color:#e2f4fb;stop-opacity:1" />
      <stop
         id="stop14"
         style="stop-color:#f9f9f9;stop-opacity:1"
         offset="1" />
    </linearGradient>
    <linearGradient
       gradientTransform="matrix(0,-1,1,0,-1.5e-6,47.999998)"
       gradientUnits="userSpaceOnUse"
       x2="47"
       x1="1"
       id="linearGradient3764-28">
      <stop
         id="stop7-5"
         style="stop-color:#18aa86;stop-opacity:1" />
      <stop
         id="stop9-80"
         style="stop-color:#1abc95;stop-opacity:1"
         offset="1" />
    </linearGradient>
    <linearGradient
       gradientTransform="matrix(0,-1,1,0,-1.5e-6,47.999998)"
       gradientUnits="userSpaceOnUse"
       x2="47"
       x1="1"
       id="linearGradient3764-8">
      <stop
         id="stop7-6"
         style="stop-color:#5dbacb;stop-opacity:1" />
      <stop
         id="stop9-9"
         style="stop-color:#6cc0d0;stop-opacity:1"
         offset="1" />
    </linearGradient>
    <linearGradient
       gradientUnits="userSpaceOnUse"
       x2="24"
       x1="21"
       id="linearGradient4251"
       xlink:href="#linearGradient4309" />
    <linearGradient
       id="linearGradient4309">
      <stop
         id="stop13"
         style="stop-color:#eff5eb;stop-opacity:1" />
      <stop
         id="stop15"
         style="stop-color:#d1e2c4;stop-opacity:1"
         offset="1" />
    </linearGradient>
    <linearGradient
       gradientTransform="matrix(-1,0,0,1,48,0)"
       x2="24"
       x1="21"
       gradientUnits="userSpaceOnUse"
       id="linearGradient4265"
       xlink:href="#linearGradient4309" />
    <linearGradient
       gradientUnits="userSpaceOnUse"
       y2="1"
       x2="0"
       y1="47"
       id="linearGradient3845">
      <stop
         id="stop7-33"
         style="stop-color:#24bbd2;stop-opacity:1" />
      <stop
         id="stop9-7"
         style="stop-color:#2fc4db;stop-opacity:1"
         offset="1" />
    </linearGradient>
    <linearGradient
       gradientTransform="matrix(0,-1,1,0,-1.5e-6,47.999998)"
       gradientUnits="userSpaceOnUse"
       x2="47"
       x1="1"
       id="linearGradient3764-4">
      <stop
         id="stop7-37"
         style="stop-color:#de4f48;stop-opacity:1" />
      <stop
         id="stop9-1"
         style="stop-color:#e16059;stop-opacity:1"
         offset="1" />
    </linearGradient>
    <linearGradient
       gradientTransform="matrix(0,-1,1,0,-1.5e-6,47.999998)"
       gradientUnits="userSpaceOnUse"
       x2="47"
       x1="1"
       id="linearGradient3764-39">
      <stop
         id="stop7-64"
         style="stop-color:#ee810c;stop-opacity:1" />
      <stop
         id="stop9-2"
         style="stop-color:#f38b1b;stop-opacity:1"
         offset="1" />
    </linearGradient>
    <linearGradient
       gradientTransform="matrix(0,-1,1,0,-1.5e-6,47.999998)"
       gradientUnits="userSpaceOnUse"
       x2="47"
       x1="1"
       id="linearGradient3764-0">
      <stop
         id="stop7-2"
         style="stop-color:#3db0e3;stop-opacity:1" />
      <stop
         id="stop9-95"
         style="stop-color:#50b8e6;stop-opacity:1"
         offset="1" />
    </linearGradient>
    <linearGradient
       id="linearGradient3102-2"
       gradientUnits="userSpaceOnUse"
       gradientTransform="matrix(0.05622958,0,0,0.05622958,0.07160145,-0.0527796)"
       x1="135"
       y1="120"
       x2="160"
       y2="160">
      <stop
         id="stop12-7"
         style="stop-color:#eff7fc" />
      <stop
         id="stop14-4"
         style="stop-color:#fff"
         offset="1" />
    </linearGradient>
    <linearGradient
       gradientTransform="matrix(0,-1,1,0,-1.5e-6,47.999998)"
       gradientUnits="userSpaceOnUse"
       x2="47"
       x1="1"
       id="linearGradient3764-64">
      <stop
         id="stop7-9"
         style="stop-color:#575757;stop-opacity:1" />
      <stop
         id="stop9-12"
         style="stop-color:#616161;stop-opacity:1"
         offset="1" />
    </linearGradient>
    <linearGradient
       gradientTransform="matrix(0,-1,1,0,-1.5e-6,47.999998)"
       gradientUnits="userSpaceOnUse"
       x2="47"
       x1="1"
       id="linearGradient3764-31">
      <stop
         id="stop7-8"
         style="stop-color:#315bd1;stop-opacity:1" />
      <stop
         id="stop9-13"
         style="stop-color:#4166d4;stop-opacity:1"
         offset="1" />
    </linearGradient>
    <linearGradient
       gradientUnits="userSpaceOnUse"
       y2="1"
       x2="0"
       y1="47"
       id="linearGradient3764-89">
      <stop
         id="stop7-24"
         style="stop-color:#23bd88;stop-opacity:1" />
      <stop
         id="stop9-51"
         style="stop-color:#26cd93;stop-opacity:1"
         offset="1" />
    </linearGradient>
    <linearGradient
       gradientTransform="matrix(0,-1,1,0,-1.5e-6,47.999998)"
       gradientUnits="userSpaceOnUse"
       x2="47"
       x1="1"
       id="linearGradient3764-00">
      <stop
         id="stop7-13"
         style="stop-color:#075f93;stop-opacity:1" />
      <stop
         id="stop9-30"
         style="stop-color:#086ba6;stop-opacity:1"
         offset="1" />
    </linearGradient>
    <linearGradient
       gradientTransform="matrix(0.9,0,0,0.9,2.4499,2.45)"
       gradientUnits="userSpaceOnUse"
       y2="1"
       x2="0"
       y1="47"
       id="linearGradient3764-002">
      <stop
         id="stop7-22"
         style="stop-color:#67ac5e;stop-opacity:1" />
      <stop
         id="stop9-4"
         style="stop-color:#74b36b;stop-opacity:1"
         offset="1" />
    </linearGradient>
    <linearGradient
       gradientTransform="matrix(0,-1,1,0,-1.5e-6,47.999998)"
       gradientUnits="userSpaceOnUse"
       x2="47"
       x1="1"
       id="linearGradient3764-7">
      <stop
         id="stop7-86"
         style="stop-color:#f6b042;stop-opacity:1" />
      <stop
         id="stop9-0"
         style="stop-color:#f7b754;stop-opacity:1"
         offset="1" />
    </linearGradient>
    <linearGradient
       x2="-24"
       x1="-27"
       gradientUnits="userSpaceOnUse"
       id="linearGradient3357">
      <stop
         style="stop-color:#e25543;stop-opacity:1"
         id="stop14433" />
      <stop
         offset="1"
         style="stop-color:#e96b5a;stop-opacity:1"
         id="stop14435" />
    </linearGradient>
    <linearGradient
       id="linearGradient3764-06"
       x1="1"
       x2="47"
       gradientUnits="userSpaceOnUse"
       gradientTransform="matrix(0,-1,1,0,-1.5e-6,47.999998)">
      <stop
         style="stop-color:#324162;stop-opacity:1"
         id="stop14589" />
      <stop
         offset="1"
         style="stop-color:#394a6f;stop-opacity:1"
         id="stop14591" />
    </linearGradient>
    <linearGradient
       id="linear0-4"
       gradientUnits="userSpaceOnUse"
       x1="13"
       y1="28"
       x2="15"
       y2="29">
      <stop
         style="stop-color:#35587c;stop-opacity:1"
         id="stop14594" />
      <stop
         offset="1"
         style="stop-color:#335276;stop-opacity:1"
         id="stop14596" />
    </linearGradient>
    <linearGradient
       id="linear1"
       gradientUnits="userSpaceOnUse"
       x1="12.906"
       y1="27.547"
       x2="24"
       y2="28">
      <stop
         style="stop-color:#3d6084;stop-opacity:1"
         id="stop14599" />
      <stop
         offset="1"
         style="stop-color:#2f5175;stop-opacity:1"
         id="stop14601" />
    </linearGradient>
    <linearGradient
       id="linear2"
       gradientUnits="userSpaceOnUse"
       x1="27"
       y1="35"
       x2="35"
       y2="24">
      <stop
         style="stop-color:#375b80;stop-opacity:1"
         id="stop14604" />
      <stop
         offset="1"
         style="stop-color:#3d6185;stop-opacity:1"
         id="stop14606" />
    </linearGradient>
    <linearGradient
       id="linearGradient4193"
       x1="1"
       x2="47"
       gradientUnits="userSpaceOnUse">
      <stop
         style="stop-color:#2ebd59;stop-opacity:1"
         id="stop14736" />
      <stop
         offset="1"
         style="stop-color:#33cd61;stop-opacity:1"
         id="stop14738" />
    </linearGradient>
    <linearGradient
       id="linearGradient3764-37"
       x1="1"
       x2="47"
       gradientUnits="userSpaceOnUse"
       gradientTransform="matrix(0,-1,1,0,-1.5e-6,47.999998)">
      <stop
         style="stop-color:#b471e3;stop-opacity:1"
         id="stop15099" />
      <stop
         offset="1"
         style="stop-color:#bd82e6;stop-opacity:1"
         id="stop15101" />
    </linearGradient>
    <linearGradient
       id="linearGradient3764-5"
       x1="1"
       x2="47"
       gradientUnits="userSpaceOnUse"
       gradientTransform="matrix(0,-1,1,0,-1.5e-6,47.999998)">
      <stop
         style="stop-color:#ff7061;stop-opacity:1"
         id="stop16473" />
      <stop
         offset="1"
         style="stop-color:#ff8275;stop-opacity:1"
         id="stop16475" />
    </linearGradient>
    <radialGradient
       id="radial0"
       gradientUnits="userSpaceOnUse"
       cx="6.773"
       cy="5.927"
       r="0.564"
       gradientTransform="matrix(3.543307,0,0,3.543307,0.000000147638,0.000377575)">
      <stop
         style="stop-color:#8eb0c7;stop-opacity:1"
         id="stop16478" />
      <stop
         offset="1"
         style="stop-color:#8eb0c7;stop-opacity:0"
         id="stop16480" />
    </radialGradient>
    <radialGradient
       id="radial1"
       gradientUnits="userSpaceOnUse"
       cx="6"
       cy="17.292"
       r="1"
       gradientTransform="translate(18,8.707971)"
       xlink:href="#radial0" />
    <radialGradient
       xlink:href="#radial0"
       id="radialGradient3427"
       gradientUnits="userSpaceOnUse"
       gradientTransform="matrix(3.543307,0,0,3.543307,1.47638e-7,3.77575e-4)"
       cx="6.773"
       cy="5.927"
       r="0.564" />
    <linearGradient
       id="linearGradient3764-81"
       x1="1"
       x2="47"
       gradientUnits="userSpaceOnUse"
       gradientTransform="matrix(0,-1,1,0,-1.5e-6,47.999998)">
      <stop
         style="stop-color:#e4e4e4;stop-opacity:1"
         id="stop16695" />
      <stop
         offset="1"
         style="stop-color:#eee;stop-opacity:1"
         id="stop16697" />
    </linearGradient>
    <linearGradient
       id="linearGradient3764-30"
       x1="1"
       x2="47"
       gradientUnits="userSpaceOnUse"
       gradientTransform="matrix(0,-1,1,0,-1.5e-6,47.999998)">
      <stop
         style="stop-color:#f5c755;stop-opacity:1"
         id="stop16859" />
      <stop
         offset="1"
         style="stop-color:#f6cd68;stop-opacity:1"
         id="stop16861" />
    </linearGradient>
    <linearGradient
       id="linearGradient3764-26"
       x1="1"
       x2="47"
       gradientUnits="userSpaceOnUse"
       gradientTransform="matrix(0,-1,1,0,-1.5e-6,47.999998)">
      <stop
         style="stop-color:#e0a300;stop-opacity:1"
         id="stop16950" />
      <stop
         offset="1"
         style="stop-color:#f4b400;stop-opacity:1"
         id="stop16952" />
    </linearGradient>
    <linearGradient
       id="linearGradient3764-43"
       x1="1"
       x2="47"
       gradientUnits="userSpaceOnUse"
       gradientTransform="matrix(0,-1,1,0,-1.5e-6,47.999998)">
      <stop
         style="stop-color:#3d3d3d;stop-opacity:1"
         id="stop18185" />
      <stop
         offset="1"
         style="stop-color:#474747;stop-opacity:1"
         id="stop18187" />
    </linearGradient>
    <linearGradient
       id="linearGradient3764-86"
       x1="1"
       x2="47"
       gradientUnits="userSpaceOnUse"
       gradientTransform="matrix(0,-1,1,0,-1.5e-6,47.999998)">
      <stop
         style="stop-color:#d84430;stop-opacity:1"
         id="stop18278" />
      <stop
         offset="1"
         style="stop-color:#db5441;stop-opacity:1"
         id="stop18280" />
    </linearGradient>
    <linearGradient
       id="linearGradient3064"
       y1="1"
       x2="0"
       y2="47"
       gradientUnits="userSpaceOnUse">
      <stop
         style="stop-color:#555;stop-opacity:1"
         id="stop18419" />
      <stop
         offset="1"
         style="stop-color:#4b4b4b;stop-opacity:1"
         id="stop18421" />
    </linearGradient>
    <linearGradient
       id="linearGradient3764-70"
       x1="1"
       x2="47"
       gradientUnits="userSpaceOnUse"
       gradientTransform="matrix(0,-1,1,0,-1.5e-6,47.999998)">
      <stop
         style="stop-color:#f05d1c;stop-opacity:1"
         id="stop18510" />
      <stop
         offset="1"
         style="stop-color:#f16a30;stop-opacity:1"
         id="stop18512" />
    </linearGradient>
    <linearGradient
       id="linearGradient3764-819"
       x1="1"
       x2="47"
       gradientUnits="userSpaceOnUse"
       gradientTransform="matrix(0,-1,1,0,-1.5e-6,47.999998)">
      <stop
         style="stop-color:#a467af;stop-opacity:1"
         id="stop18695" />
      <stop
         offset="1"
         style="stop-color:#ac74b6;stop-opacity:1"
         id="stop18697" />
    </linearGradient>
    <linearGradient
       id="linearGradient3764-816"
       x1="1"
       x2="47"
       gradientUnits="userSpaceOnUse"
       gradientTransform="matrix(0,-1,1,0,-1.5e-6,47.999998)">
      <stop
         style="stop-color:#d3d3d3;stop-opacity:1"
         id="stop22104" />
      <stop
         offset="1"
         style="stop-color:#ddd;stop-opacity:1"
         id="stop22106" />
    </linearGradient>
    <linearGradient
       id="linearGradient3764-48"
       x1="1"
       x2="47"
       gradientUnits="userSpaceOnUse"
       gradientTransform="matrix(0,-1,1,0,-1.5e-6,47.999998)">
      <stop
         style="stop-color:#cfcfcf;stop-opacity:1"
         id="stop22223" />
      <stop
         offset="1"
         style="stop-color:#d9d9d9;stop-opacity:1"
         id="stop22225" />
    </linearGradient>
    <linearGradient
       id="linearGradient3126"
       gradientUnits="userSpaceOnUse"
       gradientTransform="matrix(0,-1,1,0,-1.5e-6,47.999998)"
       x1="1"
       x2="47">
      <stop
         style="stop-color:#5ab133;stop-opacity:1"
         id="stop22615" />
      <stop
         offset="1"
         style="stop-color:#63c038;stop-opacity:1"
         id="stop22617" />
    </linearGradient>
    <linearGradient
       id="linearGradient3764-50"
       x1="1"
       x2="47"
       gradientUnits="userSpaceOnUse"
       gradientTransform="matrix(0,-1,1,0,-1.5e-6,47.999998)">
      <stop
         style="stop-color:#00acec;stop-opacity:1"
         id="stop22936" />
      <stop
         offset="1"
         style="stop-color:#01b9ff;stop-opacity:1"
         id="stop22938" />
    </linearGradient>
    <linearGradient
       id="linearGradient3764-15"
       x1="1"
       x2="47"
       gradientUnits="userSpaceOnUse"
       gradientTransform="matrix(0,-1,1,0,-1.5e-6,47.999998)">
      <stop
         style="stop-color:#4b4b4b;stop-opacity:1"
         id="stop27458" />
      <stop
         offset="1"
         style="stop-color:#555;stop-opacity:1"
         id="stop27460" />
    </linearGradient>
    <linearGradient
       id="linearGradient3764-9"
       x1="1"
       x2="47"
       gradientUnits="userSpaceOnUse"
       gradientTransform="matrix(0,-1,1,0,-1.5e-6,47.999998)">
      <stop
         style="stop-color:#93c848;stop-opacity:1"
         id="stop28213" />
      <stop
         offset="1"
         style="stop-color:#9ccd57;stop-opacity:1"
         id="stop28215" />
    </linearGradient>
    <linearGradient
       id="linearGradient3764-706"
       x1="1"
       x2="47"
       gradientUnits="userSpaceOnUse"
       gradientTransform="matrix(0,-1,1,0,-1.5e-6,47.999998)">
      <stop
         style="stop-color:#d6740a;stop-opacity:1"
         id="stop28339" />
      <stop
         offset="1"
         style="stop-color:#e97e0b;stop-opacity:1"
         id="stop28341" />
    </linearGradient>
    <linearGradient
       id="linearGradient3764-289"
       x1="1"
       x2="47"
       gradientUnits="userSpaceOnUse"
       gradientTransform="matrix(0,-1,1,0,-1.5e-6,47.999998)">
      <stop
         style="stop-color:#01a0db;stop-opacity:1"
         id="stop28428" />
      <stop
         offset="1"
         style="stop-color:#01b1ef;stop-opacity:1"
         id="stop28430" />
    </linearGradient>
    <linearGradient
       id="linearGradient3845-5"
       y1="47"
       x2="0"
       y2="1"
       gradientUnits="userSpaceOnUse">
      <stop
         style="stop-color:#6fa2b4;stop-opacity:1"
         id="stop28619" />
      <stop
         offset="1"
         style="stop-color:#7dabbb;stop-opacity:1"
         id="stop28621" />
    </linearGradient>
    <linearGradient
       id="linearGradient3764-02"
       x1="1"
       x2="47"
       gradientUnits="userSpaceOnUse"
       gradientTransform="matrix(0,-1,1,0,-1.5e-6,47.999998)">
      <stop
         style="stop-color:#314c6b;stop-opacity:1"
         id="stop28723" />
      <stop
         offset="1"
         style="stop-color:#375678;stop-opacity:1"
         id="stop28725" />
    </linearGradient>
    <linearGradient
       id="linearGradient3764-72"
       x1="1"
       x2="47"
       gradientUnits="userSpaceOnUse"
       gradientTransform="matrix(0,-1,1,0,-1.5e-6,47.999998)">
      <stop
         style="stop-color:#e1281f;stop-opacity:1"
         id="stop28837" />
      <stop
         offset="1"
         style="stop-color:#e33a31;stop-opacity:1"
         id="stop28839" />
    </linearGradient>
    <linearGradient
       id="linearGradient3764-817"
       x1="1"
       x2="47"
       gradientUnits="userSpaceOnUse"
       gradientTransform="matrix(0,-1,1,0,-1.5e-6,47.999998)">
      <stop
         style="stop-color:#7568a0;stop-opacity:1"
         id="stop30966" />
      <stop
         offset="1"
         style="stop-color:#8074a8;stop-opacity:1"
         id="stop30968" />
    </linearGradient>
    <linearGradient
       id="linearGradient3764-79"
       x1="1"
       x2="47"
       gradientUnits="userSpaceOnUse"
       gradientTransform="matrix(0,-1,1,0,-1.5e-6,47.999998)">
      <stop
         style="stop-color:#2c313c;stop-opacity:1"
         id="stop34948" />
      <stop
         offset="1"
         style="stop-color:#353b47;stop-opacity:1"
         id="stop34950" />
    </linearGradient>
    <linearGradient
       id="linearGradient4164"
       x1="1"
       x2="47"
       gradientUnits="userSpaceOnUse">
      <stop
         style="stop-color:#f44c68;stop-opacity:1"
         id="stop35063" />
      <stop
         offset="1"
         style="stop-color:#f55f78;stop-opacity:1"
         id="stop35065" />
    </linearGradient>
    <linearGradient
       id="linearGradient3764-798"
       x1="1"
       x2="47"
       gradientUnits="userSpaceOnUse"
       gradientTransform="matrix(0,-1,1,0,-1.5e-6,47.999998)">
      <stop
         style="stop-color:#66b7cc;stop-opacity:1"
         id="stop35216" />
      <stop
         offset="1"
         style="stop-color:#75bed1;stop-opacity:1"
         id="stop35218" />
    </linearGradient>
    <linearGradient
       id="linearGradient3764-898"
       x1="1"
       x2="47"
       gradientUnits="userSpaceOnUse"
       gradientTransform="matrix(0,-1,1,0,-1.5e-6,47.999998)">
      <stop
         style="stop-color:#098cc3;stop-opacity:1"
         id="stop35370" />
      <stop
         offset="1"
         style="stop-color:#0a99d6;stop-opacity:1"
         id="stop35372" />
    </linearGradient>
    <linearGradient
       id="linearGradient3764-05"
       x1="1"
       x2="47"
       gradientUnits="userSpaceOnUse"
       gradientTransform="matrix(0,-1,1,0,-1.5e-6,47.999998)">
      <stop
         style="stop-color:#a31d23;stop-opacity:1"
         id="stop35475" />
      <stop
         offset="1"
         style="stop-color:#b42026;stop-opacity:1"
         id="stop35477" />
    </linearGradient>
    <linearGradient
       id="linearGradient3764-20"
       x1="1"
       x2="47"
       gradientUnits="userSpaceOnUse"
       gradientTransform="matrix(0,-1,1,0,-1.5e-6,47.999998)">
      <stop
         style="stop-color:#c94943;stop-opacity:1"
         id="stop35698" />
      <stop
         offset="1"
         style="stop-color:#ce5952;stop-opacity:1"
         id="stop35700" />
    </linearGradient>
    <linearGradient
       id="linearGradient3764-24"
       x1="1"
       x2="47"
       gradientUnits="userSpaceOnUse"
       gradientTransform="matrix(0,-1,1,0,-1.5e-6,47.999998)">
      <stop
         style="stop-color:#e05a48;stop-opacity:1"
         id="stop35838" />
      <stop
         offset="1"
         style="stop-color:#e36959;stop-opacity:1"
         id="stop35840" />
    </linearGradient>
    <linearGradient
       id="linearGradient3764-373"
       x1="1"
       x2="47"
       gradientUnits="userSpaceOnUse"
       gradientTransform="matrix(0,-1,1,0,-1.5e-6,47.999998)">
      <stop
         style="stop-color:#436769;stop-opacity:1"
         id="stop36000" />
      <stop
         offset="1"
         style="stop-color:#4b7376;stop-opacity:1"
         id="stop36002" />
    </linearGradient>
    <linearGradient
       id="linearGradient3764-001"
       x1="1"
       x2="47"
       gradientUnits="userSpaceOnUse"
       gradientTransform="matrix(0,-1,1,0,-1.5e-6,47.999998)">
      <stop
         style="stop-color:#d52f3f;stop-opacity:1"
         id="stop36097" />
      <stop
         offset="1"
         style="stop-color:#d8404d;stop-opacity:1"
         id="stop36099" />
    </linearGradient>
    <linearGradient
       id="linearGradient3764-58"
       x1="1"
       x2="47"
       gradientUnits="userSpaceOnUse"
       gradientTransform="matrix(0,-1,1,0,-1.5e-6,47.999998)">
      <stop
         style="stop-color:#60c3e0;stop-opacity:1"
         id="stop36378" />
      <stop
         offset="1"
         style="stop-color:#71c9e3;stop-opacity:1"
         id="stop36380" />
    </linearGradient>
    <linearGradient
       gradientTransform="translate(0.012,0.0069995)"
       id="linearGradient4225"
       y1="47"
       x2="-0.016"
       y2="0.993"
       gradientUnits="userSpaceOnUse">
      <stop
         style="stop-color:#cf5225;stop-opacity:1"
         id="stop36383" />
      <stop
         offset="1"
         style="stop-color:#da5c2e;stop-opacity:1"
         id="stop36385" />
    </linearGradient>
    <linearGradient
       id="linearGradient3764-000"
       x1="1"
       x2="47"
       gradientUnits="userSpaceOnUse"
       gradientTransform="matrix(0,-1,1,0,-1.5e-6,47.999998)">
      <stop
         style="stop-color:#586472;stop-opacity:1"
         id="stop36501" />
      <stop
         offset="1"
         style="stop-color:#616e7d;stop-opacity:1"
         id="stop36503" />
    </linearGradient>
    <linearGradient
       id="linearGradient3764-47"
       y1="47"
       x2="0"
       y2="1"
       gradientUnits="userSpaceOnUse">
      <stop
         style="stop-color:#f59147;stop-opacity:1"
         id="stop36654" />
      <stop
         offset="1"
         style="stop-color:#f69a59;stop-opacity:1"
         id="stop36656" />
    </linearGradient>
    <linearGradient
       id="linearGradient3083"
       gradientUnits="userSpaceOnUse"
       gradientTransform="matrix(0,-1,1,0,-1.5e-6,47.999998)"
       x1="1"
       x2="47">
      <stop
         style="stop-color:#e4e4e4;stop-opacity:1"
         id="stop37130" />
      <stop
         offset="1"
         style="stop-color:#eee;stop-opacity:1"
         id="stop37132" />
    </linearGradient>
    <linearGradient
       id="linearGradient3764-314"
       x1="1"
       x2="47"
       gradientUnits="userSpaceOnUse"
       gradientTransform="matrix(0,-1,1,0,-1.5e-6,47.999998)">
      <stop
         style="stop-color:#e33e23;stop-opacity:1"
         id="stop37209" />
      <stop
         offset="1"
         style="stop-color:#e54e35;stop-opacity:1"
         id="stop37211" />
    </linearGradient>
    <linearGradient
       id="linearGradient3764-201"
       x1="1"
       x2="47"
       gradientUnits="userSpaceOnUse"
       gradientTransform="matrix(0,-1,1,0,-1.5e-6,47.999998)">
      <stop
         style="stop-color:#3d3d3d;stop-opacity:1"
         id="stop37317" />
      <stop
         offset="1"
         style="stop-color:#474747;stop-opacity:1"
         id="stop37319" />
    </linearGradient>
    <linearGradient
       id="linearGradient3764-300"
       x1="1"
       x2="47"
       gradientUnits="userSpaceOnUse"
       gradientTransform="matrix(0,-1,1,0,-1.5e-6,47.999998)">
      <stop
         style="stop-color:#ebebc3;stop-opacity:1"
         id="stop37454" />
      <stop
         offset="1"
         style="stop-color:#f0f0d2;stop-opacity:1"
         id="stop37456" />
    </linearGradient>
    <linearGradient
       id="linearGradient3764-482"
       x1="1"
       x2="47"
       gradientUnits="userSpaceOnUse"
       gradientTransform="matrix(0,-1,1,0,-1.5e-6,47.999998)">
      <stop
         style="stop-color:#54bc16;stop-opacity:1"
         id="stop37869" />
      <stop
         offset="1"
         style="stop-color:#5cce18;stop-opacity:1"
         id="stop37871" />
    </linearGradient>
    <linearGradient
       id="linearGradient3764-202"
       x1="1"
       x2="47"
       gradientUnits="userSpaceOnUse"
       gradientTransform="matrix(0,-1,1,0,-1.5e-6,47.999998)">
      <stop
         style="stop-color:#dddccd;stop-opacity:1"
         id="stop37962" />
      <stop
         offset="1"
         style="stop-color:#e5e4d9;stop-opacity:1"
         id="stop37964" />
    </linearGradient>
    <linearGradient
       id="linearGradient3764-45"
       x1="1"
       x2="47"
       gradientUnits="userSpaceOnUse"
       gradientTransform="matrix(0,-1,1,0,-1.5e-6,47.999998)">
      <stop
         style="stop-color:#73cf19;stop-opacity:1"
         id="stop38080" />
      <stop
         offset="1"
         style="stop-color:#7de21b;stop-opacity:1"
         id="stop38082" />
    </linearGradient>
  </defs>
  <path
     id="path7651"
     style="color:#000000;fill:#7ce01b;fill-opacity:1"
     d="M 0,0 0,32 32,32 32,0 Z" />
  <g
     transform="matrix(0.71767819,0,0,0.71767819,-1.3442396,-1.267386)"
     id="g38129">
    <g
       id="g38096">
      <g
         id="g38098">
        <g
           transform="translate(1,1)"
           id="g38100">
          <g
             style="opacity:0.1"
             id="g38102">
            <!-- color: #7de21b -->
            <g
               id="g38104">
              <path
                 d="m 21.254,9 c -0.313,0 -0.586,0.379 -0.586,0.879 l 0,2.953 c 0,0.043 0.027,0.078 0.031,0.121 -0.863,0.242 -1.695,0.594 -2.469,1.012 L 16.312,12.11 c -0.125,-0.125 -0.246,-0.188 -0.391,-0.254 -0.316,-0.207 -0.629,-0.27 -0.809,-0.094 l -3.934,3.801 c -0.23,0.215 -0.105,0.684 0.258,1.039 l 2.02,1.949 c 0.027,0.023 0.039,0.039 0.066,0.063 -0.297,0.531 -0.574,1.086 -0.781,1.664 l -2.695,0 c -0.371,0 -0.68,0.172 -0.813,0.41 -0.137,0.117 -0.227,0.273 -0.227,0.441 l 0,6.438 c 0,0.371 0.379,0.66 0.879,0.66 l 2.762,0 c 0.105,0 0.203,-0.039 0.297,-0.066 0.219,0.543 0.48,1.066 0.777,1.566 -0.035,0.031 -0.066,0.066 -0.105,0.098 l -1.977,1.918 c -0.289,0.273 -0.398,0.578 -0.328,0.816 -0.035,0.172 -0.004,0.34 0.102,0.441 l 3.902,3.801 c 0.223,0.215 0.707,0.098 1.07,-0.25 l 2.02,-1.949 c 0.109,-0.109 0.164,-0.227 0.227,-0.348 0.656,0.32 1.355,0.582 2.078,0.785 -0.004,0.043 -0.031,0.082 -0.031,0.125 l 0,2.918 c 0,0.5 0.273,0.91 0.586,0.91 l 5.492,0 c 0.309,0 0.551,-0.41 0.551,-0.91 l 0,-2.918 c 0,-0.043 0.004,-0.082 0,-0.125 0.824,-0.23 1.629,-0.52 2.375,-0.91 0.055,0.16 0.141,0.328 0.293,0.473 l 2.02,1.949 c 0.363,0.352 0.82,0.465 1.043,0.25 L 36.973,33 c 0.109,-0.109 0.141,-0.289 0.098,-0.473 0.047,-0.234 -0.09,-0.523 -0.355,-0.785 l -1.984,-1.918 c -0.102,-0.098 -0.215,-0.195 -0.328,-0.25 0.262,-0.457 0.484,-0.922 0.691,-1.414 0.094,0.023 0.188,0.063 0.293,0.063 l 2.727,0 c 0.5,0 0.91,-0.293 0.91,-0.66 l 0,-6.438 c 0,-0.176 -0.109,-0.32 -0.258,-0.438 -0.004,-0.008 0.004,-0.027 0,-0.035 -0.012,-0.004 -0.023,-0.023 -0.031,-0.031 -0.145,-0.203 -0.445,-0.348 -0.781,-0.348 l -2.664,0 c -0.176,-0.5 -0.438,-0.977 -0.684,-1.445 0.125,-0.059 0.242,-0.141 0.355,-0.25 l 2.02,-1.949 c 0.363,-0.352 0.449,-0.82 0.23,-1.039 L 33.31,11.789 c -0.168,-0.164 -0.48,-0.137 -0.781,0.031 -0.168,0.055 -0.328,0.133 -0.488,0.285 l -1.98,1.914 c -0.02,0.02 -0.02,0.047 -0.031,0.066 -0.836,-0.477 -1.746,-0.867 -2.695,-1.133 0.004,-0.043 0,-0.082 0,-0.121 l 0,-2.953 c 0,-0.5 -0.242,-0.879 -0.555,-0.879"
                 style="fill:#000000;fill-opacity:1;fill-rule:nonzero;stroke:none"
                 id="path38106" />
            </g>
          </g>
        </g>
      </g>
    </g>
    <g
       id="g38108">
      <g
         id="g38110">
        <!-- color: #7de21b -->
        <g
           id="g38112">
          <path
             d="m 33.824,24.25 c 0.063,3.496 -1.855,6.75 -5.02,8.516 -3.16,1.766 -7.07,1.766 -10.23,0 -3.16,-1.766 -5.078,-5.02 -5.02,-8.516 -0.059,-3.496 1.859,-6.75 5.02,-8.516 3.16,-1.766 7.07,-1.766 10.23,0 3.16,1.766 5.078,5.02 5.02,8.516 m 0,0"
             style="fill:#191919;fill-opacity:1;fill-rule:nonzero;stroke:none"
             id="path38114" />
          <path
             d="m 21.254,9 c -0.313,0 -0.586,0.379 -0.586,0.879 l 0,2.953 c 0,0.043 0.027,0.078 0.031,0.121 -0.863,0.242 -1.695,0.594 -2.469,1.012 L 16.312,12.11 c -0.125,-0.125 -0.246,-0.188 -0.391,-0.254 -0.316,-0.207 -0.629,-0.27 -0.809,-0.094 l -3.934,3.801 c -0.23,0.215 -0.105,0.684 0.258,1.039 l 2.02,1.949 c 0.027,0.023 0.039,0.039 0.066,0.063 -0.297,0.531 -0.574,1.086 -0.781,1.664 l -2.695,0 c -0.371,0 -0.68,0.172 -0.813,0.41 -0.137,0.117 -0.227,0.273 -0.227,0.441 l 0,6.438 c 0,0.371 0.379,0.66 0.879,0.66 l 2.762,0 c 0.105,0 0.203,-0.039 0.297,-0.066 0.219,0.543 0.48,1.066 0.777,1.566 -0.035,0.031 -0.066,0.066 -0.105,0.098 l -1.977,1.918 c -0.289,0.273 -0.398,0.578 -0.328,0.816 -0.035,0.172 -0.004,0.34 0.102,0.441 l 3.902,3.801 c 0.223,0.215 0.707,0.098 1.07,-0.25 l 2.02,-1.949 c 0.109,-0.109 0.164,-0.227 0.227,-0.348 0.656,0.32 1.355,0.582 2.078,0.785 -0.004,0.043 -0.031,0.082 -0.031,0.125 l 0,2.918 c 0,0.5 0.273,0.91 0.586,0.91 l 5.492,0 c 0.309,0 0.551,-0.41 0.551,-0.91 l 0,-2.918 c 0,-0.043 0.004,-0.082 0,-0.125 0.824,-0.23 1.629,-0.52 2.375,-0.91 0.055,0.16 0.141,0.328 0.293,0.473 l 2.02,1.949 c 0.363,0.352 0.82,0.465 1.043,0.25 L 36.973,33 c 0.109,-0.109 0.141,-0.289 0.098,-0.473 0.047,-0.234 -0.09,-0.523 -0.355,-0.785 l -1.984,-1.918 c -0.102,-0.098 -0.215,-0.195 -0.328,-0.25 0.262,-0.457 0.484,-0.922 0.691,-1.414 0.094,0.023 0.188,0.063 0.293,0.063 l 2.727,0 c 0.5,0 0.91,-0.293 0.91,-0.66 l 0,-6.438 c 0,-0.176 -0.109,-0.32 -0.258,-0.438 -0.004,-0.008 0.004,-0.027 0,-0.035 -0.012,-0.004 -0.023,-0.023 -0.031,-0.031 -0.145,-0.203 -0.445,-0.348 -0.781,-0.348 l -2.664,0 c -0.176,-0.5 -0.438,-0.977 -0.684,-1.445 0.125,-0.059 0.242,-0.141 0.355,-0.25 l 2.02,-1.949 c 0.363,-0.352 0.449,-0.82 0.23,-1.039 L 33.31,11.789 c -0.168,-0.164 -0.48,-0.137 -0.781,0.031 -0.168,0.055 -0.328,0.133 -0.488,0.285 l -1.98,1.914 c -0.02,0.02 -0.02,0.047 -0.031,0.066 -0.836,-0.477 -1.746,-0.867 -2.695,-1.133 0.004,-0.043 0,-0.082 0,-0.121 l 0,-2.953 c 0,-0.5 -0.242,-0.879 -0.555,-0.879 m 0.992,7 c 0.316,-0.02 0.652,0.059 0.941,0.223 0.781,0.434 1.031,1.41 0.586,2.168 -0.449,0.758 -1.43,1 -2.211,0.566 -0.781,-0.438 -1.07,-1.379 -0.617,-2.137 0.285,-0.477 0.773,-0.781 1.301,-0.82 m -3.773,1.539 c 0.531,0 1.059,0.043 1.563,0.156 0.043,0.738 0.457,1.457 1.172,1.852 0.715,0.402 1.559,0.402 2.242,0.066 1.063,1.094 1.688,2.469 1.816,3.957 l -2.797,0 c -0.273,-1.895 -1.961,-3.332 -3.996,-3.332 -0.527,0 -1.027,0.102 -1.492,0.285 l -1.434,-2.355 c 0.898,-0.41 1.902,-0.629 2.926,-0.629 m -3.898,1.164 1.395,2.355 c -0.938,0.715 -1.559,1.832 -1.559,3.078 0,1.246 0.617,2.355 1.559,3.078 l -1.395,2.352 c -0.324,-0.223 -0.652,-0.473 -0.941,-0.754 -0.813,-0.781 -1.367,-1.727 -1.691,-2.762 0.645,-0.406 1.074,-1.117 1.074,-1.918 0,-0.797 -0.426,-1.48 -1.074,-1.891 0.324,-1.027 0.879,-2.01 1.691,-2.793 0.289,-0.277 0.613,-0.527 0.941,-0.754 m -3.934,3.859 c 0.902,0 1.656,0.699 1.656,1.57 0,0.871 -0.754,1.57 -1.656,1.57 -0.902,0 -1.629,-0.699 -1.629,-1.57 0,-0.871 0.727,-1.57 1.629,-1.57 m 11.828,2.137 2.797,0 c -0.129,1.492 -0.75,2.863 -1.816,3.957 -0.688,-0.336 -1.531,-0.336 -2.242,0.066 -0.719,0.398 -1.133,1.113 -1.172,1.852 -0.508,0.113 -1.027,0.156 -1.563,0.156 -1.02,0 -2.023,-0.219 -2.926,-0.625 l 1.398,-2.328 c 0.465,0.191 0.996,0.285 1.523,0.285 2.035,0 3.727,-1.465 3.996,-3.363 m 0.035,4.398 c 0.527,0.035 1.023,0.313 1.301,0.785 0.453,0.754 0.168,1.73 -0.613,2.168 -0.781,0.438 -1.789,0.191 -2.242,-0.566 -0.449,-0.758 -0.164,-1.727 0.617,-2.168 0.293,-0.164 0.629,-0.242 0.938,-0.219 m 0,0"
             style="fill:#61b212;fill-opacity:1;fill-rule:nonzero;stroke:none"
             id="path38116" />
        </g>
      </g>
    </g>
  </g>
</svg>
