<?xml version="1.0" encoding="UTF-8" standalone="no"?>
<svg xmlns:rdf="http://www.w3.org/1999/02/22-rdf-syntax-ns#" xmlns="http://www.w3.org/2000/svg" xmlns:osb="http://www.openswatchbook.org/uri/2009/osb" height="32" width="32" version="1.0" xmlns:cc="http://creativecommons.org/ns#" xmlns:xlink="http://www.w3.org/1999/xlink" xmlns:dc="http://purl.org/dc/elements/1.1/">
 <path style="color:#000000;fill:#5a9cdf" d="m0 0v32h32v-32z"/>
 <g transform="matrix(.9167 0 0 .9167 -6.081 -6.208)">
  <g transform="translate(1,1)">
   <g style="opacity:.1">
    <path d="m14 33h12v-2h-12m0 2"/>
    <path d="m14 29h20v-1.996h-20m0 2"/>
    <path d="m14 25h20v-1.996h-20m0 2"/>
    <path d="m14 21h20v-1.996h-20m0 2"/>
    <path d="m14 17h20v-2h-20m0 2"/>
   </g>
  </g>
  <path style="fill:#f9f9f9" d="m14 33h12v-2h-12m0 2"/>
  <path style="fill:#f9f9f9" d="m14 29h20v-1.996h-20m0 2"/>
  <path style="fill:#f9f9f9" d="m14 25h20v-1.996h-20m0 2"/>
  <path style="fill:#f9f9f9" d="m14 21h20v-1.996h-20m0 2"/>
  <path style="fill:#f9f9f9" d="m14 17h20v-2h-20m0 2"/>
 </g>
</svg>
