<?xml version="1.0" encoding="UTF-8" standalone="no"?>
<svg xmlns="http://www.w3.org/2000/svg" xmlns:osb="http://www.openswatchbook.org/uri/2009/osb" height="32" width="32" version="1.0" xmlns:xlink="http://www.w3.org/1999/xlink">
 <g transform="matrix(.1138 0 0 .1138 -64.82 -29.38)">
  <path style="fill:#2db4e4" d="m569.4 258.1h281.1v281.1h-281.1z"/>
  <path style="opacity:.1;stroke-width:2.082" d="m789.2 336.7c-17.7-21.66-44.35-34.57-71.22-34.57-27.49 0-55.6 13.95-73.3 36.44-15.83 19.99-21.45 44.15-15.83 67.88 13.33 55.81 67.88 103.9 88.92 103.9 21.45 0 77.46-49.14 88.92-104.1 4.998-24.57-1.041-49.35-17.49-69.55z"/>
  <path style="stroke-width:2.082" d="m781.6 329.1c-17.7-21.66-44.35-34.57-71.22-34.57-27.49 0-55.6 13.95-73.3 36.44-15.83 19.99-21.45 44.15-15.83 67.88 13.33 55.81 67.88 103.9 88.92 103.9 21.45 0 77.46-49.14 88.92-104.1 4.998-24.57-1.041-49.35-17.49-69.55z"/>
  <path style="stroke-width:2.082;fill:#2de498" d="m789.3 396.8c-11.04 52.89-64.76 96.2-79.13 96.2-13.74 0-66.43-43.31-79.13-96.41-4.998-20.82 0-41.86 13.95-59.56 15.83-19.99 41.02-32.48 65.59-32.48 23.95 0 47.69 11.66 63.51 31.03 14.16 17.7 19.78 39.36 15.2 61.22z"/>
  <path style="stroke-width:2.082" d="m699.8 420.5c-2.499 2.915-5.831 4.789-9.579 4.998l-2.499 0.2082c-1.249 0.2082-2.499 0.2082-3.956 0.2082-9.371 0-18.32-3.124-25.61-9.162-8.329-6.872-13.33-16.45-14.37-27.28l-0.2082-2.499c-0.4165-3.748 0.8329-7.496 3.124-10.41 2.291-2.915 5.831-4.789 9.579-4.998l2.499-0.2082c10.62-1.041 21.24 2.291 29.36 8.954 8.329 6.872 13.33 16.45 14.37 27.28l0.2082 2.499c0.6247 3.956-0.6247 7.496-2.915 10.41z"/>
  <path style="stroke-width:2.082" d="m776.4 387-0.2082 2.499c-2.082 20.82-19.57 36.44-39.98 36.44-1.249 0-2.499 0-3.748-0.2082l-2.499-0.2082c-7.705-0.6247-13.54-7.705-12.7-15.41l0.2082-2.499c1.874-21.86 21.66-38.11 43.73-36.02l2.499 0.2082c7.705 0.6247 13.33 7.496 12.7 15.2z"/>
  <ellipse style="stroke-width:2.082" rx="4.997" ry="4.997" transform="rotate(-7.372)" cy="541.6" cx="637.6"/>
  <ellipse style="stroke-width:2.082" rx="4.997" ry="4.997" transform="rotate(-7.372)" cy="543.6" cx="653.7"/>
 </g>
</svg>
