<?xml version="1.0" encoding="UTF-8" standalone="no"?>
<svg xmlns="http://www.w3.org/2000/svg" height="32" width="32" version="1.0">
 <path style="color:#000000;fill:#d70000" d="m0.009628-0.03861v32.13h32.13v-32.13z"/>
 <g style="opacity:.1;color-rendering:auto;color:#000000;isolation:auto;mix-blend-mode:normal;shape-rendering:auto;solid-color:#000000;image-rendering:auto;fill:#391a1a" transform="matrix(.2018 0 0 .2018 7.354 7.55)">
  <path style="fill:#391a1a" d="m82.29 45.91c-0.937-4.071-4.267-7.074-8.275-7.521-9.489-1.06-19.1-1.065-28.66-1.06-9.566-0.005-19.17 0-28.66 1.06-4.006 0.448-7.334 3.451-8.27 7.521-1.334 5.797-1.35 12.12-1.35 18.09 0 5.969 0 12.3 1.334 18.09 0.936 4.07 4.264 7.073 8.272 7.521 9.49 1.061 19.1 1.065 28.66 1.061 9.566 0.005 19.17 0 28.66-1.061 4.006-0.448 7.336-3.451 8.272-7.521 1.333-5.797 1.34-12.12 1.34-18.09 0.01-5.97 0.02-12.3-1.31-18.09zm-53.39 4.49h-5.54v29.44h-5.15v-29.44h-5.43v-4.82h16.12zm13.98 29.44h-4.629v-2.785c-1.839 2.108-3.585 3.136-5.286 3.136-1.491 0-2.517-0.604-2.98-1.897-0.252-0.772-0.408-1.994-0.408-3.796v-20.19h4.625v18.8c0 1.084 0 1.647 0.042 1.799 0.111 0.718 0.462 1.082 1.082 1.082 0.928 0 1.898-0.715 2.924-2.166v-19.51h4.629zm17.57-7.66c0 2.361-0.159 4.062-0.468 5.144-0.618 1.899-1.855 2.869-3.695 2.869-1.646 0-3.234-0.914-4.781-2.824v2.47h-4.63v-34.26h4.625v11.19c1.494-1.839 3.08-2.769 4.781-2.769 1.84 0 3.078 0.969 3.695 2.88 0.311 1.027 0.468 2.715 0.468 5.132zm17.46-4.259h-9.251v4.525c0 2.363 0.773 3.543 2.363 3.543 1.139 0 1.802-0.619 2.066-1.855 0.043-0.251 0.104-1.279 0.104-3.134h4.719v0.675c0 1.491-0.057 2.518-0.099 2.98-0.155 1.024-0.519 1.953-1.08 2.771-1.281 1.854-3.179 2.768-5.595 2.768-2.42 0-4.262-0.871-5.599-2.614-0.981-1.278-1.485-3.29-1.485-6.003v-8.941c0-2.729 0.447-4.725 1.43-6.015 1.336-1.747 3.177-2.617 5.54-2.617 2.321 0 4.161 0.87 5.457 2.617 0.969 1.29 1.432 3.286 1.432 6.015v5.285z"/>
  <path style="fill:#391a1a" d="m70.98 58.16c-1.546 0-2.321 1.181-2.321 3.541v2.362h4.625v-2.362c-0.001-2.36-0.774-3.541-2.304-3.541z"/>
  <path style="fill:#391a1a" d="m53.81 58.16c-0.762 0-1.534 0.36-2.307 1.125v15.56c0.772 0.774 1.545 1.14 2.307 1.14 1.334 0 2.012-1.14 2.012-3.445v-10.89c0-2.302-0.678-3.483-2.012-3.483z"/>
  <path style="fill:#391a1a" d="m56.4 34.97c1.705 0 3.479-1.036 5.34-3.168v2.814h4.675v-25.79h-4.675v19.72c-1.036 1.464-2.018 2.188-2.953 2.188-0.626 0-0.994-0.37-1.096-1.095-0.06-0.15-0.06-0.72-0.06-1.82v-18.99h-4.66v20.4c0 1.822 0.156 3.055 0.414 3.836 0.47 1.307 1.507 1.917 3.012 1.917z"/>
  <path style="fill:#391a1a" d="m23.85 20.6v14.02h5.184v-14.02l6.24-20.6h-5.24l-3.54 13.6-3.68-13.6h-5.455c1.093 3.209 2.23 6.434 3.323 9.646 1.663 4.828 2.701 8.468 3.171 10.95z"/>
  <path style="fill:#391a1a" d="m42.22 34.97c2.342 0 4.162-0.881 5.453-2.641 0.981-1.291 1.451-3.325 1.451-6.067v-9.034c0-2.758-0.469-4.774-1.451-6.077-1.291-1.765-3.11-2.646-5.453-2.646-2.33 0-4.149 0.881-5.443 2.646-0.993 1.303-1.463 3.319-1.463 6.077v9.034c0 2.742 0.47 4.776 1.463 6.067 1.293 1.76 3.113 2.641 5.443 2.641zm-2.23-18.68c0-2.387 0.724-3.577 2.231-3.577s2.229 1.189 2.229 3.577v10.85c0 2.387-0.722 3.581-2.229 3.581s-2.231-1.194-2.231-3.581z"/>
 </g>
 <g style="color-rendering:auto;color:#000000;isolation:auto;mix-blend-mode:normal;shape-rendering:auto;solid-color:#000000;image-rendering:auto" fill="#fff" transform="matrix(.2018 0 0 .2018 6.78 7.012)">
  <path d="m82.29 45.91c-0.937-4.071-4.267-7.074-8.275-7.521-9.489-1.06-19.1-1.065-28.66-1.06-9.566-0.005-19.17 0-28.66 1.06-4.006 0.448-7.334 3.451-8.27 7.521-1.334 5.797-1.35 12.12-1.35 18.09s0 12.3 1.334 18.09c0.936 4.07 4.264 7.073 8.272 7.521 9.49 1.061 19.1 1.065 28.66 1.061 9.566 0.005 19.17 0 28.66-1.061 4.006-0.448 7.336-3.451 8.272-7.521 1.333-5.797 1.34-12.12 1.34-18.09-0.001-5.97 0.009-12.3-1.324-18.09zm-53.39 4.493h-5.54v29.44h-5.146v-29.44h-5.439v-4.822h16.12v4.822zm13.98 29.44h-4.629v-2.785c-1.839 2.108-3.585 3.136-5.286 3.136-1.491 0-2.517-0.604-2.98-1.897-0.252-0.772-0.408-1.994-0.408-3.796v-20.19h4.625v18.8c0 1.084 0 1.647 0.042 1.799 0.111 0.718 0.462 1.082 1.082 1.082 0.928 0 1.898-0.715 2.924-2.166v-19.51h4.629l0.001 25.53zm17.57-7.662c0 2.361-0.159 4.062-0.468 5.144-0.618 1.899-1.855 2.869-3.695 2.869-1.646 0-3.234-0.914-4.781-2.824v2.474h-4.625v-34.26h4.625v11.19c1.494-1.839 3.08-2.769 4.781-2.769 1.84 0 3.078 0.969 3.695 2.88 0.311 1.027 0.468 2.715 0.468 5.132v10.17zm17.46-4.259h-9.251v4.525c0 2.363 0.773 3.543 2.363 3.543 1.139 0 1.802-0.619 2.066-1.855 0.043-0.251 0.104-1.279 0.104-3.134h4.719v0.675c0 1.491-0.057 2.518-0.099 2.98-0.155 1.024-0.519 1.953-1.08 2.771-1.281 1.854-3.179 2.768-5.595 2.768-2.42 0-4.262-0.871-5.599-2.614-0.981-1.278-1.485-3.29-1.485-6.003v-8.941c0-2.729 0.447-4.725 1.43-6.015 1.336-1.747 3.177-2.617 5.54-2.617 2.321 0 4.161 0.87 5.457 2.617 0.969 1.29 1.432 3.286 1.432 6.015v5.285h-0.002z"/>
  <path d="m70.98 58.16c-1.546 0-2.321 1.181-2.321 3.541v2.362h4.625v-2.362c-0.001-2.36-0.774-3.541-2.304-3.541z"/>
  <path d="m53.81 58.16c-0.762 0-1.534 0.36-2.307 1.125v15.56c0.772 0.774 1.545 1.14 2.307 1.14 1.334 0 2.012-1.14 2.012-3.445v-10.9c0-2.302-0.678-3.483-2.012-3.483z"/>
  <path d="m56.4 34.97c1.705 0 3.479-1.036 5.34-3.168v2.814h4.675v-25.8h-4.675v19.72c-1.036 1.464-2.018 2.188-2.953 2.188-0.626 0-0.994-0.37-1.096-1.095-0.057-0.153-0.057-0.722-0.057-1.817v-18.99h-4.66v20.4c0 1.822 0.156 3.055 0.414 3.836 0.47 1.307 1.507 1.917 3.012 1.917z"/>
  <path d="m23.85 20.6v14.02h5.184v-14.02l6.236-20.6h-5.242l-3.537 13.6-3.68-13.6h-5.455c1.093 3.209 2.23 6.434 3.323 9.646 1.663 4.828 2.701 8.468 3.171 10.95z"/>
  <path d="m42.22 34.97c2.342 0 4.162-0.881 5.453-2.641 0.981-1.291 1.451-3.325 1.451-6.067v-9.034c0-2.758-0.469-4.774-1.451-6.077-1.291-1.765-3.11-2.646-5.453-2.646-2.33 0-4.149 0.881-5.443 2.646-0.993 1.303-1.463 3.319-1.463 6.077v9.034c0 2.742 0.47 4.776 1.463 6.067 1.293 1.76 3.113 2.641 5.443 2.641zm-2.231-18.68c0-2.387 0.724-3.577 2.231-3.577s2.229 1.189 2.229 3.577v10.85c0 2.387-0.722 3.581-2.229 3.581s-2.231-1.194-2.231-3.581v-10.85z"/>
 </g>
</svg>
