<?xml version="1.0" encoding="UTF-8" standalone="no"?>
<svg xmlns:rdf="http://www.w3.org/1999/02/22-rdf-syntax-ns#" xmlns="http://www.w3.org/2000/svg" xmlns:osb="http://www.openswatchbook.org/uri/2009/osb" height="32" width="32" version="1.0" xmlns:cc="http://creativecommons.org/ns#" xmlns:xlink="http://www.w3.org/1999/xlink" xmlns:dc="http://purl.org/dc/elements/1.1/">
 <path style="color:#000000;fill:#7d0069" d="m0 0v32h32v-32z"/>
 <g style="opacity:.1" transform="matrix(-.02219 0 0 .02219 27.11 6.521)">
  <g>
   <g>
    <path d="m836.5 820.5c-14.5 12.4-24.7 29.8-24.6 49.4 0.5 22.4 14.2 44.6 35 53.5 7.2 3.1 15 4.6 22.8 4.6 32.1 0 58.2-26 58.2-58.2s-26-58.2-58.2-58.2c-1.4 0-2.801 0.1-4.101 0.199l-96.8-96.8 56.3-56.3c6.2-6.199 6.2-16.4 0-22.6l-22.3-22.2c-6.2-6.201-16.4-6.201-22.6 0l-166.5 166.6c-6.2 6.199-6.2 16.4 0 22.6l22.3 22.3c6.2 6.199 16.4 6.199 22.6 0l56.3-56.3 79.4 79.4c0.1-0.1 0.1-0.201 0.2-0.301 0.7-1 1.399-2.1 2.1-3.1 3-4 6.101-7.6 9.4-10.7 5.8-5.4 12.5-10.3 19.8-13.7 4.8-2.5 10-4.5 15.2-6 3.7-1.1 5.899-1.5 5.899-1.5s-1.899 1.1-5 3.301c-1.898 1.199-3.698 2.599-5.398 4z"/>
    <path d="m64.45 285.4c2.7 11.2 9.2 21.2 18.4 28.2l531.4 402.5 36-36-430.2-458.8 458.8 430.2 37.2-37.2-399.6-533.6c-7.1-9.5-17.3-16.1-28.9-18.8l-269.1-61.5c-10.9-2.4-20.6 7.3-18 18.2l64 266.8z"/>
   </g>
  </g>
 </g>
 <g style="fill:#fff" transform="matrix(-.02219 0 0 .02219 26.29 5.706)">
  <g style="fill:#fff">
   <g style="fill:#fff">
    <path style="fill:#fff" d="m836.5 820.5c-14.5 12.4-24.7 29.8-24.6 49.4 0.5 22.4 14.2 44.6 35 53.5 7.2 3.1 15 4.6 22.8 4.6 32.1 0 58.2-26 58.2-58.2s-26-58.2-58.2-58.2c-1.4 0-2.801 0.1-4.101 0.199l-96.8-96.8 56.3-56.3c6.2-6.199 6.2-16.4 0-22.6l-22.3-22.2c-6.2-6.201-16.4-6.201-22.6 0l-166.5 166.6c-6.2 6.199-6.2 16.4 0 22.6l22.3 22.3c6.2 6.199 16.4 6.199 22.6 0l56.3-56.3 79.4 79.4c0.1-0.1 0.1-0.201 0.2-0.301 0.7-1 1.399-2.1 2.1-3.1 3-4 6.101-7.6 9.4-10.7 5.8-5.4 12.5-10.3 19.8-13.7 4.8-2.5 10-4.5 15.2-6 3.7-1.1 5.899-1.5 5.899-1.5s-1.899 1.1-5 3.301c-1.898 1.199-3.698 2.599-5.398 4z"/>
    <path style="fill:#fff" d="m64.45 285.4c2.7 11.2 9.2 21.2 18.4 28.2l531.4 402.5 36-36-430.2-458.8 458.8 430.2 37.2-37.2-399.6-533.6c-7.1-9.5-17.3-16.1-28.9-18.8l-269.1-61.5c-10.9-2.4-20.6 7.3-18 18.2l64 266.8z"/>
   </g>
  </g>
 </g>
</svg>
